<svg width="66" height="66" viewBox="0 0 66 66" fill="none" xmlns="http://www.w3.org/2000/svg">
<circle cx="32.9183" cy="32.9183" r="32.9183" fill="#F5F5F5"/>
<path fill-rule="evenodd" clip-rule="evenodd" d="M57 34C57 20.7453 46.2545 10 33 10C19.7453 10 9 20.7453 9 34C9 47.2554 19.7453 58 33 58C46.2545 58 57 47.2554 57 34ZM28.6317 20.6667C28.443 21.037 28.443 21.5217 28.443 22.4913V27.9862C28.443 28.2284 28.443 28.3495 28.4736 28.4615C28.5007 28.5607 28.5452 28.6542 28.6051 28.7378C28.6727 28.8321 28.7667 28.9084 28.9547 29.0612L30.3446 30.1903C30.5712 30.3743 30.6845 30.4664 30.7256 30.5772C30.7617 30.6743 30.7617 30.7812 30.7256 30.8784C30.6845 30.9892 30.5712 31.0812 30.3446 31.2652L28.9547 32.3944C28.7667 32.5471 28.6727 32.6234 28.6051 32.7177C28.5452 32.8013 28.5007 32.8949 28.4736 32.9941C28.443 33.106 28.443 33.2271 28.443 33.4693V45.5086C28.443 46.4781 28.443 46.9628 28.6317 47.3331C28.7976 47.6591 29.0625 47.9237 29.3882 48.0896C29.7585 48.2784 30.2433 48.2784 31.2128 48.2784H34.7871C35.7566 48.2784 36.2414 48.2784 36.6116 48.0896C36.9374 47.9237 37.2022 47.6591 37.3682 47.3331C37.557 46.9628 37.557 46.4781 37.557 45.5086V40.0135C37.557 39.7713 37.557 39.6502 37.5263 39.5385C37.4992 39.4392 37.4547 39.3455 37.3948 39.262C37.3271 39.1677 37.2331 39.0914 37.0452 38.9388L35.6552 37.8095C35.4287 37.6255 35.3154 37.5335 35.2743 37.4227C35.2382 37.3255 35.2382 37.2186 35.2743 37.1215C35.3154 37.0107 35.4287 36.9187 35.6552 36.7346L37.0452 35.6055C37.2331 35.4528 37.3271 35.3764 37.3948 35.2821C37.4547 35.1985 37.4992 35.105 37.5263 35.0058C37.557 34.8938 37.557 34.7727 37.557 34.5305V22.4913C37.557 21.5217 37.557 21.037 37.3682 20.6667C37.2022 20.3409 36.9374 20.0761 36.6116 19.9101C36.2414 19.7214 35.7566 19.7214 34.7871 19.7214H31.2128C30.2433 19.7214 29.7585 19.7214 29.3882 19.9101C29.0625 20.0761 28.7976 20.3409 28.6317 20.6667Z" fill="#1A285F"/>
</svg>
