<svg width="66" height="66" viewBox="0 0 66 66" fill="none" xmlns="http://www.w3.org/2000/svg">
<circle cx="32.9183" cy="32.9183" r="32.9183" fill="#F5F5F5"/>
<path fill-rule="evenodd" clip-rule="evenodd" d="M42.577 30.6037H27.5762V27.6602H46.5395V29.7829L35.1615 52.7653H31.3122L42.577 30.6037Z" fill="#020202"/>
<path fill-rule="evenodd" clip-rule="evenodd" d="M37.6523 13.6795C37.6806 13.6228 37.6806 13.5379 37.6806 13.4813C37.6806 13.3398 37.6806 13.17 37.624 13.17H39.8317C40.6808 13.1134 41.3318 12.4058 41.3601 11.5567V11.2454C41.3601 10.4529 40.6808 10 39.8317 10H30.3217C29.4726 10 28.7933 10.4529 28.7933 11.2454V11.5284C28.8216 12.3775 29.4726 13.0568 30.3217 13.1417H32.2181C32.1898 13.1417 32.1615 13.3115 32.1615 13.453C32.1615 13.5096 32.1615 13.5379 32.1615 13.5945C27.548 14.1889 23.2176 16.1985 19.7645 19.3685C15.4058 23.3309 13 28.5388 13 34.0014C13 42.3509 18.1795 49.5683 25.5667 52.7666L27.0385 49.9079C20.6702 47.2191 16.1983 41.1055 16.1983 34.0014C16.1983 24.0951 25.8781 16.6796 34.539 16.6796C39.209 16.7079 43.7376 18.2646 47.4453 21.1233L48.8888 18.1797C45.5773 15.7456 41.6997 14.2172 37.6523 13.6795Z" fill="#FB7448"/>
</svg>
