<svg width="66" height="66" viewBox="0 0 66 66" fill="none" xmlns="http://www.w3.org/2000/svg">
<circle cx="32.9183" cy="32.9183" r="32.9183" fill="#F5F5F5"/>
<rect width="40" height="36.8" transform="translate(13 14)" fill="#231E1C"/>
<path d="M32.9392 14.9153C34.8771 18.2854 36.6509 21.3687 38.5125 24.6047C37.182 24.6694 36.7894 25.59 36.316 26.469C32.8492 32.9062 29.3846 39.3457 25.8648 45.7529C25.1141 47.1198 24.7354 48.3712 26.0241 49.7521H13C19.6726 38.0943 26.2182 26.6586 32.9392 14.9153Z" fill="white"/>
<path d="M40.5772 49.6689C41.4595 48.3621 40.8867 47.2818 40.2607 46.1924C38.995 43.9927 37.7503 41.7791 36.503 39.5678C36.339 39.2787 36.0918 38.8439 35.8955 38.4299C36.2697 38.4228 36.7294 38.4299 37.0227 38.4276C39.792 38.4136 42.5635 38.4368 45.3327 38.3951C46.1781 38.3813 46.624 38.7051 47.0304 39.4499C48.5594 42.2509 50.1784 45.0059 51.7583 47.7815C52.0747 48.3389 52.368 48.9102 52.7769 49.6689H40.5772Z" fill="white"/>
</svg>
