<svg width="66" height="66" viewBox="0 0 66 66" fill="none" xmlns="http://www.w3.org/2000/svg">
<circle cx="32.9183" cy="32.9183" r="32.9183" fill="#F5F5F5"/>
<mask id="mask0_4992_96" style="mask-type:luminance" maskUnits="userSpaceOnUse" x="14" y="13" width="39" height="39">
<path d="M53 13H14V52H53V13Z" fill="white"/>
</mask>
<g mask="url(#mask0_4992_96)">
<path fill-rule="evenodd" clip-rule="evenodd" d="M50.0945 13H16.8819C15.2992 13 14 14.2992 14 15.8819V49.0945C14 50.7008 15.2992 52 16.8819 52H22.622C23.9921 51.9291 24.8898 51.4095 25.3386 50.3937C26.4488 46.9213 29.7087 44.4173 33.5591 44.4173C37.4095 44.4173 40.6693 46.9213 41.8032 50.3937C42.252 51.4095 43.1496 51.9291 44.5197 52H50.0945C51.7008 52 53 50.7008 53 49.0945V15.8819C53 14.2992 51.7008 13 50.0945 13ZM41.4016 36.2913H25.5748C25.1496 36.2913 24.8662 35.8189 25.0787 35.4173L32.9921 21.7166C33.2284 21.3386 33.7716 21.3386 34.0079 21.7166L41.9213 35.4173C42.1339 35.8189 41.8504 36.2913 41.4016 36.2913Z" fill="#20E492"/>
</g>
</svg>
