<svg width="66" height="66" viewBox="0 0 66 66" fill="none" xmlns="http://www.w3.org/2000/svg">
<circle cx="32.9183" cy="32.9183" r="32.9183" fill="#F5F5F5"/>
<g clip-path="url(#clip0_4989_25)">
<path d="M46.3077 14H20.6923C17.5485 14 15 16.5485 15 19.6923V45.3077C15 48.4515 17.5485 51 20.6923 51H46.3077C49.4515 51 52 48.4515 52 45.3077V19.6923C52 16.5485 49.4515 14 46.3077 14Z" fill="#0A363A"/>
<path fill-rule="evenodd" clip-rule="evenodd" d="M24.9672 39.2601L24.25 40.8055H26.882C27.4927 40.8055 28.072 40.5543 28.5328 40.1532C31.5853 37.4961 34.5169 37.5783 37.474 40.153C37.9347 40.5541 38.5143 40.8055 39.125 40.8055H41.8414L41.1663 39.2601L34.5464 23.25H31.5867L24.9672 39.2601ZM33.0667 27.7054L29.8678 35.9754L31.3818 35.3384C32.4589 34.8851 33.6745 34.8851 34.7517 35.3384L36.2657 35.9754L33.0667 27.7054Z" fill="#68FFAD"/>
</g>
<defs>
<clipPath id="clip0_4989_25">
<rect width="37" height="37" fill="white" transform="translate(15 14)"/>
</clipPath>
</defs>
</svg>
