<svg width="66" height="66" viewBox="0 0 66 66" fill="none" xmlns="http://www.w3.org/2000/svg">
<circle cx="32.9183" cy="32.9183" r="32.9183" fill="#F5F5F5"/>
<path d="M42.0495 27.0225L42.1222 26.5501L34.1647 30.2927L36.3085 30.438L34.6007 34.5076H31.5122L29.8044 30.438L31.9482 30.2927L23.9907 26.5501L24.0634 27.0225C24.7538 30.9104 26.4979 32.8725 29.2594 32.9088L29.441 33.9989L28.6053 34.3622C26.7886 35.089 25.5531 36.5424 24.9354 38.6498L24.8991 38.8315L29.332 41.811L29.4774 41.6294C30.5311 40.394 31.7665 39.6672 33.0746 39.4129C34.3827 39.6672 35.6181 40.394 36.6718 41.6294L36.8172 41.811L41.2501 38.8315L41.2138 38.6498C40.9867 37.695 40.5354 36.808 39.8971 36.0624C39.2589 35.3168 38.4522 34.734 37.5439 34.3622L36.7082 33.9989L36.8899 32.9088C39.615 32.8725 41.3591 30.874 42.0495 27.0225ZM32.8566 38.1411C31.5122 38.2865 30.3131 38.9405 29.2594 40.1033L27.3336 37.6325C27.2973 36.5787 27.806 35.634 28.896 34.7619L29.5501 34.2532L29.6954 34.98L32.8929 37.8868L32.8566 38.1411ZM37.2532 34.7619C38.3433 35.634 38.852 36.5787 38.8156 37.6325L36.8899 40.1033C35.8361 38.9405 34.6007 38.2865 33.2926 38.1411V37.8868L36.4902 34.98L36.6355 34.2532L37.2532 34.7619Z" fill="#9B9A9B"/>
<path d="M40.4507 41.5567L41.2501 40.4666L40.0874 41.2297C38.6339 42.1744 37.4349 43.9912 36.5265 46.5347H29.5864C29.0047 44.4276 27.7552 42.5662 26.0255 41.2297L24.8628 40.4666L25.6622 41.5567C27.5516 44.1365 28.351 46.5347 28.0239 48.6785L27.9876 49.0055H38.1616L38.1252 48.6785C37.7982 46.5347 38.5613 44.1365 40.4507 41.5567ZM22.828 42.7558L22.8643 41.6294L22.3556 42.6468C21.0112 45.3356 20.5388 48.7511 20.9022 52.8571V52.9297L20.9385 53.0024C22.2466 54.5285 23.9544 55.8002 26.0618 56.7813L27.0792 57.29L26.3525 56.418C23.8454 53.4021 22.6463 48.8238 22.828 42.7558Z" fill="#9B9A9B"/>
<path d="M53.6769 32.0731C51.3151 33.6355 48.917 33.8535 46.5552 32.7998C47.5866 30.4031 48.1064 27.8176 48.0813 25.2085C48.0563 22.5994 47.487 20.0243 46.4098 17.6479C47.9722 15.4314 47.6089 12.5246 47.1729 11.2891L46.3735 9L46.7005 11.3981C46.7005 11.4345 47.0638 14.4503 45.6831 16.2308C45.2012 15.395 44.6798 14.5826 44.1206 13.7963L43.721 14.0506C44.2297 14.9954 44.702 15.9401 45.0654 16.8122L44.7747 16.9938C43.9753 17.4662 43.0306 17.8295 42.1585 18.2292C40.2327 19.0286 38.416 19.828 37.6893 21.3541H28.4964C27.7696 19.828 25.9529 19.0286 24.0271 18.2292C23.155 17.8659 22.2466 17.4662 21.4109 16.9938L21.1202 16.8122C21.5199 15.9038 21.9559 14.9954 22.4646 14.0506L22.0286 13.7963C21.4473 14.5957 20.9022 15.3951 20.4662 16.2308C19.0854 14.4503 19.4488 11.4345 19.4488 11.3981L19.7758 9L18.9764 11.2891C18.5404 12.5246 18.177 15.4314 19.7395 17.6479C18.6623 20.0243 18.093 22.5994 18.068 25.2085C18.0429 27.8176 18.5627 30.4031 19.5941 32.7998C17.2323 33.8899 14.8342 33.6355 12.4724 32.0731L12 31.7461L12.109 32.2911C13.5988 41.0117 16.1786 47.5157 19.8485 51.5853L20.3935 52.1667L20.2845 51.3673C19.6305 46.2803 19.9938 42.4287 21.3382 39.8489L22.3193 38.0321L20.9386 39.5582C19.5934 40.9437 18.6404 42.6616 18.177 44.5362C17.1399 42.2909 16.395 39.9219 15.9606 37.4871C17.5422 37.3257 19.0534 36.7504 20.342 35.819C21.6305 34.8877 22.6509 33.6333 23.3004 32.1821C24.8628 28.4759 24.0271 23.7159 21.0839 19.7553L20.6842 20.046C23.0097 24.0066 23.3004 27.6765 21.4836 31.0194C19.1581 27.5675 18.8311 23.3526 20.5752 18.4836C21.2656 19.1376 22.1376 19.61 23.155 19.937C24.7538 20.4457 26.1345 23.4252 26.1345 23.4252L26.2435 23.6796L26.4615 23.5706C27.1883 23.2799 29.7318 23.0982 32.893 23.0982H33.4743C36.6355 23.0982 39.179 23.2799 39.9057 23.5706L40.1237 23.6796L40.2327 23.4252C40.2327 23.3889 41.6135 20.4457 43.2123 19.937C44.2297 19.61 45.1017 19.1013 45.7921 18.4836C47.4999 23.3526 47.2092 27.5675 44.8837 31.0194C43.0669 27.6765 43.3213 23.9703 45.6831 20.046L45.2834 19.7553C42.3402 23.7159 41.4681 28.5122 43.0669 32.1821C44.3023 35.089 46.9185 36.9784 50.4067 37.4871C50.0434 39.6672 49.3166 42.0654 48.1902 44.5362C47.7111 42.6678 46.7603 40.9537 45.4287 39.5582L44.048 38.0321L45.029 39.8489C46.4098 42.4287 46.7731 46.2803 46.0828 51.3673L45.9738 52.1667L46.5188 51.5853C50.1524 47.5157 52.7685 41.0117 54.2583 32.2911L54.1493 31.7461L53.6769 32.0731Z" fill="#9B9A9B"/>
<path d="M43.2486 41.593L43.285 42.7194C43.4667 48.7875 42.2676 53.3658 39.7604 56.3089L39.0337 57.181L40.0511 56.6723C42.0253 55.8209 43.778 54.5281 45.1744 52.8934L45.2108 52.8207V52.7481C45.6599 49.2758 45.1575 45.7468 43.7573 42.5378L43.2486 41.593Z" fill="#9B9A9B"/>
</svg>
