<svg width="62" height="62" viewBox="0 0 62 62" fill="none" xmlns="http://www.w3.org/2000/svg">
<circle cx="31" cy="31" r="31" fill="#F5F5F5"/>
<path fill-rule="evenodd" clip-rule="evenodd" d="M46.703 28.4027C47.5619 29.0033 48 29.7461 48 30.6078V31.0355C47.9902 31.7011 47.7502 32.6376 46.703 33.4208L46.6993 33.4233C46.1948 33.7824 41.06 37.326 35.6236 41.0792C30.3054 44.7502 24.3129 48.887 23.5808 49.4031V50L23.2251 49.4043C23.2079 49.3737 23.1919 49.3479 23.2104 49.3062H23.1993V46.1904C23.1993 45.1277 23.3175 44.6166 24.5049 43.8285C25.4967 43.1935 41.1953 32.3495 43.2786 30.913C41.2113 29.4825 25.7145 18.766 24.6525 17.9914L24.527 17.9007C23.742 17.3344 23.1243 16.8882 23.1243 15.7091V12L23.422 12.2084C24.3486 12.8507 46.0964 27.9504 46.703 28.4027ZM33.1097 32.5971C32.572 32.5971 32.0392 32.4108 31.4781 32.0394C30.1196 31.1361 23.1513 26.3091 23.0812 26.2601L23 26.2037V23.8234C23 23.2767 23.2363 22.844 23.6509 22.6344C24.0952 22.4089 24.6501 22.4824 25.1349 22.833C26.1833 23.5047 36.3226 30.5134 36.4247 30.5857L36.6548 30.7438L36.421 30.8995C36.421 30.8995 35.7356 31.3542 34.9752 31.8837C34.3243 32.3593 33.7151 32.5971 33.1097 32.5971Z" fill="#356AE6"/>
</svg>
