<svg width="66" height="66" viewBox="0 0 66 66" fill="none" xmlns="http://www.w3.org/2000/svg">
<circle cx="32.9183" cy="32.9183" r="32.9183" fill="#F5F5F5"/>
<path fill-rule="evenodd" clip-rule="evenodd" d="M49.0205 33.0056C49.0198 33.3445 48.9771 33.682 48.8934 34.0104L50.9872 36.1165C55.0261 40.2202 54.9975 46.8077 50.9231 50.8761C46.8486 54.9446 40.2514 54.9732 36.1419 50.9401L34.0655 48.8669C33.3838 49.0475 32.6666 49.0475 31.9849 48.8669L29.9217 50.9292C25.8223 55.0232 19.1754 55.0237 15.0753 50.9302C10.9753 46.8369 10.9748 40.1996 15.0742 36.1056L17.3939 33.7872C17.2901 33.2668 17.2901 32.7312 17.3939 32.2109L15.0764 29.8946C12.4246 27.2462 11.3891 23.3864 12.3601 19.769C13.3311 16.1516 16.161 13.3263 19.7839 12.3572C23.4067 11.3882 27.2721 12.4227 29.924 15.0711L31.7415 16.886C32.5765 16.614 33.4773 16.6194 34.3089 16.9013L36.144 15.0689C40.2537 11.0358 46.8508 11.0644 50.9253 15.1329C54.9998 19.2014 55.0284 25.7888 50.9894 29.8925L48.889 31.9898C48.9762 32.3213 49.0204 32.6627 49.0205 33.0056ZM38.9805 17.9168L37.0074 19.8872C37.0737 20.1803 37.1075 20.4799 37.1082 20.7804C37.1085 21.2088 37.0403 21.6344 36.9064 22.0414L43.918 29.0361C44.246 28.9515 44.5835 28.9088 44.9222 28.9092C45.3262 28.9087 45.7281 28.9677 46.1149 29.0843L48.1386 27.0614C50.5956 24.5243 50.5618 20.4885 48.0625 17.9928C45.5631 15.4971 41.5214 15.4633 38.9805 17.9168ZM36.977 43.8859L43.8987 36.9722C44.6291 37.1629 45.3985 37.1454 46.1197 36.9219L48.1455 38.9448C50.6026 41.4819 50.5688 45.5176 48.0693 48.0134C45.57 50.509 41.5284 50.5428 38.9875 48.0893L36.9441 46.0467C37.0526 45.6739 37.108 45.2877 37.1085 44.8996C37.1086 44.5574 37.0644 44.2168 36.977 43.8859ZM34.1941 40.983L40.9909 34.1962L40.993 34.2006C40.7548 33.4215 40.7548 32.5891 40.993 31.81L33.9442 24.7714C33.3415 24.9163 32.7134 24.9201 32.109 24.7824L25.2751 31.602C25.6054 32.5062 25.6054 33.4979 25.2751 34.402L31.8525 40.9699C32.6177 40.7466 33.4315 40.7511 34.1941 40.983ZM29.1181 22.0858L29.1148 22.0891C28.8699 21.3667 28.8346 20.59 29.0128 19.8484L27.0769 17.9152C24.536 15.4617 20.4943 15.4956 17.9949 17.9912C15.4956 20.4869 15.4617 24.5226 17.9188 27.0598L20.0258 29.1615C20.7266 28.9031 21.4852 28.8424 22.2183 28.9864L29.1148 22.0891L29.1159 22.0923L29.1181 22.0858ZM22.2182 37.0254C21.4855 37.1692 20.7274 37.1101 20.0258 36.8546L17.9188 38.9454C15.4617 41.4826 15.4956 45.5182 17.9949 48.0139C20.4943 50.5096 24.536 50.5434 27.0769 48.0899L29.0764 46.0911C28.9595 45.705 28.9004 45.3037 28.901 44.9001C28.9007 44.5423 28.9479 44.186 29.0413 43.8406L22.2182 37.0254Z" fill="#2665F1"/>
</svg>
