<svg width="66" height="66" viewBox="0 0 66 66" fill="none" xmlns="http://www.w3.org/2000/svg">
<circle cx="32.9183" cy="32.9183" r="32.9183" fill="#F5F5F5"/>
<g clip-path="url(#clip0_263_2)">
<path d="M32.3667 43.6889C29.5318 43.6889 26.8131 42.5628 24.8085 40.5582C22.804 38.5537 21.6778 35.8349 21.6778 33C21.6778 30.1652 22.804 27.4464 24.8085 25.4418C26.8131 23.4373 29.5318 22.3111 32.3667 22.3111C35.2016 22.3111 37.9203 23.4373 39.9249 25.4418C41.9295 27.4464 43.0556 30.1652 43.0556 33C43.0556 35.8349 41.9295 38.5537 39.9249 40.5582C37.9203 42.5628 35.2016 43.6889 32.3667 43.6889ZM44.8156 17.4267L44.6512 17.6445L44.4889 17.86L44.2734 17.6978L44.0667 17.5356C41.6147 15.6822 38.757 14.4386 35.7296 13.9073C32.7022 13.376 29.5919 13.5724 26.6553 14.4801C23.7187 15.3879 21.0402 16.981 18.8407 19.1281C16.6412 21.2751 14.9839 23.9144 14.0055 26.8282C13.0271 29.742 12.7557 32.8467 13.2137 35.886C13.6717 38.9254 14.846 41.8122 16.6397 44.3083C18.4333 46.8043 20.7949 48.838 23.5294 50.2415C26.2639 51.645 29.293 52.378 32.3667 52.38C36.5941 52.3928 40.7073 51.0085 44.0667 48.4422L44.2734 48.2911L44.4889 48.1178L44.6512 48.3445L44.8156 48.5622C45.5468 49.5715 46.4746 50.4225 47.5431 51.0641C48.6116 51.7057 49.7988 52.1246 51.0334 52.2956L51.7489 52.3934V13.6067L51.0334 13.7045C49.7999 13.8747 48.6134 14.2922 47.5451 14.9317C46.4767 15.5713 45.5483 16.4199 44.8156 17.4267Z" fill="#00C2FF"/>
</g>
<defs>
<clipPath id="clip0_263_2">
<rect width="40" height="40" fill="white" transform="translate(13 13)"/>
</clipPath>
</defs>
</svg>
