<svg width="66" height="66" viewBox="0 0 66 66" fill="none" xmlns="http://www.w3.org/2000/svg">
<circle cx="32.9183" cy="32.9183" r="32.9183" fill="#F5F5F5"/>
<g clip-path="url(#clip0_263_2)">
<path d="M32.7875 44.525C29.5983 44.525 26.5397 43.2581 24.2846 41.003C22.0294 38.7478 20.7625 35.6892 20.7625 32.5C20.7625 29.3108 22.0294 26.2522 24.2846 23.997C26.5397 21.7419 29.5983 20.475 32.7875 20.475C35.9768 20.475 39.0354 21.7419 41.2905 23.997C43.5456 26.2522 44.8125 29.3108 44.8125 32.5C44.8125 35.6892 43.5456 38.7478 41.2905 41.003C39.0354 43.2581 35.9768 44.525 32.7875 44.525ZM46.7925 14.98L46.6075 15.225L46.425 15.4675L46.1825 15.285L45.95 15.1025C43.1915 13.0174 39.9766 11.6184 36.5708 11.0207C33.165 10.423 29.6658 10.6439 26.3622 11.6651C23.0586 12.6864 20.0452 14.4786 17.5707 16.894C15.0963 19.3094 13.2318 22.2787 12.1311 25.5567C11.0304 28.8347 10.7251 32.3275 11.2404 35.7468C11.7557 39.166 13.0768 42.4137 15.0946 45.2218C17.1124 48.0299 19.7692 50.3178 22.8455 51.8967C25.9219 53.4756 29.3296 54.3002 32.7875 54.3025C37.5434 54.3169 42.1707 52.7595 45.95 49.8725L46.1825 49.7025L46.425 49.5075L46.6075 49.7625L46.7925 50.0075C47.6151 51.1429 48.6589 52.1003 49.861 52.8221C51.063 53.5439 52.3987 54.0151 53.7875 54.2075L54.5925 54.3175V10.6825L53.7875 10.7925C52.3998 10.9841 51.0651 11.4537 49.8632 12.1732C48.6612 12.8927 47.6168 13.8474 46.7925 14.98Z" fill="#00C2FF"/>
</g>
<defs>
<clipPath id="clip0_263_2">
<rect width="45" height="45" fill="white" transform="translate(11 10)"/>
</clipPath>
</defs>
</svg>
