<svg width="66" height="66" viewBox="0 0 66 66" fill="none" xmlns="http://www.w3.org/2000/svg">
<circle cx="32.9183" cy="32.9183" r="32.9183" fill="#F5F5F5"/>
<g clip-path="url(#clip0_2688_34)">
<mask id="mask0_2688_34" style="mask-type:luminance" maskUnits="userSpaceOnUse" x="7" y="26" width="53" height="14">
<path d="M7 26H60V40H7V26Z" fill="white"/>
</mask>
<g mask="url(#mask0_2688_34)">
<path d="M7.90525 31.5054H13.1209V33.0102L11.1597 33.1648C7.99238 33.4078 7 34.2698 7 36.6813V37.1683C7 38.937 8.20719 39.9983 10.061 39.9983C11.5263 39.9983 12.3625 39.6438 13.402 38.5553H13.5697V39.7061H15.6602V29.1562H7.90525V31.5049V31.5054ZM13.1209 36.5923C12.4814 37.2561 11.5049 37.6984 10.707 37.6984C9.84508 37.6984 9.47958 37.3665 9.49985 36.6371C9.52177 35.6188 9.88344 35.3764 11.5454 35.2212L13.1181 35.0666L13.1209 36.5923Z" fill="#FF8800"/>
<path d="M56.8976 33.4106L55.3452 33.2531C54.4832 33.1653 54.2673 32.9433 54.2673 32.2365C54.2673 31.4403 54.5693 31.2409 55.7759 31.2409C56.8538 31.2409 57.1557 31.4182 57.3102 32.1697H59.7246C59.6594 29.6478 58.9048 29.0078 55.9091 29.0078C52.6333 29.0078 51.8173 29.6483 51.8173 32.2371C51.8173 34.5988 52.4207 35.2444 54.8569 35.4873L56.1288 35.6187C57.2708 35.7303 57.5508 35.9506 57.5508 36.6591C57.5508 37.5211 57.2056 37.7431 55.8055 37.7431C54.5769 37.7431 54.2531 37.5437 54.1895 36.7248H51.7461C51.8102 39.3345 52.5861 39.9983 55.6904 39.9983C59.1426 39.9983 60.0008 39.2909 60.0008 36.415C60.0008 34.2737 59.3755 33.6547 56.8976 33.4117V33.4106Z" fill="#054ADA"/>
<path d="M43.9648 33.6082C43.9648 30.1966 42.8217 29.0078 39.5459 29.0078C36.2701 29.0078 35.041 30.5551 35.041 34.4034C35.041 38.6022 36.1622 39.9994 39.7837 39.9994C42.391 39.9994 43.4919 39.1822 43.8563 36.8805H41.3783C41.0983 37.589 40.7964 37.7442 39.7404 37.7442C38.1458 37.7442 37.7354 37.2798 37.6499 35.3118H43.7872C43.8935 34.75 43.9522 34.1808 43.9648 33.6088V33.6082ZM37.6713 33.2316C37.6932 31.75 38.2746 31.1967 39.6533 31.1967C41.032 31.1967 41.5071 31.7506 41.5509 33.2316H37.6713Z" fill="#054ADA"/>
<path d="M24.1579 29.1636H20.1276V26H17.5625V39.7129H20.1276V31.5292H23.7908V39.7129H26.3558V31.3089H24.1579V29.1636Z" fill="#054ADA"/>
<path d="M45.4087 29.6269V39.7129H47.9738V31.4148H51.0551V29.163H47.9738V28.8742C47.9957 28.2546 48.1464 28.079 48.6423 28.079H51.4436V26H48.4259C46.3787 26 45.4082 26.6417 45.4082 29.6269H45.4087Z" fill="#054ADA"/>
<path d="M28.252 39.7139H30.817V31.6401H34.6326V29.1641H28.252V39.7133V39.7139Z" fill="#054ADA"/>
</g>
</g>
<defs>
<clipPath id="clip0_2688_34">
<rect width="53" height="14" fill="white" transform="translate(7 26)"/>
</clipPath>
</defs>
</svg>
