<svg width="66" height="66" viewBox="0 0 66 66" fill="none" xmlns="http://www.w3.org/2000/svg">
<circle cx="32.9183" cy="32.9183" r="32.9183" fill="#F5F5F5"/>
<g clip-path="url(#clip0_296_2)">
<path d="M48.4346 35.933L34.1963 11.5138C34.1274 11.3932 34.0276 11.2928 33.9069 11.2226C33.7863 11.1524 33.6491 11.115 33.509 11.1141C33.3692 11.1132 33.2315 11.1489 33.1099 11.2176C32.9884 11.2862 32.8874 11.3854 32.8168 11.5051L28.5526 18.8221C28.413 19.0616 28.3395 19.3333 28.3395 19.6099C28.3395 19.8865 28.413 20.1582 28.5526 20.3977L37.8368 36.3281C37.9766 36.5678 38.1778 36.7668 38.42 36.9051C38.6621 37.0435 38.9368 37.1162 39.2163 37.1159H47.7449C47.8845 37.1155 48.0216 37.0787 48.1423 37.0094C48.2631 36.9401 48.3635 36.8407 48.4334 36.721C48.5031 36.6012 48.54 36.4655 48.5403 36.3271C48.5404 36.1889 48.504 36.053 48.4346 35.933Z" fill="#363FF9"/>
<path d="M11.1124 48.6955L25.3507 24.2762C25.4204 24.1566 25.5209 24.0573 25.6417 23.9883C25.7627 23.9191 25.8998 23.8828 26.0393 23.8828C26.1788 23.8828 26.316 23.9191 26.4368 23.9883C26.5577 24.0573 26.658 24.1566 26.7279 24.2762L30.9944 31.5867C31.134 31.8266 31.2075 32.0987 31.2075 32.3756C31.2075 32.6525 31.134 32.9246 30.9944 33.1645L21.71 49.0948C21.5708 49.3346 21.3701 49.5336 21.1283 49.672C20.8864 49.8103 20.612 49.883 20.3327 49.8826H11.8021C11.6616 49.8833 11.5234 49.8472 11.4016 49.7778C11.2797 49.7085 11.1786 49.6084 11.1086 49.4877C11.0385 49.3671 11.0019 49.2303 11.0026 49.0911C11.0032 48.952 11.0411 48.8154 11.1124 48.6955Z" fill="#363FF9"/>
<path d="M26.7259 49.8774H55.2023C55.3421 49.8773 55.4793 49.8407 55.6002 49.7714C55.721 49.7021 55.8213 49.6025 55.8911 49.4827C55.9608 49.3628 55.9973 49.2267 55.9972 49.0884C55.9971 48.9502 55.96 48.8143 55.89 48.6946L51.6301 41.3797C51.4903 41.14 51.2893 40.941 51.0471 40.8027C50.805 40.6643 50.5301 40.5916 50.2506 40.5919H31.682C31.4025 40.5916 31.1278 40.6643 30.8856 40.8027C30.6435 40.941 30.4423 41.14 30.3025 41.3797L26.0383 48.6946C25.9683 48.8143 25.9313 48.9502 25.9312 49.0884C25.9309 49.2267 25.9675 49.3628 26.0371 49.4827C26.1069 49.6025 26.2072 49.7021 26.3282 49.7714C26.449 49.8407 26.5862 49.8773 26.7259 49.8774Z" fill="#363FF9"/>
</g>
<defs>
<clipPath id="clip0_296_2">
<rect width="45" height="39" fill="white" transform="translate(11 11)"/>
</clipPath>
</defs>
</svg>
