<svg width="66" height="66" viewBox="0 0 66 66" fill="none" xmlns="http://www.w3.org/2000/svg">
<circle cx="32.9183" cy="32.9183" r="32.9183" fill="#F5F5F5"/>
<g clip-path="url(#clip0_4991_42)">
<path d="M46.3125 12H20.6875C16.4418 12 13 15.4418 13 19.6875V45.3125C13 49.5582 16.4418 53 20.6875 53H46.3125C50.5582 53 54 49.5582 54 45.3125V19.6875C54 15.4418 50.5582 12 46.3125 12Z" fill="#1C64F2"/>
<path d="M44.0311 32.163C44.3888 31.7555 44.4593 31.1678 44.2104 30.696C43.9586 30.2189 43.4404 29.9463 42.9066 30.0134L36.2392 30.8511L35.2775 30.9719L35.5433 30.0398L38.7859 18.667C38.953 18.0854 38.6952 17.462 38.1661 17.1686C37.6415 16.8776 36.9874 16.9901 36.5825 17.4429M44.0311 32.163C44.0308 32.1632 44.0311 32.1628 44.0311 32.163ZM44.0311 32.163L30.4179 47.5533M30.4179 47.5533C30.4176 47.5535 30.4182 47.553 30.4179 47.5533ZM30.4179 47.5533C30.013 48.0061 29.3588 48.1185 28.8343 47.8274C28.3053 47.534 28.0476 46.9106 28.2146 46.3292L31.4579 34.9624L31.7239 34.0302L30.762 34.151L24.0946 34.9887C23.569 35.0548 23.0428 34.7792 22.79 34.3001C22.5412 33.8284 22.6115 33.2407 22.9693 32.8332M22.9693 32.8332C22.9696 32.833 22.9691 32.8334 22.9693 32.8332ZM22.9693 32.8332L36.5825 17.4429M36.5825 17.4429C36.5828 17.4426 36.5823 17.4432 36.5825 17.4429Z" stroke="#F9FAFB" stroke-width="0.5"/>
</g>
<defs>
<clipPath id="clip0_4991_42">
<rect width="41" height="41" fill="white" transform="translate(13 12)"/>
</clipPath>
</defs>
</svg>
