<svg width="66" height="66" viewBox="0 0 66 66" fill="none" xmlns="http://www.w3.org/2000/svg">
<circle cx="32.9183" cy="32.9183" r="32.9183" fill="#F5F5F5"/>
<path fill-rule="evenodd" clip-rule="evenodd" d="M28.2205 39.5241C25.9639 41.1388 22.6944 42.0013 19.8762 42.0013C15.9246 42.0013 12.3743 40.5872 9.67638 38.2303C9.46577 38.0498 9.65632 37.789 9.90706 37.9395C12.8155 39.5742 16.406 40.5671 20.1068 40.5671C22.6041 40.5671 25.3622 40.0657 27.8896 39.0226C28.2807 38.8521 28.6016 39.2533 28.2205 39.5241Z" fill="#222E3E"/>
<path fill-rule="evenodd" clip-rule="evenodd" d="M28.6608 38.4199C28.4001 38.0789 26.9057 38.2594 26.2438 38.3396C26.0432 38.3597 26.0131 38.1892 26.1936 38.0588C27.3771 37.2163 29.3228 37.457 29.5434 37.7379C29.7741 38.0287 29.4832 40.0045 28.37 40.9472C28.1995 41.0876 28.039 41.0174 28.1092 40.8269C28.37 40.185 28.9316 38.7609 28.6608 38.4199Z" fill="#222E3E"/>
<path fill-rule="evenodd" clip-rule="evenodd" d="M26.2951 31.1277V30.215C26.2951 30.0746 26.3954 29.9844 26.5158 29.9844H30.4472C30.5776 29.9844 30.6779 30.0847 30.6779 30.215V30.9973C30.6779 31.1277 30.5676 31.2982 30.377 31.569L28.3411 34.5978C29.0933 34.5778 29.8956 34.6981 30.5877 35.0993C30.7381 35.1896 30.7882 35.32 30.7983 35.4604V36.4332C30.7983 36.5636 30.6579 36.724 30.5074 36.6438C29.2939 35.9819 27.6892 35.9117 26.3453 36.6538C26.2049 36.7341 26.0645 36.5736 26.0645 36.4432V35.5105C26.0645 35.3601 26.0645 35.1093 26.2149 34.8787L28.5818 31.3484H26.5258C26.4054 31.3584 26.3052 31.2681 26.2951 31.1277Z" fill="#222E3E"/>
<path fill-rule="evenodd" clip-rule="evenodd" d="M12.083 37.0768H10.9196C10.8093 37.0667 10.719 36.9765 10.709 36.8661V30.3571C10.709 30.2268 10.8093 30.1265 10.9397 30.1265H12.0328C12.1432 30.1365 12.2334 30.2268 12.2435 30.3471V31.1996H12.2635C12.5443 30.3772 13.0859 29.9961 13.808 29.9961C14.5402 29.9961 15.0015 30.3772 15.3225 31.1996C15.6033 30.3772 16.2552 29.9961 16.9372 29.9961C17.4286 29.9961 17.9602 30.2167 18.2911 30.7082C18.6622 31.2598 18.582 32.0521 18.582 32.7441V36.8461C18.582 36.9765 18.4817 37.0768 18.3613 37.0768H17.1879C17.0675 37.0667 16.9773 36.9664 16.9773 36.8461V33.396C16.9773 33.1252 16.9973 32.4332 16.9472 32.1724C16.8569 31.7312 16.5962 31.6108 16.2552 31.6108C15.9744 31.6108 15.6735 31.8114 15.5531 32.1424C15.4328 32.4733 15.4428 33.0149 15.4428 33.386V36.8361C15.4428 36.9664 15.3425 37.0667 15.2222 37.0667H14.0487C13.9284 37.0567 13.8381 36.9564 13.8381 36.8361V33.386C13.8381 32.6639 13.9484 31.5907 13.116 31.5907C12.2736 31.5907 12.3036 32.6338 12.3036 33.386V36.8361C12.3137 36.9765 12.2134 37.0768 12.083 37.0768Z" fill="#222E3E"/>
<path fill-rule="evenodd" clip-rule="evenodd" d="M34.3379 31.2882C33.4453 31.2882 33.3851 32.5418 33.3851 33.3141C33.3851 34.0964 33.3751 35.7612 34.3278 35.7612C35.2706 35.7612 35.3107 34.4173 35.3107 33.5949C35.3107 33.0533 35.2906 32.4115 35.1302 31.9C34.9998 31.4587 34.719 31.2882 34.3379 31.2882ZM34.3278 29.9844C36.1331 29.9844 37.1059 31.569 37.1059 33.5849C37.1059 35.5306 36.0228 37.0751 34.3278 37.0751C32.5527 37.0751 31.5898 35.4904 31.5898 33.5147C31.5898 31.5289 32.5627 29.9844 34.3278 29.9844Z" fill="#222E3E"/>
<path fill-rule="evenodd" clip-rule="evenodd" d="M39.645 37.0751H38.5016C38.3813 37.065 38.291 36.9648 38.291 36.8444V30.3354C38.301 30.215 38.3913 30.1248 38.5117 30.1248H39.5748C39.6751 30.1348 39.7553 30.205 39.7753 30.3053V31.2982H39.7954C40.1163 30.4056 40.5677 29.9844 41.36 29.9844C41.8715 29.9844 42.383 30.195 42.7039 30.7466C43.0048 31.2681 43.0048 32.1407 43.0048 32.7725V36.8645C42.9947 36.9848 42.8945 37.065 42.7841 37.065H41.6308C41.5204 37.055 41.4402 36.9748 41.4302 36.8645V33.3342C41.4302 32.6221 41.5104 31.579 40.7081 31.579C40.4273 31.579 40.1665 31.7796 40.0461 32.1006C39.8857 32.5017 39.8656 32.8929 39.8656 33.3342V36.8344C39.8656 36.9748 39.7653 37.0751 39.645 37.0751Z" fill="#222E3E"/>
<path fill-rule="evenodd" clip-rule="evenodd" d="M24.6599 36.9765C24.5797 37.0467 24.4593 37.0567 24.3691 37.0066C23.9579 36.6656 23.8877 36.5051 23.657 36.1842C22.975 36.8762 22.4936 37.0868 21.621 37.0868C20.578 37.0868 19.7656 36.4449 19.7656 35.1511C19.7656 34.1482 20.3072 33.4562 21.0795 33.1252C21.7514 32.8344 22.6841 32.7742 23.4063 32.694V32.5335C23.4063 32.2427 23.4263 31.8916 23.2558 31.6309C23.1054 31.4002 22.8145 31.3099 22.5638 31.3099C22.0924 31.3099 21.6712 31.5506 21.5709 32.0521C21.5508 32.1624 21.4706 32.2727 21.3603 32.2828L20.1668 32.1524C20.0665 32.1323 19.9562 32.0521 19.9863 31.8916C20.2571 30.4274 21.5709 29.9961 22.7544 29.9961C23.3561 29.9961 24.1384 30.1566 24.6198 30.6179C25.2216 31.1795 25.1614 31.9317 25.1614 32.7541V34.6898C25.1614 35.2715 25.4021 35.5222 25.6328 35.8432C25.713 35.9535 25.733 36.0939 25.6328 36.1741C25.362 36.3647 24.9106 36.7558 24.6599 36.9765ZM23.4163 33.9476C23.4163 34.429 23.4263 34.8302 23.1856 35.2615C22.985 35.6125 22.6741 35.8231 22.3331 35.8231C21.8617 35.8231 21.5809 35.4621 21.5809 34.9205C21.5809 33.8674 22.5237 33.6668 23.4163 33.6668V33.9476Z" fill="#222E3E"/>
<path fill-rule="evenodd" clip-rule="evenodd" d="M8.89429 36.9748C8.81405 37.045 8.6937 37.055 8.60344 37.0049C8.19224 36.6639 8.12203 36.5034 7.89136 36.1825C7.20937 36.8745 6.72796 37.0851 5.85542 37.0851C4.81237 37.0851 4 36.4432 4 35.1495C4 34.1465 4.54158 33.4545 5.31384 33.1235C5.9858 32.8327 6.91852 32.7725 7.64063 32.6923V32.5318C7.64063 32.241 7.66069 31.8899 7.49019 31.6292C7.33975 31.3985 7.0489 31.3082 6.79817 31.3082C6.32679 31.3082 5.90556 31.5489 5.80527 32.0504C5.78521 32.1607 5.70498 32.271 5.59466 32.2811L4.40117 32.1507C4.30088 32.1306 4.19056 32.0504 4.22064 31.8899C4.49143 30.4257 5.80527 29.9844 6.9787 29.9844C7.58045 29.9844 8.36274 30.1448 8.84414 30.6062C9.4459 31.1678 9.38572 31.92 9.38572 32.7424V34.6781C9.38572 35.2598 9.62643 35.5105 9.8571 35.8314C9.93733 35.9418 9.95739 36.0822 9.8571 36.1624C9.59634 36.363 9.14502 36.7541 8.89429 36.9748ZM7.65066 33.9459C7.65066 34.4273 7.66069 34.8285 7.41998 35.2598C7.2194 35.6108 6.90849 35.8214 6.5675 35.8214C6.09612 35.8214 5.8153 35.4604 5.8153 34.9188C5.8153 33.8657 6.75805 33.6651 7.65066 33.6651V33.9459Z" fill="#222E3E"/>
<path fill-rule="evenodd" clip-rule="evenodd" d="M52.8637 31.7911C52.5227 32.2023 52.3622 32.7639 52.3622 33.486C52.3622 34.2081 52.5227 34.7798 52.8436 35.201C53.2147 35.6724 53.7563 35.9131 54.4884 35.9131C55.1704 35.9131 55.6919 35.6824 56.073 35.2111C56.404 34.7898 56.5745 34.2382 56.5745 33.5662V33.4459C56.5745 32.7438 56.3739 32.1722 56.0129 31.7409C55.6317 31.2996 55.1403 31.089 54.5385 31.089C53.7964 31.089 53.2347 31.3197 52.8637 31.7911ZM57.5975 28.2608V36.3042C57.5975 36.4246 57.4872 36.5149 57.3568 36.5149H56.8653C56.7249 36.5149 56.6146 36.4146 56.6146 36.2942V35.522C56.1432 36.2942 55.381 36.6753 54.368 36.6753C53.3752 36.6753 52.6029 36.3444 52.0513 35.7125C51.5398 35.1308 51.2891 34.3786 51.2891 33.466C51.2891 32.5734 51.5398 31.8512 52.0513 31.2695C52.6029 30.6176 53.3451 30.2967 54.3179 30.2967C55.2907 30.2967 56.0329 30.7179 56.5544 31.5704V28.2206C56.5544 28.1003 56.6648 28 56.8052 28H57.3267C57.4771 28.01 57.5975 28.1204 57.5975 28.2608Z" fill="#222E3E"/>
<path fill-rule="evenodd" clip-rule="evenodd" d="M49.5338 34.0061C49.5338 34.4976 49.3031 34.9388 48.8518 35.32C48.3904 35.7111 47.8689 35.9117 47.2772 35.9117C46.886 35.9117 46.5751 35.8114 46.3344 35.6309C46.0937 35.4303 45.9834 35.1996 45.9834 34.9088C45.9834 33.9861 46.6854 33.5247 48.0895 33.4946L49.5338 33.4746V34.0061ZM49.945 30.6965C49.5037 30.215 48.8518 29.9844 47.9592 29.9844C47.6884 29.9844 47.4477 30.0044 47.217 30.0446C46.5751 30.1248 45.9834 30.4156 45.5421 30.6864C45.4619 30.7366 45.4318 30.8369 45.4719 30.9171L45.6524 31.2882C45.6925 31.3784 45.8129 31.4186 45.9032 31.3684C46.3244 31.1377 46.8961 30.9372 47.3975 30.8268C47.548 30.7967 47.7185 30.7867 47.899 30.7867C48.9922 30.7867 49.5338 31.3183 49.5338 32.3814V32.7123L48.0294 32.7324C47.0866 32.7424 46.3545 32.8728 45.843 33.2238C45.2613 33.5949 44.9805 34.1866 44.9805 34.9088C44.9805 35.4202 45.171 35.8515 45.5622 36.1825C45.9332 36.5034 46.4347 36.6639 47.0666 36.6639C47.6483 36.6639 48.1698 36.5335 48.6311 36.2727C49.0223 36.0521 49.3432 35.7713 49.5839 35.4202V36.2527C49.5839 36.3831 49.6942 36.4934 49.8246 36.4934H50.2559C50.3862 36.4934 50.4966 36.3831 50.4966 36.2527V32.4115C50.5066 31.6894 50.316 31.1177 49.945 30.6965Z" fill="#222E3E"/>
<path fill-rule="evenodd" clip-rule="evenodd" d="M58.3887 35.5022C58.3887 35.3618 58.5491 35.2715 58.6695 35.3517C59.1609 35.6426 59.6824 35.783 60.2441 35.783C61.1267 35.783 61.7284 35.4921 61.7284 34.9205C61.7284 34.6798 61.6281 34.4692 61.4376 34.3187C61.247 34.1582 60.6954 33.9677 60.1037 33.7571C59.3916 33.4763 58.9303 33.1954 58.7196 32.9146C58.509 32.6338 58.3987 32.3028 58.3987 31.9117C58.3987 31.35 58.6394 30.8486 59.1208 30.5076C59.6022 30.1666 60.1939 29.9961 60.896 29.9961C61.3975 29.9961 61.8688 30.1265 62.3001 30.2869C62.3703 30.317 62.4204 30.3772 62.4204 30.4574V31.1093C62.4204 31.2498 62.28 31.33 62.1497 31.2698C61.7385 31.0692 61.2871 30.9088 60.7857 30.9088C60.4246 30.9088 60.0234 30.989 59.7928 31.1394C59.5621 31.2899 59.4016 31.5607 59.4016 31.8114C59.4016 32.0621 59.4819 32.2627 59.6524 32.4031C59.8128 32.5435 60.3344 32.7241 60.896 32.9447C61.6081 33.2055 62.0995 33.4863 62.3502 33.7671C62.601 34.0479 62.7313 34.3989 62.7313 34.8202C62.7313 35.4019 62.4906 35.8632 62.0092 36.1942C61.5278 36.5252 60.906 36.6957 60.1338 36.6957C59.5119 36.6957 58.9704 36.5853 58.499 36.3747C58.4288 36.3446 58.3887 36.2845 58.3887 36.2042V35.5022Z" fill="#222E3E"/>
</svg>
