<svg width="66" height="66" viewBox="0 0 66 66" fill="none" xmlns="http://www.w3.org/2000/svg">
<circle cx="32.9183" cy="32.9183" r="32.9183" fill="#F5F5F5"/>
<path d="M49.1482 36L37.3911 15.6162C37.1706 15.2348 36.7645 15 36.3248 15H29.6698C29.2301 15 28.824 15.2348 28.6035 15.6162L25.2767 21.3838C25.0573 21.7653 25.0573 22.2348 25.2767 22.6151L32.0662 34.3839C32.48 35.1012 31.963 35.9989 31.1346 35.9989H17.5566C17.1168 35.9989 16.7107 36.2336 16.4903 36.6151L13.1645 42.3838C12.9452 42.7653 12.9452 43.2348 13.1645 43.6151L16.4914 49.3838C16.7118 49.7653 17.1179 50 17.5577 50H24.2125C24.6524 50 25.0585 49.7653 25.2788 49.3838L32.0684 37.615C32.4831 36.8977 33.5179 36.8977 33.9317 37.615L40.7212 49.3838C40.9406 49.7653 41.3477 50 41.7875 50H48.4424C48.8821 50 49.2883 49.7653 49.5086 49.3838L52.8355 43.6151C53.0548 43.2337 53.0548 42.7641 52.8355 42.3838L49.1524 36H49.1482Z" fill="black"/>
</svg>
