<svg width="66" height="66" viewBox="0 0 66 66" fill="none" xmlns="http://www.w3.org/2000/svg">
<ellipse cx="32.9183" cy="33" rx="32.9183" ry="33" fill="#F5F5F5"/>
<g clip-path="url(#clip0_496_2)">
<path d="M32.9654 49.8037C32.1674 49.8091 31.3959 49.5221 30.8018 48.9987C28.9232 47.3087 23.9392 43.3938 18.2628 43.1237C17.7319 43.0961 17.2301 42.8764 16.8542 42.5072C16.4782 42.138 16.2546 41.6452 16.2264 41.1237L14.9944 19.2337C14.9778 18.9407 15.0235 18.6476 15.1287 18.3729C15.2338 18.0983 15.3962 17.8482 15.6054 17.6387C15.819 17.4269 16.0749 17.2608 16.357 17.1506C16.6391 17.0405 16.9412 16.9888 17.2446 16.9987C23.0332 17.2083 28.5771 19.3453 32.9654 23.0587C37.3557 19.3453 42.9012 17.2084 48.6912 16.9987C48.9938 16.9895 49.2951 17.0415 49.5762 17.1516C49.8573 17.2617 50.1124 17.4275 50.3254 17.6387C50.5336 17.8489 50.6952 18.0991 50.8004 18.3736C50.9055 18.648 50.9518 18.9409 50.9363 19.2337L49.7298 41.1237C49.7027 41.6455 49.4795 42.139 49.1034 42.5085C48.7271 42.8779 48.2248 43.0972 47.6935 43.1237C41.9764 43.3938 37.0127 47.3087 35.1341 48.9987C34.5384 49.5228 33.7651 49.8098 32.9654 49.8037ZM18.9705 40.4137C25.0796 40.9137 30.1704 44.6887 32.6803 46.9387C32.7605 47.0059 32.8625 47.0429 32.968 47.0429C33.0734 47.0429 33.1754 47.0059 33.2555 46.9387C35.8011 44.6887 40.892 40.9137 46.9603 40.4137L48.0855 19.7887C43.2591 20.1156 38.6632 21.94 34.9611 24.9987C37.1094 27.3937 38.3159 29.9287 38.2752 31.9987C38.2346 34.0687 36.8243 36.3538 32.9654 36.3538C29.1065 36.3538 27.7218 34.1137 27.6556 31.9987C27.5894 29.8837 28.8264 27.3887 30.9698 24.9987C27.2659 21.9363 22.6656 20.1115 17.8352 19.7887L18.9705 40.4137ZM32.9654 26.9137C31.3363 28.7437 30.4199 30.5788 30.4606 31.9487C30.4606 32.3987 30.4912 33.5937 32.9654 33.5937C35.4395 33.5937 35.4651 32.3987 35.4752 31.9487C35.4956 30.5937 34.5945 28.7587 32.9654 26.9287V26.9137Z" fill="#09090B"/>
</g>
<defs>
<clipPath id="clip0_496_2">
<rect width="36" height="33" fill="white" transform="translate(15 17)"/>
</clipPath>
</defs>
</svg>
