<svg width="66" height="66" viewBox="0 0 66 66" fill="none" xmlns="http://www.w3.org/2000/svg">
<circle cx="32.9183" cy="32.9183" r="32.9183" fill="#F5F5F5"/>
<path d="M18.7597 16.7567C18.0427 16.8569 17.352 17.1013 16.7272 17.476C16.1023 17.8508 15.5556 18.3484 15.1183 18.9404C14.681 19.5325 14.3617 20.2073 14.1788 20.9262C13.9958 21.6452 13.9528 22.3941 14.0521 23.1302L17.307 47L31 15L18.7597 16.7567Z" fill="#97D700"/>
<path d="M52.9853 36.9905L51.6871 18.3282C51.5785 16.8107 50.8906 15.3995 49.7742 14.4034C48.6577 13.4074 47.2036 12.9078 45.7303 13.014C45.6036 13.0187 45.4774 13.0327 45.3527 13.0559L40 13.816L51.7684 41C52.6526 39.8707 53.0876 38.4376 52.9853 36.9905Z" fill="#71C5E8"/>
<path d="M23 52.9646C23.9524 53.072 24.9168 52.9342 25.7988 52.5648L46 44.1813L36.3755 23L23 52.9646Z" fill="#FF9013"/>
</svg>
