<svg width="66" height="66" viewBox="0 0 66 66" fill="none" xmlns="http://www.w3.org/2000/svg">
<circle cx="32.9183" cy="32.9183" r="32.9183" fill="#F5F5F5"/>
<g clip-path="url(#clip0_108_15)">
<mask id="mask0_108_15" style="mask-type:luminance" maskUnits="userSpaceOnUse" x="13" y="13" width="40" height="40">
<path d="M53 13H13V53H53V13Z" fill="white"/>
</mask>
<g mask="url(#mask0_108_15)">
<path d="M35.9389 13H52.3939C52.7285 13 52.9999 13.2713 52.9999 13.6061V38.7532C52.9999 39.3556 52.2165 39.589 51.8867 39.085L35.4317 13.9379C35.1681 13.5348 35.4573 13 35.9389 13Z" fill="#246DFF"/>
<path d="M30.061 13H13.6061C13.2713 13 13 13.2713 13 13.6061V38.7532C13 39.3556 13.7834 39.589 14.1132 39.085L30.5681 13.9379C30.8319 13.5348 30.5427 13 30.061 13Z" fill="#20A34E"/>
<path d="M32.7182 33.1336L14.0254 51.967C13.6458 52.3494 13.9167 53 14.4555 53H51.56C52.0966 53 52.3684 52.354 51.9934 51.9704L33.5816 33.137C33.3452 32.8949 32.9565 32.8935 32.7182 33.1336Z" fill="#F86606"/>
</g>
</g>
<defs>
<clipPath id="clip0_108_15">
<rect width="40" height="40" fill="white" transform="translate(13 13)"/>
</clipPath>
</defs>
</svg>
