<svg width="66" height="66" viewBox="0 0 66 66" fill="none" xmlns="http://www.w3.org/2000/svg">
<circle cx="32.9183" cy="32.9183" r="32.9183" fill="#F5F5F5"/>
<g transform="translate(13 16.28) scale(0.01953125)">
<path fill="rgb(0,222,153)" d="M 752.867 43.4686 C 754.629 44.1776 755.466 45.3399 756.512 46.8631 C 764.067 57.8636 770.393 70.1834 777.073 81.7673 L 810.261 139.272 L 894.081 285.318 L 1415.06 1189.52 L 1594.4 1500.62 C 1615.22 1536.07 1635.72 1571.71 1655.89 1607.54 C 1666.49 1626.04 1678.27 1644.25 1687.59 1663.4 L 1482.5 1663.32 L 1380.13 1663.33 C 1354.89 1663.32 1329.42 1664.05 1304.33 1660.87 C 1251.68 1654.21 1201.64 1627.27 1164.28 1590.1 C 1129.39 1555.39 1108.77 1513.18 1084.43 1471.02 C 1059.96 1429.36 1035.83 1387.51 1012.03 1345.46 L 767.473 920.943 L 634.789 690.84 C 613.044 652.926 588.168 615.321 570.048 575.571 C 554.431 540.926 546.428 503.335 546.577 465.333 C 546.542 436.977 550.86 406.379 561.099 379.743 C 573.972 346.255 593.849 315.142 611.653 284.112 L 692.264 144.8 L 725.014 87.9897 C 733.079 73.8858 741.374 54.9686 752.867 43.4686 z"/>
<path fill="rgb(11,82,75)" d="M 1706.33 119.281 C 1840.15 194.072 1935.71 324.796 1977.05 471.041 C 1983.61 494.831 1988.47 519.06 1991.59 543.543 C 1992.79 552.547 1992.15 562.061 1993.96 570.88 C 1998.5 586.179 1996.27 606.97 1996.26 622.959 C 1996.24 723.632 1973.49 814.228 1925.61 902.956 C 1885.15 976.704 1829.11 1040.75 1761.39 1090.65 C 1742.96 1104.28 1723.41 1115.87 1704.56 1128.78 C 1698.69 1113.89 1688.31 1099.71 1680.33 1085.77 C 1662.89 1054.65 1645.1 1023.72 1626.95 993.005 L 1552.6 864.097 C 1536.52 836.011 1520.85 807.466 1503.63 780.067 C 1548.66 751.262 1579.79 715.04 1591.59 661.739 C 1595.18 645.544 1595.4 629.928 1595.41 613.455 C 1595.29 606.207 1594.37 599.241 1593.1 592.124 C 1586.18 553.491 1564.55 513.824 1534.4 488.19 C 1524.95 480.162 1513.9 473.89 1503.74 466.794 C 1505.59 465.569 1506.9 463.905 1508.11 462.05 C 1525.35 435.607 1539.58 406.688 1555.51 379.392 C 1606 292.873 1654.48 204.973 1706.33 119.281 z"/>
<path fill="rgb(5,142,109)" d="M 1706.33 119.281 C 1840.15 194.072 1935.71 324.796 1977.05 471.041 C 1983.61 494.831 1988.47 519.06 1991.59 543.543 C 1992.79 552.547 1992.15 562.061 1993.96 570.88 C 1993.21 588.393 1994.7 606.391 1994.69 623.982 C 1963.81 621.338 1931.5 623.255 1900.42 623.26 L 1683.41 623.298 C 1662.95 623.303 1642.48 623.126 1622.03 623.37 C 1615.61 623.446 1608.67 624.93 1602.4 624.629 C 1600.11 624.519 1598.7 623.447 1596.96 622.133 C 1595.54 619.232 1595.94 616.509 1595.41 613.455 C 1595.29 606.207 1594.37 599.241 1593.1 592.124 C 1586.18 553.491 1564.55 513.824 1534.4 488.19 C 1524.95 480.162 1513.9 473.89 1503.74 466.794 C 1505.59 465.569 1506.9 463.905 1508.11 462.05 C 1525.35 435.607 1539.58 406.688 1555.51 379.392 C 1606 292.873 1654.48 204.973 1706.33 119.281 z"/>
<path fill="rgb(0,222,153)" d="M 316.881 1120.53 C 467.059 1113.77 594.297 1230 601.11 1380.18 C 607.923 1530.36 491.733 1657.63 341.559 1664.5 C 191.314 1671.36 63.9623 1555.11 57.1458 1404.86 C 50.3293 1254.61 166.631 1127.3 316.881 1120.53 z"/>
<path fill="rgb(0,222,153)" d="M 1071.42 44.9919 C 1093.18 43.1645 1115.76 44.2569 1137.61 44.2555 L 1256.36 44.2469 L 1390.94 44.2852 C 1427.45 44.3171 1465.13 43.3929 1501.37 48.1651 C 1573.63 57.682 1642.91 84.0599 1706.33 119.281 C 1654.48 204.973 1606 292.873 1555.51 379.392 C 1539.58 406.688 1525.35 435.607 1508.11 462.05 C 1506.9 463.905 1505.59 465.569 1503.74 466.794 C 1460.56 444.532 1422.94 444.04 1375.8 444.271 C 1353.48 444.308 1331.15 444.553 1308.83 445.006 C 1294.3 422.238 1281.31 398.344 1267.41 375.172 L 1127.84 139.411 C 1116.54 120.533 1105.42 101.55 1094.47 82.4668 C 1087.17 69.884 1080.18 56.623 1071.42 44.9919 z"/>
</g>
</svg>
