<svg width="66" height="66" viewBox="0 0 66 66" fill="none" xmlns="http://www.w3.org/2000/svg">
<path d="M32.9183 65.8366C51.0986 65.8366 65.8366 51.0986 65.8366 32.9183C65.8366 14.738 51.0986 0 32.9183 0C14.738 0 0 14.738 0 32.9183C0 51.0986 14.738 65.8366 32.9183 65.8366Z" fill="#F5F5F5"/>
<path d="M27.5938 17C27.6283 17.0138 27.6446 17.0365 27.665 17.0663C27.8126 17.2812 27.9361 17.5218 28.0666 17.748L28.7148 18.8712L30.3519 21.7236L40.5273 39.3838L44.03 45.46C44.4367 46.1524 44.8371 46.8485 45.231 47.5483C45.438 47.9096 45.6681 48.2653 45.8501 48.6393L41.8445 48.6377L39.8451 48.6379C39.3521 48.6377 38.8546 48.652 38.3646 48.5899C37.3363 48.4598 36.3589 47.9336 35.6292 47.2076C34.9478 46.5297 34.5451 45.7053 34.0697 44.8819C33.5917 44.0682 33.1205 43.2508 32.6556 42.4295L27.8791 34.1382L25.2876 29.644C24.8629 28.9035 24.3771 28.169 24.0232 27.3926C23.7181 26.716 23.5618 25.9818 23.5647 25.2395C23.5641 24.6857 23.6484 24.0881 23.8484 23.5679C24.0998 22.9138 24.488 22.3061 24.8358 21.7001L26.4102 18.9791L27.0498 17.8696C27.2074 17.5941 27.3694 17.2246 27.5938 17Z" fill="#00DE99"/>
<path d="M46.2162 18.4807C48.8299 19.9415 50.6963 22.4947 51.5037 25.351C51.6318 25.8157 51.7267 26.2889 51.7877 26.7671C51.8111 26.9429 51.7986 27.1288 51.834 27.301C51.9226 27.5998 51.8791 28.0059 51.8789 28.3182C51.8785 30.2844 51.4342 32.0539 50.499 33.7869C49.7088 35.2273 48.6142 36.4782 47.2916 37.4528C46.9316 37.719 46.5498 37.9453 46.1816 38.1975C46.067 37.9067 45.8642 37.6297 45.7084 37.3575C45.3677 36.7496 45.0203 36.1455 44.6658 35.5456L43.2136 33.0279C42.8996 32.4793 42.5935 31.9218 42.2572 31.3867C43.1367 30.8241 43.7447 30.1166 43.9752 29.0756C44.0453 28.7593 44.0496 28.4543 44.0498 28.1325C44.0474 27.991 44.0295 27.8549 44.0047 27.7159C43.8695 26.9614 43.447 26.1866 42.8582 25.686C42.6736 25.5292 42.4578 25.4067 42.2594 25.2681C42.2955 25.2442 42.3211 25.2117 42.3447 25.1754C42.6814 24.659 42.9594 24.0941 43.2705 23.561C44.2566 21.8712 45.2035 20.1544 46.2162 18.4807Z" fill="#0B524B"/>
<path d="M46.2162 18.4807C48.8299 19.9415 50.6963 22.4947 51.5037 25.351C51.6319 25.8157 51.7268 26.2889 51.7877 26.7671C51.8112 26.9429 51.7987 27.1288 51.834 27.301C51.8194 27.6431 51.8485 27.9946 51.8483 28.3382C51.2451 28.2865 50.6141 28.324 50.0071 28.3241L45.7686 28.3248C45.369 28.3249 44.9692 28.3214 44.5698 28.3262C44.4444 28.3277 44.3088 28.3567 44.1864 28.3508C44.1416 28.3486 44.1141 28.3277 44.0801 28.302C44.0524 28.2454 44.0602 28.1922 44.0498 28.1325C44.0475 27.991 44.0295 27.8549 44.0047 27.7159C43.8696 26.9614 43.4471 26.1866 42.8582 25.686C42.6737 25.5292 42.4578 25.4067 42.2594 25.2681C42.2955 25.2442 42.3211 25.2117 42.3448 25.1754C42.6815 24.659 42.9594 24.0941 43.2705 23.561C44.2567 21.8712 45.2035 20.1544 46.2162 18.4807Z" fill="#058E6D"/>
<path d="M19.0785 38.0364C22.0117 37.9043 24.4968 40.1744 24.6299 43.1077C24.7629 46.0409 22.4936 48.5266 19.5605 48.6608C16.626 48.7948 14.1387 46.5243 14.0056 43.5897C13.8724 40.6551 16.1439 38.1686 19.0785 38.0364Z" fill="#00DE99"/>
<path d="M33.8156 17.0297C34.2406 16.994 34.6816 17.0154 35.1083 17.0153L37.4277 17.0152L40.0562 17.0159C40.7693 17.0165 41.5052 16.9985 42.213 17.0917C43.6243 17.2776 44.9775 17.7928 46.2161 18.4807C45.2034 20.1543 44.2566 21.8711 43.2704 23.561C42.9593 24.0941 42.6814 24.6589 42.3447 25.1754C42.321 25.2116 42.2954 25.2441 42.2593 25.268C41.4159 24.8332 40.6812 24.8236 39.7605 24.8281C39.3245 24.8289 38.8884 24.8336 38.4525 24.8425C38.1687 24.3978 37.915 23.9311 37.6435 23.4785L34.9175 18.8738C34.6968 18.5051 34.4796 18.1344 34.2657 17.7616C34.1232 17.5159 33.9866 17.2569 33.8156 17.0297Z" fill="#00DE99"/>
</svg>
