<svg width="67" height="67" viewBox="0 0 67 67" fill="none" xmlns="http://www.w3.org/2000/svg">
<g clip-path="url(#clip0_2611_175)">
<circle cx="33.6624" cy="33.4729" r="32.9183" fill="#F5F5F5"/>
</g>
<path d="M48.75 15H17.25C16.0074 15 15 16.0074 15 17.25V48.75C15 49.9926 16.0074 51 17.25 51H48.75C49.9926 51 51 49.9926 51 48.75V17.25C51 16.0074 49.9926 15 48.75 15Z" fill="#FECF40"/>
<path d="M40.9019 25.311H37.2339L39.1358 28.6217L40.9019 25.311ZM46 44L32.9781 22L20 43.9539H26.9509C27.8782 43.9539 28.7906 43.716 29.5973 43.2652C30.4679 42.7782 31.1252 42.0723 31.6391 41.2165C32.2398 40.2153 32.8232 39.2026 33.4146 38.1954L34.9273 35.6174L32.9763 32.2969L32.1113 33.7108C31.1252 35.3852 30.1921 37.0982 29.1704 38.75C28.6565 39.5784 27.986 40.361 26.9962 40.5626C26.8461 40.5924 26.6939 40.6097 26.541 40.6144C26.3371 40.6221 26.1329 40.6182 25.931 40.6182L32.9781 28.4299L42.0276 44H46Z" fill="black"/>
<defs>
<clipPath id="clip0_2611_175">
<rect width="65.8365" height="65.8365" fill="white" transform="translate(0.744141 0.554688)"/>
</clipPath>
</defs>
</svg>
