<svg width="66" height="66" viewBox="0 0 66 66" fill="none" xmlns="http://www.w3.org/2000/svg">
<circle cx="32.9183" cy="32.9183" r="32.9183" fill="#F5F5F5"/>
<path d="M45.6483 34.0415C40.4835 34.0415 36.2967 38.2285 36.2967 43.3935C36.2967 48.5584 40.4835 52.7454 45.6483 52.7454C50.8132 52.7454 55 48.5584 55 43.3935C55 38.2285 50.8132 34.0415 45.6483 34.0415ZM21.3517 34.0423C16.187 34.0423 12 38.2285 12 43.3935C12 48.5584 16.187 52.7454 21.3517 52.7454C26.5167 52.7454 30.7039 48.5584 30.7039 43.3935C30.7039 38.2285 26.5167 34.0423 21.3517 34.0423ZM42.8516 22.3515C42.8516 27.5167 38.6648 31.7041 33.5001 31.7041C28.335 31.7041 24.1483 27.5167 24.1483 22.3515C24.1483 17.1874 28.335 13 33.5001 13C38.6648 13 42.8516 17.1874 42.8516 22.3515Z" fill="#F06A6A"/>
</svg>
