<svg width="62" height="62" viewBox="0 0 62 62" fill="none" xmlns="http://www.w3.org/2000/svg">
<circle cx="31" cy="31" r="31" fill="#F5F5F5"/>
<path d="M52.5391 37.9082L48.8229 31.948C48.8229 31.948 48.8091 31.923 48.8006 31.9119L48.5073 31.4436C47.9547 30.5543 46.9979 30.0222 45.9526 30.0194L39.966 30L39.5486 30.6707L32.3951 42.1421L32 42.7766L34.997 47.5755C35.5502 48.4683 36.507 49 37.5603 49H45.95C46.9842 49 47.9627 48.454 48.5105 47.5786L48.8059 47.1047C48.8059 47.1047 48.8171 47.0909 48.8203 47.0856L52.5418 41.1169C53.1527 40.1414 53.1527 38.8807 52.5418 37.9082H52.5391ZM51.4052 40.4046L47.6837 46.3734C47.6667 46.4009 47.6476 46.4231 47.6312 46.4454C47.5013 46.5921 47.3326 46.6117 47.2578 46.6117C47.1719 46.6117 46.9619 46.5868 46.8261 46.3702L43.1046 40.402C43.0632 40.3353 43.0272 40.2664 42.9938 40.1912C42.9609 40.1192 42.936 40.0472 42.9137 39.9725C42.8309 39.6733 42.8309 39.3519 42.9137 39.0525C42.9556 38.9058 43.0187 38.7588 43.102 38.6258L46.8182 32.6629C46.8182 32.6629 46.8235 32.6547 46.8261 32.649C46.9147 32.516 47.0255 32.4551 47.1221 32.4356C47.1613 32.4247 47.1942 32.4219 47.2218 32.4164C47.2356 32.4164 47.2493 32.4164 47.2631 32.4164C47.3491 32.4164 47.5617 32.4439 47.6948 32.6601L51.411 38.6203C51.751 39.1633 51.751 39.8618 51.411 40.4046H51.4052Z" fill="black"/>
<path d="M41.5504 23.9074C42.1499 22.9455 42.1499 21.7085 41.5504 20.752L37.8876 14.891L37.5823 14.3978C37.0346 13.5232 36.0922 13 35.0563 13H26.7888C25.756 13 24.8132 13.5232 24.2628 14.4006L9.45785 38.0926C9.16098 38.5668 9 39.1145 9 39.6701C9 40.2263 9.15785 40.7736 9.45524 41.2454L13.4254 47.6023C13.9731 48.4798 14.916 49 15.9488 49H24.2163C25.2548 49 26.1977 48.4772 26.7423 47.5992L27.0449 47.1201C27.0449 47.1201 27.0449 47.1201 27.0449 47.1143L27.0502 47.1034L30.0016 42.3843L38.7489 28.3869L41.5446 23.9101L41.5504 23.9074ZM40.6864 22.3297C40.6864 22.6322 40.6017 22.9374 40.4303 23.2071L25.9275 46.417C25.7968 46.6269 25.5872 46.6514 25.5026 46.6514C25.4179 46.6514 25.2109 46.6269 25.0776 46.417L21.4122 40.545C21.0798 40.0138 21.0798 39.3297 21.4122 38.7929L35.915 15.5886C36.0457 15.3761 36.2553 15.3515 36.34 15.3515C36.4241 15.3515 36.6342 15.3761 36.7675 15.5913L40.4303 21.4524C40.6017 21.7222 40.6864 22.0272 40.6864 22.3297Z" fill="black"/>
</svg>
