<svg width="66" height="66" viewBox="0 0 66 66" fill="none" xmlns="http://www.w3.org/2000/svg">
<circle cx="32.9183" cy="32.9183" r="32.9183" fill="#F5F5F5"/>
<g clip-path="url(#clip0_527_2)">
<path d="M42.8652 25.7667C49.3708 25.7667 55 31.3 55 37.7C55 44.6333 49.6067 50 42.4607 50C35.9888 50 30.3596 45.5333 30.3596 38.3333V15H34.1011V29.2667L34.5393 28.8C36.191 27.2333 38.5169 25.7667 42.8652 25.7667ZM42.4944 46.6333C47.8202 46.6333 51.191 42.9333 51.191 38.0333C51.191 33.5333 47.9888 29.2333 42.5955 29.2333C37.1685 29.2333 33.8315 33.2333 33.8315 38.1333C33.7978 43 37.7753 46.6333 42.4944 46.6333ZM22.8764 17.8333C25.6742 20.7333 25.9775 22.3333 26.9551 25.1667L28.6067 30.5C28.6067 30.5 26.9551 30.2 25.6067 30C24.0562 29.7667 23.3483 29.5333 21.3596 28.7333C19.3708 27.9333 17.5843 26 15.8315 23.8333C14.1124 21.7 10 18.3 10 18.3C10 18.3 11.2809 18.3667 12.5618 18.7C13.6067 18.9667 16.3708 19.8333 19.2022 21.2667C19.8427 21.6 20.1798 21.8 20.7865 22.1667C21.7303 22.7333 22.7079 23.6 23.6517 24.5333C24.764 25.6333 25.7416 26.5333 26.5843 27.5333C25.6742 25.9 23.3146 20 18.7303 15.1333C18.2921 14.6333 21.8989 16.8333 22.8764 17.8333Z" fill="#73C41D"/>
</g>
<defs>
<clipPath id="clip0_527_2">
<rect width="45" height="35" fill="white" transform="translate(10 15)"/>
</clipPath>
</defs>
</svg>
