<svg width="66" height="66" viewBox="0 0 66 66" fill="none" xmlns="http://www.w3.org/2000/svg">
<circle cx="32.9183" cy="32.9183" r="32.9183" fill="#F5F5F5"/>
<g clip-path="url(#clip0_395_2)">
<path d="M34.9452 49.9213H16.8816C16.3826 49.9213 15.904 49.7223 15.5512 49.3683C15.1983 49.0142 15.0001 48.5339 15.0001 48.0332V43.1259C15.0001 42.6252 15.1983 42.145 15.5512 41.7909C15.904 41.4368 16.3826 41.2379 16.8816 41.2379H34.9452C35.4442 41.2379 35.9228 41.4368 36.2757 41.7909C36.6285 42.145 36.8268 42.6252 36.8268 43.1259V48.0332C36.8268 48.5339 36.6285 49.0142 36.2757 49.3683C35.9228 49.7223 35.4442 49.9213 34.9452 49.9213Z" fill="#4D68C4"/>
<path d="M48.1184 36.8018L16.8816 36.8018C16.3825 36.8018 15.904 36.6028 15.5511 36.2488C15.1982 35.8947 15 35.4144 15 34.9137V30.0064C15 29.5057 15.1982 29.0254 15.5511 28.6714C15.904 28.3173 16.3825 28.1184 16.8816 28.1184L48.1184 28.1184C48.6175 28.1184 49.096 28.3173 49.4489 28.6714C49.8018 29.0254 50 29.5057 50 30.0064V34.9137C50 35.4144 49.8018 35.8947 49.4489 36.2488C49.096 36.6028 48.6175 36.8018 48.1184 36.8018Z" fill="#5190EF"/>
<path d="M48.1184 23.6833L30.0548 23.6833C29.5558 23.6833 29.0772 23.4844 28.7244 23.1303C28.3715 22.7763 28.1733 22.296 28.1733 21.7953V16.888C28.1733 16.3873 28.3715 15.907 28.7244 15.553C29.0772 15.1989 29.5558 15 30.0548 15L48.1184 15C48.6175 15 49.096 15.1989 49.4489 15.553C49.8018 15.907 50 16.3873 50 16.888V21.7953C50 22.296 49.8018 22.7763 49.4489 23.1303C49.096 23.4844 48.6175 23.6833 48.1184 23.6833Z" fill="#2BC3F1"/>
<path d="M48.1184 49.9213H43.2281C42.7291 49.9213 42.2505 49.7223 41.8976 49.3683C41.5448 49.0142 41.3466 48.5339 41.3466 48.0332V43.1259C41.3466 42.6252 41.5448 42.145 41.8976 41.7909C42.2505 41.4368 42.7291 41.2379 43.2281 41.2379H48.1184C48.6175 41.2379 49.096 41.4368 49.4489 41.7909C49.8018 42.145 50 42.6252 50 43.1259V48.0332C50 48.5339 49.8018 49.0142 49.4489 49.3683C49.096 49.7223 48.6175 49.9213 48.1184 49.9213Z" fill="#4D68C4"/>
<path d="M16.8816 15H21.7719C22.2709 15 22.7495 15.1989 23.1024 15.553C23.4552 15.9071 23.6534 16.3873 23.6534 16.8881V21.7953C23.6534 22.2961 23.4552 22.7763 23.1024 23.1304C22.7495 23.4845 22.2709 23.6834 21.7719 23.6834H16.8816C16.3825 23.6834 15.904 23.4845 15.5511 23.1304C15.1982 22.7763 15 22.2961 15 21.7953V16.8881C15 16.3873 15.1982 15.9071 15.5511 15.553C15.904 15.1989 16.3825 15 16.8816 15Z" fill="#2BC3F1"/>
</g>
<defs>
<clipPath id="clip0_395_2">
<rect width="35" height="35" fill="white" transform="translate(15 15)"/>
</clipPath>
</defs>
</svg>
