<svg width="66" height="66" viewBox="0 0 66 66" fill="none" xmlns="http://www.w3.org/2000/svg">
<circle cx="32.9183" cy="32.9183" r="32.9183" fill="#F5F5F5"/>
<path fill-rule="evenodd" clip-rule="evenodd" d="M21.1485 14H41.0891C47.115 14 52 18.885 52 24.9109C52 24.929 52 24.9471 52 24.9652C52 30.103 48.597 31.8008 48.597 33C48.597 34.1992 52 35.897 52 41.0348C52 41.0529 52 41.071 52 41.0891C52 47.115 47.115 52 41.0891 52H21.1485C17.2005 52 14 48.7995 14 44.8515V21.1485C14 17.2005 17.2005 14 21.1485 14ZM23.5 21.8036C22.5631 21.8036 21.8036 22.5631 21.8036 23.5V42.5C21.8036 43.4369 22.5631 44.1964 23.5 44.1964H41.3804C42.3173 44.1964 43.0768 43.4369 43.0768 42.5V23.5C43.0768 22.5631 42.3173 21.8036 41.3804 21.8036H23.5ZM26.8929 27.2321H37.9705C38.5327 27.2321 38.9884 27.6879 38.9884 28.25C38.9884 28.8121 38.5327 29.2679 37.9705 29.2679H26.8929C26.3307 29.2679 25.875 28.8121 25.875 28.25C25.875 27.6879 26.3307 27.2321 26.8929 27.2321ZM26.8929 31.9821H37.9705C38.5327 31.9821 38.9884 32.4379 38.9884 33C38.9884 33.5621 38.5327 34.0179 37.9705 34.0179H26.8929C26.3307 34.0179 25.875 33.5621 25.875 33C25.875 32.4379 26.3307 31.9821 26.8929 31.9821ZM29.9464 36.7321H35.2054C35.7675 36.7321 36.2232 37.1879 36.2232 37.75C36.2232 38.3121 35.7675 38.7679 35.2054 38.7679H29.9464C29.3843 38.7679 28.9286 38.3121 28.9286 37.75C28.9286 37.1879 29.3843 36.7321 29.9464 36.7321Z" fill="#20C98B"/>
</svg>
