<svg width="66" height="66" viewBox="0 0 66 66" fill="none" xmlns="http://www.w3.org/2000/svg">
<circle cx="32.9183" cy="32.9183" r="32.9183" fill="#F5F5F5"/>
<path d="M48.6698 32.1645H18.3653C17.5931 32.1645 16.9629 31.532 16.9629 30.7621V28.623C16.9629 26.2021 18.9267 24.2383 21.3476 24.2383H45.6542C48.0751 24.2383 50.0389 26.2021 50.0389 28.623V30.7621C50.0722 31.5343 49.4398 32.1645 48.6698 32.1645Z" fill="#010202"/>
<path d="M42.285 21.9262H24.7484C23.9762 21.9262 23.3105 21.2938 23.3105 20.4883C23.3105 16.9113 26.2218 14 29.7988 14H37.2346C40.8116 14 43.7229 16.9113 43.7229 20.4883C43.7229 21.296 43.0905 21.9262 42.285 21.9262Z" fill="#010202"/>
<path d="M50.0724 34.4844H16.9631C14.7885 34.4844 13 36.2729 13 38.4475C13 40.6221 14.7885 42.4106 16.9631 42.4106H28.7126C29.1342 40.165 31.098 38.4475 33.4834 38.4475C35.8688 38.4475 37.868 40.165 38.2874 42.4106H50.0369C52.2115 42.4106 54 40.6221 54 38.4475C54 36.2729 52.247 34.4844 50.0724 34.4844Z" fill="#010202"/>
<path d="M48.6335 44.7227H38.3574V52.6488H46.0728C48.2474 52.6488 50.0359 50.8603 50.0359 48.6857V46.1606C50.0714 45.3884 49.439 44.7227 48.6335 44.7227Z" fill="#010202"/>
<path d="M18.3656 44.7227C17.5934 44.7227 16.9277 45.3551 16.9277 46.1606V48.6857C16.9277 50.8603 18.7162 52.6488 20.8908 52.6488H28.6062V44.7227C28.6417 44.7227 18.3656 44.7227 18.3656 44.7227Z" fill="#010202"/>
</svg>
