<svg width="66" height="66" viewBox="0 0 66 66" fill="none" xmlns="http://www.w3.org/2000/svg">
<circle cx="32.9183" cy="32.9183" r="32.9183" fill="#F5F5F5"/>
<path d="M33.0222 32.4306C34.839 33.6663 36.6172 34.8726 38.3935 36.0807C38.388 36.0991 38.3825 36.1157 38.3752 36.1341H27.6748C27.6656 36.1194 27.6583 36.1028 27.6491 36.0881C29.4328 34.8745 31.2146 33.6608 33.0222 32.4306Z" fill="#FFCA06"/>
<path d="M27.4376 36.2536C27.5111 36.5791 27.4523 36.8512 27.4431 37.1234C27.4339 37.3551 27.4137 37.5849 27.4192 37.8166C27.4247 38.0612 27.467 38.0962 27.7042 38.1145C27.7612 38.1201 27.8201 38.1182 27.8771 38.1182C31.2367 38.1182 34.5981 38.1219 37.9577 38.1219C38.1618 38.1219 38.3641 38.1017 38.5921 38.0906C38.6418 37.4581 38.6326 36.8733 38.5517 36.2518C38.6344 36.2849 38.6969 36.2959 38.7466 36.3308C39.7856 37.0259 40.8227 37.7247 41.8616 38.4198C41.9903 38.5062 42.0418 38.5982 42.0253 38.7637C41.8377 40.6522 41.2419 42.3954 40.203 43.9879C39.6348 44.8577 38.9286 45.5987 38.1379 46.2699C36.893 47.3254 35.6665 48.403 34.4326 49.4732C34.0391 49.8152 33.6474 50.1591 33.2539 50.4993C33.1859 50.5581 33.1068 50.6078 33.0112 50.6777C32.7225 50.4349 32.4356 50.2032 32.1579 49.9623C30.6703 48.6733 29.1882 47.3769 27.6969 46.0934C25.9205 44.5634 24.8466 42.6198 24.3005 40.369C24.1754 39.8541 24.1184 39.3227 24.0283 38.7986C23.9971 38.6221 24.0449 38.5081 24.2104 38.3996C25.15 37.7854 26.0787 37.1546 27.0128 36.5294C27.1434 36.443 27.2758 36.3621 27.4376 36.2591V36.2536ZM37.2259 42.1803L37.178 42.081C34.4639 42.081 31.7497 42.081 29.0356 42.0828C28.973 42.0828 28.9105 42.1159 28.8094 42.1435C28.8921 42.2649 28.9454 42.366 29.0208 42.4469C29.3574 42.8128 29.6975 43.1751 30.0396 43.5337C30.251 43.7543 30.5066 43.8371 30.8192 43.8352C32.1377 43.8242 33.458 43.8408 34.7765 43.8334C35.821 43.826 35.5047 43.9621 36.3653 43.2082C36.7036 42.9103 36.9611 42.5407 37.2259 42.1803Z" fill="#FFCA06"/>
<path d="M37.2222 29.5822C37.476 29.4038 37.6893 29.2494 37.9062 29.1004C39.8959 27.7433 41.8856 26.3844 43.877 25.031C44.8737 24.3525 45.9623 23.9222 47.1796 23.8817C48.3326 23.8431 49.3532 24.1796 50.1604 25.0347C50.6735 25.5772 50.9714 26.241 51.17 26.9508C51.3796 27.7029 51.4679 28.4697 51.4807 29.2494C51.4955 30.143 51.4679 31.0312 51.2527 31.9047C51.0652 32.666 50.7875 33.3831 50.2671 33.9881C49.5628 34.8083 48.6544 35.2073 47.586 35.2588C46.3025 35.3194 45.1311 34.9609 44.0738 34.2511C42.075 32.9087 40.089 31.5461 38.0975 30.1927C37.8143 29.9996 37.533 29.7992 37.2204 29.5822H37.2222Z" fill="#FFCA06"/>
<path d="M28.8186 29.5859C28.2761 29.961 27.7759 30.3104 27.2721 30.6543C25.6079 31.787 23.9401 32.9142 22.2777 34.0525C21.3951 34.6556 20.4481 35.0988 19.3778 35.2257C18.326 35.3507 17.3202 35.2275 16.4302 34.5913C15.8178 34.1536 15.4114 33.5578 15.1227 32.8756C14.7899 32.0886 14.6465 31.2611 14.5894 30.4134C14.5104 29.2292 14.5619 28.0541 14.8984 26.9067C15.1356 26.0957 15.4942 25.3436 16.1506 24.7846C17.0719 23.9994 18.1624 23.7714 19.3374 23.9167C20.3285 24.0399 21.2406 24.3966 22.0681 24.963C24.2177 26.4322 26.3692 27.896 28.5188 29.3634C28.6053 29.4222 28.6862 29.4866 28.8223 29.5859H28.8186Z" fill="#FFCA06"/>
<path d="M30.2455 17.5229C31.2238 17.1441 32.1929 16.8922 33.2171 16.9271C34.2396 16.9602 35.1939 17.2655 36.1391 17.6995C36.2274 17.5524 36.2991 17.4236 36.38 17.3004C36.8434 16.5814 37.2957 15.8551 37.7757 15.1453C38.035 14.761 38.423 14.5587 38.8919 14.5311C39.4546 14.4998 39.8941 14.7389 40.1717 15.2115C40.4568 15.6969 40.4402 16.2137 40.1386 16.6936C39.861 17.1331 39.541 17.5468 39.267 17.9882C39.0114 18.4001 38.7999 18.8396 38.5572 19.2607C38.4083 19.5181 38.4138 19.7332 38.5977 19.9888C39.0077 20.5571 39.2688 21.2007 39.4656 21.8718C39.5796 22.2617 39.5796 22.2635 39.2431 22.4915C37.2921 23.821 35.3392 25.1524 33.3882 26.4819C33.3312 26.5205 33.2686 26.5536 33.2135 26.5959C33.0737 26.7025 32.9524 26.6897 32.8052 26.5885C32.2444 26.1987 31.6725 25.8254 31.108 25.4411C29.6626 24.4573 28.2191 23.4717 26.7756 22.4879C26.474 22.2819 26.4667 22.2746 26.5678 21.9197C26.8087 21.0756 27.1875 20.2978 27.73 19.6082C27.89 19.4041 27.9047 19.2312 27.7888 19.0124C27.4174 18.3044 26.9999 17.6241 26.5182 16.986C26.2699 16.6568 26.0676 16.313 26.0934 15.8771C26.1265 15.3016 26.4115 14.8823 26.9264 14.6561C27.4652 14.4189 28.0168 14.4502 28.4361 14.897C28.7818 15.2648 29.0687 15.6933 29.3574 16.1107C29.6001 16.4619 29.8097 16.837 30.0341 17.2011C30.0948 17.2986 30.1573 17.3942 30.24 17.5248L30.2455 17.5229Z" fill="#FFCA06"/>
<path d="M11 27.7728C11.0496 27.6919 11.125 27.6165 11.1471 27.5264C11.2703 27.0096 11.3567 26.4837 11.4983 25.9744C11.9617 24.301 12.8242 22.8777 14.2235 21.813C15.1522 21.1069 16.1966 20.6711 17.3459 20.4651C17.8626 20.3732 18.3794 20.3327 18.8998 20.3419C20.2752 20.3658 21.5716 20.7189 22.8129 21.3C22.8754 21.3294 22.9379 21.357 23.0243 21.3974C23.0593 21.3184 23.0924 21.2503 23.1181 21.1804C23.3314 20.5938 23.5337 20.0036 23.7617 19.4243C23.8206 19.2735 23.7728 19.189 23.7029 19.0805C23.4896 18.7513 23.2634 18.4277 23.0777 18.082C22.7375 17.4494 22.5701 16.7543 22.5683 16.0482C22.5609 13.5455 24.1589 11.4988 26.612 11.0851C28.5961 10.7504 30.2989 11.4014 31.5199 13.0692C31.7332 13.3598 31.9281 13.5142 32.3051 13.4535C32.9855 13.3414 33.6695 13.4278 34.3481 13.5013C34.5393 13.5216 34.6441 13.4719 34.7544 13.3248C34.9825 13.0196 35.2142 12.7125 35.4771 12.4385C36.1924 11.6993 37.0751 11.223 38.081 11.0759C41.047 10.6401 43.3272 12.4661 43.7998 15.0497C44.0444 16.3865 43.7722 17.6241 42.9962 18.7458C42.8381 18.9738 42.6744 19.1981 42.5126 19.4243C42.4446 19.5199 42.3913 19.6119 42.4354 19.7425C42.6156 20.2665 42.7848 20.7943 42.9595 21.3202C42.9668 21.3404 42.9852 21.357 43.0238 21.4066C43.1158 21.3717 43.2224 21.3404 43.3217 21.2945C44.2191 20.8734 45.1551 20.592 46.137 20.4467C49.2521 19.987 52.5252 21.3496 54.0239 24.6026C54.5682 25.7831 54.8385 27.028 54.9452 28.3189C55.05 29.5712 55.0077 30.8161 54.7907 32.0518C54.5369 33.5064 54.0349 34.8653 53.11 36.0385C52.0361 37.4011 50.6349 38.2396 48.9394 38.5982C47.9979 38.7968 47.0528 38.7729 46.1039 38.6864C45.9347 38.6717 45.7656 38.6625 45.5706 38.6497C45.5136 39.1039 45.4695 39.5268 45.4033 39.946C45.0576 42.1858 44.2687 44.2545 42.9926 46.132C42.3453 47.0845 41.5803 47.9341 40.7087 48.688C39.0445 50.1278 37.3822 51.5677 35.7254 53.0149C35.1792 53.4911 34.611 53.9177 33.8975 54.1127C33.8369 54.1292 33.789 54.1899 33.7339 54.2285H32.2738C32.1984 54.1807 32.1304 54.1127 32.0476 54.0851C31.4555 53.8902 30.948 53.5628 30.4828 53.1491C29.4365 52.2205 28.3699 51.3121 27.3144 50.3926C26.4851 49.6718 25.6245 48.9822 24.8338 48.2209C22.4102 45.8837 21.0715 42.9967 20.6025 39.6886C20.5547 39.3503 20.5235 39.0101 20.4812 38.657C20.3635 38.6644 20.2826 38.6625 20.2054 38.6736C19.3301 38.8004 18.44 38.8133 17.5739 38.703C15.6413 38.4566 14.0635 37.5261 12.8683 35.9796C11.9489 34.788 11.4652 33.4162 11.2133 31.9488C11.1747 31.7282 11.2041 31.4799 11 31.3126C11 30.132 11 28.9515 11 27.7709V27.7728ZM27.4376 36.2536C27.2776 36.3566 27.1434 36.4375 27.0128 36.5239C26.0787 37.1473 25.1501 37.7799 24.2104 38.394C24.0449 38.5025 23.9971 38.6166 24.0284 38.7931C24.1185 39.3172 24.1755 39.8486 24.3005 40.3635C24.8466 42.6161 25.9205 44.5598 27.6969 46.0879C29.1882 47.3714 30.6703 48.6678 32.158 49.9568C32.4356 50.1977 32.7225 50.4294 33.0112 50.6721C33.1087 50.6023 33.1859 50.5545 33.2539 50.4938C33.6474 50.1536 34.0391 49.8079 34.4326 49.4677C35.6665 48.3993 36.893 47.3217 38.138 46.2644C38.9287 45.5932 39.6348 44.8521 40.203 43.9824C41.242 42.3899 41.8378 40.6467 42.0253 38.7581C42.0419 38.5927 41.9904 38.5007 41.8617 38.4143C40.8227 37.7192 39.7856 37.0204 38.7466 36.3253C38.697 36.2922 38.6345 36.2794 38.5517 36.2463C38.6308 36.8678 38.64 37.4525 38.5922 38.0851C38.366 38.0962 38.1619 38.1164 37.9577 38.1164C34.5981 38.1164 31.2367 38.1164 27.8771 38.1127C27.8183 38.1127 27.7612 38.1127 27.7042 38.109C27.467 38.0906 27.4247 38.0557 27.4192 37.8111C27.4137 37.5813 27.4339 37.3496 27.4431 37.1179C27.4542 36.8457 27.5112 36.5736 27.4376 36.2481V36.2536ZM37.2222 29.5822C37.5348 29.801 37.8143 29.9996 38.0993 30.1927C40.0908 31.548 42.0768 32.9087 44.0757 34.2511C45.133 34.9609 46.3044 35.3195 47.5879 35.2588C48.6581 35.2073 49.5647 34.8083 50.2689 33.9881C50.7875 33.385 51.067 32.666 51.2546 31.9047C51.4697 31.0312 51.4973 30.1431 51.4826 29.2494C51.4697 28.4697 51.3833 27.7029 51.1718 26.9508C50.9732 26.2392 50.6753 25.5772 50.1623 25.0347C49.355 24.1796 48.3345 23.8431 47.1815 23.8817C45.9642 23.9222 44.8756 24.3543 43.8789 25.031C41.8874 26.3844 39.8978 27.7433 37.9081 29.1004C37.6911 29.2494 37.4778 29.402 37.224 29.5822H37.2222ZM28.8186 29.5859C28.6825 29.4866 28.6016 29.4222 28.5152 29.3634C26.3655 27.896 24.2141 26.4304 22.0644 24.963C21.237 24.3966 20.3249 24.0399 19.3337 23.9167C18.1605 23.7714 17.0683 23.9994 16.147 24.7846C15.4905 25.3436 15.1319 26.0976 14.8947 26.9067C14.56 28.0541 14.5067 29.2273 14.5858 30.4134C14.6428 31.2611 14.7862 32.0886 15.1191 32.8756C15.4078 33.5597 15.8141 34.1555 16.4265 34.5913C17.3165 35.2275 18.3242 35.3507 19.3742 35.2257C20.4444 35.0988 21.3914 34.6556 22.2741 34.0525C23.9364 32.9161 25.6043 31.7889 27.2684 30.6543C27.7741 30.3104 28.2743 29.961 28.8149 29.5859H28.8186ZM30.2456 17.5229C30.1628 17.3924 30.1003 17.2968 30.0396 17.1993C29.8153 16.8352 29.6056 16.4601 29.3629 16.1089C29.0742 15.6914 28.7873 15.2648 28.4416 14.8952C28.0224 14.4484 27.4707 14.4189 26.9319 14.6543C26.4152 14.8805 26.132 15.2998 26.0989 15.8753C26.0732 16.3111 26.2754 16.655 26.5237 16.9842C27.0073 17.6222 27.4229 18.3026 27.7943 19.0106C27.9084 19.2294 27.8955 19.4023 27.7355 19.6064C27.193 20.2959 26.8161 21.0756 26.5733 21.9178C26.4722 22.2727 26.4777 22.2801 26.7811 22.486C28.2246 23.4698 29.6681 24.4555 31.1135 25.4393C31.678 25.8236 32.2499 26.1987 32.8108 26.5867C32.956 26.6878 33.0792 26.7026 33.219 26.5941C33.2742 26.5518 33.3348 26.5187 33.3937 26.48C35.3447 25.1505 37.2976 23.8211 39.2486 22.4897C39.5833 22.2617 39.5851 22.2599 39.4711 21.87C39.2744 21.2007 39.0133 20.5552 38.6032 19.987C38.4193 19.7314 38.4138 19.5181 38.5627 19.2588C38.8055 18.8377 39.0169 18.4001 39.2725 17.9863C39.5465 17.545 39.8665 17.1313 40.1442 16.6918C40.4476 16.2118 40.4641 15.6951 40.1773 15.2096C39.8996 14.7371 39.4601 14.498 38.8974 14.5293C38.4285 14.555 38.0405 14.7591 37.7812 15.1435C37.3013 15.8514 36.8489 16.5778 36.3855 17.2986C36.3065 17.4218 36.2329 17.5505 36.1446 17.6976C35.1995 17.2637 34.2451 16.9584 33.2227 16.9253C32.1984 16.8904 31.2293 17.1441 30.2511 17.5211L30.2456 17.5229ZM33.0222 32.4306C31.2165 33.6608 29.4328 34.8745 27.6491 36.0881C27.6583 36.1028 27.6656 36.1194 27.6748 36.1341H38.3752C38.3807 36.1157 38.3862 36.0991 38.3936 36.0808C36.6154 34.8726 34.839 33.6645 33.0222 32.4306Z" fill="black"/>
<path d="M37.2259 42.1803C36.9629 42.5407 36.7055 42.9103 36.3653 43.2082C35.5047 43.9621 35.821 43.826 34.7765 43.8334C33.458 43.8426 32.1377 43.8242 30.8193 43.8352C30.5067 43.8371 30.2511 43.7543 30.0396 43.5337C29.6976 43.1751 29.3574 42.8128 29.0209 42.4469C28.9455 42.366 28.8921 42.2648 28.8094 42.1435C28.9105 42.1159 28.973 42.0828 29.0356 42.0828C31.7497 42.081 34.4639 42.081 37.1781 42.081L37.2259 42.1803Z" fill="black"/>
</svg>
