<svg width="66" height="66" viewBox="0 0 66 66" fill="none" xmlns="http://www.w3.org/2000/svg">
<circle cx="32.9183" cy="32.9183" r="32.9183" fill="#F5F5F5"/>
<path d="M28 25.4425V16.6289C28 15.176 29.1924 14 30.6657 14H39.3791C44.6942 14 49 18.2463 49 23.488V23.512C49 28.7536 44.6942 33 39.3791 33H35.6634C31.4308 33 28 29.6166 28 25.4425Z" fill="#911180"/>
<path d="M20.7409 33H20.5251C19.1295 33 18 31.824 18 30.3711V16.6289C18 15.176 19.1295 14 20.5251 14H25.4749C26.8705 14 28 15.176 28 16.6289V25.4425C28 29.6166 24.7502 33 20.7409 33Z" fill="#FBB040"/>
<path d="M28 40.1598V48.5094C28 49.8859 29.1924 51 30.6657 51H39.3791C44.6942 51 49 46.9771 49 42.0114V41.9886C49 37.0229 44.6942 33 39.3791 33H35.6634C31.4308 33 28 36.2053 28 40.1598Z" fill="#12B0B5"/>
<path d="M20.7409 33H20.5251C19.1295 33 18 34.1141 18 35.4906V48.5094C18 49.8859 19.1295 51 20.5251 51H25.4749C26.8705 51 28 49.8859 28 48.5094V40.1598C28 36.2053 24.7502 33 20.7409 33Z" fill="#3C247F"/>
</svg>
