<svg width="66" height="66" viewBox="0 0 66 66" fill="none" xmlns="http://www.w3.org/2000/svg">
<circle cx="32.9183" cy="32.9183" r="32.9183" fill="#F5F5F5"/>
<g clip-path="url(#clip0_4995_25)">
<path d="M14.4806 35.9743H19.4764V34.6746H15.9897V33.079H18.8779V31.7794H15.9897V30.2996H19.4894V29H14.4806V35.9743ZM25.4869 33.3879L22.2084 29H19.9577L20.6602 29.8879V36H22.1564V31.4191L25.5389 35.9743H26.983V29H25.4739L25.4869 33.3879ZM12.2039 32.3842C12.8674 32.2684 13.4138 31.6507 13.4138 30.7886C13.4138 29.8621 12.7373 29 11.3713 29H7L7.68952 29.8621V35.9743H11.5274C12.8804 35.9743 13.5959 35.1379 13.5959 34.0827C13.5569 33.2335 12.9715 32.4871 12.2039 32.3842ZM9.18564 30.3125H11.0721C11.5794 30.3125 11.9047 30.6085 11.9047 31.046C11.9047 31.4835 11.5794 31.7794 11.0721 31.7794H9.18564V30.3125ZM11.1371 34.6875H9.18564V33.079H11.1371C11.7095 33.079 12.0348 33.4393 12.0348 33.8768C12.0348 34.3787 11.6965 34.6746 11.1371 34.6875ZM49.0605 33.3879H49.8411V34.2114C49.4378 34.5331 48.9304 34.7261 48.397 34.739C47.1351 34.739 46.2504 33.7868 46.2504 32.5129C46.2504 31.239 47.1481 30.2868 48.397 30.2868C49.0475 30.2868 49.659 30.6213 50.0103 31.1746L51.2072 30.5184C50.6998 29.7077 49.8021 29 48.384 29C46.3935 29 44.7283 30.364 44.7283 32.4871C44.7283 34.6103 46.3675 35.9743 48.384 35.9743C49.4899 36 50.5437 35.5239 51.2722 34.7132V32.1397H48.0458L49.0605 33.3879ZM42.2695 33.3879L38.991 29H36.7533L37.4428 29.8879V36H38.952V31.4191L42.3345 35.9743H43.7656V29H42.2695V33.3879ZM56.268 29H53.3668L54.0563 29.8879L53.9392 30.2224L51.6885 35.9871H53.3928L53.8351 34.8033H56.8664L57.3087 35.9871H59.013L56.268 29ZM54.2124 33.5037L55.3182 30.5055L56.4241 33.5037H54.2124ZM34.3595 29H35.8686V36H34.3595V29ZM33.1626 30.1967V29H27.8546V30.2996H31.1851L27.8546 34.7776V35.9743H33.2277V34.6746H29.8191L33.1626 30.1967Z" fill="#093451"/>
</g>
<defs>
<clipPath id="clip0_4995_25">
<rect width="52" height="7" fill="white" transform="translate(7 29)"/>
</clipPath>
</defs>
</svg>
