<svg width="66" height="66" viewBox="0 0 66 66" fill="none" xmlns="http://www.w3.org/2000/svg">
<circle cx="32.9183" cy="32.9183" r="32.9183" fill="#F5F5F5"/>
<path d="M37.559 17.4353L29.5647 9.44101C28.9767 8.853 28.0233 8.853 27.4353 9.44101L19.441 17.4353C18.853 18.0233 18.853 18.9767 19.441 19.5647L27.4353 27.559C28.0233 28.147 28.9767 28.147 29.5647 27.559L37.559 19.5647C38.147 18.9767 38.147 18.0233 37.559 17.4353Z" fill="#0A0A0A"/>
<path d="M51.5591 31.4353L43.5646 23.441C42.9767 22.853 42.0234 22.853 41.4353 23.441L33.441 31.4353C32.853 32.0234 32.853 32.9766 33.441 33.5647L41.4353 41.559C42.0234 42.147 42.9767 42.147 43.5646 41.559L51.5591 33.5647C52.147 32.9766 52.147 32.0234 51.5591 31.4353Z" fill="#0A0A0A"/>
<path d="M37.5713 45.4559L29.5478 37.4324C28.9712 36.8559 28.0362 36.8559 27.4596 37.4324L19.4324 45.4559C18.8559 46.0324 18.8559 46.9675 19.4324 47.5441L27.4559 55.5677C28.0325 56.1441 28.9675 56.1441 29.544 55.5677L37.5676 47.5441C38.1441 46.9675 38.1441 46.0324 37.5676 45.4559H37.5713ZM33.3545 47.034L29.0378 51.3507C28.7384 51.65 28.2468 51.65 27.9438 51.3507L23.6567 47.0636C23.3536 46.7605 23.3573 46.2727 23.6567 45.9696L27.9734 41.6529C28.2727 41.3536 28.7606 41.3499 29.0673 41.6529L33.3545 45.9401C33.6574 46.2432 33.6574 46.7347 33.3545 47.034Z" fill="#0A0A0A"/>
</svg>
