<svg width="62" height="62" viewBox="0 0 62 62" fill="none" xmlns="http://www.w3.org/2000/svg">
<circle cx="31" cy="31" r="31" fill="#EDF8FD"/>
<g clip-path="url(#clip0_1601_31)">
<path d="M29.4406 31.9238H33.8556C35.1112 31.9238 35.9063 31.2331 35.9063 30.1191C35.9063 29.0729 35.1112 28.3144 33.8556 28.3144H29.4406C29.2941 28.3144 29.1688 28.4402 29.1688 28.5659V31.6629C29.1896 31.8095 29.2946 31.9145 29.4406 31.9145V31.9238ZM29.4406 39.0594H34.0016C35.4038 39.0594 36.2405 38.3484 36.2405 37.0923C36.2405 35.9985 35.4453 35.1252 34.0016 35.1252H29.4406C29.2941 35.1252 29.1688 35.2509 29.1688 35.3767V38.7876C29.1896 38.9549 29.2946 39.0594 29.4406 39.0594ZM45.5937 12.0875L32.537 25.1031H34.6715C37.9987 25.1031 39.9652 27.1955 39.9652 29.4765C39.9652 31.2812 38.7512 32.5937 37.4496 33.1799C37.2402 33.2636 37.2402 33.5627 37.4704 33.6404C38.977 34.2255 40.044 35.7951 40.044 37.637C40.044 40.2313 38.3071 42.3029 34.9384 42.3029H25.6945C25.548 42.3029 25.4227 42.1771 25.4227 42.0513V32.1961L11.0897 46.4657C10.9016 46.6538 11.0268 46.9891 11.2991 46.9891H45.761C45.8868 46.9891 45.9907 46.8797 45.9907 46.7594V12.2762C46.0536 12.0465 45.761 11.9207 45.5931 12.0881L45.5937 12.0875Z" fill="#34313F"/>
</g>
<defs>
<clipPath id="clip0_1601_31">
<rect width="35" height="35" fill="white" transform="translate(11 12)"/>
</clipPath>
</defs>
</svg>
