<svg width="62" height="62" viewBox="0 0 62 62" fill="none" xmlns="http://www.w3.org/2000/svg">
<circle cx="31" cy="31" r="31" fill="#DAECFB"/>
<path d="M48.727 29.296L41.1355 16.157C40.7715 15.499 39.823 14.988 39.0915 14.988H23.9085C23.177 14.988 22.2285 15.499 21.8645 16.157L14.273 29.296C13.909 29.954 13.909 31.0495 14.273 31.704L21.8645 44.843C22.2285 45.501 23.177 46.012 23.9085 46.012H39.0915C39.823 46.012 40.7715 45.501 41.1355 44.843L48.727 31.704C49.091 30.976 49.091 29.954 48.727 29.296Z" fill="#005FC5"/>
<path d="M31.647 23.8955C28.1435 23.8955 25.2245 26.741 25.2245 30.318C25.2245 31.851 25.809 33.3105 26.684 34.406C26.9045 34.6265 35.0035 42.946 38.0695 46.012H39.0915C39.823 46.012 40.7715 45.501 41.1355 44.843L46.172 36.156L36.974 26.6675C35.3675 25.061 33.7645 23.8955 31.647 23.8955Z" fill="#004EB3"/>
<path d="M31.647 36.7405C28.1435 36.7405 25.2245 33.895 25.2245 30.318C25.2245 26.741 28.07 23.8955 31.647 23.8955C35.224 23.8955 38.0695 26.741 38.0695 30.318C38.0695 33.895 35.1505 36.7405 31.647 36.7405ZM31.647 25.4285C28.945 25.4285 26.7575 27.6195 26.7575 30.318C26.7575 33.0165 28.9485 35.2075 31.647 35.2075C34.3455 35.2075 36.5365 33.0165 36.5365 30.318C36.5365 27.6195 34.272 25.4285 31.647 25.4285Z" fill="white"/>
<path d="M39.165 36.961L36.61 34.259C37.485 33.1635 37.996 31.7775 37.996 30.318C37.996 26.8145 35.1505 23.8955 31.5735 23.8955C27.9965 23.8955 25.151 26.741 25.151 30.318C25.151 33.895 27.9965 36.7405 31.5735 36.7405C33.033 36.7405 34.419 36.2295 35.5145 35.3545L37.996 37.983L39.165 36.961ZM31.647 35.2075C28.945 35.2075 26.7575 33.0165 26.7575 30.318C26.7575 27.6195 28.9485 25.4285 31.647 25.4285C34.3455 25.4285 36.5365 27.6195 36.5365 30.318C36.5365 33.0165 34.272 35.2075 31.647 35.2075Z" fill="white"/>
<path d="M32.011 28.638H30.9155V33.895H32.011V28.638ZM28.5075 32.362L29.603 33.4575V30.171H28.5075V32.362ZM33.3235 33.4575L34.419 32.362V31.046H33.3235V33.4575Z" fill="white"/>
</svg>
