<svg width="66" height="66" viewBox="0 0 66 66" fill="none" xmlns="http://www.w3.org/2000/svg">
<circle cx="32.9183" cy="32.9183" r="32.9183" fill="#F5F5F5"/>
<path fill-rule="evenodd" clip-rule="evenodd" d="M14 19.9982H36.0701C36.0701 21.3757 35.0281 22.4978 33.7486 22.4979H14C14 24.2743 14.3451 25.9639 14.9703 27.4961H31.4256C31.4256 28.8736 30.3832 29.9946 29.1036 29.9946H16.3216C18.4417 33.03 21.8155 34.9942 25.6169 34.9942H32.5835C33.2267 34.9942 33.7485 35.5546 33.7486 36.2462C33.7486 36.9378 33.2267 37.4981 32.5835 37.4981H25.6169L17.8566 50.0001H33.1687C39.597 50.0001 45.0549 45.4988 46.9614 39.2705L49.5783 30.7333C50.426 27.9615 51.9762 25.532 54.0037 23.6892C53.1868 22.2233 51.7028 21.2446 50.005 21.2446C48.445 21.2446 47.0618 22.0715 46.2187 23.3455L40.4972 31.9755C40.2886 32.2916 39.9421 32.5001 39.5515 32.5001C38.9082 32.5001 38.3878 31.9394 38.3878 31.2479C38.3881 30.9898 38.4585 30.7498 38.5813 30.5525L43.4138 22.7713C44.3647 21.2378 44.4543 19.2652 43.6455 17.6405C42.838 16.0145 41.2644 15 39.5515 15H14V19.9982ZM50.005 22.8142C50.488 22.8142 50.873 23.2351 50.873 23.75C50.8786 24.2635 50.488 24.6846 50.005 24.6846C49.5244 24.6846 49.1352 24.2662 49.1352 23.75C49.1352 23.2337 49.5244 22.8142 50.005 22.8142Z" fill="#181818"/>
</svg>
