<svg width="66" height="66" viewBox="0 0 66 66" fill="none" xmlns="http://www.w3.org/2000/svg">
<circle cx="32.9183" cy="32.9183" r="32.9183" fill="#F5F5F5"/>
<g clip-path="url(#clip0_4990_34)">
<path d="M41.0738 27.8284L37.0863 30.1314L38.0951 30.7143C39.287 31.4019 39.4155 32.5439 39.4155 33.0031C39.4155 33.4623 39.287 34.6043 38.0951 35.2919L20.0512 45.7104C18.8592 46.398 17.8052 45.9388 17.4079 45.7104C17.0106 45.482 16.0875 44.7992 16.0875 43.4216V22.5822C16.0875 21.2047 17.0106 20.5218 17.4079 20.2934C17.8052 20.065 18.8569 19.6059 20.0512 20.2934L24.831 23.0533L28.9161 20.6955L22.0926 16.7556C19.9846 15.5398 17.4698 15.5398 15.3642 16.7556C13.2586 17.9737 12 20.1507 12 22.5822V43.4193C12 45.8508 13.2586 48.0301 15.3642 49.2459C16.4182 49.855 17.5721 50.1572 18.7284 50.1572C19.8847 50.1572 21.0386 49.8526 22.0926 49.2459L40.1364 38.8274C42.242 37.6116 43.5006 35.4323 43.5006 33.0007C43.5006 30.9546 42.6084 29.0917 41.0738 27.8284Z" fill="#4C00FF"/>
<path d="M24.9268 38.1749L28.9143 35.8718L27.9055 35.2889C26.7136 34.6014 26.5851 33.4593 26.5851 33.0002C26.5851 32.541 26.7136 31.399 27.9055 30.7114L45.9494 20.2929C47.1414 19.6053 48.1953 20.0644 48.5927 20.2929C48.99 20.5213 49.9131 21.2041 49.9131 22.5816V43.4187C49.9131 44.7962 48.99 45.479 48.5927 45.7075C48.1953 45.9359 47.1437 46.395 45.9494 45.7075L41.1696 42.9476L37.0845 45.3054L43.908 49.2453C46.0136 50.4611 48.5308 50.4611 50.6364 49.2453C52.742 48.0296 54.0006 45.8502 54.0006 43.4187V22.5816C54.0006 20.1501 52.742 17.9708 50.6364 16.755C49.5824 16.1459 48.4285 15.8438 47.2722 15.8438C46.1159 15.8438 44.962 16.1483 43.908 16.755L25.8642 27.1735C23.7586 28.3893 22.5 30.5686 22.5 33.0002C22.5 35.0463 23.3922 36.9092 24.9268 38.1725V38.1749Z" fill="#4C00FF"/>
</g>
<defs>
<clipPath id="clip0_4990_34">
<rect width="42" height="42" fill="white" transform="translate(12 12)"/>
</clipPath>
</defs>
</svg>
