<svg width="66" height="66" viewBox="0 0 66 66" fill="none" xmlns="http://www.w3.org/2000/svg">
<circle cx="32.9183" cy="32.9183" r="32.9183" fill="#F5F5F5"/>
<path d="M21.1041 19.4232C25.9193 22.9424 31.0985 30.0777 33.0001 33.907C34.9018 30.078 40.0808 22.9423 44.8962 19.4232C48.3706 16.884 54 14.9192 54 21.1711C54 22.4197 53.2646 31.66 52.8333 33.1601C51.3342 38.3755 45.8712 39.7058 41.0119 38.9006C49.506 40.308 51.6668 44.9696 47.0002 49.6313C38.1376 58.4846 34.262 47.4099 33.2685 44.5722C33.0864 44.0519 33.0013 43.8086 33 44.0155C32.9987 43.8086 32.9136 44.0519 32.7315 44.5722C31.7384 47.4099 27.8629 58.4849 18.9998 49.6313C14.3332 44.9696 16.4939 40.3077 24.9881 38.9006C20.1286 39.7058 14.6656 38.3755 13.1667 33.1601C12.7353 31.6598 12 22.4196 12 21.1711C12 14.9192 17.6298 16.884 21.1041 19.4232Z" fill="#1185FE"/>
</svg>
