<svg width="66" height="66" viewBox="0 0 66 66" fill="none" xmlns="http://www.w3.org/2000/svg">
<circle cx="32.9183" cy="32.9183" r="32.9183" fill="#F5F5F5"/>
<path d="M33.3815 52.9648C44.5902 52.9648 53.6767 43.795 53.6767 32.4836C53.6767 21.1721 44.5902 12.0024 33.3815 12.0024C22.1728 12.0024 13.0863 21.1721 13.0863 32.4836C13.0863 43.795 22.1728 52.9648 33.3815 52.9648Z" fill="#FF4800"/>
<path d="M35.5416 34.6891L31.9115 44.248C31.7746 44.6125 31.4394 44.7854 31.109 44.7715C30.8069 44.7574 30.5095 44.5845 30.382 44.2527L22.5837 23.9616C22.5129 23.7794 22.5932 23.6158 22.7253 23.5316C22.8575 23.4475 23.0416 23.4428 23.1785 23.583L30.2073 30.6926C29.8109 31.8331 30.3301 33.2261 31.803 33.6841C32.1287 33.787 32.4874 33.7916 32.8132 33.6935C34.7013 33.1279 35.0696 31.001 33.913 29.8326C33.2805 29.1922 32.3742 29.0238 31.5858 29.3044L24.5381 22.1714C24.4011 22.0312 24.4059 21.8489 24.4956 21.7227C24.5806 21.5918 24.7504 21.517 24.9298 21.5871L45.0441 29.4913C45.3886 29.6269 45.5586 29.9354 45.5586 30.2438C45.5586 30.5524 45.3839 30.8608 45.0393 30.9965L35.5416 34.6891Z" fill="white"/>
</svg>
