<svg width="66" height="66" viewBox="0 0 66 66" fill="none" xmlns="http://www.w3.org/2000/svg">
<circle cx="32.9183" cy="32.9183" r="32.9183" fill="#F5F5F5"/>
<path d="M33 56C45.7025 56 56 45.7025 56 33C56 20.2974 45.7025 10 33 10C20.2974 10 10 20.2974 10 33C10 45.7025 20.2974 56 33 56Z" fill="#0E92EE"/>
<path fill-rule="evenodd" clip-rule="evenodd" d="M26.3379 43.2379L22.9767 45.9079C22.9016 45.9677 22.8093 46 22.7143 46C22.4776 46 22.2857 45.8032 22.2857 45.5603V41.134C19.6682 39.0493 18 35.8955 18 32.366C18 26.0887 23.2766 21 29.7857 21H36.2143C42.7234 21 48 26.0887 48 32.366C48 38.6433 42.7234 43.732 36.2143 43.732H29.7857C28.5862 43.732 27.4285 43.5591 26.3379 43.2379ZM26.5714 27.8196C24.2045 27.8196 22.2857 29.7878 22.2857 32.2158V32.5162C22.2857 34.9442 24.2045 36.9123 26.5714 36.9123H39.4286C41.7954 36.9123 43.7143 34.9442 43.7143 32.5162V32.2158C43.7143 29.7878 41.7954 27.8196 39.4286 27.8196H26.5714ZM38.6949 34.6494C37.473 34.6494 36.4824 33.6317 36.4824 32.3762C36.4824 31.1209 37.473 30.103 38.6949 30.103C39.9169 30.103 40.9074 31.1209 40.9074 32.3762C40.9074 33.6317 39.9169 34.6494 38.6949 34.6494ZM27.3075 34.6436C26.0856 34.6436 25.095 33.6258 25.095 32.3704C25.095 31.1149 26.0856 30.0971 27.3075 30.0971C28.5295 30.0971 29.52 31.1149 29.52 32.3704C29.52 33.6258 28.5295 34.6436 27.3075 34.6436Z" fill="white"/>
</svg>
