<svg width="66" height="66" viewBox="0 0 66 66" fill="none" xmlns="http://www.w3.org/2000/svg">
<circle cx="32.9183" cy="32.9183" r="32.9183" fill="#F5F5F5"/>
<path fill-rule="evenodd" clip-rule="evenodd" d="M32.2649 33.7553C35.7406 37.9075 36.4253 48.2406 34.32 54.8305C33.8861 54.8386 33.4463 54.8435 32.9971 54.8435C16.0469 54.8435 10 49.1434 10 32.9106C10 27.2392 10.7395 22.8576 12.4231 19.5546C14.1857 19.4473 15.9515 19.3951 17.7172 19.3986C20.4314 19.3932 23.1458 19.5194 25.8485 19.7751C27.9308 19.9728 30.3857 20.4775 32.2012 21.5395C33.506 22.303 34.4963 23.4797 35.0337 24.8931C35.977 27.374 35.3965 30.1968 33.6381 32.1609L32.2649 33.7553Z" fill="white"/>
<path fill-rule="evenodd" clip-rule="evenodd" d="M38.9994 54.5532C39.983 49.6251 42.0681 23.6539 30.8223 11.034C31.5264 11.0115 32.2501 11 32.996 11C50.0063 11 56.0001 16.68 56.0001 32.9119C56.0001 47.0656 51.4421 53.211 38.9994 54.5532Z" fill="#27AD7A"/>
<path fill-rule="evenodd" clip-rule="evenodd" d="M40.7057 24.9776C42.3418 25.435 43.4444 27.0941 43.1753 28.7401L42.486 32.9568L44.7485 37.7525C45.7063 39.7486 46.6963 42.3005 46.8637 44.7628C47.0789 47.9268 46.3438 50.882 44.9053 53.3653C42.0375 54.2924 38.5369 54.7537 34.3208 54.8319C36.4261 48.242 35.7413 37.9089 32.2656 33.7567L33.6388 32.1622C35.3972 30.1981 35.9777 27.3753 35.0343 24.8944C34.4971 23.481 33.5067 22.3043 32.2019 21.5408C30.3863 20.4789 27.9315 19.9742 25.8492 19.7764C23.1464 19.5207 20.432 19.3945 17.7179 19.3999C15.9522 19.3964 14.1863 19.4487 12.4238 19.556C15.5586 13.4058 21.9698 11 32.9977 11C33.4086 11 33.8112 11.0045 34.2093 11.0111C37.6121 13.4805 40.0077 17.3338 40.4339 21.6693L40.7057 24.9776Z" fill="#2C2276"/>
<path fill-rule="evenodd" clip-rule="evenodd" d="M17.6608 32.6319C20.612 36.2769 26.94 36.2859 23.2672 31.7494L23.0424 31.4719C19.5157 30.2733 15.7658 30.288 12.302 31.5333L12.0216 31.9063C8.53649 36.5424 14.8605 36.3573 17.6608 32.6319Z" fill="#2C2276"/>
<path d="M29.9462 43.9649C28.8131 44.3753 27.6143 44.7283 26.3659 45.0195C24.5613 45.4408 22.6716 45.7339 20.7459 45.8872C17.8557 46.1173 14.9307 46.0384 12.1309 45.6722C11.7965 44.9411 11.5039 44.1591 11.252 43.327C11.5951 43.3828 11.9422 43.4343 12.2901 43.4809C14.9793 43.8411 17.7949 43.9212 20.5785 43.6996C22.435 43.5518 24.2188 43.2782 25.8848 42.8892C27.1278 42.599 28.3156 42.2446 29.4296 41.8305C29.3456 41.5795 29.2555 41.3392 29.1597 41.1103C28.9376 40.5795 28.6801 40.0917 28.393 39.6611L30.182 38.4336C30.543 38.9751 30.8679 39.5906 31.1487 40.2618C31.4289 40.9313 31.6601 41.6366 31.8348 42.3594C32.0096 43.0827 32.1336 43.8434 32.2051 44.6205C32.275 45.3807 32.2904 46.1452 32.2494 46.8935L30.0909 46.7805C30.1263 46.1346 30.1129 45.4739 30.0524 44.8159C30.0264 44.5337 29.9911 44.2494 29.9462 43.9649Z" fill="#2C2276"/>
<path fill-rule="evenodd" clip-rule="evenodd" d="M10.0547 30.3498C14.3932 28.7764 19.071 28.5837 23.4927 29.7714C22.8064 29.1188 22.5322 28.0972 22.8775 27.1521C23.3422 25.8805 24.753 25.225 26.0258 25.6891C27.2108 26.1215 27.8611 27.3737 27.5696 28.5705C27.4453 28.0914 27.0954 27.6792 26.5955 27.4968C25.7875 27.2021 24.8919 27.6183 24.597 28.4254C24.3021 29.2325 24.7185 30.1269 25.526 30.4218C26.5722 30.812 27.597 31.2828 28.5942 31.8344L30.4351 29.6967C31.2411 28.8144 31.4529 27.5847 31.0762 26.5935C30.879 26.0744 30.52 25.6207 30.0009 25.3169C28.6743 24.5406 26.5238 24.2031 25.2992 24.0872C20.4739 23.6304 15.673 23.6076 10.8503 24.0185C10.4195 25.891 10.16 27.9952 10.0547 30.3498Z" fill="#2C2276"/>
</svg>
