<svg width="66" height="66" viewBox="0 0 66 66" fill="none" xmlns="http://www.w3.org/2000/svg">
<circle cx="32.9183" cy="32.9183" r="32.9183" fill="#F5F5F5"/>
<path d="M53.9702 19.7498L34.0262 8.2745C33.3901 7.9085 32.6075 7.9085 31.9714 8.2745L12.0274 19.7498C11.3913 20.1158 11 20.7927 11 21.5247V44.4753C11 45.2073 11.3913 45.8842 12.0274 46.2502L31.9714 57.7255C32.6075 58.0915 33.3925 58.0915 34.0262 57.7255L37.0053 56.0127L40.0229 43.0806L32.9988 47.121L37.6175 30.5767L46.622 25.3977L43.6621 36.0046L50.3741 32.1412L37.9848 55.4505L53.9726 46.2526C54.6087 45.8866 55 45.2097 55 44.4776V21.5271C54.9976 20.7927 54.6039 20.1158 53.9702 19.7498Z" fill="url(#paint0_linear_5022_76)"/>
<defs>
<linearGradient id="paint0_linear_5022_76" x1="32.9963" y1="58.359" x2="32.9963" y2="8.26824" gradientUnits="userSpaceOnUse">
<stop stop-color="#4F67FF"/>
<stop offset="1" stop-color="#468CFF"/>
</linearGradient>
</defs>
</svg>
