<svg width="62" height="62" viewBox="0 0 62 62" fill="none" xmlns="http://www.w3.org/2000/svg">
<circle cx="31" cy="31" r="31" fill="#F5F5F5"/>
<path d="M53.5944 40.2015C54.1687 41.011 54.0538 42.0517 53.3647 42.6298C52.5608 43.208 51.4123 43.0923 50.8381 42.3986L46.8184 37.1951L42.9136 42.2829C42.3394 43.0923 41.1909 43.0923 40.387 42.5142C39.583 41.936 39.4682 40.8953 40.0424 40.0859L44.6363 34.073L40.0424 28.0601C39.4682 27.2506 39.6979 26.0943 40.387 25.5161C41.1909 24.938 42.3394 25.1692 42.9136 25.863L46.8184 31.0665L50.8381 26.0943C51.4123 25.2849 52.446 25.1692 53.3647 25.7474C54.1687 26.3256 54.1687 27.4819 53.5944 28.2913L49.1154 34.1886L53.5944 40.2015ZM32.6922 39.5077C29.7062 39.5077 27.2944 37.1951 27.2944 34.1886C27.2944 31.2978 29.7062 28.8695 32.6922 28.8695C35.6782 28.8695 38.09 31.2978 38.09 34.1886C37.9752 37.1951 35.5634 39.5077 32.6922 39.5077ZM16.8433 39.5077C13.8572 39.5077 11.4454 37.1951 11.4454 34.1886C11.4454 31.2978 13.8572 28.8695 16.8433 28.8695C19.8293 28.8695 22.2411 31.2978 22.2411 34.1886C22.2411 37.1951 19.8293 39.5077 16.8433 39.5077ZM32.6922 25.4005C29.3616 25.4005 26.3756 27.2506 24.8826 30.0258C23.3896 27.2506 20.4035 25.4005 16.9581 25.4005C14.8908 25.4005 13.0533 26.0943 11.5603 27.135V19.7345C11.5603 18.8094 10.7563 18 9.83756 18C8.80393 18 8 18.8094 8 19.7345V34.3042C8.11485 39.1608 12.0197 42.9767 16.8433 42.9767C20.2887 42.9767 23.2747 41.011 24.7677 38.2358C26.2607 41.011 29.2468 42.9767 32.5774 42.9767C37.5158 42.9767 41.5355 39.0452 41.5355 34.073C41.6503 29.332 37.6306 25.4005 32.6922 25.4005Z" fill="#0071F7"/>
</svg>
