<svg width="66" height="66" viewBox="0 0 66 66" fill="none" xmlns="http://www.w3.org/2000/svg">
<circle cx="32.9183" cy="32.9183" r="32.9183" fill="#F5F5F5"/>
<path fill-rule="evenodd" clip-rule="evenodd" d="M34.422 37.5617C35.3436 34.3031 38.2133 32.0231 41.5514 32.0231C44.9178 32.0231 47.8078 34.3422 48.7032 37.6451C49.632 37.7995 50.4992 38.1337 51.2766 38.607C51.742 37.4165 52 36.1151 52 34.751C52 29.2672 47.8562 24.8024 42.6505 24.5305C41.8638 19.6906 37.8263 16 32.9507 16C28.0759 16 24.04 19.688 23.2513 24.5252C23.1168 24.5195 22.9857 24.5033 22.8495 24.5033C17.4094 24.5033 13 29.0922 13 34.751C13 40.4111 17.4094 45 22.8495 45H27.5708C27.7074 41.0615 30.6766 37.8622 34.422 37.5617Z" fill="#003E51"/>
<path fill-rule="evenodd" clip-rule="evenodd" d="M48.0869 39.4706L47.0622 39.4185L46.8909 38.3877C46.4693 35.8455 44.326 34 41.7952 34C39.2656 34 37.1223 35.8442 36.6994 38.3847L36.5111 39.5166L35.3777 39.4671C35.3777 39.4671 35.1954 39.4549 35.1763 39.4549C32.3217 39.4549 30 41.8197 30 44.7268C30 47.6343 32.3217 50 35.1763 50H47.8241C50.6779 50 53 47.6343 53 44.7268C53 41.9204 50.8418 39.6116 48.0869 39.4706Z" fill="#0580FA"/>
</svg>
