<svg width="66" height="66" viewBox="0 0 66 66" fill="none" xmlns="http://www.w3.org/2000/svg">
<circle cx="32.9183" cy="32.9183" r="32.9183" fill="#F5F5F5"/>
<g clip-path="url(#clip0_437_181)">
<path d="M46.286 30.1284C46.0442 27.3205 44.9155 24.6777 43.0881 22.613C41.2607 20.5484 38.8152 19.1444 36.1548 18.6214C33.4675 18.1259 30.7264 18.5388 28.3078 19.8051C25.8892 21.0714 23.9275 23.1361 22.745 25.6687C19.9502 25.7513 17.2898 26.9351 15.3549 29.0272C13.42 31.1194 12.3182 33.8998 12.3451 36.7903C12.372 39.6808 13.5006 42.4612 15.4624 44.4984C17.451 46.5355 20.1115 47.7192 22.9063 47.7192H44.378C46.4741 47.6917 48.5165 46.8934 50.0751 45.4343C51.6338 43.9753 52.6281 41.9657 52.87 39.791C53.1118 37.6162 52.5744 35.4414 51.3651 33.6521C50.1558 31.8902 48.3553 30.6514 46.286 30.1284ZM44.3511 45.4343H22.9063C20.7027 45.4068 18.6066 44.4984 17.0479 42.8742C15.4893 41.25 14.6024 39.0752 14.6024 36.7903C14.5756 34.5054 15.4355 32.3032 16.9673 30.679C18.4991 29.0272 20.5952 28.0913 22.7988 28.0362L23.8737 28.0087C25.728 28.0362 27.8778 29.5778 28.3884 31.6425C29.0334 34.2302 27.6628 36.9005 25.298 37.5611C24.4112 37.8089 23.4975 37.7814 22.6375 37.4235C21.7776 37.1482 21.2939 37.2859 21.052 37.8089C20.8102 38.3319 20.9445 38.7724 21.5626 39.2404C22.8794 39.8735 24.3574 40.0112 25.7548 39.5983C29.1677 38.6072 31.1832 34.7807 30.2696 31.0368C29.9471 29.798 29.2752 28.6694 28.3615 27.7884C27.4479 26.9075 26.2923 26.3294 25.0561 26.1092C26.1311 24.1547 27.7703 22.613 29.7321 21.6771C31.7207 20.7686 33.9243 20.5209 36.0473 20.9889C38.1703 21.4568 40.0783 22.613 41.5294 24.2923C42.9806 25.9716 43.8405 28.0913 44.0555 30.3211L44.1899 32.0003L45.7754 32.3857C47.2803 32.7711 48.624 33.7071 49.5108 35.001C50.3976 36.3223 50.8007 37.9465 50.6395 39.5432C50.4782 41.1399 49.7258 42.6264 48.5702 43.7C47.4147 44.8287 45.9098 45.4343 44.3511 45.4343Z" fill="#071124"/>
</g>
<defs>
<clipPath id="clip0_437_181">
<rect width="41" height="30" fill="white" transform="translate(12 18)"/>
</clipPath>
</defs>
</svg>
