<svg width="66" height="66" viewBox="0 0 66 66" fill="none" xmlns="http://www.w3.org/2000/svg">
<circle cx="32.9183" cy="32.9183" r="32.9183" fill="#F5F5F5"/>
<g clip-path="url(#clip0_4903_50)">
<path d="M47.0923 34.0352C47.0923 32.0706 48.3386 30.6888 50.1112 30.6888C51.8839 30.6888 53.1501 32.0698 53.1501 34.0352C53.1501 36.0007 51.8842 37.3034 50.1112 37.3034C48.3383 37.3034 47.0923 35.9412 47.0923 34.0352ZM45.2419 34.0352C45.2419 36.9341 47.2675 38.977 50.111 38.977C52.9544 38.977 55 36.9341 55 34.0352C55 31.1364 52.9743 29.016 50.111 29.016C47.2476 29.016 45.2419 31.098 45.2419 34.0352ZM35.7949 29.1326L39.6128 38.8599H41.4051L45.2228 29.1326H43.2945L40.5286 36.6423H40.4894L37.7235 29.1326H35.7949ZM28.3737 33.6847C28.4904 31.8945 29.6787 30.6888 31.2955 30.6888C32.6976 30.6888 33.7496 31.5839 33.9055 32.9265H30.6719C29.5228 32.9265 28.8992 33.0627 28.4324 33.6855H28.3737V33.685V33.6847ZM26.5234 33.9765C26.5234 36.8754 28.5687 38.9762 31.3926 38.9762C33.3016 38.9762 34.9763 38.0037 35.697 36.4662L34.1389 35.6876C33.5937 36.6993 32.5417 37.3026 31.3926 37.3026C30.0092 37.3026 28.763 36.2518 28.763 35.2401C28.763 34.7151 29.1136 34.4812 29.6199 34.4812H35.7941V33.9562C35.7941 31.0377 33.9243 29.0144 31.2367 29.0144C28.5491 29.0144 26.5232 31.0964 26.5232 33.9757M21.2256 38.8588H22.9786V32.8871C22.9786 31.6032 23.7768 30.6885 24.8876 30.6885C25.3553 30.6885 25.8417 30.8442 26.0759 31.0578C26.2514 30.5907 26.524 30.1244 26.9329 29.6573C26.4652 29.2684 25.667 29.0149 24.8876 29.0149C22.7452 29.0149 21.2256 30.6103 21.2256 32.8863V38.8594V38.8588ZM12.7531 32.4206V27.6728H15.6358C16.6094 27.6728 17.2525 28.2369 17.2525 29.0929C17.2525 30.0654 16.4152 30.8048 14.7012 31.369C13.5325 31.7382 13.0069 32.0497 12.8119 32.4198L12.7531 32.4203V32.4206ZM12.7531 37.1871V35.2029C12.7531 34.3274 13.4933 33.4714 14.5258 33.1404C15.4415 32.829 16.2005 32.5176 16.8436 32.1874C17.7006 32.6937 18.2262 33.5684 18.2262 34.4831C18.2262 36.0393 16.7457 37.1871 14.7396 37.1871H12.7531ZM11 38.8599H14.8955C17.8565 38.8599 20.0764 37.0118 20.0764 34.5605C20.0764 33.2179 19.3949 32.0122 18.187 31.2336C18.8106 30.6108 19.1027 29.891 19.1027 29.0155C19.1027 27.2065 17.7977 26 15.8308 26H11V38.8599Z" fill="#0B996E"/>
</g>
<defs>
<clipPath id="clip0_4903_50">
<rect width="44" height="13" fill="white" transform="translate(11 26)"/>
</clipPath>
</defs>
</svg>
