<svg width="66" height="66" viewBox="0 0 66 66" fill="none" xmlns="http://www.w3.org/2000/svg">
<circle cx="32.9183" cy="32.9183" r="32.9183" fill="#F5F5F5"/>
<mask id="mask0_4757_164" style="mask-type:luminance" maskUnits="userSpaceOnUse" x="13" y="18" width="40" height="30">
<path d="M52.1117 18H13V47.9414H52.1117V18Z" fill="white"/>
</mask>
<g mask="url(#mask0_4757_164)">
<path d="M38.6295 20.3953C37.1667 22.3415 36.8132 22.9899 35.401 22.9899H14.3164V47.9415H22.5891C24.4553 47.9415 26.2708 47.0432 27.431 45.5462C28.9448 43.5503 29.1459 42.9515 30.6088 42.9515H51.7442V18H43.4207C41.5545 18 39.7399 18.8982 38.6295 20.3953ZM45.1864 36.5141H36.3591C34.4418 36.5141 32.6773 37.3122 31.5171 38.8588C30.0033 40.8556 29.7007 41.4545 28.2884 41.4545H20.8234V29.4779H29.6507C31.5669 29.4779 33.3324 28.5796 34.4927 27.0825C36.0063 25.1364 36.4099 24.5375 37.7712 24.5375H45.1864V36.5141Z" fill="black"/>
</g>
</svg>
