<svg width="66" height="66" viewBox="0 0 66 66" fill="none" xmlns="http://www.w3.org/2000/svg">
<circle cx="32.9183" cy="32.9183" r="32.9183" fill="#F5F5F5"/>
<path d="M22.9499 33.6975C22.0916 33.1919 21.8473 32.4303 22.0159 31.5439C22.191 30.6283 22.8699 30.1393 23.7542 29.9313C24.6687 29.7149 25.5789 29.7523 26.4134 30.2434C26.5497 30.3245 26.6145 30.2496 26.6967 30.183C27.021 29.9209 27.4036 29.8251 27.8188 29.8023C27.9896 29.7919 28.0436 29.8522 28.0371 30.0124C28.0263 30.285 28.0285 30.5597 28.0371 30.8343C28.0414 30.9696 27.996 31.0278 27.849 31.0195C27.6566 31.0112 27.462 31.0258 27.2718 31.0154C27.0945 31.007 27.0383 31.0362 27.0815 31.2318C27.261 32.0433 27.0685 32.7653 26.4113 33.325C25.8146 33.8327 25.086 33.9805 24.3098 33.9576C24.1995 33.9534 24.0871 33.9534 23.9812 33.9305C23.7174 33.8785 23.5574 33.9597 23.5077 34.2239C23.4472 34.5444 23.5423 34.7691 23.8039 34.8627C23.9855 34.9272 24.1801 34.9356 24.3725 34.9439C25.0146 34.9709 25.6589 34.9064 26.2989 34.9876C26.9323 35.0687 27.529 35.2289 27.7798 35.8719C28.0544 36.5752 27.955 37.2494 27.4599 37.8424C26.8696 38.5478 26.0502 38.837 25.1552 38.9515C24.392 39.0514 23.6331 39.0077 22.9088 38.7205C22.0678 38.3876 21.6657 37.6905 21.8624 36.9061C21.9727 36.467 22.2624 36.1611 22.6602 35.9385C22.7423 35.8927 22.8613 35.8719 22.7207 35.7387C22.0916 35.1499 22.1045 34.457 22.7423 33.8764C22.8029 33.8223 22.8721 33.7662 22.9499 33.6975ZM24.6946 38.1712C24.9 38.1795 25.0989 38.1441 25.2957 38.1025C25.7043 38.0151 26.0545 37.832 26.2664 37.4658C26.6599 36.7895 26.3183 36.1757 25.5378 36.0966C24.9152 36.0342 24.2925 36.1466 23.672 36.0696C23.5574 36.055 23.5099 36.1403 23.4666 36.2173C23.2158 36.6834 23.2331 37.1599 23.4666 37.6177C23.7152 38.1046 24.2147 38.1337 24.6946 38.1712ZM23.6136 31.8019C23.6071 32.1494 23.6309 32.4657 23.7736 32.7611C23.9379 33.0982 24.2428 33.2647 24.6449 33.2418C24.9952 33.221 25.2719 33.0088 25.3714 32.6509C25.514 32.139 25.5205 31.6209 25.3735 31.1069C25.2676 30.7407 25.006 30.5576 24.6038 30.5451C24.1541 30.5305 23.8752 30.6908 23.7304 31.0487C23.6288 31.3004 23.6007 31.5626 23.6136 31.8019ZM30.7353 33.1669C30.7353 33.7058 30.7461 34.2447 30.731 34.7837C30.7245 34.998 30.798 35.0875 31.0164 35.0999C31.1569 35.1083 31.3645 35.0812 31.4099 35.2185C31.4661 35.3871 31.4336 35.5848 31.4228 35.77C31.4163 35.8698 31.2477 35.8511 31.2477 35.8511L28.7679 35.8532C28.7679 35.8532 28.5625 35.8095 28.5776 35.6701C28.5841 35.6097 28.5863 35.5452 28.5776 35.4849C28.5365 35.2269 28.623 35.0854 28.9192 35.0895C29.1333 35.0916 29.196 34.9813 29.196 34.7712C29.1851 32.9505 29.1851 31.1319 29.196 29.3112C29.1981 29.0719 29.1181 28.9741 28.8846 28.9637C28.8479 28.9616 28.8111 28.9554 28.7765 28.9491C28.4674 28.9034 28.3182 28.6225 28.4457 28.3436C28.4782 28.2708 28.5387 28.2687 28.6014 28.2604C29.237 28.1751 29.8727 28.0919 30.5083 28.0045C30.6856 27.9795 30.7245 28.0606 30.7223 28.2146C30.718 28.9117 30.7223 29.6108 30.7267 30.3079C30.7267 30.3807 30.6769 30.4827 30.7656 30.5222C30.8477 30.5576 30.9148 30.4702 30.9796 30.4286C31.5331 30.0665 32.132 29.8605 32.8152 29.8959C33.574 29.9354 34.0367 30.3016 34.1881 31.032C34.2789 31.4669 34.3005 31.908 34.2983 32.3491C34.294 33.1523 34.3091 33.9576 34.2897 34.7608C34.2853 34.9938 34.3697 35.0729 34.5902 35.0937C34.7221 35.1041 34.9253 35.0667 34.9664 35.1915C35.0226 35.3684 34.9923 35.5744 34.988 35.7679C34.9858 35.8532 34.8388 35.8449 34.8388 35.8449L32.359 35.8469C32.359 35.8469 32.1839 35.7866 32.186 35.6701C32.1882 35.591 32.1947 35.5099 32.1839 35.4308C32.1558 35.2206 32.253 35.1145 32.4671 35.1062C32.6963 35.0958 32.7654 34.9917 32.759 34.767C32.7287 33.7599 32.7936 32.7528 32.72 31.7478C32.6638 30.9862 32.2639 30.7178 31.4942 30.9176C31.4401 30.9321 31.3882 30.9488 31.3364 30.9633C30.7807 31.1298 30.7332 31.1901 30.7332 31.7353C30.7353 32.2139 30.7353 32.6904 30.7353 33.1669ZM6.7672 32.2992C6.7672 31.3108 6.76288 30.3204 6.77153 29.332C6.77369 29.1406 6.73477 29.0261 6.51425 29.0303C6.47966 29.0303 6.4429 29.0157 6.40615 29.0095C6.06887 28.9533 5.92186 28.7036 6.04077 28.4019C6.07104 28.3249 6.12941 28.3228 6.19211 28.3145C6.83639 28.2292 7.48283 28.146 8.12495 28.0565C8.30872 28.0315 8.31521 28.1251 8.31521 28.2562C8.31305 28.8826 8.31305 29.511 8.31521 30.1373C8.31521 30.2205 8.27629 30.337 8.37358 30.3786C8.45141 30.4119 8.51628 30.3162 8.58114 30.2704C9.60377 29.5401 11.275 29.7274 11.8004 31.2026C12.209 32.3491 12.2133 33.504 11.5928 34.5902C11.0804 35.487 10.2545 35.9406 9.18218 35.9614C8.45142 35.976 7.73795 35.899 7.03962 35.6763C6.83855 35.6118 6.75856 35.514 6.76288 35.2955C6.77369 34.2947 6.7672 33.298 6.7672 32.2992ZM8.31305 33.1086C8.31305 33.6829 8.31737 34.2572 8.31088 34.8315C8.30872 34.9897 8.3498 35.0999 8.50763 35.1728C8.91841 35.36 9.43729 35.2768 9.75295 34.9626C9.96266 34.7545 10.0902 34.5028 10.1767 34.2302C10.3994 33.531 10.3864 32.8194 10.3086 32.1036C10.2829 31.866 10.2149 31.6344 10.1075 31.419C9.7897 30.7823 9.09786 30.6179 8.49898 31.032C8.36926 31.1215 8.30872 31.2255 8.31088 31.3857C8.31953 31.96 8.31305 32.5343 8.31305 33.1086Z" fill="#4280F6"/>
<path d="M45.9264 35.3204C45.5701 35.6273 45.1764 35.8584 44.6903 35.9425C43.7225 36.1106 42.7767 35.6504 42.383 34.7887C41.8749 33.6728 41.8771 32.5464 42.361 31.4304C42.8691 30.2577 44.1844 29.6125 45.4931 29.8626C45.8692 29.9341 45.911 29.9005 45.911 29.5369C45.911 29.394 45.9 29.2511 45.9132 29.1082C45.933 28.8938 45.8582 28.7845 45.6184 28.8076C45.4777 28.8202 45.3413 28.7866 45.2049 28.7635C44.9146 28.7131 44.853 28.6332 44.9036 28.3495C44.919 28.2633 44.9586 28.2297 45.0466 28.2192C45.6251 28.1498 46.2057 28.0805 46.7842 28.0048C47.0129 27.9754 47.0415 28.0826 47.0415 28.2675C47.0371 30.4174 47.0371 32.5653 47.0393 34.7152V34.9295C47.0437 35.1376 47.1163 35.2658 47.3736 35.2385C47.488 35.2259 47.6706 35.1817 47.6486 35.3919C47.631 35.56 47.7761 35.7975 47.4418 35.85C47.1581 35.8963 46.8897 35.995 46.5928 35.9866C46.1441 35.974 46.0869 35.9383 45.9858 35.5264C45.966 35.4633 45.999 35.3856 45.9264 35.3204ZM45.911 32.7019C45.911 32.1134 45.9022 31.525 45.9154 30.9386C45.9198 30.7495 45.8538 30.6297 45.6844 30.5583C44.985 30.264 44.026 30.3901 43.6389 31.1614C43.4564 31.5271 43.3508 31.9054 43.3112 32.3089C43.2496 32.9246 43.2276 33.5341 43.4454 34.1267C43.6059 34.566 43.8435 34.9464 44.3494 35.1082C44.897 35.2826 45.3501 35.0998 45.779 34.7971C45.8978 34.7131 45.9154 34.5975 45.9132 34.4672C45.9088 33.8788 45.911 33.2903 45.911 32.7019ZM52.2433 33.2336C52.2433 33.9145 52.2521 34.4588 52.2389 35.001C52.2345 35.2112 52.2807 35.3141 52.527 35.2973C52.648 35.2889 52.8481 35.2007 52.8613 35.4507C52.8723 35.6651 52.8833 35.8479 52.5688 35.8879C52.2851 35.9236 52.0057 35.995 51.7132 35.9887C51.2997 35.9782 51.2403 35.9341 51.1809 35.5369C51.1721 35.4802 51.2117 35.4003 51.1325 35.3709C51.0578 35.3436 51.0226 35.4213 50.9742 35.4591C50.1802 36.0896 49.1816 36.1737 48.414 35.6861C48.0599 35.4612 47.8663 35.1334 47.8267 34.7551C47.7146 33.677 47.9961 33.0928 49.2124 32.6073C49.7491 32.3929 50.3275 32.3404 50.9016 32.2942C51.071 32.2794 51.1281 32.2353 51.1259 32.0735C51.1193 31.7625 51.1149 31.4556 50.9852 31.1572C50.8554 30.8588 50.6179 30.7537 50.3077 30.7306C49.6391 30.6801 49.0144 30.8357 48.4096 31.09C48.2974 31.1383 48.1478 31.2476 48.0841 31.0626C48.0269 30.9008 47.7871 30.7243 48.0951 30.5435C48.8143 30.1232 49.5687 29.8206 50.4287 29.8248C50.7454 29.8269 51.0622 29.8815 51.3547 29.995C51.9419 30.222 52.1113 30.7096 52.1905 31.2539C52.2917 31.9621 52.2125 32.6682 52.2433 33.2336ZM51.1237 33.843C51.1237 33.5845 51.1215 33.326 51.1237 33.0675C51.1237 32.9583 51.1105 32.8616 50.9588 32.891C50.6399 32.9541 50.3143 32.9499 49.9976 33.036C49.1816 33.2546 48.7967 33.9775 49.1244 34.7236C49.2366 34.98 49.4499 35.1397 49.7381 35.1775C50.1802 35.2364 50.5871 35.1166 50.9698 34.9085C51.0885 34.8434 51.1303 34.7488 51.1281 34.6206C51.1171 34.3621 51.1237 34.1015 51.1237 33.843ZM60.5947 33.2357C60.5947 33.8073 60.5969 34.3768 60.5925 34.9485C60.5925 35.0872 60.5969 35.2028 60.7926 35.1838C60.9114 35.1712 61.0104 35.2091 60.9818 35.3415C60.9488 35.4907 61.105 35.6987 60.8542 35.7807C60.5133 35.89 60.1592 35.9047 59.8051 35.8647C59.5873 35.8395 59.5587 35.6525 59.5455 35.5012C59.5279 35.2595 59.5103 35.1964 59.2728 35.3877C58.5228 35.9908 57.5022 36.0539 56.7588 35.5726C56.3739 35.3246 56.2111 34.9611 56.1649 34.5344C56.0242 33.2231 56.86 32.6977 57.8871 32.3971C58.3358 32.2668 58.7977 32.229 59.2596 32.1891C59.4378 32.1744 59.4796 32.1134 59.4752 31.96C59.4664 31.6847 59.484 31.4094 59.3828 31.1425C59.2574 30.8125 59.0463 30.6507 58.6833 30.6276C58.0169 30.5835 57.3901 30.7243 56.783 30.9765C56.651 31.0311 56.5081 31.1467 56.4135 30.9344C56.3387 30.7663 56.1759 30.5961 56.4487 30.4385C57.3549 29.9131 58.305 29.5642 59.3872 29.7933C60.0932 29.9425 60.4627 30.4048 60.5441 31.1257C60.5837 31.4808 60.5925 31.8339 60.5925 32.1912C60.5947 32.54 60.5947 32.8889 60.5947 33.2357ZM59.4752 33.7695C59.4752 33.5026 59.4686 33.2357 59.4774 32.9688C59.4818 32.8133 59.418 32.7544 59.2618 32.7754C58.9957 32.8111 58.7273 32.8343 58.4656 32.891C57.6474 33.0654 57.2625 33.6224 57.4054 34.4063C57.4692 34.7551 57.7508 35.0241 58.1115 35.0704C58.5558 35.1271 58.9583 34.9989 59.3366 34.7887C59.4444 34.7278 59.4774 34.6353 59.4752 34.5176C59.4708 34.2696 59.4752 34.0196 59.4752 33.7695Z" fill="#C8DBFB"/>
<path d="M36.616 32.7484C36.616 32.1067 36.6046 31.4672 36.6206 30.8255C36.6275 30.5946 36.545 30.5168 36.3203 30.5501C36.3014 30.5535 36.282 30.5535 36.263 30.5501C36.1324 30.5102 35.9329 30.6567 35.8779 30.4214C35.7977 30.0927 35.8733 29.9107 36.1553 29.8218C36.4533 29.7264 36.6504 29.5421 36.788 29.2756C36.9667 28.9292 37.118 28.5717 37.2258 28.2009C37.267 28.061 37.3335 28.01 37.4894 28.0055C38.2412 27.9855 38.2389 27.9811 38.2504 28.7094C38.2527 28.9448 38.271 29.1801 38.271 29.4155C38.2687 29.5643 38.3329 29.6131 38.4796 29.6109C38.8487 29.6065 39.22 29.6176 39.5891 29.6065C39.7656 29.602 39.8206 29.6575 39.8252 29.8307C39.8435 30.5568 39.8481 30.5568 39.1169 30.5568C38.9037 30.5568 38.6882 30.5635 38.475 30.5546C38.3215 30.5501 38.271 30.6123 38.2733 30.7566C38.2825 31.9623 38.2825 33.168 38.3008 34.3737C38.3054 34.7512 38.4728 34.8755 38.8647 34.84C39.1169 34.8178 39.3667 34.7823 39.6051 34.6957C39.7404 34.6468 39.8091 34.6757 39.8664 34.8134C40.0796 35.3219 40.0773 35.3396 39.5639 35.595C38.9816 35.8836 38.3673 36.0368 37.7071 35.9924C37.1868 35.9569 36.8636 35.7104 36.71 35.2264C36.6412 35.0088 36.616 34.7845 36.616 34.558V32.7484ZM14.2276 30.7522C14.3583 30.5657 14.4821 30.3658 14.6311 30.186C15.0162 29.7219 15.4746 29.3822 16.1302 29.3733C16.3778 29.3711 16.5038 29.4355 16.4901 29.7108C16.4672 30.1727 16.4786 30.6345 16.4855 31.0964C16.4878 31.2607 16.4465 31.3095 16.2655 31.2651C15.7245 31.1341 15.1858 31.1719 14.654 31.3273C14.4706 31.3806 14.3881 31.465 14.3904 31.6648C14.4019 32.664 14.3996 33.6632 14.3904 34.6624C14.3881 34.86 14.4569 34.92 14.654 34.9288C14.9359 34.9422 15.2133 34.9999 15.4953 35.0154C15.6672 35.0265 15.7039 35.0998 15.6993 35.2464C15.6855 35.8814 15.7657 35.7526 15.1835 35.7571C14.2208 35.7659 13.2557 35.7526 12.293 35.7637C12.0844 35.7659 11.9744 35.7238 12.0133 35.5017C12.0179 35.4751 12.0133 35.4462 12.0133 35.4173C12.0179 34.951 11.9583 34.9999 12.4191 34.9644C12.7239 34.9399 12.7858 34.8156 12.7812 34.5425C12.7652 33.3546 12.7721 32.1666 12.7767 30.9787C12.7767 30.8055 12.7377 30.7122 12.5474 30.6545C12.0408 30.5035 11.9285 30.2792 12.0385 29.7685C12.0638 29.6531 12.1417 29.6442 12.2265 29.6309C12.7354 29.5554 13.2443 29.4755 13.7554 29.4111C13.9824 29.3822 14.1726 29.5665 14.1772 29.8019C14.1841 30.1127 14.1841 30.4236 14.1864 30.7344C14.1841 30.7389 14.2001 30.7433 14.2276 30.7522ZM20.0133 32.2155C20.0133 33.0348 20.0224 33.8541 20.0064 34.6735C20.0018 34.9044 20.0775 35.0021 20.309 35.0043C20.3755 35.0043 20.4442 35.031 20.5107 35.0332C20.7239 35.0354 20.7812 35.1376 20.7766 35.3374C20.7651 35.8237 20.7766 35.8237 20.2631 35.8237C19.4654 35.8237 18.6677 35.8148 17.87 35.8303C17.6202 35.8348 17.5331 35.7571 17.572 35.5284C17.5766 35.5017 17.5766 35.4706 17.572 35.444C17.5079 35.1353 17.6614 35.0088 17.9617 35.0221C18.2735 35.0354 18.3652 34.9089 18.3606 34.6047C18.3399 33.4567 18.3422 32.3065 18.3606 31.1563C18.3652 30.8854 18.2872 30.7411 18.0121 30.6745C17.8815 30.6434 17.6752 30.6501 17.6523 30.4858C17.6179 30.2548 17.6408 30.0172 17.6546 29.7819C17.6591 29.7064 17.7554 29.7042 17.8219 29.6953C18.466 29.6087 19.1124 29.5243 19.7565 29.4333C19.9674 29.4022 20.0202 29.4777 20.0179 29.6753C20.0087 30.5191 20.0133 31.3673 20.0133 32.2155Z" fill="#4280F6"/>
<path d="M53.5995 32.7826C53.5995 32.0662 53.5942 31.3476 53.6031 30.6312C53.6067 30.4195 53.5568 30.3249 53.386 30.3564C53.3487 30.3632 53.3095 30.3654 53.2739 30.3564C53.1832 30.3294 53.0337 30.4443 53.0177 30.2325C53.0035 30.041 52.9412 29.8112 53.1832 29.7279C53.5533 29.5995 53.6671 29.1895 53.7792 28.7885C53.8344 28.5903 53.8896 28.392 53.934 28.1893C53.9661 28.0451 54.0266 27.9978 54.1458 28.0001C54.5835 28.0113 54.5016 27.9663 54.5088 28.4596C54.5123 28.7074 54.523 28.9575 54.5052 29.2053C54.4856 29.4666 54.587 29.5477 54.765 29.5499C55.0817 29.5522 55.4002 29.5589 55.7169 29.5477C55.8628 29.5432 55.9162 29.5995 55.9144 29.791C55.9055 30.4352 55.9482 30.3519 55.4838 30.3564C55.2116 30.3587 54.9393 30.3609 54.6671 30.3541C54.5515 30.3519 54.507 30.4037 54.507 30.5546C54.5105 31.7981 54.507 33.0416 54.5123 34.2851C54.5123 34.436 54.5372 34.587 54.5568 34.7379C54.587 34.9722 54.765 35.1028 55.0176 35.0578C55.2472 35.015 55.4749 34.9474 55.7044 34.9023C55.7809 34.8866 55.8913 34.7965 55.9162 34.9925C55.9375 35.1614 56.103 35.3551 55.9002 35.4971C55.5283 35.7584 55.1386 35.9634 54.7063 35.9836C54.5194 35.9927 54.3273 36.0287 54.144 35.9521C53.8024 35.8057 53.6049 35.4385 53.6013 34.9361C53.5978 34.2175 53.5995 33.5012 53.5995 32.7826Z" fill="#C8DBFB"/>
<path d="M19.511 26C19.5689 26.4621 20.0751 26.6932 20.3709 27.0141C20.4471 27.0954 20.5172 27.0376 20.5751 26.9798C20.6392 26.9135 20.7581 26.721 20.9258 26.706C20.8191 27.0012 20.9136 27.3799 20.9746 27.658C21.124 28.3105 20.6026 28.8646 19.7336 28.9802C18.703 29.1192 17.837 28.5073 18.0261 27.7778C18.0962 27.5125 18.4438 27.243 18.2609 26.9863C18.0017 26.6226 18.4255 26.875 18.5017 26.9392C18.8189 27.1959 18.8707 26.9584 18.9439 26.8215C19.017 26.6867 19.0384 26.5413 19.0872 26.4001C19.1451 26.2353 19.2549 26.1006 19.511 26Z" fill="#4280F6"/>
</svg>
