<svg width="66" height="66" viewBox="0 0 66 66" fill="none" xmlns="http://www.w3.org/2000/svg">
<circle cx="32.9183" cy="32.9183" r="32.9183" fill="#F5F5F5"/>
<path fill-rule="evenodd" clip-rule="evenodd" d="M52 14H14V52H52V14ZM27.6906 24.5556V41.4444H33.9636C36.3763 41.4444 38.3064 39.5143 38.3064 37.1016V36.1365C38.3064 34.7613 37.6791 33.5549 36.714 32.7587C37.4137 32.0108 37.8239 30.9733 37.8239 29.8635V28.8984C37.8239 26.4857 35.8937 24.5556 33.481 24.5556H27.6906ZM33.9636 39.0317H30.1033V34.2063H33.9636C35.0493 34.2063 35.8937 35.0508 35.8937 36.1365V37.1016C35.8937 38.1873 35.0493 39.0317 33.9636 39.0317ZM33.481 31.7937H30.1033V26.9683H33.481C34.5667 26.9683 35.4112 27.8127 35.4112 28.8984V29.8635C35.4112 30.9492 34.5667 31.7937 33.481 31.7937Z" fill="#F03603"/>
</svg>
