<svg width="66" height="66" viewBox="0 0 66 66" fill="none" xmlns="http://www.w3.org/2000/svg">
<circle cx="32.9183" cy="32.9183" r="32.9183" fill="#F5F5F5"/>
<g clip-path="url(#clip0_4902_31)">
<path d="M32.9527 14.3906C43.2036 14.3908 51.5134 22.7232 51.5134 33.0014C51.5133 43.2793 43.2035 51.6112 32.9527 51.6113C24.8243 51.6113 17.9167 46.3726 15.4043 39.0787C17.2711 38.0255 18.8949 35.4124 19.4781 32.1579C20.188 28.1954 19.1223 24.5884 17.0527 23.3931C20.3028 17.9978 26.2078 14.3906 32.9527 14.3906Z" fill="white"/>
<path d="M17.0522 23.3945C19.1218 24.5898 20.1876 28.1967 19.4776 32.1592C18.8944 35.4137 17.2705 38.0268 15.4038 39.0801C14.7477 37.1755 14.3907 35.1309 14.3906 33.0028C14.3906 29.4873 15.3627 26.1991 17.0522 23.3945Z" fill="black"/>
<path d="M24.1951 33.3295C25.4685 35.3102 27.9415 36.4745 30.8169 35.9963C33.109 35.6181 36.5396 34.5715 37.403 34.3561C38.5112 34.1304 39.6408 34.0221 40.7724 34.0332C42.3606 34.1301 43.9367 34.3673 45.4816 34.7418C47.3739 35.2951 49.0472 35.8009 50.4785 35.5631C51.5354 35.3878 52.2842 34.3611 52.3835 32.4106C52.4344 28.1389 50.5217 24.1101 49.2153 22.5753C46.238 19.0698 42 19.9136 39.8582 20.0488C36.6466 20.2516 32.0012 19.3953 29.1894 20.1114C26.989 20.6522 25.9702 21.2331 24.8343 22.6153C22.5677 25.3796 22.262 30.3199 24.1951 33.3295Z" fill="black"/>
<path d="M30.9911 26.0963C30.9574 27.4877 31.9513 28.7199 33.1323 28.7199C34.2269 28.7199 35.0816 27.7572 35.1032 26.4887C35.1224 25.1264 34.0806 23.906 32.8947 23.9181C31.8601 23.9326 31.0246 24.8832 30.9911 26.0963Z" fill="white"/>
<path d="M42.6363 25.8876C42.6666 26.3654 42.7964 26.8314 43.0171 27.256C43.2378 27.6804 43.5448 28.054 43.9182 28.3523C44.7657 29.0214 45.565 28.7181 45.7547 27.6519C45.9227 26.6891 45.5866 25.8515 45.1089 25.0476C44.6289 24.2845 43.7502 23.844 43.1381 24.2845C42.5907 24.6817 42.5835 25.3027 42.6363 25.8876Z" fill="white"/>
<path d="M33.0507 49.6205C38.7784 50.085 45.0824 46.8645 47.7183 40.9266C47.7533 40.8627 47.7615 40.7875 47.7413 40.7176C47.721 40.6476 47.6739 40.5886 47.6101 40.5536C47.5465 40.5184 47.4715 40.5101 47.4018 40.5305C47.332 40.5507 47.2731 40.598 47.2381 40.6619C42.3049 47.1027 37.9167 48.4265 32.9883 49.1077C32.6643 49.1535 32.7243 49.594 33.0507 49.6205Z" fill="white"/>
<path d="M20.2485 21.4693L22.5963 22.7089C22.6373 22.7307 22.6844 22.7386 22.7303 22.7312C22.7763 22.7239 22.8185 22.7016 22.8507 22.668C23.4436 22.0374 26.394 19.0937 29.9564 18.7543C30.0051 18.7497 30.0505 18.7286 30.0855 18.6944C30.1204 18.6603 30.1427 18.6151 30.1485 18.5666C30.3189 17.1513 30.3645 16.1596 30.3886 15.7264C30.3895 15.6935 30.383 15.6608 30.3693 15.6309C30.3555 15.601 30.3349 15.5748 30.3094 15.5542C30.2837 15.5337 30.2537 15.5194 30.2216 15.5125C30.1895 15.5056 30.1563 15.5063 30.1244 15.5146C28.8882 15.8106 23.7053 17.2524 20.1885 21.13C20.1664 21.1547 20.1502 21.1842 20.1411 21.2161C20.1321 21.248 20.1304 21.2816 20.1362 21.3143C20.142 21.347 20.1551 21.3779 20.1746 21.4047C20.194 21.4316 20.2193 21.4537 20.2485 21.4693Z" fill="white"/>
<path d="M51.3747 32.9997C51.3747 22.8515 43.148 14.6247 32.9997 14.6247C22.8515 14.6247 14.6247 22.8515 14.6247 32.9997C14.6247 43.148 22.8515 51.3747 32.9997 51.3747C43.148 51.3747 51.3747 43.148 51.3747 32.9997ZM53.3939 32.9997C53.3939 44.2631 44.2631 53.3939 32.9997 53.3939C21.7363 53.3939 12.6055 44.2631 12.6055 32.9997C12.6055 21.7363 21.7363 12.6055 32.9997 12.6055C44.2631 12.6055 53.3939 21.7363 53.3939 32.9997Z" fill="black"/>
</g>
<defs>
<clipPath id="clip0_4902_31">
<rect width="42" height="42" fill="white" transform="translate(12 12)"/>
</clipPath>
</defs>
</svg>
