<svg width="66" height="66" viewBox="0 0 66 66" fill="none" xmlns="http://www.w3.org/2000/svg">
<circle cx="32.9183" cy="32.9183" r="32.9183" fill="#F5F5F5"/>
<svg x="22" y="13" width="22" height="40" viewBox="0 0 52 100" fill="none">
<path fill="#CEDC21" d="M9.206,91.433c-2.684,0-4.859-2.177-4.859-4.861V13.431c0-2.685,2.176-4.861,4.859-4.861s4.86,2.177,4.86,4.861v73.141C14.066,89.256,11.89,91.433,9.206,91.433"/>
<path fill="#51B13E" d="M9.209,91.433c-1.818,0-3.561-1.025-4.394-2.777c-1.151-2.424-0.118-5.322,2.308-6.476L36.43,68.274L6.323,46.093c-2.16-1.593-2.621-4.635-1.029-6.796s4.636-2.622,6.795-1.03l36.647,26.999c1.377,1.016,2.12,2.678,1.956,4.381c-0.164,1.7-1.209,3.19-2.755,3.925L11.289,90.964C10.618,91.281,9.907,91.433,9.209,91.433"/>
<path fill="#CEDC21" d="M9.211,62.684c-1.493,0-2.965-0.685-3.917-1.979c-1.592-2.159-1.131-5.204,1.03-6.795L36.43,31.73L7.123,17.821c-2.426-1.151-3.459-4.05-2.309-6.475c1.152-2.426,4.051-3.459,6.475-2.309l36.648,17.394c1.546,0.733,2.591,2.225,2.755,3.926c0.164,1.702-0.579,3.364-1.956,4.379l-36.647,27C11.22,62.375,10.211,62.684,9.211,62.684"/>
<polygon fill="#1E7A44" points="14.066,39.725 14.066,60.278 28.01,50.006"/>
<rect x="4.347" y="31.106" fill="#F5F5F5" width="9.72" height="23.692"/>
<path fill="#CEDC21" d="M14.066,13.431c0-2.685-2.177-4.861-4.86-4.861s-4.859,2.177-4.859,4.861v61.165h9.72V13.431z"/>
</svg>
</svg>
