<svg width="66" height="66" viewBox="0 0 66 66" fill="none" xmlns="http://www.w3.org/2000/svg">
<circle cx="32.9183" cy="32.9183" r="32.9183" fill="#F5F5F5"/>
<path d="M34.7613 58.0284H32.2478C32.1554 58.0097 32.0638 57.9851 31.9705 57.9731C30.8229 57.8266 29.6606 57.7535 28.5298 57.5248C22.9583 56.3977 18.2148 53.7474 14.4863 49.4583C8.7039 42.8065 6.75804 35.0891 8.76779 26.5213C11.3887 15.3482 21.2394 7.41963 32.6685 7.05442C32.9183 7.04647 33.1675 7.01859 33.4169 7H33.6507C33.7337 7.01543 33.8167 7.04419 33.8998 7.04431C35.5023 7.04618 37.0883 7.22387 38.6528 7.55412C44.2891 8.74379 49.0451 11.4866 52.7893 15.858C57.6021 21.4769 59.5953 28.0193 58.847 35.3833C58.549 38.3157 57.7283 41.1062 56.4164 43.7435C53.8168 48.9689 49.8896 52.8766 44.6583 55.4603C41.8733 56.8357 38.9227 57.6439 35.8268 57.9161C35.471 57.9474 35.1164 57.9907 34.7613 58.0284ZM19.3875 32.116C19.9275 31.5671 20.1427 31.1813 20.1556 30.669C20.1693 30.1239 20.1745 29.5776 20.155 29.0328C20.12 28.0584 19.5362 27.3451 18.5707 27.2306C17.8019 27.1394 17.0166 27.1645 16.2394 27.1788C15.8846 27.1853 15.6376 27.5096 15.6372 27.8885C15.6335 30.8206 15.6328 33.7528 15.638 36.6849C15.6387 37.105 15.9414 37.3907 16.3685 37.3953C17.0113 37.4022 17.6546 37.4095 18.2972 37.3941C19.5454 37.3643 20.4388 36.4438 20.4428 35.201C20.4441 34.782 20.442 34.3632 20.4433 33.9443C20.4455 33.1412 20.1572 32.5032 19.3875 32.116ZM33.8285 31.4234C33.8285 31.2991 33.8284 31.1939 33.8284 31.0888C33.8284 30.0269 33.8289 28.965 33.8283 27.9031C33.828 27.3541 33.5542 27.0496 33.0602 27.0466C32.558 27.0435 32.273 27.342 32.2727 27.8855C32.271 30.8179 32.271 33.7502 32.2727 36.6825C32.2731 37.2219 32.5634 37.5197 33.0677 37.5142C33.5486 37.5089 33.8277 37.2039 33.8281 36.679C33.8291 35.5295 33.8284 34.38 33.8284 33.2304V32.9148H35.545V33.2777C35.5451 34.4175 35.5428 35.5573 35.5463 36.6971C35.5478 37.218 35.8357 37.5135 36.3264 37.5142C36.8204 37.5149 37.1004 37.2222 37.1013 36.6981C37.1027 35.7239 37.1017 34.7498 37.1017 33.7756C37.1017 31.798 37.1023 29.8203 37.1011 27.8427C37.1009 27.4364 36.9082 27.1616 36.5673 27.0684C36.021 26.9191 35.5516 27.2589 35.5476 27.8249C35.5399 28.9062 35.5452 29.9876 35.545 31.0689V31.4234C34.961 31.4234 34.4183 31.4234 33.8285 31.4234ZM28.2029 35.1213C28.2821 35.1348 28.3483 35.1475 28.4148 35.1575C29.7549 35.3588 30.7715 34.6654 30.9414 33.3981C30.9978 32.9767 30.9553 32.5426 30.9655 32.1145C30.9757 31.6902 30.9439 31.2794 30.6249 30.9275C30.7504 30.9112 30.845 30.9036 30.9378 30.886C31.4148 30.7953 31.605 30.5289 31.5341 30.0553C31.4738 29.6529 31.2637 29.5156 30.7688 29.5564C30.7107 29.5612 30.653 29.5718 30.595 29.578C29.9192 29.6503 29.2448 29.747 28.567 29.7884C27.6299 29.8457 26.9133 30.423 26.7554 31.3507C26.6907 31.7307 26.7124 32.1253 26.6922 32.5132C26.6512 33.3002 26.7203 34.0556 27.3325 34.6554C26.9423 34.9376 26.6986 35.2733 26.6632 35.7347C26.6271 36.204 26.7825 36.5902 27.2024 36.8635C27.113 36.9252 27.0658 36.9577 27.0186 36.9902C26.473 37.3658 26.2645 37.8929 26.3544 38.5353C26.4419 39.1618 26.8322 39.5506 27.4163 39.7296C28.2955 39.999 29.1925 40.0342 30.0453 39.6663C30.4139 39.5073 30.7861 39.2439 31.0306 38.9299C31.9694 37.7246 31.2885 36.01 29.8204 35.8329C29.417 35.7841 29.0035 35.8221 28.5948 35.8131C28.125 35.8027 27.9918 35.5798 28.2029 35.1213ZM49.7225 30.3439C49.5751 30.221 49.4793 30.1211 49.3656 30.0498C48.838 29.7191 48.2793 29.6911 47.7237 29.9524C47.2083 30.1948 47.0108 30.6619 47.0068 31.1981C46.9945 32.8336 46.9884 34.4695 47.008 36.1049C47.0188 37.0145 47.6702 37.5979 48.5806 37.572C49.0737 37.558 49.4389 37.3053 49.7447 36.8992C49.8466 37.2226 50.0103 37.4519 50.3346 37.5069C50.8675 37.5973 51.2177 37.2991 51.2191 36.7409C51.2232 35.0664 51.2207 33.3918 51.2207 31.7172C51.2207 30.4223 51.219 29.1275 51.2218 27.8326C51.2225 27.5412 51.1483 27.2914 50.8809 27.1378C50.3409 26.8276 49.7264 27.1753 49.7235 27.795C49.7196 28.6304 49.7225 29.4658 49.7225 30.3439ZM24.1502 36.892C24.1776 36.9752 24.1877 37.0127 24.202 37.0485C24.3534 37.4259 24.6472 37.5809 25.069 37.507C25.3994 37.449 25.5814 37.2017 25.5865 36.8022C25.5878 36.7048 25.5868 36.6074 25.5868 36.51C25.5868 34.5431 25.5881 32.576 25.5858 30.609C25.5853 30.1166 25.3114 29.849 24.8267 29.8523C24.3545 29.8555 24.0908 30.1288 24.0899 30.6355C24.0868 32.3103 24.0898 33.9853 24.0859 35.66C24.0856 35.7716 24.0846 35.9184 24.0191 35.9878C23.8255 36.1932 23.5686 36.2462 23.2946 36.1674C23.0544 36.0982 22.9633 35.9144 22.9492 35.6815C22.9404 35.5359 22.931 35.39 22.9308 35.2443C22.9295 33.7155 22.9316 32.1867 22.929 30.6579C22.9282 30.1279 22.6698 29.8537 22.1849 29.8523C21.6927 29.8509 21.4326 30.1222 21.4323 30.6453C21.4311 32.4272 21.4278 34.2093 21.4335 35.9912C21.4369 37.0553 22.0393 37.6276 23.0836 37.5709C23.5445 37.546 23.8938 37.3239 24.1502 36.892ZM39.8552 34.124C40.5387 34.124 41.1896 34.1259 41.8404 34.1233C42.2582 34.1218 42.4656 33.9169 42.4693 33.4943C42.4744 32.9101 42.4826 32.3255 42.4678 31.7416C42.4393 30.6169 41.6884 29.8313 40.6251 29.7942C39.2829 29.7473 38.4492 30.3618 38.389 31.5854C38.3197 32.9936 38.3308 34.4084 38.374 35.8183C38.4019 36.7253 38.9304 37.3176 39.7351 37.4985C39.9883 37.5553 40.2557 37.5694 40.5165 37.5694C41.7132 37.5692 42.4672 36.7854 42.4312 35.593C42.4179 35.1532 42.1737 34.9123 41.7345 34.9059C41.2693 34.8991 41.0295 35.1268 41.0133 35.5909C41.0113 35.6492 41.0124 35.7079 41.0067 35.7659C40.9699 36.1372 40.7731 36.3314 40.4316 36.3355C40.0975 36.3396 39.8732 36.1395 39.8601 35.7681C39.8411 35.2346 39.8552 34.6998 39.8552 34.124ZM44.9555 30.5671C44.8964 30.2515 44.7991 30.0028 44.4845 29.9251C43.936 29.7896 43.557 30.079 43.5544 30.6441C43.55 31.5975 43.5531 32.5509 43.5531 33.5043C43.5531 34.5745 43.5515 35.6447 43.554 36.7149C43.555 37.1468 43.7322 37.4075 44.0713 37.4959C44.6182 37.6385 45.0496 37.3121 45.0504 36.7465C45.0528 35.0634 45.0511 33.3802 45.0515 31.6972C45.0516 31.3694 45.1436 31.2896 45.4721 31.3293C45.626 31.3479 45.7799 31.385 45.9335 31.3836C46.3175 31.3801 46.5554 31.1034 46.5708 30.6645C46.5885 30.1636 46.3894 29.8916 45.9773 29.8537C45.4402 29.8044 45.2302 29.9451 44.9555 30.5671ZM17.1813 36.0375V32.8708C17.529 32.8708 17.869 32.8391 18.2003 32.8791C18.5832 32.9252 18.8355 33.1738 18.857 33.5533C18.8907 34.1438 18.8917 34.7388 18.8583 35.3293C18.8366 35.7116 18.5757 35.9336 18.1946 35.9968C18.0606 36.019 17.9241 36.0313 17.7883 36.0358C17.5955 36.0423 17.4023 36.0375 17.1813 36.0375ZM17.1835 31.4888V28.5085C17.5058 28.5308 17.8143 28.5342 18.1166 28.5791C18.3568 28.6147 18.5493 28.7838 18.56 29.0231C18.5882 29.651 18.5996 30.2821 18.5658 30.9092C18.5494 31.2149 18.3092 31.4085 17.9953 31.4455C17.7373 31.4759 17.4755 31.4745 17.1835 31.4888ZM28.1591 32.4898C28.1589 32.2171 28.145 31.9436 28.1621 31.672C28.1876 31.2658 28.4332 31.0311 28.8093 31.0243C29.2062 31.0172 29.4752 31.2462 29.4919 31.6633C29.5139 32.2078 29.5126 32.7543 29.4932 33.2989C29.4783 33.7146 29.209 33.9527 28.8182 33.9484C28.4422 33.9445 28.1899 33.7094 28.1629 33.3076C28.1446 33.0362 28.1594 32.7625 28.1591 32.4898ZM28.8118 38.724C28.677 38.7072 28.5399 38.7008 28.4078 38.6717C27.8384 38.5464 27.6298 37.9775 27.9373 37.3999C28.0584 37.1724 28.2059 37.0112 28.506 37.0517C28.7641 37.0865 29.0299 37.0605 29.29 37.0854C29.6028 37.1154 29.8418 37.2585 29.9293 37.5878C30.0174 37.9198 29.9219 38.2897 29.629 38.4633C29.3868 38.6068 29.0994 38.6738 28.832 38.7746C28.8253 38.7577 28.8186 38.7409 28.8118 38.724ZM49.7225 33.683C49.7225 34.3641 49.7228 35.0454 49.7223 35.7264C49.7221 36.0631 49.5811 36.2144 49.2198 36.268C48.8872 36.3175 48.639 36.1845 48.5516 35.8951C48.5184 35.7854 48.5024 35.6663 48.5021 35.5514C48.4987 34.2962 48.4962 33.0409 48.5016 31.7856C48.504 31.2161 48.9065 30.9443 49.4175 31.1536C49.6213 31.2371 49.7372 31.3548 49.7295 31.6106C49.7088 32.3008 49.7225 32.9921 49.7225 33.683ZM40.97 32.9235H39.8671C39.8671 32.4458 39.8445 31.9825 39.875 31.5226C39.8955 31.212 40.1368 31.0404 40.4359 31.0463C40.731 31.0521 40.9415 31.2068 40.9622 31.519C40.9926 31.9784 40.97 32.4414 40.97 32.9235Z" fill="#222222"/>
<path d="M53.2493 35.6875C53.788 35.6838 54.1525 36.0377 54.1581 36.57C54.164 37.1192 53.7953 37.5004 53.2593 37.4995C52.7349 37.4986 52.3682 37.1274 52.3653 36.5944C52.3622 36.0556 52.7174 35.6913 53.2493 35.6875Z" fill="#6DB6D1"/>
</svg>
