<svg width="66" height="66" viewBox="0 0 66 66" fill="none" xmlns="http://www.w3.org/2000/svg">
<circle cx="32.9183" cy="32.9183" r="32.9183" fill="#F5F5F5"/>
<g clip-path="url(#clip0_432_143)">
<path d="M42.385 47.2929H32.8179C32.829 43.2867 31.9446 39.3266 30.227 35.691C28.5094 32.0554 26.0002 28.8323 22.8757 26.2483L29.0656 18.9884C33.2475 22.4777 36.6047 26.8167 38.9045 31.7042C41.2042 36.5917 42.3915 41.9109 42.3838 47.2929H42.385ZM36.9574 24.043C41.835 30.5666 44.7418 38.5628 44.7418 47.2929H54.3089C54.3089 36.5407 50.7448 26.6158 44.7418 18.5275L36.9574 24.043ZM11.2473 32.5911C16.968 35.0729 21.0014 40.6783 21.0014 47.2953H30.5685C30.5824 42.3755 29.1357 37.5579 26.4046 33.4295C23.6734 29.3012 19.7758 26.0403 15.1866 24.0442L11.2473 32.5911Z" fill="url(#paint0_linear_432_143)"/>
</g>
<defs>
<linearGradient id="paint0_linear_432_143" x1="35.0662" y1="50.6103" x2="29.5916" y2="18.9266" gradientUnits="userSpaceOnUse">
<stop stop-color="#628FBF"/>
<stop offset="1" stop-color="#689ACE"/>
</linearGradient>
<clipPath id="clip0_432_143">
<rect width="44" height="30" fill="white" transform="translate(11 18)"/>
</clipPath>
</defs>
</svg>
