<svg width="66" height="66" viewBox="0 0 66 66" fill="none" xmlns="http://www.w3.org/2000/svg">
<circle cx="32.9183" cy="32.9183" r="32.9183" fill="#F5F5F5"/>
<g clip-path="url(#clip0_370_2)">
<path d="M49.9371 24.7C49.9371 18.208 44.6185 13 38.1246 13H18.1736C16.4502 13 15.063 14.386 15.063 16.081C15.063 19.237 21.8143 21.634 21.8143 32.5C21.8143 43.366 15.063 45.763 15.063 48.919C15.063 50.614 16.4502 52 18.1736 52H38.1246C44.6185 52 49.9371 46.792 49.9371 40.3C49.9371 35.53 47.0446 32.623 46.9295 32.5C47.0415 32.377 49.9371 29.47 49.9371 24.7ZM19.1762 16.3451H38.1246C40.3781 16.3451 42.4983 17.215 44.0915 18.793C45.6846 20.371 46.563 22.4711 46.563 24.7031C46.563 26.9351 45.7331 28.9031 44.255 30.4481L19.1792 16.3451H19.1762ZM44.0884 46.21C42.4953 47.788 40.3751 48.658 38.1216 48.658H19.1731L44.249 34.555C45.727 36.1 46.5569 38.14 46.5569 40.3C46.5569 42.46 45.6786 44.632 44.0854 46.21H44.0884ZM22.8471 42.7481C23.047 42.3341 25.1854 38.224 25.1854 32.5C25.1854 26.776 23.047 22.6661 22.8471 22.2521L41.0687 32.5L22.8471 42.7481Z" fill="black"/>
</g>
<defs>
<clipPath id="clip0_370_2">
<rect width="35" height="39" fill="white" transform="translate(15 13)"/>
</clipPath>
</defs>
</svg>
