<svg width="66" height="66" viewBox="0 0 66 66" fill="none" xmlns="http://www.w3.org/2000/svg">
<circle cx="32.9183" cy="32.9183" r="32.9183" fill="#F5F5F5"/>
<path fill-rule="evenodd" clip-rule="evenodd" d="M34.9834 18.1708L45.3155 23.7818L35.7685 11C35.0107 12.0169 34.5384 13.2179 34.4003 14.4786C34.2623 15.7393 34.4636 17.0139 34.9834 18.1708Z" fill="url(#paint0_linear_209_31)"/>
<path fill-rule="evenodd" clip-rule="evenodd" d="M30.3145 38.9817C30.7795 38.9817 31.234 39.1193 31.6209 39.3772C32.0078 39.6351 32.3097 40.0018 32.4885 40.4309C32.6674 40.8601 32.7152 41.3326 32.626 41.7889C32.5369 42.2452 32.3146 42.6649 31.9873 42.9952C31.66 43.3254 31.2422 43.5513 30.7867 43.6446C30.3312 43.7378 29.8583 43.6941 29.4276 43.5191C28.9969 43.344 28.6276 43.0454 28.3663 42.6608C28.1049 42.2762 27.9633 41.8229 27.9592 41.358C27.9564 41.0469 28.0153 40.7384 28.1324 40.4502C28.2495 40.162 28.4226 39.8999 28.6416 39.6789C28.8606 39.458 29.1212 39.2826 29.4083 39.163C29.6954 39.0433 30.0035 38.9817 30.3145 38.9817Z" fill="url(#paint1_linear_209_31)"/>
<path fill-rule="evenodd" clip-rule="evenodd" d="M23.1228 12.8738L52.0571 28.5762C52.2937 28.6913 52.4932 28.8706 52.6327 29.0937C52.7723 29.3168 52.8463 29.5746 52.8463 29.8377C52.8463 30.1008 52.7723 30.3586 52.6327 30.5816C52.4932 30.8047 52.2937 30.984 52.0571 31.0991C49.8688 32.4159 47.4722 33.3505 44.9701 33.8627L38.9508 46.2153C38.9508 46.2153 37.0456 50.5491 31.801 48.8847C33.9994 46.6863 36.6583 44.6974 36.6583 41.3161C36.6583 39.6309 35.9888 38.0146 34.7972 36.823C33.6055 35.6313 31.9893 34.9619 30.3041 34.9619C28.6188 34.9619 27.0026 35.6313 25.8109 36.823C24.6193 38.0146 23.9498 39.6309 23.9498 41.3161C23.9498 45.7337 28.3046 47.5971 30.7228 50.6643C31.2511 51.4122 31.5053 52.3194 31.4423 53.2329C31.3794 54.1464 31.0032 55.0102 30.3773 55.6786C27.3729 52.7056 21.563 47.6913 19.1763 44.4043C17.8714 42.747 17.1534 40.7036 17.135 38.5944C17.2496 36.3501 18.0526 34.1955 19.4349 32.4237C20.8172 30.6518 22.7116 29.3487 24.8606 28.6914C26.1787 28.3074 27.5506 28.1413 28.9222 28.1994C30.8348 28.3443 32.6926 28.9052 34.3657 29.8429C36.9305 31.3503 38.1762 30.9525 39.9453 29.466C40.9922 28.6076 42.1332 25.8126 40.3641 25.1636C39.7856 24.9749 39.1944 24.8279 38.5949 24.7239C35.3079 24.0853 29.5608 23.4782 27.4462 22.2743C24.0859 20.4215 21.8248 16.6005 23.1228 12.8738Z" fill="url(#paint2_linear_209_31)"/>
<path fill-rule="evenodd" clip-rule="evenodd" d="M36.606 41.3475C37.9459 34.3024 30.7961 27.5817 25.3107 28.5867L25.6771 28.5029C25.384 28.5658 25.1013 28.639 24.8291 28.7228C22.6802 29.3801 20.7858 30.6832 19.4035 32.455C18.0212 34.2269 17.2182 36.3815 17.1036 38.6258C17.1369 40.7412 17.8735 42.7853 19.1972 44.4357C21.584 47.7227 27.3939 52.737 30.3983 55.71C31.0242 55.0416 31.4003 54.1778 31.4633 53.2643C31.5262 52.3508 31.2721 51.4436 30.7437 50.6957C28.2732 47.639 23.9184 45.7651 23.9184 41.358C23.9184 39.6727 24.5879 38.0565 25.7795 36.8649C26.9712 35.6732 28.5874 35.0037 30.2727 35.0037C31.9579 35.0037 33.5741 35.6732 34.7658 36.8649C35.9574 38.0565 36.6269 39.6727 36.6269 41.358L36.606 41.3475Z" fill="url(#paint3_linear_209_31)"/>
<path fill-rule="evenodd" clip-rule="evenodd" d="M23.1228 12.8738L45.1062 24.8495L45.7343 25.195C46.2577 25.6032 46.7811 26.4198 46.1007 27.9272C45.0539 30.1779 40.8666 32.3553 36.0407 30.649C37.5481 31.0886 38.574 30.5861 39.893 29.4765C40.9398 28.6181 42.0809 25.8231 40.3117 25.174C39.7333 24.9853 39.1421 24.8384 38.5426 24.7344C35.2556 24.0958 29.5085 23.4887 27.3939 22.2848C24.0859 20.4215 21.8248 16.6005 23.1228 12.8738Z" fill="url(#paint4_linear_209_31)"/>
<path fill-rule="evenodd" clip-rule="evenodd" d="M23.1228 12.8738C25.3944 21.2484 39.223 21.9394 46.153 25.4358L23.1228 12.8738Z" fill="url(#paint5_linear_209_31)"/>
<path fill-rule="evenodd" clip-rule="evenodd" d="M30.6914 50.6957C28.2732 47.639 23.9184 45.7651 23.9184 41.358C23.9244 39.813 24.4931 38.323 25.5181 37.167C26.5432 36.0109 27.9543 35.2679 29.4875 35.077C27.0608 35.0853 24.7358 36.053 23.0198 37.769C21.3038 39.485 20.3361 41.81 20.3278 44.2368C20.3266 44.8558 20.3898 45.4732 20.5162 46.0792C22.5157 48.3403 25.4049 51.0097 27.844 53.2709C28.7966 54.1607 29.676 54.9982 30.3983 55.71C30.9993 55.0136 31.3656 54.1455 31.4451 53.229C31.5023 52.3219 31.2352 51.424 30.6914 50.6957Z" fill="url(#paint6_linear_209_31)"/>
<path fill-rule="evenodd" clip-rule="evenodd" d="M36.5745 42.1012C36.6076 41.8513 36.6251 41.5996 36.6269 41.3475C37.9459 34.3024 30.7961 27.5817 25.3107 28.5867C26.482 28.3037 27.6868 28.1839 28.8908 28.2308C36.0825 28.5239 38.0924 36.2076 36.5745 42.1012Z" fill="url(#paint7_linear_209_31)"/>
<path fill-rule="evenodd" clip-rule="evenodd" d="M15.3658 26.5349C15.9942 26.5377 16.596 26.7893 17.0394 27.2346C17.4827 27.6799 17.7317 28.2828 17.7317 28.9112V31.277H15.3658C14.7384 31.277 14.1366 31.0278 13.6929 30.5841C13.2493 30.1404 13 29.5387 13 28.9112C13 28.2828 13.2489 27.6799 13.6923 27.2346C14.1357 26.7893 14.7374 26.5377 15.3658 26.5349Z" fill="url(#paint8_linear_209_31)"/>
<defs>
<linearGradient id="paint0_linear_209_31" x1="30.639" y1="17.3961" x2="51.1987" y2="17.3961" gradientUnits="userSpaceOnUse">
<stop stop-color="#FBAA19"/>
<stop offset="1" stop-color="#EF3E23"/>
</linearGradient>
<linearGradient id="paint1_linear_209_31" x1="29.5085" y1="43.5354" x2="31.1206" y2="39.1282" gradientUnits="userSpaceOnUse">
<stop stop-color="#F78D1E"/>
<stop offset="1" stop-color="#F37121"/>
</linearGradient>
<linearGradient id="paint2_linear_209_31" x1="16.7267" y1="45.0533" x2="41.7773" y2="18.2022" gradientUnits="userSpaceOnUse">
<stop stop-color="#FEBE2D"/>
<stop offset="1" stop-color="#F04E23"/>
</linearGradient>
<linearGradient id="paint3_linear_209_31" x1="34.4286" y1="29.3613" x2="20.5686" y2="50.6957" gradientUnits="userSpaceOnUse">
<stop stop-color="#EA4425"/>
<stop offset="1" stop-color="#FDBB27"/>
</linearGradient>
<linearGradient id="paint4_linear_209_31" x1="13.2512" y1="22.065" x2="57.0086" y2="22.065" gradientUnits="userSpaceOnUse">
<stop stop-color="#F47920"/>
<stop offset="1" stop-color="#E93825"/>
</linearGradient>
<linearGradient id="paint5_linear_209_31" x1="-9.86271" y1="19.1443" x2="79.17" y2="19.1443" gradientUnits="userSpaceOnUse">
<stop stop-color="#FDCA0B"/>
<stop offset="1" stop-color="#F5841F"/>
</linearGradient>
<linearGradient id="paint6_linear_209_31" x1="21.9399" y1="29.9162" x2="31.2043" y2="62.2317" gradientUnits="userSpaceOnUse">
<stop stop-color="#E73C25"/>
<stop offset="1" stop-color="#FAA21B"/>
</linearGradient>
<linearGradient id="paint7_linear_209_31" x1="-40.7755" y1="35.1608" x2="91.3864" y2="35.1608" gradientUnits="userSpaceOnUse">
<stop stop-color="#FDBA12"/>
<stop offset="1" stop-color="#F7921E"/>
</linearGradient>
<linearGradient id="paint8_linear_209_31" x1="13.0837" y1="28.5029" x2="18.0352" y2="29.3823" gradientUnits="userSpaceOnUse">
<stop stop-color="#FEBE2D"/>
<stop offset="1" stop-color="#F04E23"/>
</linearGradient>
</defs>
</svg>
