<svg width="66" height="66" viewBox="0 0 66 66" fill="none" xmlns="http://www.w3.org/2000/svg">
<circle cx="32.9183" cy="32.9183" r="32.9183" fill="#F5F5F5"/>
<path d="M19.7104 31.3797C20.6341 32.3034 20.6341 33.8067 19.7104 34.8474L15.4343 39.1217C14.5123 40.0454 13.009 40.0454 11.9701 39.1217L7.69403 34.8474C6.76866 33.922 6.76866 32.4204 7.69403 31.3797L11.9701 27.1037C12.8921 26.1817 14.3954 26.1817 15.4343 27.1037L19.7104 31.3797Z" fill="#E2196A"/>
<path d="M36.6977 25.1377C35.7757 24.2157 35.7757 22.7124 36.6977 21.6717L40.9738 17.3974C41.8975 16.472 43.4008 16.472 44.4397 17.3974L54.0325 26.9884L58.3085 31.2645C59.2305 32.1865 59.2305 33.6898 58.3085 34.7287L44.3228 48.7145C43.4008 49.6365 41.8975 49.6365 40.8585 48.7145L36.5825 44.4384C35.6571 43.513 35.6571 42.0114 36.5825 41.0844L42.8211 34.8457C43.7448 33.922 43.7448 32.3034 42.8211 31.3797L36.696 25.1394L36.6977 25.1377Z" fill="#43AC49"/>
<path d="M25.0271 36.6947C24.7966 36.4642 24.5644 36.3473 24.3339 36.232V29.8764C24.5644 29.7612 24.7966 29.6459 25.0271 29.4137L29.3031 25.1394C30.2268 24.2157 30.2268 22.7141 29.3031 21.6734L25.0271 17.3974C24.1051 16.4737 22.6018 16.4737 21.5595 17.3974L17.4003 21.6734C16.475 22.5954 16.475 24.0987 17.4003 25.1394L21.6764 29.4137C21.9069 29.6459 22.1374 29.7629 22.3696 29.8764V36.232C22.1374 36.349 21.9069 36.4642 21.6764 36.6947L17.4003 40.9708C16.475 41.8945 16.475 43.3978 17.4003 44.4367L21.6764 48.7128C22.6001 49.6365 24.1034 49.6365 25.1423 48.7128L29.4184 44.4367C30.3404 43.513 30.3404 42.0097 29.4184 40.9708L25.0254 36.6947H25.0271Z" fill="#EF872F"/>
<path d="M34.7351 46.2875C34.5046 46.057 34.2724 45.94 34.0419 45.8248V39.4692C34.2724 39.3539 34.5046 39.2387 34.7351 39.0065L39.0094 34.7321C39.9331 33.8084 39.9331 32.3068 39.0094 31.2662L34.7351 26.9901C34.5046 26.7596 34.2724 26.6427 34.0419 26.5274V20.1718C34.2724 20.0549 34.5046 19.9413 34.7351 19.7108L39.0094 15.4348C39.9331 14.5094 39.9331 13.0095 39.0094 11.9671L34.7351 7.69276C33.8114 6.76908 32.3081 6.76908 31.2675 7.69276L26.9931 11.9671C26.0677 12.8925 26.0677 14.3941 26.9931 15.4348L31.2675 19.7108C31.4996 19.9413 31.7301 20.0566 31.9623 20.1718V26.5274C31.7301 26.6444 31.4996 26.7596 31.2675 26.9901L26.9931 31.2662C26.0677 32.1882 26.0677 33.6915 26.9931 34.7321L31.2675 39.0065C31.4996 39.2387 31.7301 39.3556 31.9623 39.4692V45.8248C31.7301 45.9417 31.4996 46.057 31.2675 46.2875L26.9931 50.5635C26.0677 51.4872 26.0677 52.9888 26.9931 54.0295L31.2675 58.3038C32.1911 59.2292 33.6928 59.2292 34.7351 58.3038L39.0094 54.0295C39.9331 53.1058 39.9331 51.6025 39.0094 50.5635L34.7351 46.2875Z" fill="#3167B0"/>
</svg>
