<svg width="66" height="66" viewBox="0 0 66 66" fill="none" xmlns="http://www.w3.org/2000/svg">
<circle cx="32.9183" cy="32.9183" r="32.9183" fill="#F5F5F5"/>
<g clip-path="url(#clip0_2663_30)">
<path d="M12.9793 37.409C10.1392 37.409 8 35.1386 8 32.3357C8 29.5234 10.03 27.2344 12.9793 27.2344C14.545 27.2344 15.6282 27.7202 16.4748 28.832L15.1094 29.9812C14.5359 29.3646 13.8441 29.0563 12.9793 29.0563C11.0586 29.0563 10.0026 30.5418 10.0026 32.3357C10.0026 34.1296 11.1587 35.5871 12.9793 35.5871C13.835 35.5871 14.5632 35.2788 15.1367 34.6621L16.4839 35.858C15.6738 36.9231 14.5632 37.409 12.9793 37.409Z" fill="#292929"/>
<path d="M22.3651 29.9448H24.2038V37.2324H22.3651V36.1673C21.9827 36.9241 21.3455 37.4286 20.1257 37.4286C18.1777 37.4286 16.6211 35.7189 16.6211 33.6167C16.6211 31.5145 18.1777 29.8047 20.1257 29.8047C21.3364 29.8047 21.9827 30.3092 22.3651 31.066V29.9448ZM22.4197 33.6167C22.4197 32.4768 21.6459 31.5332 20.4261 31.5332C19.2518 31.5332 18.4872 32.4861 18.4872 33.6167C18.4872 34.7191 19.2518 35.7002 20.4261 35.7002C21.6368 35.7002 22.4197 34.7472 22.4197 33.6167Z" fill="#292929"/>
<path d="M25.5059 27H27.3446V37.2213H25.5059V27Z" fill="#292929"/>
<path d="M28.1621 36.2587C28.1621 35.6608 28.6355 35.1562 29.2818 35.1562C29.9281 35.1562 30.3832 35.6608 30.3832 36.2587C30.3832 36.8754 29.919 37.3799 29.2818 37.3799C28.6446 37.3799 28.1621 36.8754 28.1621 36.2587Z" fill="#292929"/>
<path d="M37.4204 36.0552C36.7376 36.8961 35.6999 37.4286 34.471 37.4286C32.2772 37.4286 30.666 35.7189 30.666 33.6167C30.666 31.5145 32.2772 29.8047 34.471 29.8047C35.6544 29.8047 36.683 30.3092 37.3658 31.1034L35.9457 32.3086C35.5907 31.8602 35.1264 31.5238 34.471 31.5238C33.2968 31.5238 32.5321 32.4768 32.5321 33.6073C32.5321 34.7378 33.2968 35.6908 34.471 35.6908C35.1811 35.6908 35.6726 35.3171 36.0367 34.8126L37.4204 36.0552Z" fill="#292929"/>
<path d="M37.5762 33.6167C37.5762 31.5145 39.1874 29.8047 41.3812 29.8047C43.575 29.8047 45.1862 31.5145 45.1862 33.6167C45.1862 35.7189 43.575 37.4286 41.3812 37.4286C39.1874 37.4193 37.5762 35.7189 37.5762 33.6167ZM43.3201 33.6167C43.3201 32.4768 42.5554 31.5332 41.3812 31.5332C40.2069 31.5238 39.4423 32.4768 39.4423 33.6167C39.4423 34.7472 40.2069 35.7002 41.3812 35.7002C42.5554 35.7002 43.3201 34.7472 43.3201 33.6167Z" fill="#292929"/>
<path d="M57.6194 32.7741V37.2214H55.7807V33.2319C55.7807 31.9706 55.1982 31.4287 54.3243 31.4287C53.505 31.4287 52.9224 31.8398 52.9224 33.2319V37.2214H51.0837V33.2319C51.0837 31.9706 50.4919 31.4287 49.6272 31.4287C48.8079 31.4287 48.0888 31.8398 48.0888 33.2319V37.2214H46.25V29.9338H48.0888V30.9429C48.4711 30.158 49.1629 29.7656 50.228 29.7656C51.2384 29.7656 52.085 30.2701 52.5492 31.1204C53.0135 30.2515 53.6962 29.7656 54.9342 29.7656C56.4452 29.775 57.6194 30.9335 57.6194 32.7741Z" fill="#292929"/>
</g>
<defs>
<clipPath id="clip0_2663_30">
<rect width="50" height="11" fill="white" transform="translate(8 27)"/>
</clipPath>
</defs>
</svg>
