<svg width="66" height="66" viewBox="0 0 66 66" fill="none" xmlns="http://www.w3.org/2000/svg">
<circle cx="32.9183" cy="32.9183" r="32.9183" fill="#F5F5F5"/>
<g clip-path="url(#clip0_2618_48)">
<path d="M41.1587 39.1799C39.7361 40.4474 37.9612 42.0249 34.7336 42.0249H32.8089C30.4759 42.0249 28.3545 41.1748 26.8365 39.6318C25.3537 38.1249 24.537 36.0619 24.537 33.8225V31.1757C24.537 28.9364 25.3537 26.8734 26.8365 25.3665C28.3545 23.8234 30.4759 22.9734 32.8089 22.9734H34.7336C37.9612 22.9734 39.7345 24.5509 41.1587 25.8184C42.6357 27.1329 43.9119 28.2678 47.311 28.2678C47.8295 28.2679 48.3472 28.2263 48.8591 28.1434C48.8591 28.1334 48.8525 28.1241 48.8483 28.114C48.6444 27.6065 48.4053 27.1139 48.1328 26.6399L45.86 22.6878C44.8352 20.9064 43.3615 19.4271 41.5867 18.3985C39.812 17.3699 37.7988 16.8283 35.7495 16.8281H31.2031C29.1538 16.8283 27.1406 17.3699 25.3659 18.3985C23.5911 19.4271 22.1173 20.9064 21.0926 22.6878L18.8198 26.6399C17.7952 28.4213 17.2559 30.4421 17.2559 32.4991C17.2559 34.5561 17.7952 36.5769 18.8198 38.3584L21.0926 42.3105C22.1174 44.0918 23.5912 45.571 25.3659 46.5994C27.1407 47.6278 29.1538 48.1693 31.2031 48.1693H35.7495C37.7988 48.1693 39.8119 47.6278 41.5867 46.5994C43.3614 45.571 44.8352 44.0918 45.86 42.3105L48.1328 38.3584C48.4053 37.8844 48.6444 37.3918 48.8483 36.8842C48.8483 36.8741 48.8558 36.8649 48.8591 36.8548C48.3472 36.772 47.8295 36.7304 47.311 36.7305C43.9119 36.7305 42.6357 37.8653 41.1587 39.1799Z" fill="#006BFF"/>
<path d="M34.7333 25.375H32.8086C29.2588 25.375 26.9258 27.9201 26.9258 31.1784V33.8252C26.9258 37.0834 29.2588 39.6285 32.8086 39.6285H34.7333C39.9065 39.6285 39.5032 34.3367 47.3107 34.3367C48.0509 34.3361 48.7896 34.4039 49.5174 34.5391C49.7542 33.1927 49.7542 31.815 49.5174 30.4686C48.7897 30.6046 48.051 30.6726 47.3107 30.6719C39.5007 30.671 39.9065 25.375 34.7333 25.375Z" fill="#006BFF"/>
<path d="M54.005 36.4701C52.6742 35.4938 51.14 34.8332 49.518 34.5382C49.518 34.5516 49.5138 34.5651 49.5113 34.5777C49.3721 35.3585 49.1536 36.1229 48.8594 36.8591C50.1995 37.0672 51.4711 37.5923 52.569 38.3912C52.569 38.4029 52.5623 38.4147 52.5582 38.4273C51.9359 40.4557 50.9955 42.3717 49.7724 44.103C48.5633 45.8183 47.0952 47.3339 45.4209 48.5952C41.368 51.6557 36.3091 53.0585 31.2657 52.5203C26.2224 51.9822 21.5703 49.5432 18.2489 45.6959C14.9275 41.8486 13.1842 36.8795 13.3709 31.7921C13.5577 26.7046 15.6607 21.8779 19.2552 18.2864C21.6972 15.837 24.7282 14.0626 28.0543 13.1351C31.3805 12.2075 34.889 12.1584 38.2397 12.9923C41.5903 13.8263 44.6695 15.5151 47.1786 17.8951C49.6877 20.275 51.5417 23.2653 52.5607 26.5761C52.5649 26.5887 52.5682 26.6004 52.5716 26.6122C51.4728 27.4111 50.2003 27.936 48.8594 28.1435C49.1535 28.8803 49.3722 29.6453 49.5121 30.4265C49.5121 30.4391 49.5121 30.4517 49.518 30.4635C51.1402 30.1692 52.6746 29.5086 54.005 28.5315C55.2845 27.5815 55.0368 26.508 54.8418 25.873C52.0226 16.6795 43.4962 10 33.4151 10C21.036 10 11 20.0738 11 32.4996C11 44.9253 21.036 55 33.4151 55C43.4962 55 52.0226 48.3205 54.8377 39.1295C55.0368 38.4945 55.2845 37.421 54.005 36.4701Z" fill="#006BFF"/>
<path d="M48.8593 28.1466C48.3474 28.2295 47.8297 28.271 47.3112 28.2709C43.912 28.2709 42.6359 27.1361 41.1589 25.8216C39.7363 24.554 37.9614 22.9766 34.7338 22.9766H32.8091C30.476 22.9766 28.3547 23.8266 26.8367 25.3697C25.3538 26.8766 24.5371 28.9395 24.5371 31.1789V33.8257C24.5371 36.0651 25.3538 38.128 26.8367 39.635C28.3547 41.178 30.476 42.028 32.8091 42.028H34.7338C37.9614 42.028 39.7346 40.4506 41.1589 39.183C42.6359 37.8685 43.912 36.7337 47.3112 36.7337C47.8297 36.7336 48.3474 36.7751 48.8593 36.858C49.1535 36.1218 49.3719 35.3574 49.5112 34.5766C49.5112 34.564 49.5162 34.5506 49.5179 34.5371C48.79 34.4019 48.0514 34.3341 47.3112 34.3347C39.5011 34.3347 39.907 39.6266 34.7338 39.6266H32.8091C29.2593 39.6266 26.9262 37.0814 26.9262 33.8232V31.1798C26.9262 27.9215 29.2593 25.3764 32.8091 25.3764H34.7338C39.907 25.3764 39.5036 30.6682 47.3112 30.6682C48.0514 30.669 48.7901 30.6009 49.5179 30.4649C49.5179 30.4532 49.5179 30.4406 49.512 30.428C49.372 29.6473 49.1533 28.8829 48.8593 28.1466Z" fill="#0AE9EF"/>
<path d="M48.8593 28.1466C48.3474 28.2295 47.8297 28.271 47.3112 28.2709C43.912 28.2709 42.6359 27.1361 41.1589 25.8216C39.7363 24.554 37.9614 22.9766 34.7338 22.9766H32.8091C30.476 22.9766 28.3547 23.8266 26.8367 25.3697C25.3538 26.8766 24.5371 28.9395 24.5371 31.1789V33.8257C24.5371 36.0651 25.3538 38.128 26.8367 39.635C28.3547 41.178 30.476 42.028 32.8091 42.028H34.7338C37.9614 42.028 39.7346 40.4506 41.1589 39.183C42.6359 37.8685 43.912 36.7337 47.3112 36.7337C47.8297 36.7336 48.3474 36.7751 48.8593 36.858C49.1535 36.1218 49.3719 35.3574 49.5112 34.5766C49.5112 34.564 49.5162 34.5506 49.5179 34.5371C48.79 34.4019 48.0514 34.3341 47.3112 34.3347C39.5011 34.3347 39.907 39.6266 34.7338 39.6266H32.8091C29.2593 39.6266 26.9262 37.0814 26.9262 33.8232V31.1798C26.9262 27.9215 29.2593 25.3764 32.8091 25.3764H34.7338C39.907 25.3764 39.5036 30.6682 47.3112 30.6682C48.0514 30.669 48.7901 30.6009 49.5179 30.4649C49.5179 30.4532 49.5179 30.4406 49.512 30.428C49.372 29.6473 49.1533 28.8829 48.8593 28.1466Z" fill="#0AE9EF"/>
</g>
<defs>
<clipPath id="clip0_2618_48">
<rect width="44" height="45" fill="white" transform="translate(11 10)"/>
</clipPath>
</defs>
</svg>
