<svg width="66" height="66" viewBox="0 0 66 66" fill="none" xmlns="http://www.w3.org/2000/svg">
<circle cx="32.9183" cy="32.9183" r="32.9183" fill="#F5F5F5"/>
<path d="M46.5336 13.706C46.2407 12.9976 45.7967 12.3989 45.3299 11.9785C44.8264 11.5808 44.3802 11.2609 43.9499 10.989C43.6249 10.7833 43.3068 10.6051 42.9819 10.4406C40.0434 8.88436 36.6976 8 33.139 8C22.8933 8 14.3595 15.3034 12.4623 24.9787C12.1625 26.3933 12 27.8603 12 29.3663C12 31.7771 12.4119 34.092 13.1603 36.2469C13.9429 38.5046 14.3686 39.5992 15.8264 41.4342C16.0552 41.6878 16.3367 41.9255 16.6503 42.1266C17.0027 42.3528 17.3986 42.5311 17.8128 42.6385C17.9753 42.6796 18.1401 42.7162 18.3094 42.7344C19.3255 42.9927 20.4995 42.9195 21.6735 42.2089C23.9918 40.8058 25.5251 36.6102 25.2848 34.8941C25.0514 33.1573 24.2092 32.1267 23.113 32.0033C22.1015 31.8891 21.0785 32.7346 20.1791 30.6254C17.9662 25.4312 28.1088 14.7984 34.6151 16.2106C36.5603 16.6333 35.8806 18.1278 35.995 19.1402C36.1186 20.2347 37.1507 21.0757 38.89 21.3088C40.6087 21.5487 44.8104 20.0177 46.2155 17.7028C47.0852 16.2769 47.0074 14.8486 46.5336 13.706Z" fill="#23A7DE"/>
<path d="M49.7742 17.1978C49.5888 17.9267 49.3027 18.6397 48.8885 19.3207C48.0212 20.7489 46.6023 21.8915 45.0598 22.7393C46.1103 24.6497 46.7099 26.8411 46.7099 29.172C46.7099 36.5691 40.6842 42.5859 33.2763 42.5859C30.9329 42.5859 28.729 41.9826 26.809 40.9246C25.921 42.5516 24.7195 44.0164 23.2961 44.8779C22.5615 45.3235 21.7925 45.632 20.9961 45.8126C23.4197 47.595 26.2368 48.8678 29.3011 49.4528C30.5507 49.6905 31.8391 49.7933 33.1573 49.8139C38.6268 49.9076 36.5786 57.636 36.5786 57.636C48.5773 50.3189 53.7241 38.2578 53.7241 29.2771C53.7241 24.7617 52.2549 20.5889 49.7742 17.1978Z" fill="#033B4C"/>
</svg>
