<svg width="66" height="66" viewBox="0 0 66 66" fill="none" xmlns="http://www.w3.org/2000/svg">
<circle cx="32.9183" cy="32.9183" r="32.9183" fill="#F5F5F5"/>
<svg x="9" y="9" width="48" height="48" viewBox="0 0 48 48" fill="none">
<path fill="#0a2771" d="M 14.26 14.31 Q 11.74 20.36 14.27 28.07 A 0.12 0.12 0.0 0 1 14.06 28.17 C 11.04 23.88 10.31 18.59 12.42 13.54 C 14.54 8.49 18.80 5.28 23.98 4.41 A 0.12 0.12 0.0 0 1 24.06 4.64 Q 16.79 8.26 14.26 14.31 Z"/>
<path fill="#014683" d="M 29.97 5.80 L 28.03 12.69 Q 19.87 12.32 15.97 19.21 A 0.30 0.30 0.0 0 1 15.42 18.98 Q 18.58 7.72 29.97 5.80 Z"/>
<path fill="#0167a7" d="M 36.99 7.00 L 34.45 14.90 Q 31.50 12.99 28.03 12.69 L 29.97 5.80 Q 33.63 5.57 36.99 7.00 Z"/>
<path fill="#0380c6" d="M 34.45 14.90 L 36.99 7.00 C 43.12 9.16 39.60 17.33 34.45 14.90 Z"/>
<path fill="#06093c" d="M 10.33 12.85 C 10.24 14.12 9.19 16.03 9.12 17.52 Q 8.56 30.05 19.27 35.19 Q 27.76 39.27 34.86 33.62 A 0.62 0.62 0.0 0 1 35.68 33.67 L 40.22 38.21 A 0.52 0.52 0.0 0 1 40.21 38.96 C 32.32 46.22 20.11 46.13 12.37 38.68 C 5.84 32.38 3.59 20.68 9.98 12.71 A 0.20 0.20 0.0 0 1 10.33 12.85 Z"/>
<path fill="#0167a7" d="M 27.94 15.03 A 0.87 0.86 89.1 0 1 29.06 13.87 L 29.14 13.90 A 5.31 5.30 -1.6 0 1 31.82 16.43 Q 32.64 18.11 32.58 19.25 C 32.47 21.41 30.29 21.95 28.81 20.56 A 1.18 1.15 26.5 0 1 28.45 19.52 Q 28.84 17.01 27.94 15.03 Z"/>
<path fill="#0380c6" d="M 34.96 16.16 Q 37.54 17.01 38.00 17.80 Q 39.36 20.12 37.14 21.23 A 1.53 1.53 0.0 0 1 34.95 20.12 L 34.37 16.67 A 0.46 0.45 -85.4 0 1 34.96 16.16 Z"/>
</svg>
</svg>
