<svg width="66" height="66" viewBox="0 0 66 66" fill="none" xmlns="http://www.w3.org/2000/svg">
<circle cx="32.9183" cy="32.9183" r="32.9183" fill="#F5F5F5"/>
<path d="M59.6469 35.6078C59.5672 35.6078 59.4875 35.6609 59.4344 35.7938C58.9031 37.3344 58.1594 38.2641 57.5484 38.2641C57.2031 38.2641 57.0703 37.8656 57.0703 37.2812C57.0703 35.7672 57.9734 32.5531 58.425 31.0656C58.4781 30.8797 58.5047 30.7203 58.5047 30.5875C58.5047 30.1625 58.2656 29.95 57.6813 29.95C57.0703 29.95 56.3797 30.1891 55.7422 31.3313C55.5297 30.3219 54.8391 29.8969 53.8828 29.8969C52.7938 29.8969 51.7313 30.6141 50.8547 31.7563C49.9781 32.8984 48.9422 33.2703 48.1719 33.0844C48.7297 31.7297 48.9422 30.6937 48.9422 29.95C48.9422 28.7547 48.3578 28.0375 47.4016 28.0375C45.9672 28.0375 45.1438 29.4187 45.1438 30.8531C45.1438 31.9687 45.6484 33.1109 46.7641 33.6688C45.8344 35.7672 44.4797 37.6797 43.9484 37.6797C43.2844 37.6797 43.0719 34.4125 43.125 32.075C43.1516 30.7469 43.2578 30.6672 43.2578 30.2688C43.2578 30.0297 43.0984 29.8703 42.4875 29.8703C41.0797 29.8703 40.6281 31.0656 40.575 32.4469C40.5484 32.9781 40.4688 33.4828 40.3359 33.9875C39.7516 36.0859 38.5297 37.7062 37.7328 37.7062C37.3609 37.7062 37.2547 37.3344 37.2547 36.8563C37.2547 35.3422 38.1047 33.4297 38.1047 31.8094C38.1047 30.6141 37.5734 29.8703 36.5906 29.8703C35.4219 29.8703 33.9078 31.2516 32.4469 33.8281C32.925 31.8625 33.1109 29.95 31.7031 29.95C31.3844 29.95 31.0922 30.0297 30.8266 30.1891C30.6406 30.2687 30.5344 30.4547 30.5344 30.6672C30.6672 32.7656 28.8344 38.1578 27.1078 38.1578C26.7891 38.1578 26.6297 37.8125 26.6297 37.2547C26.6297 35.7406 27.5328 32.5266 27.9844 31.0391C28.0375 30.8531 28.0641 30.6938 28.0641 30.5344C28.0641 30.1359 27.825 29.9234 27.2406 29.9234C26.6297 29.9234 25.9391 30.1625 25.3016 31.3047C25.0625 30.2953 24.3984 29.8703 23.4422 29.8703C21.875 29.8703 20.1484 31.5172 19.3781 33.6688C18.3422 36.5375 16.2969 39.3266 13.5078 39.3266C10.9844 39.3266 9.65625 37.2281 9.65625 33.9078C9.65625 29.1 13.1891 25.1953 15.7922 25.1953C17.0406 25.1953 17.625 25.9922 17.625 27.2141C17.625 28.7016 16.8016 29.3656 16.8016 29.95C16.8016 30.1094 16.9344 30.2953 17.2266 30.2953C18.3688 30.2953 19.6969 28.9672 19.6969 27.1344C19.6969 25.3016 18.2625 24 15.6594 24C11.3297 24 7 28.3297 7 33.9078C7 38.3438 9.17812 41 12.95 41C15.5266 41 17.7844 39.0078 18.9797 36.6703C19.1125 38.6094 19.9891 39.6187 21.3438 39.6187C22.5391 39.6187 23.4953 38.9016 24.2391 37.6531C24.5313 38.9547 25.275 39.5922 26.2578 39.5922C27.3734 39.5922 28.3297 38.875 29.2062 37.5734C29.2062 38.6094 29.4188 39.5922 30.3219 39.5922C30.7469 39.5922 31.2516 39.4859 31.3312 39.1141C32.2875 35.2094 34.625 31.9953 35.3422 31.9953C35.5547 31.9953 35.6078 32.2078 35.6078 32.4469C35.6078 33.5094 34.8641 35.6875 34.8641 37.0688C34.8641 38.5828 35.5016 39.5656 36.8297 39.5656C38.2906 39.5656 39.7781 37.7859 40.7609 35.1562C41.0797 37.6 41.7437 39.5656 42.7797 39.5656C44.0547 39.5656 46.3656 36.8562 47.7469 33.9875C48.2781 34.0672 49.1016 34.0406 49.8984 33.4828C49.5531 34.3328 49.3672 35.2625 49.3672 36.1656C49.3672 38.8219 50.6422 39.5656 51.7312 39.5656C52.9266 39.5656 53.8828 38.8484 54.6266 37.6C54.8656 38.7156 55.5031 39.5391 56.6453 39.5391C58.425 39.5391 59.9922 37.7063 59.9922 36.1922C60.0188 35.8734 59.8328 35.6078 59.6469 35.6078ZM22.4594 38.1313C21.7422 38.1313 21.45 37.4141 21.45 36.325C21.45 34.4391 22.7516 31.2781 24.1063 31.2781C24.6906 31.2781 24.9297 31.9687 24.9297 32.8453C24.9297 34.7578 23.7078 38.1313 22.4594 38.1313ZM47.2422 32.5C46.8172 31.9953 46.6578 31.2781 46.6578 30.6672C46.6578 29.8969 46.95 29.2594 47.2688 29.2594C47.5875 29.2594 47.7203 29.5781 47.7203 30.0562C47.6938 30.8 47.4281 31.9422 47.2422 32.5ZM52.8469 38.1313C52.1297 38.1313 51.8375 37.2813 51.8375 36.325C51.8375 34.4922 53.1391 31.2781 54.4938 31.2781C55.0781 31.2781 55.2906 31.9687 55.2906 32.8453C55.3172 34.7578 54.1219 38.1313 52.8469 38.1313Z" fill="url(#paint0_linear_4642_60)"/>
<path d="M59.6469 35.6078C59.5672 35.6078 59.4875 35.6609 59.4344 35.7938C58.9031 37.3344 58.1594 38.2641 57.5484 38.2641C57.2031 38.2641 57.0703 37.8656 57.0703 37.2812C57.0703 35.7672 57.9734 32.5531 58.425 31.0656C58.4781 30.8797 58.5047 30.7203 58.5047 30.5875C58.5047 30.1625 58.2656 29.95 57.6813 29.95C57.0703 29.95 56.3797 30.1891 55.7422 31.3313C55.5297 30.3219 54.8391 29.8969 53.8828 29.8969C52.7938 29.8969 51.7313 30.6141 50.8547 31.7563C49.9781 32.8984 48.9422 33.2703 48.1719 33.0844C48.7297 31.7297 48.9422 30.6937 48.9422 29.95C48.9422 28.7547 48.3578 28.0375 47.4016 28.0375C45.9672 28.0375 45.1438 29.4187 45.1438 30.8531C45.1438 31.9687 45.6484 33.1109 46.7641 33.6688C45.8344 35.7672 44.4797 37.6797 43.9484 37.6797C43.2844 37.6797 43.0719 34.4125 43.125 32.075C43.1516 30.7469 43.2578 30.6672 43.2578 30.2688C43.2578 30.0297 43.0984 29.8703 42.4875 29.8703C41.0797 29.8703 40.6281 31.0656 40.575 32.4469C40.5484 32.9781 40.4688 33.4828 40.3359 33.9875C39.7516 36.0859 38.5297 37.7062 37.7328 37.7062C37.3609 37.7062 37.2547 37.3344 37.2547 36.8563C37.2547 35.3422 38.1047 33.4297 38.1047 31.8094C38.1047 30.6141 37.5734 29.8703 36.5906 29.8703C35.4219 29.8703 33.9078 31.2516 32.4469 33.8281C32.925 31.8625 33.1109 29.95 31.7031 29.95C31.3844 29.95 31.0922 30.0297 30.8266 30.1891C30.6406 30.2687 30.5344 30.4547 30.5344 30.6672C30.6672 32.7656 28.8344 38.1578 27.1078 38.1578C26.7891 38.1578 26.6297 37.8125 26.6297 37.2547C26.6297 35.7406 27.5328 32.5266 27.9844 31.0391C28.0375 30.8531 28.0641 30.6938 28.0641 30.5344C28.0641 30.1359 27.825 29.9234 27.2406 29.9234C26.6297 29.9234 25.9391 30.1625 25.3016 31.3047C25.0625 30.2953 24.3984 29.8703 23.4422 29.8703C21.875 29.8703 20.1484 31.5172 19.3781 33.6688C18.3422 36.5375 16.2969 39.3266 13.5078 39.3266C10.9844 39.3266 9.65625 37.2281 9.65625 33.9078C9.65625 29.1 13.1891 25.1953 15.7922 25.1953C17.0406 25.1953 17.625 25.9922 17.625 27.2141C17.625 28.7016 16.8016 29.3656 16.8016 29.95C16.8016 30.1094 16.9344 30.2953 17.2266 30.2953C18.3688 30.2953 19.6969 28.9672 19.6969 27.1344C19.6969 25.3016 18.2625 24 15.6594 24C11.3297 24 7 28.3297 7 33.9078C7 38.3438 9.17812 41 12.95 41C15.5266 41 17.7844 39.0078 18.9797 36.6703C19.1125 38.6094 19.9891 39.6187 21.3438 39.6187C22.5391 39.6187 23.4953 38.9016 24.2391 37.6531C24.5313 38.9547 25.275 39.5922 26.2578 39.5922C27.3734 39.5922 28.3297 38.875 29.2062 37.5734C29.2062 38.6094 29.4188 39.5922 30.3219 39.5922C30.7469 39.5922 31.2516 39.4859 31.3312 39.1141C32.2875 35.2094 34.625 31.9953 35.3422 31.9953C35.5547 31.9953 35.6078 32.2078 35.6078 32.4469C35.6078 33.5094 34.8641 35.6875 34.8641 37.0688C34.8641 38.5828 35.5016 39.5656 36.8297 39.5656C38.2906 39.5656 39.7781 37.7859 40.7609 35.1562C41.0797 37.6 41.7437 39.5656 42.7797 39.5656C44.0547 39.5656 46.3656 36.8562 47.7469 33.9875C48.2781 34.0672 49.1016 34.0406 49.8984 33.4828C49.5531 34.3328 49.3672 35.2625 49.3672 36.1656C49.3672 38.8219 50.6422 39.5656 51.7312 39.5656C52.9266 39.5656 53.8828 38.8484 54.6266 37.6C54.8656 38.7156 55.5031 39.5391 56.6453 39.5391C58.425 39.5391 59.9922 37.7063 59.9922 36.1922C60.0188 35.8734 59.8328 35.6078 59.6469 35.6078ZM22.4594 38.1313C21.7422 38.1313 21.45 37.4141 21.45 36.325C21.45 34.4391 22.7516 31.2781 24.1063 31.2781C24.6906 31.2781 24.9297 31.9687 24.9297 32.8453C24.9297 34.7578 23.7078 38.1313 22.4594 38.1313ZM47.2422 32.5C46.8172 31.9953 46.6578 31.2781 46.6578 30.6672C46.6578 29.8969 46.95 29.2594 47.2688 29.2594C47.5875 29.2594 47.7203 29.5781 47.7203 30.0562C47.6938 30.8 47.4281 31.9422 47.2422 32.5ZM52.8469 38.1313C52.1297 38.1313 51.8375 37.2813 51.8375 36.325C51.8375 34.4922 53.1391 31.2781 54.4938 31.2781C55.0781 31.2781 55.2906 31.9687 55.2906 32.8453C55.3172 34.7578 54.1219 38.1313 52.8469 38.1313Z" fill="url(#paint1_radial_4642_60)"/>
<path d="M59.6469 35.6078C59.5672 35.6078 59.4875 35.6609 59.4344 35.7938C58.9031 37.3344 58.1594 38.2641 57.5484 38.2641C57.2031 38.2641 57.0703 37.8656 57.0703 37.2812C57.0703 35.7672 57.9734 32.5531 58.425 31.0656C58.4781 30.8797 58.5047 30.7203 58.5047 30.5875C58.5047 30.1625 58.2656 29.95 57.6813 29.95C57.0703 29.95 56.3797 30.1891 55.7422 31.3313C55.5297 30.3219 54.8391 29.8969 53.8828 29.8969C52.7938 29.8969 51.7313 30.6141 50.8547 31.7563C49.9781 32.8984 48.9422 33.2703 48.1719 33.0844C48.7297 31.7297 48.9422 30.6937 48.9422 29.95C48.9422 28.7547 48.3578 28.0375 47.4016 28.0375C45.9672 28.0375 45.1438 29.4187 45.1438 30.8531C45.1438 31.9687 45.6484 33.1109 46.7641 33.6688C45.8344 35.7672 44.4797 37.6797 43.9484 37.6797C43.2844 37.6797 43.0719 34.4125 43.125 32.075C43.1516 30.7469 43.2578 30.6672 43.2578 30.2688C43.2578 30.0297 43.0984 29.8703 42.4875 29.8703C41.0797 29.8703 40.6281 31.0656 40.575 32.4469C40.5484 32.9781 40.4688 33.4828 40.3359 33.9875C39.7516 36.0859 38.5297 37.7062 37.7328 37.7062C37.3609 37.7062 37.2547 37.3344 37.2547 36.8563C37.2547 35.3422 38.1047 33.4297 38.1047 31.8094C38.1047 30.6141 37.5734 29.8703 36.5906 29.8703C35.4219 29.8703 33.9078 31.2516 32.4469 33.8281C32.925 31.8625 33.1109 29.95 31.7031 29.95C31.3844 29.95 31.0922 30.0297 30.8266 30.1891C30.6406 30.2687 30.5344 30.4547 30.5344 30.6672C30.6672 32.7656 28.8344 38.1578 27.1078 38.1578C26.7891 38.1578 26.6297 37.8125 26.6297 37.2547C26.6297 35.7406 27.5328 32.5266 27.9844 31.0391C28.0375 30.8531 28.0641 30.6938 28.0641 30.5344C28.0641 30.1359 27.825 29.9234 27.2406 29.9234C26.6297 29.9234 25.9391 30.1625 25.3016 31.3047C25.0625 30.2953 24.3984 29.8703 23.4422 29.8703C21.875 29.8703 20.1484 31.5172 19.3781 33.6688C18.3422 36.5375 16.2969 39.3266 13.5078 39.3266C10.9844 39.3266 9.65625 37.2281 9.65625 33.9078C9.65625 29.1 13.1891 25.1953 15.7922 25.1953C17.0406 25.1953 17.625 25.9922 17.625 27.2141C17.625 28.7016 16.8016 29.3656 16.8016 29.95C16.8016 30.1094 16.9344 30.2953 17.2266 30.2953C18.3688 30.2953 19.6969 28.9672 19.6969 27.1344C19.6969 25.3016 18.2625 24 15.6594 24C11.3297 24 7 28.3297 7 33.9078C7 38.3438 9.17812 41 12.95 41C15.5266 41 17.7844 39.0078 18.9797 36.6703C19.1125 38.6094 19.9891 39.6187 21.3438 39.6187C22.5391 39.6187 23.4953 38.9016 24.2391 37.6531C24.5313 38.9547 25.275 39.5922 26.2578 39.5922C27.3734 39.5922 28.3297 38.875 29.2062 37.5734C29.2062 38.6094 29.4188 39.5922 30.3219 39.5922C30.7469 39.5922 31.2516 39.4859 31.3312 39.1141C32.2875 35.2094 34.625 31.9953 35.3422 31.9953C35.5547 31.9953 35.6078 32.2078 35.6078 32.4469C35.6078 33.5094 34.8641 35.6875 34.8641 37.0688C34.8641 38.5828 35.5016 39.5656 36.8297 39.5656C38.2906 39.5656 39.7781 37.7859 40.7609 35.1562C41.0797 37.6 41.7437 39.5656 42.7797 39.5656C44.0547 39.5656 46.3656 36.8562 47.7469 33.9875C48.2781 34.0672 49.1016 34.0406 49.8984 33.4828C49.5531 34.3328 49.3672 35.2625 49.3672 36.1656C49.3672 38.8219 50.6422 39.5656 51.7312 39.5656C52.9266 39.5656 53.8828 38.8484 54.6266 37.6C54.8656 38.7156 55.5031 39.5391 56.6453 39.5391C58.425 39.5391 59.9922 37.7063 59.9922 36.1922C60.0188 35.8734 59.8328 35.6078 59.6469 35.6078ZM22.4594 38.1313C21.7422 38.1313 21.45 37.4141 21.45 36.325C21.45 34.4391 22.7516 31.2781 24.1063 31.2781C24.6906 31.2781 24.9297 31.9687 24.9297 32.8453C24.9297 34.7578 23.7078 38.1313 22.4594 38.1313ZM47.2422 32.5C46.8172 31.9953 46.6578 31.2781 46.6578 30.6672C46.6578 29.8969 46.95 29.2594 47.2688 29.2594C47.5875 29.2594 47.7203 29.5781 47.7203 30.0562C47.6938 30.8 47.4281 31.9422 47.2422 32.5ZM52.8469 38.1313C52.1297 38.1313 51.8375 37.2813 51.8375 36.325C51.8375 34.4922 53.1391 31.2781 54.4938 31.2781C55.0781 31.2781 55.2906 31.9687 55.2906 32.8453C55.3172 34.7578 54.1219 38.1313 52.8469 38.1313Z" fill="url(#paint2_radial_4642_60)"/>
<path d="M59.6469 35.6078C59.5672 35.6078 59.4875 35.6609 59.4344 35.7938C58.9031 37.3344 58.1594 38.2641 57.5484 38.2641C57.2031 38.2641 57.0703 37.8656 57.0703 37.2812C57.0703 35.7672 57.9734 32.5531 58.425 31.0656C58.4781 30.8797 58.5047 30.7203 58.5047 30.5875C58.5047 30.1625 58.2656 29.95 57.6813 29.95C57.0703 29.95 56.3797 30.1891 55.7422 31.3313C55.5297 30.3219 54.8391 29.8969 53.8828 29.8969C52.7938 29.8969 51.7313 30.6141 50.8547 31.7563C49.9781 32.8984 48.9422 33.2703 48.1719 33.0844C48.7297 31.7297 48.9422 30.6937 48.9422 29.95C48.9422 28.7547 48.3578 28.0375 47.4016 28.0375C45.9672 28.0375 45.1438 29.4187 45.1438 30.8531C45.1438 31.9687 45.6484 33.1109 46.7641 33.6688C45.8344 35.7672 44.4797 37.6797 43.9484 37.6797C43.2844 37.6797 43.0719 34.4125 43.125 32.075C43.1516 30.7469 43.2578 30.6672 43.2578 30.2688C43.2578 30.0297 43.0984 29.8703 42.4875 29.8703C41.0797 29.8703 40.6281 31.0656 40.575 32.4469C40.5484 32.9781 40.4688 33.4828 40.3359 33.9875C39.7516 36.0859 38.5297 37.7062 37.7328 37.7062C37.3609 37.7062 37.2547 37.3344 37.2547 36.8563C37.2547 35.3422 38.1047 33.4297 38.1047 31.8094C38.1047 30.6141 37.5734 29.8703 36.5906 29.8703C35.4219 29.8703 33.9078 31.2516 32.4469 33.8281C32.925 31.8625 33.1109 29.95 31.7031 29.95C31.3844 29.95 31.0922 30.0297 30.8266 30.1891C30.6406 30.2687 30.5344 30.4547 30.5344 30.6672C30.6672 32.7656 28.8344 38.1578 27.1078 38.1578C26.7891 38.1578 26.6297 37.8125 26.6297 37.2547C26.6297 35.7406 27.5328 32.5266 27.9844 31.0391C28.0375 30.8531 28.0641 30.6938 28.0641 30.5344C28.0641 30.1359 27.825 29.9234 27.2406 29.9234C26.6297 29.9234 25.9391 30.1625 25.3016 31.3047C25.0625 30.2953 24.3984 29.8703 23.4422 29.8703C21.875 29.8703 20.1484 31.5172 19.3781 33.6688C18.3422 36.5375 16.2969 39.3266 13.5078 39.3266C10.9844 39.3266 9.65625 37.2281 9.65625 33.9078C9.65625 29.1 13.1891 25.1953 15.7922 25.1953C17.0406 25.1953 17.625 25.9922 17.625 27.2141C17.625 28.7016 16.8016 29.3656 16.8016 29.95C16.8016 30.1094 16.9344 30.2953 17.2266 30.2953C18.3688 30.2953 19.6969 28.9672 19.6969 27.1344C19.6969 25.3016 18.2625 24 15.6594 24C11.3297 24 7 28.3297 7 33.9078C7 38.3438 9.17812 41 12.95 41C15.5266 41 17.7844 39.0078 18.9797 36.6703C19.1125 38.6094 19.9891 39.6187 21.3438 39.6187C22.5391 39.6187 23.4953 38.9016 24.2391 37.6531C24.5313 38.9547 25.275 39.5922 26.2578 39.5922C27.3734 39.5922 28.3297 38.875 29.2062 37.5734C29.2062 38.6094 29.4188 39.5922 30.3219 39.5922C30.7469 39.5922 31.2516 39.4859 31.3312 39.1141C32.2875 35.2094 34.625 31.9953 35.3422 31.9953C35.5547 31.9953 35.6078 32.2078 35.6078 32.4469C35.6078 33.5094 34.8641 35.6875 34.8641 37.0688C34.8641 38.5828 35.5016 39.5656 36.8297 39.5656C38.2906 39.5656 39.7781 37.7859 40.7609 35.1562C41.0797 37.6 41.7437 39.5656 42.7797 39.5656C44.0547 39.5656 46.3656 36.8562 47.7469 33.9875C48.2781 34.0672 49.1016 34.0406 49.8984 33.4828C49.5531 34.3328 49.3672 35.2625 49.3672 36.1656C49.3672 38.8219 50.6422 39.5656 51.7312 39.5656C52.9266 39.5656 53.8828 38.8484 54.6266 37.6C54.8656 38.7156 55.5031 39.5391 56.6453 39.5391C58.425 39.5391 59.9922 37.7063 59.9922 36.1922C60.0188 35.8734 59.8328 35.6078 59.6469 35.6078ZM22.4594 38.1313C21.7422 38.1313 21.45 37.4141 21.45 36.325C21.45 34.4391 22.7516 31.2781 24.1063 31.2781C24.6906 31.2781 24.9297 31.9687 24.9297 32.8453C24.9297 34.7578 23.7078 38.1313 22.4594 38.1313ZM47.2422 32.5C46.8172 31.9953 46.6578 31.2781 46.6578 30.6672C46.6578 29.8969 46.95 29.2594 47.2688 29.2594C47.5875 29.2594 47.7203 29.5781 47.7203 30.0562C47.6938 30.8 47.4281 31.9422 47.2422 32.5ZM52.8469 38.1313C52.1297 38.1313 51.8375 37.2813 51.8375 36.325C51.8375 34.4922 53.1391 31.2781 54.4938 31.2781C55.0781 31.2781 55.2906 31.9687 55.2906 32.8453C55.3172 34.7578 54.1219 38.1313 52.8469 38.1313Z" fill="url(#paint3_radial_4642_60)"/>
<path d="M59.6469 35.6078C59.5672 35.6078 59.4875 35.6609 59.4344 35.7938C58.9031 37.3344 58.1594 38.2641 57.5484 38.2641C57.2031 38.2641 57.0703 37.8656 57.0703 37.2812C57.0703 35.7672 57.9734 32.5531 58.425 31.0656C58.4781 30.8797 58.5047 30.7203 58.5047 30.5875C58.5047 30.1625 58.2656 29.95 57.6813 29.95C57.0703 29.95 56.3797 30.1891 55.7422 31.3313C55.5297 30.3219 54.8391 29.8969 53.8828 29.8969C52.7938 29.8969 51.7313 30.6141 50.8547 31.7563C49.9781 32.8984 48.9422 33.2703 48.1719 33.0844C48.7297 31.7297 48.9422 30.6937 48.9422 29.95C48.9422 28.7547 48.3578 28.0375 47.4016 28.0375C45.9672 28.0375 45.1438 29.4187 45.1438 30.8531C45.1438 31.9687 45.6484 33.1109 46.7641 33.6688C45.8344 35.7672 44.4797 37.6797 43.9484 37.6797C43.2844 37.6797 43.0719 34.4125 43.125 32.075C43.1516 30.7469 43.2578 30.6672 43.2578 30.2688C43.2578 30.0297 43.0984 29.8703 42.4875 29.8703C41.0797 29.8703 40.6281 31.0656 40.575 32.4469C40.5484 32.9781 40.4688 33.4828 40.3359 33.9875C39.7516 36.0859 38.5297 37.7062 37.7328 37.7062C37.3609 37.7062 37.2547 37.3344 37.2547 36.8563C37.2547 35.3422 38.1047 33.4297 38.1047 31.8094C38.1047 30.6141 37.5734 29.8703 36.5906 29.8703C35.4219 29.8703 33.9078 31.2516 32.4469 33.8281C32.925 31.8625 33.1109 29.95 31.7031 29.95C31.3844 29.95 31.0922 30.0297 30.8266 30.1891C30.6406 30.2687 30.5344 30.4547 30.5344 30.6672C30.6672 32.7656 28.8344 38.1578 27.1078 38.1578C26.7891 38.1578 26.6297 37.8125 26.6297 37.2547C26.6297 35.7406 27.5328 32.5266 27.9844 31.0391C28.0375 30.8531 28.0641 30.6938 28.0641 30.5344C28.0641 30.1359 27.825 29.9234 27.2406 29.9234C26.6297 29.9234 25.9391 30.1625 25.3016 31.3047C25.0625 30.2953 24.3984 29.8703 23.4422 29.8703C21.875 29.8703 20.1484 31.5172 19.3781 33.6688C18.3422 36.5375 16.2969 39.3266 13.5078 39.3266C10.9844 39.3266 9.65625 37.2281 9.65625 33.9078C9.65625 29.1 13.1891 25.1953 15.7922 25.1953C17.0406 25.1953 17.625 25.9922 17.625 27.2141C17.625 28.7016 16.8016 29.3656 16.8016 29.95C16.8016 30.1094 16.9344 30.2953 17.2266 30.2953C18.3688 30.2953 19.6969 28.9672 19.6969 27.1344C19.6969 25.3016 18.2625 24 15.6594 24C11.3297 24 7 28.3297 7 33.9078C7 38.3438 9.17812 41 12.95 41C15.5266 41 17.7844 39.0078 18.9797 36.6703C19.1125 38.6094 19.9891 39.6187 21.3438 39.6187C22.5391 39.6187 23.4953 38.9016 24.2391 37.6531C24.5313 38.9547 25.275 39.5922 26.2578 39.5922C27.3734 39.5922 28.3297 38.875 29.2062 37.5734C29.2062 38.6094 29.4188 39.5922 30.3219 39.5922C30.7469 39.5922 31.2516 39.4859 31.3312 39.1141C32.2875 35.2094 34.625 31.9953 35.3422 31.9953C35.5547 31.9953 35.6078 32.2078 35.6078 32.4469C35.6078 33.5094 34.8641 35.6875 34.8641 37.0688C34.8641 38.5828 35.5016 39.5656 36.8297 39.5656C38.2906 39.5656 39.7781 37.7859 40.7609 35.1562C41.0797 37.6 41.7437 39.5656 42.7797 39.5656C44.0547 39.5656 46.3656 36.8562 47.7469 33.9875C48.2781 34.0672 49.1016 34.0406 49.8984 33.4828C49.5531 34.3328 49.3672 35.2625 49.3672 36.1656C49.3672 38.8219 50.6422 39.5656 51.7312 39.5656C52.9266 39.5656 53.8828 38.8484 54.6266 37.6C54.8656 38.7156 55.5031 39.5391 56.6453 39.5391C58.425 39.5391 59.9922 37.7063 59.9922 36.1922C60.0188 35.8734 59.8328 35.6078 59.6469 35.6078ZM22.4594 38.1313C21.7422 38.1313 21.45 37.4141 21.45 36.325C21.45 34.4391 22.7516 31.2781 24.1063 31.2781C24.6906 31.2781 24.9297 31.9687 24.9297 32.8453C24.9297 34.7578 23.7078 38.1313 22.4594 38.1313ZM47.2422 32.5C46.8172 31.9953 46.6578 31.2781 46.6578 30.6672C46.6578 29.8969 46.95 29.2594 47.2688 29.2594C47.5875 29.2594 47.7203 29.5781 47.7203 30.0562C47.6938 30.8 47.4281 31.9422 47.2422 32.5ZM52.8469 38.1313C52.1297 38.1313 51.8375 37.2813 51.8375 36.325C51.8375 34.4922 53.1391 31.2781 54.4938 31.2781C55.0781 31.2781 55.2906 31.9687 55.2906 32.8453C55.3172 34.7578 54.1219 38.1313 52.8469 38.1313Z" fill="url(#paint4_radial_4642_60)"/>
<path d="M59.6469 35.6078C59.5672 35.6078 59.4875 35.6609 59.4344 35.7938C58.9031 37.3344 58.1594 38.2641 57.5484 38.2641C57.2031 38.2641 57.0703 37.8656 57.0703 37.2812C57.0703 35.7672 57.9734 32.5531 58.425 31.0656C58.4781 30.8797 58.5047 30.7203 58.5047 30.5875C58.5047 30.1625 58.2656 29.95 57.6813 29.95C57.0703 29.95 56.3797 30.1891 55.7422 31.3313C55.5297 30.3219 54.8391 29.8969 53.8828 29.8969C52.7938 29.8969 51.7313 30.6141 50.8547 31.7563C49.9781 32.8984 48.9422 33.2703 48.1719 33.0844C48.7297 31.7297 48.9422 30.6937 48.9422 29.95C48.9422 28.7547 48.3578 28.0375 47.4016 28.0375C45.9672 28.0375 45.1438 29.4187 45.1438 30.8531C45.1438 31.9687 45.6484 33.1109 46.7641 33.6688C45.8344 35.7672 44.4797 37.6797 43.9484 37.6797C43.2844 37.6797 43.0719 34.4125 43.125 32.075C43.1516 30.7469 43.2578 30.6672 43.2578 30.2688C43.2578 30.0297 43.0984 29.8703 42.4875 29.8703C41.0797 29.8703 40.6281 31.0656 40.575 32.4469C40.5484 32.9781 40.4688 33.4828 40.3359 33.9875C39.7516 36.0859 38.5297 37.7062 37.7328 37.7062C37.3609 37.7062 37.2547 37.3344 37.2547 36.8563C37.2547 35.3422 38.1047 33.4297 38.1047 31.8094C38.1047 30.6141 37.5734 29.8703 36.5906 29.8703C35.4219 29.8703 33.9078 31.2516 32.4469 33.8281C32.925 31.8625 33.1109 29.95 31.7031 29.95C31.3844 29.95 31.0922 30.0297 30.8266 30.1891C30.6406 30.2687 30.5344 30.4547 30.5344 30.6672C30.6672 32.7656 28.8344 38.1578 27.1078 38.1578C26.7891 38.1578 26.6297 37.8125 26.6297 37.2547C26.6297 35.7406 27.5328 32.5266 27.9844 31.0391C28.0375 30.8531 28.0641 30.6938 28.0641 30.5344C28.0641 30.1359 27.825 29.9234 27.2406 29.9234C26.6297 29.9234 25.9391 30.1625 25.3016 31.3047C25.0625 30.2953 24.3984 29.8703 23.4422 29.8703C21.875 29.8703 20.1484 31.5172 19.3781 33.6688C18.3422 36.5375 16.2969 39.3266 13.5078 39.3266C10.9844 39.3266 9.65625 37.2281 9.65625 33.9078C9.65625 29.1 13.1891 25.1953 15.7922 25.1953C17.0406 25.1953 17.625 25.9922 17.625 27.2141C17.625 28.7016 16.8016 29.3656 16.8016 29.95C16.8016 30.1094 16.9344 30.2953 17.2266 30.2953C18.3688 30.2953 19.6969 28.9672 19.6969 27.1344C19.6969 25.3016 18.2625 24 15.6594 24C11.3297 24 7 28.3297 7 33.9078C7 38.3438 9.17812 41 12.95 41C15.5266 41 17.7844 39.0078 18.9797 36.6703C19.1125 38.6094 19.9891 39.6187 21.3438 39.6187C22.5391 39.6187 23.4953 38.9016 24.2391 37.6531C24.5313 38.9547 25.275 39.5922 26.2578 39.5922C27.3734 39.5922 28.3297 38.875 29.2062 37.5734C29.2062 38.6094 29.4188 39.5922 30.3219 39.5922C30.7469 39.5922 31.2516 39.4859 31.3312 39.1141C32.2875 35.2094 34.625 31.9953 35.3422 31.9953C35.5547 31.9953 35.6078 32.2078 35.6078 32.4469C35.6078 33.5094 34.8641 35.6875 34.8641 37.0688C34.8641 38.5828 35.5016 39.5656 36.8297 39.5656C38.2906 39.5656 39.7781 37.7859 40.7609 35.1562C41.0797 37.6 41.7437 39.5656 42.7797 39.5656C44.0547 39.5656 46.3656 36.8562 47.7469 33.9875C48.2781 34.0672 49.1016 34.0406 49.8984 33.4828C49.5531 34.3328 49.3672 35.2625 49.3672 36.1656C49.3672 38.8219 50.6422 39.5656 51.7312 39.5656C52.9266 39.5656 53.8828 38.8484 54.6266 37.6C54.8656 38.7156 55.5031 39.5391 56.6453 39.5391C58.425 39.5391 59.9922 37.7063 59.9922 36.1922C60.0188 35.8734 59.8328 35.6078 59.6469 35.6078ZM22.4594 38.1313C21.7422 38.1313 21.45 37.4141 21.45 36.325C21.45 34.4391 22.7516 31.2781 24.1063 31.2781C24.6906 31.2781 24.9297 31.9687 24.9297 32.8453C24.9297 34.7578 23.7078 38.1313 22.4594 38.1313ZM47.2422 32.5C46.8172 31.9953 46.6578 31.2781 46.6578 30.6672C46.6578 29.8969 46.95 29.2594 47.2688 29.2594C47.5875 29.2594 47.7203 29.5781 47.7203 30.0562C47.6938 30.8 47.4281 31.9422 47.2422 32.5ZM52.8469 38.1313C52.1297 38.1313 51.8375 37.2813 51.8375 36.325C51.8375 34.4922 53.1391 31.2781 54.4938 31.2781C55.0781 31.2781 55.2906 31.9687 55.2906 32.8453C55.3172 34.7578 54.1219 38.1313 52.8469 38.1313Z" fill="url(#paint5_radial_4642_60)"/>
<defs>
<linearGradient id="paint0_linear_4642_60" x1="59.432" y1="41.2936" x2="15.3285" y2="30.7978" gradientUnits="userSpaceOnUse">
<stop stop-color="#7D2AE7"/>
<stop offset="0.7708" stop-color="#7D2AE7"/>
<stop offset="1" stop-color="#7D2AE7" stop-opacity="0"/>
</linearGradient>
<radialGradient id="paint1_radial_4642_60" cx="0" cy="0" r="1" gradientUnits="userSpaceOnUse" gradientTransform="translate(34.1422 42.8437) rotate(-45.8069) scale(15.9694 10.613)">
<stop stop-color="#6420FF"/>
<stop offset="1" stop-color="#6420FF" stop-opacity="0"/>
</radialGradient>
<radialGradient id="paint2_radial_4642_60" cx="0" cy="0" r="1" gradientUnits="userSpaceOnUse" gradientTransform="translate(8.26879 35.3221) rotate(5.08826) scale(31.0797 24.7712)">
<stop offset="0.25" stop-color="#00C4CC"/>
<stop offset="1" stop-color="#00C4CC" stop-opacity="0"/>
</radialGradient>
<radialGradient id="paint3_radial_4642_60" cx="0" cy="0" r="1" gradientUnits="userSpaceOnUse" gradientTransform="translate(29.6256 40.9873) rotate(-38.8493) scale(20.0282 13.6946)">
<stop stop-color="#6420FF"/>
<stop offset="1" stop-color="#6420FF" stop-opacity="0"/>
</radialGradient>
<radialGradient id="paint4_radial_4642_60" cx="0" cy="0" r="1" gradientUnits="userSpaceOnUse" gradientTransform="translate(9.96998 43.9541) rotate(-34.2673) scale(23.3481 15.9647)">
<stop stop-color="#6420FF"/>
<stop offset="1" stop-color="#6420FF" stop-opacity="0"/>
</radialGradient>
<radialGradient id="paint5_radial_4642_60" cx="0" cy="0" r="1" gradientUnits="userSpaceOnUse" gradientTransform="translate(12.1012 25.5577) rotate(12.4717) scale(46.1465 56.597)">
<stop stop-color="#00C4CC"/>
<stop offset="1" stop-color="#00C4CC" stop-opacity="0"/>
</radialGradient>
</defs>
</svg>
