<svg width="66" height="66" viewBox="0 0 66 66" fill="none" xmlns="http://www.w3.org/2000/svg">
<circle cx="32.9183" cy="32.9183" r="32.9183" fill="#F5F5F5"/>
<path d="M38.3398 15.2812C37.6581 15.2812 37.1035 15.8415 37.1035 16.5297C37.1035 17.2181 37.6581 17.7784 38.3398 17.7784C39.0212 17.7784 39.5758 17.2181 39.5758 16.5297C39.5758 15.8415 39.0212 15.2812 38.3398 15.2812Z" fill="#111111"/>
<path d="M38.3398 26.7891C37.6581 26.7891 37.1035 27.3492 37.1035 28.0375C37.1035 28.7259 37.6581 29.286 38.3398 29.286C39.0212 29.286 39.5758 28.7259 39.5758 28.0375C39.5758 27.3492 39.0212 26.7891 38.3398 26.7891Z" fill="#111111"/>
<path d="M44.1484 15.2812C43.4669 15.2812 42.9121 15.8415 42.9121 16.5297C42.9121 17.2181 43.4669 17.7784 44.1484 17.7784C44.83 17.7784 45.3846 17.2181 45.3846 16.5297C45.3846 15.8415 44.83 15.2812 44.1484 15.2812Z" fill="#111111"/>
<path d="M44.1482 26.7891C43.4667 26.7891 42.9121 27.3492 42.9121 28.0375C42.9121 28.7259 43.4667 29.286 44.1482 29.286C44.8298 29.286 45.3844 28.7259 45.3844 28.0375C45.3844 27.3492 44.8298 26.7891 44.1482 26.7891Z" fill="#111111"/>
<path d="M49.8554 15.2812C49.1739 15.2812 48.6191 15.8415 48.6191 16.5297C48.6191 17.2181 49.1739 17.7784 49.8554 17.7784C50.5369 17.7784 51.0917 17.2181 51.0917 16.5297C51.0995 15.8415 50.5449 15.2812 49.8554 15.2812Z" fill="#111111"/>
<path d="M49.8573 26.7891C49.1759 26.7891 48.6211 27.3492 48.6211 28.0375C48.6211 28.7259 49.1759 29.286 49.8573 29.286C50.5388 29.286 51.0936 28.7259 51.0936 28.0375C51.0936 27.3492 50.5468 26.7891 49.8573 26.7891Z" fill="#111111"/>
<path d="M38.3398 21.0352C37.6581 21.0352 37.1035 21.5954 37.1035 22.2838C37.1035 22.972 37.6581 23.5323 38.3398 23.5323C39.0212 23.5323 39.5758 22.972 39.5758 22.2838C39.5758 21.5954 39.0212 21.0352 38.3398 21.0352Z" fill="#111111"/>
<path d="M44.1482 21.0352C43.4667 21.0352 42.9121 21.5954 42.9121 22.2838C42.9121 22.972 43.4667 23.5323 44.1482 23.5323C44.8298 23.5323 45.3844 22.972 45.3844 22.2838C45.3844 21.5954 44.8298 21.0352 44.1482 21.0352Z" fill="#111111"/>
<path d="M49.8573 21.0352C49.1759 21.0352 48.6211 21.5954 48.6211 22.2838C48.6211 22.972 49.1759 23.5323 49.8573 23.5323C50.5388 23.5323 51.0936 22.972 51.0936 22.2838C51.1015 21.5954 50.5468 21.0352 49.8573 21.0352Z" fill="#111111"/>
<path fill-rule="evenodd" clip-rule="evenodd" d="M15.25 22.2495C15.25 18.2522 18.4904 15.0117 22.4879 15.0117C26.4852 15.0117 29.7257 18.2522 29.7257 22.2495V42.3818C29.7257 46.3791 26.4852 49.6196 22.4879 49.6196C18.4904 49.6196 15.25 46.3791 15.25 42.3818V22.2495ZM17.3195 42.1549C17.3859 39.2614 19.757 36.969 22.6098 37.0364C25.4681 37.1037 27.7282 39.5085 27.6563 42.4022C27.5897 45.2958 25.2188 47.5882 22.366 47.5206C19.5132 47.4533 17.2531 45.0485 17.3195 42.1549ZM20.7626 44.1548H24.2193V40.6488H20.7626V44.1548ZM22.7201 17.2362C25.5744 17.3063 27.8361 19.7102 27.7717 22.6055C27.7072 25.5007 25.3409 27.7909 22.4865 27.7208C19.6322 27.6506 17.3704 25.2467 17.4349 22.3515C17.4993 19.4561 19.8656 17.1659 22.7201 17.2362Z" fill="#111111"/>
<path fill-rule="evenodd" clip-rule="evenodd" d="M36.5117 34.5977V49.9882H51.7505V34.5977H36.5117ZM48.6542 45.7623H39.6124V43.8575H48.6542V45.7623ZM39.6124 40.7203H48.6542V38.8156H39.6124V40.7203Z" fill="#111111"/>
</svg>
