<svg width="66" height="66" viewBox="0 0 66 66" fill="none" xmlns="http://www.w3.org/2000/svg">
<circle cx="32.9183" cy="32.9183" r="32.9183" fill="#F5F5F5"/>
<path fill-rule="evenodd" clip-rule="evenodd" d="M45.2862 11H16.5331C15.1339 11 14 12.1415 14 13.5502V51.4498C14 52.8585 15.1339 54 16.5331 54C23.4417 54 42.5583 54 49.4669 54C50.1388 54 50.783 53.731 51.2575 53.2534C51.7328 52.7748 52 52.1263 52 51.4498C52 43.1956 52 17.7367 52 17.7367L45.2862 11Z" fill="#A544C5"/>
<path d="M35.248 25.1508C33.2356 25.1508 31.5481 25.8294 30.1845 27.1875C28.8218 28.5455 28.1404 30.5036 28.1404 33.0616C28.1404 35.5969 28.7983 37.5349 30.113 38.8737C31.4278 40.2135 33.1352 40.8839 35.2345 40.8839C36.4705 40.8839 37.5156 40.7158 38.3707 40.3816C39.2248 40.0464 39.9777 39.6692 40.6264 39.2482C41.0508 39.513 41.3856 39.8235 41.6317 40.177C41.8769 40.5304 42 40.9624 42 41.472C42 42.4848 41.3458 43.326 40.0374 43.9954C38.7281 44.6657 37.0333 45 34.953 45C32.6212 45 30.5537 44.5616 28.7485 43.6831C26.9433 42.8054 25.5336 41.4793 24.5201 39.7057C23.5067 37.9312 23 35.7175 23 33.0616C23 30.3848 23.5339 28.1528 24.6016 26.3673C25.6693 24.5819 27.1044 23.2412 28.905 22.3443C30.7057 21.4475 32.6755 21 34.8164 21C36.8795 21 38.5534 21.3607 39.8392 22.0841C41.1259 22.8065 41.7684 23.6668 41.7684 24.665C41.7684 25.1152 41.648 25.5198 41.4064 25.8778C41.1639 26.2358 40.8635 26.5272 40.5025 26.7518C39.8437 26.3308 39.1027 25.9591 38.2775 25.6358C37.4522 25.3125 36.4424 25.1508 35.248 25.1508Z" fill="white"/>
<path d="M45 17.2046C45 17.4158 45.0829 17.6177 45.232 17.7673C45.3801 17.9159 45.5813 18 45.7919 18C47.6243 18 52 18 52 18L45 11V17.2046Z" fill="#E8A4FF"/>
</svg>
