<svg width="66" height="66" viewBox="0 0 66 66" fill="none" xmlns="http://www.w3.org/2000/svg">
<circle cx="32.9183" cy="32.9183" r="32.9183" fill="#F5F5F5"/>
<g clip-path="url(#clip0_232_44)">
<path d="M45.4 11H19.6C14.8504 11 11 14.8504 11 19.6V45.4C11 50.1497 14.8504 54 19.6 54H45.4C50.1497 54 54 50.1497 54 45.4V19.6C54 14.8504 50.1497 11 45.4 11Z" fill="#61C5CA"/>
<path d="M40.756 21.32C38.9292 20.5898 36.9513 20.3184 34.9954 20.5295C33.0394 20.7406 31.165 21.4278 29.5361 22.5309C27.9071 23.6341 26.5733 25.1196 25.6514 26.8574C24.7294 28.5953 24.2473 30.5327 24.2473 32.5C24.2473 34.4673 24.7294 36.4046 25.6514 38.1425C26.5733 39.8804 27.9071 41.3659 29.5361 42.4691C31.165 43.5722 33.0394 44.2594 34.9954 44.4705C36.9513 44.6816 38.9292 44.4102 40.756 43.68" stroke="white" stroke-width="7" stroke-linecap="round"/>
</g>
<defs>
<clipPath id="clip0_232_44">
<rect width="43" height="43" fill="white" transform="translate(11 11)"/>
</clipPath>
</defs>
</svg>
