<svg width="66" height="66" viewBox="0 0 66 66" fill="none" xmlns="http://www.w3.org/2000/svg">
<circle cx="32.9183" cy="32.9183" r="32.9183" fill="#F5F5F5"/>
<path d="M51.3167 34.2381C50.5885 33.0706 49.3656 32.309 48.0036 32.1712C46.577 32.0209 45.1851 30.5953 44.355 29.27L43.9946 28.6938L41.8074 25.1663L41.452 24.5875C40.6342 23.2547 39.9731 21.3682 40.4652 20.0103C40.94 18.7175 40.7958 17.2745 40.075 16.102C39.4909 15.1399 38.5614 14.4409 37.4802 14.1503H37.4727C37.4081 14.1328 37.3435 14.1178 37.2764 14.1027C36.9707 14.0351 36.6575 14 36.3444 14C35.8721 14 35.4049 14.0777 34.96 14.2305L34.945 14.2355C34.8879 14.2555 34.8307 14.2756 34.776 14.2981C34.7338 14.3132 34.694 14.3332 34.6518 14.3507L34.6194 14.3658C34.5747 14.3858 34.53 14.4059 34.4852 14.4284L34.4728 14.4359C34.3759 14.4835 34.2789 14.5336 34.1845 14.5888C34.1447 14.6113 34.105 14.6364 34.0677 14.6589L34.0503 14.6689L34.008 14.6965C33.9757 14.7165 33.9459 14.7366 33.9136 14.7566C33.8266 14.8167 33.7421 14.8794 33.6601 14.9445L33.6352 14.9646C33.6004 14.9921 33.5656 15.0222 33.5308 15.0497L33.4861 15.0873C33.4587 15.1124 33.4289 15.1374 33.4016 15.1625C33.3544 15.2051 33.3096 15.2502 33.2649 15.2953C32.9293 15.636 32.6535 16.0268 32.4447 16.4577C32.308 16.7408 32.2011 17.0415 32.1265 17.3471C32.1091 17.4148 32.0967 17.4824 32.0818 17.5526C31.8656 18.6624 32.0818 19.8124 32.6858 20.7619C33.414 21.9294 34.6368 22.691 35.9989 22.8288C37.4255 22.9791 38.8174 24.4047 39.6475 25.73L40.0079 26.3062L42.1926 29.8312L42.548 30.4099C43.3658 31.7428 44.0269 33.6293 43.5348 34.9872C43.06 36.2799 43.2042 37.723 43.925 38.8955C44.5091 39.8576 45.4386 40.5566 46.5198 40.8472H46.5223C46.5894 40.8647 46.6565 40.8823 46.7236 40.8973C47.0293 40.9649 47.3425 41 47.6556 41C48.1304 41 48.6001 40.9198 49.05 40.767C49.1096 40.7445 49.1693 40.7244 49.2265 40.7019C49.2612 40.6893 49.296 40.6743 49.3308 40.6593L49.3855 40.6367C49.4278 40.6192 49.4675 40.5991 49.5073 40.5816L49.5371 40.5666C49.6316 40.5215 49.726 40.4714 49.818 40.4188C49.8503 40.3987 49.8826 40.3812 49.9124 40.3611L49.9547 40.3361L49.9721 40.3261C50.0119 40.301 50.0491 40.276 50.0864 40.2509C50.1784 40.1883 50.2654 40.1231 50.3499 40.0555L50.3623 40.0455C50.3996 40.0154 50.4394 39.9828 50.4766 39.9503L50.504 39.9277C50.5388 39.8977 50.5711 39.8676 50.6034 39.8375C50.6481 39.7974 50.6904 39.7548 50.7326 39.7123L50.7451 39.6997C51.0781 39.3615 51.3515 38.9732 51.5578 38.5448C51.6945 38.2617 51.8014 37.961 51.8759 37.6554C51.8909 37.5902 51.9058 37.5226 51.9182 37.4575V37.4499C52.1344 36.3426 51.9182 35.1926 51.3142 34.2431L51.3167 34.2381Z" fill="url(#paint0_linear_4818_31)"/>
<path d="M46.2918 45.2935C45.537 44.1356 44.2695 43.3802 42.8577 43.2436C41.379 43.0945 39.9364 41.6806 39.0759 40.3662L38.7024 39.7947L29.1654 25.0747L28.797 24.5008C27.9494 23.1788 27.2641 21.3078 27.7742 19.961C28.2663 18.6789 28.1169 17.2476 27.3698 16.0847C26.7644 15.1306 25.8009 14.4373 24.6802 14.1491H24.6725C24.6055 14.1317 24.5386 14.1168 24.469 14.1019C24.1521 14.0348 23.8275 14 23.5029 14C23.0135 14 22.5291 14.077 22.068 14.2286L22.0525 14.2336C21.9933 14.2534 21.934 14.2733 21.8774 14.2957C21.8336 14.3106 21.7923 14.3305 21.7486 14.3479L21.7151 14.3628C21.6687 14.3827 21.6223 14.4025 21.5759 14.4249L21.5631 14.4324C21.4626 14.4796 21.3621 14.5293 21.2642 14.5839C21.223 14.6063 21.1818 14.6311 21.1432 14.6535L21.1251 14.6634L21.0813 14.6908C21.0478 14.7107 21.0169 14.7305 20.9834 14.7504C20.8933 14.81 20.8057 14.8722 20.7207 14.9368L20.6949 14.9566C20.6588 14.984 20.6228 15.0138 20.5867 15.0411L20.5403 15.0784C20.512 15.1032 20.4811 15.1281 20.4527 15.1529C20.4038 15.1952 20.3574 15.2399 20.311 15.2846C19.9633 15.6226 19.6773 16.0102 19.4609 16.4376C19.3192 16.7184 19.2084 17.0165 19.1312 17.3197C19.1131 17.3868 19.1002 17.4539 19.0848 17.5234C18.8607 18.6242 19.0848 19.7647 19.7108 20.7065C20.4656 21.8644 21.7331 22.6198 23.1448 22.7564C24.6236 22.9055 26.0662 24.3194 26.9267 25.6338L27.3002 26.2053L36.8346 40.9228L37.203 41.4968C38.0506 42.8187 38.7359 44.6897 38.2258 46.0365C37.7337 47.3186 37.8831 48.7499 38.6302 49.9128C39.2356 50.8669 40.1991 51.5602 41.3198 51.8484H41.3223C41.3919 51.8658 41.4614 51.8832 41.531 51.8981C41.8479 51.9652 42.1725 52 42.4971 52C42.9891 52 43.476 51.9205 43.9423 51.7689C44.0041 51.7466 44.066 51.7267 44.1252 51.7043C44.1613 51.6919 44.1973 51.677 44.2334 51.6621L44.2901 51.6397C44.3339 51.6223 44.3751 51.6024 44.4163 51.585L44.4472 51.5701C44.5451 51.5254 44.643 51.4757 44.7383 51.4235C44.7718 51.4037 44.8053 51.3863 44.8362 51.3664L44.88 51.3415L44.8981 51.3316C44.9393 51.3067 44.9779 51.2819 45.0166 51.257C45.1119 51.1949 45.2021 51.1303 45.2896 51.0632L45.3025 51.0533C45.3412 51.0235 45.3824 50.9912 45.421 50.9589L45.4494 50.9365C45.4854 50.9067 45.5189 50.8769 45.5524 50.8471C45.5988 50.8073 45.6426 50.7651 45.6864 50.7228L45.6993 50.7104C46.0445 50.3749 46.3278 49.9898 46.5417 49.5649C46.6834 49.2841 46.7941 48.9859 46.8714 48.6828C46.8869 48.6182 46.9023 48.5511 46.9152 48.4865V48.479C47.1393 47.3808 46.9152 46.2402 46.2892 45.2985L46.2918 45.2935Z" fill="url(#paint1_linear_4818_31)"/>
<path d="M33.3167 45.2362C32.5885 44.0688 31.3656 43.3073 30.0036 43.1695C28.577 43.0192 27.1851 41.5938 26.355 40.2686L25.9946 39.6924L23.8074 36.1652L23.452 35.5866C22.6342 34.2539 21.9731 32.3675 22.4652 31.0097C22.94 29.7171 22.7958 28.2742 22.075 27.1018C21.4909 26.1398 20.5614 25.4409 19.4802 25.1503H19.4727C19.4081 25.1328 19.3435 25.1177 19.2764 25.1027C18.9707 25.0351 18.6575 25 18.3444 25C17.8721 25 17.4049 25.0777 16.96 25.2305L16.945 25.2355C16.8879 25.2555 16.8307 25.2756 16.776 25.2981C16.7338 25.3131 16.694 25.3332 16.6518 25.3507L16.6194 25.3657C16.5747 25.3858 16.53 25.4058 16.4852 25.4284L16.4728 25.4359C16.3759 25.4835 16.2789 25.5336 16.1845 25.5887C16.1447 25.6112 16.105 25.6363 16.0677 25.6588L16.0503 25.6689L16.008 25.6964C15.9757 25.7165 15.9459 25.7365 15.9136 25.7565C15.8266 25.8167 15.7421 25.8793 15.6601 25.9444L15.6352 25.9645C15.6004 25.992 15.5656 26.0221 15.5308 26.0496L15.4861 26.0897C15.4587 26.1148 15.4289 26.1398 15.4016 26.1649C15.3544 26.2075 15.3096 26.2526 15.2649 26.2976C14.9293 26.6383 14.6535 27.0291 14.4447 27.46C14.308 27.7431 14.2011 28.0437 14.1265 28.3493C14.1091 28.417 14.0967 28.4846 14.0818 28.5547C13.8656 29.6645 14.0818 30.8143 14.6858 31.7638C15.414 32.9312 16.6368 33.6927 17.9989 33.8305C19.4255 33.9808 20.8174 35.4062 21.6475 36.7314L22.0079 37.3076L24.1926 40.8323L24.548 41.4109C25.3658 42.7436 26.0269 44.63 25.5348 45.9878C25.06 47.2804 25.2042 48.7233 25.925 49.8957C26.5091 50.8577 27.4386 51.5566 28.5198 51.8472H28.5223C28.5894 51.8647 28.6565 51.8823 28.7236 51.8973C29.0293 51.9649 29.3425 52 29.6556 52C30.1304 52 30.6001 51.9198 31.05 51.767C31.1096 51.7445 31.1693 51.7244 31.2265 51.7019C31.2613 51.6894 31.296 51.6743 31.3308 51.6593L31.3855 51.6368C31.4278 51.6192 31.4675 51.5992 31.5073 51.5816L31.5371 51.5666C31.6316 51.5215 31.726 51.4714 31.818 51.4188C31.8503 51.3988 31.8826 51.3812 31.9124 51.3612L31.9547 51.3361L31.9721 51.3261C32.0119 51.3011 32.0491 51.276 32.0864 51.251C32.1784 51.1883 32.2654 51.1232 32.3499 51.0556L32.3623 51.0456C32.3996 51.0155 32.4394 50.9829 32.4766 50.9504L32.504 50.9278C32.5388 50.8978 32.5711 50.8677 32.6034 50.8376C32.6481 50.7976 32.6904 50.755 32.7326 50.7124L32.7451 50.6999C33.0781 50.3617 33.3515 49.9734 33.5578 49.545C33.6945 49.2619 33.8014 48.9613 33.8759 48.6557C33.8909 48.5906 33.9058 48.5229 33.9182 48.4578V48.4503C34.1344 47.343 33.9182 46.1932 33.3142 45.2437L33.3167 45.2362Z" fill="url(#paint2_linear_4818_31)"/>
<defs>
<linearGradient id="paint0_linear_4818_31" x1="20.9445" y1="14.2405" x2="65.7648" y2="42.0244" gradientUnits="userSpaceOnUse">
<stop offset="0.04" stop-color="#50BFEE"/>
<stop offset="0.9" stop-color="#4C2B6E"/>
</linearGradient>
<linearGradient id="paint1_linear_4818_31" x1="15.2643" y1="22.3116" x2="60.5589" y2="51.6592" gradientUnits="userSpaceOnUse">
<stop offset="0.04" stop-color="#50BFEE"/>
<stop offset="0.9" stop-color="#4C2B6E"/>
</linearGradient>
<linearGradient id="paint2_linear_4818_31" x1="10.8333" y1="30.2056" x2="55.6513" y2="57.9906" gradientUnits="userSpaceOnUse">
<stop offset="0.04" stop-color="#50BFEE"/>
<stop offset="0.9" stop-color="#4C2B6E"/>
</linearGradient>
</defs>
</svg>
