<svg width="66" height="66" viewBox="0 0 66 66" fill="none" xmlns="http://www.w3.org/2000/svg">
<circle cx="32.9183" cy="32.9183" r="32.9183" fill="#F5F5F5"/>
<path d="M11.0296 30.9857C11.1683 32.2038 11.7519 33.3278 12.6684 34.1421C13.5849 34.9564 14.7698 35.4036 15.9958 35.398C16.752 35.3969 17.4988 35.2299 18.1834 34.9088L26.8419 44.8503C26.2803 45.6393 25.9598 46.5743 25.9192 47.5418C25.8786 48.5094 26.1196 49.468 26.6131 50.3012C27.1067 51.1344 27.8314 51.8065 28.6994 52.2359C29.5674 52.6654 30.5414 52.8336 31.5031 52.7203C32.4649 52.607 33.3731 52.2171 34.1176 51.5977C34.8621 50.9784 35.4108 50.1562 35.6972 49.2311C35.9835 48.306 35.9953 47.3177 35.731 46.3861C35.4666 45.4544 34.9376 44.6195 34.2081 43.9826L47.6388 22.6411C48.6718 23.0589 49.8147 23.12 50.8863 22.8145C51.9579 22.5091 52.8969 21.8547 53.5543 20.955C54.2118 20.0554 54.5501 18.962 54.5156 17.8483C54.4811 16.7345 54.0758 15.6642 53.364 14.8069C52.6521 13.9496 51.6745 13.3546 50.586 13.116C49.4976 12.8775 48.3607 13.0091 47.3555 13.49C46.3504 13.971 45.5345 14.7737 45.0374 15.7709C44.5403 16.7681 44.3902 17.9028 44.6111 18.9949L20.3896 28.0319C19.8438 27.0012 18.9538 26.1946 17.8746 25.7524C16.7954 25.3102 15.5953 25.2604 14.4832 25.6117C13.371 25.963 12.4173 26.6932 11.788 27.6751C11.1586 28.657 10.8936 29.8285 11.0388 30.9857H11.0296ZM19.9927 33.3857C20.4097 32.8302 20.7029 32.1918 20.8525 31.5135C21.0022 30.8353 21.0049 30.1328 20.8604 29.4534L21.3496 29.278L21.4881 29.2411L45.0542 20.4165C45.3681 20.9703 45.7927 21.4595 46.2727 21.8749L32.8511 43.1796C32.0343 42.8216 31.1368 42.6876 30.251 42.7915C29.3652 42.8953 28.5231 43.2332 27.8111 43.7703L19.4111 34.0411C19.6142 33.8288 19.8173 33.6257 19.9927 33.3857Z" fill="#363E64"/>
</svg>
