<svg width="66" height="66" viewBox="0 0 66 66" fill="none" xmlns="http://www.w3.org/2000/svg">
<circle cx="32.9183" cy="32.9183" r="32.9183" fill="#F5F5F5"/>
<path fill-rule="evenodd" clip-rule="evenodd" d="M19.4243 24.023C19.4916 20.5071 20.899 17.1585 23.3443 14.6964C25.7896 12.2344 29.0778 10.8552 32.5025 10.8552C35.9273 10.8552 39.2154 12.2344 41.6607 14.6964C44.106 17.1585 45.5135 20.5071 45.5807 24.023V34.4179L32.5 42.3411L19.4243 34.4179V24.023ZM32.5 4C27.3283 4 22.3684 6.10956 18.7114 9.8646C15.0545 13.6196 13 18.7126 13 24.023V38.1852L32.5 50L52 38.1852V24.023C52 18.7126 49.9455 13.6196 46.2886 9.8646C42.6316 6.10956 37.6717 4 32.5 4Z" fill="black"/>
<path d="M12 49.8672V42L32.5 54.1328L53 42V49.8672L32.5 62L12 49.8672Z" fill="black"/>
</svg>
