<svg width="65" height="62" viewBox="0 0 65 62" fill="none" xmlns="http://www.w3.org/2000/svg">
<circle cx="32" cy="31" r="31" fill="#F5F5F5"/>
<g clip-path="url(#clip0_1614_59)">
<path d="M24.599 31.0017L48 25.3308V13H35.8653L24.599 31.0017Z" fill="#FF3300"/>
<path d="M13 30.7849C12.9989 32.2267 13.1706 33.6634 13.5112 35.0638L24.5973 31.0013L13.4195 26.9022C13.1412 28.1763 13.0005 29.477 13 30.7816V30.7849Z" fill="#FF3300"/>
<path d="M17.1228 19.3197L24.5944 31.0012L28.0385 13.176C23.7701 13.7931 19.8807 15.9822 17.1228 19.3197Z" fill="#FF3300"/>
<path d="M24.599 31.0016L48 36.6693V49H35.8653L24.599 31.0016Z" fill="#FF3300"/>
<path d="M17.1235 42.6793L24.5951 30.9978L28.036 48.8197C23.7676 48.2025 19.8782 46.0134 17.1202 42.676L17.1235 42.6793Z" fill="#FF3300"/>
</g>
<defs>
<clipPath id="clip0_1614_59">
<rect width="35" height="36" fill="white" transform="translate(13 13)"/>
</clipPath>
</defs>
</svg>
