<svg width="66" height="66" viewBox="0 0 66 66" fill="none" xmlns="http://www.w3.org/2000/svg">
<circle cx="32.9183" cy="32.9183" r="32.9183" fill="#F5F5F5"/>
<svg x="9" y="27" width="48" height="12.72" viewBox="0 0 1000 265" preserveAspectRatio="xMidYMid meet" fill-rule="evenodd">
<path fill="#F47621" d="M26.8,242.1c-11.2-10.4-17-25.1-17-44.2V67.1c0-18.9,5.6-33.6,17-44S54.6,7.5,76.2,7.3s38,5.2,49.4,15.6,17,25.1,17,44.2V85.8a6.1,6.1,0,0,1-6.2,6.2H106.1a6.1,6.1,0,0,1-6.2-6.2v-21c0-14.9-7.5-22.6-22.5-22.6S55,49.7,54.8,64.8V200.6c0,14.7,7.5,22.2,22.6,22.2s22.5-7.5,22.5-22.2V169.7a6.1,6.1,0,0,1,6.2-6.3h30.1a6.1,6.1,0,0,1,6.2,6.3v28.2c0,19.1-5.6,33.6-17,44.2S97.6,257.7,76,257.7s-38-5.2-49.2-15.6"/>
<path fill="#F47621" d="M185.4,11.1H218a6.1,6.1,0,0,1,6.2,6.2v92.8h48.4V17.3a6.1,6.1,0,0,1,6.2-6.2h32.6a6.1,6.1,0,0,1,6.2,6.2V247.9a6.1,6.1,0,0,1-6.2,6.2H278.8a6.1,6.1,0,0,1-6.2-6.2V144.7H224.2V247.9a6.1,6.1,0,0,1-6.2,6.2H185.4a6.1,6.1,0,0,1-6.3-6.2V17.3a6.3,6.3,0,0,1,6.3-6.2"/>
<path fill="#F47621" d="M400.8,11.1h50.7a6.2,6.2,0,0,1,6.2,4.9l44.2,230.7a6.1,6.1,0,0,1-4.9,7.2l-1.3.2H463.5a6,6,0,0,1-6.2-5.1L450,205.8v.6H399l-7.3,42.3a6.1,6.1,0,0,1-6.2,5.2H356.4a6.2,6.2,0,0,1-6.2-6.2,2.5,2.5,0,0,1,.2-1.2L394.8,15.8a6.2,6.2,0,0,1,6-4.7m44.1,162.5L424.7,79.8h-.8l-19.7,93.8Z"/>
<path fill="#F47621" d="M542.8,241.9c-11.2-10.6-16.8-25.5-16.8-45.3V189a6.1,6.1,0,0,1,6.2-6.3h30.1a6.2,6.2,0,0,1,6.3,6.3v5.8c0,15.8,7.7,23.6,23.2,23.6,7.7,0,13.5-1.8,17.5-5.8s6-9.9,6-18.7-2.7-14.5-8.1-22.2-15.6-17-30.3-28c-18.5-13.9-31.6-26.4-38.8-37.8a66.4,66.4,0,0,1-11-38c0-19.3,5.8-34,17.2-44.6s28-15.8,50-15.8,37.8,5.2,49,15.8,16.6,25.8,16.6,45.3v3.7a6.1,6.1,0,0,1-6.2,6.2H623.6a6.1,6.1,0,0,1-6.2-6.2V70.6c0-8.3-1.9-14.3-5.9-18.2s-9.3-5.8-16.8-5.8c-14.9,0-22.4,7.6-22.4,23.2,0,8.7,2.7,12.3,8.3,19.9s15.8,16.9,30.5,27.9q28.4,20.8,38.8,37.7a73.4,73.4,0,0,1,10.6,39.9c0,19.9-5.8,35.3-17.4,45.9S614.7,257,592.4,257s-38.6-4.5-49.6-15.1"/>
<path fill="#F47621" d="M702.1,11.1H812.5a6.1,6.1,0,0,1,6.2,6.2V39.5a6.1,6.1,0,0,1-6.2,6.2H740.9v64.4h55.6a6.1,6.1,0,0,1,6.2,6.2v22.4a6.1,6.1,0,0,1-6.2,6.3H740.9v74.7h71.6a6.1,6.1,0,0,1,6.2,6.2v22.2a6.1,6.1,0,0,1-6.2,6.3H702.1a6.2,6.2,0,0,1-6.3-6.3V17.3a6.1,6.1,0,0,1,6.3-6.2"/>
<path fill="#F47621" d="M854.2,17.3a6.1,6.1,0,0,1,6.2-6.2h60.7c23.2,0,40,4.5,50.8,13.7s16,23.2,16,42.1V81.8q0,38.1-29.5,48v.6c11,2.7,18.7,8.5,23.1,17s6.8,20,6.6,34.5v42.8a157.4,157.4,0,0,0,.8,16.8,17.5,17.5,0,0,0,1.1,4.8,6.1,6.1,0,0,1-4.4,7.6,4.7,4.7,0,0,1-1.7.2H951.6a5.9,5.9,0,0,1-5.8-4.1,34.8,34.8,0,0,1-1.7-6.9,144.7,144.7,0,0,1-.8-18.6V179.8c0-11-2.1-18.9-6.5-23.2s-11.6-6.7-21.8-6.7H899.5v98a6.1,6.1,0,0,1-6.3,6.2H860.6a6.1,6.1,0,0,1-6.2-6.2V17.3Zm61.5,98c8.9,0,15.7-1.9,20.3-5.8s6.8-10.6,6.8-19.8V71.1c0-8.8-1.8-15.2-5.6-19.1s-9.5-5.9-17.4-5.9H899.3v69.4h16.4Z"/>
</svg>
</svg>
