<svg width="66" height="66" viewBox="0 0 66 66" fill="none" xmlns="http://www.w3.org/2000/svg">
<circle cx="32.9183" cy="32.9183" r="32.9183" fill="#F5F5F5"/>
<mask id="mask0_268_67" style="mask-type:luminance" maskUnits="userSpaceOnUse" x="11" y="11" width="28" height="41">
<path d="M11 33.0181C11 37.4798 12.3421 41.7238 14.845 45.3875C18.4361 50.6834 25.1105 53.0412 31.3858 51.4089C35.3396 50.357 38.9307 46.258 38.8219 41.9777C38.7131 36.2465 33.2721 34.2877 28.7741 32.5829C25.0379 31.1682 21.5556 26.5251 21.9547 22.4262C22.6439 15.2077 30.7692 12.85 37.5523 11.4716C36.1014 11.1814 34.5779 11 33.0181 11C20.8664 11 11 20.8664 11 33.0181Z" fill="white"/>
</mask>
<g mask="url(#mask0_268_67)">
<path d="M38.8945 11H11V53.0412H38.8945V11Z" fill="url(#paint0_linear_268_67)"/>
</g>
<mask id="mask1_268_67" style="mask-type:luminance" maskUnits="userSpaceOnUse" x="25" y="16" width="30" height="39">
<path d="M36.4279 16.296C33.5985 16.5862 29.9712 17.8195 27.8673 19.8508C26.7791 20.9027 24.8928 23.1154 25.6909 24.7115C26.3801 26.1624 28.9918 26.6702 30.3339 27.033C34.2152 28.1212 38.6406 29.0643 41.615 32.0387C45.1336 35.521 45.3875 40.8533 43.3199 45.2061C41.9415 48.108 39.7651 51.0462 37.4435 53.2589C36.8632 53.803 36.2828 54.3471 35.6661 54.8912C46.5482 53.5491 55 44.2993 55 33.0544C55 28.7016 53.8755 23.3693 50.7923 20.1047C48.0355 17.2028 43.2473 16.1871 39.0396 16.1871C38.169 16.1509 37.2622 16.1871 36.4279 16.296Z" fill="white"/>
</mask>
<g mask="url(#mask1_268_67)">
<path d="M55.0726 16.1509H24.9291V54.8549H55.0726V16.1509Z" fill="url(#paint1_linear_268_67)"/>
</g>
<defs>
<linearGradient id="paint0_linear_268_67" x1="24.9704" y1="1.70775" x2="24.9704" y2="59.5999" gradientUnits="userSpaceOnUse">
<stop stop-color="#008BD5"/>
<stop offset="1" stop-color="#006FB1"/>
</linearGradient>
<linearGradient id="paint1_linear_268_67" x1="39.996" y1="4.22048" x2="39.996" y2="57.8504" gradientUnits="userSpaceOnUse">
<stop stop-color="#696A6D"/>
<stop offset="1" stop-color="#3C3A3C"/>
</linearGradient>
</defs>
</svg>
