<svg width="66" height="66" viewBox="0 0 66 66" fill="none" xmlns="http://www.w3.org/2000/svg">
<circle cx="32.9183" cy="32.9183" r="32.9183" fill="#F5F5F5"/>
<path d="M27.8822 32.8049C27.8822 29.9643 30.2282 27.6335 33.0873 27.6335C35.9464 27.6335 38.2923 29.9643 38.2923 32.8049C38.2923 35.6457 35.9464 37.9765 33.0873 37.9765C30.1547 37.9765 27.8822 35.7186 27.8822 32.8049ZM33.0873 11.1719C22.897 11.1719 14.3196 18.0916 11.9004 27.4878V27.7063C11.9004 28.2889 12.3403 28.7259 12.9267 28.7259H21.7241C22.1639 28.7259 22.5305 28.5074 22.6771 28.1433C24.5099 24.21 28.4687 21.515 33.0873 21.515C39.392 21.515 44.5238 26.6137 44.5238 32.8778C44.5238 39.142 39.392 44.2407 33.0873 44.2407C28.4687 44.2407 24.5099 41.5457 22.6771 37.6124C22.5305 37.2482 22.1639 37.0297 21.7241 37.0297H12.9267C12.3403 36.9568 11.9004 37.3938 11.9004 37.9765V38.195C14.3196 47.5912 22.897 54.5109 33.0873 54.5109C45.1102 54.5109 54.8606 44.8233 54.8606 32.8778C54.8606 20.8594 45.1102 11.1719 33.0873 11.1719Z" fill="black"/>
</svg>
