<svg width="66" height="66" viewBox="0 0 66 66" fill="none" xmlns="http://www.w3.org/2000/svg">
<circle cx="32.9183" cy="32.9183" r="32.9183" fill="#F5F5F5"/>
<g clip-path="url(#clip0_4850_41)">
<path d="M17.3913 16H20.2609C20.4565 16 20.6522 16.1957 20.6522 16.3913V48.6087C20.6522 48.8043 20.4565 49 20.2609 49H17.3913C17.1957 49 17 48.8696 17 48.6087V16.3913C17 16.1957 17.1957 16 17.3913 16Z" fill="black"/>
<path d="M24.696 16H27.5656C27.7612 16 27.9569 16.1957 27.9569 16.3913V48.6087C27.9569 48.8043 27.7612 49 27.5656 49H24.696C24.5003 49 24.3047 48.8043 24.3047 48.6087V16.3913C24.3699 16.1957 24.5003 16 24.696 16Z" fill="black"/>
<path d="M32.0651 16H34.9347C35.1303 16 35.326 16.1957 35.326 16.3913V48.6087C35.326 48.8043 35.1303 49 34.9347 49H32.0651C31.8695 49 31.6738 48.8043 31.6738 48.6087V16.3913C31.6738 16.1957 31.8695 16 32.0651 16Z" fill="black"/>
<path d="M39.3698 16H42.2394C42.435 16 42.6307 16.1957 42.6307 16.3913V48.6087C42.6307 48.8043 42.435 49 42.2394 49H39.3698C39.1742 49 38.9785 48.8043 38.9785 48.6087V16.3913C38.9785 16.1957 39.1742 16 39.3698 16Z" fill="black"/>
<path d="M46.739 28.8477H49.6085C49.8042 28.8477 49.9998 29.0433 49.9998 29.239V35.8259C49.9998 36.0216 49.8042 36.2172 49.6085 36.2172H46.739C46.5433 36.2172 46.3477 36.0216 46.3477 35.8259V29.239C46.3477 29.0433 46.5433 28.8477 46.739 28.8477Z" fill="black"/>
</g>
<defs>
<clipPath id="clip0_4850_41">
<rect width="33" height="33" fill="white" transform="translate(17 16)"/>
</clipPath>
</defs>
</svg>
