<svg width="66" height="66" viewBox="0 0 66 66" fill="none" xmlns="http://www.w3.org/2000/svg">
<circle cx="32.9183" cy="32.9183" r="32.9183" fill="#F5F5F5"/>
<path d="M57 35.3939C57 37.7851 56.8868 40.5429 56.7554 41.8341C56.5609 43.7647 54.75 45.4802 52.8298 45.5832C52.3202 45.6098 51.6743 45.6376 50.9191 45.664V50.0036C50.9181 50.1355 50.8897 50.2659 50.8356 50.3873C50.7816 50.5087 50.7029 50.6188 50.6041 50.7112C50.4044 50.8981 50.1351 51.0019 49.8551 51C49.6085 51.0003 49.3693 50.9199 49.1776 50.7723L42.4062 45.7979C37.9113 45.7979 33.9408 45.687 31.9829 45.5831C30.0627 45.4801 28.2517 43.7646 28.0571 41.8339C28.035 41.6107 28.016 41.3873 28 41.1636C32.1263 41.1304 35.7091 41.0236 37.678 40.9186C41.122 40.7358 44.2014 37.8376 44.5434 34.4588C44.7221 32.682 44.8388 29.8717 44.8388 27.3017C44.8388 26.5344 44.8291 25.7671 44.8096 25C48.286 25.0301 51.2296 25.1191 52.8301 25.2047C54.7503 25.3077 56.5611 27.0231 56.7559 28.9537C56.8868 30.2451 57 33.0022 57 35.3939Z" fill="#00AAFF"/>
<path d="M43 27C43 29.8958 42.8677 32.635 42.716 34.1998C42.4892 36.5374 40.3787 38.6145 38.1432 38.7393C37.9041 38.7525 37.6392 38.7659 37.3515 38.7789C37.1681 38.7873 36.9751 38.7962 36.7735 38.8042C36.5781 38.8126 36.3753 38.8197 36.164 38.8283C36.0768 38.8307 35.9915 38.8341 35.9023 38.8377C35.8133 38.8414 35.724 38.8437 35.6316 38.8474C35.5444 38.8498 35.4572 38.8522 35.37 38.8558H35.3526C35.2591 38.8595 35.1631 38.8618 35.0673 38.8653C35.0539 38.8665 35.0417 38.8665 35.0297 38.8665L34.6789 38.8774C32.8963 38.9291 31.1132 38.9639 29.3299 38.9818L28.4927 38.9888C28.0629 38.9937 27.6257 38.9961 27.1837 38.9974C27.0016 38.9985 26.8174 38.9985 26.6327 38.9985C26.4234 38.9998 26.2112 38.9998 25.9988 38.9998L18.2718 44.7381C18.0513 44.9084 17.7794 45.0006 17.4997 44.9997C17.1846 45.0062 16.8797 44.8888 16.652 44.6732C16.4243 44.4578 16.2925 44.1618 16.2854 43.8502V38.8451C15.3177 38.8115 14.4958 38.7763 13.857 38.7395C11.6216 38.6146 9.51135 36.5375 9.28418 34.2C9.13245 32.6351 9 29.8969 9 27.0001C9 24.1033 9.13245 21.3648 9.28418 19.8C9.51107 17.4624 11.6214 15.3853 13.857 15.2606C16.1374 15.1346 20.764 15 25.9995 15C31.2348 15 35.8614 15.1346 38.1417 15.2606C40.3772 15.3854 42.4874 17.4624 42.7145 19.8C42.7341 19.9956 42.7523 20.2092 42.7703 20.4397C42.774 20.4913 42.7776 20.5441 42.7826 20.5969C42.7959 20.7816 42.8104 20.9749 42.8227 21.1776C42.8288 21.2638 42.8337 21.3516 42.84 21.4404C42.8668 21.8915 42.8924 22.3814 42.9142 22.9008L42.9253 23.1841C42.9556 23.9598 42.9786 24.7932 42.9896 25.6573L42.993 25.9106C42.9943 26.0677 42.9967 26.2271 42.9967 26.3868C42.998 26.4888 42.998 26.5908 42.998 26.6929C42.998 26.795 43 26.8967 43 27Z" fill="#00AAFF"/>
</svg>
