<svg width="66" height="66" viewBox="0 0 66 66" fill="none" xmlns="http://www.w3.org/2000/svg">
<circle cx="32.9183" cy="32.9183" r="32.9183" fill="#F5F5F5"/>
<g clip-path="url(#clip0_371_9)">
<path d="M32.5 13C21.7179 13 13 21.7399 13 32.5C13 43.2822 21.7399 52 32.5 52C43.2601 52 52 43.2601 52 32.5C52 21.7399 43.2601 13 32.5 13ZM46.0709 38.9561C46.0709 42.8868 42.8868 46.093 38.9341 46.093H26.0439C22.1132 46.093 18.9071 42.9089 18.9071 38.9561V26.0659C18.9071 22.1352 22.0912 18.9291 26.0439 18.9291H38.9341C42.8649 18.9291 46.0709 22.1132 46.0709 26.0659V38.9561Z" fill="black"/>
<path d="M32.4121 32.1267L24.3091 26.6149L30.1723 37.902C30.2162 37.9679 30.2602 38.0118 30.3041 38.0777C30.326 38.0997 30.348 38.1436 30.37 38.1656C30.4358 38.2534 30.4798 38.3193 30.5456 38.4072C30.6115 38.473 30.6774 38.517 30.7214 38.5608C31.468 39.2196 32.4561 39.4611 33.3783 39.2196H33.4004C33.576 39.1757 33.7297 39.1098 33.8835 39.044C33.9055 39.022 33.9274 39.022 33.9493 39C34.0811 38.9342 34.2128 38.8463 34.3446 38.7584C34.3886 38.7365 34.4324 38.6926 34.4544 38.6707C34.5203 38.6267 34.5861 38.5828 34.6521 38.517C34.6959 38.473 34.7399 38.4291 34.7838 38.3851C34.8057 38.3632 34.8277 38.3412 34.8496 38.3193L34.9156 38.2314C35.0034 38.1216 35.0692 38.0339 35.1352 37.9241L51.5169 14.9764L32.4121 32.1267Z" fill="black"/>
</g>
<defs>
<clipPath id="clip0_371_9">
<rect width="39" height="39" fill="white" transform="translate(13 13)"/>
</clipPath>
</defs>
</svg>
