<svg width="66" height="66" viewBox="0 0 66 66" fill="none" xmlns="http://www.w3.org/2000/svg">
<circle cx="32.9183" cy="32.9183" r="32.9183" fill="#F5F5F5"/>
<svg x="13" y="13" width="40" height="40" viewBox="0 0 40 40" fill="none">
<path d="M31.3333 0H8.66667C3.8802 0 0 3.8802 0 8.66667V31.3333C0 36.1198 3.8802 40 8.66667 40H31.3333C36.1198 40 40 36.1198 40 31.3333V8.66667C40 3.8802 36.1198 0 31.3333 0Z" fill="#03A9F4"/>
<path d="M25.6947 11.3924C26.3928 10.6932 26.2425 9.51811 25.3206 9.16425C24.0343 8.67046 22.6376 8.3999 21.1779 8.3999C14.7823 8.3999 9.59766 13.5934 9.59766 19.9999C9.59766 26.4064 14.7823 31.5999 21.1779 31.5999C22.6286 31.5999 24.017 31.3327 25.2968 30.8447C26.2211 30.4922 26.3728 29.3149 25.6735 28.6144C25.2203 28.1605 24.5345 28.0545 23.9264 28.257C23.0645 28.544 22.1427 28.6995 21.1846 28.6995C16.3879 28.6995 12.4994 24.8043 12.4994 19.9995C12.4994 15.1946 16.3879 11.2995 21.1846 11.2995C22.1496 11.2995 23.0779 11.4571 23.9451 11.7481C24.5537 11.9523 25.2409 11.847 25.6947 11.3924Z" fill="white"/>
<path d="M22.9294 20.1332C22.9294 20.9432 22.2728 21.5998 21.4628 21.5998C20.6527 21.5998 19.9961 20.9432 19.9961 20.1332C19.9961 19.3232 20.6527 18.6665 21.4628 18.6665C22.2728 18.6665 22.9294 19.3232 22.9294 20.1332Z" fill="white"/>
<path d="M23.7261 17.8301C23.2007 17.308 23.2007 16.4616 23.7261 15.9395L28.1021 11.5913C28.6274 11.0692 29.4793 11.0692 30.0047 11.5913C30.53 12.1133 30.53 12.9597 30.0047 13.4818L25.6287 17.8301C25.1033 18.3521 24.2515 18.3521 23.7261 17.8301Z" fill="white"/>
<path d="M23.7261 22.1693C23.2007 22.6914 23.2007 23.5378 23.7261 24.0599L28.1021 28.4082C28.6274 28.9302 29.4793 28.9302 30.0047 28.4082C30.53 27.8861 30.53 27.0397 30.0047 26.5176L25.6287 22.1693C25.1033 21.6473 24.2515 21.6473 23.7261 22.1693Z" fill="white"/>
</svg>
</svg>
