<svg width="66" height="66" viewBox="0 0 66 66" fill="none" xmlns="http://www.w3.org/2000/svg">
<circle cx="32.9183" cy="32.9183" r="32.9183" fill="#F5F5F5"/>
<path d="M46.8787 28.7593C45.9571 25.9428 44.1456 23.4823 41.7031 21.7296C39.2606 19.9768 36.3121 19.0215 33.279 19.0002C30.7147 18.9859 28.1948 19.6528 25.9901 20.9294C23.7854 22.206 21.9793 24.0439 20.7658 26.2458C18.5354 26.6353 16.4908 27.7085 14.9296 29.3091C13.3684 30.9097 12.372 32.9542 12.0854 35.1449C11.7989 37.3357 12.2372 39.5584 13.3365 41.4895C14.4359 43.4207 16.1388 44.9595 18.1976 45.882L18.4647 46H18.4825V43.049C17.0702 42.204 15.9646 40.9495 15.3206 39.4613C14.6766 37.9731 14.5265 36.3257 14.8913 34.7502C15.2562 33.1746 16.1177 31.7498 17.3551 30.6755C18.5925 29.6011 20.1439 28.9311 21.7916 28.7593L22.5396 28.6829L22.8673 28.0268C23.7978 26.1048 25.2719 24.4817 27.1162 23.3483C28.9606 22.2148 31.0987 21.6181 33.279 21.6283C35.8771 21.6462 38.3944 22.5102 40.4307 24.0828C42.467 25.6555 43.9054 27.8466 44.5171 30.3077L44.7735 31.3006H45.8421C47.5648 31.3351 49.2053 32.0247 50.4133 33.2222C51.6213 34.4197 52.301 36.0301 52.3071 37.7095C52.3071 40.1571 50.8574 42.1602 48.389 43.174V45.9722L48.5671 45.9167C52.5351 44.6495 55 41.5041 55 37.7095C54.9837 35.5132 54.1523 33.3969 52.6594 31.7517C51.1665 30.1065 49.1131 29.0435 46.8787 28.7593Z" fill="#3448C5"/>
<path d="M28.3871 46.1844L28.9673 46.7943C28.983 46.8112 28.9936 46.8326 28.9979 46.8558C29.0022 46.879 28.9999 46.903 28.9914 46.9248C28.9828 46.9467 28.9684 46.9655 28.9498 46.9788C28.9313 46.9922 28.9094 46.9995 28.8869 47H24.3079C23.7517 47 23.2182 46.7677 22.8249 46.3543C22.4316 45.9409 22.2106 45.3802 22.2106 44.7956V35.4487C22.2106 35.4165 22.1985 35.3857 22.1768 35.363C22.1552 35.3402 22.1259 35.3274 22.0953 35.3274H21.1165C21.0938 35.3277 21.0714 35.3208 21.0523 35.3078C21.0333 35.2947 21.0183 35.276 21.0093 35.254C21.0004 35.232 20.9978 35.2077 21.0019 35.1841C21.0061 35.1606 21.0168 35.1389 21.0326 35.1217L24.9196 31.0361C24.9303 31.0247 24.9431 31.0156 24.9572 31.0094C24.9713 31.0032 24.9865 31 25.0017 31C25.017 31 25.0322 31.0032 25.0463 31.0094C25.0604 31.0156 25.0732 31.0247 25.0839 31.0361L28.9673 35.1217C28.983 35.1386 28.9936 35.16 28.9979 35.1832C29.0022 35.2064 28.9999 35.2304 28.9914 35.2523C28.9828 35.2741 28.9684 35.2929 28.9498 35.3063C28.9313 35.3196 28.9094 35.327 28.8869 35.3274H27.8942C27.8633 35.3274 27.8336 35.3401 27.8114 35.3627C27.7892 35.3854 27.7763 35.4162 27.7754 35.4487V44.6339C27.7768 45.2153 27.9967 45.7725 28.3871 46.1844Z" fill="#3448C5"/>
<path d="M36.3836 46.2223L36.9674 46.8038C36.9832 46.8202 36.9939 46.8409 36.9981 46.8633C37.0022 46.8858 36.9996 46.909 36.9907 46.9299C36.9817 46.9509 36.9667 46.9688 36.9477 46.9812C36.9286 46.9937 36.9062 47.0002 36.8835 47H32.3149C31.7587 47 31.2252 46.7785 30.8319 46.3843C30.4386 45.9902 30.2176 45.4555 30.2176 44.898V38.2384C30.2176 38.2074 30.2056 38.1776 30.1841 38.1553C30.1625 38.1331 30.1332 38.1202 30.1023 38.1192H29.1131C29.0906 38.1188 29.0687 38.1118 29.0502 38.099C29.0316 38.0863 29.0172 38.0684 29.0086 38.0476C29.0001 38.0267 28.9978 38.0038 29.0021 37.9817C29.0064 37.9596 29.017 37.9392 29.0327 37.9231L32.9161 34.0344C32.9268 34.0235 32.9396 34.0149 32.9537 34.009C32.9678 34.003 32.983 34 32.9983 34C33.0135 34 33.0287 34.003 33.0428 34.009C33.0569 34.0149 33.0697 34.0235 33.0804 34.0344L36.9674 37.9161C36.9832 37.9324 36.9939 37.9531 36.9981 37.9756C37.0022 37.998 36.9996 38.0212 36.9907 38.0422C36.9817 38.0632 36.9667 38.081 36.9477 38.0935C36.9286 38.1059 36.9062 38.1125 36.8835 38.1122H35.8908C35.8599 38.1131 35.8305 38.1261 35.809 38.1483C35.7874 38.1706 35.7754 38.2004 35.7754 38.2313V44.7439C35.7759 45.2978 35.9945 45.829 36.3836 46.2223Z" fill="#3448C5"/>
<path d="M45.3841 46.2055L45.9638 46.7996C45.9795 46.8161 45.9901 46.8369 45.9944 46.8595C45.9986 46.8821 45.9964 46.9055 45.9878 46.9268C45.9793 46.9481 45.9649 46.9664 45.9463 46.9794C45.9278 46.9924 45.906 46.9995 45.8835 47H41.305C40.7493 47 40.2163 46.7738 39.8233 46.3711C39.4304 45.9684 39.2096 45.4223 39.2096 44.8528V40.3329C39.2096 40.3016 39.1974 40.2715 39.1758 40.2494C39.1542 40.2272 39.1249 40.2148 39.0943 40.2148H38.1165C38.0933 40.2151 38.0706 40.2081 38.0513 40.195C38.032 40.1818 38.017 40.1629 38.0084 40.1409C37.9997 40.1189 37.9977 40.0947 38.0027 40.0715C38.0076 40.0483 38.0193 40.0271 38.0362 40.0108L41.9197 36.0349C41.9301 36.0239 41.9426 36.0151 41.9564 36.0091C41.9702 36.0031 41.985 36 42 36C42.015 36 42.0298 36.0031 42.0436 36.0091C42.0574 36.0151 42.0699 36.0239 42.0803 36.0349L45.9638 40.0108C45.9807 40.0271 45.9924 40.0483 45.9973 40.0715C46.0023 40.0947 46.0003 40.1189 45.9916 40.1409C45.983 40.1629 45.968 40.1818 45.9487 40.195C45.9294 40.2081 45.9067 40.2151 45.8835 40.2148H44.8882C44.8576 40.2148 44.8283 40.2272 44.8067 40.2494C44.7851 40.2715 44.7729 40.3016 44.7729 40.3329V44.6953C44.7744 45.2616 44.994 45.8044 45.3841 46.2055Z" fill="#3448C5"/>
</svg>
