<svg width="66" height="66" viewBox="0 0 66 66" fill="none" xmlns="http://www.w3.org/2000/svg">
<circle cx="32.9183" cy="32.9183" r="32.9183" fill="#F5F5F5"/>
<g clip-path="url(#clip0_421_78)">
<path d="M36.9118 23.2065C36.9592 23.2179 37.0067 23.2294 37.0555 23.2412C38.5938 23.6229 39.9763 24.3634 41.1667 25.4094C41.2216 25.4562 41.2765 25.503 41.3332 25.5512C42.7924 26.8132 43.8947 28.6852 44.3235 30.5725C44.3466 30.975 44.294 31.2812 44.1452 31.6575C44.1266 31.7065 44.1079 31.7556 44.0887 31.8061C44.0492 31.9095 44.0091 32.0126 43.9687 32.1156C43.9083 32.2699 43.8494 32.4249 43.7907 32.58C43.1537 34.2428 42.227 35.5316 40.6176 36.3551C39.6278 36.7909 38.5911 36.7766 37.526 36.7874C37.4264 36.7887 37.3268 36.7899 37.2272 36.7912C37.014 36.7939 36.8009 36.7964 36.5877 36.7988C36.2457 36.8026 35.9038 36.8067 35.5619 36.811C35.0158 36.8177 34.4697 36.8241 33.9237 36.8305C33.2589 36.8382 32.5941 36.8462 31.9293 36.8542C31.8998 36.8545 31.8998 36.8545 31.7507 36.8563C30.7599 36.8682 29.7692 36.8805 28.7784 36.8932C28.2329 36.9001 27.6873 36.907 27.1418 36.9133C26.6944 36.9185 26.2471 36.9241 25.7997 36.9304C25.5739 36.9335 25.348 36.9364 25.1221 36.9388C24.8784 36.9414 24.6348 36.9449 24.3912 36.9485C24.3199 36.9491 24.2487 36.9497 24.1753 36.9503C24.1106 36.9514 24.046 36.9526 23.9794 36.9538C23.9235 36.9545 23.8677 36.9552 23.8102 36.9559C23.6667 36.9746 23.6667 36.9746 23.4608 37.1123C23.4479 37.293 23.4479 37.293 23.4608 37.4565C23.7514 37.5114 24.0281 37.5353 24.3237 37.5388C24.4133 37.5401 24.503 37.5414 24.5953 37.5426C24.6939 37.5437 24.7924 37.5448 24.8909 37.5458C24.9954 37.5472 25.0998 37.5485 25.2042 37.5499C25.4874 37.5536 25.7706 37.5569 26.0538 37.5601C26.3512 37.5636 26.6487 37.5674 26.9461 37.5711C27.4463 37.5775 27.9465 37.5835 28.4466 37.5894C29.1487 37.5976 29.8507 37.6063 30.5527 37.6151C31.0418 37.6212 31.531 37.6272 32.0203 37.6332C32.138 37.6346 32.2558 37.636 32.3736 37.6375C32.7104 37.6416 33.0471 37.6457 33.384 37.6496C33.4853 37.6508 33.5867 37.6521 33.6881 37.6533C34.2933 37.6607 34.8984 37.6641 35.5037 37.663C36.0599 37.663 36.616 37.6743 37.1721 37.6849C37.3168 37.6875 37.4615 37.6899 37.6062 37.6921C37.8186 37.6952 38.0309 37.6992 38.2433 37.7034C38.3072 37.7041 38.3711 37.705 38.437 37.7058C39.1627 37.722 39.8133 37.8475 40.3595 38.3571C40.867 38.9034 41.0553 39.4388 41.0492 40.1838C41.0247 40.472 40.9699 40.7461 40.9051 41.0276C40.8937 41.0775 40.8823 41.1275 40.8707 41.1789C40.7956 41.4848 40.7074 41.7723 40.4804 42C40.331 42.0068 40.1814 42.0087 40.0318 42.0087C39.9841 42.0087 39.9365 42.0089 39.8874 42.0089C39.7257 42.0092 39.5639 42.0089 39.4022 42.0087C39.2859 42.0088 39.1697 42.0089 39.0533 42.0091C38.7322 42.0093 38.411 42.0092 38.0898 42.009C37.7441 42.0088 37.3983 42.0091 37.0525 42.0093C36.3745 42.0096 35.6966 42.0095 35.0186 42.0093C34.4678 42.0091 33.917 42.0091 33.3662 42.0092C33.3271 42.0092 33.3271 42.0092 33.1292 42.0092C32.9702 42.0093 32.8113 42.0093 32.6524 42.0093C31.1604 42.0095 29.6685 42.0093 28.1765 42.0089C26.895 42.0086 25.6135 42.0087 24.3319 42.0089C22.8456 42.0094 21.3593 42.0095 19.8729 42.0093C19.7146 42.0092 19.5562 42.0092 19.3979 42.0092C19.3589 42.0092 19.3589 42.0092 19.1617 42.0091C18.6114 42.0091 18.061 42.0092 17.5105 42.0093C16.8402 42.0096 16.1698 42.0095 15.4994 42.0091C15.1571 42.0089 14.8147 42.0089 14.4724 42.0091C14.1594 42.0094 13.8465 42.0092 13.5335 42.0089C13.4199 42.0088 13.3062 42.0088 13.1926 42.009C13.0389 42.0092 12.8854 42.009 12.7317 42.0087C12.6461 42.0087 12.5605 42.0087 12.4724 42.0086C12.2745 42 12.2745 42 12.1372 41.9311C11.7228 40.6839 12.1173 39.0829 12.6725 37.9359C12.8878 37.5134 13.1388 37.1337 13.4412 36.7681C13.4917 36.7054 13.5424 36.6426 13.5945 36.578C14.5554 35.4488 16.0109 34.6143 17.4937 34.4649C17.7214 34.4477 17.9482 34.4345 18.1765 34.4275C18.1715 34.4042 18.1715 34.4042 18.1464 34.2861C17.9022 33.0577 18.1005 31.8958 18.777 30.8306C19.4943 29.8097 20.4963 29.1368 21.7194 28.8783C22.9837 28.6697 24.1877 28.9705 25.2451 29.6775C25.2563 29.6352 25.2675 29.5929 25.2791 29.5493C25.3986 29.1225 25.5549 28.7423 25.7641 28.3523C25.7942 28.2959 25.8242 28.2394 25.8553 28.1813C26.3236 27.3208 26.9024 26.5951 27.5784 25.8913C27.6225 25.8428 27.6665 25.7942 27.7119 25.7442C29.9498 23.3487 33.7837 22.4255 36.9118 23.2065Z" fill="#F6821F"/>
<path d="M45.6541 31.2347C47.6856 31.2383 49.4873 31.884 51.0491 33.1884C51.1089 33.2371 51.1688 33.2859 51.2305 33.336C52.7007 34.5878 53.7095 36.5511 53.92 38.4728C54.002 39.5841 54.0588 40.893 53.5883 41.9311C53.459 42.0608 53.2355 42.0087 53.0637 42.0087C53.0155 42.0089 52.9673 42.0089 52.9176 42.0091C52.7549 42.0093 52.5921 42.0091 52.4294 42.0089C52.3132 42.009 52.197 42.0091 52.0808 42.0093C51.7643 42.0096 51.4478 42.0095 51.1313 42.0093C50.8009 42.0091 50.4705 42.0093 50.1401 42.0093C49.585 42.0095 49.03 42.0093 48.475 42.009C47.8324 42.0086 47.1898 42.0087 46.5471 42.0091C45.9964 42.0094 45.4457 42.0095 44.895 42.0093C44.5656 42.0092 44.2363 42.0091 43.9069 42.0094C43.5973 42.0096 43.2877 42.0095 42.9781 42.0091C42.8642 42.0089 42.7502 42.009 42.6363 42.0091C42.4814 42.0093 42.3265 42.0091 42.1716 42.0087C42.0847 42.0087 41.9978 42.0087 41.9083 42.0086C41.7157 42 41.7157 42 41.6471 41.9311C41.6962 40.8209 42.5069 39.7649 43.2942 39.0398C44.6694 37.8779 46.1648 37.6963 47.905 37.62C48.1438 37.609 48.3825 37.5977 48.6213 37.5856C48.7686 37.5783 48.916 37.5715 49.0635 37.5654C49.13 37.5622 49.1965 37.5589 49.265 37.5556C49.3231 37.5531 49.3813 37.5505 49.4411 37.5479C49.6278 37.5226 49.7794 37.4642 49.951 37.3877C49.9539 37.273 49.9538 37.1582 49.951 37.0434C49.8451 36.9372 49.7403 36.9584 49.5926 36.95C49.5309 36.9464 49.4693 36.9427 49.4057 36.9389C49.3383 36.9352 49.2709 36.9314 49.2015 36.9276C49.0587 36.919 48.916 36.9104 48.7733 36.9019C48.5484 36.8888 48.3234 36.8758 48.0985 36.8629C45.8481 36.7332 45.8481 36.7332 45.3315 36.4153C45.2695 36.3782 45.2075 36.3411 45.1436 36.3029C45.0995 36.2747 45.0553 36.2465 45.0098 36.2174C45.0098 36.1719 45.0098 36.1265 45.0098 36.0797C44.9419 36.057 44.874 36.0342 44.804 36.0108C44.3991 35.5366 44.2597 34.9728 44.2549 34.3587C44.3135 33.7264 44.4734 33.1259 44.6589 32.5214C44.7017 32.3816 44.7434 32.2413 44.7849 32.101C45.0431 31.2443 45.0431 31.2443 45.6541 31.2347Z" fill="#FAAC40"/>
</g>
<defs>
<clipPath id="clip0_421_78">
<rect width="42" height="19" fill="white" transform="translate(12 23)"/>
</clipPath>
</defs>
</svg>
