<svg width="62" height="62" viewBox="0 0 62 62" fill="none" xmlns="http://www.w3.org/2000/svg">
<g clip-path="url(#clip0_4_5)">
<path d="M31 62C48.1208 62 62 48.1208 62 31C62 13.8792 48.1208 0 31 0C13.8792 0 0 13.8792 0 31C0 48.1208 13.8792 62 31 62Z" fill="#F5F5F5"/>
<g clip-path="url(#clip1_4_5)">
<path d="M30.5 53C42.3741 53 52 43.3741 52 31.5C52 19.6259 42.3741 10 30.5 10C18.6259 10 9 19.6259 9 31.5C9 43.3741 18.6259 53 30.5 53Z" fill="#228800"/>
<path d="M24.2441 20.7905C24.1391 20.8059 23.691 20.8863 23.5952 20.9048C23.2584 20.9759 22.6805 21.1984 22.3375 21.39C21.8832 21.6434 21.6082 21.8535 21.1663 22.2985C20.641 22.8269 20.2578 23.4419 20.0167 24.1372C19.8097 24.7398 19.7479 25.1322 19.751 25.8523C19.7541 26.6712 19.8869 27.2521 20.2423 27.9845C20.8696 29.2793 21.9883 30.2218 23.382 30.6266C24.0371 30.8182 24.0896 30.8213 27.0099 30.8244C28.4715 30.8275 29.6953 30.8244 29.7292 30.8182C29.791 30.8089 29.791 30.7935 29.788 28.1143C29.788 26.631 29.7756 25.3424 29.7632 25.2497C29.72 24.919 29.618 24.4617 29.5222 24.1866C29.0185 22.6972 27.8164 21.5074 26.3177 21.0161C26.021 20.9203 26.0117 20.9172 25.7274 20.8647C25.6347 20.8461 25.5173 20.8245 25.4648 20.8121C25.3628 20.7936 24.3646 20.775 24.2441 20.7905ZM36.0085 20.8183C36.0055 20.8214 35.8973 20.8307 35.7706 20.843C35.6439 20.8523 35.511 20.8678 35.477 20.8739C35.443 20.8801 35.3534 20.8956 35.2762 20.911C35.1989 20.9234 35.1309 20.9357 35.1217 20.9388C34.1668 21.186 33.4344 21.5754 32.7978 22.1749C31.9109 23.0185 31.3485 24.1496 31.2404 25.3269C31.2218 25.5463 31.2033 30.6637 31.2218 30.7502C31.2311 30.7935 31.5185 30.7997 33.9566 30.7966C36.6297 30.7904 36.6884 30.7904 37.0778 30.7224C38.7248 30.435 40.0845 29.3967 40.7953 27.8918C40.9096 27.6446 41.0919 27.1254 41.1321 26.9153C41.3206 25.9851 41.2835 25.1168 41.0209 24.2917C40.7798 23.5408 40.3348 22.8208 39.76 22.2583C38.833 21.3467 37.634 20.8492 36.2959 20.8183C36.1414 20.8152 36.0116 20.8152 36.0085 20.8183ZM24.4512 32.2521C24.4481 32.2552 24.3554 32.2644 24.2441 32.2737C23.3449 32.3571 22.4642 32.7032 21.7102 33.2718C20.6626 34.0598 19.9364 35.3145 19.7695 36.6154C19.7293 36.9492 19.7541 37.9535 19.8097 38.1111C19.8159 38.1327 19.8282 38.1853 19.8375 38.2285C19.9364 38.7909 20.233 39.4924 20.5977 40.027C21.3795 41.1828 22.6774 41.9893 24.0433 42.1716C24.1113 42.1809 24.2009 42.1933 24.2441 42.2025C24.343 42.218 25.1341 42.2211 25.2175 42.2025C25.2515 42.1963 25.3628 42.1809 25.4648 42.1716C25.7027 42.1438 26.1724 42.0264 26.4691 41.9213C26.8584 41.7823 27.6125 41.3744 27.7855 41.2106C27.804 41.1951 27.8782 41.1302 27.9524 41.0715C28.7466 40.4349 29.4449 39.3225 29.6365 38.3985C29.6458 38.346 29.6767 38.2007 29.7045 38.074C29.7478 37.8732 29.7571 37.4622 29.7663 35.0425L29.7787 32.2428L27.118 32.2459C25.6564 32.2459 24.4543 32.249 24.4512 32.2521ZM28.3603 33.6921C28.3819 33.7632 28.3634 37.4343 28.3417 37.6228C28.3016 37.9288 28.2336 38.2316 28.1625 38.4078C28.144 38.4541 28.1192 38.519 28.1069 38.553C27.9771 38.9022 27.6928 39.3472 27.4085 39.65C26.7132 40.3886 25.8356 40.7872 24.8622 40.8088C24.0556 40.8274 23.3943 40.6358 22.7299 40.1908C21.4784 39.3564 20.8943 37.8484 21.2497 36.3744C21.3177 36.0994 21.3455 36.0283 21.5 35.6946C21.8956 34.8386 22.7268 34.1186 23.6508 33.8281C23.898 33.7508 23.9506 33.7385 24.2441 33.6859C24.3214 33.6736 25.2763 33.6612 26.364 33.6581C27.9369 33.655 28.351 33.6612 28.3603 33.6921ZM31.2218 32.2768C31.2002 32.3448 31.2187 37.4498 31.2404 37.6877C31.4289 39.7489 32.9029 41.5011 34.9084 42.0418C35.0691 42.0851 35.2422 42.1284 35.2916 42.1345C35.4863 42.1685 35.6099 42.1871 35.7273 42.1994C35.8818 42.218 36.6266 42.2211 36.7286 42.2025C36.7718 42.1933 36.8676 42.1809 36.9449 42.1716C37.6154 42.0851 38.354 41.8101 38.9473 41.43C39.9609 40.781 40.7118 39.7829 41.0518 38.6395C41.1012 38.4727 41.1476 38.2811 41.1599 38.2131C41.1692 38.1451 41.1846 38.0555 41.1939 38.0122C41.2681 37.663 41.2681 36.8101 41.1939 36.4331C41.1846 36.3929 41.1692 36.3157 41.1599 36.2662C41.0888 35.8707 40.9189 35.3824 40.6933 34.9529C39.9825 33.5716 38.6599 32.6044 37.1117 32.3231C36.7533 32.2582 36.6637 32.2552 33.9875 32.249C32.0253 32.2459 31.228 32.2521 31.2218 32.2768Z" fill="white"/>
</g>
</g>
<defs>
<clipPath id="clip0_4_5">
<rect width="62" height="62" fill="white"/>
</clipPath>
<clipPath id="clip1_4_5">
<rect width="43" height="43" fill="white" transform="translate(9 10)"/>
</clipPath>
</defs>
</svg>
