<svg width="66" height="66" viewBox="0 0 66 66" fill="none" xmlns="http://www.w3.org/2000/svg">
<circle cx="32.9183" cy="32.9183" r="32.9183" fill="#F5F5F5"/>
<path d="M41.7988 40.8374C37.4538 40.743 34.0067 37.1646 34.1015 32.8361C34.1907 28.6354 37.5877 25.2571 41.7988 25.1682C43.6395 25.1682 45.4188 25.8294 46.8078 27.0351C47.3711 27.5074 48.2133 27.4408 48.6874 26.8795C48.8938 26.6407 49.0054 26.335 48.9998 26.0183V18.656C48.9998 17.1891 47.8061 16 46.3336 16H19.6662C18.1936 16 17 17.1891 17 18.656V47.344C17 48.8109 18.1936 50 19.6662 50H46.3336C47.8061 50 48.9998 48.8109 48.9998 47.344V39.9928C48.9998 39.2594 48.4086 38.6648 47.6723 38.6593C47.3543 38.6593 47.0476 38.7704 46.8078 38.9705C45.4188 40.1707 43.6395 40.8318 41.7988 40.8318V40.8374Z" fill="#EE5A29"/>
</svg>
