<svg width="66" height="66" viewBox="0 0 66 66" fill="none" xmlns="http://www.w3.org/2000/svg">
<circle cx="32.9183" cy="32.9183" r="32.9183" fill="#F5F5F5"/>
<g clip-path="url(#clip0_23_44)">
<path d="M14.575 28.2875C15.8565 23.6703 18.9277 19.7279 23.1322 17.3025L23.2206 17.257L19.239 10.5122C13.2345 13.9593 8.80017 19.4995 6.94296 26.0883L6.89879 26.2703L14.575 28.2875ZM27.6947 15.437C29.2529 15.0258 30.8599 14.8196 32.4735 14.8238H32.4845V7.03467H32.4426C30.0819 7.0332 27.7314 7.33995 25.4532 7.94684L25.6387 7.90351L27.6947 15.437ZM37.3097 15.4435C42.0112 16.7021 46.0242 19.7155 48.4905 23.8393L48.5369 23.926L55.4203 20.0282C51.9068 14.1392 46.2645 9.78851 39.5512 7.96417L39.3657 7.92084L37.3097 15.4435ZM6 33V33.013C6 35.3963 6.32683 37.7038 6.93854 39.8965L6.89437 39.7145L14.5705 37.7017C14.1485 36.1756 13.9376 34.6008 13.9434 33.0195V33.0022L6 33ZM9.54437 45.9892C10.759 48.028 12.1502 49.7895 13.7424 51.3517L19.3803 45.8483C18.2607 44.7482 17.2866 43.5144 16.4807 42.1758L16.4322 42.0892L9.54437 45.9892ZM19.239 55.49C23.2375 57.7791 27.7866 58.9789 32.4161 58.9653H32.4625L32.4602 51.1762H32.4514C29.1727 51.1817 25.9524 50.325 23.1256 48.6953L23.2117 48.7408L19.239 55.49ZM48.5303 42.1108C46.0845 46.2305 42.0955 49.2501 37.4135 50.5262L37.2832 50.5565L39.3392 58.0878C46.238 56.2245 51.8847 51.8847 55.3408 46.1278L55.4092 46.0065L48.5303 42.1108ZM58.0659 39.9788C58.6577 37.927 59 35.5697 59 33.1343C59 30.7792 58.682 28.4977 58.0835 26.3267L58.1255 26.5087L50.4272 28.5258C50.8137 29.9125 51.0345 31.5028 51.0345 33.1452C51.0345 34.8568 50.7938 36.5143 50.3433 38.0852L50.3742 37.9573L58.0659 39.9788Z" fill="black"/>
</g>
<defs>
<clipPath id="clip0_23_44">
<rect width="53" height="52" fill="white" transform="translate(6 7)"/>
</clipPath>
</defs>
</svg>
