<svg width="66" height="66" viewBox="0 0 66 66" fill="none" xmlns="http://www.w3.org/2000/svg">
<circle cx="32.9183" cy="32.9183" r="32.9183" fill="#F5F5F5"/>
<g clip-path="url(#clip0_172_10)">
<path d="M59.6619 27.8604L45.0872 20.7493C44.9158 20.6662 44.7773 20.5286 44.6938 20.3581L37.5241 5.87591C36.5745 3.95718 34.7238 2.99782 32.8732 3C31.0225 3 29.1719 3.96156 28.2245 5.88246L21.0724 20.3734C20.9889 20.5439 20.8504 20.6816 20.679 20.7646L6.1131 27.8931C2.25349 29.7813 2.25569 35.2556 6.11749 37.1394L20.6922 44.2504C20.8636 44.3335 21.002 44.4712 21.0856 44.6416L28.2553 59.1238C29.2048 61.0426 31.0555 62.0019 32.9062 61.9997C34.7569 61.9975 36.6075 61.0382 37.5549 59.1173L44.707 44.6263C44.7905 44.4558 44.929 44.3182 45.1004 44.2351L59.6662 37.1066C63.5281 35.2185 63.5237 29.7463 59.6619 27.8604ZM48.8083 28.8853L42.0607 34.7508C40.7133 35.9221 39.7814 37.5261 39.4319 39.2744L37.6933 48.0158C37.5834 48.5621 36.891 48.7479 36.5218 48.3283L30.6247 41.6215C29.4466 40.2818 27.8311 39.3531 26.0727 39.0056L17.2809 37.277C16.7314 37.1699 16.5446 36.4794 16.9666 36.1122L23.7165 30.2446C25.0638 29.0733 25.9958 27.467 26.3431 25.7231L28.0816 16.9818C28.1916 16.4355 28.8839 16.2497 29.2532 16.6693L35.1547 23.3827C36.3328 24.7201 37.9483 25.6466 39.7023 25.9919L48.494 27.7205C49.0458 27.8298 49.2326 28.5182 48.8083 28.8853Z" fill="url(#paint0_linear_172_10)"/>
</g>
<defs>
<linearGradient id="paint0_linear_172_10" x1="3.2162" y1="32.4997" x2="62.5607" y2="32.4997" gradientUnits="userSpaceOnUse">
<stop offset="1.19808e-07" stop-color="#EC0C43"/>
<stop offset="1" stop-color="#FF9100"/>
</linearGradient>
<clipPath id="clip0_172_10">
<rect width="60" height="59" fill="white" transform="translate(3 3)"/>
</clipPath>
</defs>
</svg>
