<svg width="66" height="66" viewBox="0 0 66 66" fill="none" xmlns="http://www.w3.org/2000/svg">
<circle cx="32.9183" cy="32.9183" r="32.9183" fill="#F5F5F5"/>
<g transform="translate(13 13) scale(0.315)">
<rect width="127" height="127" rx="15" fill="url(#paint0_linear_4666_9316)"/>
<path d="M56.4407 99.5553C53.4823 99.5553 50.524 98.3836 48.2705 96.0523L25.1584 72.1411C20.6399 67.4665 20.6399 59.9106 25.1584 55.236L48.2705 31.3248C52.789 26.6502 60.0924 26.6502 64.6108 31.3248C69.1293 35.9994 69.1293 43.5554 64.6108 48.23L49.6688 63.6885L64.6108 79.1471C69.1293 83.8217 69.1293 91.3777 64.6108 96.0523C62.3574 98.3836 59.399 99.5553 56.4407 99.5553Z" fill="white"/>
<path d="M70.5277 99.5553C67.5694 99.5553 64.611 98.3836 62.3576 96.0523C57.8391 91.3777 57.8391 83.8217 62.3576 79.1471L77.2996 63.6885L62.3576 48.23C57.8391 43.5554 57.8391 35.9994 62.3576 31.3248C66.876 26.6502 74.1795 26.6502 78.6979 31.3248L101.81 55.236C106.328 59.9106 106.328 67.4665 101.81 72.1411L78.6979 96.0523C76.4444 98.3836 73.4861 99.5553 70.5277 99.5553Z" fill="white" fill-opacity="0.71"/>
</g>
<defs>
<linearGradient id="paint0_linear_4666_9316" x1="63.5" y1="0" x2="63.5" y2="127" gradientUnits="userSpaceOnUse">
<stop stop-color="#1488CC"/>
<stop offset="1" stop-color="#086CD9"/>
</linearGradient>
</defs>
</svg>
