<svg width="66" height="66" viewBox="0 0 66 66" fill="none" xmlns="http://www.w3.org/2000/svg">
<circle cx="32.9183" cy="32.9183" r="32.9183" fill="#F5F5F5"/>
<g clip-path="url(#clip0_530_2)">
<path d="M44.5868 21.1455C41.4767 21.1455 38.4679 22.5273 36.327 24.9127L25.261 36.5636C24.7657 37.1194 24.1652 37.5703 23.4946 37.89C22.824 38.2096 22.0967 38.3917 21.3553 38.4255C19.9562 38.3911 18.6275 37.8011 17.6597 36.7844C16.692 35.7677 16.164 34.4071 16.1912 33C16.1912 30.0036 18.5057 27.5745 21.3698 27.5745C22.773 27.5745 24.1182 28.1855 25.073 29.2327L29.4994 24.68C28.4609 23.5527 27.2038 22.6511 25.8057 22.0307C24.4076 21.4103 22.898 21.0843 21.3698 21.0727C15.1063 21.0727 10 26.4255 10 33C10 39.5745 15.1063 44.9273 21.3698 44.9273C24.2484 44.9273 26.9679 43.7491 29.2824 41.4945V41.5091L29.6585 41.1164L29.861 40.9127L40.739 29.4509L40.8692 29.32C41.3439 28.8036 41.9185 28.3902 42.5578 28.1051C43.197 27.8199 43.8875 27.6691 44.5868 27.6618C45.9885 27.6924 47.3209 28.2807 48.2917 29.2978C49.2626 30.315 49.7926 31.6777 49.7654 33.0873C49.7654 36.0691 47.4509 38.4982 44.5868 38.4982C43.5489 38.4875 42.5383 38.1626 41.6868 37.5658C40.8353 36.9691 40.1824 36.1281 39.8132 35.1527L35.2855 39.9236C36.3015 41.4745 37.6813 42.7501 39.3034 43.6379C40.9256 44.5257 42.74 44.9985 44.5868 45.0145C50.8648 45.0145 55.9566 39.6618 55.9566 33.0873C55.9566 26.5127 50.8648 21.16 44.5868 21.16V21.1455Z" fill="#2E97FB"/>
</g>
<defs>
<clipPath id="clip0_530_2">
<rect width="46" height="24" fill="white" transform="translate(10 21)"/>
</clipPath>
</defs>
</svg>
