<svg width="66" height="66" viewBox="0 0 66 66" fill="none" xmlns="http://www.w3.org/2000/svg">
<circle cx="32.9183" cy="32.9183" r="32.9183" fill="#F5F5F5"/>
<path d="M28.0226 18.0674C29.4492 19.4912 29.9942 21.5769 29.4492 23.5171C31.2039 22.4614 33.2155 21.905 35.2641 21.9079H35.3069C38.3171 21.9164 41.1988 23.1262 43.3159 25.2661C45.0136 27.0494 47.8326 27.1179 49.6159 25.423C51.3992 23.7254 51.4676 20.9064 49.7728 19.1231C49.73 19.0774 49.6872 19.0346 49.6416 18.9918C45.861 15.1685 40.7109 13.0143 35.3326 13H35.2555C31.2296 12.9915 27.295 14.1898 23.9567 16.4382H24.0823C25.5602 16.4353 26.9783 17.0231 28.0226 18.0702V18.0674Z" fill="#1773EB"/>
<path d="M46.3974 40.0145C45.2219 40.0145 44.092 40.4796 43.2589 41.307C41.1361 43.4184 38.2629 44.6054 35.2698 44.6025H35.227C33.1727 44.5996 31.1611 44.0347 29.4064 42.9676C29.5405 43.4526 29.6061 43.9548 29.6061 44.457C29.6061 47.5356 27.1124 50.0294 24.0338 50.0294H23.8882C27.2237 52.3005 31.1611 53.5189 35.1956 53.5246H35.2727C40.6196 53.5331 45.7526 51.416 49.5388 47.6412C51.285 45.9064 51.2993 43.0874 49.5645 41.3384C48.7285 40.4938 47.5872 40.0202 46.4003 40.0202V40.0145H46.3974Z" fill="#E44F20"/>
<path d="M20.0877 40.5138C21.1292 39.4638 22.5501 38.8761 24.0281 38.8818C24.5388 38.8818 25.0467 38.9502 25.5374 39.0872C23.3718 35.4864 23.3804 30.9812 25.5602 27.3889C22.59 28.205 19.5228 26.4559 18.7096 23.4886C18.5784 23.0064 18.5099 22.5099 18.5099 22.0077V21.8565C13.8506 28.7043 13.8277 37.7005 18.4557 44.5711V44.4541C18.45 42.9762 19.0377 41.5553 20.0877 40.5138Z" fill="#FFDA00"/>
<path d="M24.0823 17.4254C22.8154 17.4254 21.9281 17.9504 20.8524 19.0261C19.8281 20.0476 19.5057 20.9435 19.5028 22.0077C19.5028 24.5357 21.5572 26.5872 24.0851 26.5843C26.6131 26.5843 28.6646 24.53 28.6617 22.002C28.6617 19.4741 26.6102 17.4254 24.0823 17.4254Z" fill="#1773EB"/>
<path d="M19.4372 44.4598C19.4372 45.7238 19.9622 46.614 21.035 47.6869C22.0593 48.7112 22.9524 49.0364 24.0166 49.0393C26.5389 49.0307 28.5761 46.9821 28.5676 44.4598C28.559 41.9376 26.5104 39.9004 23.9881 39.9089C21.4716 39.9175 19.4372 41.9576 19.4372 44.4741V44.4598Z" fill="#E44F20"/>
</svg>
