<svg width="66" height="66" viewBox="0 0 66 66" fill="none" xmlns="http://www.w3.org/2000/svg">
<circle cx="32.9183" cy="32.9183" r="32.9183" fill="#F5F5F5"/>
<mask id="mask0_4636_81" style="mask-type:luminance" maskUnits="userSpaceOnUse" x="12" y="15" width="42" height="37">
<path d="M54 15H12V51.0544H54V15Z" fill="white"/>
</mask>
<g mask="url(#mask0_4636_81)">
<path d="M33.5155 15H22.7579C21.9575 15 21.3086 15.6616 21.3086 16.4776C21.3086 17.2937 21.9575 17.9553 22.7579 17.9553H33.5155C34.3157 17.9553 34.9647 17.2937 34.9647 16.4776C34.9647 15.6616 34.3157 15 33.5155 15Z" fill="#7C4DFF"/>
<path d="M33.5155 35.6875H22.7579C21.9575 35.6875 21.3086 36.349 21.3086 37.1651C21.3086 37.9811 21.9575 38.6428 22.7579 38.6428H33.5155C34.3157 38.6428 34.9647 37.9811 34.9647 37.1651C34.9647 36.349 34.3157 35.6875 33.5155 35.6875Z" fill="#7C4DFF"/>
<path d="M31.0378 19.1406H17.797C16.9965 19.1406 16.3477 19.8022 16.3477 20.6182C16.3477 21.4343 16.9965 22.0959 17.797 22.0959H31.0378C31.8381 22.0959 32.4871 21.4343 32.4871 20.6182C32.4871 19.8022 31.8381 19.1406 31.0378 19.1406Z" fill="#7C4DFF"/>
<path d="M31.0378 31.5508H17.797C16.9965 31.5508 16.3477 32.2123 16.3477 33.0284C16.3477 33.8444 16.9965 34.5061 17.797 34.5061H31.0378C31.8381 34.5061 32.4871 33.8444 32.4871 33.0284C32.4871 32.2123 31.8381 31.5508 31.0378 31.5508Z" fill="#7C4DFF"/>
<path d="M28.3449 23.2734H13.4493C12.6489 23.2734 12 23.935 12 24.7511C12 25.5671 12.6489 26.2287 13.4493 26.2287H28.3449C29.1455 26.2287 29.7942 25.5671 29.7942 24.7511C29.7942 23.935 29.1455 23.2734 28.3449 23.2734Z" fill="#7C4DFF"/>
<path d="M29.7942 28.8927C29.7942 28.0809 29.1428 27.4141 28.3449 27.4141H13.4493C12.6536 27.4141 12 28.0786 12 28.8927C12 29.7047 12.6514 30.3715 13.4493 30.3715H28.347C29.1428 30.3715 29.7964 29.7068 29.7964 28.8927H29.7942Z" fill="#7C4DFF"/>
<path d="M43.2417 48.0977H32.4844C31.6839 48.0977 31.0352 48.7591 31.0352 49.5754C31.0352 50.3914 31.6839 51.053 32.4844 51.053H43.2417C44.0422 51.053 44.6912 50.3914 44.6912 49.5754C44.6912 48.7591 44.0422 48.0977 43.2417 48.0977Z" fill="#7C4DFF"/>
<path d="M43.2417 27.4102H32.4844C31.6839 27.4102 31.0352 28.0717 31.0352 28.8877C31.0352 29.7039 31.6839 30.3655 32.4844 30.3655H43.2417C44.0422 30.3655 44.6912 29.7039 44.6912 28.8877C44.6912 28.0717 44.0422 27.4102 43.2417 27.4102Z" fill="#7C4DFF"/>
<path d="M48.2056 43.957H34.965C34.1692 43.957 33.5156 44.6218 33.5156 45.4359C33.5156 46.2478 34.1669 46.9147 34.965 46.9147H48.2056C49.0013 46.9147 49.6549 46.2499 49.6549 45.4359C49.6549 44.624 49.0036 43.957 48.2056 43.957Z" fill="#7C4DFF"/>
<path d="M48.2056 31.5508H34.965C34.1645 31.5508 33.5156 32.2124 33.5156 33.0286C33.5156 33.8447 34.1645 34.5062 34.965 34.5062H48.2056C49.0062 34.5062 49.6549 33.8447 49.6549 33.0286C49.6549 32.2124 49.0062 31.5508 48.2056 31.5508Z" fill="#7C4DFF"/>
<path d="M52.5523 39.8242H37.6544C36.8588 39.8242 36.2051 40.4889 36.2051 41.3029C36.2051 42.1148 36.8566 42.7817 37.6544 42.7817H52.5523C53.348 42.7817 54.0015 42.1171 54.0015 41.3029C54.0015 40.4911 53.3501 39.8242 52.5523 39.8242Z" fill="#7C4DFF"/>
<path d="M52.552 35.6836H37.6564C36.856 35.6836 36.207 36.3451 36.207 37.1613C36.207 37.9773 36.856 38.6389 37.6564 38.6389H52.552C53.3523 38.6389 54.0013 37.9773 54.0013 37.1613C54.0013 36.3451 53.3523 35.6836 52.552 35.6836Z" fill="#7C4DFF"/>
</g>
</svg>
