<svg width="66" height="66" viewBox="0 0 66 66" fill="none" xmlns="http://www.w3.org/2000/svg">
<circle cx="32.9183" cy="32.9183" r="32.9183" fill="#F5F5F5"/>
<path d="M38.6761 46.3924C45.3069 45.6568 51.5586 42.128 55.0007 36.2383C53.3705 50.806 37.4208 60.0134 24.4017 54.3604C23.2021 53.8409 22.1694 52.9765 21.4608 51.8654C18.535 47.2772 17.5733 41.439 18.9552 36.1406C22.9034 42.946 30.9315 47.1175 38.6761 46.3924Z" fill="#F3B01C"/>
<path d="M19.317 31.7216C16.583 37.8111 16.4646 44.9402 19.8164 50.8073C8.02088 42.2543 8.1496 23.951 19.6722 15.4836C20.738 14.701 22.0045 14.2365 23.3329 14.1658C28.7956 13.888 34.3458 15.9229 38.2381 19.7148C30.3299 19.7905 22.6275 24.673 19.317 31.7216Z" fill="#8D2676"/>
<path d="M41.1844 22.054C37.3141 16.5971 31.2563 12.8821 24.6191 12.7691C37.4488 6.88051 53.23 16.4275 54.9482 30.5426C55.1081 31.8528 54.8981 33.1888 54.3237 34.3706C51.9267 39.2931 47.482 43.1109 42.2882 44.5238C46.0937 37.3867 45.6241 28.667 41.1844 22.054Z" fill="#EE342F"/>
</svg>
