<svg width="62" height="62" viewBox="0 0 62 62" fill="none" xmlns="http://www.w3.org/2000/svg">
<circle cx="31" cy="31" r="31" fill="#F5F5F5"/>
<path d="M50.9999 33.8046C51.0214 39.8492 48.6121 45.6573 44.3314 49.938L44.2453 50.0241L40.8896 46.6683L40.9756 46.5823C48.0313 39.5266 48.0313 28.1041 40.9971 21.0484C37.5984 17.6712 32.995 15.7567 28.198 15.7567C23.4225 15.7567 18.8191 17.6497 15.4418 21.0484L15.3558 21.113L12 17.7572L12.0645 17.6712C20.9702 8.78704 35.4042 8.76552 44.3314 17.6712C48.6121 21.9519 51.0214 27.7599 50.9999 33.8046Z" fill="#4750EF"/>
<path d="M28.1988 20.0781C20.6268 20.0781 14.4746 26.2303 14.4746 33.8023C14.4746 41.3742 20.6268 47.5265 28.1988 47.5265C35.7707 47.5265 41.9229 41.3742 41.9229 33.8023C41.9229 26.2303 35.7707 20.0996 28.1988 20.0781ZM28.1988 42.794C23.2512 42.794 19.2286 38.7714 19.2286 33.8238C19.2286 28.8762 23.2512 24.8536 28.1988 24.8536C33.1464 24.8536 37.169 28.8762 37.169 33.8238C37.169 38.7714 33.1464 42.7725 28.1988 42.794Z" fill="#4750EF"/>
<path d="M27.0369 39.527C29.5437 39.527 31.5758 37.4948 31.5758 34.9881C31.5758 32.4813 29.5437 30.4492 27.0369 30.4492C24.5302 30.4492 22.498 32.4813 22.498 34.9881C22.498 37.4948 24.5302 39.527 27.0369 39.527Z" fill="#4750EF"/>
<path d="M27.0371 39.6366C29.6032 39.6366 31.6835 37.5563 31.6835 34.9902C31.6835 32.424 29.6032 30.3438 27.0371 30.3438C24.4709 30.3438 22.3906 32.424 22.3906 34.9902C22.3906 37.5563 24.4709 39.6366 27.0371 39.6366Z" fill="#4750EF"/>
</svg>
