<svg width="66" height="66" viewBox="0 0 66 66" fill="none" xmlns="http://www.w3.org/2000/svg">
<circle cx="32.9183" cy="32.9183" r="32.9183" fill="#F5F5F5"/>
<path d="M41.0417 12H23.8217C20.2683 12 17.3027 13.1753 15.239 15.239C13.1753 17.3027 12 20.2683 12 23.8217V41.0417C12 44.677 13.1753 47.6563 15.2527 49.7473C17.33 51.8383 20.323 53 23.9583 53H41.0417C44.677 53 47.6563 51.8247 49.7473 49.7473C51.8383 47.67 53 44.677 53 41.0417V23.9583C53 20.323 51.8247 17.3437 49.7473 15.2527C47.67 13.1617 44.677 12 41.0417 12Z" fill="#263238"/>
<path d="M37.3653 37.133C37.3517 36.9827 37.2287 36.4087 36.8323 36.395C36.436 36.395 35.6023 36.395 35.6023 36.395C35.6023 36.395 35.0967 36.395 35.0967 36.887C35.1103 37.8437 35.657 38.6637 36.3267 39.2103C36.887 39.675 37.5703 39.921 38.3493 39.921C39.0327 39.9073 39.1147 39.4153 38.7867 39.265C38.24 39.0053 37.5293 38.4313 37.379 37.133H37.3653Z" fill="white"/>
<path d="M41.0417 23.9583C37.5977 23.9583 34.1537 24.792 31.9124 26.145C30.7097 26.8693 29.7804 27.744 29.138 28.7553C28.6187 29.5753 28.277 30.4637 28.154 31.4203C28.113 31.7347 28.0857 32.7187 29.1244 32.9783C29.7667 33.1423 30.778 33.2107 31.4477 33.2927C32.541 33.4157 32.8417 32.1993 32.9374 31.9943C33.7984 29.6163 35.083 28.0173 36.9144 26.965C38.773 25.899 41.274 25.407 44.7864 25.407C45.251 25.407 46.3307 25.4617 46.3307 24.9287C46.3307 23.972 41.684 23.972 41.0417 23.972V23.9583Z" fill="white"/>
<path d="M36.2447 42.012C35.001 41.725 32.91 40.372 32.4317 36.9417C32.336 36.2993 31.9807 35.985 31.434 35.8757C30.7097 35.7253 29.4387 35.657 29.0287 35.616C28.441 35.5613 28.0037 35.903 28.072 36.928C28.195 38.486 28.8237 39.7023 29.876 40.905C31.1197 42.3263 32.7597 43.1463 34.509 43.1053C36.436 43.0643 36.5727 42.7227 36.5863 42.463C36.5863 42.2033 36.4633 42.053 36.2447 41.9983V42.012Z" fill="white"/>
<path d="M31.0103 44.882C29.0833 44.882 25.038 41.7933 25.038 36.9553C25.038 36.108 24.5187 35.247 23.4527 34.9327C22.5917 34.673 21.3617 34.2903 20.5827 34.2493C18.7103 34.1263 18.806 35.6843 18.8607 36.5043C19.0383 39.9347 20.5553 42.832 23.0563 44.472C24.095 45.1553 25.325 45.62 26.7737 45.8933C27.1153 45.9617 28.3317 46.2077 29.5617 46.1667C31.4613 46.0847 31.6527 45.538 31.6527 45.3193C31.6527 45.0323 31.4477 44.8957 31.0103 44.8957V44.882Z" fill="white"/>
<path d="M46.809 20.61C42.217 19.2843 37.2697 18.9017 32.5547 19.3937C27.539 19.9267 21.3343 21.922 19.38 27.8943C19.175 28.5093 18.806 30.7643 20.9653 31.311C21.6623 31.4887 22.373 31.803 23.111 31.9397C25.2157 32.3223 25.6667 30.327 25.7897 29.9307C25.9127 29.548 26.0493 29.179 26.2133 28.7963C26.883 27.3613 27.8807 26.145 29.015 25.202C31.3657 23.234 34.2903 22.3047 37.133 21.8537C38.7867 21.594 40.4403 21.4847 42.094 21.5257C47.1097 21.635 47.6563 22.0177 47.8477 21.471C48.039 20.9243 47.137 20.692 46.809 20.61Z" fill="white"/>
<path d="M42.5313 28.441C36.9827 28.441 35.534 31.229 35.124 33.0877C34.9327 33.9897 35.4793 34.058 35.985 34.1537C36.6957 34.2767 37.2697 34.1673 37.5293 33.484C38.3083 31.3657 39.3743 29.2883 42.75 29.2883C43.0917 29.2883 43.3923 29.0697 43.3923 28.8647C43.3923 28.6597 43.1737 28.441 42.545 28.441H42.5313Z" fill="white"/>
</svg>
