<svg width="66" height="66" viewBox="0 0 66 66" fill="none" xmlns="http://www.w3.org/2000/svg">
<circle cx="32.9183" cy="32.9183" r="32.9183" fill="#F5F5F5"/>
<path d="M28.7437 14.3398H29.2009L29.1437 14.7398L28.9723 15.3113L28.7437 15.8827L27.9437 18.1684V18.6827L28.1723 19.1399L28.5152 19.3685L28.6866 19.4256H29.1437L30.458 18.797L31.3723 18.3399L31.5437 18.2827H32.058L32.458 18.5113L32.6866 18.797L32.8009 18.9684V19.4256L31.258 26.3399V27.0828L31.4866 27.4828L31.8866 27.7114H32.5152L32.858 27.5971H33.258L33.7152 27.8257L34.0009 28.2257L34.058 28.3971V28.7971L33.9438 29.3114V29.9971L34.2866 30.4542L34.6295 30.6257H35.1438L35.5438 30.3971L36.9724 28.9685L37.3724 28.5114L38.1152 27.7685L38.5152 27.3114L38.8581 26.9685H38.9724V26.8542L39.5438 26.7399L40.001 26.8542L40.401 27.1399L40.5152 27.3685V28.2828L40.1724 32.3971V33.0257L40.3438 33.3686L40.6295 33.6543L40.801 33.7114H41.5438L42.0581 33.4829L44.001 32.6257L44.1724 32.5686H44.6867L45.0296 32.74L45.3153 33.0829L45.4296 33.3686L45.4867 36.5115L45.7153 36.9115L46.0582 37.14H46.8582L47.4296 36.6829L48.1725 36.0543L48.801 35.54L49.5439 34.9114H49.6582V34.7972L50.2868 34.2829L51.0296 33.6543L51.6582 33.14L52.0582 32.8543V34.1686L51.9439 35.4257L51.6582 37.0257L51.4296 37.9972L50.8582 39.7115L50.2868 41.0258L49.8296 41.9401L49.2582 42.9687L48.6867 43.8258L48.1725 44.5115L47.7153 45.083L47.0296 45.883L46.401 46.5687L45.9439 46.9687L45.3153 47.5401L44.3439 48.283L43.8296 48.683H43.7153L43.7724 47.6544L44.001 45.0258V44.0544L43.7724 43.5972L43.3153 43.1972L43.0296 43.0829L42.5153 43.0258H42.1724L42.2295 41.8829L42.4581 39.0258L42.401 38.5115L42.1153 38.0543L41.6581 37.7686L41.0867 37.7115L40.4581 37.94L39.1438 38.6257L38.8581 38.74H38.1724L37.7152 38.5115L37.3724 38.1115L37.2009 37.6543L37.2581 37.0829L37.4295 36.3972V35.6543L37.1438 35.1972L36.8581 34.9686L36.5724 34.8543H35.9438L31.258 36.3972L29.658 36.9115L29.0294 36.9686L28.5152 36.74L28.2294 36.4543L28.0009 36.0543V28.4542L27.7723 27.9971L27.3152 27.6542L27.0866 27.5971H26.5723L26.0008 27.7685H25.5437L25.0294 27.54L24.6294 27.0828L24.5151 26.7971V26.1685L24.9723 21.197V20.6827L24.6865 20.1113L24.2865 19.8256L24.058 19.7685H23.4865L22.1151 20.397L20.1151 21.3685L18.8008 21.997L17.3722 22.6828L16.9151 22.9113L16.8008 22.8542L17.3722 21.997L17.8865 21.3113L18.4008 20.6827L18.9151 20.1113L19.3151 19.6542L20.1151 18.8542L20.7437 18.3399L21.6579 17.597L22.7437 16.8541L23.7151 16.2827L24.8008 15.7113L26.2866 15.0827L27.4294 14.6827L28.7437 14.3398Z" fill="#628963"/>
<path d="M18.972 27.4258L19.4863 27.4829L20.0006 27.7686L20.3434 28.1686L20.5149 28.5686V29.3115L19.8863 33.8258V34.3973L20.1149 34.9115L20.4577 35.3116L20.972 35.5401H21.772L22.5149 35.1973H23.3149L23.8863 35.483L24.2292 35.883L24.4006 36.2258V37.1973L23.8863 42.1687V42.7973L24.1149 43.3688L24.6292 43.8259L25.1435 43.9973L25.772 43.9402L26.4578 43.5974L27.4292 42.9688L28.6864 42.1687L29.9435 41.3687L30.8578 40.7973L31.0292 40.7402H31.8864L32.4007 41.0259L32.7435 41.4259L32.915 41.7687L32.9721 44.3402L33.2007 44.9116L33.4864 45.2545L34.0578 45.5402H34.8578L37.3721 44.6831L39.8293 43.8259L42.1722 43.0259L42.6865 42.9688L43.2008 43.083L43.5436 43.3116L43.9436 43.7688L44.0579 44.0545V45.0259L43.7722 48.2831L43.7151 48.7402L42.6293 49.426L41.2579 50.1688L39.7722 50.7974L38.0007 51.3688L36.8007 51.6545L35.4864 51.8831L34.3435 51.9974H31.6578L30.1149 51.826L28.8578 51.5974L27.1435 51.1403L25.772 50.626L24.4006 49.9974L23.3149 49.426L21.9434 48.5117L20.972 47.7688L20.2291 47.1402L19.372 46.3402L18.7434 45.6545L18.0577 44.8545L17.372 43.9402L16.7434 42.9688L16.0577 41.7687L15.4291 40.4545L14.8577 38.9116L14.5148 37.8259L14.1719 36.2258L13.9434 34.5687V31.883L14.0577 30.6258L14.9148 29.9972L16.0577 29.1972L17.0291 28.5115L18.0005 27.8258L18.4577 27.5401L18.972 27.4258Z" fill="#4C1B54"/>
<path d="M23.4853 19.7148H24.0567L24.4567 19.8863L24.7424 20.1148L25.0282 20.6863V21.2006L24.571 26.172V26.8006L24.7996 27.2578L25.1996 27.6006L25.5424 27.7149H25.9996L26.571 27.5435H27.0853L27.4853 27.7149L27.8282 28.0006L28.0568 28.4578V36.0578L28.3425 36.5721L28.6853 36.8007L29.0282 36.915L29.6568 36.8578L34.1711 35.3721L35.9425 34.8007H36.5711L37.0283 35.0293L37.3711 35.4293L37.4854 35.6578V36.4007L37.2568 37.315L37.314 37.8864L37.5997 38.3436L37.8854 38.5721L38.1711 38.6864H38.8568L40.1712 38.0579L40.8569 37.715L41.3712 37.6578L41.8854 37.8293L42.2854 38.1721L42.514 38.6864L42.4569 39.715L42.2283 42.6293L42.1712 43.0865L38.9711 44.1722L36.514 45.0293L34.8568 45.6008H34.0568L33.4854 45.3151L33.1425 44.9151L32.9139 44.3436L32.8568 41.7722L32.5139 41.2007L32.2282 40.9722L31.8854 40.8007H31.0282L30.4568 41.0864L29.3139 41.8293L28.0568 42.6293L26.7996 43.4293L26.0567 43.8865L25.4853 44.0579L24.9139 44.0008L24.4567 43.7722L24.0567 43.3722L23.8282 42.8007V42.1722L24.3424 37.2007V36.2293L23.9996 35.6578L23.7139 35.4293L23.3139 35.2578H22.5139L21.771 35.6007H20.971L20.3995 35.315L20.0567 34.915L19.8281 34.4007V33.8292L20.4567 29.3149V28.5721L20.171 28.0006L19.8281 27.7149L19.4853 27.5435L18.971 27.4863L18.4567 27.6006L17.8281 28.0006L16.7995 28.7435L15.7138 29.4863L14.6852 30.2292L14.0566 30.6292L14.2281 29.4292L14.5138 28.1149L14.9709 26.6292L15.5424 25.2006L16.2852 23.7149L16.7424 22.972L17.0852 22.7434L18.3995 22.1149L19.8281 21.4291L21.2567 20.7434L23.1996 19.8291L23.4853 19.7148Z" fill="#365838"/>
<path d="M31.3725 13.9414H34.5725L36.3439 14.17L36.4011 14.4557L35.9439 20.2843V21.1986L36.1725 21.5986L36.5154 21.8272H37.2011L38.6868 21.0843H39.3725L39.7154 21.3129L39.944 21.6558L40.0011 21.8272V22.2272L39.8297 22.9129V23.4272L40.0583 23.8272L40.5154 24.1129H41.0297L45.8869 22.5129L46.4012 22.4558L46.8583 22.6272L47.2012 23.0843V29.0273L47.4297 29.4844L47.7154 29.713L47.8869 29.7701H48.4583L48.744 29.6558H49.2012L49.544 29.8273L49.8869 30.2273L49.944 30.3987V30.913L49.6012 34.5702L49.544 34.9702L48.6869 35.713L47.944 36.3416L47.3155 36.8559L46.8583 37.1988H46.0583L45.7154 36.9702L45.4869 36.6845L45.4297 36.513L45.3726 33.3702L45.144 32.913L44.8583 32.6844L44.6869 32.6273H44.1726L42.9726 33.1416L41.944 33.5987L41.544 33.7702H40.8011L40.5154 33.5987L40.1726 33.1987L40.1154 33.0273V32.3987L40.4583 28.2844V27.3701L40.4011 27.1415L40.1726 27.0272L39.8868 26.8558L39.4868 26.7987L38.9725 26.8558V26.9701L38.5154 27.3701L37.6582 28.2844L37.0868 28.8558L36.6868 29.313L35.4868 30.513L35.1439 30.6844H34.6296L34.1725 30.3987L33.8868 29.9987V29.313L34.001 28.7987V28.3987L33.7725 27.9415L33.4296 27.713L33.2582 27.6558H32.8582L32.5153 27.7701H31.8868L31.4296 27.4844L31.201 27.0844V26.3415L32.7439 19.4272V18.97L32.401 18.5129L32.0582 18.3415H31.5439L30.6867 18.7415L29.3153 19.4272L29.1439 19.4843H28.6867L28.3439 19.3129L28.0581 19.0843L27.8867 18.6843V18.17L28.8582 15.37L29.0296 14.9129L29.201 14.3414L29.0867 14.2843L29.9439 14.1128L31.3725 13.9414Z" fill="#94C196"/>
<path d="M31.428 12.9727H34.3423L35.9995 13.1441L37.5423 13.4298L38.5709 13.7155L40.1138 14.2298L41.5995 14.8584L43.0281 15.6013L44.1138 16.287L45.0853 16.9727L45.7138 17.487L46.5139 18.1727L47.0281 18.687L47.3139 18.9156L47.7139 19.3727L48.3425 20.0584L48.971 20.8584L49.5996 21.7156L50.2853 22.8013L51.0282 24.1728L51.7139 25.7156L52.2853 27.4299L52.6853 29.0299L52.8568 30.0014L53.0282 31.7157V34.3443L52.8568 35.7729L52.571 37.3729L52.2853 38.4586L51.7139 40.1729L51.0853 41.6015L50.2853 43.1444L49.371 44.5158L48.6853 45.4301L47.9424 46.2872L47.3139 46.973L46.4567 47.8301L45.8281 48.3444L44.971 49.0301L43.8853 49.773L42.8567 50.4016L41.5424 51.0873L40.2281 51.6587L38.3995 52.2873L36.8566 52.6301L35.3709 52.8587L33.9423 52.973H31.7137L29.3137 52.6873L27.5994 52.2873L25.7137 51.6587L24.5708 51.1444L23.6565 50.6873L22.6851 50.173L21.6565 49.4873L20.5708 48.6873L19.8279 48.0587L19.2565 47.5444L18.0565 46.3444L17.5422 45.7158L16.9707 45.0301L16.285 44.0586L15.4279 42.6301L14.7993 41.4301L14.1707 39.8872L13.7707 38.7443L13.3136 36.9157L13.0279 35.1443L12.9707 34.1728V31.8871L13.085 30.5157L13.1993 29.5442L13.5421 28.0014L13.9993 26.5156L14.4565 25.3156L14.9707 24.1728L15.6565 22.8585L16.3993 21.7156L17.0279 20.8584L17.6565 20.0584L18.1708 19.487L18.5708 19.0299L19.1994 18.4013L19.6565 18.0013L20.4565 17.3156L21.5994 16.4584L22.6851 15.7727L23.5994 15.2584L24.5137 14.8013L25.6565 14.287L27.1423 13.7727L28.3994 13.4298L29.8851 13.1441L31.428 12.9727ZM31.3709 13.9441L29.9423 14.1155L28.7423 14.3441L27.2566 14.7441L25.828 15.2584L24.2279 16.0013L22.9136 16.7441L22.2279 17.2013L21.3136 17.887L20.3993 18.6299L19.6565 19.3156L18.9708 20.0013L18.5708 20.4584L17.7707 21.4299L16.9707 22.5728L16.1707 23.9442L15.485 25.3156L14.9136 26.8014L14.5136 28.1157L14.1707 29.6585L13.9993 31.03L13.9421 31.8871V34.5728L14.1707 36.23L14.5136 37.83L15.1993 39.8872L15.7707 41.2015L16.4565 42.5158L17.1422 43.6015L17.7136 44.4015L18.4565 45.3158L19.0851 46.0015L19.7136 46.6872L20.4565 47.373L21.2565 48.0015L22.1708 48.6873L23.1422 49.3158L24.3994 50.0016L25.4851 50.5158L26.9708 51.0873L27.9423 51.373L29.3708 51.7159L30.9709 51.9444L31.6566 52.0016H34.3423L35.828 51.8302L37.2566 51.5444L38.3995 51.2587L40.0567 50.6873L41.4852 50.0587L42.7424 49.373L43.8853 48.6301L44.8567 47.8873L45.4853 47.373L46.171 46.7444L46.6281 46.3444L47.0281 45.8872L47.5996 45.2587L48.2282 44.4586L48.971 43.4301L49.4853 42.5729L50.171 41.3158L50.8567 39.7158L51.3139 38.3443L51.5425 37.5443L51.8282 36.1157L51.9996 34.8586L52.0568 34.1728V31.5443L51.8282 29.7157L51.4853 28.1728L51.1996 27.2014L50.7996 26.0585L50.2853 24.8585L49.5425 23.4299L48.8567 22.3442L48.2853 21.5442L47.5424 20.6299L47.0281 20.0584L46.6281 19.6013L46.1138 19.087L45.6567 18.687L44.8567 18.0013L43.9995 17.3727L43.1424 16.8013L42.0567 16.1727L41.1424 15.7156L39.8281 15.1441L38.3424 14.6298L37.1995 14.3441L35.8852 14.1155L34.5709 13.9441H31.3709Z" fill="#FDFCFB"/>
<path d="M36.401 14.2266L37.201 14.3409L38.3439 14.6266L40.1153 15.2551L41.2582 15.7694L42.1725 16.2266L43.1439 16.798L43.8297 17.2552L44.6297 17.8266L45.3725 18.4552L45.944 18.9695L46.5154 19.4838L46.9725 19.9409L47.3725 20.398L48.1726 21.3695L48.8583 22.3409L49.4297 23.2552L50.0011 24.2838L50.6297 25.5981L51.0869 26.7981L51.3725 27.8267L51.6583 28.8553L51.8869 30.1124L52.0583 31.541V32.8553L51.2012 33.5982L50.4583 34.2267L49.8297 34.741L49.6583 34.7982V34.9124H49.544L49.6011 33.941L49.8869 30.9124V30.3981L49.7154 30.0553L49.3726 29.7695L49.2011 29.7124H48.744L48.4583 29.8267H47.8868L47.4868 29.5981L47.2582 29.3124L47.144 29.0267V23.0838L46.8582 22.6838L46.4011 22.5124L45.8868 22.5695L43.3153 23.4266L41.0296 24.1695H40.5153L40.0582 23.8838L39.8296 23.5981L39.7725 23.4266V22.9123L39.9439 22.2266V21.8266L39.7153 21.3695L39.3725 21.1409H38.6867L37.201 21.8838H36.5153L36.0582 21.5409L35.8867 21.198V20.2838L36.3439 14.4552L36.401 14.2266Z" fill="#CEFFCE"/>
<path d="M12.9714 31.3164H13.0286V34.1736L13.1429 35.6022L13.4286 37.2022L13.7143 38.345L14.2286 39.8879L14.7429 41.1451L15.3143 42.3451L16.2286 43.8879L16.9143 44.8594L17.5429 45.6594L18.0572 46.2308L18.4572 46.688L19.6572 47.888L20.2858 48.4023L21.3144 49.2023L22.5144 50.0023L23.543 50.5737L24.4573 51.0309L25.4287 51.488L27.0287 52.0594L28.5144 52.4595L29.7144 52.688L31.7145 52.9166H33.943L35.8288 52.7452L37.7145 52.4023L38.5145 52.1737L40.5145 51.488L41.6574 50.9737L43.086 50.2308L43.6003 49.9451V51.088L42.5717 51.6594L40.9717 52.4023L39.2574 53.0309L37.9431 53.3737L36.5716 53.6595L35.4859 53.8309L33.4288 53.9452H31.7716L30.6287 53.8309L29.2573 53.6595L27.8287 53.3166L26.743 53.0309L25.4287 52.5737L24.0001 51.9452L22.743 51.3166L21.4287 50.5166L20.5144 49.8309L19.8286 49.3166L19.0858 48.688L18.5143 48.1737L17.4286 47.088L16.9143 46.4594L16.2858 45.7165L15.5429 44.688L14.5715 43.0879L14.1143 42.1736L13.6 41.0879L13.0286 39.4879L12.8 38.8593L12.5143 37.7736L12.2286 36.2307L12.1143 35.6022L12 34.1164V31.945L12.9714 31.3164Z" fill="#16064E"/>
<path d="M36.3423 12.2305L37.8852 12.5162L39.0852 12.8591L40.5709 13.3734L42.0566 14.0019L43.3709 14.6877L44.5709 15.4305L45.5424 16.1162L46.4567 16.8591L47.2567 17.5448L48.6853 18.9734L49.1996 19.602L49.9424 20.5163L50.7424 21.7163L51.2567 22.5734L51.9424 23.8306L52.5139 25.1449L53.0282 26.5735L53.4853 28.1735L53.771 29.6592L53.9425 31.0878V31.3164H53.8282V31.4307L53.371 31.8307L53.0282 32.0592L52.7424 29.6592L52.3996 28.0592L51.9424 26.5163L51.4853 25.3163L50.8567 23.9449L50.171 22.6877L49.2567 21.3163L48.6853 20.5734L48.0567 19.8306L47.5424 19.2591L47.1424 18.802L46.6853 18.402L45.8852 17.6591L45.0852 17.0305L44.1138 16.3448L42.9138 15.6019L41.3709 14.8019L39.8281 14.1733L38.4566 13.7162L37.1995 13.4305L36.2852 13.2591L36.3995 13.2019L36.3423 12.2305Z" fill="#F9F9FB"/>
<path d="M53.8282 31.3164H53.9425L53.9997 31.7736V34.2307L53.8282 35.7736L53.5997 37.0879L53.3711 38.1165L53.1425 39.0308L52.5711 40.6308L51.8854 42.1736L51.2568 43.3736L50.6282 44.4022L49.9425 45.3737L49.3139 46.1737L48.6282 46.9737L47.771 47.888L47.3139 48.3451L46.8567 48.7451L46.1139 49.3737L45.1996 50.0594L44.3424 50.6309L43.7139 51.0309H43.5996V49.888L44.2282 49.488L45.2567 48.7451L45.8853 48.2308L46.6853 47.5451L47.7139 46.5165L48.2282 45.888L48.6853 45.3737L49.4854 44.288L50.1139 43.3165L50.7996 42.0593L51.4282 40.7451L51.9997 39.2022L52.4568 37.6593L52.7425 36.1736L52.914 34.9164L52.9711 34.345L53.0282 32.0593L53.7139 31.4307H53.8282V31.3164Z" fill="#8E87A8"/>
<path d="M30.0568 12.1719L30.1711 12.229L29.8854 12.9147L29.7711 13.2004L27.7139 13.6576L26.2853 14.1147L25.1425 14.5719L23.8853 15.1433L22.8568 15.7148L21.771 16.4005L20.6853 17.2005L19.8853 17.8862L19.4282 18.2862L18.7424 18.9148L18.2853 19.3719L17.771 20.0005L17.1996 20.6862L16.4567 21.7148L15.8281 22.6863L15.2567 23.7148L15.0853 23.9434V23.8291L13.8853 24.4577L13.8281 24.2862L14.5139 22.9148L15.1996 21.7719L15.9424 20.6862L16.5138 19.9433L16.971 19.3719L17.5424 18.7433L17.9424 18.2862L18.3424 17.8862L18.7996 17.4862L19.4282 16.9148L20.2282 16.2862L20.971 15.7148L22.0568 15.029L23.1425 14.4005L24.7996 13.6004L26.2853 13.029L27.314 12.7433L27.8282 12.5719L29.4854 12.229L30.0568 12.1719Z" fill="#8E87A8"/>
<path d="M14.9715 23.8242H15.0857L15.0286 24.1671L14.4572 25.4242L13.9429 26.8528L13.6 27.9957L13.2572 29.5385L13.0286 31.31L12.1714 31.8814L12 31.9386L12.0571 30.7957L12.2286 29.4814L12.5143 28.2242L12.8 27.0814L13.3143 25.5385L13.7714 24.4528L14.9715 23.8242Z" fill="#787099"/>
<path d="M31.4287 12H34.343L36.1716 12.1714L36.4001 12.2857V13.2L35.543 13.1429L34.343 13.0286H31.4287L29.7715 13.2L29.8286 12.9143L30.1144 12.2286L30.2858 12.1143L31.4287 12Z" fill="#BCB8CD"/>
<path d="M33.7639 45.4249C33.4263 45.2606 33.1887 44.9853 33.0402 44.5864C32.9263 44.2804 32.9215 44.2271 32.899 43.0125L32.8758 41.7553L32.7057 41.4745C32.5128 41.1562 32.4431 41.0871 32.1252 40.8988C31.9184 40.7763 31.863 40.7648 31.4795 40.7644C31.0905 40.764 31.0372 40.7754 30.7489 40.9205C30.5779 41.0067 30.2024 41.2301 29.9144 41.4171C29.2091 41.875 27.022 43.2666 26.5049 43.5865C25.9314 43.9413 25.6519 44.0343 25.2443 44.006C24.8474 43.9784 24.5627 43.842 24.2684 43.5384C23.9667 43.2272 23.8695 42.9503 23.8697 42.4021C23.8699 42.1604 23.9818 40.8852 24.1186 39.5683C24.2553 38.2514 24.3672 36.9623 24.3672 36.7037C24.3672 36.2364 24.3661 36.2317 24.1873 35.9316C23.8753 35.408 23.5714 35.2451 22.9061 35.2451C22.5206 35.2451 22.4611 35.2577 22.157 35.4035C21.8477 35.5516 21.7978 35.5618 21.3766 35.5618C20.9693 35.5618 20.9019 35.5493 20.6649 35.4296C20.2001 35.195 19.8436 34.6278 19.8436 34.123C19.8436 33.9799 19.9859 32.8456 20.1599 31.6023C20.53 28.957 20.5448 28.6822 20.3394 28.2752C19.9532 27.5101 19.054 27.2569 18.2785 27.6949C18.1517 27.7665 17.6813 28.085 17.2333 28.4026C14.6759 30.2153 14.1569 30.5688 14.115 30.5269C14.1052 30.5171 14.1382 30.2363 14.1881 29.9028C14.5094 27.7588 15.3136 25.4855 16.4414 23.5333C16.6589 23.1569 16.789 22.9826 16.9231 22.8884C17.0891 22.7717 19.5414 21.5794 22.3316 20.2588C23.3186 19.7916 23.4173 19.7544 23.7113 19.7388C23.9774 19.7248 24.0677 19.7405 24.2767 19.8372C24.6119 19.9922 24.6958 20.0729 24.8602 20.3986C25.048 20.7706 25.047 20.8106 24.7743 23.7551C24.6499 25.0986 24.5481 26.3307 24.5481 26.4932C24.5481 26.7299 24.5743 26.84 24.6798 27.0474C24.9897 27.6565 25.578 27.8728 26.3051 27.6449C27.0012 27.4267 27.6258 27.6564 27.9212 28.2393L28.0313 28.4567V32.2449V36.0332L28.177 36.3142C28.2957 36.5431 28.3689 36.6231 28.5717 36.7457C28.8073 36.8882 28.8426 36.896 29.2289 36.8917C29.6345 36.8872 29.6584 36.8802 32.757 35.8626C35.7764 34.8709 35.8884 34.838 36.2401 34.8379C36.7718 34.8377 37.0795 35.0187 37.3837 35.5107C37.5272 35.7428 37.5217 36.1963 37.3679 36.7976C37.2065 37.4286 37.23 37.7959 37.4539 38.1444C37.7174 38.5546 38.0354 38.7283 38.5225 38.7283C38.8139 38.7283 38.8605 38.711 39.8519 38.2339C41.0121 37.6756 41.2024 37.624 41.61 37.7569C41.9543 37.8693 42.2214 38.1023 42.3729 38.4227C42.5196 38.733 42.5244 38.4801 42.322 41.1354C42.2487 42.0985 42.1724 42.9305 42.1525 42.9842C42.1223 43.0658 41.7653 43.2019 39.9707 43.8159C38.7905 44.2198 37.1715 44.7772 36.3728 45.0546L34.9206 45.559L34.4729 45.5555C34.0782 45.5525 33.9941 45.537 33.7639 45.4249Z" fill="#787099"/>
<path d="M43.7734 48.5729C43.7734 48.538 43.8447 47.7029 43.9318 46.7169C44.1062 44.7419 44.1257 44.1498 44.0244 43.9072C43.9391 43.7032 43.6152 43.3268 43.404 43.1863C43.1752 43.034 42.7252 42.9384 42.4272 42.9787C42.2228 43.0064 42.1922 43.0008 42.2105 42.9398C42.2302 42.8739 42.477 39.7479 42.5203 39.0157C42.5368 38.7374 42.5224 38.6525 42.4195 38.42C42.2719 38.0865 41.9793 37.8295 41.6174 37.7154C41.1931 37.5816 41.0132 37.6299 39.8494 38.1901C38.8577 38.6675 38.8124 38.6843 38.5198 38.6843C38.0138 38.6843 37.6811 38.4817 37.4302 38.0207C37.2739 37.7333 37.2612 37.3837 37.3887 36.8749C37.4967 36.4436 37.5219 35.6709 37.4334 35.5035C37.3215 35.2919 37.0164 34.9929 36.8149 34.8974C36.6531 34.8208 36.5189 34.7969 36.2432 34.7956C35.8932 34.7941 35.7925 34.8237 32.7599 35.8218L29.6372 36.8496L29.2292 36.8509C28.8428 36.8522 28.8087 36.8443 28.5858 36.7014C28.4138 36.5911 28.3136 36.4824 28.2135 36.2975L28.0765 36.0446V32.2515V28.4584L27.9442 28.1996C27.7981 27.9138 27.6234 27.7558 27.2904 27.6086C27.013 27.4859 26.6983 27.4836 26.3123 27.6015C25.5822 27.8244 25.0124 27.6172 24.709 27.0186C24.5495 26.7038 24.5536 26.5797 24.8195 23.7022C24.9439 22.3557 25.0457 21.1245 25.0457 20.9661C25.0457 20.7284 25.0187 20.6245 24.8912 20.3714C24.6498 19.8921 24.2427 19.6605 23.6995 19.6935C23.4212 19.7105 23.2938 19.7598 22.241 20.2579C19.9734 21.3309 17.0605 22.7307 17.0038 22.7746C16.8442 22.8985 16.9297 22.716 17.2574 22.2329C17.949 21.2138 19.1215 19.8459 19.9857 19.0501C22.3402 16.882 25.0865 15.3528 28.0616 14.5535C28.7934 14.3569 29.1622 14.301 29.1622 14.3864C29.1622 14.4336 29.0133 14.8715 28.3537 16.7652C27.9683 17.8718 27.8504 18.264 27.8507 18.4389C27.8519 19.0233 28.3355 19.504 28.9224 19.5043C29.1662 19.5044 29.2669 19.4645 30.3466 18.9389C31.4463 18.4035 31.5232 18.3733 31.7847 18.3733C32.1413 18.3733 32.3468 18.479 32.5662 18.7752C32.6976 18.9527 32.7358 19.0462 32.7358 19.1904C32.7358 19.2928 32.3898 20.926 31.9668 22.8197C31.2633 25.9698 31.1979 26.2996 31.1985 26.6947C31.1994 27.2195 31.2865 27.4103 31.6288 27.6379C31.8751 27.8016 31.8565 27.8006 32.9966 27.7105C33.3017 27.6863 33.34 27.6936 33.5318 27.8126C33.6834 27.9067 33.7734 28.0095 33.8704 28.1996C34.018 28.4889 34.029 28.6318 33.9337 29.0264C33.8976 29.1757 33.8678 29.457 33.8674 29.6516C33.8668 29.9724 33.8795 30.0239 34.0046 30.2057C34.0805 30.3159 34.2539 30.4774 34.39 30.5644C34.5962 30.6964 34.6791 30.7228 34.8872 30.7228C35.0453 30.7228 35.2002 30.6905 35.3094 30.6348C35.4108 30.583 36.029 29.9817 36.8091 29.1759C37.539 28.4219 38.3257 27.6189 38.5573 27.3915C38.7889 27.1641 38.9784 26.9569 38.9784 26.9311C38.9784 26.8664 39.4316 26.8155 39.6783 26.8525C39.8923 26.8846 40.2741 27.0694 40.3694 27.1871C40.4678 27.3085 40.4344 28.3364 40.2676 30.3157C40.1807 31.3482 40.1095 32.4105 40.1094 32.6765L40.1093 33.16L40.2959 33.3776C40.5943 33.7257 40.7464 33.7983 41.1773 33.7986C41.5279 33.7988 41.5718 33.7866 42.1725 33.5222C44.0875 32.6793 44.1182 32.6679 44.4713 32.6679C44.7597 32.6679 44.8188 32.6829 44.961 32.7923C45.0542 32.864 45.1716 33.0221 45.238 33.1655C45.3521 33.4119 45.3536 33.43 45.3889 35.0238L45.4245 36.6333L45.5503 36.7981C45.6195 36.8887 45.7656 37.0245 45.8751 37.0998C46.0601 37.2271 46.1024 37.2367 46.4731 37.236L46.8721 37.2352L47.4214 36.7949C47.9432 36.3767 49.2153 35.3006 49.4868 35.0477C49.5565 34.9828 49.6329 34.9298 49.6565 34.9298C49.6801 34.9298 49.6994 34.8992 49.6994 34.8619C49.6994 34.8246 49.7226 34.794 49.7509 34.794C49.8156 34.794 50.2187 34.4687 51.2533 33.5817L52.0651 32.8855L52.0377 33.7606C52.001 34.9305 51.7915 36.4257 51.5031 37.576C51.2384 38.6322 50.5474 40.4772 50.0339 41.499C49.0173 43.5221 47.4871 45.5431 45.8963 46.9639C45.2665 47.5264 43.8806 48.6358 43.8073 48.6361C43.7887 48.6363 43.7734 48.6077 43.7734 48.5729Z" fill="#8E87A8"/>
<path d="M45.8749 37.0537C45.7754 36.9829 45.6431 36.8565 45.5809 36.773C45.4722 36.6271 45.4667 36.5867 45.4383 35.7391C45.422 35.2539 45.4067 34.5256 45.4043 34.1206C45.4001 33.401 45.3969 33.3782 45.268 33.1229C45.0759 32.7423 44.8775 32.6178 44.4629 32.6178C44.1175 32.6178 44.0783 32.6324 42.1705 33.4721C41.5681 33.7372 41.5267 33.7487 41.1707 33.7487C40.8336 33.7487 40.7829 33.7367 40.6201 33.6187C40.5215 33.5473 40.3759 33.407 40.2967 33.3069C40.1547 33.1277 40.1526 33.1177 40.1526 32.6339C40.1527 32.3638 40.2239 31.298 40.3109 30.2655C40.4565 28.5363 40.5043 27.4377 40.4436 27.2119C40.4146 27.1038 39.9341 26.8423 39.6881 26.8008C39.4415 26.7591 38.9312 26.8211 38.9312 26.8928C38.9312 26.9248 38.6812 27.2031 38.3756 27.5112C38.0701 27.8194 37.2938 28.6171 36.6505 29.2838C35.9664 29.9929 35.4091 30.5327 35.308 30.5843C35.1997 30.6396 35.0454 30.6722 34.8957 30.6716C34.5973 30.6703 34.257 30.4741 34.0448 30.1811C33.8881 29.9646 33.8875 29.9509 33.981 28.7461C34.0071 28.4098 33.9997 28.361 33.8899 28.1445C33.8054 27.9777 33.7083 27.8691 33.5575 27.7728C33.3586 27.6457 33.3235 27.6383 33.0279 27.6615C31.8786 27.7515 31.9091 27.7528 31.6649 27.6026C31.3258 27.3939 31.241 27.2084 31.241 26.6748C31.241 26.2884 31.2933 26.0066 31.7137 24.1252C31.9737 22.9618 32.3198 21.4121 32.4827 20.6815C32.6457 19.9509 32.7791 19.2709 32.7791 19.1702C32.7791 19.0267 32.7398 18.9353 32.5969 18.746C32.363 18.4362 32.1448 18.3232 31.7807 18.3232C31.5164 18.3232 31.4449 18.3514 30.3473 18.8886C29.2664 19.4177 29.1749 19.454 28.9255 19.454C28.346 19.454 27.8971 19.0106 27.8945 18.4358C27.8938 18.263 28.0076 17.8816 28.3736 16.8299C29.0327 14.9358 29.1923 14.4666 29.2118 14.3652C29.2325 14.2577 29.4777 14.2016 30.4921 14.0724C31.1083 13.9939 31.4709 13.9805 32.9835 13.9805C34.7404 13.9805 35.013 13.9969 36.051 14.1658L36.3599 14.216L36.3332 14.4262C36.2704 14.9204 35.8551 20.4529 35.8551 20.7949C35.8551 21.2745 35.9524 21.4903 36.2754 21.7272C36.4961 21.8889 36.523 21.8968 36.86 21.8968C37.2112 21.8968 37.2175 21.8947 37.936 21.5349L38.6587 21.173H39.0218C39.4753 21.173 39.637 21.2636 39.8087 21.6137C39.9519 21.9056 39.9565 22.1032 39.8317 22.5904C39.6983 23.1112 39.7227 23.4894 39.9046 23.7206C40.115 23.9878 40.5022 24.2038 40.7709 24.2038C40.9369 24.2038 41.615 23.9991 43.4565 23.3932C44.8115 22.9473 46.0321 22.5698 46.169 22.5543C46.5157 22.5151 46.7978 22.6289 46.9812 22.882L47.1189 23.0722V26.056C47.1189 28.2993 47.1326 29.0713 47.1739 29.1664C47.3545 29.5815 47.7515 29.8572 48.1698 29.8579C48.3123 29.8581 48.5113 29.8254 48.6119 29.7851C48.7342 29.7362 48.8817 29.7182 49.0566 29.7309C49.2715 29.7464 49.353 29.7777 49.5126 29.9059C49.7511 30.0974 49.8782 30.3354 49.8787 30.5917C49.8789 30.6984 49.8079 31.5694 49.7209 32.5273C49.6339 33.4851 49.5504 34.4275 49.5355 34.6213L49.5084 34.9738L48.6265 35.7283C48.1415 36.1433 47.5412 36.6412 47.2926 36.8347L46.8406 37.1866L46.4482 37.1846C46.0911 37.1828 46.0396 37.171 45.8749 37.0537Z" fill="#BCB8CD"/>
<path d="M49.5806 34.5115C49.5963 34.3062 49.6846 33.317 49.7768 32.3131L49.9443 30.488L49.8105 30.2366C49.6271 29.892 49.3755 29.717 49.0275 29.6918C48.8426 29.6784 48.7219 29.6944 48.6232 29.7455C48.5367 29.7902 48.3704 29.8183 48.1919 29.8183C47.7456 29.8183 47.4031 29.5901 47.2211 29.1715C47.1798 29.0764 47.1661 28.3071 47.1661 26.0738V23.1025L47.0206 22.8893C46.7479 22.4897 46.2958 22.414 45.6132 22.6536C45.4432 22.7133 44.3378 23.0775 43.1566 23.4629C40.7077 24.2621 40.6968 24.2642 40.2885 24.0088C39.9208 23.7788 39.8203 23.6198 39.8006 23.2364C39.7894 23.0172 39.8135 22.806 39.879 22.5503C40.005 22.0579 39.9989 21.9035 39.8409 21.5953C39.6514 21.2256 39.4875 21.1329 39.0237 21.1329H38.6607L37.938 21.4948C37.2181 21.8553 37.2138 21.8567 36.8593 21.8567C36.5212 21.8567 36.4928 21.8487 36.2931 21.6961C35.9782 21.4557 35.9023 21.2711 35.9023 20.7459C35.9023 20.3198 36.3309 14.6274 36.3815 14.3814C36.3956 14.313 36.4208 14.2574 36.4374 14.2578C36.4541 14.2583 36.651 14.2869 36.8749 14.3214C38.4018 14.5567 40.914 15.5186 42.6259 16.5235C43.2355 16.8813 44.4304 17.6995 44.8365 18.0371C45.5436 18.6251 46.7444 19.7267 47.0351 20.0541C48.4185 21.6124 49.3847 23.0672 50.2896 24.9541C50.7529 25.9201 51.0374 26.6969 51.3669 27.8957C51.7925 29.4443 52.0516 31.0928 52.0516 32.2526V32.839L51.3165 33.4678C50.1268 34.4855 49.7994 34.749 49.7247 34.749C49.6859 34.749 49.6541 34.7795 49.6541 34.8169C49.6541 34.8542 49.6311 34.8847 49.603 34.8847C49.5669 34.8847 49.5603 34.7755 49.5806 34.5115Z" fill="#F9F9FB"/>
<path d="M30.9331 51.8886C29.3498 51.6917 27.7552 51.3228 26.5264 50.8692C24.7757 50.2229 22.8428 49.1482 21.2721 47.9479C20.447 47.3173 18.8026 45.6815 18.0728 44.7653C15.9968 42.159 14.5765 38.8191 14.0997 35.4229C13.9854 34.6082 13.9498 32.2322 14.0366 31.2052L14.0835 30.6507L14.6404 30.2789C14.9468 30.0745 15.7079 29.5459 16.3318 29.1044C18.4657 27.5946 18.7364 27.4441 19.1635 27.5313C19.2565 27.5503 19.4124 27.5822 19.5099 27.6023C19.98 27.6993 20.4305 28.3515 20.4304 28.9352C20.4304 29.128 20.2823 30.3397 20.1014 31.6278C19.9204 32.9159 19.7722 34.0562 19.772 34.1618C19.7713 34.6321 20.1966 35.2439 20.7013 35.4985C21.0374 35.668 21.7542 35.6537 22.1138 35.4702C22.3218 35.3641 22.5451 35.3239 22.9256 35.3239C23.5589 35.3239 23.8547 35.4757 24.1271 35.9405C24.3719 36.3582 24.3664 36.6385 24.0533 39.6734C23.9124 41.0392 23.7971 42.2983 23.7971 42.4714C23.7971 42.8399 23.9748 43.3395 24.1925 43.5831C24.5472 43.9799 25.2503 44.1615 25.7961 43.9973C25.9702 43.9449 27.1314 43.2534 28.3765 42.4607C29.6216 41.668 30.7514 40.973 30.8872 40.9163C31.5463 40.6407 32.2989 40.8873 32.6475 41.493C32.8085 41.7726 32.8242 41.8923 32.8516 43.0428C32.8913 44.7126 33.0481 45.1345 33.7663 45.5039C34.2707 45.7633 34.6705 45.701 36.4341 45.0881C37.3132 44.7826 38.6021 44.3382 39.2982 44.1006C39.9944 43.863 40.9954 43.5177 41.5228 43.3333C42.749 42.9044 43.0043 42.9185 43.5794 43.4471L43.9608 43.7977L43.9844 44.5194C43.9974 44.9163 43.9398 45.9931 43.8563 46.9123C43.7729 47.8315 43.7047 48.6108 43.7047 48.644C43.7047 48.7053 42.6342 49.3772 41.8408 49.8138C40.2072 50.7127 37.5459 51.5515 35.4364 51.8324C34.7312 51.9263 31.5548 51.966 30.9331 51.8886Z" fill="#16064E"/>
<path d="M31.3003 53.8752C31.1796 53.8572 30.669 53.7922 30.1659 53.7306C28.0026 53.466 25.6481 52.7274 23.4587 51.6266C20.7546 50.2671 17.9145 47.8407 16.0186 45.2704C14.651 43.4163 13.3278 40.6321 12.6848 38.256C12.2714 36.7283 12.0151 34.7036 12.0176 32.9864L12.0191 31.9983L12.4359 31.7421C12.6652 31.6012 12.8738 31.4765 12.8994 31.465C12.925 31.4534 12.9655 32.2439 12.9894 33.2215C13.0356 35.1113 13.0868 35.6234 13.3737 37.0655C13.8924 39.672 15.2511 42.7037 16.8595 44.843C18.8773 47.527 21.0212 49.3287 23.9696 50.8186C26.2623 51.977 28.0119 52.508 30.5668 52.8205C33.4495 53.1731 36.5711 52.865 39.2414 51.9644C40.6541 51.4879 41.4032 51.1677 42.6542 50.5059L43.5663 50.0233L43.5446 50.5529L43.523 51.0825L43.0472 51.3493C40.9824 52.5076 38.4796 53.336 35.8381 53.7355C35.1313 53.8424 31.7745 53.9458 31.3003 53.8752Z" fill="#122F16"/>
</svg>
