<svg width="66" height="66" viewBox="0 0 66 66" fill="none" xmlns="http://www.w3.org/2000/svg">
<circle cx="32.9183" cy="32.9183" r="32.9183" fill="#F5F5F5"/>
<path d="M35.2449 19.2495C44.4985 19.2495 52 26.7735 52 36.0549C52 45.3362 44.4985 52.8603 35.2449 52.8603C25.9914 52.8603 18.4898 45.3362 18.4898 36.0549C18.4898 26.7735 25.9913 19.2495 35.2449 19.2495ZM33.3855 29.9589C32.6735 28.3435 31.8405 27.333 29.8242 27.7619C27.9978 28.1504 27.8529 30.3435 28.1267 31.332C28.4005 32.3207 29.5505 36.8232 29.4411 38.9103C29.3316 40.9974 30.5768 41.901 31.8157 42.0259C33.0546 42.1508 34.5927 40.9975 34.7521 38.9103C34.9115 36.8231 34.4911 32.4677 33.3855 29.9589ZM45.8674 29.2998C45.2507 27.9224 43.7319 26.7689 42.4769 27.1055C41.2218 27.4422 40.5992 29.1638 41.0978 30.4677C41.5964 31.7718 42.4769 35.5611 42.4769 37.6478C42.4769 39.7345 43.6453 40.3479 44.7764 40.4067C45.9076 40.4654 47.3027 39.1922 47.3613 36.9096C47.4199 34.6269 46.4149 30.5229 45.8674 29.2998Z" fill="black"/>
<path d="M18.9827 21.9954C21.7346 21.9954 23.9654 19.7579 23.9654 16.9977C23.9654 14.2375 21.7346 12 18.9827 12C16.2308 12 14 14.2375 14 16.9977C14 19.7579 16.2308 21.9954 18.9827 21.9954Z" fill="black"/>
</svg>
