<svg width="66" height="66" viewBox="0 0 66 66" fill="none" xmlns="http://www.w3.org/2000/svg">
<circle cx="32.9183" cy="32.9183" r="32.9183" fill="#F5F5F5"/>
<g clip-path="url(#clip0_405_12)">
<path d="M28.3162 45.3306L28.3123 45.3286C26.1748 44.3723 24.3391 42.8501 23.0035 40.9266C21.6678 39.0031 20.883 36.7513 20.7338 34.4143C20.7225 34.189 20.625 33.9766 20.4615 33.8211C20.2981 33.6655 20.0811 33.5788 19.8555 33.5788L19.0404 33.5701C18.0464 33.5591 17.0961 33.1596 16.393 32.4569L15.8055 31.8694C15.6853 31.7493 15.5328 31.6666 15.3665 31.6313C15.2001 31.5959 15.0272 31.6095 14.8685 31.6705C14.7097 31.7314 14.5721 31.837 14.4721 31.9746C14.3721 32.1121 14.3141 32.2755 14.3051 32.4453V32.4469C14.2837 32.821 14.2729 33.1981 14.2729 33.5781C14.2729 41.2322 18.7268 47.8469 25.1837 50.9687C25.3566 51.0525 25.5309 51.1337 25.7067 51.2123L25.7667 51.2393C25.9235 51.3026 26.0951 51.3194 26.2612 51.2877C26.4273 51.2559 26.5807 51.1772 26.7031 51.0606C26.7134 51.0507 26.7231 51.041 26.7331 51.0307L28.6156 49.1478C28.7429 49.0204 28.8145 48.8477 28.8146 48.6677V46.1212C28.8141 45.9558 28.7671 45.794 28.679 45.6542C28.5908 45.5145 28.4651 45.4022 28.3162 45.3306Z" fill="url(#paint0_linear_405_12)"/>
<path d="M36.7994 33.5932C36.8039 32.7617 36.4853 31.9609 35.9107 31.3598C35.9085 31.3572 35.9062 31.3548 35.9037 31.3527L35.8072 31.2562C35.8051 31.2537 35.8027 31.2514 35.8002 31.2492L33.3636 28.8126L28.813 24.262V20.8057C28.813 19.7508 28.3939 18.7392 27.6479 17.9934L23.0627 13.4081C22.8697 13.215 22.6238 13.0835 22.356 13.0302C22.0883 12.9769 21.8108 13.0042 21.5586 13.1087C21.3064 13.2132 21.0908 13.3902 20.9392 13.6172C20.7876 13.8442 20.7067 14.1111 20.7068 14.3841V20.707H14.3841C14.1151 20.707 13.8519 20.7855 13.627 20.9331C13.4021 21.0806 13.2251 21.2907 13.118 21.5375C13.0109 21.7843 12.9783 22.057 13.0241 22.3221C13.0699 22.5871 13.1922 22.833 13.376 23.0295L17.9954 27.6489C18.7412 28.3948 19.7528 28.8138 20.8077 28.8138H24.2646L28.8142 33.3632L31.247 35.7959L31.2515 35.8008L31.3607 35.91L31.3656 35.9145C31.9663 36.4865 32.7652 36.8033 33.5946 36.7986C35.3522 36.7912 36.7923 35.3524 36.7994 33.5932Z" fill="url(#paint1_linear_405_12)"/>
<path d="M52.7716 31.4318C52.5769 29.6684 52.1385 27.9405 51.4691 26.2975C48.5945 19.2435 41.6673 14.2716 33.581 14.2716C33.2082 14.2716 32.8381 14.2823 32.4707 14.3037H32.464C32.297 14.3137 32.1362 14.3711 32.0007 14.4692C31.8651 14.5673 31.7604 14.7019 31.6987 14.8574C31.6369 15.0129 31.6209 15.1828 31.6522 15.3471C31.6836 15.5115 31.7612 15.6635 31.8759 15.7853L32.4675 16.3769C33.1804 17.0899 33.581 18.0569 33.581 19.0652V19.8782C33.5866 20.098 33.6744 20.3077 33.8269 20.4659C33.9796 20.6242 34.1859 20.7195 34.4053 20.7331C34.4096 20.7334 34.4137 20.7334 34.4179 20.7331C35.4169 20.7968 36.4049 20.9773 37.3619 21.2707C39.2021 21.8382 40.892 22.8102 42.3077 24.1156C43.7234 25.421 44.8291 27.0267 45.5436 28.8149C45.6722 29.1363 45.7877 29.4643 45.8901 29.7989C46.0596 30.3501 46.1914 30.9122 46.2844 31.4813C46.3981 32.1751 46.4551 32.8771 46.4547 33.5802C46.4554 34.5534 46.3459 35.5237 46.1283 36.4725C45.8331 37.756 45.3418 38.9864 44.6715 40.1203C43.5624 41.9966 41.9972 43.5624 40.1212 44.6722C38.9873 45.3422 37.7569 45.8334 36.4733 46.1286C35.7969 46.2837 35.1091 46.3839 34.4165 46.4285C34.1917 46.4405 33.9801 46.5384 33.8251 46.7019C33.6703 46.8653 33.584 47.0819 33.5839 47.3071V50.2903C33.5837 50.503 33.4993 50.707 33.349 50.8575L32.8412 51.3656C32.8386 51.3678 32.8361 51.3703 32.8338 51.3731L32.804 51.4029C32.8013 51.4052 32.7988 51.4077 32.7965 51.4103L32.7898 51.4178L32.3776 51.83L32.3705 51.8367L32.3434 51.8638L32.3367 51.8709C32.2605 51.9547 32.2098 52.0584 32.1901 52.17C32.1706 52.2815 32.1829 52.3964 32.2259 52.5012C32.2688 52.606 32.3405 52.6965 32.4328 52.7622C32.525 52.8279 32.634 52.8662 32.7471 52.8725H32.7552C33.03 52.8844 33.3063 52.8902 33.5839 52.8902C34.5914 52.8906 35.5975 52.8126 36.5929 52.6573C39.5413 52.1949 42.3416 51.0524 44.7717 49.3202C47.5607 47.3356 49.7738 44.6474 51.1857 41.5292C51.9005 39.9504 52.3978 38.282 52.664 36.5695C52.8173 35.5806 52.8941 34.5814 52.8937 33.5807C52.8925 32.8628 52.8517 32.1453 52.7716 31.4318ZM48.9515 28.8151L48.954 28.8126V28.8151H48.9515Z" fill="url(#paint2_radial_405_12)"/>
</g>
<defs>
<linearGradient id="paint0_linear_405_12" x1="27.6101" y1="52.95" x2="15.6457" y2="30.0657" gradientUnits="userSpaceOnUse">
<stop stop-color="#5514DF"/>
<stop offset="1" stop-color="white"/>
</linearGradient>
<linearGradient id="paint1_linear_405_12" x1="19.6283" y1="21.5819" x2="41.5292" y2="32.7314" gradientUnits="userSpaceOnUse">
<stop offset="0.0147919" stop-color="#5615E0"/>
<stop offset="0.453125" stop-color="#4276FC"/>
<stop offset="1" stop-color="#BAF6E0" stop-opacity="0.19"/>
</linearGradient>
<radialGradient id="paint2_radial_405_12" cx="0" cy="0" r="1" gradientUnits="userSpaceOnUse" gradientTransform="translate(38.7761 33.6631) rotate(-96.5065) scale(20.3574 15.2057)">
<stop offset="0.000337956" stop-color="#4D69FF"/>
<stop offset="0.4794" stop-color="#5E12FF"/>
</radialGradient>
<clipPath id="clip0_405_12">
<rect width="40" height="40" fill="white" transform="translate(13 13)"/>
</clipPath>
</defs>
</svg>
