<svg width="66" height="66" viewBox="0 0 66 66" fill="none" xmlns="http://www.w3.org/2000/svg">
<circle cx="32.9183" cy="32.9183" r="32.9183" fill="#F5F5F5"/>
<path fill-rule="evenodd" clip-rule="evenodd" d="M25.2618 32.54C25.2618 27.7685 28.9508 23.9 33.5 23.9C38.0507 23.9 41.7382 27.7685 41.7382 32.54C41.7382 37.313 38.0507 41.1816 33.5 41.1816C28.9508 41.1816 25.2618 37.3116 25.2618 32.54ZM49.0779 46.4691L43.9621 40.8346C45.652 38.4509 46.5564 35.5905 46.5472 32.6587C46.5472 25.101 40.7062 18.9758 33.5 18.9758C26.2953 18.9758 20.4543 25.101 20.4543 32.6587C20.4543 40.2148 26.2953 46.3416 33.5 46.3416C35.5158 46.3421 37.5023 45.854 39.2926 44.9181L44.492 50.6445C41.2353 52.8323 37.4113 53.9996 33.5 54C22.1791 54 13 44.3739 13 32.5C13 20.6261 22.1791 11 33.5 11C44.8223 11 54 20.6261 54 32.5C54 37.8335 52.1445 42.7118 49.0779 46.4691Z" fill="#EFCF2F"/>
<mask id="mask0_4899_31" style="mask-type:alpha" maskUnits="userSpaceOnUse" x="13" y="11" width="41" height="43">
<path fill-rule="evenodd" clip-rule="evenodd" d="M25.2618 32.3351C25.2618 27.6244 28.9508 23.8063 33.4999 23.8063C38.0506 23.8063 41.7381 27.6244 41.7381 32.3351C41.7381 37.0472 38.0506 40.8653 33.4999 40.8653C28.9508 40.8653 25.2618 37.0443 25.2618 32.3351ZM49.0778 46.0854L43.962 40.5233C45.6512 38.1719 46.5558 35.3477 46.5471 32.4525C46.5471 24.9924 40.7061 18.9444 33.4999 18.9444C26.2952 18.9444 20.4542 24.9924 20.4542 32.4525C20.4542 39.9126 26.2952 45.9591 33.4999 45.9591C35.5151 45.9604 37.5013 45.4792 39.2925 44.5558L44.492 50.2074C41.2332 52.3681 37.41 53.5205 33.4999 53.5205C22.1791 53.5205 13 44.017 13 32.294C13 20.5738 22.1791 11.0703 33.4999 11.0703C44.8223 11.0703 53.9999 20.5753 53.9999 32.2954C54.0165 37.3252 52.2755 42.2028 49.0778 46.0854Z" fill="#EFCF2F"/>
</mask>
<g mask="url(#mask0_4899_31)">
<path fill-rule="evenodd" clip-rule="evenodd" d="M32.9691 10.2422H33.731C45.0724 10.2422 54.6478 20.1553 54.6478 31.9003V32.2938H12.0508V31.9003C12.0508 20.1567 21.6262 10.2422 32.9691 10.2422Z" fill="#29319A"/>
</g>
</svg>
