<svg width="66" height="66" viewBox="0 0 66 66" fill="none" xmlns="http://www.w3.org/2000/svg">
<circle cx="32.9183" cy="32.9183" r="32.9183" fill="#F5F5F5"/>
<path fill-rule="evenodd" clip-rule="evenodd" d="M45.1546 40.6913L41.9488 38.5511L39.2745 43.0724L36.1641 42.1519L33.4255 46.3826L33.5659 47.7143L48.4562 44.9374L47.5913 35.521L45.1546 40.6913ZM31.2682 36.6314L33.6572 36.2989C34.0438 36.4747 34.3129 36.5417 34.7764 36.661C35.4981 36.8514 36.3338 37.034 37.5713 36.4028C37.8593 36.2584 38.4591 35.7032 38.7017 35.3867L48.4899 33.5895L49.4885 45.821L32.7194 48.8798L31.2682 36.6314ZM49.4507 32.224L48.4845 32.4103L46.6283 13L15 16.7119L18.8965 48.7154L22.5986 48.1716C22.303 47.7444 21.8426 47.2274 21.0565 46.5657C19.9661 45.6488 20.3518 44.0917 20.9948 43.1084C21.8458 41.4469 26.2301 39.3354 25.9817 36.6797C25.8926 35.7141 25.7409 34.4571 24.8553 33.5959C24.822 33.9534 24.8819 34.2977 24.8819 34.2977C24.8819 34.2977 24.5183 33.8281 24.3369 33.1878C24.1569 32.9423 24.0156 32.8639 23.8244 32.536C23.688 32.9154 23.706 33.3554 23.706 33.3554C23.706 33.3554 23.4086 32.644 23.3604 32.0437C23.184 32.3124 23.1395 32.823 23.1395 32.823C23.1395 32.823 22.753 31.7016 22.8412 31.0977C22.6648 30.5721 22.1419 29.5291 22.2899 27.1585C23.2551 27.8431 25.38 27.6805 26.208 26.4453C26.483 26.0363 26.6711 24.9195 26.0708 22.7193C25.6851 21.3083 24.7302 19.2073 24.3581 18.4103L24.3135 18.4426C24.5097 19.0848 24.9143 20.4311 25.0695 21.0838C25.5393 23.0636 25.6653 23.7527 25.4448 24.6654C25.2572 25.4588 24.8072 25.978 23.6664 26.5583C22.5257 27.1403 21.0119 25.7239 20.9161 25.6455C19.8077 24.7519 18.9505 23.2941 18.8547 22.5858C18.7552 21.8107 19.2961 21.3452 19.5688 20.7112C19.1786 20.8242 18.7435 21.0246 18.7435 21.0246C18.7435 21.0246 19.2628 20.4807 19.9031 20.0103C20.1682 19.8326 20.3239 19.7197 20.6033 19.4847C20.1988 19.4778 19.8703 19.4897 19.8703 19.4897C19.8703 19.4897 20.5448 19.1208 21.2441 18.8521C20.7325 18.8293 20.2429 18.8484 20.2429 18.8484C20.2429 18.8484 21.7481 18.1671 22.937 17.667C23.7546 17.3277 24.5534 17.4279 25.002 18.0846C25.5911 18.945 26.2098 19.4123 27.5211 19.7019C28.3261 19.3408 28.5709 19.1549 29.5825 18.8762C30.4731 17.8851 31.1723 17.7567 31.1723 17.7567C31.1723 17.7567 30.8254 18.0787 30.7327 18.5847C31.2376 18.1821 31.7911 17.846 31.7911 17.846C31.7911 17.846 31.5769 18.1138 31.3771 18.5392L31.4234 18.6089C32.0125 18.2513 32.705 17.9694 32.705 17.9694C32.705 17.9694 32.507 18.2226 32.2748 18.5506C32.719 18.5469 33.6199 18.5697 33.9695 18.6098C36.0336 18.6558 36.462 16.3785 37.254 16.093C38.2458 15.7345 38.6891 15.5177 40.3792 17.1979C41.8296 18.6403 42.9626 21.2222 42.4002 21.8006C41.9286 22.2807 40.998 21.6134 39.9666 20.3122C39.4216 19.6231 39.0094 18.8088 38.8164 17.7736C38.6535 16.9 38.0195 16.3931 38.0195 16.3931C38.0195 16.3931 38.3876 17.2211 38.3876 17.9526C38.3876 18.352 38.4371 19.8454 39.0697 20.6834C39.0072 20.8059 38.9779 21.2896 38.9086 21.3821C38.1725 20.4817 36.5916 19.8372 36.3338 19.6473C37.2063 20.371 39.2119 22.0334 39.9823 23.6265C40.7109 25.1332 40.2816 26.5141 40.6501 26.8716C40.755 26.9741 42.217 28.8177 42.4983 29.7441C42.9887 31.3587 42.5275 33.0552 41.8854 34.1078L40.0921 34.3906C39.8298 34.3168 39.6529 34.2799 39.4176 34.1419C39.5472 33.9097 39.805 33.3303 39.8077 33.211L39.7065 33.0311C39.1485 33.8313 38.2134 34.6083 37.4367 35.0547C36.4202 35.6376 35.2484 35.5479 34.4857 35.3088C32.3207 34.6329 30.2737 33.1522 29.7801 32.7633C29.7801 32.7633 29.7648 33.0739 29.8579 33.1436C30.4038 33.7666 31.6543 34.8939 32.863 35.6795L30.2863 35.9665L31.5044 45.5664C30.9645 45.6447 30.8803 45.683 30.289 45.7682C29.7679 43.9049 28.7712 42.6884 27.6817 41.9797C26.721 41.3549 25.3958 41.2141 24.1272 41.4683L24.0458 41.5639C24.9278 41.471 25.9691 41.6004 27.0387 42.2858C28.0885 42.9576 28.9345 44.6929 29.2459 45.7377C29.6446 47.073 29.9205 48.5013 28.8472 50.0152C28.0836 51.0915 25.8543 51.6863 24.0534 50.3996C24.5345 51.1825 25.1847 51.8229 26.06 51.9436C27.3595 52.1221 28.593 51.894 29.4421 51.0118C30.1671 50.2575 30.5514 48.6803 30.4501 47.0193L31.5971 46.8508L32.0111 49.8321L51 47.518L49.4507 32.224ZM37.898 24.1275C37.8449 24.25 37.7616 24.3302 37.8867 24.7287L37.8944 24.7515L37.9142 24.803L37.9664 24.9223C38.1918 25.3887 38.4393 25.8286 38.8529 26.0532C38.9599 26.0349 39.0706 26.0226 39.1854 26.0167C39.5737 25.9994 39.819 26.0618 39.9747 26.1465C39.9886 26.0682 39.9918 25.9534 39.9832 25.7844C39.9531 25.1937 40.0989 24.189 38.977 23.6602C38.5536 23.4612 37.9596 23.5227 37.7616 23.7709C37.7976 23.7755 37.83 23.7832 37.8552 23.7919C38.1545 23.898 37.9515 24.0023 37.898 24.1275ZM41.0421 29.6394C40.8949 29.5574 40.2073 29.5897 39.724 29.648C38.8034 29.7578 37.8093 30.0812 37.5915 30.2533C37.1955 30.563 37.3755 31.1032 37.668 31.325C38.4884 31.9453 39.2074 32.3611 39.9666 32.26C40.4328 32.1981 40.8436 31.4511 41.1348 30.7734C41.3341 30.3066 41.3341 29.8029 41.0421 29.6394ZM32.8909 24.859C33.1505 24.6094 31.5976 24.2815 30.3925 25.1131C29.5038 25.7266 29.4754 27.0419 30.3264 27.7875C30.4114 27.8613 30.4816 27.9137 30.5473 27.9565C30.7957 27.8381 31.0787 27.7183 31.4045 27.6113C31.9549 27.4304 32.4125 27.3371 32.7887 27.2874C32.9687 27.0838 33.178 26.7254 33.1258 26.0764C33.0547 25.196 32.3954 25.3358 32.8909 24.859Z" fill="#632CA6"/>
</svg>
