<svg width="66" height="66" viewBox="0 0 66 66" fill="none" xmlns="http://www.w3.org/2000/svg">
<circle cx="32.9183" cy="32.9183" r="32.9183" fill="#F5F5F5"/>
<g clip-path="url(#clip0_245_2)">
<path d="M50.4467 17.8053C53.2629 19.3368 55 22.1641 55 25.2249V39.775C55 42.8357 53.2629 45.6652 50.4467 47.1945L37.0533 54.4706C34.2348 55.9999 30.7652 55.9999 27.9467 54.4706L14.5533 47.1945C11.7348 45.6652 10 42.8357 10 39.775V25.2249C10 22.1641 11.7348 19.3368 14.5533 17.8053L27.9467 10.5314C30.7652 8.99995 34.2348 8.99995 37.0533 10.5314L50.4467 17.8053ZM16.9073 21.4744C24.9689 24.6488 32.9417 24.5224 39.1569 23.4814C42.565 22.9095 45.4108 22.0699 47.3983 21.3738C47.503 21.3374 47.6055 21.301 47.7057 21.2645L34.7766 14.2412C33.3674 13.4765 31.6326 13.4765 30.2234 14.2412L16.9073 21.4744ZM14.5533 25.6533V39.775C14.5533 41.3064 15.4207 42.7201 16.8299 43.4847L29.8933 50.5809C30.1664 40.9273 32.8324 34.2938 36.7436 29.5645C37.0601 29.181 37.3811 28.8126 37.7112 28.4592C31.1067 29.2732 22.8949 29.0418 14.5533 25.6533ZM34.8996 50.6944L48.1701 43.4847C49.577 42.7201 50.4467 41.3064 50.4467 39.775V25.3663C46.9248 27.0113 43.4643 29.1104 40.6959 32.4582C37.5746 36.2344 35.1523 41.8333 34.8996 50.6944Z" fill="#242533"/>
</g>
<defs>
<clipPath id="clip0_245_2">
<rect width="45" height="47" fill="white" transform="translate(10 9)"/>
</clipPath>
</defs>
</svg>
