<svg width="66" height="66" viewBox="0 0 66 66" fill="none" xmlns="http://www.w3.org/2000/svg">
<circle cx="32.9183" cy="32.9183" r="32.9183" fill="#F5F5F5"/>
<path d="M50.9883 40.3577V25.6658C50.9883 23.7719 49.9805 22.0193 48.3398 21.0782L35.6367 13.7146C33.9961 12.7618 31.9805 12.7618 30.3398 13.7146L17.6484 21.0665C16.0078 22.0193 15 23.7602 15 25.654V40.346C15 42.2398 16.0078 43.9925 17.6484 44.9335L30.3516 52.2854C31.9922 53.2382 34.0078 53.2382 35.6484 52.2854L48.3516 44.9335C49.9922 43.9807 51 42.2398 51 40.346L50.9883 40.3577Z" fill="#4D71F1"/>
<path d="M32.9297 21.4688H34.3945C34.6875 21.4688 34.9219 21.7031 34.9219 21.9961V39.9961C34.9219 41.0742 34.043 41.9531 32.9648 41.9531C31.8867 41.9531 31.0078 41.0742 31.0078 39.9961V23.3906C31.0078 22.3359 31.8633 21.4688 32.9297 21.4688Z" fill="white"/>
<path d="M39.7617 27.0469H41.2383C41.5312 27.0469 41.7656 27.2813 41.7656 27.5742V39.9844C41.7656 41.0625 40.8867 41.9414 39.8086 41.9414C38.7305 41.9414 37.8516 41.0625 37.8516 39.9844V28.9688C37.8516 27.9141 38.707 27.0469 39.7734 27.0469H39.7617Z" fill="white"/>
<path d="M26.1328 34.125H27.5977C27.8906 34.125 28.125 34.3594 28.125 34.6523V40.043C28.125 41.1211 27.2461 42 26.168 42C25.0898 42 24.2109 41.1211 24.2109 40.043V36.0469C24.2109 34.9922 25.0664 34.125 26.1328 34.125Z" fill="white"/>
</svg>
