<svg width="66" height="66" viewBox="0 0 66 66" fill="none" xmlns="http://www.w3.org/2000/svg">
<circle cx="32.9183" cy="32.9183" r="32.9183" fill="#F5F5F5"/>
<path d="M22.6086 55C21.5576 55 20.6576 54.6641 20.0014 54.0096C19.0375 53.0539 18.7588 51.5828 19.2117 49.8685L24.9255 28.3579L50.8409 21.2166C52.5598 20.7591 54.0347 21.0313 54.9986 21.987C55.9624 22.9426 56.2413 24.4137 55.7883 26.128L51.5378 42.1248C50.6957 45.293 47.4265 48.5595 44.2561 49.4109L24.1532 54.7856C23.6132 54.9305 23.0964 55 22.6086 55ZM26.3539 29.7653L20.8957 50.3144C20.6111 51.3859 20.733 52.2837 21.2324 52.7759C21.7318 53.2682 22.6318 53.3898 23.7003 53.1002L43.8032 47.7255C46.3929 47.0305 49.1627 44.262 49.8538 41.6731L54.1043 25.6762C54.3888 24.6048 54.267 23.707 53.7734 23.2148C53.274 22.7225 52.3739 22.6009 51.2997 22.8904L26.3539 29.7653Z" fill="#11151D"/>
<path d="M18.6086 50C17.5576 50 16.6576 49.6641 16.0014 49.0096C15.0375 48.0539 14.7588 46.5828 15.2117 44.8685L20.9255 23.3577L46.841 16.2164C48.5598 15.7589 50.0348 16.0311 50.9985 16.9925C51.9625 17.9482 52.2412 19.4193 51.7884 21.1279L47.5379 37.1247C46.6958 40.293 43.4266 43.5594 40.2562 44.4109L20.1532 49.7856C19.6132 49.9305 19.0964 50 18.6086 50ZM22.354 24.7651L16.8956 45.3144C16.6111 46.3859 16.733 47.2837 17.2324 47.7759C17.7318 48.2682 18.6319 48.3898 19.7003 48.1002L39.8032 42.7254C42.393 42.0305 45.1628 39.2619 45.8539 36.673L50.1044 20.6761C50.3889 19.6046 50.267 18.7069 49.7735 18.2146C49.2741 17.7223 48.374 17.6007 47.2998 17.8902L22.354 24.7651Z" fill="#11151D"/>
<path d="M13.6081 45C12.5572 45 11.6573 44.6641 11.0012 44.0097C10.0375 43.054 9.7588 41.583 10.2117 39.8685L15.9246 18.3579L41.8417 11.2166C43.5603 10.7591 45.035 11.0313 45.9988 11.9869C46.9626 12.9426 47.2412 14.4137 46.7883 16.128L42.5384 32.1249C41.6967 35.293 38.428 38.5596 35.2579 39.4111L15.1582 44.7858C14.6183 44.9305 14.1015 45 13.6139 45H13.6081ZM17.3528 19.7711L11.9012 40.3202C11.6167 41.3918 11.7386 42.2896 12.2379 42.7817C12.7372 43.2741 13.6371 43.3958 14.7054 43.1061L34.805 37.7313C37.3946 37.0363 40.1639 34.2678 40.8547 31.6789L45.1046 15.6821C45.389 14.6106 45.2672 13.7129 44.7737 13.2206C44.2802 12.7283 43.3802 12.6066 42.3004 12.8962L17.3528 19.7711Z" fill="#11151D"/>
</svg>
