<svg width="66" height="66" viewBox="0 0 66 66" fill="none" xmlns="http://www.w3.org/2000/svg">
<circle cx="32.9183" cy="32.9183" r="32.9183" fill="#F5F5F5"/>
<g clip-path="url(#clip0_361_2)">
<path d="M13.0255 37.3224C13.0255 27.3515 19.3904 22.9206 26.3697 22.9206C32.7394 22.9206 35.4255 26.9678 35.4255 26.9678V15.0133H42.3244V44.4739C42.3244 46.8923 42.4076 49.0744 42.5764 51.0202H35.4277V47.7135C35.4277 47.7135 32.6904 51.7244 26.3719 51.7244C19.636 51.7244 13.0255 47.8591 13.0255 37.3224ZM28.1317 46.4308C33.0178 46.4308 36.1769 42.7119 36.1769 37.3224C36.1769 31.7446 33.0156 28.2141 28.1317 28.2141C23.2479 28.2141 20.2034 31.5702 20.2034 37.3224C20.2034 43.0747 23.3761 46.4308 28.1317 46.4308Z" fill="#1B1B1B"/>
<path d="M46.3279 44.5535H52.9735V50.9979H46.3279V44.5535Z" fill="#1B1B1B"/>
</g>
<defs>
<clipPath id="clip0_361_2">
<rect width="40" height="36" fill="white" transform="translate(13 15)"/>
</clipPath>
</defs>
</svg>
