<svg width="66" height="66" viewBox="0 0 66 66" fill="none" xmlns="http://www.w3.org/2000/svg">
<circle cx="32.9183" cy="32.9183" r="32.9183" fill="#F5F5F5"/>
<path d="M33.995 56H15.7206C15.5853 55.9997 15.453 55.9588 15.3404 55.8823C15.2279 55.8059 15.1401 55.6974 15.088 55.5704C15.036 55.4434 15.0221 55.3036 15.0481 55.1686C15.074 55.0336 15.1387 54.9094 15.2339 54.8117L27.0049 42.7846C27.1347 42.6531 27.3102 42.5787 27.4935 42.5776H34.1346C39.272 42.5776 43.6152 38.5008 43.7699 33.2913C43.8062 32.0096 43.5892 30.7335 43.1316 29.5384C42.674 28.3434 41.9852 27.2537 41.1059 26.3338C40.2266 25.4139 39.1746 24.6824 38.0122 24.1827C36.8498 23.6829 35.6006 23.4251 34.3384 23.4243H27.2218V32.3292C27.2218 32.7125 26.9124 33.0268 26.5332 33.0268H14.6849C14.5032 33.0258 14.3293 32.9519 14.201 32.8213C14.0727 32.6906 14.0005 32.5137 14 32.3292V10.6977C14 10.3143 14.3075 10 14.6868 10H34.3384C46.9489 10 57.1879 20.5129 56.9974 33.3584C56.8049 45.9758 46.432 56 33.995 56Z" fill="black"/>
</svg>
