<svg width="66" height="66" viewBox="0 0 66 66" fill="none" xmlns="http://www.w3.org/2000/svg">
<circle cx="32.9183" cy="32.9183" r="32.9183" fill="#F5F5F5"/>
<path d="M58.4964 18.9376C57.988 18.6907 57.769 19.1611 57.4717 19.4001C57.37 19.4772 57.284 19.5774 57.1979 19.6699C56.4548 20.4562 55.5866 20.9729 54.4523 20.9112C52.794 20.8186 51.3781 21.3353 50.1265 22.592C49.8605 21.0423 48.9767 20.117 47.6312 19.5234C46.9273 19.215 46.2154 18.9065 45.7226 18.2357C45.3784 17.7578 45.2845 17.2258 45.1124 16.7015C45.0029 16.3854 44.8934 16.0615 44.5257 16.0075C44.1268 15.9459 43.9703 16.2773 43.8138 16.555C43.1881 17.6884 42.9456 18.9375 42.969 20.2019C43.0237 23.0471 44.2363 25.3137 46.6455 26.9252C46.9193 27.1103 46.9896 27.2952 46.9036 27.5652C46.7393 28.1204 46.5437 28.66 46.3717 29.2151C46.2622 29.5699 46.0978 29.647 45.7146 29.4926C44.3926 28.9453 43.2505 28.1357 42.2414 27.1566C40.5284 25.5143 38.9795 23.7024 37.0475 22.2837C36.5938 21.9521 36.1401 21.6438 35.6707 21.3507C33.6994 19.4541 35.9289 17.8965 36.4451 17.7116C36.9848 17.5189 36.6329 16.8557 34.8884 16.8635C33.144 16.8711 31.5483 17.4495 29.5146 18.2205C29.2173 18.3362 28.9043 18.4209 28.5836 18.4903C26.7376 18.1434 24.8211 18.0661 22.8186 18.2899C19.0482 18.7061 16.0367 20.4718 13.823 23.4865C11.1635 27.1103 10.5377 31.2274 11.3043 35.5221C12.11 40.0478 14.441 43.795 18.0237 46.725C21.7393 49.7626 26.0181 51.2507 30.8992 50.9655C33.8639 50.7959 37.1649 50.4027 40.8884 47.2801C41.827 47.7427 42.8126 47.9276 44.4475 48.0664C45.7069 48.1821 46.9194 48.0048 47.858 47.8121C49.3286 47.5037 49.227 46.1544 48.6951 45.9077C44.385 43.9185 45.3314 44.728 44.471 44.0726C46.6613 41.5052 49.9624 38.8374 51.253 30.1942C51.3546 29.5081 51.2686 29.0763 51.253 28.5211C51.2451 28.182 51.3234 28.051 51.7145 28.0123C52.794 27.8889 53.8422 27.596 54.8043 27.0717C57.5969 25.5606 58.7233 23.0779 58.9892 20.1017C59.0284 19.6468 58.9814 19.1764 58.4964 18.9376ZM34.1611 45.7225C29.984 42.469 27.9581 41.3971 27.1211 41.4434C26.3388 41.4897 26.4797 42.3764 26.6517 42.9547C26.8316 43.5252 27.0663 43.9185 27.3948 44.4196C27.6216 44.7511 27.7782 45.2445 27.168 45.6147C25.8226 46.4397 23.4836 45.3371 23.3741 45.2832C20.652 43.6948 18.3757 41.5975 16.7721 38.7295C15.2232 35.9691 14.3237 33.0086 14.175 29.8474C14.1359 29.0841 14.3628 28.8141 15.1294 28.6755C16.1384 28.4904 17.1788 28.4517 18.1879 28.5982C22.4512 29.2151 26.0807 31.1041 29.1235 34.0956C30.86 35.7995 32.1742 37.8352 33.5275 39.8243C34.9668 41.9368 36.5156 43.9493 38.4868 45.5992C39.183 46.1775 39.7384 46.6169 40.2703 46.9408C38.6668 47.1181 35.9915 47.1568 34.1611 45.7225ZM36.1636 32.9623C36.1636 32.623 36.4374 32.3532 36.7817 32.3532C36.8599 32.3532 36.9303 32.3685 36.9929 32.3916C37.079 32.4225 37.1572 32.4688 37.2198 32.538C37.3293 32.6461 37.3919 32.8002 37.3919 32.9622C37.3919 33.3014 37.1181 33.5712 36.774 33.5712C36.4299 33.5712 36.1636 33.3015 36.1636 32.9623ZM42.3824 36.1235C41.9835 36.2854 41.5846 36.4241 41.2013 36.4395C40.6068 36.4703 39.9575 36.2313 39.6056 35.9383C39.058 35.4834 38.6669 35.2291 38.5026 34.4349C38.4322 34.0956 38.4713 33.5713 38.534 33.2707C38.6747 32.623 38.5183 32.2067 38.0568 31.8288C37.6813 31.5204 37.2041 31.4357 36.68 31.4357C36.4844 31.4357 36.3046 31.3508 36.1716 31.2814C35.9525 31.1735 35.7727 30.9036 35.9447 30.5721C35.9995 30.4643 36.2655 30.202 36.3281 30.1558C37.04 29.7548 37.8613 29.8859 38.6201 30.1866C39.3242 30.4719 39.8561 30.9962 40.6226 31.7363C41.4048 32.6306 41.5456 32.8776 41.9915 33.5482C42.3436 34.0725 42.6643 34.6122 42.8833 35.2291C43.0162 35.6146 42.844 35.9307 42.3824 36.1235Z" fill="#4D6BFE"/>
</svg>
