<svg width="66" height="66" viewBox="0 0 66 66" fill="none" xmlns="http://www.w3.org/2000/svg">
<circle cx="32.9183" cy="32.9183" r="32.9183" fill="#F5F5F5"/>
<path d="M38.8255 14L37.1404 30.3333L34.2383 16.5714L25.1574 18.5238L28.0596 32.2857L15 35.0952L17.2936 46.0952L40.2766 51L45.5191 39.0476L48 14.9524L38.8255 14ZM31.5702 37.6667C31.1021 38.0952 30.4936 38.0476 29.7915 37.8571C29.1362 37.619 28.8553 36.8095 29.0894 35.8571C29.2766 35.1429 30.166 35 30.5872 35C30.7745 35 30.9149 35.0476 31.0553 35.0952C31.383 35.2381 31.8979 35.5238 31.9915 36C32.1787 36.6667 32.0383 37.2381 31.5702 37.6667ZM38.217 38.4286C37.8894 39.0476 36.9532 39.0952 36.0638 38.6667C35.4553 38.381 35.4553 37.619 35.5489 37.1429C35.5957 36.9048 35.6894 36.6667 35.8298 36.4762C36.0638 36.1905 36.3915 35.8571 36.8128 35.8571C37.4681 35.8571 38.0766 36.1429 38.4043 36.7143C38.7319 37.1905 38.5447 37.8095 38.217 38.4286Z" fill="#00CCBC"/>
</svg>
