<svg width="66" height="66" viewBox="0 0 66 66" fill="none" xmlns="http://www.w3.org/2000/svg">
<circle cx="32.9183" cy="32.9183" r="32.9183" fill="#F5F5F5"/>
<path d="M48.2062 18.8475C45.3631 17.5172 42.323 16.5505 39.1447 16C38.7544 16.7057 38.2984 17.6549 37.984 18.41C34.6054 17.9019 31.2579 17.9019 27.9414 18.41C27.6271 17.6549 27.1607 16.7057 26.7669 16C23.5852 16.5505 20.5416 17.5208 17.6985 18.8545C11.9638 27.5204 10.4092 35.971 11.1865 44.3016C14.9901 47.142 18.6761 48.8674 22.3 49.9965C23.1948 48.7651 23.9928 47.456 24.6802 46.0764C23.3709 45.5789 22.1169 44.965 20.932 44.2522C21.2464 44.0193 21.5539 43.7758 21.8509 43.5253C29.078 46.9056 36.9303 46.9056 44.071 43.5253C44.3716 43.7758 44.679 44.0193 44.9899 44.2522C43.8016 44.9685 42.5441 45.5824 41.2348 46.08C41.9223 47.456 42.7168 48.7686 43.615 50C47.2424 48.8709 50.9319 47.1455 54.7354 44.3016C55.6475 34.6443 53.1774 26.2713 48.2062 18.8475ZM25.6648 39.1783C23.4953 39.1783 21.7162 37.153 21.7162 34.6866C21.7162 32.2202 23.4573 30.1914 25.6648 30.1914C27.8724 30.1914 29.6515 32.2167 29.6135 34.6866C29.6169 37.153 27.8724 39.1783 25.6648 39.1783ZM40.2572 39.1783C38.0877 39.1783 36.3085 37.153 36.3085 34.6866C36.3085 32.2202 38.0496 30.1914 40.2572 30.1914C42.4646 30.1914 44.2438 32.2167 44.2058 34.6866C44.2058 37.153 42.4646 39.1783 40.2572 39.1783Z" fill="#5865F2"/>
</svg>
