<svg width="66" height="66" viewBox="0 0 66 66" fill="none" xmlns="http://www.w3.org/2000/svg">
<circle cx="32.9183" cy="32.9183" r="32.9183" fill="#F5F5F5"/>
<path fill-rule="evenodd" clip-rule="evenodd" d="M7.61261 25.235C8.12863 25.235 8.66885 25.4094 9.1376 25.7091C9.59697 25.9974 10.0215 26.4319 10.3897 26.9904C10.7477 27.4974 11.034 28.1409 11.2264 28.8712C11.4223 29.5952 11.5466 30.369 11.5466 31.1841C11.5466 31.9991 11.4459 32.7651 11.2259 33.4978C11.0186 34.2119 10.7348 34.8503 10.3897 35.3787C9.60433 36.5214 8.61196 37.1433 7.58841 37.1341H5.10791C4.83555 37.1341 4.59133 37.092 4.34823 36.9587C4.15644 36.8834 3.98363 36.7028 3.85528 36.4435C3.72855 36.213 3.63518 35.9333 3.58292 35.6275C3.52583 35.2779 3.49222 34.9179 3.48276 34.5548V27.8809C3.47505 27.1945 3.607 26.5256 3.85528 25.9922C4.00384 25.7757 4.17604 25.6102 4.34767 25.476C4.59514 25.3578 4.85074 25.2992 5.10735 25.3016L7.61261 25.2183V25.235ZM5.17938 26.9904C5.13155 26.9904 5.07921 26.9904 5.03138 27.0325C4.95935 27.0737 4.90702 27.1158 4.85919 27.157C4.81136 27.2402 4.75902 27.3313 4.73539 27.4146C4.68699 27.54 4.68699 27.6732 4.68699 27.7976V34.4716C4.68699 34.596 4.71119 34.7292 4.73482 34.8536C4.76983 34.9615 4.82097 35.0509 4.88282 35.1122C4.90475 35.1532 4.93147 35.1854 4.96117 35.2069C4.99088 35.2284 5.02288 35.2385 5.05502 35.2366C5.10285 35.2787 5.15574 35.2787 5.20358 35.2787H7.58841C8.32033 35.315 9.03508 34.8891 9.60073 34.0797C9.84495 33.6977 10.0695 33.2647 10.2175 32.7984C10.3624 32.2947 10.4378 31.7391 10.4378 31.1757C10.4378 30.6124 10.3624 30.0568 10.2175 29.553C10.0632 29.0466 9.85374 28.5974 9.60073 28.2306C9.03649 27.4069 8.32014 26.9664 7.58391 26.9904H5.17488H5.17938ZM19.2853 25.235H20.4659V34.305C20.4659 34.6871 20.418 35.0289 20.3421 35.3777C20.2662 35.7281 20.1391 36.038 19.9735 36.2769C19.8199 36.541 19.6357 36.745 19.4333 36.8755C19.2138 37.0009 18.9887 37.092 18.7692 37.092C18.6685 37.092 18.5492 37.092 18.4485 37.0508L18.1525 36.9254C17.9783 36.8418 17.8123 36.713 17.6601 36.5434C17.5363 36.368 17.4164 36.2015 17.3157 35.985C17.1448 35.5895 16.9884 35.1756 16.8475 34.7458C16.8233 34.6626 14.5387 27.348 14.4621 27.2157C14.4385 27.1325 14.3907 27.0903 14.3383 27.0404C14.2899 26.9992 14.2376 26.9992 14.1898 26.9992C14.0176 26.9992 13.869 27.0825 13.7452 27.2569C13.645 27.4724 13.573 27.681 13.5972 27.9397V37.0087H12.4166V27.9397C12.3924 27.2148 12.5646 26.5241 12.8848 25.9756C13.0434 25.7021 13.2365 25.4968 13.4487 25.3761C13.8856 25.1127 14.3594 25.0983 14.8014 25.3349C15.0215 25.4593 15.2179 25.6347 15.3659 25.9334C15.4897 26.1499 15.5853 26.3586 15.6861 26.5741C15.7575 26.7494 18.0186 33.8887 18.0428 33.9308C18.09 34.1052 18.4254 35.1034 18.583 35.2533C18.6302 35.3032 18.7068 35.3365 18.7546 35.3365C18.8553 35.3365 18.9268 35.2954 19.027 35.2533C19.0942 35.2089 19.1536 35.1346 19.1992 35.0378C19.2999 34.8203 19.3714 34.6126 19.3472 34.355L19.2757 25.2428L19.2853 25.235ZM27.321 35.2866H21.8429V37.042H26.4364C26.7324 36.5267 27.0244 35.9272 27.321 35.2866ZM21.9374 31.1008C22.1338 31.4005 22.3538 31.6592 22.6262 31.8257C22.8985 32.0001 23.1664 32.0833 23.4624 32.0833H27.272C27.4784 32.0712 27.6818 32.1723 27.8533 32.3723C28.0249 32.5724 28.156 32.8612 28.2281 33.1981C28.4476 32.5986 28.6727 32.0422 28.8685 31.4838L28.7683 31.3094C28.573 31.0021 28.3483 30.7567 28.1043 30.5845C27.8366 30.4114 27.5531 30.3241 27.2675 30.3269H23.4815C23.3491 30.3328 23.2173 30.2908 23.0947 30.2034C22.9721 30.1161 22.8612 29.9853 22.7691 29.8195C22.6785 29.6725 22.6041 29.4979 22.5496 29.3042C22.5032 29.1146 22.4787 28.9108 22.4776 28.7047C22.4776 28.4892 22.5018 28.2805 22.5496 28.0641C22.5975 27.8897 22.6734 27.682 22.7691 27.5478C22.9413 27.2481 23.2137 27.0325 23.4579 27.0325H28.8162V25.2752H23.4337C23.1377 25.2752 22.8698 25.3584 22.5975 25.5338C22.3472 25.7096 22.1147 25.954 21.9087 26.2577C21.7055 26.5618 21.5453 26.9432 21.4405 27.3725C21.3247 27.7839 21.2657 28.2368 21.2683 28.6949C21.2683 29.17 21.3161 29.5942 21.4405 30.0183C21.5643 30.4004 21.7129 30.7922 21.9329 31.092L21.9374 31.1008ZM32.9697 37.0841V28.6969C32.9697 28.2218 33.0175 27.7976 33.1418 27.3734C33.3743 26.5205 33.7897 25.8603 34.2988 25.5348C34.5629 25.3406 34.8487 25.2522 35.135 25.2761H40.0493V27.0737H35.2076C35.0591 27.0737 34.9353 27.1158 34.7912 27.1991C34.5959 27.3235 34.4479 27.54 34.323 27.8397C34.1992 28.0974 34.1514 28.4383 34.1514 28.7801V30.0614H40.0499V31.8169H34.1514V37.1674H32.9702L32.9697 37.0841ZM40.8574 27.0737H42.038V25.236H40.8574V27.0737ZM40.8574 37.0841H42.038V28.6136H40.8574V37.0841ZM45.2309 37.0841C44.9455 37.0868 44.6622 36.9996 44.3947 36.8265C43.894 36.4988 43.4815 35.8578 43.2377 35.0289C43.1221 34.6174 43.0633 34.1646 43.0661 33.7065V25.3183H44.2467V33.7055C44.2467 33.922 44.2703 34.1297 44.3182 34.3462C44.366 34.5627 44.442 34.7282 44.5376 34.8624C44.7346 35.1622 44.9822 35.3777 45.25 35.3777H45.4701V37.1341H45.2264M48.7491 37.0841C48.4637 37.0868 48.1804 36.9996 47.9129 36.8265C47.6627 36.6502 47.4304 36.4055 47.2247 36.1016C47.0277 35.8022 46.8689 35.4343 46.7585 35.0216C46.6481 34.609 46.5886 34.1607 46.5837 33.7055V30.4523H46.0677V28.6969H46.5837V26.1754H47.7649V28.6548H49.3855V30.4102H47.7649V33.6232C47.7649 33.8387 47.7885 34.0464 47.8363 34.2629C47.8842 34.4794 47.9601 34.6459 48.0558 34.7791C48.1565 34.9535 48.2522 35.0789 48.3766 35.1612C48.5004 35.2454 48.6202 35.2866 48.7682 35.3365H49.605V37.092H48.744L48.7491 37.0841ZM51.498 33.8387C51.5216 34.0131 51.5458 34.1796 51.5982 34.355C51.646 34.5294 51.722 34.6538 51.794 34.7791C51.8947 34.9535 52.014 35.0789 52.1384 35.1612C52.2622 35.2454 52.4107 35.2866 52.5542 35.2866H56.8563V37.042H52.4822C52.1968 37.0447 51.9135 36.9574 51.646 36.7844C51.3959 36.6084 51.1636 36.364 50.9578 36.0605C50.7544 35.7565 50.594 35.375 50.489 34.9457C50.3732 34.5343 50.3142 34.0814 50.3168 33.6232V32.0412C50.3168 31.5671 50.3647 31.1429 50.489 30.7187C50.7264 29.8813 51.1412 29.2369 51.646 28.9212C51.9141 28.7521 52.197 28.665 52.4822 28.6636H55.3313C55.7477 28.6636 56.1681 28.8791 56.5355 29.221C56.8847 29.5899 57.1666 30.1234 57.3487 30.7599C57.4725 31.1841 57.5209 31.6592 57.5209 32.0823V33.8809H51.5025V33.8387H51.498ZM51.794 30.8853C51.7043 31.0336 51.63 31.208 51.5745 31.4005C51.5267 31.617 51.4738 31.8247 51.4738 32.0412H56.3161C56.3161 31.8257 56.2924 31.617 56.2159 31.4005C56.1681 31.185 56.0915 31.0185 55.9959 30.8853C55.8977 30.7171 55.7804 30.5866 55.6515 30.5023C55.5183 30.4174 55.3775 30.3749 55.2356 30.3769H52.5345C52.3871 30.3769 52.2628 30.419 52.1193 30.5023C52.0185 30.5855 51.8998 30.7178 51.7985 30.8843L51.794 30.8853ZM62.4824 28.6126V30.369H60.5894C60.3868 30.3573 60.1866 30.4476 60.0128 30.6292C59.839 30.8108 59.699 31.0759 59.6097 31.3927C59.5619 31.6082 59.509 31.8169 59.509 32.0334V37.0342H58.3284V32.0334C58.3284 31.5592 58.3762 31.1341 58.5006 30.7109C58.6154 30.281 58.7793 29.8962 58.9823 29.5799C59.1852 29.2636 59.423 29.0225 59.6812 28.8712C59.9487 28.6982 60.232 28.6109 60.5174 28.6136L62.4824 28.6126Z" fill="black"/>
<path fill-rule="evenodd" clip-rule="evenodd" d="M28.934 22.7411C29.948 21.5401 30.8364 21.1153 31.355 21.6647C32.4888 22.8657 31.6004 28.2249 29.3813 33.6164C27.1329 39.059 24.3947 42.4843 23.2563 41.2843C22.7134 40.726 22.6365 39.268 22.9102 37.3419C22.291 40.5092 22.3198 43.0014 23.1557 43.8511C24.6107 45.3523 27.9444 41.3687 30.6108 34.9008C33.2771 28.4329 34.2662 22.0072 32.8106 20.5069C31.9459 19.6062 30.5146 20.5482 28.934 22.7322V22.7411Z" fill="#3427FD"/>
</svg>
