<svg width="66" height="66" viewBox="0 0 66 66" fill="none" xmlns="http://www.w3.org/2000/svg">
<circle cx="32.9183" cy="32.9183" r="32.9183" fill="#F5F5F5"/>
<svg x="8" y="8" width="50" height="50" viewBox="0 0 256 256" fill="none">
<path fill="#007ac5" d="M 102.36 158.54 Q 101.58 154.36 102.26 149.98 Q 102.83 146.32 100.57 144.83 C 96.32 142.03 92.71 138.23 87.61 133.20 A 0.43 0.42 -61.1 0 0 86.90 133.41 Q 86.51 134.96 88.09 135.54 A 0.76 0.75 1.9 0 1 88.55 136.02 L 89.54 139.16 A 1.25 1.23 16.0 0 0 89.81 139.64 L 95.25 145.75 A 5.40 5.16 10.0 0 1 95.88 146.61 L 97.61 149.51 A 2.08 1.75 -73.7 0 1 97.76 149.85 L 100.40 158.57 Q 95.95 161.30 92.32 162.13 Q 81.90 164.52 63.76 167.43 C 59.18 168.16 55.35 169.41 51.41 170.23 A 0.46 0.41 64.3 0 0 51.20 170.94 Q 51.45 171.26 51.89 171.26 Q 60.58 171.22 74.02 169.86 Q 76.61 169.60 77.02 172.07 Q 79.51 187.06 81.30 197.50 Q 81.57 199.07 81.15 200.53 A 1.19 1.19 0.0 0 1 79.19 201.07 Q 67.26 189.88 53.81 178.76 C 50.82 176.29 48.18 173.28 46.01 170.37 A 1.48 1.48 0.0 0 1 46.07 168.52 Q 57.93 154.74 70.57 138.08 Q 71.47 136.89 77.29 131.26 A 3.07 3.05 -71.8 0 1 78.90 130.44 L 81.97 129.89 A 0.82 0.81 -24.2 0 0 82.47 128.58 Q 79.67 125.07 79.31 124.73 Q 42.96 90.58 20.90 69.69 Q 14.29 63.43 11.70 62.06 A 0.74 0.73 51.9 0 1 11.86 60.70 C 14.65 60.00 16.26 60.89 18.85 61.77 C 33.26 66.66 45.71 70.48 58.12 74.71 Q 62.13 76.07 69.94 78.43 C 84.84 82.92 103.09 89.48 120.10 94.67 Q 139.33 100.53 158.94 107.65 C 161.64 108.63 162.60 109.70 163.47 112.21 A 0.29 0.29 0.0 0 0 163.99 112.27 Q 165.68 109.48 166.31 106.64 Q 166.98 103.65 169.35 84.93 A 2.91 2.85 -30.4 0 1 169.57 84.12 L 172.37 77.56 A 4.02 3.96 84.4 0 1 173.75 75.86 L 200.28 57.43 A 3.28 3.27 43.3 0 1 203.85 57.33 Q 227.52 71.76 235.69 76.57 C 237.79 77.80 238.06 83.81 237.75 86.35 A 1.38 1.37 5.9 0 1 236.27 87.55 C 229.58 87.00 222.49 86.26 214.56 84.95 Q 201.40 82.79 189.44 81.83 C 184.95 81.48 179.49 80.12 174.73 80.62 A 0.45 0.45 0.0 0 0 174.73 81.51 Q 179.76 82.07 184.93 83.96 A 3.98 3.91 57.6 0 0 185.96 84.20 Q 188.65 84.45 193.27 85.85 A 8.90 8.36 -32.8 0 0 195.12 86.19 Q 200.18 86.57 207.32 88.74 C 210.39 89.67 210.68 92.51 211.49 95.71 Q 214.21 106.33 217.14 117.10 Q 218.01 120.32 218.49 124.80 A 1.88 1.87 65.4 0 1 217.92 126.34 C 212.36 131.63 204.60 139.31 198.41 147.02 Q 191.55 155.57 190.44 156.68 A 0.41 0.41 0.0 0 0 190.90 157.34 Q 191.56 157.02 192.92 155.90 Q 193.46 155.45 203.32 146.14 A 2.43 2.38 13.3 0 1 204.20 145.61 C 210.34 143.50 211.29 150.69 211.05 154.70 A 1.00 0.99 -89.3 0 1 210.11 155.63 C 208.12 155.72 206.54 156.14 204.80 157.26 Q 201.95 159.09 197.57 161.19 A 7.29 7.14 13.1 0 0 196.40 161.90 L 191.14 165.92 A 1.52 1.52 0.0 0 1 190.33 166.22 Q 176.76 166.95 163.34 163.18 Q 160.34 162.34 158.73 161.10 C 156.77 159.60 155.13 159.02 153.00 159.47 A 1.66 1.66 0.0 0 0 151.72 160.74 Q 150.61 165.90 149.58 172.04 Q 149.09 174.97 146.41 177.91 Q 138.84 186.21 130.46 193.75 Q 125.25 198.44 122.36 201.58 Q 116.63 207.80 114.50 209.71 C 112.18 211.78 110.52 214.79 108.32 216.68 Q 107.92 217.02 107.49 218.14 Q 106.96 219.50 104.26 219.25 A 1.39 1.38 4.7 0 1 103.01 217.78 Q 103.27 213.92 102.97 200.60 Q 102.89 197.18 103.06 183.40 Q 103.21 170.81 102.36 158.54 Z"/>
<path fill="#4e4d51" d="M 102.36 158.54 Q 101.21 157.15 101.63 154.64 Q 101.69 155.56 101.58 156.47 A 1.13 1.10 -13.3 0 1 101.09 157.24 Q 99.77 158.08 100.40 158.57 L 97.76 149.85 A 2.08 1.75 -73.7 0 0 97.61 149.51 L 95.88 146.61 A 5.40 5.16 10.0 0 0 95.25 145.75 L 89.81 139.64 A 1.25 1.23 16.0 0 1 89.54 139.16 L 88.55 136.02 A 0.76 0.75 1.9 0 0 88.09 135.54 Q 86.51 134.96 86.90 133.41 A 0.43 0.42 -61.1 0 1 87.61 133.20 C 92.71 138.23 96.32 142.03 100.57 144.83 Q 102.83 146.32 102.26 149.98 Q 101.58 154.36 102.36 158.54 Z"/>
<path fill="#007ac5" d="M 210.10 157.36 A 0.52 0.51 -16.4 0 1 210.91 157.80 C 210.77 161.44 210.21 166.73 208.01 169.83 A 1.12 1.12 0.0 0 1 206.13 169.75 Q 204.26 166.52 204.47 162.20 A 1.94 1.94 0.0 0 1 205.31 160.68 L 210.10 157.36 Z"/>
<path fill="#007ac5" d="M 128.64 203.77 L 149.38 217.92 A 0.91 0.91 0.0 0 1 148.88 219.58 L 108.93 220.08 A 0.91 0.91 0.0 0 1 108.37 218.45 L 127.58 203.80 A 0.91 0.91 0.0 0 1 128.64 203.77 Z"/>
</svg>
</svg>
