<svg width="66" height="66" viewBox="0 0 66 66" fill="none" xmlns="http://www.w3.org/2000/svg">
<circle cx="32.9183" cy="32.9183" r="32.9183" fill="#F5F5F5"/>
<path d="M58.4774 28.2261C58.3902 27.7954 58.2928 27.3667 58.1841 26.9412C58.0978 26.6023 58.0027 26.266 57.9026 25.9303C57.814 25.6335 57.7224 25.3373 57.6229 25.0435C57.4665 24.5788 57.2952 24.1183 57.112 23.6613C57.0484 23.5023 56.9845 23.3427 56.9174 23.1849C56.86 23.0489 56.7999 22.9149 56.7404 22.78C56.6633 22.606 56.5844 22.4335 56.5037 22.2612C56.4819 22.2144 56.4593 22.1685 56.4372 22.1217C56.3756 21.9918 56.3129 21.8622 56.2493 21.7336C56.2269 21.6882 56.2043 21.6435 56.1819 21.5984C56.1124 21.4597 56.0414 21.3219 55.9696 21.1844C55.954 21.1547 55.9387 21.1252 55.9231 21.0955C55.5865 20.4595 55.2261 19.8385 54.8395 19.234C54.8054 19.1807 54.7697 19.1283 54.735 19.0753C54.7073 19.0329 54.6793 18.9905 54.6514 18.9481C54.5678 18.8212 54.4835 18.6946 54.3976 18.5691C54.3646 18.5209 54.3313 18.4732 54.298 18.4252C54.2412 18.343 54.1856 18.2603 54.1276 18.179C54.1014 18.1422 54.074 18.1057 54.0472 18.0689C54.0089 18.0153 53.9694 17.9623 53.9309 17.9093C53.8493 17.7974 53.7672 17.6855 53.6841 17.5751C53.64 17.5165 53.5949 17.4588 53.5505 17.4005C53.4886 17.3198 53.4277 17.2379 53.365 17.1582C53.3488 17.1378 53.3323 17.1181 53.3161 17.0978C53.1742 16.9182 53.0302 16.7397 52.8833 16.5637C52.8453 16.518 52.8061 16.4736 52.7678 16.4279C52.6495 16.2878 52.5299 16.1482 52.4086 16.0107C52.3538 15.9483 52.2982 15.8864 52.2428 15.8249C52.1298 15.6989 52.0152 15.5734 51.8992 15.4492C51.8474 15.3935 51.7959 15.3376 51.7435 15.2822C51.5774 15.107 51.4096 14.933 51.2382 14.7616C50.917 14.4404 50.5884 14.1286 50.253 13.8259C49.9538 13.5553 49.6494 13.2915 49.3393 13.0356C49.112 12.8483 48.8809 12.6661 48.648 12.4867C47.6277 11.7006 46.5539 10.9924 45.4306 10.3641C44.5859 9.89177 43.714 9.46306 42.8151 9.08292C42.0957 8.77876 41.3658 8.50934 40.6279 8.27143C38.0136 7.42842 35.2897 7 32.4999 7C31.5606 7 30.629 7.04976 29.7062 7.14605C28.5178 7.27001 27.345 7.47406 26.1905 7.75644C25.6806 7.88099 25.1741 8.01908 24.6721 8.17455C23.8312 8.43455 23.0017 8.73754 22.1849 9.08292C21.4061 9.41212 20.6474 9.77694 19.9092 10.1756C19.1513 10.5849 18.4155 11.0298 17.7026 11.5104C17.3508 11.7474 17.0048 11.9932 16.6641 12.2474C16.3238 12.5018 15.9893 12.7644 15.6607 13.0353C15.4978 13.1696 15.3368 13.3059 15.1769 13.4443C14.6914 13.8645 14.2194 14.3041 13.7618 14.7613C13.0016 15.5216 12.2922 16.3216 11.6353 17.1576C11.3727 17.4918 11.1183 17.8324 10.8727 18.1784C10.75 18.3515 10.6292 18.5259 10.5106 18.7019C10.3919 18.8777 10.2756 19.055 10.1614 19.2337C10.0471 19.4124 9.93493 19.5924 9.82481 19.774C9.16497 20.8626 8.58344 22.0006 8.08289 23.1843C7.76047 23.9466 7.47663 24.7205 7.22871 25.5037C7.18366 25.6456 7.14038 25.7878 7.09798 25.9303C6.99816 26.266 6.90276 26.6023 6.81649 26.9412C6.70784 27.3669 6.61038 27.7954 6.52322 28.2261C6.21877 29.734 6.04682 31.2716 6.00824 32.8304C6.00294 33.0533 6 33.2762 6 33.5C6 33.8307 6.00589 34.1607 6.01826 34.4896C6.10217 36.7922 6.47994 39.0462 7.1445 41.2263C7.15745 41.2696 7.17041 41.3132 7.18366 41.3562C7.44189 42.1874 7.74133 43.0074 8.08289 43.8148C8.33317 44.4063 8.60376 44.9867 8.89408 45.5556C9.05278 45.8668 9.21944 46.1736 9.39021 46.4778C10.5718 48.5807 12.0343 50.5111 13.7615 52.2384C16.0326 54.5094 18.6525 56.3247 21.5575 57.6421C21.7651 57.7363 21.9741 57.8282 22.1849 57.9174C22.7977 58.1765 23.4172 58.4117 24.0438 58.6229C26.7576 59.5374 29.594 60 32.4999 60C34.8645 60 37.1821 59.6917 39.4257 59.0852C39.6121 59.0345 39.7985 58.9821 39.9837 58.9276C40.2066 58.8623 40.428 58.7934 40.6492 58.7221C40.8603 58.6538 41.0705 58.5825 41.2807 58.5092C41.7966 58.3278 42.3083 58.132 42.8151 57.9177C43.0374 57.8237 43.2576 57.726 43.4767 57.6265C43.8409 57.4607 44.2007 57.2878 44.5555 57.1065C44.7451 57.0099 44.9333 56.9107 45.12 56.8094C45.607 56.5455 46.084 56.2652 46.5524 55.972C48.2414 54.9146 49.809 53.6673 51.2376 52.2387C51.4658 52.0105 51.6893 51.7787 51.9083 51.5438C53.4406 49.8978 54.7456 48.0828 55.8085 46.1209C55.9095 45.9342 56.0088 45.7458 56.1056 45.5565C56.2476 45.2785 56.3833 44.997 56.5155 44.7135C56.6542 44.4169 56.7887 44.1184 56.9171 43.8157C57.2763 42.9659 57.5887 42.102 57.8555 41.2266C58.0201 40.6869 58.1664 40.143 58.2954 39.5948C58.3272 39.4599 58.3575 39.3251 58.3873 39.1896C58.4444 38.9296 58.4971 38.6684 58.546 38.4067C58.8463 36.8005 59 35.1619 59 33.5003C59 31.7118 58.8251 29.9495 58.4774 28.2261ZM10.8562 34.0014C10.5271 17.3174 23.9896 11.9541 28.8167 14.0829C29.4606 14.3671 30.21 14.7987 30.8901 14.9545C32.4492 15.3117 34.8451 14.0379 34.8713 16.8016C34.8943 19.2031 33.8734 20.6612 31.6922 21.5649C29.4724 22.4847 27.3412 24.2682 25.8181 26.1267C19.4914 33.846 16.6223 46.3129 23.5906 53.892C19.5629 52.2593 11.1006 46.3933 10.8562 34.0014ZM37.6826 55.3839C37.667 55.3863 36.4545 55.6121 36.4545 55.6121C36.4545 55.6121 31.7841 48.8525 29.5325 49.217C32.857 53.94 33.2569 55.8789 33.2569 55.8789C33.2413 55.8792 33.2254 55.8792 33.2095 55.8798C17.9482 56.5073 20.6117 37.0275 24.8926 30.4095C24.4348 34.2588 27.5067 42.185 36.3859 43.3946C39.1816 43.7753 45.897 42.4303 48.4625 40.0438C48.4913 40.5812 48.5105 41.1774 48.5093 41.8143C48.4958 48.745 44.5432 54.3999 37.6826 55.3839ZM46.6852 50.7588C49.5257 48.0313 50.4744 42.5793 49.3655 37.7627C48.0087 31.8705 40.8676 28.2276 37.3688 27.291C39.0665 24.9092 45.5861 23.088 49.019 28.8701C47.4961 25.7728 45.0275 22.091 48.509 19.1156C52.1633 23.0403 54.2244 27.9314 54.4453 33.4552C54.6661 38.977 52.4902 45.754 46.6852 50.7588Z" fill="black"/>
</svg>
