<svg width="66" height="66" viewBox="0 0 66 66" fill="none" xmlns="http://www.w3.org/2000/svg">
<circle cx="32.9183" cy="32.9183" r="32.9183" fill="#F5F5F5"/>
<g transform="translate(12.9183 12.9183) scale(0.100000)">
<path d="   M 10.74 0.00   Q 21.42 15.12 32.27 30.12   Q 45.56 48.51 62.64 62.96   Q 75.03 73.44 99.79 87.99   Q 123.63 102.00 148.31 114.49   L 144.50 122.29   Q 133.39 117.83 125.00 126.18   Q 107.35 116.14 89.53 106.11   Q 64.30 91.91 54.62 85.16   Q 23.52 63.48 0.00 33.38   L 0.00 0.00   L 10.74 0.00   Z" fill="#9163f8"/>
<path d="   M 55.72 0.00   Q 69.26 39.31 104.70 60.87   C 112.63 65.70 120.54 70.52 124.52 73.60   Q 131.57 79.05 133.48 81.54   C 138.50 88.05 141.97 94.53 148.85 93.96   C 156.30 93.34 160.35 85.96 162.75 79.68   Q 172.37 76.57 182.30 76.82   L 182.79 101.91   Q 182.15 106.93 180.76 109.89   C 175.64 120.74 157.07 117.15 148.31 114.49   Q 123.63 102.00 99.79 87.99   Q 75.03 73.44 62.64 62.96   Q 45.56 48.51 32.27 30.12   Q 21.42 15.12 10.74 0.00   L 55.72 0.00   Z" fill="#9f73f7"/>
<path d="   M 76.50 0.00   C 87.64 19.69 100.86 38.84 121.76 48.99   Q 130.81 53.39 142.49 56.77   C 150.59 63.69 157.42 70.62 162.75 79.68   C 160.35 85.96 156.30 93.34 148.85 93.96   C 141.97 94.53 138.50 88.05 133.48 81.54   Q 131.57 79.05 124.52 73.60   C 120.54 70.52 112.63 65.70 104.70 60.87   Q 69.26 39.31 55.72 0.00   L 76.50 0.00   Z" fill="#aa81fa"/>
<path d="   M 207.79 0.00   C 198.35 6.55 190.30 12.50 184.18 20.34   Q 181.04 24.36 174.53 34.19   Q 169.89 41.20 161.31 45.53   Q 151.52 50.47 142.49 56.77   Q 130.81 53.39 121.76 48.99   C 100.86 38.84 87.64 19.69 76.50 0.00   L 207.79 0.00   Z" fill="#b790fb"/>
<path d="   M 400.00 0.00   L 400.00 35.18   Q 382.74 28.39 374.74 26.23   Q 342.73 17.59 308.05 19.42   Q 262.94 21.80 230.83 52.17   Q 219.76 62.65 209.31 73.67   Q 195.58 73.49 182.30 76.82   Q 172.37 76.57 162.75 79.68   C 157.42 70.62 150.59 63.69 142.49 56.77   Q 151.52 50.47 161.31 45.53   Q 169.89 41.20 174.53 34.19   Q 181.04 24.36 184.18 20.34   C 190.30 12.50 198.35 6.55 207.79 0.00   L 400.00 0.00   Z" fill="#be88de"/>
<path d="   M 400.00 35.18   L 400.00 62.86   Q 384.88 56.57 367.92 51.45   C 333.78 41.13 294.85 43.56 264.59 62.11   Q 249.65 71.26 239.90 85.94   Q 234.74 93.71 229.56 101.41   Q 221.12 98.16 213.89 103.04   Q 212.54 95.16 209.89 85.90   Q 208.23 80.08 209.31 73.67   Q 219.76 62.65 230.83 52.17   Q 262.94 21.80 308.05 19.42   Q 342.73 17.59 374.74 26.23   Q 382.74 28.39 400.00 35.18   Z" fill="#c57dbb"/>
<path d="   M 125.00 126.18   Q 115.94 139.35 127.74 150.17   C 120.65 157.31 112.04 155.79 103.45 152.44   Q 91.03 147.58 76.38 140.44   Q 37.01 121.25 0.00 97.63   L 0.00 33.38   Q 23.52 63.48 54.62 85.16   Q 64.30 91.91 89.53 106.11   Q 107.35 116.14 125.00 126.18   Z" fill="#8251f7"/>
<path d="   M 400.00 62.86   L 400.00 76.85   Q 383.86 70.55 367.30 65.78   C 343.19 58.84 318.15 58.08 294.31 65.16   C 282.13 68.78 270.22 74.36 261.15 83.02   Q 256.15 87.80 250.34 96.22   Q 240.91 109.86 237.81 115.20   Q 238.45 106.50 229.56 101.41   Q 234.74 93.71 239.90 85.94   Q 249.65 71.26 264.59 62.11   C 294.85 43.56 333.78 41.13 367.92 51.45   Q 384.88 56.57 400.00 62.86   Z" fill="#c877a9"/>
<path d="   M 400.00 76.85   L 400.00 101.82   C 382.11 94.01 363.44 86.98 344.12 85.12   C 316.63 82.47 272.66 92.17 272.60 127.83   C 272.58 139.54 274.74 150.24 277.32 161.22   L 257.23 167.74   Q 253.57 153.37 248.52 139.48   Q 244.55 128.55 237.57 119.54   Q 238.14 117.61 237.81 115.20   Q 240.91 109.86 250.34 96.22   Q 256.15 87.80 261.15 83.02   C 270.22 74.36 282.13 68.78 294.31 65.16   C 318.15 58.08 343.19 58.84 367.30 65.78   Q 383.86 70.55 400.00 76.85   Z" fill="#cc7092"/>
<path d="   M 209.31 73.67   Q 208.23 80.08 209.89 85.90   Q 212.54 95.16 213.89 103.04   Q 208.54 107.55 207.68 114.82   C 200.01 108.50 192.48 103.98 182.79 101.91   L 182.30 76.82   Q 195.58 73.49 209.31 73.67   Z" fill="#b376d2"/>
<path d="   M 400.00 101.82   L 400.00 135.84   C 377.99 124.27 354.74 114.08 329.59 121.72   Q 310.56 127.50 304.98 146.08   Q 303.67 150.44 302.43 158.37   L 298.44 169.79   Q 291.52 157.02 277.32 161.22   C 274.74 150.24 272.58 139.54 272.60 127.83   C 272.66 92.17 316.63 82.47 344.12 85.12   C 363.44 86.98 382.11 94.01 400.00 101.82   Z" fill="#d4666f"/>
<path d="   M 127.74 150.17   Q 141.98 163.11 148.75 169.00   Q 151.13 171.07 154.52 171.91   L 170.06 193.26   C 157.99 200.38 146.11 201.94 130.73 204.99   C 110.55 190.36 91.94 181.11 67.37 168.25   C 45.38 156.75 22.53 144.02 0.00 132.04   L 0.00 97.63   Q 37.01 121.25 76.38 140.44   Q 91.03 147.58 103.45 152.44   C 112.04 155.79 120.65 157.31 127.74 150.17   Z" fill="#7741f5"/>
<path d="   M 207.68 114.82   Q 204.60 129.65 201.76 144.63   Q 199.82 154.84 196.79 162.26   Q 188.78 181.86 170.06 193.26   L 154.52 171.91   C 163.25 173.61 171.56 168.21 172.55 159.28   Q 173.27 152.76 169.30 148.18   Q 163.40 141.37 149.41 126.09   Q 147.50 124.01 144.50 122.29   L 148.31 114.49   C 157.07 117.15 175.64 120.74 180.76 109.89   Q 182.15 106.93 182.79 101.91   C 192.48 103.98 200.01 108.50 207.68 114.82   Z" fill="#985ad9"/>
<path d="   M 229.56 101.41   Q 238.45 106.50 237.81 115.20   Q 238.14 117.61 237.57 119.54   L 227.71 149.37   Q 223.62 160.50 222.94 164.76   Q 218.31 193.79 234.53 216.00   Q 238.84 221.90 251.22 232.78   Q 258.36 239.05 273.23 252.27   Q 278.14 256.64 277.93 264.30   Q 276.27 276.90 263.31 278.38   Q 255.99 278.30 251.72 273.53   Q 238.21 258.39 232.66 252.06   Q 221.34 239.14 215.50 234.96   C 200.88 224.47 182.95 220.28 164.86 223.71   Q 160.86 224.53 151.94 227.46   Q 123.67 236.75 120.55 237.79   C 111.42 240.83 102.44 236.04 100.37 226.57   C 99.01 220.33 102.08 213.91 107.40 210.57   Q 109.18 209.47 114.57 208.34   Q 122.67 206.65 130.73 204.99   C 146.11 201.94 157.99 200.38 170.06 193.26   Q 188.78 181.86 196.79 162.26   Q 199.82 154.84 201.76 144.63   Q 204.60 129.65 207.68 114.82   Q 208.54 107.55 213.89 103.04   Q 221.12 98.16 229.56 101.41   Z" fill="#ffffff"/>
<path d="   M 400.00 135.84   L 400.00 149.78   C 389.22 144.84 378.21 139.73 366.58 137.08   C 353.54 134.11 339.20 136.67 330.34 146.73   Q 321.30 157.00 325.04 171.13   C 328.02 182.36 334.30 192.80 340.77 203.95   C 350.73 221.13 361.92 238.13 371.70 255.50   Q 364.64 249.68 361.47 245.48   Q 347.85 227.45 333.84 209.70   Q 321.17 193.67 316.16 185.47   Q 308.25 172.54 302.43 158.37   Q 303.67 150.44 304.98 146.08   Q 310.56 127.50 329.59 121.72   C 354.74 114.08 377.99 124.27 400.00 135.84   Z" fill="#da6058"/>
<path d="   M 257.23 167.74   C 249.40 170.06 243.45 171.97 240.96 180.21   Q 232.28 165.87 227.71 149.37   L 237.57 119.54   Q 244.55 128.55 248.52 139.48   Q 253.57 153.37 257.23 167.74   Z" fill="#ae4f94"/>
<path d="   M 144.50 122.29   Q 147.50 124.01 149.41 126.09   Q 163.40 141.37 169.30 148.18   Q 173.27 152.76 172.55 159.28   C 171.56 168.21 163.25 173.61 154.52 171.91   Q 151.13 171.07 148.75 169.00   Q 141.98 163.11 127.74 150.17   Q 115.94 139.35 125.00 126.18   Q 133.39 117.83 144.50 122.29   Z" fill="#ffffff"/>
<path d="   M 400.00 149.78   L 400.00 307.50   L 399.66 296.95   A 0.11 0.11 0.0 0 0 399.45 296.91   Q 386.91 323.97 374.98 351.36   Q 364.81 374.70 364.14 400.00   L 352.29 400.00   Q 354.79 377.25 361.71 355.35   Q 372.44 321.38 374.07 315.48   C 377.54 302.95 379.31 292.80 376.99 280.94   Q 374.49 268.20 371.70 255.50   C 361.92 238.13 350.73 221.13 340.77 203.95   C 334.30 192.80 328.02 182.36 325.04 171.13   Q 321.30 157.00 330.34 146.73   C 339.20 136.67 353.54 134.11 366.58 137.08   C 378.21 139.73 389.22 144.84 400.00 149.78   Z" fill="#df5c46"/>
<path d="   M 130.73 204.99   Q 122.67 206.65 114.57 208.34   Q 109.18 209.47 107.40 210.57   C 102.08 213.91 99.01 220.33 100.37 226.57   C 102.44 236.04 111.42 240.83 120.55 237.79   Q 123.67 236.75 151.94 227.46   Q 160.86 224.53 164.86 223.71   Q 172.41 232.33 178.24 241.60   Q 171.13 244.44 168.76 252.01   Q 167.33 256.59 161.41 274.79   Q 159.05 282.03 159.37 285.12   C 160.49 295.89 171.58 303.11 181.95 298.66   Q 189.22 295.54 191.14 287.51   Q 193.30 278.49 195.21 269.57   C 216.94 275.27 235.12 292.20 246.63 311.21   Q 250.95 318.34 256.68 330.49   C 258.06 346.36 258.90 358.17 255.79 370.86   Q 251.24 389.41 249.09 400.00   L 234.60 400.00   C 236.93 379.71 235.99 362.91 220.95 347.61   C 209.63 336.09 195.40 326.36 181.75 318.08   Q 129.03 286.11 72.37 257.57   Q 67.62 255.18 59.89 251.10   C 49.09 245.40 36.04 238.11 28.76 234.67   Q 15.02 228.18 0.00 225.34   L 0.00 132.04   C 22.53 144.02 45.38 156.75 67.37 168.25   C 91.94 181.11 110.55 190.36 130.73 204.99   Z" fill="#6128f2"/>
<path d="   M 227.71 149.37   Q 232.28 165.87 240.96 180.21   Q 238.83 193.88 252.48 198.65   Q 272.44 223.02 293.31 248.07   Q 306.36 263.75 311.73 281.19   Q 319.60 306.75 316.18 335.27   Q 315.18 343.64 312.19 357.04   Q 312.16 345.08 311.61 333.16   Q 311.26 325.49 308.93 320.50   C 304.56 311.11 299.75 300.65 295.25 292.48   Q 287.24 277.96 277.93 264.30   Q 278.14 256.64 273.23 252.27   Q 258.36 239.05 251.22 232.78   Q 238.84 221.90 234.53 216.00   Q 218.31 193.79 222.94 164.76   Q 223.62 160.50 227.71 149.37   Z" fill="#a04caf"/>
<path d="   M 302.43 158.37   Q 308.25 172.54 316.16 185.47   Q 321.17 193.67 333.84 209.70   Q 347.85 227.45 361.47 245.48   Q 364.64 249.68 371.70 255.50   Q 374.49 268.20 376.99 280.94   C 379.31 292.80 377.54 302.95 374.07 315.48   Q 372.44 321.38 361.71 355.35   Q 354.79 377.25 352.29 400.00   L 335.90 400.00   Q 338.80 374.88 344.29 355.21   Q 350.42 333.23 354.56 315.59   C 359.95 292.66 360.00 271.01 348.74 250.02   Q 344.06 241.30 332.61 226.11   Q 315.91 203.93 298.76 181.93   Q 300.79 176.03 298.44 169.79   L 302.43 158.37   Z" fill="#ce555c"/>
<path d="   M 298.44 169.79   Q 300.79 176.03 298.76 181.93   Q 295.27 190.32 286.26 192.28   Q 280.02 193.64 277.28 194.06   Q 264.75 197.65 252.48 198.65   Q 238.83 193.88 240.96 180.21   C 243.45 171.97 249.40 170.06 257.23 167.74   L 277.32 161.22   Q 291.52 157.02 298.44 169.79   Z" fill="#ffffff"/>
<path d="   M 335.90 400.00   L 330.74 400.00   Q 334.40 372.47 339.48 345.15   C 340.98 337.07 342.28 327.74 340.59 322.24   Q 336.81 309.96 335.31 297.25   Q 333.03 282.28 331.35 275.88   Q 325.31 252.83 309.87 233.55   Q 290.93 209.91 277.28 194.06   Q 280.02 193.64 286.26 192.28   Q 295.27 190.32 298.76 181.93   Q 315.91 203.93 332.61 226.11   Q 344.06 241.30 348.74 250.02   C 360.00 271.01 359.95 292.66 354.56 315.59   Q 350.42 333.23 344.29 355.21   Q 338.80 374.88 335.90 400.00   Z" fill="#c25473"/>
<path d="   M 277.28 194.06   Q 290.93 209.91 309.87 233.55   Q 325.31 252.83 331.35 275.88   Q 333.03 282.28 335.31 297.25   L 331.08 289.65   A 0.98 0.98 0.0 0 0 329.32 289.75   Q 328.43 291.85 328.29 294.01   Q 328.24 294.67 327.12 316.75   Q 326.29 333.21 321.12 351.18   Q 314.20 375.21 310.86 400.00   L 305.99 400.00   L 312.19 357.04   Q 315.18 343.64 316.18 335.27   Q 319.60 306.75 311.73 281.19   Q 306.36 263.75 293.31 248.07   Q 272.44 223.02 252.48 198.65   Q 264.75 197.65 277.28 194.06   Z" fill="#ae4f94"/>
<path d="   M 234.60 400.00   L 0.00 400.00   L 0.00 225.34   Q 15.02 228.18 28.76 234.67   C 36.04 238.11 49.09 245.40 59.89 251.10   Q 67.62 255.18 72.37 257.57   Q 129.03 286.11 181.75 318.08   C 195.40 326.36 209.63 336.09 220.95 347.61   C 235.99 362.91 236.93 379.71 234.60 400.00   Z" fill="#531af3"/>
<path d="   M 263.31 278.38   L 280.52 307.37   C 279.62 311.19 278.28 318.13 275.67 321.13   A 1.89 1.88 36.0 0 1 273.29 321.50   Q 271.91 320.68 271.01 319.44   Q 269.08 316.76 264.23 310.42   Q 263.22 309.09 262.30 308.81   A 1.73 1.72 10.8 0 0 260.07 310.32   Q 259.54 316.75 259.12 322.22   Q 258.87 325.45 256.68 330.49   Q 250.95 318.34 246.63 311.21   C 235.12 292.20 216.94 275.27 195.21 269.57   Q 196.29 264.61 197.40 259.79   C 200.19 247.72 190.20 238.40 178.24 241.60   Q 172.41 232.33 164.86 223.71   C 182.95 220.28 200.88 224.47 215.50 234.96   Q 221.34 239.14 232.66 252.06   Q 238.21 258.39 251.72 273.53   Q 255.99 278.30 263.31 278.38   Z" fill="#793adf"/>
<path d="   M 195.21 269.57   Q 193.30 278.49 191.14 287.51   Q 189.22 295.54 181.95 298.66   C 171.58 303.11 160.49 295.89 159.37 285.12   Q 159.05 282.03 161.41 274.79   Q 167.33 256.59 168.76 252.01   Q 171.13 244.44 178.24 241.60   C 190.20 238.40 200.19 247.72 197.40 259.79   Q 196.29 264.61 195.21 269.57   Z" fill="#ffffff"/>
<path d="   M 312.19 357.04   L 305.99 400.00   L 293.46 400.00   C 295.11 382.68 295.85 365.20 293.63 347.90   C 291.77 333.45 285.95 320.71 280.52 307.37   L 263.31 278.38   Q 276.27 276.90 277.93 264.30   Q 287.24 277.96 295.25 292.48   C 299.75 300.65 304.56 311.11 308.93 320.50   Q 311.26 325.49 311.61 333.16   Q 312.16 345.08 312.19 357.04   Z" fill="#8e3cb7"/>
<path d="   M 335.31 297.25   Q 336.81 309.96 340.59 322.24   C 342.28 327.74 340.98 337.07 339.48 345.15   Q 334.40 372.47 330.74 400.00   L 310.86 400.00   Q 314.20 375.21 321.12 351.18   Q 326.29 333.21 327.12 316.75   Q 328.24 294.67 328.29 294.01   Q 328.43 291.85 329.32 289.75   A 0.98 0.98 0.0 0 1 331.08 289.65   L 335.31 297.25   Z" fill="#b04680"/>
<path d="   M 400.00 307.50   L 400.00 400.00   L 364.14 400.00   Q 364.81 374.70 374.98 351.36   Q 386.91 323.97 399.45 296.91   A 0.11 0.11 0.0 0 1 399.66 296.95   L 400.00 307.50   Z" fill="#e6582e"/>
<path d="   M 280.52 307.37   C 285.95 320.71 291.77 333.45 293.63 347.90   C 295.85 365.20 295.11 382.68 293.46 400.00   L 249.09 400.00   Q 251.24 389.41 255.79 370.86   C 258.90 358.17 258.06 346.36 256.68 330.49   Q 258.87 325.45 259.12 322.22   Q 259.54 316.75 260.07 310.32   A 1.73 1.72 10.8 0 1 262.30 308.81   Q 263.22 309.09 264.23 310.42   Q 269.08 316.76 271.01 319.44   Q 271.91 320.68 273.29 321.50   A 1.89 1.88 36.0 0 0 275.67 321.13   C 278.28 318.13 279.62 311.19 280.52 307.37   Z" fill="#762dd0"/>
</g>
</svg>
