<svg width="66" height="66" viewBox="0 0 66 66" fill="none" xmlns="http://www.w3.org/2000/svg">
<circle cx="32.9183" cy="32.9183" r="32.9183" fill="#F5F5F5"/>
<path fill-rule="evenodd" clip-rule="evenodd" d="M15.0653 39.1375L23.7889 43.9748C23.8759 44.0249 23.9282 44.1083 23.9282 44.2083V53.8662C23.9282 53.9663 24.0501 54.033 24.1371 53.983L32.8607 49.1457C32.9478 49.0957 33 49.0123 33 48.9122V39.1709C33 39.0708 32.9478 38.9874 32.8607 38.9374L23.9282 34L15.0653 38.904C14.9782 38.954 14.9782 39.0708 15.0653 39.1375Z" fill="#0C0020"/>
<path fill-rule="evenodd" clip-rule="evenodd" d="M32.8748 16.6246L24.0658 11.043C23.9787 10.9857 23.8743 10.9857 23.7872 11.043L15.0653 16.5863C14.9782 16.6437 14.9782 16.7966 15.0653 16.8539L23.7872 22.3973C23.8743 22.4546 23.9265 22.5502 23.9265 22.6649V34L32.9967 28.2464V16.8922C33.0141 16.7775 32.9618 16.6819 32.8748 16.6246Z" fill="#0C0020"/>
<path fill-rule="evenodd" clip-rule="evenodd" d="M51.8541 26.4114L42.6459 21.0414C42.5547 20.9862 42.4453 20.9862 42.3541 21.0414L33 26.485L42.3541 31.9469C42.4453 32.0021 42.5 32.0941 42.5 32.2044V42.8525C42.5 42.9628 42.6276 43.0364 42.7188 42.9812L51.8541 37.648C51.9453 37.5928 52 37.5009 52 37.3905V26.6689C52 26.5585 51.9453 26.4666 51.8541 26.4114Z" fill="#0C0020"/>
</svg>
