<svg width="66" height="66" viewBox="0 0 66 66" fill="none" xmlns="http://www.w3.org/2000/svg">
<circle cx="32.9183" cy="32.9183" r="32.9183" fill="#F5F5F5"/>
<path fill-rule="evenodd" clip-rule="evenodd" d="M21 23H24V34.9332L24.0003 34.9731V35C24.0003 35.0223 24.0002 35.0445 24 35.0668V42H21V40.7455C19.8662 41.5362 18.4873 42 17.0002 42C13.1341 42 10 38.866 10 35C10 31.134 13.1341 28 17.0002 28C18.4873 28 19.8662 28.4638 21 29.2545V23ZM17 38.9998C19.2091 38.9998 21 37.209 21 34.9999C21 32.7908 19.2091 31 17 31C14.7909 31 13 32.7908 13 34.9999C13 37.209 14.7909 38.9998 17 38.9998ZM42 23H45V29.2547C46.1339 28.4638 47.5128 28 49.0002 28C52.8662 28 56.0003 31.134 56.0003 35C56.0003 38.866 52.8662 42 49.0002 42C45.1341 42 42 38.866 42 35V23ZM49 38.9998C51.2091 38.9998 53 37.209 53 34.9999C53 32.7908 51.2091 31 49 31C46.7909 31 45 32.7908 45 34.9999C45 37.209 46.7909 38.9998 49 38.9998ZM29 28H26V35C26 35.9192 26.1811 36.8295 26.5329 37.6788C26.8846 38.5281 27.4003 39.2997 28.0503 39.9497C28.7003 40.5997 29.472 41.1154 30.3213 41.4671C31.1706 41.8189 32.0809 42 33.0002 42C33.9194 42 34.8297 41.8189 35.679 41.4671C36.5283 41.1154 37.3 40.5997 37.95 39.9497C38.6 39.2997 39.1157 38.5281 39.4675 37.6788C39.8192 36.8295 40.0003 35.9192 40.0003 35L40 28H37V35C37 36.0608 36.5785 37.0782 35.8284 37.8283C35.0783 38.5784 34.0609 38.9998 33 38.9998C31.9391 38.9998 30.9217 38.5784 30.1716 37.8283C29.4215 37.0782 29 36.0608 29 35V28Z" fill="black"/>
</svg>
