<svg width="66" height="66" viewBox="0 0 66 66" fill="none" xmlns="http://www.w3.org/2000/svg">
<circle cx="32.9183" cy="32.9183" r="32.9183" fill="#F5F5F5"/>
<g clip-path="url(#clip0_3_2384)">
<path d="M57.9922 34.2486C57.9922 30.0453 55.3803 26.4133 51.5033 24.9849C51.6675 24.0965 51.7494 23.1948 51.748 22.2914C51.748 14.4967 45.4227 8.17126 37.6279 8.17126C33.098 8.17126 28.8539 10.3342 26.2012 14.0478C24.8953 13.0275 23.3037 12.497 21.6305 12.497C17.5086 12.497 14.1215 15.8433 14.1215 20.006C14.1215 20.9039 14.2848 21.8017 14.5703 22.6179C10.6527 23.9646 8 27.7191 8 31.8816C8 36.0851 10.6119 39.758 14.5295 41.1863C14.3664 42.0433 14.2848 42.9412 14.2848 43.8797C14.2848 51.6336 20.6102 57.9592 28.3641 57.9592C32.9348 57.9592 37.1383 55.7554 39.7908 52.0826C41.0967 53.1027 42.7291 53.6742 44.4023 53.6742C48.5242 53.6742 51.9113 50.3277 51.9113 46.1652C51.9113 45.2674 51.748 44.3695 51.4625 43.5533C55.2984 42.1658 57.992 38.4113 57.992 34.2486H57.9922Z" fill="white"/>
<path d="M27.5479 29.5554L38.6891 34.6568L49.9525 24.7808C50.1167 23.9612 50.1987 23.1273 50.1973 22.2914C50.1973 15.3539 44.5656 9.72205 37.6279 9.72205C33.4652 9.72205 29.5885 11.7625 27.2623 15.1904L25.385 24.9033L27.5479 29.5554Z" fill="#F4BD19"/>
<path d="M15.9986 41.3497C15.8355 42.1659 15.7539 43.0229 15.7539 43.8799C15.7539 50.8174 21.4264 56.4901 28.3641 56.4901C32.5676 56.4901 36.4445 54.4088 38.8113 50.9807L40.6479 41.268L38.1584 36.534L26.9766 31.4329L15.9986 41.3497Z" fill="#3CBEB1"/>
<path d="M15.9172 22.0465L23.5486 23.8422L25.2625 15.1496C24.2016 14.3334 22.9363 13.9254 21.5896 13.9254C18.284 13.9254 15.5498 16.6188 15.5498 19.9653C15.5498 20.659 15.6725 21.3936 15.9172 22.0465Z" fill="#E9478C"/>
<path d="M15.2641 23.8828C11.8361 24.9848 9.46914 28.2904 9.46914 31.8816C9.46914 35.3914 11.632 38.5338 14.8969 39.758L25.6299 30.0451L23.6709 25.842L15.2641 23.8828Z" fill="#2C458F"/>
<path d="M40.7703 50.9399C41.8313 51.7563 43.0965 52.2051 44.4023 52.2051C47.708 52.2051 50.4422 49.5118 50.4422 46.1653C50.4422 45.4307 50.3197 44.7368 50.075 44.0838L42.4436 42.2883L40.7703 50.9399Z" fill="#95C63D"/>
<path d="M42.3211 40.2885L50.7279 42.2474C54.1559 41.1049 56.5229 37.84 56.5229 34.2486C56.5229 30.7388 54.36 27.6375 51.0951 26.3724L40.0766 36.0035L42.3211 40.2885Z" fill="#176655"/>
</g>
<defs>
<clipPath id="clip0_3_2384">
<rect width="50" height="50" fill="white" transform="translate(8 8)"/>
</clipPath>
</defs>
</svg>
