<svg width="66" height="66" viewBox="0 0 66 66" fill="none" xmlns="http://www.w3.org/2000/svg">
<circle cx="32.9183" cy="32.9183" r="32.9183" fill="#F5F5F5"/>
<g clip-path="url(#clip0_463_11)">
<path d="M33 48.5556V53C30.3725 53.0072 27.7696 52.4932 25.3421 51.4877C22.9146 50.4823 20.7106 49.0053 18.8577 47.1423C17.6205 45.9076 16.5498 44.5166 15.6729 43.0046L19.5315 40.7771C20.8971 43.141 22.8604 45.1041 25.2244 46.4694C27.5884 47.8347 30.27 48.5542 33 48.5556Z" fill="#FFCB60"/>
<path d="M50.3282 22.9968L46.4705 25.2249C45.1049 22.8606 43.1415 20.897 40.7773 19.5314C38.413 18.1657 35.7312 17.4459 33.0009 17.4443V13C35.6284 12.9927 38.2312 13.5067 40.6587 14.5122C43.0862 15.5177 45.2902 16.9946 47.1431 18.8576C48.3802 20.093 49.4509 21.4845 50.3282 22.9968Z" fill="#7E61FF"/>
<path d="M33.0009 13V17.4443C30.2708 17.4456 27.5892 18.1649 25.225 19.5301C22.8608 20.8952 20.8972 22.8581 19.5313 25.2219L15.6735 22.9938C16.5508 21.4825 17.6216 20.092 18.8587 18.8576C20.7115 16.9946 22.9155 15.5177 25.343 14.5122C27.7705 13.5067 30.3734 12.9927 33.0009 13Z" fill="#FF5F7D"/>
<path d="M53 33C53.005 35.7602 52.437 38.4914 51.3319 41.0208V41.0237L47.4444 38.7778C48.3181 36.5923 48.6843 34.237 48.5155 31.8894C48.3466 29.5418 47.6471 27.2632 46.4696 25.2252L50.3274 22.9971C52.0869 26.0365 53.0091 29.4881 53 33Z" fill="#5A3DBE"/>
<path d="M51.3319 41.0237C50.7351 42.384 49.9877 43.673 49.1037 44.8667L42.1644 40.8608C41.4051 40.4208 40.7747 39.789 40.3364 39.0288C39.898 38.2685 39.6671 37.4065 39.6667 36.5289V33.0978C39.688 31.6227 39.2193 30.1822 38.334 29.002C37.4488 27.8218 36.197 26.9687 34.7749 26.5763C33.3528 26.184 31.8406 26.2745 30.4755 26.8337C29.1103 27.393 27.9692 28.3894 27.2311 29.6667L23.3793 27.4415C24.6027 25.3239 26.4907 23.6691 28.7504 22.7337C31.0101 21.7983 33.5153 21.6346 35.8775 22.268C38.2397 22.9013 40.3269 24.2963 41.8156 26.2367C43.3042 28.1771 44.1111 30.5544 44.1111 33V35.6963C44.1116 36.0473 44.204 36.392 44.3792 36.6962C44.5544 37.0003 44.8062 37.2532 45.1096 37.4297L47.4444 38.7778L51.3319 41.0237Z" fill="#5FD7AA"/>
<path d="M39.0919 42.2919C37.001 43.6623 34.509 44.2875 32.0189 44.0665C29.5287 43.8455 27.1858 42.7912 25.3689 41.074C23.552 39.3568 22.3673 37.0771 22.0063 34.6034C21.6452 32.1296 22.129 29.6064 23.3793 27.4415L27.2311 29.6667C26.5464 30.8417 26.2402 32.199 26.3541 33.5541C26.4992 35.2376 27.2762 36.8038 28.5289 37.9377C29.7816 39.0717 31.4171 39.6894 33.1067 39.6667C33.5437 39.6735 33.98 39.6307 34.4074 39.5393C35.085 39.3823 35.7344 39.1225 36.3334 38.7689L39.0919 42.2919Z" fill="#3FB3A3"/>
<path d="M51.3321 41.0208V41.0236L47.4445 38.7776L51.3321 41.0208Z" fill="#5FD7AA"/>
<path d="M17.4444 33.0004C17.4409 35.7315 18.161 38.4148 19.5316 40.7772L15.6729 43.0047C13.9214 39.9609 12.9997 36.5106 13 32.9989C13.0003 29.4871 13.9226 26.037 15.6747 22.9935L19.5324 25.2219C18.1612 27.5847 17.4408 30.2686 17.4444 33.0004Z" fill="#FF9C5B"/>
</g>
<defs>
<clipPath id="clip0_463_11">
<rect width="40" height="40" fill="white" transform="translate(13 13)"/>
</clipPath>
</defs>
</svg>
