<svg width="66" height="66" viewBox="0 0 66 66" fill="none" xmlns="http://www.w3.org/2000/svg">
<circle cx="32.9183" cy="32.9183" r="32.9183" fill="#F5F5F5"/>
<path d="M52.9239 39.8795C51.513 39.2168 49.9603 39.9875 49.3422 40.5524C48.9688 40.893 48.5167 41.156 48.0178 41.3229C47.5189 41.4898 46.9853 41.5566 46.4545 41.5185C45.9243 41.477 45.4103 41.3336 44.9474 41.098C44.4836 40.8602 44.0833 40.5344 43.7746 40.1432C43.6998 40.046 43.6313 39.945 43.5694 39.8409C46.0125 38.1867 47.9925 36.0444 49.3524 33.5839C50.7124 31.1234 51.4148 28.4125 51.4041 25.6659C51.3927 15.8773 42.4726 7.93224 31.5767 8.00044C20.7479 8.06863 12 15.975 12 25.7148C12 32.0515 15.7109 37.6176 21.2786 40.7467C21.2565 40.9041 21.224 41.0601 21.181 41.2139C21.0506 41.6822 20.8011 42.1118 20.4642 42.4812C20.1286 42.8518 19.7043 43.145 19.2167 43.3496C19.0966 43.4009 18.9735 43.4464 18.8481 43.486C18.8367 43.486 18.8367 43.486 18.8266 43.4951L18.7062 43.5247C18.2024 43.6546 17.6738 43.6879 17.1548 43.6224C16.2872 43.5053 13.9314 43.4269 13.302 44.8704C12.727 46.1958 13.9314 47.2096 15.1802 47.5608C15.4082 47.629 15.6362 47.6779 15.8743 47.7268C16.0478 47.7757 16.2213 47.8143 16.3948 47.8336C16.8179 47.8927 17.2523 47.9212 17.6867 47.9212C18.4897 47.9212 19.2825 47.8143 20.0424 47.6097C20.0526 47.6097 20.0526 47.6097 20.0627 47.5995C20.0741 47.5995 20.0741 47.5995 20.0842 47.5904C20.1931 47.5608 20.3122 47.5313 20.4211 47.4926C21.4609 47.1693 22.4197 46.6657 23.2429 46.0105C23.4266 45.8635 23.5972 45.7039 23.7533 45.5331C23.8717 45.4182 23.9874 45.3011 24.1004 45.1819C24.1548 45.1239 24.1979 45.0648 24.2524 45.0068C24.2625 44.9966 24.2625 44.9875 24.2739 44.9773C24.5234 44.6852 24.7514 44.3828 24.9464 44.0612C24.9464 44.0612 24.9464 44.0509 24.9578 44.0509C25.0338 43.9248 25.2504 44.0021 25.1959 44.1384C25.1858 44.1589 25.1858 44.168 25.1744 44.1873C24.6764 45.5729 23.9442 46.8816 23.0036 48.0678C22.2373 49.0309 21.3452 49.9082 20.3464 50.6809C19.2724 51.4993 18.8709 52.8837 19.5979 53.9658C20.3249 55.0478 21.8979 55.3979 23.0048 54.6193C26.4059 52.2183 28.8965 48.9323 30.1354 45.2114C30.1898 45.0353 30.2658 44.792 30.3304 44.5385C30.3735 44.3635 30.6673 44.3919 30.6673 44.5681C30.6774 44.792 30.6774 45.0159 30.6774 45.2308C30.6439 47.1814 30.1677 49.1055 29.2779 50.8855C28.7341 51.9643 28.0451 52.9793 27.2262 53.9078C26.3472 54.8921 26.2611 56.3254 27.2046 57.2608C28.1495 58.1963 29.7668 58.2747 30.6876 57.3188C32.0038 55.9487 33.0932 54.4155 33.9223 52.7666C35.1065 50.4188 35.7349 47.8759 35.7676 45.2989V44.7136C35.7676 44.5772 35.9842 44.5488 36.0272 44.6749L36.202 45.241C36.5693 46.6834 36.6896 48.1655 36.549 49.6466C36.4388 50.8269 36.1617 51.9899 35.7245 53.1076C35.2572 54.2977 35.7017 55.6821 36.9404 56.2765C38.1791 56.871 39.728 56.4618 40.2384 55.2911C41.6084 52.1532 42.013 48.7424 41.41 45.416C41.334 44.9671 41.2263 44.5294 41.1174 44.0896C41.0845 43.9827 41.2364 43.8952 41.334 43.9736C41.7253 44.2748 42.1483 44.5385 42.5929 44.7727C43.6571 45.3201 44.843 45.6497 46.0657 45.7377C47.2889 45.8241 48.5183 45.6709 49.669 45.2887C51.2322 44.7623 52.5848 43.8291 53.5534 42.6085C54.3247 41.6822 54.0853 40.4251 52.9252 39.8784L52.9239 39.8795ZM24.74 28.4257C24.4191 28.4657 24.0926 28.4485 23.7792 28.375C23.4658 28.3016 23.1717 28.1733 22.9136 27.9976C22.6556 27.8219 22.4387 27.6021 22.2755 27.351C22.1123 27.0999 22.0059 26.8224 21.9625 26.5343C21.917 26.2463 21.9354 25.9531 22.0167 25.6715C22.0981 25.3899 22.2407 25.1256 22.4363 24.8937C22.632 24.6618 22.8768 24.4669 23.1568 24.3203C23.4367 24.1737 23.7462 24.0782 24.0674 24.0394C24.3884 23.9992 24.715 24.0163 25.0286 24.0897C25.3421 24.1631 25.6364 24.2913 25.8946 24.4671C26.1528 24.6428 26.3698 24.8626 26.5331 25.1138C26.6964 25.3649 26.8028 25.6426 26.8462 25.9308C26.8908 26.2188 26.8717 26.5118 26.79 26.7931C26.7082 27.0745 26.5654 27.3386 26.3698 27.5703C26.1741 27.8021 25.9295 27.9969 25.6498 28.1437C25.3701 28.2905 25.061 28.3863 24.74 28.4257ZM42.2877 26.232C41.9668 26.272 41.6403 26.2548 41.3269 26.1813C41.0135 26.1079 40.7194 25.9796 40.4613 25.8039C40.2033 25.6282 39.9864 25.4085 39.8232 25.1574C39.66 24.9063 39.5536 24.6287 39.5102 24.3406C39.4655 24.0527 39.4846 23.7598 39.5663 23.4785C39.6479 23.1972 39.7906 22.9331 39.9861 22.7014C40.1816 22.4697 40.4262 22.2748 40.7057 22.128C40.9852 21.9812 41.2943 21.8852 41.6151 21.8457C41.9361 21.8055 42.2627 21.8226 42.5762 21.896C42.8898 21.9694 43.1841 22.0976 43.4423 22.2734C43.7005 22.4491 43.9175 22.6689 44.0808 22.9201C44.2441 23.1712 44.3505 23.4489 44.3939 23.7371C44.4383 24.025 44.4191 24.318 44.3373 24.5993C44.2555 24.8806 44.1127 25.1446 43.9171 25.3764C43.7214 25.6081 43.4769 25.8029 43.1973 25.9497C42.9177 26.0965 42.6086 26.1925 42.2877 26.232Z" fill="#6E54D7"/>
</svg>
