<svg width="66" height="66" viewBox="0 0 66 66" fill="none" xmlns="http://www.w3.org/2000/svg">
<circle cx="32.9183" cy="32.9183" r="32.9183" fill="#F5F5F5"/>
<g clip-path="url(#clip0_418_64)">
<path d="M45.4012 22.422H15.6995C14.2086 22.422 13 23.6143 13 25.0851V47.0304C13 48.5011 14.2086 49.6936 15.6995 49.6936H45.4012C46.8921 49.6936 48.1005 48.5011 48.1005 47.0304V25.0851C48.1005 23.6143 46.8921 22.422 45.4012 22.422Z" fill="#FFD64D"/>
<path d="M26.0801 38.0351C26.5351 37.5272 27.195 37.2433 27.8828 37.2619H51.7036C52.0184 37.2619 52.3231 37.1519 52.5642 36.9522C52.8202 36.7104 52.9617 36.374 52.9562 36.0246V24.8959C52.9635 24.2425 52.6765 23.6197 52.1732 23.196C51.7429 22.6986 51.1116 22.4148 50.4494 22.422H47.9415C47.2694 22.4455 46.6177 22.194 46.1398 21.7266C45.6659 21.2559 45.411 20.6121 45.4348 19.949V17.4743C45.4413 16.8209 45.1544 16.1982 44.6511 15.7744C44.2207 15.2762 43.5895 14.994 42.9271 15.0005H27.8844C27.8459 15.0005 27.8098 15.0045 27.7721 15.0061V15.0005H20.3598C19.713 14.9875 19.0892 15.2399 18.6358 15.696C18.1202 16.1448 17.8333 16.7958 17.8522 17.4743V24.8943V47.2973C17.8522 48.6211 16.7643 49.6936 15.4224 49.6936H50.4452C51.0928 49.7063 51.7165 49.4548 52.169 48.9988C52.6848 48.55 52.9708 47.8989 52.952 47.2205V44.7474C52.9593 44.094 52.6723 43.4712 52.169 43.0475C51.7388 42.5509 51.1075 42.2679 50.4452 42.2743H27.8812C27.209 42.297 26.5564 42.0455 26.0785 41.5789C25.6055 41.1074 25.3505 40.4636 25.3735 39.8005V39.7342C25.362 39.0961 25.617 38.4807 26.0801 38.0343V38.0351ZM42.9246 22.4212C43.5878 22.414 44.219 22.6978 44.6494 23.1952C45.1536 23.6189 45.4405 24.2425 45.4331 24.8951V27.3673C45.452 28.045 45.1651 28.6968 44.6494 29.1457C44.1961 29.6026 43.5723 29.8549 42.9246 29.842H27.882C27.2098 29.8646 26.5572 29.6131 26.0793 29.1457C25.6063 28.6742 25.3514 28.0305 25.3743 27.3673V24.8951C25.3612 24.257 25.617 23.6416 26.0793 23.1952C26.5343 22.6865 27.1942 22.4026 27.882 22.4212H42.9246Z" fill="#331F45"/>
</g>
<defs>
<clipPath id="clip0_418_64">
<rect width="40" height="35" fill="white" transform="translate(13 15)"/>
</clipPath>
</defs>
</svg>
