<svg width="66" height="66" viewBox="0 0 66 66" fill="none" xmlns="http://www.w3.org/2000/svg">
<circle cx="32.9183" cy="32.9183" r="32.9183" fill="#F5F5F5"/>
<g clip-path="url(#clip0_516_2)">
<path d="M33 12.3694C21.7976 12.3694 12.7368 21.3724 12.7368 32.5033C12.7368 43.6343 21.7976 52.6372 33 52.6372C44.2024 52.6372 53.2631 43.6343 53.2631 32.5033C53.2631 21.3724 44.1841 12.3694 33 12.3694ZM27.5269 29.3386H26.2456V48.254H25.0192V29.3386H23.7379V22.791H25.0192V20.4993H26.2456V22.8092H27.5269V29.3386ZM35.0135 46.1988H33.6772V49.3451H32.3227V46.1988H30.9865V28.0109H32.3227V15.6432H33.6589V28.0109H34.9952V46.1988H35.0135ZM42.2438 32.5033H40.9625V37.1048H39.8642V32.5033H38.5829V20.4993H39.8642V18.1895H40.9625V20.4993H42.2438V32.5033Z" fill="#D15234"/>
</g>
<defs>
<clipPath id="clip0_516_2">
<rect width="42" height="41" fill="white" transform="translate(12 12)"/>
</clipPath>
</defs>
</svg>
