<svg width="66" height="66" viewBox="0 0 66 66" fill="none" xmlns="http://www.w3.org/2000/svg">
<circle cx="32.9183" cy="32.9183" r="32.9183" fill="#F5F5F5"/>
<g clip-path="url(#clip0_547_2)">
<path d="M50.8723 13H15.1277C13.9528 13 13 13.9523 13 15.1277V50.8723C13 52.0477 13.9528 53 15.1277 53H50.8723C52.0477 53 53 52.0477 53 50.8723V15.1277C53 13.9523 52.0477 13 50.8723 13ZM47.2813 42.2191C47.0162 44.4187 46.74 46.6174 46.4923 48.8204C46.4013 49.6391 46.4328 49.6345 45.5932 49.6234C39.1808 49.5438 32.7681 49.4396 26.3557 49.4034C24.0574 49.3915 21.7596 49.5417 19.4609 49.6149C19.1566 49.6247 18.8523 49.6162 18.4911 49.6162C18.4911 48.9783 18.4911 48.36 18.4911 47.6413C19.3111 47.4787 20.18 47.3191 21.043 47.1323C21.3987 47.0562 21.7498 46.946 22.0864 46.8106C22.5936 46.6068 22.9115 46.2294 22.9847 45.6719C23.0196 45.4106 23.0706 45.1485 23.0732 44.8864C23.1166 40.1017 23.1774 35.3162 23.1843 30.5323C23.1885 27.5608 23.1128 24.5889 23.0647 21.6187C23.0374 19.9362 22.5911 19.4115 20.9511 19.0987C20.2536 18.9664 19.5494 18.8613 18.8591 18.7004C18.6923 18.6609 18.4562 18.4579 18.4434 18.3132C18.3932 17.7715 18.423 17.2226 18.423 16.6306C27.6204 16.7847 36.7677 17.1715 45.9996 16.3745C45.8072 19.497 45.6128 22.6255 45.4157 25.8089C44.8574 25.8089 44.3447 25.8532 43.8489 25.7851C43.6723 25.76 43.4506 25.4889 43.3915 25.2877C43.1098 24.3566 42.9017 23.4004 42.6191 22.4698C42.4545 21.9281 42.2311 21.397 41.9749 20.8923C41.3983 19.7468 40.5311 19.1315 39.1591 19.154C35.8613 19.2123 32.5608 19.1719 29.2613 19.174C28.4217 19.174 28.397 19.2026 28.3962 20.0243C28.3919 23.7302 28.3889 27.4379 28.3864 31.1434C28.3847 31.3468 28.3864 31.5489 28.3864 31.8043C29.8443 31.8043 31.2243 31.826 32.6017 31.7949C33.4953 31.7753 34.3872 31.6868 35.2779 31.6145C36.497 31.5132 36.9311 31.157 37.2374 29.9804C37.4677 29.0979 37.6719 28.2068 37.8706 27.3162C37.9502 26.9651 38.1098 26.803 38.4949 26.8306C38.98 26.866 39.4685 26.8391 40.026 26.8391C40.026 27.1634 40.0277 27.4545 40.0255 27.7455C39.9962 31.2243 39.9587 34.7017 39.9468 38.1808C39.9451 38.6421 39.8387 38.8272 39.3417 38.8298C37.8791 38.84 37.8813 38.8608 37.5357 37.4323C37.4123 36.9196 37.2872 36.4064 37.1528 35.8983C36.8425 34.7221 35.9668 34.2902 34.8638 34.254C32.7902 34.186 30.7136 34.1647 28.6387 34.1247C28.5821 34.1247 28.5247 34.154 28.4136 34.186C28.403 34.4149 28.3834 34.6536 28.3834 34.8911C28.3783 37.986 28.3762 41.083 28.3745 44.177C28.3736 46.1008 29.0974 47.0345 31.0272 47.0894C33.9953 47.174 36.9702 47.1132 39.9396 47.0226C41.7349 46.9677 42.9647 45.9157 43.7345 44.3536C44.3621 43.0779 44.9353 41.774 45.4664 40.4557C45.7017 39.8715 46.0068 39.6 46.6387 39.697C46.914 39.7413 47.2004 39.7051 47.5872 39.7051C47.4779 40.5915 47.3787 41.406 47.2813 42.2191Z" fill="#E56F25"/>
</g>
<defs>
<clipPath id="clip0_547_2">
<rect width="40" height="40" fill="white" transform="translate(13 13)"/>
</clipPath>
</defs>
</svg>
