<svg width="66" height="66" viewBox="0 0 66 66" fill="none" xmlns="http://www.w3.org/2000/svg">
<circle cx="32.9183" cy="32.9183" r="32.9183" fill="#F5F5F5"/>
<path d="M31.078 54.9289C28.6495 54.5906 27.7782 54.4128 26.4058 53.9755C6.07146 47.4952 5.79603 19.1289 26.0003 12.2111C46.0724 5.3385 63.2432 29.2099 50.4319 46.1766C45.9538 52.1072 37.6804 55.8486 31.078 54.9289ZM36.5757 51.8542C48.825 49.5095 55.6096 35.8631 50.1064 24.6386C43.0921 10.3321 22.6733 10.3321 15.659 24.6386C8.72874 38.7738 21.0637 54.8234 36.5757 51.8542ZM31.7309 45.9257C30.2734 45.0371 30.3328 42.8369 31.8353 42.0599C32.8892 41.5149 34.166 41.8689 34.7803 42.8763C35.9785 44.8415 33.696 47.1239 31.7309 45.9257ZM23.9233 42.7075C22.3824 41.7511 22.6679 39.3171 24.3915 38.7163C26.1136 38.1161 27.7947 39.7973 27.1945 41.5194C26.7462 42.8056 25.0652 43.4162 23.9233 42.7075ZM39.3964 42.6046C37.3096 41.2027 38.9957 37.8874 41.3739 38.7163C43.1126 39.3223 43.3836 41.7882 41.8134 42.7158C41.1285 43.1203 40.0933 43.0727 39.3964 42.6046ZM20.7309 34.9257C19.2734 34.0371 19.3328 31.8369 20.8353 31.0599C21.8892 30.5149 23.166 30.8689 23.7803 31.8763C24.9785 33.8415 22.696 36.1239 20.7309 34.9257ZM31.7309 34.9257C30.7635 34.3359 30.3865 33.1034 30.8573 32.0699C31.481 30.7013 40.5569 23.8991 41.1986 24.3195C42.2696 25.0213 42.2755 25.0105 37.859 30.4558C33.7621 35.5073 33.2715 35.8651 31.7309 34.9257ZM42.7309 34.9257C41.6795 34.2847 41.3466 32.9235 41.9851 31.8763C42.8542 30.4509 44.9112 30.4509 45.7803 31.8763C46.9785 33.8415 44.696 36.1239 42.7309 34.9257ZM24.1634 27.2733C22.6232 26.6038 22.4941 24.2017 23.9521 23.3405C25.864 22.2111 28.1781 24.4168 27.0399 26.2836C26.3702 27.382 25.2779 27.7578 24.1634 27.2733ZM31.7309 23.9257C30.6795 23.2847 30.3466 21.9235 30.9851 20.8763C31.8542 19.4509 33.9112 19.4509 34.7803 20.8763C35.9785 22.8415 33.696 25.1239 31.7309 23.9257Z" fill="black"/>
</svg>
