<svg width="66" height="66" viewBox="0 0 66 66" fill="none" xmlns="http://www.w3.org/2000/svg">
<circle cx="32.9183" cy="32.9183" r="32.9183" fill="#F5F5F5"/>
<g clip-path="url(#clip0_122_9)">
<path fill-rule="evenodd" clip-rule="evenodd" d="M40.1574 10.0005C40.9676 10.0005 41.6169 10.6592 41.6944 11.4657C42.3853 18.6589 48.1102 24.3834 55.3039 25.0742C56.1104 25.1517 56.7692 25.801 56.7692 26.6111V40.1559C56.7692 40.966 56.1104 41.6153 55.3039 41.6928C48.1102 42.3836 42.3853 48.1081 41.6944 55.3014C41.6169 56.1078 40.9676 56.7665 40.1574 56.7665H26.6118C25.8016 56.7665 25.1523 56.1078 25.0748 55.3014C24.384 48.1081 18.659 42.3836 11.4653 41.6928C10.6588 41.6153 10 40.966 10 40.1559V26.6111C10 25.801 10.6588 25.1517 11.4653 25.0742C18.659 24.3834 24.384 18.6589 25.0748 11.4657C25.1523 10.6592 25.8016 10.0005 26.6118 10.0005H40.1574ZM19.3904 33.3439C19.3904 41.125 25.6915 47.4328 33.4644 47.4328C41.2373 47.4328 47.5385 41.125 47.5385 33.3439C47.5385 25.5628 41.2373 19.255 33.4644 19.255C25.6915 19.255 19.3904 25.5628 19.3904 33.3439Z" fill="black"/>
</g>
<defs>
<clipPath id="clip0_122_9">
<rect width="46.77" height="46.77" fill="white" transform="translate(10 10)"/>
</clipPath>
</defs>
</svg>
