<svg width="66" height="66" viewBox="0 0 66 66" fill="none" xmlns="http://www.w3.org/2000/svg">
<circle cx="32.9183" cy="32.9183" r="32.9183" fill="#F5F5F5"/>
<path d="M18 39V47.0752C18 49.1933 19.3508 51.1113 21.3812 51.7477C24.8308 52.8261 28 50.2963 28 47.0312V43.991L18 39Z" fill="#007299"/>
<path d="M51.2038 38C50.4796 38 49.7457 37.8364 49.052 37.4879L20.7664 23.2548C18.4231 22.0752 17.3335 19.2361 18.4263 16.8393C19.5658 14.3299 22.5319 13.2897 24.9622 14.5122L53.2446 28.7427C55.6168 29.9357 56.7032 32.9249 55.5154 35.3137C54.6705 37.016 52.9693 38 51.199 38H51.2038Z" fill="#00BEFF"/>
<path d="M37.1629 45C36.4327 45 35.6912 44.835 34.9934 44.4836L20.7891 37.3343C18.4265 36.1445 17.328 33.2811 18.4298 30.8636C19.5786 28.3328 22.5691 27.2836 25.0225 28.5166L39.2219 35.6633C41.6137 36.8665 42.709 39.8813 41.5115 42.2906C40.6596 44.0077 38.9445 45 37.1596 45H37.1629Z" fill="#00BEFF"/>
</svg>
