<svg width="66" height="66" viewBox="0 0 66 66" fill="none" xmlns="http://www.w3.org/2000/svg">
<circle cx="32.9183" cy="32.9183" r="32.9183" fill="#F5F5F5"/>
<g clip-path="url(#clip0_205_2)">
<path fill-rule="evenodd" clip-rule="evenodd" d="M45.9499 8.25893C46.2917 8.99872 46.78 10.2317 47.1218 11.9086C47.7565 14.9664 46.5359 19.2079 44.5828 21.378C43.0261 23.1116 40.5558 24.4828 38.3988 25.68C37.9173 25.9472 37.4514 26.2059 37.0147 26.4579C35.5012 27.3456 34.0364 28.184 32.5716 29.0224H32.5715C31.595 29.5896 30.6306 30.1568 29.6664 30.724C28.702 31.2912 27.7377 31.8584 26.7612 32.4256C26.609 32.5123 26.4561 32.599 26.3029 32.686C24.5391 33.6869 22.7224 34.7178 21.195 36.1245C20.2185 37.0615 19.5349 38.0973 19.1443 39.4289C19.0466 39.7741 18.5095 39.8727 18.3142 39.5276C18.0671 39.1531 17.8548 36.5331 17.765 35.4261C17.7484 35.2206 17.7359 35.0674 17.7283 34.9901C17.533 31.883 17.6795 28.6773 19.2419 25.9647C20.2185 24.2385 21.6832 22.9068 23.2945 21.8218C24.503 21.0081 25.7938 20.3607 27.0847 19.7134C27.5149 19.4976 27.9452 19.2819 28.3724 19.06C41.1161 12.5497 44.0945 10.1331 45.1199 8.25893C45.3152 7.91369 45.8035 7.91369 45.9499 8.25893ZM42.9714 28.5294C43.4597 28.0854 43.8015 28.3321 44.1432 28.8745C45.1686 30.6501 45.5103 33.4613 45.4127 35.5327C45.1851 40.545 41.1373 42.4703 37.1083 44.3868C36.8161 44.5258 36.5239 44.6647 36.2334 44.8048L36.1958 44.8231C33.5543 46.1077 29.1016 48.2731 28.47 51.6109C28.0305 53.7809 28.7629 55.6058 29.7883 57.2333C30.0324 57.6279 29.6907 58.1211 29.2512 57.9732C25.1986 56.7401 22.4155 53.7317 21.2925 50.1806C18.74 42.2616 24.7825 39.1134 31.8335 35.4398C32.3356 35.1781 32.8429 34.9138 33.3526 34.645C38.0887 32.1297 41.2137 30.1569 42.9714 28.5294Z" fill="url(#paint0_linear_205_2)"/>
</g>
<defs>
<linearGradient id="paint0_linear_205_2" x1="17.6604" y1="17.9722" x2="48.275" y2="19.0951" gradientUnits="userSpaceOnUse">
<stop stop-color="#EA6081"/>
<stop offset="1" stop-color="#FF8C85"/>
</linearGradient>
<clipPath id="clip0_205_2">
<rect width="33" height="50" fill="white" transform="translate(16 8)"/>
</clipPath>
</defs>
</svg>
