<svg width="66" height="66" viewBox="0 0 66 66" fill="none" xmlns="http://www.w3.org/2000/svg">
<circle cx="32.9183" cy="32.9183" r="32.9183" fill="#F5F5F5"/>
<g clip-path="url(#clip0_4956_29)">
<path d="M33.5 33.4984C33.5 30.1274 36.2697 27.3945 39.6864 27.3945C43.103 27.3945 45.8727 30.1274 45.8727 33.4984C45.8727 36.8695 43.103 39.6023 39.6864 39.6023C36.2697 39.6023 33.5 36.8695 33.5 33.4984Z" fill="#1ABCFE"/>
<path d="M21.127 45.7094C21.127 42.3383 23.8967 39.6055 27.3133 39.6055H33.4997V45.7094C33.4997 49.0805 30.73 51.8132 27.3133 51.8132C23.8967 51.8132 21.127 49.0805 21.127 45.7094Z" fill="#0ACF83"/>
<path d="M33.5 15.1875V27.3952H39.6864C43.103 27.3952 45.8727 24.6625 45.8727 21.2914C45.8727 17.9203 43.103 15.1875 39.6864 15.1875H33.5Z" fill="#FF7262"/>
<path d="M21.127 21.2914C21.127 24.6625 23.8967 27.3952 27.3133 27.3952H33.4997V15.1875H27.3133C23.8967 15.1875 21.127 17.9203 21.127 21.2914Z" fill="#F24E1E"/>
<path d="M21.127 33.4984C21.127 36.8695 23.8967 39.6023 27.3133 39.6023H33.4997V27.3945H27.3133C23.8967 27.3945 21.127 30.1274 21.127 33.4984Z" fill="#A259FF"/>
</g>
<defs>
<clipPath id="clip0_4956_29">
<rect width="25" height="37" fill="white" transform="translate(21 15)"/>
</clipPath>
</defs>
</svg>
