<svg width="66" height="66" viewBox="0 0 66 66" fill="none" xmlns="http://www.w3.org/2000/svg">
<circle cx="32.9183" cy="32.9183" r="32.9183" fill="#F5F5F5"/>
<path d="M39.9228 38.9555L50.0733 49.106C50.1664 49.1989 50.2848 49.2621 50.4137 49.2877C50.5426 49.3133 50.6762 49.3001 50.7976 49.2498C50.919 49.1996 51.0229 49.1144 51.0959 49.0052C51.169 48.896 51.2081 48.7676 51.2083 48.6361V38.4926C51.2083 38.4052 51.1911 38.3187 51.1577 38.238C51.1242 38.1574 51.0752 38.084 51.0135 38.0223C50.9517 37.9605 50.8784 37.9115 50.7977 37.8781C50.717 37.8447 50.6306 37.8275 50.5432 37.8275H40.3944C40.2643 37.8286 40.1373 37.8679 40.0293 37.9406C39.9213 38.0132 39.8369 38.1159 39.7867 38.236C39.7365 38.3561 39.7226 38.4883 39.7468 38.6162C39.771 38.7441 39.8322 38.8621 39.9228 38.9555Z" fill="#F42534"/>
<path d="M30.757 37.8275H7.6575C7.52748 37.829 7.40075 37.8685 7.29298 37.9413C7.18521 38.014 7.10113 38.1168 7.05113 38.2368C7.00114 38.3568 6.98742 38.4889 7.01168 38.6166C7.03594 38.7443 7.09711 38.8622 7.18763 38.9555L18.7374 50.5052C18.7991 50.5671 18.8725 50.6163 18.9533 50.6498C19.0341 50.6833 19.1207 50.7005 19.2081 50.7005C19.2956 50.7005 19.3821 50.6833 19.4629 50.6498C19.5437 50.6163 19.6171 50.5671 19.6788 50.5052L31.2268 38.9555C31.3174 38.8622 31.3785 38.7443 31.4028 38.6166C31.4271 38.4889 31.4133 38.3568 31.3633 38.2368C31.3134 38.1168 31.2293 38.014 31.1215 37.9413C31.0137 37.8685 30.887 37.829 30.757 37.8275Z" fill="#D82237"/>
<path d="M33.9977 55.2091V41.5622C33.9975 41.4308 33.9584 41.3024 33.8853 41.1932C33.8123 41.084 33.7084 40.9988 33.587 40.9486C33.4656 40.8983 33.332 40.8851 33.2031 40.9107C33.0742 40.9363 32.9558 40.9995 32.8628 41.0924L19.2159 54.7392C19.123 54.8323 19.0598 54.9507 19.0342 55.0796C19.0086 55.2085 19.0218 55.3421 19.0721 55.4635C19.1224 55.5849 19.2075 55.6887 19.3167 55.7618C19.4259 55.8349 19.5543 55.874 19.6858 55.8742H33.3326C33.509 55.8742 33.6782 55.8041 33.8029 55.6794C33.9276 55.5547 33.9977 55.3855 33.9977 55.2091Z" fill="#C3002F"/>
<path d="M47.0952 49.8989L38.2852 41.0889C38.1922 40.9961 38.0738 40.9329 37.9449 40.9073C37.816 40.8817 37.6824 40.8948 37.561 40.9451C37.4395 40.9954 37.3357 41.0805 37.2626 41.1897C37.1895 41.2989 37.1504 41.4274 37.1503 41.5588V59.1788C37.1504 59.3102 37.1895 59.4386 37.2626 59.5479C37.3357 59.6571 37.4395 59.7422 37.561 59.7925C37.6824 59.8427 37.816 59.8559 37.9449 59.8303C38.0738 59.8047 38.1922 59.7415 38.2852 59.6487L47.0952 50.8387C47.2197 50.714 47.2896 50.545 47.2896 50.3688C47.2896 50.1926 47.2197 50.0236 47.0952 49.8989Z" fill="#911A1D"/>
<path d="M40.3944 35.1655H58.3358C58.4672 35.1653 58.5956 35.1262 58.7048 35.0531C58.814 34.98 58.8992 34.8762 58.9494 34.7548C58.9997 34.6334 59.0129 34.4998 58.9873 34.3709C58.9617 34.242 58.8985 34.1235 58.8056 34.0305L49.835 25.0599C49.7732 24.998 49.6998 24.9489 49.619 24.9154C49.5383 24.8819 49.4517 24.8646 49.3642 24.8646C49.2768 24.8646 49.1902 24.8819 49.1094 24.9154C49.0286 24.9489 48.9553 24.998 48.8935 25.0599L39.9228 34.0305C39.8299 34.1236 39.7666 34.2422 39.7411 34.3713C39.7156 34.5004 39.7289 34.6341 39.7794 34.7556C39.8299 34.8771 39.9152 34.9809 40.0247 35.0538C40.1342 35.1268 40.2629 35.1656 40.3944 35.1655Z" fill="#A41F35"/>
<path d="M37.1537 17.1188V31.429C37.1539 31.5604 37.193 31.6889 37.2661 31.7981C37.3391 31.9073 37.443 31.9924 37.5644 32.0427C37.6858 32.093 37.8194 32.1061 37.9483 32.0805C38.0772 32.0549 38.1956 31.9917 38.2887 31.8989L52.5989 17.5887C52.6917 17.4957 52.7549 17.3772 52.7805 17.2483C52.8061 17.1194 52.7929 16.9858 52.7427 16.8644C52.6924 16.743 52.6073 16.6392 52.4981 16.5661C52.3888 16.493 52.2604 16.4539 52.129 16.4537H37.8188C37.6424 16.4537 37.4732 16.5238 37.3485 16.6485C37.2238 16.7733 37.1537 16.9424 37.1537 17.1188Z" fill="#D6202A"/>
<path d="M14.2857 18.6942V34.5004C14.2857 34.6768 14.3558 34.846 14.4805 34.9707C14.6053 35.0954 14.7744 35.1655 14.9508 35.1655H30.757C30.8884 35.1653 31.0168 35.1262 31.1261 35.0531C31.2353 34.98 31.3204 34.8762 31.3707 34.7548C31.4209 34.6334 31.4341 34.4998 31.4085 34.3709C31.3829 34.242 31.3197 34.1235 31.2269 34.0305L15.4189 18.2261C15.326 18.1339 15.2078 18.0713 15.0794 18.046C14.9509 18.0206 14.8179 18.0338 14.6969 18.0838C14.5759 18.1338 14.4723 18.2184 14.3992 18.327C14.326 18.4355 14.2866 18.5633 14.2857 18.6942Z" fill="#AC162C"/>
<path d="M20.4786 19.5182L32.8662 31.9006C32.9592 31.9934 33.0776 32.0567 33.2065 32.0822C33.3354 32.1078 33.469 32.0947 33.5905 32.0444C33.7119 31.9941 33.8157 31.909 33.8888 31.7998C33.9619 31.6906 34.001 31.5621 34.0011 31.4307V6.66425C34.001 6.53283 33.9619 6.40441 33.8888 6.29519C33.8157 6.18597 33.7119 6.10085 33.5905 6.05058C33.469 6.00031 33.3354 5.98714 33.2065 6.01274C33.0776 6.03833 32.9592 6.10154 32.8662 6.19439L20.4786 18.5716C20.416 18.6334 20.3662 18.7071 20.3322 18.7884C20.2983 18.8696 20.2808 18.9568 20.2808 19.0449C20.2808 19.133 20.2983 19.2202 20.3322 19.3014C20.3662 19.3827 20.416 19.4564 20.4786 19.5182Z" fill="#EB0029"/>
</svg>
