<svg width="66" height="66" viewBox="0 0 66 66" fill="none" xmlns="http://www.w3.org/2000/svg">
<ellipse cx="33" cy="32.9183" rx="33" ry="32.9183" fill="#F5F5F5"/>
<g transform="translate(10, 27.4) scale(0.351)">
<path d="M71.6146 7.09528C79.4647 7.09528 83.4335 11.3182 83.4335 19.7642C83.4335 23.7694 82.2123 27.6006 80.2498 29.8209C78.2872 32.0412 75.1035 33.2167 71.1347 33.2167C67.2968 33.2167 64.4621 32.1719 62.6303 30.1257C60.5806 27.8618 59.3594 24.0307 59.3594 19.7207C59.3594 11.3618 63.5025 7.09528 71.6146 7.09528ZM71.5273 14.8011C68.4307 14.8011 66.8171 16.8037 66.8171 20.5913C66.8171 24.6838 68.4744 26.9911 71.3964 26.9911C74.3185 26.9911 76.0194 24.5531 76.0194 20.3736C76.0194 16.6731 74.5365 14.8011 71.5273 14.8011Z" fill="#FFC738"/>
<path d="M109.495 7.96619V32.3461H101.645V29.7776C101.645 28.9505 101.689 28.7327 101.907 27.1655H101.645C100.904 29.2987 100.38 30.2129 99.3771 31.1707C98.0251 32.5203 96.1498 33.2169 94.0564 33.2169C91.4832 33.2169 89.2153 32.1721 87.9507 30.3871C87.2528 29.3858 86.6858 27.6879 86.5114 25.8158C86.4677 25.0758 86.4242 23.5955 86.4242 19.8514V7.96619H94.6234V19.6338C94.6234 23.5519 94.667 23.9003 95.1467 24.7274C95.6701 25.5546 96.5859 26.0335 97.7198 26.0335C99.2463 26.0335 100.467 25.1627 100.947 23.7696C101.252 22.8119 101.296 22.3766 101.296 19.6338V7.96619H109.495Z" fill="#FFC738"/>
<path d="M48.1067 32.3978V0H56.2205V32.3978H48.1067Z" fill="#FFC738"/>
<path d="M35.7436 32.3978V0H44.0504V32.3978H35.7436Z" fill="#FFC738"/>
<path d="M0 3.47101H19.7049V10.738H7.69924V15.5237H19.7049V22.2686H7.69924V32.3977H0V3.47101Z" fill="#FFC738"/>
<path d="M23.4828 32.3479V8.23181C24.9656 8.79778 25.925 8.97191 27.4516 8.97191C28.9344 8.97191 30.1119 8.75425 31.682 8.23181V32.3479H23.4828Z" fill="#FFC738"/>
<path d="M27.4918 6.81172C24.3399 6.81172 22.7464 5.71063 22.7464 3.50842C22.7464 2.46407 23.2366 1.46514 24.0247 0.886214C24.8127 0.307285 26.0909 0.000793317 27.6844 0.000793457C29.2253 0.00079359 30.3636 0.273231 31.099 0.806754C31.9219 1.39704 32.4123 2.39597 32.4123 3.51977C32.4123 5.69928 30.7487 6.81172 27.4918 6.81172Z" fill="#FFC738"/>
<path fill-rule="evenodd" clip-rule="evenodd" d="M118.085 3.40973C118.085 9.59149 115.907 10.7066 111.851 10.7066V15.5013H115.907C115.733 18.07 115.689 19.6372 115.689 22.1187C115.689 26.5158 116.082 28.7362 117.129 30.3905C118.306 32.2191 120.618 33.2204 123.67 33.2204C126.811 33.2204 128.86 32.3931 130.997 30.2599V24.6003C129.689 26.2547 128.293 26.9947 126.593 26.9947C125.546 26.9947 124.63 26.5594 124.194 25.8628C123.714 25.1228 123.54 23.9908 123.54 21.9882C123.54 19.2019 123.409 15.5013 123.409 15.5013H130.997V7.95H123.409V3.40973H118.085Z" fill="#FFC738"/>
</g>
</svg>
