<svg width="66" height="66" viewBox="0 0 66 66" fill="none" xmlns="http://www.w3.org/2000/svg">
<circle cx="32.9183" cy="32.9183" r="32.9183" fill="#F5F5F5"/>
<path d="M32.9987 12C44.5973 12 54 21.4021 54 33C54 44.5979 44.5973 54 32.9987 54C21.5105 54 12.1766 44.776 12 33.3305V32.6527C12.1857 21.215 21.5161 12 32.9987 12ZM34.628 18.1783L21.584 31.2216C20.5122 32.2934 20.5122 34.0307 21.584 35.1026C22.1199 35.6385 22.8221 35.9064 23.5244 35.9064H29.9348L28.1019 37.7392C27.0301 38.8111 27.0301 40.5485 28.1019 41.6202L34.62 48.1376C35.1165 48.6342 35.8027 48.9414 36.5604 48.9414C38.0763 48.9414 39.3049 47.7129 39.3049 46.1971C39.3049 45.4396 38.9977 44.7534 38.501 44.2569L33.9237 39.6797L38.501 35.1026C38.565 35.0384 38.6256 34.9714 38.683 34.9013C38.7087 34.8701 38.7312 34.8367 38.7553 34.8046C38.7847 34.7653 38.8152 34.727 38.8426 34.6859C38.8685 34.6468 38.8911 34.6065 38.915 34.5667C38.937 34.5296 38.9603 34.4935 38.9809 34.4553C39.0025 34.4147 39.0207 34.3731 39.0402 34.3315C39.0592 34.292 39.079 34.2528 39.0957 34.2121C39.1126 34.1718 39.126 34.1305 39.1407 34.0896C39.1563 34.0461 39.1731 34.0031 39.1865 33.9587C39.1988 33.9177 39.208 33.876 39.2185 33.8345C39.2299 33.7891 39.2424 33.7443 39.2518 33.6982C39.2613 33.6506 39.2668 33.602 39.2737 33.5543C39.2794 33.5136 39.2872 33.4737 39.2912 33.4329C39.3 33.3427 39.3049 33.2525 39.3049 33.1622C39.3049 33.0718 39.3 32.9812 39.2912 32.8913C39.2872 32.8504 39.2794 32.8107 39.2737 32.7704C39.2668 32.7219 39.2613 32.6737 39.2518 32.6259C39.2424 32.5796 39.2299 32.5351 39.2185 32.49C39.2081 32.4484 39.1988 32.4066 39.1865 32.3655C39.1731 32.3212 39.1564 32.2783 39.1408 32.2348C39.126 32.1936 39.1126 32.1524 39.0957 32.112C39.079 32.0713 39.0592 32.0326 39.0406 31.9932C39.021 31.9512 39.0026 31.9096 38.9807 31.8685C38.9603 31.8307 38.937 31.7943 38.915 31.7575C38.8911 31.7177 38.8687 31.6771 38.8428 31.6384C38.8152 31.5976 38.7847 31.5589 38.7552 31.5195C38.7312 31.4872 38.7087 31.4541 38.683 31.4225C38.5682 31.2827 38.4396 31.1545 38.2998 31.0397C38.2683 31.0141 38.2352 30.9915 38.203 30.9672C38.1637 30.9381 38.1251 30.9073 38.0842 30.88C38.0454 30.8541 38.0051 30.8315 37.9651 30.8077C37.9281 30.7856 37.8921 30.7623 37.8539 30.742C37.8134 30.7202 37.7715 30.7018 37.7302 30.6823C37.6905 30.6636 37.6513 30.6438 37.6106 30.6269C37.5701 30.6102 37.529 30.5967 37.4879 30.582C37.4444 30.5664 37.4015 30.5497 37.357 30.536C37.316 30.5238 37.2743 30.5147 37.2328 30.5043C37.1876 30.493 37.1428 30.48 37.0966 30.4709C37.049 30.4615 37.0008 30.4559 36.9525 30.4488C36.9121 30.4434 36.8721 30.4355 36.8312 30.4317C36.7412 30.4226 36.6508 30.4177 36.5604 30.4177H30.1501L38.5091 22.0592C39.5809 20.9877 39.5809 19.2499 38.5091 18.1783C37.4373 17.1066 35.6997 17.1066 34.628 18.1783Z" fill="#16181D"/>
</svg>
