<svg width="66" height="66" viewBox="0 0 66 66" fill="none" xmlns="http://www.w3.org/2000/svg">
<circle cx="32.9183" cy="32.9183" r="32.9183" fill="#F5F5F5"/>
<path fill-rule="evenodd" clip-rule="evenodd" d="M11.2995 16.0674C11.006 20.1536 11.1459 24.2582 11.7123 28.3146C13.6315 41.5869 20.6391 51.7176 32.735 58.7069C40.8548 54.224 47.2341 47.143 50.8457 38.6013C44.9617 36.9068 38.8598 36.0904 32.735 36.173V40.8852C36.5117 40.8738 40.2838 41.1787 44.01 41.8024C41.1277 46.3656 37.2799 50.2409 32.735 53.1508C24.9318 48.2666 19.355 40.5183 17.1973 31.5708C22.2787 30.305 27.5 29.6997 32.735 29.773V24.9003C27.1835 24.8613 21.6481 25.5194 16.2617 26.8608C15.9613 24.3981 15.8352 21.9147 15.8833 19.4336C21.3615 17.8766 27.0391 17.1245 32.735 17.2025C38.3989 17.1199 44.0444 17.8583 49.4973 19.3969C49.5271 21.8918 49.3712 24.3866 49.0295 26.8608C50.5865 27.2507 52.1114 27.7483 53.5973 28.3536C54.1614 24.2834 54.2944 20.1674 53.994 16.0697C47.1997 13.5359 39.9857 12.316 32.7373 12.4719C25.4271 12.293 18.1512 13.5129 11.2995 16.0674Z" fill="#ED1653"/>
</svg>
