<svg width="66" height="66" viewBox="0 0 66 66" fill="none" xmlns="http://www.w3.org/2000/svg">
<circle cx="32.9183" cy="32.9183" r="32.9183" fill="#F5F5F5"/>
<path fill-rule="evenodd" clip-rule="evenodd" d="M11.2995 13.0674C11.006 17.1537 11.1459 21.2583 11.7123 25.3147C13.6315 38.5869 20.6391 48.7177 32.735 55.7069C40.8548 51.224 47.2341 44.143 50.8457 35.6014C44.9617 33.9068 38.8598 33.0905 32.735 33.173V37.8853C36.5117 37.8738 40.2838 38.1788 44.01 38.8025C41.1277 43.3657 37.2799 47.241 32.735 50.1509C24.9318 45.2666 19.355 37.5184 17.1973 28.5708C22.2787 27.3051 27.5 26.6997 32.735 26.7731V21.9003C27.1835 21.8613 21.6481 22.5195 16.2617 23.8609C15.9613 21.3981 15.8352 18.9148 15.8833 16.4337C21.3615 14.8767 27.0391 14.1246 32.735 14.2025C38.3989 14.12 44.0444 14.8583 49.4973 16.397C49.5271 18.8918 49.3712 21.3867 49.0295 23.8609C50.5865 24.2507 52.1114 24.7483 53.5973 25.3537C54.1614 21.2835 54.2944 17.1674 53.994 13.0697C47.1997 10.5359 39.9857 9.316 32.7373 9.47193C25.4271 9.29307 18.1512 10.513 11.2995 13.0674Z" fill="#ED1653"/>
</svg>
