<svg width="66" height="66" viewBox="0 0 66 66" fill="none" xmlns="http://www.w3.org/2000/svg">
<circle cx="32.9183" cy="32.9183" r="32.9183" fill="#F5F5F5"/>
<g clip-path="url(#clip0_517_2)">
<path d="M40.1274 24.5962L51.7584 29.8721C54.3034 26.4073 52.7952 21.9863 48.3835 19.9814L33 13L17.6101 19.9814C13.2005 21.9777 11.6923 26.4073 14.2352 29.8721L25.6805 24.6824L32.9936 21.3769L40.121 24.5962H40.1274Z" fill="#F3B942"/>
<path d="M40.1274 36.1537L51.7584 41.4296C54.3034 37.9648 52.7952 33.5438 48.3835 31.5389L33 24.5575L17.6101 31.5389C13.2005 33.5352 11.6923 37.9648 14.2352 41.4296L25.6805 36.2399L32.9936 32.9343L40.121 36.1537H40.1274Z" fill="#4EADDD"/>
<path d="M40.1274 47.7068L51.7584 52.9827C54.3034 49.5179 52.7952 45.0969 48.3834 43.092L33 36.1106L17.6165 43.092C13.1984 45.0947 11.6922 49.5179 14.2352 52.9827L25.6805 47.793L32.9936 44.4874L40.121 47.7068H40.1274Z" fill="#EB484B"/>
</g>
<defs>
<clipPath id="clip0_517_2">
<rect width="40" height="40" fill="white" transform="translate(13 13)"/>
</clipPath>
</defs>
</svg>
