<svg width="66" height="66" viewBox="0 0 66 66" fill="none" xmlns="http://www.w3.org/2000/svg">
<circle cx="32.9183" cy="32.9183" r="32.9183" fill="#F5F5F5"/>
<g clip-path="url(#clip0_315_21)">
<path d="M52 14H14V52H52V14Z" fill="#022830"/>
<path d="M27.2901 22.8667H39.3432C39.6809 22.8667 39.9667 23.1564 39.9667 23.4989V25.6062C39.9667 25.9486 39.6809 26.2383 39.3432 26.2383H27.2901C26.9524 26.2383 26.6667 25.9486 26.6667 25.6062V23.4989C26.6667 23.1564 26.9524 22.8667 27.2901 22.8667Z" fill="#4CFCA7"/>
<path d="M27.2901 29.6098H39.3432C39.6809 29.6098 39.9667 29.8996 39.9667 30.242V32.3494C39.9667 32.6918 39.6809 32.9815 39.3432 32.9815H27.2901C26.9524 32.9815 26.6667 32.6918 26.6667 32.3494V30.242C26.6667 29.8996 26.9524 29.6098 27.2901 29.6098Z" fill="#4CFCA7"/>
<path d="M27.2901 36.3532C26.9524 36.3532 26.6667 36.6429 26.6667 36.9854V42.4643C26.6667 42.8068 26.9524 43.0965 27.2901 43.0965H29.3682C29.7059 43.0965 29.9917 42.8068 29.9917 42.4643V36.9854C29.9917 36.6429 29.7059 36.3532 29.3682 36.3532H27.2901Z" fill="#4CFCA7"/>
</g>
<defs>
<clipPath id="clip0_315_21">
<rect width="38" height="38" fill="white" transform="translate(14 14)"/>
</clipPath>
</defs>
</svg>
