<svg width="66" height="66" viewBox="0 0 66 66" fill="none" xmlns="http://www.w3.org/2000/svg">
<circle cx="32.9183" cy="32.9183" r="32.9183" fill="#F5F5F5"/>
<path fill-rule="evenodd" clip-rule="evenodd" d="M15 36.5246L20.5943 36.2377V32.5082H15V36.5246ZM15 40.6844V45.1311L20.5943 44.7008V40.3975L15 40.6844ZM15 18.4508L49.8566 20.7459V15.8689L15 13V18.4508ZM49.8566 24.4754V29.0656L22.6025 28.4918V23.1844L49.8566 24.4754ZM50 32.6516V36.0943L22.6025 36.3811V32.5082L50 32.6516ZM49.8566 39.3934V42.9795L22.6025 44.4139V40.3975L49.8566 39.3934Z" fill="#266CAE"/>
<path fill-rule="evenodd" clip-rule="evenodd" d="M40.1024 47.7132V51.873L50 50.8689V46.996L40.1024 47.7132Z" fill="#43A455"/>
</svg>
