<svg width="66" height="66" viewBox="0 0 66 66" fill="none" xmlns="http://www.w3.org/2000/svg">
<circle cx="32.9183" cy="32.9183" r="32.9183" fill="#F5F5F5"/>
<g clip-path="url(#clip0_546_2)">
<path d="M49 13H17C14.7909 13 13 14.7909 13 17V49C13 51.2091 14.7909 53 17 53H49C51.2091 53 53 51.2091 53 49V17C53 14.7909 51.2091 13 49 13Z" fill="#171417"/>
<path d="M21.542 21H28.8043V22.2567H22.9602V25.3705H28.0987V26.5923H22.9602V31.2561H21.542V21Z" fill="white"/>
<path d="M22.3331 40.9286C22.3664 41.5104 22.5065 41.9828 22.7536 42.3459C23.224 43.0254 24.0531 43.3652 25.2409 43.3652C25.773 43.3652 26.2576 43.2907 26.6947 43.1418C27.5404 42.8532 27.9633 42.3366 27.9633 41.5919C27.9633 41.0333 27.7851 40.6354 27.4288 40.398C27.0677 40.1653 26.5023 39.9628 25.7326 39.7906L24.3144 39.4764C23.3879 39.2716 22.7322 39.0459 22.3474 38.7992C21.6822 38.371 21.3496 37.731 21.3496 36.8792C21.3496 35.9576 21.6751 35.2013 22.326 34.6102C22.9769 34.019 23.8986 33.7235 25.0912 33.7235C26.1887 33.7235 27.12 33.9841 27.8849 34.5054C28.6546 35.0221 29.0394 35.8506 29.0394 36.9909H27.7067C27.6355 36.4417 27.4834 36.0205 27.2506 35.7272C26.8183 35.192 26.0842 34.9243 25.0484 34.9243C24.2122 34.9243 23.6112 35.0966 23.2454 35.441C22.8795 35.7854 22.6966 36.1857 22.6966 36.6418C22.6966 37.1445 22.9104 37.5122 23.338 37.7449C23.6183 37.8939 24.2526 38.0801 25.2409 38.3035L26.709 38.6316C27.4169 38.7899 27.9633 39.0063 28.3481 39.2809C29.0133 39.7603 29.3459 40.4562 29.3459 41.3684C29.3459 42.5041 28.923 43.3163 28.0773 43.8051C27.2364 44.2938 26.2576 44.5381 25.1411 44.5381C23.8393 44.5381 22.8201 44.2123 22.0837 43.5607C21.3472 42.9137 20.9861 42.0364 21.0004 40.9286H22.3331Z" fill="white"/>
<path d="M40.7203 44.21L40.0076 45.0548L38.3898 43.8469C38.0002 44.0564 37.5774 44.224 37.1212 44.3496C36.6699 44.4753 36.1758 44.5381 35.6389 44.5381C34.014 44.5381 32.7406 44.0168 31.8189 42.9742C31.0064 41.9596 30.6002 40.6889 30.6002 39.1622C30.6002 37.7752 30.9518 36.5883 31.655 35.6016C32.5577 34.3355 33.8928 33.7025 35.6603 33.7025C37.5085 33.7025 38.8768 34.2844 39.7653 35.448C40.459 36.3556 40.8058 37.5169 40.8058 38.9318C40.8058 39.5928 40.7227 40.2281 40.5564 40.8378C40.3046 41.7687 39.8793 42.5274 39.2807 43.1139L40.7203 44.21ZM35.8099 43.2954C36.1045 43.2954 36.3801 43.2768 36.6366 43.2395C36.8932 43.1976 37.1165 43.1185 37.3065 43.0022L36.1591 42.1225L36.8718 41.2637L38.2402 42.304C38.6725 41.8199 38.9647 41.2777 39.1168 40.6773C39.2735 40.0768 39.3519 39.502 39.3519 38.9528C39.3519 37.7473 39.0289 36.7768 38.3827 36.0414C37.7413 35.306 36.8623 34.9383 35.7458 34.9383C34.615 34.9383 33.7194 35.292 33.059 35.9995C32.3985 36.7023 32.0683 37.7868 32.0683 39.253C32.0683 40.4864 32.3843 41.4685 33.0162 42.1993C33.6529 42.93 34.5841 43.2954 35.8099 43.2954Z" fill="white"/>
</g>
<defs>
<clipPath id="clip0_546_2">
<rect width="40" height="40" fill="white" transform="translate(13 13)"/>
</clipPath>
</defs>
</svg>
