<svg width="62" height="62" viewBox="0 0 62 62" fill="none" xmlns="http://www.w3.org/2000/svg">
<circle cx="31" cy="31" r="31" fill="#F5F5F5"/>
<g clip-path="url(#clip0_1731_33)">
<path d="M28.7551 13.0002C26.8173 13.0002 24.8985 13.382 23.1083 14.1236C21.318 14.8652 19.6914 15.9523 18.3213 17.3226C16.9512 18.6929 15.8644 20.3197 15.1231 22.1101C14.3817 23.9005 14.0003 25.8194 14.0007 27.7572V47.9996H34.243C42.3918 47.9996 48.9984 41.3941 49 33.2452V13.0002H28.7551ZM40.7194 19.0201C40.7197 19.6482 40.596 20.2703 40.3554 20.8505C40.1147 21.4308 39.7619 21.9578 39.3172 22.4015C38.4178 23.2986 37.1991 23.8023 35.9287 23.802H30.7908V27.9035H37.7321V32.7039H30.8252V42.5905H25.1367V17.7729H30.7907V22.2738C30.9386 19.7464 33.036 17.7729 35.5734 17.7729H40.7273L40.7194 19.0201Z" fill="#0075DD"/>
</g>
<defs>
<clipPath id="clip0_1731_33">
<rect width="35" height="35" fill="white" transform="translate(14 13)"/>
</clipPath>
</defs>
</svg>
