<svg width="62" height="62" viewBox="0 0 62 62" fill="none" xmlns="http://www.w3.org/2000/svg">
<circle cx="31" cy="31" r="31" fill="#F5F5F5"/>
<g clip-path="url(#clip0_1765_128)">
<path d="M30.4453 13.9997H43.59C44.1708 13.995 44.7468 14.106 45.2843 14.3263C45.8218 14.5466 46.31 14.8717 46.7205 15.2826C47.131 15.6936 47.4556 16.1822 47.6752 16.7199C47.8949 17.2576 48.0053 17.8337 48 18.4146V31.5543C48 41.1914 40.1917 48.9997 30.5547 48.9997H30.4552C28.1636 49.0017 25.8941 48.552 23.7764 47.6765C21.6587 46.8009 19.7343 45.5166 18.1132 43.8969C16.4922 42.2772 15.2062 40.3539 14.3288 38.2369C13.4515 36.1199 12.9999 33.8508 13 31.5593C13 21.8949 20.7952 14.0992 30.4453 13.9997Z" fill="#25C16F"/>
<path d="M30.4453 21.7959C26.0194 21.7959 22.4314 25.3834 22.4314 29.8098V35.2589C22.4631 36.7174 23.6378 37.8921 25.0963 37.9238H27.3631V31.6643H24.3006V29.9143C24.4866 26.6188 27.2138 24.0408 30.5153 24.0408C33.8168 24.0408 36.5375 26.6139 36.7234 29.9143V31.6643H33.6172V37.9282H35.6652V38.0277C35.6433 39.3807 34.5523 40.4722 33.2043 40.4886H30.7581C30.5591 40.4886 30.3403 40.5882 30.3403 40.7867C30.3451 40.8959 30.3907 40.9994 30.468 41.0768C30.5454 41.1541 30.6489 41.1997 30.7581 41.2045H33.2191C34.9718 41.1936 36.3898 39.7755 36.4008 38.0228V37.8237C36.9862 37.6918 37.5088 37.3633 37.8815 36.893C38.2541 36.4226 38.4544 35.8387 38.4488 35.2386V29.9143C38.5483 25.4004 34.9685 21.8008 30.4349 21.8008L30.4453 21.7959Z" fill="white"/>
</g>
<defs>
<clipPath id="clip0_1765_128">
<rect width="35" height="35" fill="white" transform="translate(13 14)"/>
</clipPath>
</defs>
</svg>
