<svg width="62" height="62" viewBox="0 0 62 62" fill="none" xmlns="http://www.w3.org/2000/svg">
<circle cx="31" cy="31" r="31" fill="#F5F5F5"/>
<g clip-path="url(#clip0_1826_168)">
<path d="M20.959 20.4868C20.959 17.4565 23.4155 15 26.4458 15H31.5106H44.0406V22.8082C44.0406 24.3233 42.8124 25.5516 41.2973 25.5516H34.1056C32.6806 25.5742 31.53 26.7267 31.5106 28.1525V45.2304C31.5106 46.7456 30.2823 47.9738 28.7672 47.9738H20.959V25.5516V20.4868Z" fill="#001B38"/>
<path d="M27.092 28.2557C27.092 32.1892 30.2807 35.378 34.2143 35.378C38.1479 35.378 41.3367 32.1892 41.3367 28.2557C41.3367 24.3221 38.1479 21.1333 34.2143 21.1333C30.2807 21.1333 27.092 24.3221 27.092 28.2557Z" fill="url(#paint0_linear_1826_168)"/>
<path opacity="0.5" d="M27.092 28.2557C27.092 32.1892 30.2807 35.378 34.2143 35.378C38.1479 35.378 41.3367 32.1892 41.3367 28.2557C41.3367 24.3221 38.1479 21.1333 34.2143 21.1333C30.2807 21.1333 27.092 24.3221 27.092 28.2557Z" fill="url(#paint1_linear_1826_168)"/>
</g>
<defs>
<linearGradient id="paint0_linear_1826_168" x1="-1172.5" y1="199.462" x2="-101.432" y2="1277.92" gradientUnits="userSpaceOnUse">
<stop stop-color="#FF0057" stop-opacity="0.16"/>
<stop offset="0.861354" stop-color="#FF0057"/>
</linearGradient>
<linearGradient id="paint1_linear_1826_168" x1="-1172.5" y1="199.462" x2="-101.432" y2="1277.92" gradientUnits="userSpaceOnUse">
<stop stop-color="#FF0057" stop-opacity="0.16"/>
<stop offset="0.861354" stop-color="#FF0057"/>
</linearGradient>
<clipPath id="clip0_1826_168">
<rect width="33" height="33" fill="white" transform="translate(16 15)"/>
</clipPath>
</defs>
</svg>
