<svg width="66" height="66" viewBox="0 0 66 66" fill="none" xmlns="http://www.w3.org/2000/svg">
<circle cx="32.9183" cy="32.9183" r="32.9183" fill="#F5F5F5"/>
<svg x="13" y="11" width="40" height="44" viewBox="40 40 145 175" preserveAspectRatio="xMidYMid meet">
<path d="M86.572 186.097C87.6352 185.511 118.981 153.916 121.474 151.466L133.132 139.691L113.555 120.309L86.572 147.187C84.5388 145.507 82.6502 143.66 80.926 141.665C73.8035 133.96 69.7957 123.896 69.6766 113.416C69.5575 102.936 73.3354 92.7833 80.2809 84.9189C87.2265 77.0545 96.847 72.0359 107.285 70.8322C117.723 69.6285 128.237 72.325 136.799 78.4011C140.106 80.6931 143.026 83.4951 145.451 86.7022C151.517 94.4677 154.697 104.09 154.45 113.932C154.203 123.774 150.543 133.225 144.094 140.678C142.298 142.762 140.428 144.518 138.412 146.419C123.344 161.413 108.129 176.479 93.1711 191.545L112.712 211C114.435 209.83 163.305 160.681 165.505 158.121C197.254 121.077 181.306 61.5428 133.646 46.3667C123.144 43.0034 111.998 42.1447 101.104 43.8596C90.2094 45.5744 79.8701 49.8149 70.9174 56.2403C67.5378 58.7141 64.3513 61.4402 61.3853 64.3951C50.6826 75.6104 44.0013 90.0429 42.3832 105.442C40.765 120.842 44.301 136.343 52.4398 149.528C54.6983 153.077 57.223 156.451 59.9921 159.621L68.7177 168.434C73.4837 173.188 81.9892 182.074 86.462 186.133" fill="#E62B28"/>
</svg>
</svg>
