<svg width="66" height="66" viewBox="0 0 66 66" fill="none" xmlns="http://www.w3.org/2000/svg">
<circle cx="32.9183" cy="32.9183" r="32.9183" fill="#F5F5F5"/>
<g clip-path="url(#clip0_18_29)">
<g clip-path="url(#clip1_18_29)">
<path d="M33.5 59C48.1355 59 60 47.5833 60 33.5C60 19.4167 48.1355 8 33.5 8C18.8645 8 7 19.4167 7 33.5C7 47.5833 18.8645 59 33.5 59Z" fill="#0093FF"/>
<path fill-rule="evenodd" clip-rule="evenodd" d="M15.7325 23.0047C17.1164 24.4396 18.8755 25.157 21.0099 25.157C22.07 25.157 24.4115 25.2683 26.3719 25.5475C26.9132 25.6021 27.4411 25.6998 27.952 25.8369C28.2058 25.8977 28.4376 25.9631 28.6407 26.0334L28.6339 26.0465C30.6375 26.7429 32.3323 28.0588 33.4672 29.7531C35.0748 27.353 37.8057 25.7125 40.9468 25.5161C42.8419 25.2666 45.0063 25.1661 46.0138 25.1661C48.1481 25.1661 49.9072 24.4487 51.2911 23.0138C51.2911 25.6349 50.1291 27.1909 47.8049 27.6816C49.8968 29.3797 51.2256 31.9182 51.2256 34.7545C51.2256 39.8678 46.9083 44.0129 41.5829 44.0129C40.4258 44.0129 39.3163 43.8172 38.2883 43.4583L38.2884 40.2347C39.2576 40.773 40.3827 41.081 41.5829 41.081C45.2219 41.081 48.172 38.2486 48.172 34.7545C48.172 31.2605 45.2219 28.4281 41.5829 28.4281C38.0517 28.4281 35.1692 31.0953 35.0016 34.4459H34.9939V41.1647L34.9937 41.1654V41.4922C34.8817 44.1637 33.0838 45.66 29.6009 45.9812L29.4949 45.9906C31.1149 44.4507 31.9249 42.9512 31.9249 41.4922L31.9244 41.528L31.9243 41.5282L31.9394 34.8647C31.9401 34.8281 31.9404 34.7914 31.9404 34.7545L31.9398 34.6841L31.9404 34.4459H31.9327C31.7651 31.0953 28.8827 28.4281 25.3514 28.4281C21.7124 28.4281 18.7624 31.2605 18.7624 34.7545C18.7624 38.2486 21.7124 41.081 25.3514 41.081C26.5516 41.081 27.6768 40.773 28.6459 40.2347L28.6459 40.2394C28.6459 41.9125 28.2029 42.9609 26.4209 43.7303C26.2399 43.8084 25.9166 43.9735 25.2576 44.0087L25.1972 44.0115L25.1919 44.0116C19.9401 43.9299 15.7089 39.8166 15.7089 34.7545C15.7089 31.9056 17.0491 29.3573 19.1572 27.6589C16.8741 27.1541 15.7325 25.6026 15.7325 23.0047ZM25.4202 31.6685C27.1963 31.6685 28.643 33.0275 28.7013 34.7252L28.7022 34.7618C28.7009 34.8423 28.6996 34.9222 28.6983 35.0016C28.6069 36.6695 27.1742 37.9949 25.4202 37.9949C23.607 37.9949 22.1372 36.5787 22.1372 34.8317C22.1372 33.0847 23.607 31.6685 25.4202 31.6685ZM41.6517 31.6685C43.4648 31.6685 44.9346 33.0847 44.9346 34.8317C44.9346 36.5787 43.4648 37.9949 41.6517 37.9949C39.8386 37.9949 38.3687 36.5787 38.3687 34.8317C38.3687 33.0847 39.8386 31.6685 41.6517 31.6685Z" fill="white"/>
</g>
</g>
<defs>
<clipPath id="clip0_18_29">
<rect width="53" height="51" fill="white" transform="translate(7 8)"/>
</clipPath>
<clipPath id="clip1_18_29">
<rect width="53" height="51" fill="white" transform="translate(7 8)"/>
</clipPath>
</defs>
</svg>
