<svg width="66" height="66" viewBox="0 0 66 66" fill="none" xmlns="http://www.w3.org/2000/svg">
<circle cx="32.9183" cy="32.9183" r="32.9183" fill="#F5F5F5"/>
<g clip-path="url(#clip0_425_91)">
<path d="M52.0025 22.5614C51.7225 22.2777 51.3725 22.3014 51.3725 22.3014C51.3725 22.3014 43.6667 22.7327 39.6884 22.8273C38.8192 22.845 37.95 22.8627 37.0925 22.8627V30.6686C36.7192 30.4973 36.3692 30.3141 36.0017 30.1427C36.0017 27.72 36.0017 22.8804 36.0017 22.8804C34.0942 22.8982 30.1509 22.7327 30.1509 22.7327C30.1509 22.7327 20.8525 22.2659 19.855 22.1714C19.2075 22.1359 18.3734 22.0414 17.3 22.2659C16.7284 22.3782 15.095 22.7564 13.765 24.0504C10.8017 26.7154 11.56 30.9759 11.6534 31.6141C11.7642 32.3823 12.0967 34.5568 13.73 36.4359C16.7284 40.1704 23.215 40.0759 23.215 40.0759C23.215 40.0759 24.0142 42.0082 25.2334 43.7691C26.8842 45.9614 28.57 47.6927 30.1975 47.8995C34.3275 47.8995 42.605 47.8995 42.605 47.8995C42.605 47.8995 43.4042 47.8995 44.46 47.2082C45.3875 46.6468 46.1984 45.6482 46.1984 45.6482C46.1984 45.6482 47.05 44.7264 48.2342 42.6286C48.6075 41.9904 48.8992 41.3523 49.1617 40.7732C49.1617 40.7732 52.79 32.985 52.79 25.3859C52.685 23.105 52.1309 22.6914 52.0025 22.5614ZM19.3475 36.1404C17.6442 35.5791 16.9209 34.8995 16.9209 34.8995C16.9209 34.8995 15.6609 34.0014 15.0309 32.2523C13.9575 29.2859 14.9375 27.5073 14.9375 27.5073C14.9375 27.5073 15.4917 26.0064 17.475 25.5159C18.385 25.2736 19.5109 25.3091 19.5109 25.3091C19.5109 25.3091 19.9717 29.2682 20.5492 31.5727C21.0334 33.5227 22.1767 36.7491 22.1767 36.7491C22.1767 36.7491 20.4559 36.5364 19.3475 36.1404ZM39.07 43.2904C39.07 43.2904 38.6617 44.2477 37.775 44.3245C37.3842 44.3423 37.0925 44.2477 37.0925 44.2477C37.0925 44.2477 37.075 44.2477 36.7425 44.1177L29.3342 40.46C29.3342 40.46 28.6109 40.0818 28.5 39.4259C28.3542 38.8823 28.6867 38.2264 28.6867 38.2264L32.2625 30.775C32.2625 30.775 32.5775 30.1368 33.0617 29.9123C33.0967 29.8945 33.2075 29.8354 33.3592 29.8177C33.8959 29.6877 34.5434 30.0068 34.5434 30.0068L41.8234 33.57C41.8234 33.57 42.6575 33.9482 42.8209 34.6395C42.9492 35.13 42.7859 35.5791 42.71 35.7859C42.2784 36.7964 39.07 43.2904 39.07 43.2904Z" fill="#73A952"/>
<path d="M32.5717 37.8895C32.035 37.8895 31.5509 38.2855 31.44 38.8114C31.3117 39.3373 31.5684 39.8986 32.035 40.1409C32.5367 40.4009 33.1842 40.2532 33.5342 39.7864C33.8667 39.3195 33.8142 38.6577 33.4234 38.25L34.9984 34.9882C35.0917 34.9882 35.2375 35.0059 35.4067 34.9527C35.6867 34.8936 35.8675 34.7105 35.8675 34.7105C36.1475 34.8227 36.4392 34.9527 36.7367 35.1241C37.0517 35.2955 37.3492 35.4432 37.6234 35.6145C37.6817 35.65 37.7342 35.6914 37.81 35.7445C37.9209 35.8391 38.0317 35.9514 38.125 36.1227C38.2534 36.5009 37.9967 37.1155 37.9967 37.1155C37.8509 37.6236 36.795 39.8159 36.795 39.8159C36.2584 39.7982 35.7975 40.1527 35.6284 40.6432C35.4592 41.1868 35.7042 41.7895 36.2234 42.0673C36.7425 42.345 37.3725 42.1795 37.705 41.7127C38.0375 41.2636 38.0025 40.6255 37.6292 40.2118C37.7575 39.9695 37.8684 39.7214 38.0025 39.4614C38.335 38.77 38.8892 37.4345 38.8892 37.4345C38.9475 37.3223 39.2625 36.7432 39.0759 36.0105C38.9067 35.26 38.2417 34.9055 38.2417 34.9055C37.4425 34.3795 36.3167 33.895 36.3167 33.895C36.3167 33.895 36.3167 33.6114 36.2409 33.4282C36.165 33.2214 36.0542 33.0914 35.9842 33.0145C36.2992 32.3764 36.5967 31.7382 36.9117 31.0823C36.6317 30.9523 36.375 30.8223 36.1125 30.6686C35.7975 31.3245 35.4825 31.9805 35.1675 32.6364C34.7242 32.6364 34.3159 32.8609 34.1117 33.2568C33.89 33.6705 33.925 34.1964 34.24 34.5686L32.5717 37.8895Z" fill="#73A952"/>
</g>
<defs>
<clipPath id="clip0_425_91">
<rect width="42" height="26" fill="white" transform="translate(11 22)"/>
</clipPath>
</defs>
</svg>
