<svg width="66" height="66" viewBox="0 0 66 66" fill="none" xmlns="http://www.w3.org/2000/svg">
<circle cx="32.9183" cy="32.9183" r="32.9183" fill="#F5F5F5"/>
<path d="M52.8698 29.8453L52.8165 29.6852L47.1612 14.9336C47.0545 14.6402 46.8411 14.4001 46.5744 14.2401C46.3076 14.08 46.0142 14 45.6941 14C45.374 14 45.0805 14.1334 44.8405 14.3201C44.6004 14.5068 44.4137 14.7736 44.3336 15.0937L40.519 26.7776H25.0739L21.2593 15.0937C21.1793 14.8003 20.9925 14.5335 20.7524 14.3201C20.5124 14.1334 20.2189 14 19.8988 14C19.5787 14 19.2853 14.0534 19.0185 14.2401C18.7518 14.4001 18.5384 14.6402 18.4317 14.9336L12.7765 29.6852L12.7231 29.8453C11.0425 34.2201 12.483 39.155 16.2176 41.9827H16.2709C16.2709 42.0093 24.8872 48.4648 24.8872 48.4648L29.1552 51.6926L31.7428 53.6399C32.3563 54.12 33.2366 54.12 33.8501 53.6399L36.4377 51.6926L40.7058 48.4648L49.3753 41.9827C53.1099 39.155 54.5237 34.2201 52.8431 29.8453H52.8698Z" fill="#E24329"/>
<path d="M52.8699 29.8476L52.8165 29.6875C50.0156 30.2744 47.4281 31.4481 45.214 33.102C45.1873 33.102 38.4918 38.197 32.7832 42.4918C36.9979 45.6928 40.6792 48.4671 40.6792 48.4671L49.3487 41.9849C53.0833 39.1573 54.4971 34.2223 52.8165 29.8476H52.8699Z" fill="#FC6D26"/>
<path d="M24.8613 48.4636L29.1294 51.6913L31.7169 53.6387C32.3305 54.1188 33.2108 54.1188 33.8243 53.6387L36.4118 51.6913L40.6799 48.4636C40.6799 48.4636 36.9987 45.6893 32.784 42.4883C28.5426 45.6893 24.8613 48.4636 24.8613 48.4636Z" fill="#FCA326"/>
<path d="M20.3516 33.102C18.1376 31.4481 15.55 30.2477 12.7491 29.6875L12.6958 29.8476C11.0152 34.2223 12.4557 39.1573 16.1903 41.9849H16.2436C16.2436 42.0116 24.8598 48.4671 24.8598 48.4671C24.8598 48.4671 28.541 45.6928 32.7824 42.4918C27.1006 38.197 20.405 33.1286 20.3516 33.102Z" fill="#FC6D26"/>
</svg>
