<svg width="66" height="66" viewBox="0 0 66 66" fill="none" xmlns="http://www.w3.org/2000/svg">
<circle cx="32.9183" cy="32.9183" r="32.9183" fill="#F5F5F5"/>
<g transform="translate(10.1 10.1) scale(0.22)">
<path d="M154.5,5.2H53.7C26.9,5.2,5.2,26.9,5.2,53.7v100.8c0,26.8,21.7,48.5,48.5,48.5h100.8c26.8,0,48.5-21.7,48.5-48.5V53.7C203,26.9,181.3,5.2,154.5,5.2z" fill="#FFBF00"/>
<path d="M148.1,191.9h0.3c16.5,0,29.9-16.9,29.9-37.7V53.9c0-20.8-13.4-37.7-29.9-37.7h-0.3l3.6-12.8h0.3c22.1,0,40,22.6,40,50.5v100.4c0,27.9-17.9,50.5-40,50.5h-0.3L148.1,191.9z" fill="#D89500"/>
<path d="M56.4,191.9h3.3c-16.5,0-29.9-16.9-29.9-37.7V53.9c0-20.8,13.4-37.7,29.9-37.7h-3.3V3.4h-0.3c-22.1,0-40,22.6-40,50.5v100.4c0,27.9,17.9,50.5,40,50.5h0.3V191.9z" fill="#D89500"/>
<path d="M103.9,170.8c-17.8,0-33.5-13.6-37.3-32.3c-0.2-1-0.1-2,0.2-3c0.3-1,0.9-1.8,1.6-2.5c0.7-0.7,1.7-1.1,2.6-1.4c1-0.2,2-0.2,3,0.1c8.3,2.6,20.5,6,30,6c10.2,0,17.8-3.2,25.8-6.6c1.2-0.5,2.5-1,3.7-1.5c0.9-0.4,2-0.5,3-0.4c1,0.1,2,0.5,2.8,1.2c0.8,0.6,1.4,1.5,1.8,2.4c0.4,0.9,0.5,2,0.4,3C138.8,155.8,122.6,170.8,103.9,170.8z" fill="#222222"/>
<path d="M119,152.2c1.7,0,2.8,2,1.8,3.3c-1.5,2.1-3.4,3.9-5.6,5.3c-3.3,2.1-7.1,3.2-11,3.2c-3.9,0-7.7-1.1-11-3.2c-2.2-1.4-4.1-3.2-5.6-5.3c-1-1.4,0-3.3,1.8-3.3H119z" fill="#FFFFFF"/>
<path d="M155.2,0H53C23.8,0,0,23.8,0,53v102.2c0,29.2,23.8,53,53,53h102.2c29.2,0,53-23.8,53-53V53C208.1,23.8,184.4,0,155.2,0z M192,155.2c0,20.3-16.5,36.9-36.9,36.9H53c-20.3,0-36.9-16.5-36.9-36.9V53c0-20.3,16.5-36.9,36.9-36.9h11.6c5.4,0,9.9,4.4,9.9,9.9v0c0,0,0,0,0,0v8.7c0,5.5,4.4,9.9,9.9,9.9c5.5,0,9.9-4.4,9.9-9.9V26c0,0,0,0,0,0l0,0c0-5.5,4.4-9.9,9.9-9.9h0c5.4,0,9.9,4.4,9.9,9.9l0,23.3c0,5.5,4.4,9.9,9.9,9.9c5.5,0,9.9-4.4,9.9-9.9l0-23.3c0-5.5,4.4-9.9,9.9-9.9h11.6c20.3,0,36.9,16.5,36.9,36.9V155.2z" fill="#222222"/>
<path d="M143.6,68.9c-0.4,0-0.9,0-1.3,0.1c0,0,0,0,0,0c0,0,0,0,0,0c0,0-0.1,0-0.1,0c-0.1,0-0.2,0.1-0.3,0.1c-0.2,0.1-0.3,0.3-0.3,0.5c0,0.2,0.1,0.4,0.2,0.5c0,0,0,0,0.1,0.1c2.7,1.7,4.3,5,3.5,8.5c-0.7,3.2-3.4,5.7-6.6,6.2c-3.3,0.5-6.1-0.7-7.7-3.1c0,0-0.2-0.3-0.5-0.3c-0.5,0-0.6,0.5-0.6,0.5c-0.4,1.5-0.5,2.8-0.5,4.4c0,9.7,6.3,17.6,14.1,17.6c7.8,0,14.1-7.9,14.1-17.6C157.7,76.8,151.4,68.9,143.6,68.9z" fill="#222222"/>
<path d="M64.5,68.9c-0.4,0-0.9,0-1.3,0.1c0,0,0,0,0,0c0,0,0,0,0,0c0,0-0.1,0-0.1,0c-0.1,0-0.2,0.1-0.3,0.1c-0.2,0.1-0.3,0.3-0.3,0.5c0,0.2,0.1,0.4,0.2,0.5c0,0,0,0,0.1,0.1c2.7,1.7,4.3,5,3.5,8.5c-0.7,3.2-3.4,5.7-6.6,6.2c-3.3,0.5-6.1-0.7-7.7-3.1c0,0-0.2-0.3-0.5-0.3c-0.5,0-0.6,0.5-0.6,0.5c-0.4,1.5-0.5,2.8-0.5,4.4c0,9.7,6.3,17.6,14.1,17.6c7.8,0,14.1-7.9,14.1-17.6C78.6,76.8,72.3,68.9,64.5,68.9z" fill="#222222"/>
</g>
</svg>
