<svg width="66" height="66" viewBox="0 0 66 66" fill="none" xmlns="http://www.w3.org/2000/svg">
<circle cx="32.9183" cy="32.9183" r="32.9183" fill="#F5F5F5"/>
<g clip-path="url(#clip0_467_16)">
<path fill-rule="evenodd" clip-rule="evenodd" d="M33.6481 26.7254H32.3443L32.3428 26.7268C29.8288 26.7268 27.4172 25.7387 25.6387 23.98L18.7492 16.0613H22.7629C23.8029 16.0613 24.7932 16.5055 25.4804 17.279L31.1883 23.7042V13H35.0121V23.4702L40.512 17.276C41.1978 16.504 42.1879 16.0599 43.2296 16.0599H47.2462L40.3522 23.9785C38.5737 25.7372 36.1621 26.7254 33.6481 26.7254ZM32.3474 38.2717H33.6511V38.2732C36.1652 38.2732 38.5767 39.2613 40.3552 41.0201L47.2448 48.9388H43.231C42.191 48.9388 41.2009 48.4961 40.5135 47.7225L34.8072 41.2959V52H30.9833V41.5268L25.4835 47.7209C24.7977 48.4931 23.8074 48.9371 22.7659 48.9371H18.7492L25.6432 41.0184C27.4217 39.2598 29.8333 38.2717 32.3474 38.2717ZM16.3777 42.6194V46.5882L24.3856 39.7755C26.1641 38.0168 27.1634 35.6321 27.1634 33.1461V31.8569C27.1634 29.3709 26.1641 26.9862 24.3856 25.2275L16.3777 18.4087V22.3808C16.3777 23.4106 16.8268 24.3898 17.6091 25.068L23.8731 30.5066H13.2819V34.2878H24.1068L17.6076 39.9305C16.8254 40.6102 16.3762 41.5895 16.3762 42.6177L16.3777 42.6194ZM41.8921 30.7078H52.7169H52.7186V34.489H42.1273L48.3913 39.9276C49.1719 40.6057 49.6211 41.5848 49.6211 42.6149V46.5868L41.6133 39.7696C39.8347 38.0109 38.8354 35.6262 38.8354 33.1402V31.8509C38.8354 29.3649 39.8347 26.9802 41.6133 25.2215L49.6211 18.4088V22.3778C49.6211 23.4062 49.1735 24.3854 48.3913 25.065L41.8921 30.7078Z" fill="black"/>
</g>
<defs>
<clipPath id="clip0_467_16">
<rect width="40" height="39" fill="white" transform="translate(13 13)"/>
</clipPath>
</defs>
</svg>
