<svg width="66" height="66" viewBox="0 0 66 66" fill="none" xmlns="http://www.w3.org/2000/svg">
<circle cx="32.9183" cy="32.9183" r="32.9183" fill="#F5F5F5"/>
<g transform="translate(12.9183 8.3221) scale(1.538462)">
<path d="M10.354 9.081a2.63 2.63 0 0 1 2.227-1 2.64 2.64 0 0 1 2.093 1.256 31.5 31.5 0 0 1 8.551-1.349 12.975 12.975 0 0 0-19.979-.569 33.7 33.7 0 0 1 7.108 1.662m13.647.003-.764.019a30.6 30.6 0 0 0-8.235 1.3q.005.08 0 .159c0 .6-.222 1.179-.624 1.625a41 41 0 0 1 2.382 3.695q.478.835.884 1.645h.133c.349-.003.689.102.975.302q3.286-2.799 5.83-7.517l.052-.094m-11.16 2.617a2.66 2.66 0 0 1-2.113-.007 2.6 2.6 0 0 1-.884-.636c-3.276 1.658-6.701 4.284-9.022 8.45 1.579.6 3.232.982 4.914 1.134a1.57 1.57 0 0 1 2.24-.618c.247.157.445.38.572.644h.14a16 16 0 0 0 6.935-2.187 1.5 1.5 0 0 1-.097-.52 1.53 1.53 0 0 1 .474-1.105 39 39 0 0 0-3.159-5.155" fill="#17D4A7"/>
<path d="M18.866 27.463c.28-2.216-.221-4.583-1.059-6.825h-.019c-.284 0-.564-.073-.813-.211a17 17 0 0 1-7.621 2.467h-.14a1.56 1.56 0 0 1-1.459.969 1.57 1.57 0 0 1-1.443-.995 19 19 0 0 1-4.94-1.085 13 13 0 0 0 7.535 6.53 13 13 0 0 0 9.943-.728zm6.325-15.97a26.6 26.6 0 0 1-5.821 7.218q.05.184.049.374a1.54 1.54 0 0 1-.559 1.18c.907 2.418 1.3 4.644 1.173 6.659a12.98 12.98 0 0 0 5.158-15.431m-15.259-.28a2.36 2.36 0 0 1-.046-1.108 33 33 0 0 0-7.458-1.658 12.97 12.97 0 0 0-1.83 11.45c2.106-3.682 5.268-6.627 9.334-8.684" fill="#17D4A7"/>
</g>
</svg>
