<svg width="62" height="62" viewBox="0 0 62 62" fill="none" xmlns="http://www.w3.org/2000/svg">
<circle cx="31" cy="31" r="31" fill="#F5F5F5"/>
<path d="M14.5909 45.0075H20.6364V30.0681L12 23.4772V42.3711C12 43.8299 13.1616 45.0075 14.5909 45.0075Z" fill="#4285F4"/>
<path d="M41.3636 45.0075H47.4091C48.8427 45.0075 50 43.8255 50 42.3711V23.4772L41.3636 30.0681" fill="#34A853"/>
<path d="M41.3636 18.6438V30.0681L50 23.4772V19.962C50 16.7017 46.3425 14.8431 43.7818 16.7984" fill="#FBBC04"/>
<path d="M20.6364 30.068V18.6438L31 26.5529L41.3636 18.6438V30.068L31 37.9771" fill="#EA4335"/>
<path d="M12 19.962V23.4772L20.6364 30.0681V18.6438L18.2182 16.7984C15.6532 14.8431 12 16.7017 12 19.962Z" fill="#C5221F"/>
</svg>
