<svg width="62" height="62" viewBox="0 0 62 62" fill="none" xmlns="http://www.w3.org/2000/svg">
<circle cx="31" cy="31" r="31" fill="#F5F5F5"/>
<path d="M50.0993 27.1149H39.2323C38.6032 27.1149 38.1456 27.7428 38.3553 28.3327L40.9672 35.0871C41.0816 35.3916 40.8528 35.715 40.5287 35.696L37.1924 35.4867C37.0399 35.4677 36.8873 35.5438 36.8111 35.677L34.2183 39.3491C34.0848 39.5584 33.7988 39.6345 33.5891 39.4823L29.738 36.8756C29.5855 36.7805 29.3758 36.7805 29.2423 36.8756L23.9041 40.4717C23.561 40.7 23.1034 40.3765 23.2178 39.977L24.7049 34.6876C24.7621 34.4592 24.6667 34.2499 24.438 34.1548L21.6164 33.0132C21.3304 32.8991 21.2541 32.5566 21.4448 32.3283L23.9232 29.2459C24.0376 29.0937 24.0567 28.8844 23.9423 28.7132L21.8451 25.6879C21.6545 25.4025 21.8261 25.022 22.1883 25.003L25.4484 24.7556C25.6772 24.7366 25.8678 24.5273 25.8678 24.28L25.6009 19.7326C25.5819 19.4091 25.906 19.1808 26.2301 19.295L30.2718 20.9693C30.4434 21.0454 30.6531 21.0074 30.7675 20.8552L33.551 17.7538C33.7798 17.5065 34.1801 17.5826 34.3136 17.868L35.9913 22.168C36.2201 22.7008 36.8873 22.891 37.3449 22.5295L43.8842 17.6777C44.6277 17.1259 44.1511 15.9463 43.2359 16.0795L38.9273 16.6503C38.7176 16.6883 38.5269 16.5551 38.4507 16.3649L36.1819 10.5617C35.9341 9.95289 35.1524 9.80068 34.6949 10.2954L29.7761 15.6228C29.6427 15.756 29.452 15.7941 29.2804 15.718L22.7984 12.9972C22.2264 12.7688 21.5782 13.1684 21.5592 13.7963L21.3304 20.4746C21.3113 20.703 21.1397 20.8932 20.911 20.8932L15.0008 21.2738C14.3145 21.3118 13.9332 22.0919 14.3145 22.6627L18.2419 28.4468C18.3563 28.6181 18.3372 28.8274 18.2037 28.9986L14.2192 33.565C13.8188 34.0216 13.9904 34.7256 14.5433 34.973L19.1189 36.9517C19.3286 37.0469 19.4239 37.2562 19.3667 37.4655L16.4307 48.8815C16.221 49.6996 17.1361 50.3085 17.8224 49.8328L28.8229 41.9558C28.9754 41.8606 29.1851 41.8416 29.3376 41.9558L34.3517 45.4757C34.7711 45.7801 35.324 45.6469 35.61 45.2474L38.7366 40.4526C38.832 40.3004 39.0035 40.2243 39.1561 40.2624L46.6486 41.1566C47.2586 41.2518 47.8687 40.738 47.6399 40.1863L44.5133 32.138C44.418 31.9097 44.5133 31.6814 44.7802 31.5482L50.4806 28.8654C51.3576 28.4088 51.0526 27.1149 50.0993 27.1149Z" fill="#8039E9"/>
</svg>
