<svg width="66" height="66" viewBox="0 0 66 66" fill="none" xmlns="http://www.w3.org/2000/svg">
<circle cx="32.9183" cy="32.9183" r="32.9183" fill="#F5F5F5"/>
<path d="M46.2224 47.9412H19.4421C18.4968 47.9412 17.7234 47.1677 17.7234 46.2224V19.4421C17.7234 18.4968 18.4968 17.7234 19.4421 17.7234H46.2224C47.1677 17.7234 47.9412 18.4968 47.9412 19.4421V46.2224C47.9412 47.1677 47.1677 47.9412 46.2224 47.9412ZM21.1501 44.5037H44.4929V21.1609H21.1501V44.5037Z" fill="#4285F4"/>
<path d="M21.1501 44.5037H17.7126V19.4421C17.7126 18.4968 18.4861 17.7234 19.4314 17.7234H35.1257V21.1609H21.1501V44.5037Z" fill="#FBBC04"/>
<path d="M52.9148 44.5037H46.2224C45.2771 44.5037 44.5037 43.7302 44.5037 42.7849C44.5037 41.8396 45.2771 41.0662 46.2224 41.0662H52.9148C53.8601 41.0662 54.6335 41.8396 54.6335 42.7849C54.6335 43.7302 53.8601 44.5037 52.9148 44.5037Z" fill="#4285F4"/>
<path d="M52.9148 34.5457H46.2224C45.2771 34.5457 44.5037 33.7722 44.5037 32.8269C44.5037 31.8816 45.2771 31.1082 46.2224 31.1082H52.9148C53.8601 31.1082 54.6335 31.8816 54.6335 32.8269C54.6335 33.7722 53.8601 34.5457 52.9148 34.5457Z" fill="#EA4335"/>
<path d="M52.9148 24.5017H46.2224C45.2771 24.5017 44.5037 23.7283 44.5037 22.783C44.5037 21.8376 45.2771 21.0642 46.2224 21.0642H52.9148C53.8601 21.0642 54.6335 21.8376 54.6335 22.783C54.6335 23.7283 53.8601 24.5017 52.9148 24.5017Z" fill="#EA4335"/>
<path d="M42.8708 21.1501C41.9255 21.1501 41.1521 20.3767 41.1521 19.4314V12.739C41.1521 11.7937 41.9255 11.0203 42.8708 11.0203C43.8162 11.0203 44.5896 11.7937 44.5896 12.739V19.4314C44.5896 20.3767 43.8162 21.1501 42.8708 21.1501Z" fill="#EA4335"/>
<path d="M32.8269 21.1501C31.8816 21.1501 31.1082 20.3767 31.1082 19.4314V12.739C31.1082 11.7937 31.8816 11.0203 32.8269 11.0203C33.7722 11.0203 34.5457 11.7937 34.5457 12.739V19.4314C34.5457 20.3767 33.7722 21.1501 32.8269 21.1501Z" fill="#EA4335"/>
<path d="M22.783 21.1501C21.8376 21.1501 21.0642 20.3767 21.0642 19.4314V12.739C21.0642 11.7937 21.8376 11.0203 22.783 11.0203C23.7283 11.0203 24.5017 11.7937 24.5017 12.739V19.4314C24.5017 20.3767 23.7283 21.1501 22.783 21.1501Z" fill="#FBBC04"/>
<path d="M39.1648 40.8835H26.489C25.5437 40.8835 24.7703 40.1101 24.7703 39.1648V26.489C24.7703 25.5437 25.5437 24.7703 26.489 24.7703H39.1648C40.1101 24.7703 40.8835 25.5437 40.8835 26.489V39.1648C40.8835 40.1101 40.1101 40.8835 39.1648 40.8835ZM28.2078 37.446H37.446V28.2078H28.2078V37.446Z" fill="#34A853"/>
<path d="M47.9412 41.0662H44.5037V21.1609H31.1189V17.7234H46.2224C47.1677 17.7234 47.9412 18.4968 47.9412 19.4421V41.0662Z" fill="#EA4335"/>
<path d="M22.783 54.6335C21.8376 54.6335 21.0642 53.8601 21.0642 52.9148V46.2224C21.0642 45.2771 21.8376 44.5037 22.783 44.5037C23.7283 44.5037 24.5017 45.2771 24.5017 46.2224V52.9148C24.5017 53.8601 23.7283 54.6335 22.783 54.6335Z" fill="#4285F4"/>
<path d="M32.8269 54.6335C31.8816 54.6335 31.1082 53.8601 31.1082 52.9148V46.2224C31.1082 45.2771 31.8816 44.5037 32.8269 44.5037C33.7722 44.5037 34.5457 45.2771 34.5457 46.2224V52.9148C34.5457 53.8601 33.7722 54.6335 32.8269 54.6335Z" fill="#4285F4"/>
<path d="M42.8708 54.6335C41.9255 54.6335 41.1521 53.8601 41.1521 52.9148V46.2224C41.1521 45.2771 41.9255 44.5037 42.8708 44.5037C43.8162 44.5037 44.5896 45.2771 44.5896 46.2224V52.9148C44.5896 53.8601 43.8162 54.6335 42.8708 54.6335Z" fill="#4285F4"/>
<path d="M19.4314 24.5017H12.739C11.7937 24.5017 11.0203 23.7283 11.0203 22.783C11.0203 21.8376 11.7937 21.0642 12.739 21.0642H19.4314C20.3767 21.0642 21.1501 21.8376 21.1501 22.783C21.1501 23.7283 20.3767 24.5017 19.4314 24.5017Z" fill="#FBBC04"/>
<path d="M19.4314 34.5457H12.739C11.7937 34.5457 11.0203 33.7722 11.0203 32.8269C11.0203 31.8816 11.7937 31.1082 12.739 31.1082H19.4314C20.3767 31.1082 21.1501 31.8816 21.1501 32.8269C21.1501 33.7722 20.3767 34.5457 19.4314 34.5457Z" fill="#FBBC04"/>
<path d="M19.4314 44.5037H12.739C11.7937 44.5037 11.0203 43.7302 11.0203 42.7849C11.0203 41.8396 11.7937 41.0662 12.739 41.0662H19.4314C20.3767 41.0662 21.1501 41.8396 21.1501 42.7849C21.1501 43.7302 20.3767 44.5037 19.4314 44.5037Z" fill="#FBBC04"/>
</svg>
