<svg width="66" height="66" viewBox="0 0 66 66" fill="none" xmlns="http://www.w3.org/2000/svg">
<circle cx="32.9183" cy="32.9183" r="32.9183" fill="#F5F5F5"/>
<mask id="mask0_4711_49" style="mask-type:luminance" maskUnits="userSpaceOnUse" x="12" y="12" width="43" height="54">
<path d="M12 12H55V65.6086H12V12Z" fill="white"/>
</mask>
<g mask="url(#mask0_4711_49)">
<path d="M26.7216 16.8998C27.1329 15.8201 27.6985 14.8261 28.5383 14.0206C31.8974 10.7472 37.4502 11.5698 39.7296 15.683C41.4434 18.8022 43.2601 21.8528 45.0253 24.9377L53.8687 40.3279C56.3194 44.6296 53.663 50.0624 48.7957 50.7994C45.8137 51.245 43.0201 49.8739 41.4777 47.2003L33.6969 33.6954C33.6455 33.5925 33.5769 33.5068 33.5084 33.4211C33.2342 33.1983 33.1142 32.8727 32.9428 32.5814L27.2186 22.6583C26.5502 21.4929 26.2417 20.2246 26.276 18.8879C26.3274 18.2023 26.4131 17.5168 26.7216 16.8998Z" fill="#3C8BD9"/>
</g>
<mask id="mask1_4711_49" style="mask-type:luminance" maskUnits="userSpaceOnUse" x="12" y="12" width="43" height="54">
<path d="M12 12H55V65.6086H12V12Z" fill="white"/>
</mask>
<g mask="url(#mask1_4711_49)">
<path d="M26.7212 16.9023C26.5669 17.5193 26.4298 18.1363 26.3955 18.7876C26.3441 20.2272 26.704 21.564 27.4238 22.8151L33.0623 32.5668C33.2337 32.8581 33.3708 33.1495 33.5422 33.4237L30.4402 38.7537L26.1042 46.226C26.0356 46.226 26.0185 46.1917 26.0014 46.1403C25.9842 46.0032 26.0356 45.8832 26.0699 45.7461C26.7726 43.1754 26.1899 40.896 24.4246 38.9422C23.3449 37.7597 21.9739 37.0913 20.3971 36.8685C18.3405 36.5771 16.5239 37.1084 14.8957 38.3938C14.6044 38.6166 14.4159 38.9422 14.0731 39.1136C14.0045 39.1136 13.9703 39.0793 13.9531 39.0279L16.4039 34.7605L26.6012 17.0909C26.6355 17.0223 26.6869 16.9709 26.7212 16.9023Z" fill="#FABC04"/>
</g>
<mask id="mask2_4711_49" style="mask-type:luminance" maskUnits="userSpaceOnUse" x="12" y="12" width="43" height="54">
<path d="M12 12H55V65.6086H12V12Z" fill="white"/>
</mask>
<g mask="url(#mask2_4711_49)">
<path d="M14.0242 39.0792L15.0011 38.2052C19.1657 34.9146 25.4212 37.2968 26.3295 42.5069C26.5523 43.758 26.4323 44.9577 26.0553 46.1573C26.0381 46.2602 26.021 46.3459 25.9867 46.4487C25.8325 46.7229 25.6954 47.0143 25.524 47.2885C23.9987 49.8078 21.7536 51.0589 18.8058 50.8704C15.4295 50.6304 12.7731 48.094 12.3104 44.7349C12.0876 43.1067 12.4132 41.5814 13.253 40.1761C13.4244 39.8676 13.63 39.5934 13.8185 39.2849C13.9042 39.2163 13.8699 39.0792 14.0242 39.0792Z" fill="#34A852"/>
</g>
<mask id="mask3_4711_49" style="mask-type:luminance" maskUnits="userSpaceOnUse" x="12" y="12" width="43" height="54">
<path d="M12 12H55V65.6086H12V12Z" fill="white"/>
</mask>
<g mask="url(#mask3_4711_49)">
<path d="M14.0232 39.0764C13.9547 39.1449 13.9547 39.2649 13.8347 39.282C13.8176 39.1621 13.8861 39.0935 13.9547 39.0078L14.0232 39.0764Z" fill="#FABC04"/>
</g>
</svg>
