<svg width="66" height="66" viewBox="0 0 66 66" fill="none" xmlns="http://www.w3.org/2000/svg">
<circle cx="32.9183" cy="32.9183" r="32.9183" fill="#F5F5F5"/>
<g clip-path="url(#clip0_2650_34)">
<path d="M37.0004 11H19.999C18.4009 11 17 12.3992 17 14.0008V52.001C17 53.6008 18.3992 55.0018 20.0008 55.0018H46.001C47.6008 55.0018 49.0018 53.6026 49.0018 52.001V22.9997L42.0023 17.9995L37.0004 11Z" fill="#4285F4"/>
<path d="M25 43.0003H41V41.001H25.0018L25 43.0003ZM25 47.0008H36.9996V45.0014H25V47.0008ZM25 33V34.9994H41V33H25ZM25 38.9998H41V37.0005H25.0018L25 38.9998Z" fill="#F1F1F1"/>
<path d="M37 11V20.0006C37 21.6005 38.3992 22.9997 39.999 22.9997H48.9996L37 11Z" fill="#A1C2FA"/>
</g>
<defs>
<clipPath id="clip0_2650_34">
<rect width="32" height="44" fill="white" transform="translate(17 11)"/>
</clipPath>
</defs>
</svg>
