<svg width="66" height="66" viewBox="0 0 66 66" fill="none" xmlns="http://www.w3.org/2000/svg">
<circle cx="32.9183" cy="32.9183" r="32.9183" fill="#F5F5F5"/>
<g clip-path="url(#clip0_2672_28)">
<path d="M37.5661 13.715C36.136 13.26 34.5759 13 32.9832 13C28.4003 13 24.2725 15.0801 21.5098 18.3628L28.5954 24.3107L37.5661 13.715Z" fill="#1A73E8"/>
<path d="M21.5103 18.3594C19.3326 20.9595 18 24.3397 18 27.9799C18 30.8076 18.5525 33.0827 19.4951 35.1303L28.5959 24.3072L21.5103 18.3594Z" fill="#EA4335"/>
<path d="M33.0161 22.2667C36.2013 22.2667 38.7691 24.8344 38.7691 28.0196C38.7691 29.4172 38.249 30.7172 37.4039 31.7248C37.4039 31.7248 41.9218 26.3295 46.3422 21.0967C44.522 17.5865 41.3693 14.9213 37.5665 13.7188L28.5957 24.3144C29.6683 23.0793 31.2284 22.2667 33.0161 22.2667Z" fill="#4285F4"/>
<path d="M33.0172 33.738C29.832 33.738 27.2642 31.1704 27.2642 27.9852C27.2642 26.5876 27.7518 25.2876 28.5969 24.3125L19.4961 35.1356C21.0562 38.5808 23.6564 41.376 26.3217 44.8537L37.4051 31.6904C36.3325 32.958 34.7724 33.738 33.0172 33.738Z" fill="#FBBC04"/>
<path d="M37.2087 48.4928C42.2141 40.6599 48.0321 37.1172 48.0321 28.0167C48.0321 25.514 47.4146 23.1739 46.342 21.0938L26.3203 44.8526C27.1654 45.9577 28.043 47.2253 28.888 48.5253C31.9433 53.2381 31.0982 56.0333 33.0484 56.0333C34.9985 56.0333 34.1535 53.2056 37.2087 48.4928Z" fill="#34A853"/>
</g>
<defs>
<clipPath id="clip0_2672_28">
<rect width="30" height="43" fill="white" transform="translate(18 13)"/>
</clipPath>
</defs>
</svg>
