<svg width="62" height="62" viewBox="0 0 62 62" fill="none" xmlns="http://www.w3.org/2000/svg">
<circle cx="31" cy="31" r="31" fill="#F5F5F5"/>
<mask id="mask0_1609_112" style="mask-type:luminance" maskUnits="userSpaceOnUse" x="18" y="13" width="26" height="36">
<path d="M34.25 13H20.4375C19.0969 13 18 14.0969 18 15.4375V46.3125C18 47.6531 19.0969 48.75 20.4375 48.75H41.5625C42.9031 48.75 44 47.6531 44 46.3125V22.75L34.25 13Z" fill="white"/>
</mask>
<g mask="url(#mask0_1609_112)">
<path d="M34.25 13H20.4375C19.0969 13 18 14.0969 18 15.4375V46.3125C18 47.6531 19.0969 48.75 20.4375 48.75H41.5625C42.9031 48.75 44 47.6531 44 46.3125V22.75L38.3125 18.6875L34.25 13Z" fill="#0F9D58"/>
</g>
<mask id="mask1_1609_112" style="mask-type:luminance" maskUnits="userSpaceOnUse" x="18" y="13" width="26" height="36">
<path d="M34.25 13H20.4375C19.0969 13 18 14.0969 18 15.4375V46.3125C18 47.6531 19.0969 48.75 20.4375 48.75H41.5625C42.9031 48.75 44 47.6531 44 46.3125V22.75L34.25 13Z" fill="white"/>
</mask>
<g mask="url(#mask1_1609_112)">
<path d="M24.5 30.4688V42.25H37.5V30.4688H24.5ZM30.1875 40.625H26.125V38.5937H30.1875V40.625ZM30.1875 37.375H26.125V35.3437H30.1875V37.375ZM30.1875 34.125H26.125V32.0938H30.1875V34.125ZM35.875 40.625H31.8125V38.5937H35.875V40.625ZM35.875 37.375H31.8125V35.3437H35.875V37.375ZM35.875 34.125H31.8125V32.0938H35.875V34.125Z" fill="#F1F1F1"/>
</g>
<mask id="mask2_1609_112" style="mask-type:luminance" maskUnits="userSpaceOnUse" x="18" y="13" width="26" height="36">
<path d="M34.25 13H20.4375C19.0969 13 18 14.0969 18 15.4375V46.3125C18 47.6531 19.0969 48.75 20.4375 48.75H41.5625C42.9031 48.75 44 47.6531 44 46.3125V22.75L34.25 13Z" fill="white"/>
</mask>
<g mask="url(#mask2_1609_112)">
<path d="M34.963 22.037L44 31.072V22.75L34.963 22.037Z" fill="url(#paint0_linear_1609_112)"/>
</g>
<mask id="mask3_1609_112" style="mask-type:luminance" maskUnits="userSpaceOnUse" x="18" y="13" width="26" height="36">
<path d="M34.25 13H20.4375C19.0969 13 18 14.0969 18 15.4375V46.3125C18 47.6531 19.0969 48.75 20.4375 48.75H41.5625C42.9031 48.75 44 47.6531 44 46.3125V22.75L34.25 13Z" fill="white"/>
</mask>
<g mask="url(#mask3_1609_112)">
<path d="M34.25 13V20.3125C34.25 21.6592 35.3408 22.75 36.6875 22.75H44L34.25 13Z" fill="#87CEAC"/>
</g>
<mask id="mask4_1609_112" style="mask-type:luminance" maskUnits="userSpaceOnUse" x="18" y="13" width="26" height="36">
<path d="M34.25 13H20.4375C19.0969 13 18 14.0969 18 15.4375V46.3125C18 47.6531 19.0969 48.75 20.4375 48.75H41.5625C42.9031 48.75 44 47.6531 44 46.3125V22.75L34.25 13Z" fill="white"/>
</mask>
<g mask="url(#mask4_1609_112)">
<path d="M20.4375 13C19.0969 13 18 14.0969 18 15.4375V15.6406C18 14.3 19.0969 13.2031 20.4375 13.2031H34.25V13H20.4375Z" fill="white" fill-opacity="0.2"/>
</g>
<mask id="mask5_1609_112" style="mask-type:luminance" maskUnits="userSpaceOnUse" x="18" y="13" width="26" height="36">
<path d="M34.25 13H20.4375C19.0969 13 18 14.0969 18 15.4375V46.3125C18 47.6531 19.0969 48.75 20.4375 48.75H41.5625C42.9031 48.75 44 47.6531 44 46.3125V22.75L34.25 13Z" fill="white"/>
</mask>
<g mask="url(#mask5_1609_112)">
<path d="M41.5625 48.5469H20.4375C19.0969 48.5469 18 47.45 18 46.1094V46.3125C18 47.6531 19.0969 48.75 20.4375 48.75H41.5625C42.9031 48.75 44 47.6531 44 46.3125V46.1094C44 47.45 42.9031 48.5469 41.5625 48.5469Z" fill="#263238" fill-opacity="0.2"/>
</g>
<mask id="mask6_1609_112" style="mask-type:luminance" maskUnits="userSpaceOnUse" x="18" y="13" width="26" height="36">
<path d="M34.25 13H20.4375C19.0969 13 18 14.0969 18 15.4375V46.3125C18 47.6531 19.0969 48.75 20.4375 48.75H41.5625C42.9031 48.75 44 47.6531 44 46.3125V22.75L34.25 13Z" fill="white"/>
</mask>
<g mask="url(#mask6_1609_112)">
<path d="M36.6875 22.75C35.3408 22.75 34.25 21.6592 34.25 20.3125V20.5156C34.25 21.8623 35.3408 22.9531 36.6875 22.9531H44V22.75H36.6875Z" fill="#263238" fill-opacity="0.1"/>
</g>
<path d="M34.25 13H20.4375C19.0969 13 18 14.0969 18 15.4375V46.3125C18 47.6531 19.0969 48.75 20.4375 48.75H41.5625C42.9031 48.75 44 47.6531 44 46.3125V22.75L34.25 13Z" fill="url(#paint1_radial_1609_112)"/>
<defs>
<linearGradient id="paint0_linear_1609_112" x1="486.863" y1="99.6125" x2="486.863" y2="925.663" gradientUnits="userSpaceOnUse">
<stop stop-color="#263238" stop-opacity="0.2"/>
<stop offset="1" stop-color="#263238" stop-opacity="0.02"/>
</linearGradient>
<radialGradient id="paint1_radial_1609_112" cx="0" cy="0" r="1" gradientUnits="userSpaceOnUse" gradientTransform="translate(100.369 83.6577) scale(4192.46 4192.46)">
<stop stop-color="white" stop-opacity="0.1"/>
<stop offset="1" stop-color="white" stop-opacity="0"/>
</radialGradient>
</defs>
</svg>
