<svg width="62" height="62" viewBox="0 0 62 62" fill="none" xmlns="http://www.w3.org/2000/svg">
<circle cx="31" cy="31" r="31" fill="#F5F5F5"/>
<g clip-path="url(#clip0_1611_246)">
<path d="M40.1843 21.8157L32.3686 20.9473L22.8159 21.8157L21.9473 30.4999L22.8157 39.1842L31.5 40.2698L40.1843 39.1842L41.0527 30.283L40.1843 21.8157Z" fill="white"/>
<path d="M26.3786 35.2893C25.7295 34.8508 25.28 34.2104 25.0347 33.3636L26.5414 32.7427C26.6782 33.2638 26.917 33.6675 27.2579 33.9542C27.5966 34.2408 28.0091 34.3818 28.4911 34.3818C28.9839 34.3818 29.4073 34.232 29.7611 33.9324C30.1149 33.6327 30.2931 33.2506 30.2931 32.7883C30.2931 32.315 30.1063 31.9285 29.7329 31.629C29.3595 31.3295 28.8906 31.1795 28.3304 31.1795H27.4598V29.6881H28.2413C28.7232 29.6881 29.1293 29.5579 29.4593 29.2974C29.7893 29.0368 29.9543 28.6808 29.9543 28.227C29.9543 27.8232 29.8066 27.5018 29.5114 27.2609C29.2163 27.02 28.8427 26.8984 28.389 26.8984C27.9461 26.8984 27.5943 27.0157 27.3338 27.2524C27.0732 27.489 26.8843 27.7799 26.765 28.1229L25.2736 27.502C25.4711 26.9418 25.8338 26.4468 26.3656 26.0191C26.8975 25.5915 27.577 25.3765 28.402 25.3765C29.012 25.3765 29.5613 25.4938 30.0477 25.7304C30.534 25.967 30.9161 26.2949 31.1918 26.7116C31.4675 27.1306 31.6043 27.5997 31.6043 28.1206C31.6043 28.6525 31.4763 29.1018 31.22 29.4709C30.9638 29.84 30.649 30.1222 30.2756 30.3199V30.4088C30.7684 30.615 31.17 30.9299 31.487 31.3533C31.8018 31.7766 31.9602 32.2825 31.9602 32.8731C31.9602 33.4636 31.8104 33.9911 31.5108 34.4536C31.2111 34.9161 30.7965 35.2808 30.2711 35.5456C29.7436 35.8104 29.1509 35.945 28.4931 35.945C27.7311 35.9472 27.0277 35.7279 26.3786 35.2893Z" fill="#1A73E8"/>
<path d="M35.625 27.8123L33.9793 29.0086L33.1522 27.7537L36.12 25.613H37.2577V35.7105H35.625V27.8123Z" fill="#1A73E8"/>
<path d="M40.1843 47L48 39.1843L44.0922 37.4475L40.1843 39.1843L38.4475 43.0922L40.1843 47Z" fill="#EA4335"/>
<path d="M21.0789 43.0922L22.8157 47H40.1841V39.1843H22.8157L21.0789 43.0922Z" fill="#34A853"/>
<path d="M17.6052 14C16.1659 14 15 15.1659 15 16.6052V39.1841L18.9079 40.9209L22.8157 39.1841V21.8157H40.1841L41.9209 17.9079L40.1843 14H17.6052Z" fill="#4285F4"/>
<path d="M15 39.1843V44.3949C15 45.8343 16.1659 47 17.6052 47H22.8157V39.1843H15Z" fill="#188038"/>
<path d="M40.1843 21.8158V39.1842H48V21.8158L44.0921 20.079L40.1843 21.8158Z" fill="#FBBC04"/>
<path d="M48 21.8157V16.6052C48 15.1657 46.8341 14 45.3948 14H40.1843V21.8157H48Z" fill="#1967D2"/>
</g>
<defs>
<clipPath id="clip0_1611_246">
<rect width="33" height="33" fill="white" transform="translate(15 14)"/>
</clipPath>
</defs>
</svg>
