<svg width="66" height="66" viewBox="0 0 66 66" fill="none" xmlns="http://www.w3.org/2000/svg">
<circle cx="32.9183" cy="32.9183" r="32.9183" fill="#F5F5F5"/>
<g clip-path="url(#clip0_482_186)">
<mask id="mask0_482_186" style="mask-type:luminance" maskUnits="userSpaceOnUse" x="11" y="14" width="46" height="40">
<path d="M52.6306 18.7742C57.9467 23.9545 56.599 32.2429 51.8069 37.4231C47.2396 42.4554 42.0732 47.6357 37.1314 52.5199C35.1098 54.444 31.965 54.444 29.9434 52.5199C29.4193 52.0019 29.2695 51.2619 29.569 50.5958C31.7404 45.8596 34.4359 40.6053 37.8053 35.277C38.6289 33.945 39.9767 31.9469 41.0249 30.5408C41.0998 30.3928 40.95 30.2448 40.8003 30.3188C39.6023 31.5768 37.955 33.3529 36.9817 34.611C33.4625 38.9032 30.4675 43.2694 27.9218 47.4877C27.3228 48.4497 25.975 48.5977 25.1514 47.8577C21.7071 44.4535 18.3377 40.9013 15.193 37.4971C10.4758 32.1689 9.12808 23.8805 14.4442 18.7742C16.99 16.2581 21.0332 14.926 23.9534 15C26.1247 15 28.1464 15.444 30.0183 16.2581C30.9916 16.7021 31.1414 17.8861 30.5424 18.7002C27.9966 22.1044 25.8252 25.5825 23.8785 28.9867C23.8036 29.1347 24.0282 29.2827 24.1031 29.1347C26.0499 26.6186 28.1464 24.0285 30.4675 21.5123C32.4891 19.3662 34.361 17.3681 37.1314 16.1841C39.0033 15.444 41.0249 15 43.1214 15C46.0416 14.926 50.0848 16.2581 52.6306 18.7742Z" fill="white"/>
</mask>
<g mask="url(#mask0_482_186)">
<path d="M33.5374 54.37C46.6406 54.37 57.198 43.8615 57.198 30.9848C57.198 18.0342 46.5657 7.59963 33.5374 7.59963C20.4342 7.52563 9.87683 18.0342 9.87683 30.9108C9.87683 43.8615 20.4342 54.37 33.5374 54.37Z" fill="url(#paint0_radial_482_186)"/>
</g>
<mask id="mask1_482_186" style="mask-type:luminance" maskUnits="userSpaceOnUse" x="11" y="14" width="46" height="40">
<path d="M52.6306 18.7742C57.9467 23.9545 56.599 32.2429 51.8069 37.4231C47.2396 42.4554 42.0732 47.6357 37.1314 52.5199C35.1098 54.444 31.965 54.444 29.9434 52.5199C29.4193 52.0019 29.2695 51.2619 29.569 50.5958C31.7404 45.8596 34.4359 40.6053 37.8053 35.277C38.6289 33.945 39.9767 31.9469 41.0249 30.5408C41.0998 30.3928 40.95 30.2448 40.8003 30.3188C39.6023 31.5768 37.955 33.3529 36.9817 34.611C33.4625 38.9032 30.4675 43.2694 27.9218 47.4877C27.3228 48.4497 25.975 48.5977 25.1514 47.8577C21.7071 44.4535 18.3377 40.9013 15.193 37.4971C10.4758 32.1689 9.12808 23.8805 14.4442 18.7742C16.99 16.2581 21.0332 14.926 23.9534 15C26.1247 15 28.1464 15.444 30.0183 16.2581C30.9916 16.7021 31.1414 17.8861 30.5424 18.7002C27.9966 22.1044 25.8252 25.5825 23.8785 28.9867C23.8036 29.1347 24.0282 29.2827 24.1031 29.1347C26.0499 26.6186 28.1464 24.0285 30.4675 21.5123C32.4891 19.3662 34.361 17.3681 37.1314 16.1841C39.0033 15.444 41.0249 15 43.1214 15C46.0416 14.926 50.0848 16.2581 52.6306 18.7742Z" fill="white"/>
</mask>
<g mask="url(#mask1_482_186)">
<path d="M58.0964 54.666H24.777C35.1846 34.241 45.9667 22.6224 53.3793 22.6224C56.4492 22.6224 58.0964 24.3245 58.0964 27.2106V54.666Z" fill="url(#paint1_linear_482_186)"/>
</g>
<mask id="mask2_482_186" style="mask-type:luminance" maskUnits="userSpaceOnUse" x="11" y="14" width="46" height="40">
<path d="M52.6306 18.7742C57.9467 23.9545 56.599 32.2429 51.8069 37.4231C47.2396 42.4554 42.0732 47.6357 37.1314 52.5199C35.1098 54.444 31.965 54.444 29.9434 52.5199C29.4193 52.0019 29.2695 51.2619 29.569 50.5958C31.7404 45.8596 34.4359 40.6053 37.8053 35.277C38.6289 33.945 39.9767 31.9469 41.0249 30.5408C41.0998 30.3928 40.95 30.2448 40.8003 30.3188C39.6023 31.5768 37.955 33.3529 36.9817 34.611C33.4625 38.9032 30.4675 43.2694 27.9218 47.4877C27.3228 48.4497 25.975 48.5977 25.1514 47.8577C21.7071 44.4535 18.3377 40.9013 15.193 37.4971C10.4758 32.1689 9.12808 23.8805 14.4442 18.7742C16.99 16.2581 21.0332 14.926 23.9534 15C26.1247 15 28.1464 15.444 30.0183 16.2581C30.9916 16.7021 31.1414 17.8861 30.5424 18.7002C27.9966 22.1044 25.8252 25.5825 23.8785 28.9867C23.8036 29.1347 24.0282 29.2827 24.1031 29.1347C26.0499 26.6186 28.1464 24.0285 30.4675 21.5123C32.4891 19.3662 34.361 17.3681 37.1314 16.1841C39.0033 15.444 41.0249 15 43.1214 15C46.0416 14.926 50.0848 16.2581 52.6306 18.7742Z" fill="white"/>
</mask>
<g mask="url(#mask2_482_186)">
<path d="M9.95166 42.9734H17.7387C21.2578 32.8349 24.4775 27.2846 35.7836 13.7419H9.95166V42.9734Z" fill="url(#paint2_radial_482_186)"/>
</g>
</g>
<defs>
<radialGradient id="paint0_radial_482_186" cx="0" cy="0" r="1" gradientTransform="matrix(37.7832 -18.7083 40.0042 78.9226 16.3135 38.8247)" gradientUnits="userSpaceOnUse">
<stop offset="0.37" stop-color="#3186FF"/>
<stop offset="0.55" stop-color="#3C90FF"/>
<stop offset="0.7" stop-color="#00A9BB"/>
<stop offset="0.85" stop-color="#0EBC5F"/>
</radialGradient>
<linearGradient id="paint1_linear_482_186" x1="32.2912" y1="59.1959" x2="61.6051" y2="29.903" gradientUnits="userSpaceOnUse">
<stop offset="0.05" stop-color="#FF63A0"/>
<stop offset="0.25" stop-color="#FC413D"/>
<stop offset="0.5" stop-color="#FC413D"/>
<stop offset="0.65" stop-color="#FF6B2B"/>
<stop offset="0.9" stop-color="#FEC700"/>
<stop offset="1" stop-color="#FFDB0F"/>
</linearGradient>
<radialGradient id="paint2_radial_482_186" cx="0" cy="0" r="1" gradientTransform="matrix(-22.8575 15.9543 -16.1421 -22.5915 30.8887 15.5835)" gradientUnits="userSpaceOnUse">
<stop offset="0.05" stop-color="#A9A8FF"/>
<stop offset="0.6" stop-color="#3186FF"/>
</radialGradient>
<clipPath id="clip0_482_186">
<rect width="45" height="39" fill="white" transform="translate(11 15)"/>
</clipPath>
</defs>
</svg>
