<svg width="62" height="62" viewBox="0 0 62 62" fill="none" xmlns="http://www.w3.org/2000/svg">
<circle cx="31" cy="31" r="31" fill="#F5F5F5"/>
<g clip-path="url(#clip0_1610_173)">
<path d="M14.0997 43.8539L15.9078 46.9231C16.2835 47.5692 16.8236 48.0769 17.4576 48.4462L23.9152 37.4615H11C11 38.1769 11.1879 38.8923 11.5636 39.5385L14.0997 43.8539Z" fill="#0066DA"/>
<path d="M31.5 24.5384L25.0424 13.5538C24.4084 13.9231 23.8683 14.4308 23.4926 15.0769L11.5636 35.3846C11.1948 36.0168 11.0005 36.7328 11 37.4615H23.9152L31.5 24.5384Z" fill="#00AC47"/>
<path d="M45.5424 48.4462C46.1764 48.0769 46.7165 47.5692 47.0922 46.9231L47.8436 45.6539L51.4364 39.5385C51.8121 38.8923 52 38.1769 52 37.4615H39.0838L41.8322 42.7692L45.5424 48.4462Z" fill="#EA4335"/>
<path d="M31.5 24.5385L37.9576 13.5538C37.3236 13.1846 36.5957 13 35.8442 13H27.1558C26.4044 13 25.6764 13.2077 25.0424 13.5538L31.5 24.5385Z" fill="#00832D"/>
<path d="M39.0848 37.4615H23.9152L17.4576 48.4462C18.0916 48.8154 18.8196 49 19.571 49H43.429C44.1804 49 44.9084 48.7923 45.5424 48.4462L39.0848 37.4615Z" fill="#2684FC"/>
<path d="M45.4719 25.2308L39.5074 15.0769C39.1317 14.4308 38.5916 13.9231 37.9576 13.5538L31.5 24.5384L39.0848 37.4615H51.9765C51.9765 36.7461 51.7887 36.0308 51.4129 35.3846L45.4719 25.2308Z" fill="#FFBA00"/>
</g>
<defs>
<clipPath id="clip0_1610_173">
<rect width="41" height="36" fill="white" transform="translate(11 13)"/>
</clipPath>
</defs>
</svg>
