<svg width="66" height="66" viewBox="0 0 66 66" fill="none" xmlns="http://www.w3.org/2000/svg">
<circle cx="32.9183" cy="32.9183" r="32.9183" fill="#F5F5F5"/>
<g clip-path="url(#clip0_4822_47)">
<path fill-rule="evenodd" clip-rule="evenodd" d="M48.6123 52H50.9943C51.5236 52 52 51.5224 52 50.9918V25.4163C52 22.9224 49.9886 20.8531 47.4478 20.8531H44.4306C43.9013 20.8531 43.4249 20.3755 43.4249 19.8449V17.5633C43.4778 15.0163 41.4664 13 38.9256 13H19.5522C17.0114 13 15 15.0163 15 17.5633V43.2449C15 45.7388 17.0114 47.7551 19.5522 47.8082H41.9957C42.2074 47.8082 42.4192 47.8612 42.578 47.9673L48.083 51.8408C48.2418 51.9469 48.4535 52 48.6123 52ZM43.1602 44.1469H19.6051C19.0229 44.1469 18.5994 43.7224 18.5994 43.1388V17.6163C18.5994 17.0857 19.0758 16.6082 19.6051 16.6082H38.8727C39.402 16.6082 39.8784 17.0857 39.8784 17.6163V19.898C39.8784 20.4286 39.402 20.9061 38.8727 20.9061H24.5279C23.9986 20.9061 23.5222 21.3837 23.5222 21.9143V38.9469C23.5222 39.4776 23.9986 39.9551 24.5279 39.9551H42.4721C43.0014 39.9551 43.4778 39.4776 43.4778 38.9469V25.4694C43.4778 24.9388 43.9542 24.4612 44.4835 24.4612H47.4478C47.9771 24.4612 48.4535 24.9388 48.4535 25.4694V46.3755C48.4535 46.9061 47.8712 47.1714 47.5007 46.9061L43.7425 44.3061C43.5837 44.2 43.372 44.1469 43.1602 44.1469ZM39.3491 36.2939H27.598C27.3333 36.2939 27.1216 36.0816 27.1216 35.8163V24.9388C27.1216 24.6735 27.3333 24.4612 27.598 24.4612H39.3491C39.6137 24.4612 39.8255 24.6735 39.8255 24.9388V35.7633C39.8255 36.0286 39.6667 36.2939 39.3491 36.2939Z" fill="#161616"/>
</g>
<defs>
<clipPath id="clip0_4822_47">
<rect width="37" height="39" fill="white" transform="translate(15 13)"/>
</clipPath>
</defs>
</svg>
