<svg width="62" height="62" viewBox="0 0 62 62" fill="none" xmlns="http://www.w3.org/2000/svg">
<circle cx="31" cy="31" r="31" fill="#F5F5F5"/>
<g transform="translate(15.6, 14.2) scale(1.4)">
<path d="M21.4323 10.2546C21.3911 9.884 21.3498 9.43098 21.185 8.93678C21.0613 8.44258 20.8553 7.9072 20.5667 7.33063C20.2782 6.75407 19.9073 6.1775 19.4539 5.60093C19.2891 5.39502 19.083 5.14792 18.8357 4.942C19.1654 3.62413 18.4235 2.51218 18.4235 2.51218C17.187 2.42982 16.3627 2.88283 16.0742 3.12993C16.033 3.12993 15.9918 3.08875 15.9094 3.04757C15.7033 2.9652 15.4972 2.88283 15.2499 2.80047C15.0026 2.7181 14.7965 2.67692 14.5492 2.59455C14.3019 2.55337 14.0546 2.51218 13.8486 2.471C13.8073 2.471 13.7661 2.471 13.7249 2.471C13.1891 0.7413 11.6229 0 11.6229 0C9.89183 1.11195 9.5621 2.63573 9.5621 2.63573C9.5621 2.63573 9.5621 2.67692 9.5621 2.7181C9.47967 2.75928 9.35602 2.75928 9.27358 2.80047C9.14994 2.84165 9.02629 2.88283 8.86142 2.92402C8.73778 2.9652 8.61413 3.00638 8.44927 3.08875C8.20197 3.2123 7.91346 3.33585 7.66617 3.4594C7.41887 3.58295 7.17158 3.74768 6.92428 3.91242C6.88307 3.91242 6.88307 3.87123 6.88307 3.87123C4.45133 2.9652 2.30809 4.07715 2.30809 4.07715C2.10202 6.63052 3.25606 8.27785 3.50335 8.56613C3.46214 8.73086 3.37971 8.8956 3.33849 9.06033C3.17363 9.6369 3.00877 10.2546 2.92633 10.8724C2.92633 10.9548 2.88512 11.0371 2.88512 11.1195C0.659455 12.2314 0 14.4965 0 14.4965C1.85472 16.6381 4.03917 16.7616 4.03917 16.7616C4.32768 17.2558 4.61619 17.7088 4.98713 18.1618C5.15199 18.3266 5.31686 18.5325 5.44051 18.6972C4.78105 20.6328 5.52293 22.239 5.52293 22.239C7.58373 22.3214 8.94385 21.333 9.23237 21.0859C9.43845 21.1682 9.64452 21.2094 9.85061 21.2918C10.4688 21.4565 11.1283 21.5389 11.7878 21.5801C11.9526 21.5801 12.1175 21.5801 12.2824 21.5801H12.3648H12.406H12.4884H12.5709C13.56 22.9803 15.2499 23.1862 15.2499 23.1862C16.4864 21.9095 16.5276 20.6328 16.5276 20.3446C16.5276 20.3034 16.5276 20.3034 16.5276 20.3034V20.2622C16.7749 20.0975 17.0222 19.8915 17.2695 19.6856C17.7641 19.2326 18.1762 18.7384 18.5472 18.203C18.5884 18.1618 18.6296 18.1207 18.6296 18.0383C20.0309 18.1207 20.9789 17.1734 20.9789 17.1734C20.7316 15.732 19.9073 15.0319 19.7424 14.9084C19.7424 14.9084 19.7424 14.9084 19.7012 14.9084C19.7012 14.826 19.7012 14.7436 19.7012 14.6613C19.7012 14.4965 19.7012 14.3318 19.7012 14.2082V14.0023V13.9611V13.92C19.7012 13.8788 19.7012 13.8788 19.7012 13.8788V13.7964V13.6729C19.7012 13.6317 19.7012 13.5905 19.7012 13.5493C19.7012 13.5081 19.7012 13.4669 19.7012 13.4258V13.3022V13.1787C19.66 13.0139 19.66 12.8492 19.6188 12.7256C19.4539 12.1079 19.2478 11.5313 18.9181 10.9959C18.5884 10.4606 18.2174 10.0075 17.7641 9.59571C17.3107 9.18388 16.8161 8.8956 16.2803 8.6485C15.7445 8.4014 15.2087 8.27785 14.6317 8.19548C14.3431 8.1543 14.0958 8.1543 13.8073 8.1543H13.7249H13.6837H13.6425H13.6013H13.5188C13.4776 8.1543 13.4364 8.1543 13.3952 8.1543C13.2715 8.1543 13.1067 8.19548 12.983 8.19548C12.4472 8.27785 11.9114 8.48376 11.458 8.77205C11.0047 9.06033 10.5925 9.3898 10.2628 9.76045C9.93304 10.1311 9.68575 10.5841 9.52088 11.0371C9.35602 11.4901 9.27358 11.9432 9.23237 12.3962C9.23237 12.5197 9.23237 12.6021 9.23237 12.7256C9.23237 12.7668 9.23237 12.7668 9.23237 12.808V12.8904C9.23237 12.9316 9.23237 13.0139 9.23237 13.0551C9.27358 13.261 9.31481 13.5081 9.35602 13.714C9.47967 14.1259 9.68574 14.4965 9.89182 14.826C10.1391 15.1555 10.4276 15.4026 10.7161 15.6085C11.0047 15.8144 11.3344 15.9791 11.6641 16.0615C11.9938 16.1439 12.2823 16.185 12.6121 16.185C12.6533 16.185 12.6945 16.185 12.7357 16.185H12.7769H12.8182C12.8594 16.185 12.9006 16.185 12.9006 16.185C12.9006 16.185 12.9006 16.185 12.9418 16.185H12.983H13.0242C13.0655 16.185 13.1067 16.185 13.1479 16.185C13.1891 16.185 13.2303 16.185 13.2715 16.1439C13.354 16.1439 13.3952 16.1027 13.4776 16.1027C13.6013 16.0615 13.7249 16.0203 13.8486 15.9379C13.9722 15.8968 14.0546 15.8144 14.1783 15.732C14.2195 15.732 14.2195 15.6908 14.2607 15.6497C14.3844 15.5673 14.3844 15.4026 14.3019 15.3202C14.2195 15.2378 14.0958 15.1966 14.0134 15.279C13.9722 15.279 13.9722 15.3202 13.931 15.3202C13.8486 15.3614 13.7661 15.4026 13.6425 15.4437C13.56 15.4849 13.4364 15.4849 13.354 15.5261C13.3127 15.5261 13.2303 15.5261 13.1891 15.5261C13.1479 15.5261 13.1479 15.5261 13.1067 15.5261C13.0655 15.5261 13.0655 15.5261 13.0242 15.5261C12.983 15.5261 12.983 15.5261 12.9418 15.5261C12.9006 15.5261 12.8594 15.5261 12.8594 15.5261H12.8182H12.7769C12.7357 15.5261 12.7357 15.5261 12.6945 15.5261C12.4472 15.4849 12.2411 15.4437 11.9938 15.3202C11.7465 15.2378 11.5405 15.0731 11.3344 14.9084C11.1283 14.7436 10.9634 14.4965 10.8398 14.2906C10.7161 14.0847 10.5925 13.7964 10.5513 13.5081C10.5101 13.3846 10.5101 13.2198 10.5101 13.0963C10.5101 13.0551 10.5101 13.0139 10.5101 12.9727V12.9316V12.8904C10.5101 12.808 10.5101 12.7256 10.5513 12.6433C10.6749 12.0255 10.9634 11.449 11.458 10.9548C11.5817 10.8312 11.7053 10.7488 11.829 10.6253C11.9526 10.5429 12.1175 10.4606 12.2411 10.3782C12.406 10.2958 12.5709 10.2546 12.6945 10.2135C12.8594 10.1723 13.0242 10.1311 13.1891 10.1311C13.2715 10.1311 13.354 10.1311 13.4364 10.1311C13.4776 10.1311 13.4776 10.1311 13.4776 10.1311H13.56H13.6013H13.6837C13.8486 10.1311 14.0546 10.1723 14.2195 10.2135C14.5904 10.2958 14.9202 10.4194 15.2499 10.6253C15.9093 10.9959 16.4452 11.5725 16.8161 12.2314C16.981 12.5609 17.1046 12.9316 17.187 13.3022C17.187 13.3846 17.2283 13.5081 17.2283 13.5905V13.6729V13.7552C17.2283 13.7964 17.2283 13.7964 17.2283 13.8376C17.2283 13.8788 17.2283 13.8788 17.2283 13.92V14.0023V14.0847C17.2283 14.1259 17.2283 14.2082 17.2283 14.2494C17.2283 14.373 17.2283 14.4553 17.187 14.5789C17.187 14.6613 17.1458 14.7848 17.1458 14.8672C17.1458 14.9495 17.1046 15.0731 17.0634 15.1555C17.0222 15.3614 16.9397 15.5673 16.8573 15.732C16.6924 16.1027 16.4864 16.4733 16.2391 16.844C15.7445 17.5029 15.085 18.0795 14.3019 18.4089C13.931 18.5737 13.5188 18.6972 13.1067 18.7796C12.9006 18.8208 12.6945 18.8208 12.4884 18.862H12.4472H12.406H12.3236H12.2411H12.1999C12.1999 18.862 12.2411 18.862 12.1999 18.862C12.0763 18.862 11.9938 18.862 11.8702 18.862C11.4168 18.8208 10.9634 18.7384 10.5513 18.6149C10.1391 18.4913 9.68575 18.3266 9.3148 18.1207C8.5317 17.7088 7.83103 17.1323 7.25401 16.4321C6.96549 16.1027 6.71819 15.732 6.55333 15.3202C6.34725 14.9084 6.18239 14.4965 6.05875 14.0847C5.9351 13.6729 5.85267 13.2198 5.85267 12.808V12.7256V12.6845V12.6021V12.355V12.3138V12.2314V12.1903C5.85267 12.1491 5.85267 12.0667 5.85267 12.0255C5.85267 11.8196 5.89389 11.5725 5.89389 11.3666C5.9351 11.1607 5.97631 10.9136 6.01753 10.7077C6.05874 10.5017 6.09996 10.2546 6.18239 10.0487C6.30604 9.6369 6.4709 9.22507 6.63577 8.81323C7.00671 8.03075 7.46008 7.33063 8.03711 6.79525C8.16075 6.6717 8.32562 6.50697 8.49048 6.38342C8.65535 6.25987 8.82022 6.13632 8.98508 6.05395C9.14994 5.9304 9.3148 5.84803 9.47966 5.76567C9.5621 5.72448 9.64453 5.6833 9.72696 5.64212C9.76818 5.64212 9.80939 5.60093 9.85061 5.60093C9.89182 5.60093 9.93304 5.55975 9.97426 5.55975C10.1391 5.47738 10.3452 5.4362 10.5101 5.35383C10.5513 5.35383 10.5925 5.31265 10.6337 5.31265C10.6749 5.31265 10.7161 5.27147 10.7574 5.27147C10.8398 5.23028 10.9634 5.23028 11.0459 5.1891C11.0871 5.1891 11.1283 5.14792 11.2107 5.14792C11.252 5.14792 11.2932 5.14792 11.3756 5.10673C11.4168 5.10673 11.458 5.10673 11.5405 5.06555H11.6229H11.7053C11.7465 5.06555 11.7878 5.06555 11.8702 5.02437C11.9114 5.02437 11.9938 5.02437 12.0351 4.98318C12.0763 4.98318 12.1587 4.98318 12.1999 4.98318C12.2411 4.98318 12.2823 4.98318 12.3236 4.98318H12.406H12.4472H12.4884C12.5296 4.98318 12.6121 4.98318 12.6533 4.98318H12.7357C12.7357 4.98318 12.7769 4.98318 12.7357 4.98318H12.7769C12.8182 4.98318 12.8594 4.98318 12.9006 4.98318C13.1067 4.98318 13.2715 4.98318 13.4776 4.98318C13.8486 4.98318 14.2195 5.02437 14.5904 5.10673C15.2911 5.23028 15.9506 5.47738 16.5688 5.76567C17.187 6.05395 17.7229 6.4246 18.1762 6.83643C18.2174 6.87762 18.2174 6.87761 18.2587 6.9188C18.2999 6.95998 18.2999 6.95998 18.3411 7.00117C18.3823 7.04235 18.4647 7.08353 18.5059 7.1659C18.5472 7.24827 18.6296 7.24826 18.6708 7.33063C18.712 7.413 18.7945 7.45418 18.8357 7.49537C19.0418 7.70128 19.2066 7.9072 19.3715 8.1543C19.7012 8.56613 19.9897 9.01915 20.1958 9.43098C20.1958 9.47217 20.237 9.47217 20.237 9.51335C20.237 9.55453 20.2782 9.55453 20.2782 9.59571C20.3195 9.6369 20.3195 9.67808 20.3607 9.76045C20.4019 9.80163 20.4019 9.84282 20.4431 9.92518C20.4843 9.96636 20.4843 10.0075 20.5255 10.0899C20.608 10.2958 20.6904 10.4606 20.7316 10.6253C20.8141 10.9136 20.8965 11.1607 20.9377 11.3666C20.9789 11.449 21.0613 11.5313 21.1438 11.4901C21.2262 11.4901 21.3086 11.4078 21.3086 11.3254C21.4735 10.8312 21.4735 10.5429 21.4323 10.2546Z" fill="#FF671D"/>
</g>
</svg>
