<svg width="66" height="66" viewBox="0 0 66 66" fill="none" xmlns="http://www.w3.org/2000/svg">
<circle cx="32.9183" cy="32.9183" r="32.9183" fill="#F5F5F5"/>
<path d="M32.2429 56C37.115 56 42.2214 54.9203 44.2782 53.4228C45.5917 52.4857 46.2434 52.5774 47.4143 51.4569C47.7401 51.1309 47.8827 51.0341 47.9743 50.9424C52.4239 47.2855 55 42.554 55 36.4167C55 26.434 47.9285 19.6397 37.8125 19.6397C28.9134 19.6397 22.1219 25.3084 22.1219 32.5713C22.1219 39.1772 27.274 43.9088 34.6255 43.9088C35.0481 43.9088 35.2365 43.6745 35.7048 43.6745C37.4867 43.6745 38.9377 43.1601 39.8744 42.1771C40.3428 41.6627 41.2337 40.6288 41.3254 40.5829C41.7479 40.206 41.8396 39.6458 41.9363 39.4115C42.028 39.1772 42.2163 39.0346 42.313 38.7086C42.4047 38.3317 42.2672 37.8632 42.2672 37.4455C42.2672 36.6968 42.593 35.9481 42.593 35.2452C42.593 33.2793 40.2512 31.3082 38.1435 31.3082C37.9093 31.3082 37.9093 31.1198 37.7667 31.1198C37.6242 31.1198 37.4867 31.2624 37.3442 31.2624C37.2016 31.2624 37.0183 31.0281 36.83 31.0281C36.6416 31.0281 36.55 31.2165 36.2699 31.2165C35.659 31.2165 35.6132 31.3082 35.1448 31.3082C35.0023 31.3082 34.7681 31.3541 34.6764 31.3999C34.4881 31.4915 34.4881 31.6342 34.2997 31.6342C34.0485 31.6342 33.923 31.6817 33.923 31.7768C33.923 32.2912 33.9688 32.1995 33.7346 32.1995C33.4834 32.1995 33.3273 32.2148 33.2662 32.2454C33.0779 32.337 33.2204 32.5713 33.032 32.7139C32.8437 32.8056 32.7979 32.9482 32.752 33.2283C32.7062 33.5085 32.4262 33.6052 32.4262 33.8854C32.4262 34.028 32.472 34.1197 32.472 34.2113C32.472 34.4915 31.912 34.3998 31.912 34.6799C31.912 34.8684 32.0545 35.0059 32.0545 35.1943C32.0545 35.3369 31.9629 35.4286 31.9629 35.5712C31.9629 35.7138 32.0545 35.8055 32.0545 35.8972C32.0545 36.1315 31.7287 36.1773 31.7287 36.3658C31.7287 36.5542 31.9171 36.6917 31.9171 36.8343C31.9171 36.926 31.7745 36.9769 31.7745 37.1145C31.7745 37.2519 31.7287 37.0228 32.0087 37.4404C32.1971 37.7205 32.1971 37.8632 32.0087 38.0975C31.8203 38.3317 31.4487 38.4743 30.9803 38.4743C29.0151 38.4743 28.781 36.4574 27.7017 36.1315C27.3758 36.0398 27.3249 35.9889 27.3249 35.8513C27.3249 35.7138 27.3249 35.7597 27.5133 35.5712C27.7017 35.3828 27.7475 35.2452 27.7475 35.1026C27.7475 34.96 27.7475 34.9142 27.6558 34.8225C27.2791 34.2113 27.0958 33.4626 27.0958 32.6222C27.0958 28.3134 32.3396 24.7023 37.3085 24.7023C38.8053 24.7023 38.5711 25.0792 39.4621 25.0792C39.6963 25.0792 39.6046 25.0792 39.9305 25.0334C40.7756 24.8908 42.3182 25.2218 43.5349 25.8279C46.9052 27.5138 49.1097 31.4967 49.1097 36.1365C49.1097 44.0564 42.084 49.8169 32.7163 49.8169C27.61 49.8169 24.0972 48.2227 20.6302 44.3366C20.2534 43.9139 20.8185 44.4283 20.2076 43.3536C19.4592 42.0396 19.5509 42.885 19.5509 42.885C19.3167 42.6049 18.8941 41.8053 18.6599 41.5251C18.3799 41.1992 18.0032 41.245 17.8657 41.0566C17.6773 40.8223 17.9574 40.3995 17.8657 40.1653C17.7741 39.7884 16.9748 39.2281 16.8831 38.948C16.7915 38.6679 16.4606 36.8853 16.4606 36.5593C16.4606 36.1824 16.7406 36.1365 16.7406 35.9023C16.7406 35.5763 16.318 35.4795 16.0838 35.011C15.8497 34.5424 15.7071 33.4626 15.7071 32.2912C15.7071 31.68 15.7071 31.4457 15.8955 30.04C15.9413 29.5714 16.6439 29.5714 16.6439 29.057C16.6439 28.8685 16.5522 28.6342 16.5522 28.4968C16.5522 28.3083 16.5522 28.2625 16.5981 28.1199C18.5632 19.8739 27.3707 13.7366 37.1609 13.7366C40.5312 13.7366 43.1072 14.3479 47.0885 16.0337C48.402 16.5939 50.3213 15.6109 50.3213 14.5822C50.4129 14.2562 50.2296 14.1594 50.1787 13.9709C50.1329 13.7825 49.9446 13.5482 49.7562 13.5024C49.6645 13.4565 49.6136 13.3139 49.522 13.1765C49.3795 12.9422 49.242 12.8505 48.8653 12.7537C48.6769 12.7079 48.5853 12.662 48.4885 12.5652C48.346 12.3768 48.2543 12.2851 48.066 12.1883C47.8776 12.0966 47.7401 12.1883 47.6434 12.1425C47.5518 12.0966 47.5009 11.9999 47.4092 11.954C47.3634 11.9082 47.2667 11.9082 47.1292 11.9082C42.4047 9.37689 39.3144 9 35.1957 9C26.2965 9 18.3341 12.8453 13.4161 19.5429C12.9936 20.1032 13.2278 21.0403 12.6219 21.6056C11.451 22.6855 10 28.5885 10 32.337C10 35.4745 10.7484 39.6458 11.731 41.9428C13.6503 46.4401 12.8103 44.5658 13.0903 44.9885C13.6503 45.8798 14.1187 45.9715 14.3529 46.2516C14.3529 46.2516 14.4954 46.5318 14.4954 46.8119C14.4954 47.0003 14.4954 47.0462 14.5412 47.1379C14.6838 47.4179 15.3355 47.8865 15.5238 48.075C15.9464 48.4978 16.2722 49.3891 16.9748 50.0919C18.0541 51.1717 19.5967 52.0121 24.5147 54.3091C26.2456 55.1036 25.263 54.686 25.4514 54.7318C25.874 54.8744 26.434 54.8744 26.7649 55.1087C26.9533 55.2513 26.7191 55.2004 27.2333 55.2004C27.3249 55.2004 27.3249 55.2462 27.4216 55.2921C27.5133 55.3379 27.61 55.4805 27.7475 55.4805C27.8391 55.4805 27.89 55.3888 28.0275 55.4347C28.165 55.4805 28.4959 55.7148 28.7759 55.8574C29.0101 56 29.0559 56 29.1526 55.9032C29.4326 55.7148 29.621 55.9491 29.901 55.9491C29.9927 55.9491 30.1352 55.9032 30.4152 55.9032C30.7919 55.9032 30.7919 55.9949 32.2429 55.9949" fill="#1E1E1E"/>
</svg>
