<svg width="66" height="66" viewBox="0 0 66 66" fill="none" xmlns="http://www.w3.org/2000/svg">
<circle cx="32.9183" cy="32.9183" r="32.9183" fill="#F5F5F5"/>
<g clip-path="url(#clip0_146_34)">
<mask id="mask0_146_34" style="mask-type:luminance" maskUnits="userSpaceOnUse" x="10" y="10" width="45" height="45">
<path d="M55 10H10V55H55V10Z" fill="white"/>
</mask>
<g mask="url(#mask0_146_34)">
<path d="M55 10H10V55H55V10Z" fill="#B2C248"/>
<path d="M32.324 48.5845C35.6601 48.5845 39.1565 47.8454 40.5649 46.8205C41.4643 46.1791 41.9105 46.2419 42.7123 45.4749C42.9354 45.2518 43.033 45.1856 43.0957 45.1228C46.1425 42.6199 47.9064 39.3814 47.9064 35.1807C47.9064 28.3482 43.0644 23.6978 36.1377 23.6978C30.0441 23.6978 25.3938 27.5777 25.3938 32.5488C25.3938 37.0702 28.9216 40.3087 33.9554 40.3087C34.2448 40.3087 34.3737 40.1483 34.6945 40.1483C35.9146 40.1483 36.9081 39.7962 37.5495 39.1234C37.8702 38.7713 38.4803 38.0637 38.543 38.0323C38.8323 37.7744 38.8951 37.3909 38.9613 37.2305C39.0241 37.0702 39.1531 36.9726 39.2193 36.7495C39.282 36.4915 39.1879 36.1708 39.1879 35.8849C39.1879 35.3725 39.411 34.86 39.411 34.379C39.411 33.0334 37.8075 31.6843 36.3642 31.6843C36.2039 31.6843 36.2039 31.5553 36.1063 31.5553C36.0087 31.5553 35.9146 31.6529 35.817 31.6529C35.7193 31.6529 35.5938 31.4925 35.4649 31.4925C35.3359 31.4925 35.2731 31.6215 35.0814 31.6215C34.6631 31.6215 34.6317 31.6843 34.311 31.6843C34.2134 31.6843 34.053 31.7157 33.9903 31.747C33.8613 31.8097 33.8613 31.9074 33.7323 31.9074C33.5603 31.9074 33.4744 31.9399 33.4744 32.005C33.4744 32.3571 33.5057 32.2943 33.3454 32.2943C33.1734 32.2943 33.0665 32.3048 33.0247 32.3257C32.8957 32.3885 32.9933 32.5488 32.8643 32.6464C32.7353 32.7092 32.704 32.8068 32.6726 32.9985C32.6412 33.1902 32.4495 33.2565 32.4495 33.4482C32.4495 33.5458 32.4808 33.6086 32.4808 33.6713C32.4808 33.863 32.0974 33.8003 32.0974 33.992C32.0974 34.121 32.195 34.2151 32.195 34.3441C32.195 34.4417 32.1322 34.5045 32.1322 34.6021C32.1322 34.6997 32.195 34.7624 32.195 34.8252C32.195 34.9855 31.9719 35.0169 31.9719 35.1459C31.9719 35.2749 32.1008 35.369 32.1008 35.4666C32.1008 35.5294 32.0032 35.5642 32.0032 35.6583C32.0032 35.7524 31.9719 35.5956 32.1636 35.8814C32.2926 36.0731 32.2926 36.1708 32.1636 36.3311C32.0346 36.4915 31.7801 36.5891 31.4594 36.5891C30.1138 36.5891 29.9535 35.2087 29.2144 34.9855C28.9913 34.9228 28.9565 34.8879 28.9565 34.7938C28.9565 34.6997 28.9565 34.7311 29.0855 34.6021C29.2144 34.4731 29.2458 34.379 29.2458 34.2814C29.2458 34.1838 29.2458 34.1524 29.1831 34.0896C28.9251 33.6713 28.7996 33.1589 28.7996 32.5837C28.7996 29.6345 32.3902 27.1629 35.7926 27.1629C36.8175 27.1629 36.6571 27.4209 37.2671 27.4209C37.4275 27.4209 37.3647 27.4209 37.5879 27.3895C38.1665 27.2919 39.2228 27.5185 40.056 27.9333C42.3637 29.0872 43.8731 31.8133 43.8731 34.989C43.8731 40.4098 39.0624 44.3524 32.6481 44.3524C29.1517 44.3524 26.7463 43.2613 24.3724 40.6015C24.1144 40.3122 24.5013 40.6642 24.083 39.9287C23.5706 39.0293 23.6333 39.608 23.6333 39.608C23.473 39.4162 23.1836 38.8689 23.0233 38.6772C22.8316 38.4541 22.5736 38.4855 22.4795 38.3565C22.3505 38.1961 22.5422 37.9068 22.4795 37.7464C22.4167 37.4885 21.8694 37.105 21.8067 36.9133C21.7439 36.7216 21.5173 35.5015 21.5173 35.2783C21.5173 35.0204 21.7091 34.989 21.7091 34.8287C21.7091 34.6055 21.4197 34.5393 21.2594 34.2186C21.099 33.8979 21.0014 33.1589 21.0014 32.3571C21.0014 31.9388 21.0014 31.7784 21.1304 30.8163C21.1618 30.4955 21.6428 30.4955 21.6428 30.1435C21.6428 30.0144 21.5801 29.8541 21.5801 29.76C21.5801 29.631 21.5801 29.5996 21.6115 29.502C22.9571 23.8582 28.9878 19.6575 35.6914 19.6575C37.9992 19.6575 39.7631 20.0759 42.4892 21.2297C43.3886 21.6132 44.7028 20.9404 44.7028 20.2362C44.7655 20.0131 44.64 19.9468 44.6052 19.8179C44.5738 19.6889 44.4448 19.5285 44.3158 19.4971C44.2531 19.4658 44.2182 19.3682 44.1555 19.2741C44.0579 19.1137 43.9638 19.051 43.7058 18.9847C43.5768 18.9534 43.5141 18.922 43.4478 18.8557C43.3502 18.7267 43.2875 18.664 43.1585 18.5978C43.0295 18.535 42.9354 18.5978 42.8692 18.5664C42.8064 18.535 42.7716 18.4688 42.7088 18.4374C42.6774 18.406 42.6112 18.406 42.5171 18.406C39.282 16.6735 37.166 16.4155 34.3458 16.4155C28.2523 16.4155 22.8002 19.0475 19.4327 23.6316C19.1434 24.015 19.3037 24.6565 18.8889 25.0434C18.0871 25.7825 17.0936 29.8228 17.0936 32.3885C17.0936 34.5359 17.606 37.3909 18.2788 38.9631C19.593 42.0412 19.0178 40.7584 19.2096 41.0477C19.593 41.6578 19.9138 41.7205 20.0741 41.9122C20.0741 41.9122 20.1717 42.104 20.1717 42.2957C20.1717 42.4247 20.1717 42.4561 20.2031 42.5188C20.3007 42.7105 20.7469 43.0312 20.8759 43.1602C21.1652 43.4496 21.3883 44.0596 21.8694 44.5407C22.6084 45.2797 23.6647 45.8549 27.0322 47.4271C28.2174 47.9709 27.5446 47.6851 27.6736 47.7165C27.963 47.8141 28.3464 47.8141 28.573 47.9744C28.702 48.072 28.5416 48.0372 28.8937 48.0372C28.9565 48.0372 28.9565 48.0685 29.0227 48.0999C29.0855 48.1313 29.1517 48.2289 29.2458 48.2289C29.3086 48.2289 29.3434 48.1661 29.4375 48.1975C29.5317 48.2289 29.7583 48.3893 29.95 48.4869C30.1103 48.5845 30.1417 48.5845 30.2079 48.5182C30.3997 48.3893 30.5287 48.5496 30.7204 48.5496C30.7831 48.5496 30.8808 48.5182 31.0725 48.5182C31.3304 48.5182 31.3304 48.581 32.324 48.581" fill="#1E1E1E"/>
</g>
</g>
<defs>
<clipPath id="clip0_146_34">
<rect width="45" height="45" fill="white" transform="translate(10 10)"/>
</clipPath>
</defs>
</svg>
