<svg width="70" height="66" viewBox="0 0 70 66" fill="none" xmlns="http://www.w3.org/2000/svg">
<circle cx="36.918" cy="32.9183" r="32.9183" fill="#F5F5F5"/>
<mask id="mask0_16_26" style="mask-type:luminance" maskUnits="userSpaceOnUse" x="0" y="1" width="64" height="64">
<path d="M32 65C49.6731 65 64 50.6731 64 33C64 15.3269 49.6731 1 32 1C14.3269 1 0 15.3269 0 33C0 50.6731 14.3269 65 32 65Z" fill="white"/>
</mask>
<g mask="url(#mask0_16_26)">
<path d="M34.5 59C48.5833 59 60 47.5833 60 33.5C60 19.4167 48.5833 8 34.5 8C20.4167 8 9 19.4167 9 33.5C9 47.5833 20.4167 59 34.5 59Z" fill="white"/>
<path d="M51.7922 52.0911C50.1825 53.6968 49.9076 53.8203 47.9592 53.8163C46.4412 53.8123 45.3574 53.5255 44.0625 52.7884C41.9627 51.593 40.4766 50.2862 40.4766 49.6327C40.4766 49.3777 41.3691 47.3457 42.4568 45.1184C43.5445 42.8912 44.2538 41.0703 44.0266 41.0703C43.8035 41.0703 42.3771 41.2616 40.8591 41.4966C35.7033 42.2975 30.8463 40.5404 28.0812 36.8748C26.093 34.2451 25.4276 32.5756 25.1048 29.4399C24.5351 23.8817 26.9775 16.4349 30.5475 12.849C33.3366 10.044 35.7033 9.03195 39.4805 9.03195C42.138 9.03195 43.0027 9.20726 44.6681 10.0719C50.8758 13.2912 55.3781 23.4673 55.9001 35.4762C56.2587 43.6801 54.9637 48.9195 51.7922 52.0911ZM38.3688 34.6594C41.903 36.5241 45.4052 35.0499 47.2739 30.9101C50.8877 22.9135 48.9633 17.1641 42.6799 17.1641C40.369 17.1641 38.6437 18.4351 37.058 21.3038C35.6236 23.9096 34.6753 28.0175 35.0538 30.0097C35.4284 31.9979 36.6994 33.7789 38.3688 34.6594Z" fill="#020202"/>
</g>
</svg>
