<svg width="66" height="66" viewBox="0 0 66 66" fill="none" xmlns="http://www.w3.org/2000/svg">
<circle cx="32.9183" cy="32.9183" r="32.9183" fill="#F5F5F5"/>
<mask id="mask0_16_26" style="mask-type:luminance" maskUnits="userSpaceOnUse" x="0" y="0" width="65" height="64">
<path d="M32.0002 64C49.6734 64 64.0002 49.6731 64.0002 32C64.0002 14.3269 49.6734 0 32.0002 0C14.3271 0 0.000244141 14.3269 0.000244141 32C0.000244141 49.6731 14.3271 64 32.0002 64Z" fill="white"/>
</mask>
<g mask="url(#mask0_16_26)">
<path d="M33.0002 63C49.5688 63 63.0002 49.5685 63.0002 33C63.0002 16.4315 49.5688 3 33.0002 3C16.4317 3 3.00024 16.4315 3.00024 33C3.00024 49.5685 16.4317 63 33.0002 63Z" fill="white"/>
<path d="M53.344 54.8719C51.4502 56.7609 51.1268 56.9062 48.8346 56.9016C47.0487 56.8969 45.7737 56.5594 44.2502 55.6922C41.7799 54.2859 40.0315 52.7484 40.0315 51.9797C40.0315 51.6797 41.0815 49.2891 42.3612 46.6687C43.6409 44.0484 44.4752 41.9062 44.2081 41.9062C43.9456 41.9062 42.2674 42.1312 40.4815 42.4078C34.4159 43.35 28.7018 41.2828 25.4487 36.9703C23.1096 33.8766 22.3268 31.9125 21.9471 28.2234C21.2768 21.6844 24.1502 12.9234 28.3502 8.70468C31.6315 5.40468 34.4159 4.21406 38.8596 4.21406C41.9862 4.21406 43.0034 4.42031 44.9627 5.4375C52.2659 9.225 57.5627 21.1969 58.1768 35.325C58.5987 44.9766 57.0752 51.1406 53.344 54.8719ZM37.5518 34.3641C41.7096 36.5578 45.8299 34.8234 48.0284 29.9531C52.2799 20.5453 50.0159 13.7812 42.6237 13.7812C39.9049 13.7812 37.8752 15.2766 36.0096 18.6516C34.3221 21.7172 33.2065 26.55 33.6518 28.8937C34.0924 31.2328 35.5877 33.3281 37.5518 34.3641Z" fill="#020202"/>
</g>
</svg>
