<svg width="66" height="66" viewBox="0 0 66 66" fill="none" xmlns="http://www.w3.org/2000/svg">
<circle cx="32.9183" cy="32.9183" r="32.9183" fill="#F5F5F5"/>
<mask id="mask0_16_26" style="mask-type:luminance" maskUnits="userSpaceOnUse" x="0" y="0" width="65" height="64">
<path d="M32.0002 64C49.6734 64 64.0002 49.6731 64.0002 32C64.0002 14.3269 49.6734 0 32.0002 0C14.3271 0 0.000244141 14.3269 0.000244141 32C0.000244141 49.6731 14.3271 64 32.0002 64Z" fill="white"/>
</mask>
<g mask="url(#mask0_16_26)">
<path d="M33.0002 63C49.5688 63 63.0002 49.5685 63.0002 33C63.0002 16.4315 49.5688 3 33.0002 3C16.4317 3 3.00024 16.4315 3.00024 33C3.00024 49.5685 16.4317 63 33.0002 63Z" fill="white"/>
<path d="M45.4939 56.6578C43.6002 58.5469 43.2767 58.6922 40.9846 58.6875C39.1986 58.6828 37.9236 58.3453 36.4002 57.4781C33.9299 56.0719 32.1814 54.5344 32.1814 53.7656C32.1814 53.4656 33.2314 51.075 34.5111 48.4547C35.7908 45.8344 36.6252 43.6922 36.358 43.6922C36.0955 43.6922 34.4174 43.9172 32.6314 44.1938C26.5658 45.1359 20.8517 43.0688 17.5986 38.7563C15.2596 35.6625 14.4767 33.6984 14.0971 30.0094C13.4267 23.4703 16.3002 14.7094 20.5002 10.4906C23.7814 7.19062 26.5658 6 31.0096 6C34.1361 6 35.1533 6.20625 37.1127 7.22344C44.4158 11.0109 49.7127 22.9828 50.3267 37.1109C50.7486 46.7625 49.2252 52.9266 45.4939 56.6578ZM29.7017 36.15C33.8596 38.3438 37.9799 36.6094 40.1783 31.7391C44.4299 22.3312 42.1658 15.5672 34.7736 15.5672C32.0549 15.5672 30.0252 17.0625 28.1596 20.4375C26.4721 23.5031 25.3564 28.3359 25.8017 30.6797C26.2424 33.0188 27.7377 35.1141 29.7017 36.15Z" fill="#020202"/>
</g>
</svg>
