<svg width="62" height="62" viewBox="0 0 62 62" fill="none" xmlns="http://www.w3.org/2000/svg">
<circle cx="31" cy="31" r="31" fill="#F5F5F5"/>
<path d="M32.3654 50.9131C26.7091 50.9952 22.0969 46.1818 22.203 40.6202C22.2479 37.9451 23.3555 35.3957 25.285 33.5265C27.2145 31.6574 29.8099 30.6197 32.5066 30.6392C37.8943 30.6537 42.4052 35.241 42.5025 40.5912C42.6057 46.2591 37.8963 51 32.3654 50.9131ZM40.6816 40.8403C40.7157 36.2462 37.0136 32.496 32.4092 32.4612C27.8049 32.4264 24.0522 36.1207 24.0132 40.7139C23.9893 42.9214 24.85 45.0479 26.406 46.6261C27.962 48.2042 30.0859 49.1047 32.3109 49.1297C36.8647 49.1867 40.6476 45.4403 40.6816 40.8403ZM22.2235 20.2111C22.2145 19.1144 22.4242 18.0267 22.8407 17.0107C23.2571 15.9947 23.872 15.0705 24.6499 14.2912C25.4279 13.512 26.3535 12.8931 27.3735 12.4702C28.3935 12.0473 29.4877 11.8287 30.5932 11.8271C35.1868 11.8184 38.9707 15.5822 38.9775 20.1657C38.9853 24.8149 35.2608 28.5787 30.6399 28.5922C25.9509 28.6047 22.2371 24.9047 22.2235 20.2111ZM24.0638 20.159C24.0555 21.0091 24.2159 21.8525 24.5361 22.6411C24.8563 23.4297 25.3299 24.148 25.9299 24.755C26.5299 25.362 27.2445 25.8458 28.0329 26.1788C28.8214 26.5118 29.6682 26.6875 30.5251 26.6958C31.3819 26.7041 32.2321 26.5449 33.0269 26.2272C33.8218 25.9096 34.5458 25.4397 35.1576 24.8445C35.7694 24.2492 36.2571 23.5402 36.5927 22.758C36.9284 21.9757 37.1054 21.1356 37.1138 20.2854C37.1372 16.6617 34.2467 13.7071 30.6516 13.6781C27.038 13.653 24.0921 16.5497 24.0638 20.159ZM35.545 9.69516C35.5481 9.24419 35.7316 8.81292 36.0552 8.49622C36.2154 8.3394 36.4052 8.21543 36.6137 8.13138C36.8223 8.04734 37.0454 8.00487 37.2705 8.00639C37.4956 8.00791 37.7181 8.0534 37.9255 8.14025C38.1328 8.22711 38.3209 8.35363 38.4789 8.5126C38.637 8.67157 38.762 8.85987 38.8467 9.06675C38.9314 9.27363 38.9742 9.49504 38.9727 9.71833C38.9751 9.94386 38.9322 10.1676 38.8463 10.3764C38.7603 10.5853 38.6332 10.7749 38.4724 10.9343C38.3115 11.0937 38.1202 11.2196 37.9096 11.3046C37.6991 11.3896 37.4735 11.432 37.2462 11.4293C36.2827 11.4225 35.545 10.6694 35.545 9.69516Z" fill="#38B2A7"/>
</svg>
