<svg width="66" height="66" viewBox="0 0 66 66" fill="none" xmlns="http://www.w3.org/2000/svg">
<circle cx="32.9183" cy="32.9183" r="32.9183" fill="#F5F5F5"/>
<path d="M30.0805 35.8563C31.6087 35.8563 32.8489 34.6161 32.8489 33.0878C32.8489 31.5595 31.6087 30.3194 30.0805 30.3194H25.7697C24.2414 30.3194 23.0013 31.5595 23.0013 33.0878C23.0013 34.6161 24.2414 35.8563 25.7697 35.8563H30.0805Z" fill="black"/>
<path d="M42.7387 30.3229H38.428C36.8997 30.3229 35.6595 31.5631 35.6595 33.0913C35.6595 34.6196 36.8997 35.8598 38.428 35.8598H42.7387C44.267 35.8598 45.5072 34.6196 45.5072 33.0913C45.5072 31.5631 44.267 30.3229 42.7387 30.3229Z" fill="black"/>
<path d="M17.9669 35.7466C19.434 35.5085 20.4302 34.1261 20.1921 32.659C19.9539 31.1919 18.5716 30.1957 17.1045 30.4338C15.6374 30.672 14.6412 32.0543 14.8793 33.5214C15.1175 34.9885 16.4998 35.9847 17.9669 35.7466Z" fill="black"/>
<path d="M53.4441 34.1221C54.0128 32.7489 53.3608 31.1747 51.9876 30.6059C50.6145 30.0371 49.0402 30.6892 48.4715 32.0623C47.9027 33.4355 48.5548 35.0097 49.9279 35.5785C51.3011 36.1473 52.8753 35.4952 53.4441 34.1221Z" fill="black"/>
<path d="M33.9486 5.00985C18.3743 4.60231 5.41739 16.8952 5.00985 32.4695C4.60231 48.0437 16.8952 61.0006 32.4695 61.4082C48.0437 61.8157 60.9971 49.5228 61.4082 33.9486C61.8157 18.3743 49.5228 5.41739 33.9486 5.00985ZM58.4957 33.8713C58.1303 47.84 46.512 58.8611 32.5468 58.4957C25.4254 58.3095 19.0734 55.1932 14.601 50.3344H19.1718C20.5771 50.3344 21.7154 49.1961 21.7154 47.7908V47.3446C21.7154 45.9393 20.5771 44.801 19.1718 44.801H10.7224C8.82876 41.1367 7.8064 36.9594 7.92234 32.5468C8.28772 18.5816 19.9061 7.55696 33.8713 7.92234C42.3488 8.14367 49.7371 12.5177 54.1568 19.0383H19.3123C17.7841 19.0383 16.5439 20.2785 16.5439 21.8067C16.5439 23.335 17.7841 24.5752 19.3123 24.5752H56.985C58.039 27.4701 58.5835 30.6074 58.4957 33.8748V33.8713Z" fill="black"/>
<path d="M31.4787 44.801H27.168C25.6397 44.801 24.3995 46.0412 24.3995 47.5695C24.3995 49.0977 25.6397 50.3379 27.168 50.3379H31.4787C33.007 50.3379 34.2472 49.0977 34.2472 47.5695C34.2472 46.0412 33.007 44.801 31.4787 44.801Z" fill="black"/>
<path d="M39.7243 50.2606C41.2106 50.2606 42.4155 49.0557 42.4155 47.5695C42.4155 46.0832 41.2106 44.8783 39.7243 44.8783C38.2381 44.8783 37.0332 46.0832 37.0332 47.5695C37.0332 49.0557 38.2381 50.2606 39.7243 50.2606Z" fill="black"/>
</svg>
