<svg width="66" height="66" viewBox="0 0 66 66" fill="none" xmlns="http://www.w3.org/2000/svg">
<circle cx="32.9183" cy="32.9183" r="32.9183" fill="#F5F5F5"/>
<path fill-rule="evenodd" clip-rule="evenodd" d="M53.3894 12H46.9998C44.0471 12 41.6752 14.3949 41.6752 17.3533V22.6596H48.1132C51.0175 22.6596 53.3894 20.2647 53.3894 17.3533V12Z" fill="#2CB0AF"/>
<path fill-rule="evenodd" clip-rule="evenodd" d="M26.8193 12H33.2088C36.1616 12 38.5334 14.3949 38.5334 17.3533V22.6596H32.0955C29.1912 22.6596 26.8193 20.2647 26.8193 17.3533V12Z" fill="#2CB0AF"/>
<path fill-rule="evenodd" clip-rule="evenodd" d="M12 25.7551H18.3895C21.3423 25.7551 23.7142 28.15 23.7142 31.1084V36.4147H17.2762C14.3719 36.4147 12 34.0198 12 31.1084V25.7551Z" fill="#F9AE41"/>
<path fill-rule="evenodd" clip-rule="evenodd" d="M12 39.5101H18.3895C21.3423 39.5101 23.7142 41.905 23.7142 44.8634V50.1698H17.2762C14.3719 50.1698 12 47.7749 12 44.8634V39.5101Z" fill="#F9AE41"/>
<path fill-rule="evenodd" clip-rule="evenodd" d="M26.8193 25.7551H33.2088C36.1616 25.7551 38.5334 28.15 38.5334 31.1084V36.4147H32.0955C29.1912 36.4147 26.8193 34.0198 26.8193 31.1084V25.7551Z" fill="#D2D2D2"/>
<path fill-rule="evenodd" clip-rule="evenodd" d="M53.3894 25.7551H46.9998C44.0471 25.7551 41.6752 28.15 41.6752 31.1084V36.4147H48.1132C51.0175 36.4147 53.3894 34.0198 53.3894 31.1084V25.7551Z" fill="#D2D2D2"/>
<path fill-rule="evenodd" clip-rule="evenodd" d="M26.8193 39.5101H33.2088C36.1616 39.5101 38.5334 41.905 38.5334 44.8634V50.1698H32.0955C29.1912 50.1698 26.8193 47.7749 26.8193 44.8634V39.5101Z" fill="#D2D2D2"/>
<path fill-rule="evenodd" clip-rule="evenodd" d="M53.3894 39.5101H46.9998C44.0471 39.5101 41.6752 41.905 41.6752 44.8634V50.1698H48.1132C51.0175 50.1698 53.3894 47.7749 53.3894 44.8634V39.5101Z" fill="#D2D2D2"/>
</svg>
