<svg width="66" height="66" viewBox="0 0 66 66" fill="none" xmlns="http://www.w3.org/2000/svg">
<circle cx="32.9183" cy="32.9183" r="32.9183" fill="#F5F5F5"/>
<g clip-path="url(#clip0_400_2)">
<path d="M35.9105 24.6119C32.6875 24.6119 30.0654 27.1971 30.0654 30.3752C30.0654 33.5532 32.6875 36.1381 35.9105 36.1381C39.1335 36.1381 41.7559 33.5529 41.7559 30.3752C41.7559 27.1975 39.1332 24.6119 35.9105 24.6119ZM35.9105 33.9771C33.896 33.9771 32.2572 32.361 32.2572 30.3752C32.2572 28.3893 33.896 26.7732 35.9105 26.7732C37.925 26.7732 39.5638 28.389 39.5638 30.3752C39.5638 32.3613 37.9253 33.9771 35.9105 33.9771Z" fill="black"/>
<path d="M27.8404 24.6344C27.6407 24.6123 27.4401 24.6007 27.2394 24.5994C27.1394 24.5994 27.0437 24.6023 26.9457 24.6039C26.8477 24.6055 26.7503 24.6146 26.6526 24.6204C26.2588 24.6509 25.869 24.7174 25.4878 24.8186C24.7217 25.0226 23.9832 25.3774 23.3447 25.8814C22.6967 26.3906 22.1776 27.0409 21.8279 27.7816C21.6536 28.1507 21.525 28.5393 21.4447 28.9385C21.4049 29.1357 21.3756 29.3348 21.3572 29.5353C21.3506 29.6348 21.3391 29.7347 21.3378 29.834L21.3342 29.9828L21.3325 30.0574V30.119L21.3375 32.0491L21.3424 33.9791L21.3559 35.9089H23.548L23.5618 33.9791L23.5667 32.0488L23.5717 30.1187V30.0597L23.5733 30.0136L23.5759 29.9212C23.5759 29.8593 23.5852 29.7996 23.5888 29.7383C23.6006 29.6183 23.6187 29.4989 23.643 29.3809C23.6911 29.1487 23.7661 28.9226 23.8661 28.7073C24.0677 28.2753 24.3687 27.8958 24.7453 27.5984C25.1256 27.2961 25.5812 27.0704 26.0736 26.9361C26.3227 26.869 26.5776 26.8246 26.8348 26.8038C26.9 26.8002 26.9648 26.7941 27.0302 26.7918C27.0957 26.7895 27.1625 26.7876 27.2259 26.7879C27.3519 26.7879 27.4759 26.796 27.6016 26.8074C28.1009 26.857 28.5848 27.0081 29.022 27.251L30.1161 25.3777C29.4171 24.9772 28.6424 24.7246 27.8404 24.6344Z" fill="black"/>
<path d="M13.8454 24.5831C10.622 24.5831 8 27.1683 8 30.346C8 33.5238 10.622 36.1093 13.8454 36.1093H15.7678V33.948H13.8454C11.8309 33.948 10.1921 32.3322 10.1921 30.346C10.1921 28.3599 11.8309 26.7441 13.8454 26.7441C15.8599 26.7441 17.5072 28.3599 17.5072 30.346V35.6536C17.5072 37.6268 15.8776 39.2338 13.8812 39.2546C12.926 39.2468 12.0125 38.8683 11.3388 38.2005L9.78882 39.7288C10.8632 40.7935 12.3188 41.3993 13.8418 41.4156V41.4165C13.8549 41.4165 13.8681 41.4165 13.8809 41.4165H13.922V41.4156C17.0993 41.3731 19.672 38.8193 19.6868 35.6796L19.6888 30.2046C19.6125 27.0924 17.0204 24.5831 13.8454 24.5831Z" fill="black"/>
<path d="M48.8167 24.6119C45.5937 24.6119 42.9717 27.1971 42.9717 30.3752C42.9717 33.5532 45.5937 36.1381 48.8167 36.1381H50.8167V33.9771H48.8167C46.8023 33.9771 45.1635 32.361 45.1635 30.3752C45.1635 28.3893 46.8023 26.7732 48.8167 26.7732C50.7243 26.7732 52.2944 28.2223 52.4556 30.0629H52.4523V41.1288H54.6444V30.3752C54.6437 27.1971 52.0398 24.6119 48.8167 24.6119Z" fill="black"/>
<path d="M57.9944 24.9049H57.6819L57.2556 25.5578L56.8155 24.9049H56.5V26.0673H56.8523V25.5017L57.1648 25.9583H57.3352L57.6421 25.4874L57.6477 26.0673H58L57.9944 24.9049Z" fill="black"/>
<path d="M55.2102 25.1825H55.5938V26.0673H55.9803V25.1825H56.3665V24.9049H55.2102V25.1825Z" fill="black"/>
</g>
<defs>
<clipPath id="clip0_400_2">
<rect width="50" height="18" fill="white" transform="translate(8 24)"/>
</clipPath>
</defs>
</svg>
