<svg width="66" height="66" viewBox="0 0 66 66" fill="none" xmlns="http://www.w3.org/2000/svg">
<circle cx="32.9183" cy="32.9183" r="32.9183" fill="#F5F5F5"/>
<path d="M48.684 41.3635H49.0797V43.3417H50.2665V42.4845H50.4644V43.3417H51.849V41.3635H52.2447V43.3417H53.4316V42.4845H53.6294V43.3417H55.0141V41.3635H55.4097V43.3417H56.5966V42.4845H56.7944V43.3417H58.1791V41.3635H58.5747V43.3417H59.7616V42.4845H59.9594V43.3417H61.3441V41.3635H61.8057V43.3417H62.9266V42.4845H63.1244V43.3417H64.1135V38.3963H2V43.3417H2.59344V42.4845H2.79126V43.3417H4.24189V41.3635H4.63752V43.3417H5.8244V42.4845H6.02221V43.3417H7.34097V42.4845H7.40691V41.3635H7.80254V43.3417H8.98942V42.4845H9.18723V43.3417H10.5719V41.3635H10.9676V43.3417H12.1544V42.4845H12.3522V43.3417H13.7369V41.3635H14.1326V43.3417H15.3195V42.4845H15.5173V43.3417H16.902V41.3635H17.3635V43.3417H18.4845V42.4845H18.6823V43.3417H20.067V41.3635H20.5285V43.3417H21.6495V42.4845H21.8473V43.3417H23.232V41.3635H23.6936V43.3417H24.8145V42.4845H25.0783V43.3417H26.463V41.3635H26.8586V43.3417H28.0455V42.4845H28.2433V43.3417H29.628V41.3635H30.0236V43.3417H31.2105V42.4845H31.4083V43.3417H32.793V41.3635H33.1886V43.3417H34.3755V42.4845H34.5733V43.3417H35.958V41.3635H36.3536V43.3417H37.5405V42.4845H37.7383V43.3417H39.123V41.3635H39.5846V43.3417H40.7055V42.4845H40.9034V43.3417H42.2881V41.3635H42.7496V43.3417H43.8706V42.4845H44.0684V43.3417H45.4531V41.3635H45.9146V43.3417H46.9696V42.4845H47.1675V43.3417H48.684V41.3635Z" fill="#DCE7F2"/>
<path d="M49.0797 41.3635H48.684V43.3417H49.0797V41.3635Z" fill="white"/>
<path d="M45.9146 41.3635H45.4531V43.3417H45.9146V41.3635Z" fill="white"/>
<path d="M52.2447 41.3635H51.8491V43.3417H52.2447V41.3635Z" fill="white"/>
<path d="M61.8057 41.3635H61.3441V43.3417H61.8057V41.3635Z" fill="white"/>
<path d="M58.5747 41.3635H58.1791V43.3417H58.5747V41.3635Z" fill="white"/>
<path d="M55.4097 41.3635H55.0141V43.3417H55.4097V41.3635Z" fill="white"/>
<path d="M62.9266 43.3417H63.1244V42.4845H62.9266V43.3417Z" fill="white"/>
<path d="M59.7615 43.3417H59.9594V42.4845H59.7615V43.3417Z" fill="white"/>
<path d="M56.5966 43.3417H56.7944V42.4845H56.5966V43.3417Z" fill="white"/>
<path d="M53.6294 43.3417V42.4845H53.4316V43.3417H53.6294Z" fill="white"/>
<path d="M50.2665 43.3417H50.4644V42.4845H50.2665V43.3417Z" fill="white"/>
<path d="M46.9697 43.3417H47.1675V42.4845H46.9697V43.3417Z" fill="white"/>
<path d="M17.3635 41.3635H16.902V43.3417H17.3635V41.3635Z" fill="white"/>
<path d="M14.1326 41.3635H13.7369V43.3417H14.1326V41.3635Z" fill="white"/>
<path d="M26.8586 41.3635H26.463V43.3417H26.8586V41.3635Z" fill="white"/>
<path d="M23.6936 41.3635H23.232V43.3417H23.6936V41.3635Z" fill="white"/>
<path d="M20.5286 41.3635H20.067V43.3417H20.5286V41.3635Z" fill="white"/>
<path d="M36.3536 41.3635H35.958V43.3417H36.3536V41.3635Z" fill="white"/>
<path d="M33.1886 41.3635H32.793V43.3417H33.1886V41.3635Z" fill="white"/>
<path d="M30.0236 41.3635H29.628V43.3417H30.0236V41.3635Z" fill="white"/>
<path d="M42.7496 41.3635H42.2881V43.3417H42.7496V41.3635Z" fill="white"/>
<path d="M39.5846 41.3635H39.123V43.3417H39.5846V41.3635Z" fill="white"/>
<path d="M10.9675 41.3635H10.5719V43.3417H10.9675V41.3635Z" fill="white"/>
<path d="M7.80251 41.3635H7.40688V42.4845H7.34094V43.3417H7.80251V41.3635Z" fill="white"/>
<path d="M4.63751 41.3635H4.24188V43.3417H4.63751V41.3635Z" fill="white"/>
<path d="M9.18725 43.3417V42.4845H8.98944V43.3417H9.18725Z" fill="white"/>
<path d="M6.02228 43.3417V42.4845H5.82446V43.3417H6.02228Z" fill="white"/>
<path d="M2.59344 43.3417H2.79126V42.4845H2.59344V43.3417Z" fill="white"/>
<path d="M43.8706 43.3417H44.0684V42.4845H43.8706V43.3417Z" fill="white"/>
<path d="M40.9033 43.3417V42.4845H40.7055V43.3417H40.9033Z" fill="white"/>
<path d="M37.5405 43.3417H37.7383V42.4845H37.5405V43.3417Z" fill="white"/>
<path d="M34.3755 43.3417H34.5733V42.4845H34.3755V43.3417Z" fill="white"/>
<path d="M31.2105 43.3417H31.4083V42.4845H31.2105V43.3417Z" fill="white"/>
<path d="M28.0455 42.4845V43.3417H28.2433V42.4845H28.0455Z" fill="white"/>
<path d="M24.8145 43.3417H25.0783V42.4845H24.8145V43.3417Z" fill="white"/>
<path d="M21.6495 43.3417H21.8473V42.4845H21.6495V43.3417Z" fill="white"/>
<path d="M18.4844 43.3417H18.6822V42.4845H18.4844V43.3417Z" fill="white"/>
<path d="M15.5173 43.3417V42.4845H15.3195V43.3417H15.5173Z" fill="white"/>
<path d="M12.1544 43.3417H12.3522V42.4845H12.1544V43.3417Z" fill="white"/>
<path d="M13.1435 38.3963H11.7588L11.4291 36.9457C10.3082 38.2644 9.25317 38.6601 7.80254 38.6601C4.17595 38.6601 2 35.7588 2 32.33C2 28.9013 4.17595 26 7.80254 26C10.4401 26 12.6819 27.3847 13.0116 30.1541H10.9676C10.7697 28.5716 9.38504 27.7144 7.86847 27.7144C5.29689 27.7144 4.17595 30.0222 4.17595 32.33C4.17595 34.6379 5.23096 36.9457 7.86847 36.9457C10.0444 37.0116 11.2313 35.6929 11.2313 33.6488H8.00035V32.0003H13.1435V38.3963Z" fill="#4499D4"/>
<path d="M12.8798 26.2637H22.7045V28.11H18.8801V38.3963H16.7701V28.11H12.9457V26.2637H12.8798Z" fill="#4499D4"/>
<path d="M20.8582 29.6266H22.7045V30.8794H22.7704C23.3639 30.0222 24.0892 29.4288 25.4739 29.4288C26.5289 29.4288 27.5179 29.8903 27.9136 30.8794C28.5729 29.9563 29.3642 29.4288 30.683 29.4288C32.5292 29.4288 33.6502 30.22 33.6502 32.396V38.4623H31.738V33.3191C31.738 31.9344 31.672 30.9453 30.1555 30.9453C28.8367 30.9453 28.3092 31.8025 28.3092 33.2532V38.3963H26.397V32.7257C26.397 31.5388 26.0014 30.8794 24.8804 30.8794C23.8914 30.8794 22.9682 31.6707 22.9682 33.1213V38.3304H21.056V29.6266H20.8582Z" fill="#84B1DF"/>
<path d="M35.8921 34.506C35.8921 35.8907 36.6174 37.0776 38.2659 37.0776C39.3868 37.0776 40.0462 36.616 40.3759 35.6269H42.2222C41.8265 37.5391 40.1781 38.5941 38.2659 38.5941C35.4965 38.5941 33.9799 36.6819 33.9799 33.9785C33.9799 31.4728 35.6284 29.3628 38.1999 29.3628C40.9693 29.3628 42.6837 31.8685 42.354 34.506H35.8921ZM40.4418 33.2532C40.3759 32.0003 39.5187 30.9453 38.2659 30.9453C36.9471 30.9453 36.024 31.9344 35.9581 33.2532H40.4418Z" fill="#84B1DF"/>
<path d="M41.6947 29.6266H43.1453V26.9891H45.0575V29.6266H46.7719V31.0772H45.0575V35.7588C45.0575 36.5501 45.1234 36.9457 45.9806 36.9457C46.2444 36.9457 46.5081 36.9457 46.7719 36.8798V38.3304C46.3763 38.3963 45.9147 38.4623 45.5191 38.4623C43.475 38.4623 43.1453 37.671 43.0794 36.2204V31.0772H41.6287V29.6266H41.6947Z" fill="#84B1DF"/>
<path d="M47.2334 29.6266H49.0797V31.341H49.1456C49.3434 30.4178 50.5303 29.6266 51.7172 29.6266C51.9809 29.6266 52.1787 29.6266 52.4425 29.6925V31.341C52.1787 31.275 51.915 31.275 51.5853 31.275C50.2665 31.275 49.2115 32.33 49.2115 34.3082V38.4623H47.2993L47.2334 29.6266Z" fill="#84B1DF"/>
<path d="M52.8381 26.2637H54.7503V28.11H52.8381V26.2637ZM52.8381 29.6266H54.7503V38.3963H52.8381V29.6266Z" fill="#84B1DF"/>
<path d="M58.4428 33.7807L55.4097 29.6266H57.7175L59.5638 32.33L61.476 29.6266H63.7179L60.7507 33.6488L64.1135 38.3963H61.8057L59.5638 35.1654L57.3878 38.3963H55.1459L58.4428 33.7807Z" fill="#84B1DF"/>
</svg>
