<svg width="66" height="66" viewBox="0 0 66 66" fill="none" xmlns="http://www.w3.org/2000/svg">
<circle cx="32.9183" cy="32.9183" r="32.9183" fill="#F5F5F5"/>
<path d="M24.867 14.2615C25.7772 13.8716 27.4836 13.4014 28.7236 13.2064C29.6565 13.0459 30.6917 13.0115 33.4447 13H46.7194H54C53.479 19.3049 47.7747 19.3459 46.7194 19.4565C45.6643 19.5671 37.4833 19.4565 37.4833 19.4565C30.1797 19.5482 29.2242 19.6629 27.0058 20.6033C23.8546 21.945 21.477 24.2157 19.9753 27.312C19.0766 29.1583 18.8718 30.0185 18.758 32.5643C18.5874 35.913 19.6226 38.8373 21.9547 41.6813C23.1606 43.1492 25.6179 44.835 27.5291 45.5002C29.1331 46.0621 29.554 46.1309 31.4539 46.1997C33.092 46.257 33.4788 46.2341 34.5027 46.0162C35.811 45.741 37.0055 45.2937 38.3365 44.5827C40.6686 43.3327 42.6822 41.1538 43.8653 38.6079C44.9802 36.1997 45.3898 32.874 44.7072 31.7845C44.5593 31.5437 44.2863 31.2455 44.1042 31.1194C43.3534 30.5689 43.2624 30.5689 37.0737 30.6263L31.2605 30.695L30.7827 31.0161C30.521 31.1882 30.157 31.5781 29.9636 31.8648C29.5313 32.5643 29.5313 33.1377 29.9522 33.9749C30.2025 34.4909 30.3618 34.6515 30.8737 34.9038L31.4994 35.2249H35.9702H40.4411V35.5001C40.4411 35.8098 39.8723 37.1056 39.4286 37.8052C37.6425 40.6378 34.2411 42.2777 30.9875 41.8763C28.7918 41.6126 27.0399 40.7639 25.561 39.2501C24.1731 37.8396 23.3654 36.2455 23.081 34.3648C22.5918 31.1882 23.8205 27.9313 26.2094 26.0161C27.3926 25.0872 28.2117 24.6514 29.5313 24.2616L30.6007 23.9405L36.8576 23.9748C40.498 23.9863 43.4216 24.0436 43.8539 24.1239C44.8096 24.273 46.0837 24.6514 46.5842 24.9381C47.6081 25.5115 48.029 25.7753 48.2907 26.0161C48.4499 26.1652 48.5979 26.2799 48.6434 26.2799C48.7685 26.2799 49.5079 27.0253 49.7696 27.4267C49.9175 27.6446 50.0767 27.851 50.1109 27.8854C50.4522 28.1951 51.3622 30.4886 51.5557 31.4978C51.8628 33.1492 51.5329 36.8533 50.8958 38.8603C49.6445 42.8282 47.0165 46.6355 43.9677 48.9176C40.2932 51.6585 36.3456 53 31.9658 53C28.6098 53 25.8454 52.3578 23.0355 50.936C18.212 48.4933 14.6512 44.3649 13.0472 39.3534C12.5125 37.6676 12.3988 37.1859 12.1712 35.5689C11.591 31.3831 12.5011 26.7845 14.6626 23.0688C16.3804 20.0987 18.9173 17.5184 21.841 15.7752C22.99 15.0872 23.2175 14.9725 23.9456 14.6514C24.1618 14.5596 24.5827 14.3876 24.867 14.2615Z" fill="black"/>
</svg>
