<svg width="66" height="66" viewBox="0 0 66 66" fill="none" xmlns="http://www.w3.org/2000/svg">
<ellipse cx="32.9183" cy="33" rx="32.9183" ry="33" fill="#F5F5F5"/>
<g clip-path="url(#clip0_493_12)">
<path fill-rule="evenodd" clip-rule="evenodd" d="M26.9855 13.0193C28.6057 13.2555 30.4269 14.2432 31.8269 13.7938C34.7919 12.8245 36.5766 15.5586 39.0527 15.577C40.5946 15.5844 41.6058 16.8484 43.2299 16.8273C45.1434 16.8225 45.2164 17.1857 45.2986 19.6741C45.3166 20.828 45.7107 21.4715 46.7536 21.6779C48.3831 22.0009 49.4082 22.8474 49.5177 24.655C49.5156 24.8446 49.5697 25.0305 49.6729 25.1886C54.6702 29.5687 52.7388 35.261 52.0707 40.4578C51.5227 44.7579 48.2 47.6278 44.8734 49.9709C42.7578 51.4198 40.259 52.1829 37.7072 52.1593C37.3277 52.0683 36.7923 51.8084 36.6231 51.9557C33.9778 54.5024 31.0904 51.4737 28.3264 52.3772C27.6125 52.6134 26.5649 52.0168 25.7455 51.6448C21.8708 49.8547 18.4671 47.1614 15.8113 43.7838C15.2304 43.0554 14.8147 42.206 14.5939 41.2961C13.9901 38.5477 13.4593 35.7674 13.0334 32.9816C12.9366 32.0469 13.051 31.1021 13.3678 30.219C14.6947 26.3194 15.871 22.3349 18.7671 19.2383C19.2841 18.7031 19.7041 18.0795 20.0078 17.3961C20.593 16.0358 21.3845 15.4955 22.9589 15.5071C24.6242 15.5213 24.9765 12.7431 26.9855 13.0193ZM29.0828 21.7534C28.3505 21.819 27.6227 21.9262 26.9034 22.0746C26.843 22.1578 26.8104 22.2022 26.75 22.2854C26.8268 22.5035 26.8834 22.7278 26.919 22.9556C26.9551 25.1372 26.9998 27.3189 26.9959 29.5009C26.9937 30.8143 26.9879 32.1278 26.9802 33.4413L26.9268 41.322C26.8567 42.0569 27.3476 42.7321 28.0843 42.9143C28.4411 43.0459 28.8386 43.0252 29.1789 42.8572C29.5191 42.6892 29.7704 42.3895 29.871 42.0321C30.5531 40.5949 31.1423 39.1197 31.8018 37.6728C32.4345 36.2853 33.0884 34.9055 33.7779 33.5422C33.8922 33.3164 34.2389 33.192 34.4783 33.0212C34.6521 33.2534 34.9276 33.4667 34.9832 33.7216C35.2478 34.9322 35.4581 36.1528 35.6775 37.3719C35.8232 38.6714 36.2346 39.9296 36.8876 41.0727C37.1241 41.5176 37.5633 41.8278 38.0722 41.9092C38.5811 41.9906 39.0996 41.8336 39.4706 41.4859C39.8736 41.1196 40.2326 40.7102 40.5408 40.2656C40.8167 39.9049 41.0344 39.5055 41.3146 39.0656L41.75 34.9261C41.4629 35.6282 41.2138 36.3444 41.0035 37.0717C40.6738 37.9103 40.3705 38.782 39.3512 39.3657C39.1181 39.0631 38.9327 38.7284 38.8011 38.3728C38.6104 37.3598 38.4796 36.3354 38.374 35.3114C38.2528 34.1368 38.2471 32.9492 38.0724 31.7831C37.9449 30.821 37.1387 30.0783 36.1424 30.005C35.1794 29.9153 34.2618 30.421 33.8474 31.2697C32.8903 33.1944 31.9622 35.1325 31.0363 37.0709C30.5475 38.0937 30.0873 39.1286 29.6142 40.1578C29.5129 40.1336 29.5394 40.14 29.4386 40.1158C29.5408 39.1799 29.6594 38.2448 29.7419 37.3072C29.9344 35.1212 30.1551 32.9363 30.2798 30.7462C30.4245 28.2135 30.4892 25.6764 30.5657 23.1401C30.5944 22.186 30.1039 21.7042 29.0828 21.7534Z" fill="#FF7553"/>
</g>
<defs>
<clipPath id="clip0_493_12">
<rect width="40" height="40" fill="white" transform="translate(13 13)"/>
</clipPath>
</defs>
</svg>
