<svg width="66" height="66" viewBox="0 0 66 66" fill="none" xmlns="http://www.w3.org/2000/svg">
<circle cx="32.9183" cy="32.9183" r="32.9183" fill="#F5F5F5"/>
<path d="M33 30.7928L42.18 22.8406H33C29.73 22.8406 26.55 22.9454 23.46 23.1551C22.8674 23.1942 22.3076 23.441 21.8794 23.852C21.4513 24.263 21.1823 24.8117 21.12 25.4014C20.94 27.3333 20.85 29.7145 20.85 32.0507V33.3986C20.85 35.7348 20.94 38.1159 21.12 40.0029C21.1823 40.5926 21.4513 41.1414 21.8794 41.5524C22.3076 41.9634 22.8674 42.2102 23.46 42.2493C29.82 42.6986 36.18 42.6986 42.54 42.2493C43.1326 42.2102 43.6924 41.9634 44.1206 41.5524C44.5487 41.1414 44.8177 40.5926 44.88 40.0029C45.06 38.2058 45.105 35.9594 45.15 33.758L51 28.6812V33.758C51 36.1391 50.91 38.5203 50.73 40.4522C50.5621 42.4445 49.6843 44.3108 48.2559 45.7122C46.8275 47.1135 44.9432 47.9571 42.945 48.0899C36.3242 48.5831 29.6758 48.5831 23.055 48.0899C21.0568 47.9571 19.1725 47.1135 17.7441 45.7122C16.3156 44.3108 15.4379 42.4445 15.27 40.4522C15.09 38.4304 15 35.9145 15 33.3986V32.0507C15 29.5348 15.135 27.0188 15.27 24.9971C15.4379 23.0047 16.3156 21.1385 17.7441 19.7371C19.1725 18.3357 21.0568 17.4921 23.055 17.3594C26.265 17.1198 29.58 17 33 17H51V22.8406L33 38.4304L24.585 31.1522L28.995 27.3333L33 30.7928Z" fill="#2FC774"/>
</svg>
