<svg width="66" height="66" viewBox="0 0 66 66" fill="none" xmlns="http://www.w3.org/2000/svg">
<circle cx="32.9183" cy="32.9183" r="32.9183" fill="#F5F5F5"/>
<g clip-path="url(#clip0_436_169)">
<path d="M23.5356 45.6023L17.7678 51.3954L12 45.6023H23.5356Z" fill="#383C45"/>
<path d="M31.9774 32.4361C30.7714 31.0142 30.8238 30.2242 31.5579 29.487C32.4493 28.5917 33.3931 28.9603 34.4418 29.9609L31.9774 32.4361ZM44.3519 16.637C45.2433 15.7417 46.1871 16.1103 47.2358 17.1109L44.7714 19.5861C43.513 18.1642 43.5654 17.4269 44.3519 16.637ZM51.7976 19.1648C50.6965 20.8501 48.704 23.5886 46.659 21.5347L51.8501 16.321C51.3782 15.847 51.0635 15.4257 50.7489 15.1624C47.9699 12.3712 44.8238 12.3185 42.3594 14.7937C40.7339 16.4263 40.262 18.3222 40.7339 20.1128L39.1084 18.2695C38.689 18.4802 36.6964 20.2708 38.1646 22.904L36.3295 21.3767L33.8651 23.8519L37.2209 27.2224C34.6515 25.1685 31.8725 25.3791 29.6702 27.591C27.3107 29.9609 27.468 32.8575 29.2507 35.2273L28.8838 34.8587C26.5242 32.4888 23.9549 33.3314 22.6965 34.5954C21.7002 35.5959 21.1234 36.9126 21.3856 37.8605L16.2995 32.7521L13.5729 35.4906L23.6403 45.6021H29.041L25.423 41.9683C23.5354 40.0197 23.483 39.0191 24.4268 38.0712C25.3182 37.1759 26.3668 37.7552 28.2021 39.5457L31.7677 43.1269L34.4418 40.441L31.0336 37.0179C33.498 38.8611 36.4343 38.9664 39.056 36.3333L39.1084 36.2806C40.7339 34.806 41.2058 33.3314 41.2058 33.3314L39.1609 31.9622C38.0598 33.6474 36.1197 36.3859 34.0748 34.332L39.2658 29.1183L42.5167 32.3835L45.3481 29.5396L41.3108 25.4845C39.4231 23.5886 40.5242 21.798 41.3108 21.1134C41.6777 21.9033 42.2021 22.6407 42.8837 23.3253C45.5055 25.9584 48.8613 26.4851 51.8501 23.5359L51.9025 23.4833C53.528 22.0087 53.9999 20.5341 53.9999 20.5341L51.7976 19.1648Z" fill="#383C45"/>
</g>
<defs>
<clipPath id="clip0_436_169">
<rect width="42" height="39" fill="white" transform="translate(12 13)"/>
</clipPath>
</defs>
</svg>
