<svg width="66" height="66" viewBox="0 0 66 66" fill="none" xmlns="http://www.w3.org/2000/svg">
<circle cx="32.9183" cy="32.9183" r="32.9183" fill="#F5F5F5"/>
<path d="M28.6725 57.6013C28.6725 57.6013 12.1366 44.934 9.6159 43.0257C8.21294 41.9632 6.68702 39.4743 7.00522 37.5168C7.24146 36.0613 8.08196 35.3141 9.22056 34.9167C12.7682 33.6786 24.0249 29.791 27.0502 28.8189C28.7183 28.2828 31.3651 28.7734 33.3426 30.3894C34.9087 31.6695 36.1462 33.5452 36.1622 35.9641C36.1984 41.4369 36.4877 54.2449 36.4877 55.8928C36.4877 56.8326 36.0931 58.4261 34.241 58.9844C32.4387 59.5277 30.196 58.7668 28.6725 57.6013Z" fill="url(#paint0_linear_165_187)"/>
<path d="M33.2197 30.4976C34.7858 31.7776 35.9718 33.5587 35.9879 35.9776C36.024 41.4504 36.4876 54.245 36.4876 55.8929C36.4876 54.245 36.3776 41.2189 36.3414 35.7461C36.3061 30.2733 30.3286 27.429 27.3402 28.5091C24.3519 29.5893 12.7682 33.6789 9.22137 34.9168C12.7682 33.6788 24.0811 29.9349 27.1064 28.9626C28.7737 28.4265 31.2422 28.8813 33.2197 30.4976Z" fill="url(#paint1_linear_165_187)"/>
<path d="M33.2197 30.4976C34.7858 31.7776 35.9718 33.5587 35.9879 35.9776C36.024 41.4504 36.4876 54.245 36.4876 55.8929C36.4876 54.245 36.3776 41.2189 36.3414 35.7461C36.3061 30.2733 30.3286 27.429 27.3402 28.5091C24.3519 29.5893 12.7682 33.6789 9.22137 34.9168C12.7682 33.6788 24.0811 29.9349 27.1064 28.9626C28.7737 28.4265 31.2422 28.8813 33.2197 30.4976Z" fill="#AB81E9"/>
<path d="M28.6725 57.6013C28.6725 57.6013 12.1366 44.934 9.6159 43.0257C8.21294 41.9632 6.68702 39.4743 7.00522 37.5168C7.24146 36.0613 8.08196 35.3141 9.22056 34.9167C12.7682 33.6786 24.0249 29.791 27.0502 28.8189C28.7183 28.2828 31.3651 28.7734 33.3426 30.3894C34.9087 31.6695 36.3044 33.5642 36.3318 35.9829C36.3583 38.3651 36.3663 42.1221 36.3961 45.7447C36.4338 50.4608 36.4716 54.9504 36.4692 55.8928C36.4668 56.8326 36.0931 58.4261 34.241 58.9844C32.4387 59.5277 30.196 58.7668 28.6725 57.6013Z" fill="url(#paint2_linear_165_187)"/>
<path d="M33.3314 30.3796C34.8983 31.6581 36.1381 33.5328 36.1566 35.9514C36.1984 41.4243 36.5005 54.2319 36.5013 55.88C36.4997 54.2321 36.3768 41.2061 36.3358 35.7333C36.2948 30.2605 30.3149 27.422 27.3274 28.505C24.3398 29.5881 12.7609 33.689 9.21413 34.9303C12.7609 33.689 24.0136 29.7904 27.0381 28.8151C28.7054 28.2775 31.3523 28.7652 33.3314 30.3796Z" fill="url(#paint3_radial_165_187)"/>
<path d="M33.3314 30.3796C34.8983 31.6581 36.1381 33.5328 36.1566 35.9514C36.1984 41.4243 36.5005 54.2319 36.5013 55.88C36.4997 54.2321 36.3768 41.2061 36.3358 35.7333C36.2948 30.2605 30.3149 27.422 27.3274 28.505C24.3398 29.5881 12.7609 33.689 9.21413 34.9303C12.7609 33.689 24.0136 29.7904 27.0381 28.8151C28.7054 28.2775 31.3523 28.7652 33.3314 30.3796Z" fill="url(#paint4_radial_165_187)"/>
<path d="M28.7569 28.4146C29.5291 28.4146 30.3784 28.5862 31.2141 28.9106C32.0843 29.2486 32.92 29.7471 33.6295 30.3516C34.4105 31.0173 35.0292 31.7925 35.468 32.6563C35.9533 33.6122 36.2032 34.6522 36.2104 35.7471C36.2249 38.0218 36.253 41.6334 36.2803 45.1262C36.3197 50.1682 36.3567 54.9305 36.3567 55.8931C36.3567 56.2267 36.3028 56.8816 35.9445 57.5173C35.5764 58.1698 34.9907 58.6212 34.2032 58.8586C33.8215 58.9735 33.4053 59.0319 32.9658 59.0319C32.2675 59.0319 31.4993 58.8817 30.744 58.5975C30.0329 58.3298 29.3442 57.9491 28.7528 57.4969C28.5881 57.3703 12.188 44.8076 9.69624 42.9209C8.99074 42.3869 8.2748 41.4992 7.78223 40.5466C7.51626 40.0316 7.32341 39.5198 7.21011 39.0248C7.08798 38.4885 7.06226 37.9883 7.13538 37.538C7.24547 36.8651 7.48653 36.3322 7.87223 35.909C8.21695 35.5319 8.67255 35.2481 9.26475 35.0413C12.9152 33.7677 24.3993 29.7124 27.386 28.633C27.787 28.4879 28.2482 28.4146 28.7569 28.4146ZM28.7569 28.2828C28.2418 28.2828 27.7621 28.3571 27.341 28.5092C24.3519 29.5893 12.769 33.6791 9.22136 34.9169C8.08276 35.3143 7.24225 36.0614 7.00521 37.517C6.68781 39.4746 8.21292 41.9634 9.61669 43.0259C12.1366 44.9342 28.6733 57.6015 28.6733 57.6015C29.8521 58.5037 31.4623 59.1636 32.9658 59.1636C33.4045 59.1636 33.8344 59.1074 34.241 58.9847C36.0931 58.4263 36.4885 56.8328 36.4885 55.8931C36.4885 54.2452 36.3784 41.219 36.3422 35.7462C36.3109 31.0444 31.8955 28.2828 28.7569 28.2828Z" fill="url(#paint5_linear_165_187)"/>
<path d="M39.2783 35.3527C39.2783 33.8543 39.8496 31.3943 41.1932 29.487C41.9485 28.4142 42.9007 27.4342 43.8874 26.9853C44.6548 26.6363 45.022 26.5785 45.9324 26.7664C45.9324 26.7664 56.9609 29.1312 57.6334 29.2678C58.306 29.4044 59.0396 29.8608 59.1368 31.2629C59.2349 32.665 58.8653 34.8808 57.296 37.1661C55.7267 39.4513 46.1702 53.2547 44.9697 54.9858C43.7701 56.7169 41.9678 57.8222 40.9441 57.5527C39.6455 57.2106 39.3683 56.014 39.378 55.1883C39.3973 53.6649 39.2775 35.3528 39.2775 35.3528L39.2783 35.3527Z" fill="url(#paint6_linear_165_187)"/>
<path d="M40.9441 57.2983C39.7412 56.9715 39.807 56.0503 39.795 55.1881C39.7741 53.5951 39.6954 35.3527 39.6954 35.3527C39.6954 33.8543 40.212 31.685 41.5555 29.7778C42.3109 28.7048 42.989 27.8935 43.9179 27.3595C44.6483 26.9394 45.3578 26.8406 46.2683 27.0286C46.2683 27.0286 56.9601 29.1312 57.6334 29.2678C56.9609 29.1312 45.9324 26.7664 45.9324 26.7664C45.022 26.5785 44.6548 26.6363 43.8874 26.9853C42.9007 27.4342 41.9485 28.4142 41.1923 29.487C39.8496 31.3943 39.2775 33.8543 39.2775 35.3527C39.2775 35.3527 39.3973 53.6649 39.378 55.1881C39.3683 56.0139 39.6455 57.2105 40.9441 57.5525C41.9678 57.822 43.7693 56.7169 44.9697 54.9857C43.7693 56.7169 41.9653 57.5756 40.9441 57.2983Z" fill="url(#paint7_linear_165_187)"/>
<path d="M40.9441 57.2983C39.7412 56.9715 39.807 56.0503 39.795 55.1881C39.7741 53.5951 39.6954 35.3527 39.6954 35.3527C39.6954 33.8543 40.212 31.685 41.5555 29.7778C42.3109 28.7048 42.989 27.8935 43.9179 27.3595C44.6483 26.9394 45.3578 26.8406 46.2683 27.0286C46.2683 27.0286 56.9601 29.1312 57.6334 29.2678C56.9609 29.1312 45.9324 26.7664 45.9324 26.7664C45.022 26.5785 44.6548 26.6363 43.8874 26.9853C42.9007 27.4342 41.9485 28.4142 41.1923 29.487C39.8496 31.3943 39.2775 33.8543 39.2775 35.3527C39.2775 35.3527 39.3973 53.6649 39.378 55.1881C39.3683 56.0139 39.6455 57.2105 40.9441 57.5525C41.9678 57.822 43.7693 56.7169 44.9697 54.9857C43.7693 56.7169 41.9653 57.5756 40.9441 57.2983Z" fill="#00BA97"/>
<path d="M40.9441 57.2983C39.7412 56.9715 39.807 56.0503 39.795 55.1881C39.7741 53.5951 39.6954 35.3527 39.6954 35.3527C39.6954 33.8543 40.212 31.685 41.5555 29.7778C42.3109 28.7048 42.989 27.8935 43.9179 27.3595C44.6483 26.9394 45.3578 26.8406 46.2683 27.0286C46.2683 27.0286 56.9601 29.1312 57.6334 29.2678C56.9609 29.1312 45.9324 26.7664 45.9324 26.7664C45.022 26.5785 44.6548 26.6363 43.8874 26.9853C42.9007 27.4342 41.9485 28.4142 41.1923 29.487C39.8496 31.3943 39.2775 33.8543 39.2775 35.3527C39.2775 35.3527 39.3973 53.6649 39.378 55.1881C39.3683 56.0139 39.6455 57.2105 40.9441 57.5525C41.9678 57.822 43.7693 56.7169 44.9697 54.9857C43.7693 56.7169 41.9653 57.5756 40.9441 57.2983Z" fill="url(#paint8_radial_165_187)"/>
<path d="M40.9441 57.2983C39.7412 56.9715 39.807 56.0503 39.795 55.1881C39.7741 53.5951 39.6954 35.3527 39.6954 35.3527C39.6954 33.8543 40.212 31.685 41.5555 29.7778C42.3109 28.7048 42.989 27.8935 43.9179 27.3595C44.6483 26.9394 45.3578 26.8406 46.2683 27.0286C46.2683 27.0286 56.9601 29.1312 57.6334 29.2678C56.9609 29.1312 45.9324 26.7664 45.9324 26.7664C45.022 26.5785 44.6548 26.6363 43.8874 26.9853C42.9007 27.4342 41.9485 28.4142 41.1923 29.487C39.8496 31.3943 39.2775 33.8543 39.2775 35.3527C39.2775 35.3527 39.3973 53.6649 39.378 55.1881C39.3683 56.0139 39.6455 57.2105 40.9441 57.5525C41.9678 57.822 43.7693 56.7169 44.9697 54.9857C43.7693 56.7169 41.9653 57.5756 40.9441 57.2983Z" fill="url(#paint9_radial_165_187)"/>
<path d="M45.0975 26.8082C45.3113 26.8082 45.5588 26.8397 45.9011 26.9103C46.0152 26.9348 56.9384 29.2769 57.6037 29.412C57.9717 29.4868 58.2706 29.6477 58.4916 29.8899C58.7801 30.2062 58.948 30.6716 58.9898 31.2729C59.0284 31.8224 59.0091 32.7196 58.6997 33.8724C58.3936 35.011 57.8809 36.1096 57.1746 37.1376C55.6142 39.4094 46.1236 53.1186 44.8484 54.9568C44.3446 55.6836 43.6978 56.3407 43.0276 56.8072C42.384 57.2544 41.7621 57.5006 41.2759 57.5006C41.1698 57.5006 41.071 57.4887 40.9818 57.4651C40.4435 57.3232 40.0457 57.0117 39.8014 56.539C39.566 56.0842 39.521 55.5842 39.525 55.2449C39.5435 53.7393 39.4262 35.6297 39.4246 35.4072C39.4246 34.6036 39.5797 33.6016 39.8496 32.6577C40.1775 31.511 40.6676 30.4552 41.2663 29.605C42.0995 28.4212 43.0774 27.5153 43.9477 27.119C44.3912 26.9173 44.7062 26.8082 45.0975 26.8082ZM45.0975 26.6609C44.6958 26.6609 44.3711 26.7652 43.8874 26.9853C42.9007 27.4341 41.9019 28.4474 41.1457 29.5203C39.803 31.4276 39.2775 33.9094 39.2775 35.4078C39.2775 35.4078 39.3973 53.72 39.378 55.2433C39.3683 56.0689 39.6455 57.2656 40.9441 57.6077C41.0477 57.6349 41.1586 57.6479 41.2759 57.6479C42.3245 57.6479 43.8906 56.5973 44.9697 55.0407C46.1702 53.3095 55.7267 39.5062 57.296 37.221C58.8653 34.9357 59.2349 32.6647 59.1368 31.2626C59.0396 29.8607 58.306 29.4041 57.6334 29.2675C56.9609 29.1309 45.9324 26.7661 45.9324 26.7661C45.5957 26.6965 45.3338 26.6609 45.0975 26.6609Z" fill="url(#paint10_linear_165_187)"/>
<path d="M6 31.2349C6 30.2304 6.66854 28.722 7.54599 27.6717C7.54599 27.6717 20.7577 11.8085 21.6512 10.734C22.5439 9.65951 24.3326 8.27604 25.6986 7.70059C27.0638 7.12514 27.9614 7.26159 28.3712 8.14935C28.781 9.03692 32.2362 16.6194 32.6484 17.5216C33.0381 18.3754 32.9682 19.1254 32.1614 20.7295C31.1401 22.763 28.4226 25.1462 26.5865 25.8161C24.5697 26.5519 9.93329 31.8733 8.40337 32.4281C6.87344 32.9826 6 32.1003 6 31.2349Z" fill="url(#paint11_linear_165_187)"/>
<path d="M32.6476 17.5213C32.2362 16.619 28.781 9.03672 28.3712 8.14915C28.0867 7.53245 27.566 7.27852 26.8179 7.37372C27.4801 7.30264 27.8899 7.57002 28.1687 8.17308C28.5785 9.06066 31.9099 16.2786 32.3093 17.1864C32.6315 17.9192 32.6363 18.6838 31.8907 20.1507C30.9079 22.0842 28.1285 24.6959 26.2932 25.3658C24.2764 26.1017 9.54599 31.5159 8.01526 32.0705C6.48533 32.6252 6.09803 31.9071 6.09803 31.0415C6.09803 30.448 6.29731 29.746 6.64122 29.0544C6.2483 29.8234 6 30.6226 6 31.2348C6 32.1003 6.87344 32.9826 8.40337 32.4277C9.93329 31.8731 24.5697 26.5517 26.5865 25.8157C28.4226 25.1458 31.1393 22.7626 32.1614 20.7291C32.9682 19.125 33.0381 18.3752 32.6484 17.5212L32.6476 17.5213Z" fill="url(#paint12_linear_165_187)"/>
<path d="M32.6476 17.5213C32.2362 16.619 28.781 9.03672 28.3712 8.14915C28.0867 7.53245 27.566 7.27852 26.8179 7.37372C27.4801 7.30264 27.8899 7.57002 28.1687 8.17308C28.5785 9.06066 31.9099 16.2786 32.3093 17.1864C32.6315 17.9192 32.6363 18.6838 31.8907 20.1507C30.9079 22.0842 28.1285 24.6959 26.2932 25.3658C24.2764 26.1017 9.54599 31.5159 8.01526 32.0705C6.48533 32.6252 6.09803 31.9071 6.09803 31.0415C6.09803 30.448 6.29731 29.746 6.64122 29.0544C6.2483 29.8234 6 30.6226 6 31.2348C6 32.1003 6.87344 32.9826 8.40337 32.4277C9.93329 31.8731 24.5697 26.5517 26.5865 25.8157C28.4226 25.1458 31.1393 22.7626 32.1614 20.7291C32.9682 19.125 33.0381 18.3752 32.6484 17.5212L32.6476 17.5213Z" fill="#128414"/>
<path d="M6.09804 31.0416C6.09804 30.0371 6.66855 28.7222 7.54601 27.6716C7.54601 27.6716 20.7585 11.8084 21.6512 10.734C22.544 9.65948 24.3334 8.27601 25.6986 7.70056C27.0646 7.12511 27.7589 7.2855 28.1687 8.17307C28.5785 9.06064 31.9107 16.2785 32.3093 17.1863C32.6315 17.9192 32.6363 18.6838 31.8914 20.1507C30.9087 22.0842 28.1293 24.6959 26.2932 25.3658C24.2764 26.1017 9.54601 31.5158 8.01608 32.0705C6.48535 32.6251 6.09885 31.9071 6.09885 31.0415L6.09804 31.0416Z" fill="url(#paint13_linear_165_187)"/>
<path d="M32.6476 17.5213C32.2362 16.619 28.781 9.03672 28.3712 8.14915C28.0867 7.53245 27.566 7.27852 26.8179 7.37372C27.4801 7.30264 27.8899 7.57002 28.1687 8.17308C28.5785 9.06066 31.9099 16.2786 32.3093 17.1864C32.6315 17.9192 32.6363 18.6838 31.8907 20.1507C30.9079 22.0842 28.1285 24.6959 26.2932 25.3658C24.2764 26.1017 9.54599 31.5159 8.01526 32.0705C6.48533 32.6252 6.09803 31.9071 6.09803 31.0415C6.09803 30.448 6.29731 29.746 6.64122 29.0544C6.2483 29.8234 6 30.6226 6 31.2348C6 32.1003 6.87344 32.9826 8.40337 32.4277C9.93329 31.8731 24.5697 26.5517 26.5865 25.8157C28.4226 25.1458 31.1393 22.7626 32.1614 20.7291C32.9682 19.125 33.0381 18.3752 32.6484 17.5212L32.6476 17.5213Z" fill="url(#paint14_radial_165_187)"/>
<path d="M32.6476 17.5213C32.2362 16.619 28.781 9.03672 28.3712 8.14915C28.0867 7.53245 27.566 7.27852 26.8179 7.37372C27.4801 7.30264 27.8899 7.57002 28.1687 8.17308C28.5785 9.06066 31.9099 16.2786 32.3093 17.1864C32.6315 17.9192 32.6363 18.6838 31.8907 20.1507C30.9079 22.0842 28.1285 24.6959 26.2932 25.3658C24.2764 26.1017 9.54599 31.5159 8.01526 32.0705C6.48533 32.6252 6.09803 31.9071 6.09803 31.0415C6.09803 30.448 6.29731 29.746 6.64122 29.0544C6.2483 29.8234 6 30.6226 6 31.2348C6 32.1003 6.87344 32.9826 8.40337 32.4277C9.93329 31.8731 24.5697 26.5517 26.5865 25.8157C28.4226 25.1458 31.1393 22.7626 32.1614 20.7291C32.9682 19.125 33.0381 18.3752 32.6484 17.5212L32.6476 17.5213Z" fill="#128414"/>
<path d="M27.1104 7.53843C27.6327 7.53843 27.9453 7.79713 28.159 8.26007C28.4901 8.9773 30.8428 14.0061 31.9517 16.4388C32.2113 17.0075 32.4017 17.4251 32.4804 17.5978C32.6741 18.0228 32.7311 18.388 32.6709 18.8185C32.605 19.2866 32.3969 19.8504 31.9967 20.6467C31.7557 21.1262 31.4125 21.639 30.9754 22.1709C30.56 22.6761 30.0827 23.1728 29.5564 23.6471C28.5021 24.5969 27.3965 25.3245 26.5238 25.6429C24.5857 26.35 9.9349 31.6767 8.34069 32.2547C8.04418 32.3623 7.76214 32.4167 7.5026 32.4167C7.10244 32.4167 6.76255 32.2873 6.51908 32.0424C6.30614 31.8277 6.18401 31.5334 6.18401 31.235C6.18401 30.7775 6.33587 30.177 6.61229 29.5441C6.8887 28.9116 7.27038 28.2887 7.68741 27.7894C7.82 27.6309 20.9096 11.9137 21.7926 10.8515C22.2201 10.3372 22.8814 9.72679 23.6086 9.17694C24.3696 8.60094 25.137 8.13671 25.7701 7.87026C26.2924 7.65002 26.7432 7.53843 27.1104 7.53843ZM27.1104 7.35429C26.7151 7.35429 26.2442 7.47049 25.6986 7.70066C24.3326 8.27611 22.544 9.65958 21.6504 10.7341C20.7577 11.8085 7.54599 27.6718 7.54599 27.6718C6.66854 28.7221 6 30.2302 6 31.235C6 31.9128 6.53596 32.6009 7.50341 32.6009C7.77099 32.6009 8.07151 32.5483 8.40337 32.428C9.93329 31.8734 24.5697 26.552 26.5865 25.8161C28.4226 25.1462 31.1393 22.7631 32.1614 20.7296C32.9682 19.1255 33.0381 18.3756 32.6484 17.5216C32.237 16.6193 28.781 9.03699 28.3712 8.14941C28.1253 7.6165 27.7034 7.35429 27.1104 7.35429Z" fill="url(#paint15_linear_165_187)"/>
<path d="M31.8698 8.2736C31.6086 7.71414 31.5709 7.56713 31.7179 7.35855C31.8649 7.14998 31.922 6.90338 32.6468 7.04569C33.3724 7.188 34.9344 7.80521 37.6086 9.79028C40.2828 11.7754 52.0633 20.5351 53.9227 21.9137C55.7813 23.2922 57.1328 24.782 57.3972 25.4201C57.6109 25.9196 57.5121 26.0257 57.3643 26.2017C57.2405 26.3497 57.1602 26.5035 56.7311 26.4599C56.7311 26.4599 55.1995 26.1263 53.39 25.7056C51.5796 25.2848 46.9987 24.2336 44.7825 23.7177C42.5672 23.2016 40.0795 21.3444 39.202 20.6452C38.6186 20.1808 37.7211 19.456 36.7994 18.3481C36.4274 17.9015 36.1751 17.459 35.8448 16.7377C34.8412 14.5448 31.8698 8.2736 31.8698 8.2736Z" fill="url(#paint16_radial_165_187)"/>
<path d="M57.2421 25.1877C57.3185 25.4038 57.3618 25.7987 57.2518 25.9044C57.1505 26.0015 56.9649 25.9644 56.6282 25.8858C56.6282 25.8858 55.3385 25.5247 53.529 25.104C51.7186 24.6832 47.1345 23.5722 44.9191 23.0563C42.703 22.5403 40.5094 20.777 39.6319 20.0778C39.0485 19.6133 38.3478 19.0541 37.4262 17.9462C37.0541 17.4995 36.4957 16.4563 36.1526 15.7413C35.1024 13.5549 32.2892 7.97196 32.2892 7.97196C32.0281 7.41251 32.0747 7.25101 32.2008 7.14382C32.2627 7.09078 32.4017 7.07738 32.7424 7.1355C33.4479 7.25589 34.8444 7.77172 37.3619 9.60851C34.838 7.76701 33.3499 7.18348 32.6468 7.04569C31.922 6.90338 31.8649 7.14998 31.7179 7.35855C31.5709 7.56713 31.6086 7.71414 31.8698 8.2736C31.8698 8.2736 34.8412 14.5445 35.8448 16.7375C36.1751 17.4588 36.4274 17.9013 36.7994 18.348C37.7219 19.4558 38.6194 20.1806 39.202 20.645C40.0795 21.3442 42.5672 23.2015 44.7833 23.7174C46.9987 24.2335 51.5796 25.2846 53.39 25.7055C55.2003 26.1262 56.7311 26.4597 56.7311 26.4597C57.1602 26.5034 57.2405 26.3494 57.3643 26.2016C57.5121 26.0253 57.4567 25.6872 57.2421 25.1877Z" fill="url(#paint17_radial_165_187)"/>
<path d="M57.2421 25.1877C57.3185 25.4038 57.3618 25.7987 57.2518 25.9044C57.1505 26.0015 56.9649 25.9644 56.6282 25.8858C56.6282 25.8858 55.3385 25.5247 53.529 25.104C51.7186 24.6832 47.1345 23.5722 44.9191 23.0563C42.703 22.5403 40.5094 20.777 39.6319 20.0778C39.0485 19.6133 38.3478 19.0541 37.4262 17.9462C37.0541 17.4995 36.4957 16.4563 36.1526 15.7413C35.1024 13.5549 32.2892 7.97196 32.2892 7.97196C32.0281 7.41251 32.0747 7.25101 32.2008 7.14382C32.2627 7.09078 32.4017 7.07738 32.7424 7.1355C33.4479 7.25589 34.8444 7.77172 37.3619 9.60851C34.838 7.76701 33.3499 7.18348 32.6468 7.04569C31.922 6.90338 31.8649 7.14998 31.7179 7.35855C31.5709 7.56713 31.6086 7.71414 31.8698 8.2736C31.8698 8.2736 34.8412 14.5445 35.8448 16.7375C36.1751 17.4588 36.4274 17.9013 36.7994 18.348C37.7219 19.4558 38.6194 20.1806 39.202 20.645C40.0795 21.3442 42.5672 23.2015 44.7833 23.7174C46.9987 24.2335 51.5796 25.2846 53.39 25.7055C55.2003 26.1262 56.7311 26.4597 56.7311 26.4597C57.1602 26.5034 57.2405 26.3494 57.3643 26.2016C57.5121 26.0253 57.4567 25.6872 57.2421 25.1877Z" fill="#0079FF"/>
<g filter="url(#filter0_i_165_187)">
<path d="M32.0827 8.02805C31.8215 7.46859 31.8336 7.22109 31.9598 7.11391C32.0216 7.06086 32.4113 7.01885 32.748 7.09453C33.4808 7.25911 34.9352 7.80517 37.6094 9.79024C40.2836 11.7753 51.9878 20.5706 53.8464 21.9492C55.7058 23.3277 57.0067 24.7432 57.2711 25.3812C57.3474 25.5974 57.4792 25.9373 57.3683 26.043C57.267 26.1401 57.1425 26.1544 56.8058 26.0758C56.8058 26.0758 55.2622 25.6719 53.4518 25.2511C51.6415 24.8303 47.128 23.7488 44.9119 23.2328C42.6958 22.7167 40.4668 20.9367 39.5893 20.2374C39.0059 19.773 38.2128 19.171 37.2912 18.0631C36.9191 17.6165 36.474 17.1772 36.1438 16.4559C35.1401 14.263 32.0819 8.02822 32.0819 8.02822L32.0827 8.02805Z" fill="url(#paint18_linear_165_187)"/>
<path d="M32.0827 8.02805C31.8215 7.46859 31.8336 7.22109 31.9598 7.11391C32.0216 7.06086 32.4113 7.01885 32.748 7.09453C33.4808 7.25911 34.9352 7.80517 37.6094 9.79024C40.2836 11.7753 51.9878 20.5706 53.8464 21.9492C55.7058 23.3277 57.0067 24.7432 57.2711 25.3812C57.3474 25.5974 57.4792 25.9373 57.3683 26.043C57.267 26.1401 57.1425 26.1544 56.8058 26.0758C56.8058 26.0758 55.2622 25.6719 53.4518 25.2511C51.6415 24.8303 47.128 23.7488 44.9119 23.2328C42.6958 22.7167 40.4668 20.9367 39.5893 20.2374C39.0059 19.773 38.2128 19.171 37.2912 18.0631C36.9191 17.6165 36.474 17.1772 36.1438 16.4559C35.1401 14.263 32.0819 8.02822 32.0819 8.02822L32.0827 8.02805Z" fill="url(#paint19_linear_165_187)" fill-opacity="0.2"/>
</g>
<path d="M57.1336 25.1877C57.2092 25.4039 57.2534 25.7988 57.1425 25.9045C57.0412 26.0015 56.8564 25.9644 56.5189 25.8859C56.5189 25.8859 55.2293 25.5248 53.4197 25.104C51.6094 24.6833 47.0252 23.5723 44.8099 23.0563C42.5937 22.5403 40.4009 20.7771 39.5226 20.0778C38.94 19.6134 38.2755 18.9455 37.3531 17.8377C36.981 17.391 36.4411 16.4564 36.098 15.7414C35.0477 13.555 32.2522 7.97202 32.2522 7.97202C31.9919 7.41256 31.9654 7.25107 32.0915 7.14388C32.1534 7.09083 32.2924 7.07744 32.6331 7.13555C33.3394 7.25595 34.7352 7.77177 37.2526 9.60856C34.7287 7.76707 33.243 7.17267 32.5383 7.04575C31.9019 6.93114 31.8569 7.19023 31.7026 7.40659C31.5837 7.57298 31.6086 7.71439 31.8698 8.27384C31.8698 8.27384 34.7737 14.3971 35.7773 16.59C36.1076 17.3113 36.4274 17.9014 36.7994 18.348C37.7219 19.4559 38.5415 20.1069 39.1249 20.5714C40.0023 21.2706 42.4579 23.1653 44.6741 23.6813C46.8894 24.1973 51.4703 25.2485 53.2807 25.6693C55.0911 26.09 56.6218 26.4417 56.6218 26.4417C57.0509 26.4853 57.1312 26.3495 57.255 26.2016C57.4028 26.0254 57.3482 25.6872 57.1336 25.1877Z" fill="url(#paint20_radial_165_187)"/>
<path d="M57.1336 25.1877C57.2092 25.4039 57.2534 25.7988 57.1425 25.9045C57.0412 26.0015 56.8564 25.9644 56.5189 25.8859C56.5189 25.8859 55.2293 25.5248 53.4197 25.104C51.6094 24.6833 47.0252 23.5723 44.8099 23.0563C42.5937 22.5403 40.4009 20.7771 39.5226 20.0778C38.94 19.6134 38.2755 18.9455 37.3531 17.8377C36.981 17.391 36.4411 16.4564 36.098 15.7414C35.0477 13.555 32.2522 7.97202 32.2522 7.97202C31.9919 7.41256 31.9654 7.25107 32.0915 7.14388C32.1534 7.09083 32.2924 7.07744 32.6331 7.13555C33.3394 7.25595 34.7352 7.77177 37.2526 9.60856C34.7287 7.76706 33.243 7.17267 32.5383 7.04575C31.9019 6.93114 31.8569 7.19023 31.7026 7.40659C31.5837 7.57298 31.6086 7.71439 31.8698 8.27384C31.8698 8.27384 34.7737 14.3971 35.7773 16.59C36.1076 17.3113 36.4274 17.9014 36.7994 18.348C37.7219 19.4559 38.5415 20.1069 39.1249 20.5714C40.0023 21.2706 42.4579 23.1653 44.6741 23.6813C46.8894 24.1973 51.4703 25.2485 53.2807 25.6693C55.0911 26.09 56.6218 26.4417 56.6218 26.4417C57.0509 26.4853 57.2092 26.2897 57.3329 26.1418C57.4808 25.9656 57.4012 25.672 57.1336 25.1877Z" fill="#00E1FF"/>
<path d="M57.1336 25.1877C57.2092 25.4039 57.2534 25.7988 57.1425 25.9045C57.0412 26.0015 56.8564 25.9644 56.5189 25.8859C56.5189 25.8859 55.2293 25.5248 53.4197 25.104C51.6094 24.6833 47.0252 23.5723 44.8099 23.0563C42.5937 22.5403 40.4009 20.7771 39.5226 20.0778C38.94 19.6134 38.2755 18.9455 37.3531 17.8377C36.981 17.391 36.4411 16.4564 36.098 15.7414C35.0477 13.555 32.2522 7.97202 32.2522 7.97202C31.9919 7.41256 31.9654 7.25107 32.0915 7.14388C32.1534 7.09083 32.2924 7.07744 32.6331 7.13555C33.3394 7.25595 34.7352 7.77177 37.2526 9.60856C34.7287 7.76707 33.243 7.17267 32.5383 7.04575C31.9019 6.93114 31.8569 7.19023 31.7026 7.40659C31.5837 7.57298 31.6086 7.71439 31.8698 8.27384C31.8698 8.27384 34.7737 14.3971 35.7773 16.59C36.1076 17.3113 36.4274 17.9014 36.7994 18.348C37.7219 19.4559 38.5415 20.1069 39.1249 20.5714C40.0023 21.2706 42.4579 23.1653 44.6741 23.6813C46.8894 24.1973 51.4703 25.2485 53.2807 25.6693C55.0911 26.09 56.6218 26.4417 56.6218 26.4417C57.0509 26.4853 57.1312 26.3495 57.255 26.2016C57.4028 26.0254 57.3482 25.6872 57.1336 25.1877Z" fill="#00E1FF"/>
<path d="M57.1336 25.1877C57.2092 25.4039 57.2534 25.7988 57.1425 25.9045C57.0412 26.0015 56.8564 25.9644 56.5189 25.8859C56.5189 25.8859 55.2293 25.5248 53.4197 25.104C51.6094 24.6833 47.0252 23.5723 44.8099 23.0563C42.5937 22.5403 40.4009 20.7771 39.5226 20.0778C38.94 19.6134 38.2755 18.9455 37.3531 17.8377C36.981 17.391 36.4411 16.4564 36.098 15.7414C35.0477 13.555 32.2522 7.97202 32.2522 7.97202C31.9919 7.41256 31.9654 7.25107 32.0915 7.14388C32.1534 7.09083 32.2924 7.07744 32.6331 7.13555C33.3394 7.25595 34.7352 7.77177 37.2526 9.60856C34.7287 7.76707 33.243 7.17267 32.5383 7.04575C31.9019 6.93114 31.8569 7.19023 31.7026 7.40659C31.5837 7.57298 31.6086 7.71439 31.8698 8.27384C31.8698 8.27384 34.7737 14.3971 35.7773 16.59C36.1076 17.3113 36.4274 17.9014 36.7994 18.348C37.7219 19.4559 38.5415 20.1069 39.1249 20.5714C40.0023 21.2706 42.4579 23.1653 44.6741 23.6813C46.8894 24.1973 51.4703 25.2485 53.2807 25.6693C55.0911 26.09 56.6218 26.4417 56.6218 26.4417C57.0509 26.4853 57.1312 26.3495 57.255 26.2016C57.4028 26.0254 57.3482 25.6872 57.1336 25.1877Z" fill="url(#paint21_radial_165_187)"/>
<path d="M57.1336 25.1877C57.2092 25.4039 57.2534 25.7988 57.1425 25.9045C57.0412 26.0015 56.8564 25.9644 56.5189 25.8859C56.5189 25.8859 55.2293 25.5248 53.4197 25.104C51.6094 24.6833 47.0252 23.5723 44.8099 23.0563C42.5937 22.5403 40.4009 20.7771 39.5226 20.0778C38.94 19.6134 38.2755 18.9455 37.3531 17.8377C36.981 17.391 36.4411 16.4564 36.098 15.7414C35.0477 13.555 32.2522 7.97202 32.2522 7.97202C31.9919 7.41256 31.9654 7.25107 32.0915 7.14388C32.1534 7.09083 32.2924 7.07744 32.6331 7.13555C33.3394 7.25595 34.7352 7.77177 37.2526 9.60856C34.7287 7.76707 33.243 7.17267 32.5383 7.04575C31.9019 6.93114 31.8569 7.19023 31.7026 7.40659C31.5837 7.57298 31.6086 7.71439 31.8698 8.27384C31.8698 8.27384 34.7737 14.3971 35.7773 16.59C36.1076 17.3113 36.4274 17.9014 36.7994 18.348C37.7219 19.4559 38.5415 20.1069 39.1249 20.5714C40.0023 21.2706 42.4579 23.1653 44.6741 23.6813C46.8894 24.1973 51.4703 25.2485 53.2807 25.6693C55.0911 26.09 56.6218 26.4417 56.6218 26.4417C57.0509 26.4853 57.1312 26.3495 57.255 26.2016C57.5459 25.8986 57.3482 25.6872 57.1336 25.1877Z" fill="url(#paint22_linear_165_187)" fill-opacity="0.7"/>
<path d="M57.1336 25.1877C57.2092 25.4039 57.2534 25.7988 57.1425 25.9045C57.0412 26.0015 56.8564 25.9644 56.5189 25.8859C56.5189 25.8859 55.2293 25.5248 53.4197 25.104C51.6094 24.6833 47.0252 23.5723 44.8099 23.0563C42.5937 22.5403 40.4009 20.7771 39.5226 20.0778C38.94 19.6134 38.2755 18.9455 37.3531 17.8377C36.981 17.391 36.4411 16.4564 36.098 15.7414C35.0477 13.555 32.2522 7.97202 32.2522 7.97202C31.9919 7.41256 31.9654 7.25107 32.0915 7.14388C32.1534 7.09083 32.2924 7.07744 32.6331 7.13555C33.3394 7.25595 34.7352 7.77177 37.2526 9.60856C34.7287 7.76707 33.243 7.17267 32.5383 7.04575C31.9019 6.93114 31.8569 7.19023 31.7026 7.40659C31.5837 7.57298 31.6086 7.71439 31.8698 8.27384C31.8698 8.27384 34.7737 14.3971 35.7773 16.59C36.1076 17.3113 36.4274 17.9014 36.7994 18.348C37.7219 19.4559 38.5415 20.1069 39.1249 20.5714C40.0023 21.2706 42.4579 23.1653 44.6741 23.6813C46.8894 24.1973 51.4703 25.2485 53.2807 25.6693C55.0911 26.09 56.6218 26.4417 56.6218 26.4417C57.0509 26.4853 57.1312 26.3495 57.255 26.2016C57.4028 26.0254 57.3482 25.6872 57.1336 25.1877Z" fill="url(#paint23_radial_165_187)"/>
<path d="M57.1336 25.1877C57.2092 25.4039 57.2534 25.7988 57.1425 25.9045C57.0412 26.0015 56.8564 25.9644 56.5189 25.8859C56.5189 25.8859 55.2293 25.5248 53.4197 25.104C51.6094 24.6833 47.0252 23.5723 44.8099 23.0563C42.5937 22.5403 40.4009 20.7771 39.5226 20.0778C38.94 19.6134 38.2755 18.9455 37.3531 17.8377C36.981 17.391 36.4411 16.4564 36.098 15.7414C35.0477 13.555 32.2522 7.97202 32.2522 7.97202C31.9919 7.41256 31.9654 7.25107 32.0915 7.14388C32.1534 7.09083 32.2924 7.07744 32.6331 7.13555C33.3394 7.25595 34.7352 7.77177 37.2526 9.60856C34.7287 7.76707 33.243 7.17267 32.5383 7.04575C31.9019 6.93114 31.8569 7.19023 31.7026 7.40659C31.5837 7.57298 31.6086 7.71439 31.8698 8.27384C31.8698 8.27384 34.7737 14.3971 35.7773 16.59C36.1076 17.3113 36.4274 17.9014 36.7994 18.348C37.7219 19.4559 38.5415 20.1069 39.1249 20.5714C40.0023 21.2706 42.4579 23.1653 44.6741 23.6813C46.8894 24.1973 51.4703 25.2485 53.2807 25.6693C55.0911 26.09 56.6218 26.4417 56.6218 26.4417C57.0509 26.4853 57.1312 26.3495 57.255 26.2016C57.4028 26.0254 57.3482 25.6872 57.1336 25.1877Z" fill="url(#paint24_radial_165_187)"/>
<path d="M57.1336 25.1877C57.2092 25.4039 57.2534 25.7988 57.1425 25.9045C57.0412 26.0015 56.8564 25.9644 56.5189 25.8859C56.5189 25.8859 55.2293 25.5248 53.4197 25.104C51.6094 24.6833 47.0252 23.5723 44.8099 23.0563C42.5937 22.5403 40.4009 20.7771 39.5226 20.0778C38.94 19.6134 38.2755 18.9455 37.3531 17.8377C36.981 17.391 36.4411 16.4564 36.098 15.7414C35.0477 13.555 32.2522 7.97202 32.2522 7.97202C31.9919 7.41256 31.9654 7.25107 32.0915 7.14388C32.1534 7.09083 32.2924 7.07744 32.6331 7.13555C33.3394 7.25595 34.7352 7.77177 37.2526 9.60856C34.7287 7.76707 33.243 7.17267 32.5383 7.04575C31.9019 6.93114 31.8569 7.19023 31.7026 7.40659C31.5837 7.57298 31.6086 7.71439 31.8698 8.27384C31.8698 8.27384 34.7737 14.3971 35.7773 16.59C36.1076 17.3113 36.4274 17.9014 36.7994 18.348C37.7219 19.4559 38.5415 20.1069 39.1249 20.5714C40.0023 21.2706 42.4579 23.1653 44.6741 23.6813C46.8894 24.1973 51.4703 25.2485 53.2807 25.6693C55.0911 26.09 56.6218 26.4417 56.6218 26.4417C57.0509 26.4853 57.1312 26.3495 57.255 26.2016C57.4028 26.0254 57.3482 25.6872 57.1336 25.1877Z" fill="url(#paint25_radial_165_187)"/>
<path d="M57.1336 25.1877C57.2092 25.4039 57.2534 25.7988 57.1425 25.9045C57.0412 26.0015 56.8564 25.9644 56.5189 25.8859C56.5189 25.8859 55.2293 25.5248 53.4197 25.104C51.6094 24.6833 47.0252 23.5723 44.8099 23.0563C42.5937 22.5403 40.4009 20.7771 39.5226 20.0778C38.94 19.6134 38.2755 18.9455 37.3531 17.8377C36.981 17.391 36.4411 16.4564 36.098 15.7414C35.0477 13.555 32.2522 7.97202 32.2522 7.97202C31.9919 7.41256 31.9654 7.25107 32.0915 7.14388C32.1534 7.09083 32.2924 7.07744 32.6331 7.13555C33.3394 7.25595 34.7352 7.77177 37.2526 9.60856C34.7287 7.76707 33.243 7.17267 32.5383 7.04575C31.9019 6.93114 31.8569 7.19023 31.7026 7.40659C31.5837 7.57298 31.6086 7.71439 31.8698 8.27384C31.8698 8.27384 34.7737 14.3971 35.7773 16.59C36.1076 17.3113 36.4274 17.9014 36.7994 18.348C37.7219 19.4559 38.5415 20.1069 39.1249 20.5714C40.0023 21.2706 42.4579 23.1653 44.6741 23.6813C46.8894 24.1973 51.4703 25.2485 53.2807 25.6693C55.0911 26.09 56.6218 26.4417 56.6218 26.4417C57.0509 26.4853 57.1312 26.3495 57.255 26.2016C57.4028 26.0254 57.3482 25.6872 57.1336 25.1877Z" fill="url(#paint26_radial_165_187)"/>
<path d="M32.2771 7.14836C32.3704 7.14836 32.4861 7.16158 32.6194 7.18783C32.9256 7.24777 33.4704 7.41234 34.331 7.85575C35.2615 8.33517 36.3358 9.02517 37.5226 9.90654C38.8107 10.8627 42.2619 13.4277 45.5989 15.9085C49.1747 18.5667 52.8725 21.3153 53.836 22.0299C54.9167 22.8312 55.6929 23.5681 56.1533 24.0452C56.7206 24.6322 57.1352 25.167 57.263 25.4755L57.2638 25.4762C57.3498 25.6763 57.386 25.8179 57.3739 25.9075C57.3651 25.9734 57.3402 26.0237 57.2702 26.1073L57.263 26.1156C57.2518 26.1292 57.2405 26.1426 57.2301 26.1562C57.1425 26.2642 57.0493 26.256 56.8379 26.256C56.8034 26.256 56.7648 26.2541 56.723 26.2501C56.4346 26.1944 55.1433 25.9644 53.4221 25.5644C52.6081 25.3752 51.3707 25.0027 49.9099 24.6661C48.0754 24.2433 46.0352 23.8605 44.8155 23.5764C43.8761 23.3575 42.7825 22.8698 41.566 22.1264C40.5495 21.5054 39.705 20.8608 39.292 20.5318C38.5929 19.9753 37.8368 19.2958 36.9714 18.2569C36.6202 17.8294 36.3551 17.3974 36.0128 16.6492C35.0228 14.4844 32.0409 8.29734 32.0007 8.21206C31.7315 7.63396 31.7452 7.57095 31.836 7.44204C31.8545 7.41651 31.8706 7.39116 31.8858 7.3669C31.9742 7.23057 32.0272 7.14836 32.2771 7.14836ZM32.2771 7.00352C31.8947 7.00352 31.8344 7.19309 31.7179 7.35857C31.5709 7.56714 31.6086 7.71416 31.8698 8.27362C31.8698 8.27362 34.8412 14.5446 35.8448 16.7375C36.1751 17.4588 36.3856 17.9536 36.7576 18.4002C37.6793 19.5081 38.5865 20.2375 39.169 20.7019C40.0465 21.4011 42.5535 23.2953 44.7689 23.8114C46.985 24.3274 51.5796 25.2846 53.39 25.7055C55.2003 26.1262 56.7311 26.4597 56.7311 26.4597C56.7809 26.4648 56.8267 26.4671 56.8685 26.4671C57.1794 26.4671 57.255 26.3319 57.3643 26.2013C57.5121 26.0253 57.6117 25.9193 57.3972 25.4197C57.1328 24.7817 55.7813 23.2918 53.9227 21.9133C52.0633 20.5347 40.2828 11.775 37.6094 9.78994C34.9344 7.80523 33.3724 7.18783 32.6468 7.04571C32.4973 7.01638 32.376 7.00352 32.2771 7.00352Z" fill="url(#paint27_linear_165_187)"/>
<path d="M32.2771 7.14836C32.3704 7.14836 32.4861 7.16158 32.6194 7.18783C32.9256 7.24777 33.4704 7.41234 34.331 7.85575C35.2615 8.33517 36.3358 9.02517 37.5226 9.90654C38.8107 10.8627 42.2619 13.4277 45.5989 15.9085C49.1747 18.5667 52.8725 21.3153 53.836 22.0299C54.9167 22.8312 55.6929 23.5681 56.1533 24.0452C56.7206 24.6322 57.1352 25.167 57.263 25.4755L57.2638 25.4762C57.3498 25.6763 57.386 25.8179 57.3739 25.9075C57.3651 25.9734 57.3402 26.0237 57.2702 26.1073L57.263 26.1156C57.2518 26.1292 57.2405 26.1426 57.2301 26.1562C57.1425 26.2642 57.0493 26.256 56.8379 26.256C56.8034 26.256 56.7648 26.2541 56.723 26.2501C56.4346 26.1944 55.1433 25.9644 53.4221 25.5644C52.6081 25.3752 51.3707 25.0027 49.9099 24.6661C48.0754 24.2433 46.0352 23.8605 44.8155 23.5764C43.8761 23.3575 42.7825 22.8698 41.566 22.1264C40.5495 21.5054 39.705 20.8608 39.292 20.5318C38.5929 19.9753 37.8368 19.2958 36.9714 18.2569C36.6202 17.8294 36.3551 17.3974 36.0128 16.6492C35.0228 14.4844 32.0409 8.29734 32.0007 8.21206C31.7315 7.63396 31.7452 7.57095 31.836 7.44204C31.8545 7.41651 31.8706 7.39116 31.8858 7.3669C31.9742 7.23057 32.0272 7.14836 32.2771 7.14836ZM32.2771 7.00352C31.8947 7.00352 31.8344 7.19309 31.7179 7.35857C31.5709 7.56714 31.6086 7.71416 31.8698 8.27362C31.8698 8.27362 34.8412 14.5446 35.8448 16.7375C36.1751 17.4588 36.3856 17.9536 36.7576 18.4002C37.6793 19.5081 38.5865 20.2375 39.169 20.7019C40.0465 21.4011 42.5535 23.2953 44.7689 23.8114C46.985 24.3274 51.5796 25.2846 53.39 25.7055C55.2003 26.1262 56.7311 26.4597 56.7311 26.4597C56.7809 26.4648 56.8267 26.4671 56.8685 26.4671C57.1794 26.4671 57.255 26.3319 57.3643 26.2013C57.5121 26.0253 57.6117 25.9193 57.3972 25.4197C57.1328 24.7817 55.7813 23.2918 53.9227 21.9133C52.0633 20.5347 40.2828 11.775 37.6094 9.78994C34.9344 7.80523 33.3724 7.18783 32.6468 7.04571C32.4973 7.01638 32.376 7.00352 32.2771 7.00352Z" fill="url(#paint28_linear_165_187)"/>
<path d="M32.2747 7.14586C32.3688 7.14586 32.4845 7.15917 32.6195 7.18561C32.9272 7.24596 33.4768 7.4117 34.343 7.85821C35.28 8.34101 36.3615 9.03585 37.5572 9.92342C38.8541 10.8863 42.3294 13.4693 45.6897 15.9675C49.2912 18.6445 53.0147 21.4123 53.9854 22.132C55.0734 22.939 55.8544 23.681 56.3189 24.1615C56.8902 24.7526 57.308 25.2912 57.4366 25.6019L57.4374 25.6033C57.5234 25.8048 57.4808 25.8908 57.4687 25.981C57.4374 26.0466 57.4253 26.0908 57.3546 26.175L57.3474 26.1834C57.3361 26.1971 57.3249 26.2106 57.3136 26.2242C57.226 26.3331 57.1722 26.3989 56.9593 26.3989C56.9239 26.3989 56.8854 26.3969 56.8436 26.3929C56.7198 26.3657 55.3016 26.0941 53.5684 25.6914C52.7488 25.5009 51.3587 25.1805 49.8874 24.8416C48.0401 24.4158 46.0119 24.0563 44.7841 23.7702C43.8376 23.5498 42.7367 23.0586 41.5114 22.31C40.4885 21.6846 39.6375 21.0355 39.2213 20.7042C38.5182 20.1437 37.6946 19.458 36.8235 18.4118C36.474 17.9921 36.2281 17.5762 35.8834 16.8226C34.8854 14.6427 32.0369 8.3029 31.9959 8.21703C31.7251 7.63486 31.7388 7.57141 31.8304 7.4416C31.8489 7.41589 31.8649 7.39036 31.881 7.36593C31.9694 7.22863 32.0224 7.14586 32.2747 7.14586ZM32.2747 7C31.8891 7 31.8288 7.19089 31.7115 7.35755C31.5636 7.56758 31.6014 7.71563 31.8641 8.27902C31.8641 8.27902 34.7504 14.7135 35.7605 16.9218C36.0931 17.6482 36.3471 18.0938 36.7215 18.5436C37.6504 19.6593 38.5544 20.3891 39.1417 20.8568C40.0256 21.5609 42.5302 23.4312 44.7616 23.9509C46.993 24.4705 51.713 25.4097 53.5362 25.8334C55.3586 26.2572 56.8211 26.5371 56.8211 26.5371C56.8717 26.5422 56.9175 26.5446 56.9593 26.5446C57.2727 26.5446 57.349 26.4084 57.4591 26.2769C57.6077 26.0997 57.6736 25.9508 57.5362 25.5469C57.2694 24.9044 55.9083 23.4041 54.0368 22.0158C52.1646 20.6275 40.3366 11.805 37.644 9.80601C34.9513 7.80734 33.378 7.18561 32.6476 7.04248C32.4965 7.01294 32.3744 7 32.2747 7Z" fill="url(#paint29_linear_165_187)"/>
<defs>
<filter id="filter0_i_165_187" x="31.8729" y="7.05336" width="25.538" height="19.0731" filterUnits="userSpaceOnUse" color-interpolation-filters="sRGB">
<feFlood flood-opacity="0" result="BackgroundImageFix"/>
<feBlend mode="normal" in="SourceGraphic" in2="BackgroundImageFix" result="shape"/>
<feColorMatrix in="SourceAlpha" type="matrix" values="0 0 0 0 0 0 0 0 0 0 0 0 0 0 0 0 0 0 127 0" result="hardAlpha"/>
<feOffset/>
<feGaussianBlur stdDeviation="0.651055"/>
<feComposite in2="hardAlpha" operator="arithmetic" k2="-1" k3="1"/>
<feColorMatrix type="matrix" values="0 0 0 0 0.958383 0 0 0 0 0.998042 0 0 0 0 1 0 0 0 1 0"/>
<feBlend mode="normal" in2="shape" result="effect1_innerShadow_165_187"/>
</filter>
<linearGradient id="paint0_linear_165_187" x1="14.5239" y1="31.9288" x2="38.8629" y2="49.7375" gradientUnits="userSpaceOnUse">
<stop stop-color="#FDA1FF"/>
<stop offset="1" stop-color="#97C5FF"/>
</linearGradient>
<linearGradient id="paint1_linear_165_187" x1="35.3322" y1="24.6652" x2="30.3712" y2="32.9112" gradientUnits="userSpaceOnUse">
<stop offset="0.49" stop-color="#B78EFA"/>
<stop offset="1" stop-color="#8F6CCD"/>
</linearGradient>
<linearGradient id="paint2_linear_165_187" x1="19.2647" y1="32.6997" x2="34.2032" y2="58.8978" gradientUnits="userSpaceOnUse">
<stop offset="0.2" stop-color="#FDA1FF"/>
<stop offset="0.3" stop-color="#F3A4FF"/>
<stop offset="0.48" stop-color="#D9ADFF"/>
<stop offset="0.71" stop-color="#AFBCFF"/>
<stop offset="0.83" stop-color="#97C5FF"/>
</linearGradient>
<radialGradient id="paint3_radial_165_187" cx="0" cy="0" r="1" gradientUnits="userSpaceOnUse" gradientTransform="translate(34.8886 31.6876) rotate(53.1) scale(3.12697 0.187619)">
<stop stop-color="white"/>
<stop offset="1" stop-color="white" stop-opacity="0"/>
</radialGradient>
<radialGradient id="paint4_radial_165_187" cx="0" cy="0" r="1" gradientUnits="userSpaceOnUse" gradientTransform="translate(34.7633 31.7751) rotate(53.1) scale(3.12697 0.875554)">
<stop stop-color="white"/>
<stop offset="1" stop-color="white" stop-opacity="0"/>
</radialGradient>
<linearGradient id="paint5_linear_165_187" x1="19.9991" y1="30.7322" x2="28.9859" y2="63.3329" gradientUnits="userSpaceOnUse">
<stop stop-color="#EEBEFF"/>
<stop offset="1" stop-color="#79EDFF"/>
</linearGradient>
<linearGradient id="paint6_linear_165_187" x1="49.8769" y1="30.5814" x2="44.6716" y2="53.5572" gradientUnits="userSpaceOnUse">
<stop stop-color="#00B99A"/>
<stop offset="1" stop-color="#009CBD"/>
</linearGradient>
<linearGradient id="paint7_linear_165_187" x1="49.4824" y1="28.4466" x2="40.5198" y2="56.0886" gradientUnits="userSpaceOnUse">
<stop offset="0.01" stop-color="#00CC9E"/>
<stop offset="0.22" stop-color="#00884A"/>
<stop offset="0.31" stop-color="#008D64"/>
<stop offset="0.55" stop-color="#009A9D"/>
<stop offset="0.75" stop-color="#00A3C7"/>
<stop offset="0.91" stop-color="#00A8E1"/>
<stop offset="1" stop-color="#00ABEB"/>
</linearGradient>
<radialGradient id="paint8_radial_165_187" cx="0" cy="0" r="1" gradientUnits="userSpaceOnUse" gradientTransform="translate(45.1409 26.827) scale(5.13012 5.13012)">
<stop offset="0.01" stop-color="white"/>
<stop offset="1" stop-color="white" stop-opacity="0"/>
</radialGradient>
<radialGradient id="paint9_radial_165_187" cx="0" cy="0" r="1" gradientUnits="userSpaceOnUse" gradientTransform="translate(44.445 27.2641) scale(1.28391)">
<stop stop-color="white"/>
<stop offset="1" stop-color="white" stop-opacity="0"/>
</radialGradient>
<linearGradient id="paint10_linear_165_187" x1="39.2775" y1="42.1545" x2="59.1513" y2="42.1545" gradientUnits="userSpaceOnUse">
<stop stop-color="#00E4FF"/>
<stop offset="1" stop-color="#00E3F7"/>
</linearGradient>
<linearGradient id="paint11_linear_165_187" x1="14.9401" y1="11.7335" x2="20.2828" y2="27.2502" gradientUnits="userSpaceOnUse">
<stop stop-color="#00CDC2"/>
<stop offset="1" stop-color="#288822"/>
</linearGradient>
<linearGradient id="paint12_linear_165_187" x1="14.9626" y1="11.7981" x2="20.2844" y2="27.2539" gradientUnits="userSpaceOnUse">
<stop stop-color="#00CDC2"/>
<stop offset="1" stop-color="#288822"/>
</linearGradient>
<linearGradient id="paint13_linear_165_187" x1="14.8871" y1="11.7418" x2="20.0908" y2="26.854" gradientUnits="userSpaceOnUse">
<stop stop-color="#00CDC3"/>
<stop offset="1" stop-color="#4FDB5E"/>
</linearGradient>
<radialGradient id="paint14_radial_165_187" cx="0" cy="0" r="1" gradientUnits="userSpaceOnUse" gradientTransform="translate(31.0743 21.6152) scale(13.3889)">
<stop stop-color="white"/>
<stop offset="1" stop-color="white" stop-opacity="0"/>
</radialGradient>
<linearGradient id="paint15_linear_165_187" x1="16.0281" y1="16.5515" x2="20.863" y2="28.6278" gradientUnits="userSpaceOnUse">
<stop stop-color="#00CDC3"/>
<stop offset="1" stop-color="#4FDB5E"/>
</linearGradient>
<radialGradient id="paint16_radial_165_187" cx="0" cy="0" r="1" gradientUnits="userSpaceOnUse" gradientTransform="translate(46.2659 16.7355) scale(8.64063 8.64063)">
<stop stop-color="#88D2FF"/>
<stop offset="1" stop-color="#0079FF"/>
</radialGradient>
<radialGradient id="paint17_radial_165_187" cx="0" cy="0" r="1" gradientUnits="userSpaceOnUse" gradientTransform="translate(42.7528 16.7355) scale(12.2441 12.2441)">
<stop stop-color="#88D2FF"/>
<stop offset="1" stop-color="#0079FF"/>
</radialGradient>
<linearGradient id="paint18_linear_165_187" x1="39.0228" y1="19.0471" x2="49.6736" y2="14.4027" gradientUnits="userSpaceOnUse">
<stop offset="0.04" stop-color="#62C7FF"/>
<stop offset="0.79" stop-color="#D9B5FF"/>
</linearGradient>
<linearGradient id="paint19_linear_165_187" x1="42.5632" y1="16.9387" x2="51.4205" y2="20.3423" gradientUnits="userSpaceOnUse">
<stop stop-color="#C07DFF" stop-opacity="0"/>
<stop offset="1" stop-color="#A855F5"/>
</linearGradient>
<radialGradient id="paint20_radial_165_187" cx="0" cy="0" r="1" gradientUnits="userSpaceOnUse" gradientTransform="translate(35.0895 13.8081) rotate(61.8392) scale(5.14659 0.64389)">
<stop stop-color="#0079FF"/>
<stop offset="1" stop-color="#0079FF"/>
</radialGradient>
<radialGradient id="paint21_radial_165_187" cx="0" cy="0" r="1" gradientUnits="userSpaceOnUse" gradientTransform="translate(33.9413 12.2571) rotate(64.3033) scale(5.68243 0.340343)">
<stop stop-color="#0079FF"/>
<stop offset="1" stop-color="#0079FF" stop-opacity="0"/>
</radialGradient>
<linearGradient id="paint22_linear_165_187" x1="44.7432" y1="22.8618" x2="57.0027" y2="26.1496" gradientUnits="userSpaceOnUse">
<stop stop-color="#0079FF"/>
<stop offset="1" stop-color="#0079FF" stop-opacity="0.5"/>
</linearGradient>
<radialGradient id="paint23_radial_165_187" cx="0" cy="0" r="1" gradientUnits="userSpaceOnUse" gradientTransform="translate(50.1646 24.2624) rotate(13.66) scale(7.04298 0.140859)">
<stop stop-color="#CDA2FD"/>
<stop offset="1" stop-color="#0079FF" stop-opacity="0"/>
</radialGradient>
<radialGradient id="paint24_radial_165_187" cx="0" cy="0" r="1" gradientUnits="userSpaceOnUse" gradientTransform="translate(43.4503 22.5211) rotate(20.2248) scale(2.45606 0.41753)">
<stop offset="0.114841" stop-color="white"/>
<stop offset="1" stop-color="white" stop-opacity="0"/>
</radialGradient>
<radialGradient id="paint25_radial_165_187" cx="0" cy="0" r="1" gradientUnits="userSpaceOnUse" gradientTransform="translate(38.0529 17.4885) rotate(33.2544) scale(3.49784 0.996269)">
<stop stop-color="white"/>
<stop offset="1" stop-color="white" stop-opacity="0"/>
</radialGradient>
<radialGradient id="paint26_radial_165_187" cx="0" cy="0" r="1" gradientUnits="userSpaceOnUse" gradientTransform="translate(43.4503 22.5211) rotate(20.2248) scale(2.45606 0.41753)">
<stop offset="0.114841" stop-color="white"/>
<stop offset="1" stop-color="white" stop-opacity="0"/>
</radialGradient>
<linearGradient id="paint27_linear_165_187" x1="31.6327" y1="16.7355" x2="57.5209" y2="16.7355" gradientUnits="userSpaceOnUse">
<stop stop-color="#88D2FF"/>
<stop offset="1" stop-color="#F6B6FF"/>
</linearGradient>
<linearGradient id="paint28_linear_165_187" x1="39.3804" y1="20.553" x2="44.5359" y2="15.9719" gradientUnits="userSpaceOnUse">
<stop stop-color="#0079FF"/>
<stop offset="1" stop-color="#0079FF" stop-opacity="0"/>
</linearGradient>
<linearGradient id="paint29_linear_165_187" x1="31.6255" y1="16.8004" x2="57.6961" y2="16.8004" gradientUnits="userSpaceOnUse">
<stop stop-color="#88D2FF"/>
<stop offset="1" stop-color="#F6B6FF"/>
</linearGradient>
</defs>
</svg>
