<svg width="66" height="66" viewBox="0 0 66 66" fill="none" xmlns="http://www.w3.org/2000/svg">
<ellipse cx="33" cy="32.9183" rx="33" ry="32.9183" fill="#F5F5F5"/>
<path fill-rule="evenodd" clip-rule="evenodd" d="M38.7137 13H26.2863C22.132 13 20.2451 13.0097 18.2169 13.6469C16.0964 14.4255 14.4255 16.0964 13.6469 18.2169C13.0097 20.2451 13 22.1323 13 26.2863V38.7137C13 42.8679 13.0097 44.7547 13.6469 46.7831C14.4255 48.9036 16.0964 50.5746 18.2169 51.3527C20.245 51.9903 22.1319 52 26.2863 52H38.7137C42.868 52 44.7547 51.9903 46.7831 51.3527C48.9035 50.5746 50.5744 48.9038 51.3531 46.7831C51.9903 44.7547 52 42.868 52 38.7137V26.2863C52 22.1323 51.9903 20.245 51.3531 18.2168C50.5744 16.0963 48.9036 14.4255 46.7831 13.6469C44.7547 13.0097 42.8679 13 38.7137 13Z" fill="#FE3265"/>
<path fill-rule="evenodd" clip-rule="evenodd" d="M26.6538 21.5625C25.443 21.5625 24.4615 22.6118 24.4615 23.9062V31.7188C24.4615 34.3076 26.4246 36.4062 28.8462 36.4062H33.2308C34.8452 36.4062 36.1538 37.8054 36.1538 39.5312V41.0938C36.1538 42.3881 37.1354 43.4375 38.3462 43.4375C39.557 43.4375 40.5384 42.3881 40.5384 41.0938V37.1875C40.5384 34.5986 38.5754 32.5 36.1538 32.5H31.8029C30.17 32.5 28.8462 31.0847 28.8462 29.339V23.9062C28.8462 22.6118 27.8646 21.5625 26.6538 21.5625ZM40.5384 33.0534C39.4672 31.7559 37.8999 30.9375 36.1538 30.9375H31.8029C30.9772 30.9375 30.3076 30.2219 30.3076 29.339V23.9062C30.3076 21.7489 28.6719 20 26.6538 20C24.6359 20 23 21.7489 23 23.9062V41.0938C23 43.2511 24.6359 45 26.6538 45C28.6719 45 30.3076 43.2511 30.3076 41.0938V40.3125C30.3076 39.881 29.9805 39.5312 29.577 39.5312C29.1733 39.5312 28.8462 39.881 28.8462 40.3125V41.0938C28.8462 42.3881 27.8646 43.4375 26.6538 43.4375C25.443 43.4375 24.4615 42.3881 24.4615 41.0938V35.8529C25.5328 37.1504 27.1001 37.9688 28.8462 37.9688H33.2308C34.0379 37.9688 34.6924 38.6682 34.6924 39.5312V41.0938C34.6924 43.2511 36.3281 45 38.3462 45C40.3641 45 42 43.2511 42 41.0938V23.9062C42 21.7489 40.3641 20 38.3462 20C36.3281 20 34.6924 21.7489 34.6924 23.9062V28.5938C34.6924 29.0253 35.0195 29.375 35.423 29.375C35.8267 29.375 36.1538 29.0253 36.1538 28.5938V23.9062C36.1538 22.6118 37.1354 21.5625 38.3462 21.5625C39.557 21.5625 40.5384 22.6118 40.5384 23.9062V33.0534Z" fill="white"/>
</svg>
