<svg width="66" height="66" viewBox="0 0 66 66" fill="none" xmlns="http://www.w3.org/2000/svg">
<ellipse cx="33" cy="32.9183" rx="33" ry="32.9183" fill="#F5F5F5"/>
<path fill-rule="evenodd" clip-rule="evenodd" d="M39.7137 13H27.2863C23.132 13 21.2451 13.0097 19.2169 13.6469C17.0964 14.4255 15.4255 16.0964 14.6469 18.2169C14.0097 20.2451 14 22.1323 14 26.2863V38.7137C14 42.8679 14.0097 44.7547 14.6469 46.7831C15.4255 48.9036 17.0964 50.5746 19.2169 51.3527C21.245 51.9902 23.1319 52 27.2863 52H39.7137C43.868 52 45.7547 51.9902 47.7831 51.3527C49.9035 50.5746 51.5744 48.9038 52.3531 46.7831C52.9902 44.7547 53 42.868 53 38.7137V26.2863C53 22.1323 52.9902 20.245 52.3531 18.2168C51.5744 16.0963 49.9036 14.4255 47.7831 13.6469C45.7547 13.0097 43.8679 13 39.7137 13Z" fill="#FE3265"/>
<path fill-rule="evenodd" clip-rule="evenodd" d="M27.6538 21.5625C26.443 21.5625 25.4615 22.6118 25.4615 23.9062V31.7188C25.4615 34.3076 27.4246 36.4062 29.8462 36.4062H34.2308C35.8452 36.4062 37.1538 37.8054 37.1538 39.5312V41.0938C37.1538 42.3881 38.1354 43.4375 39.3462 43.4375C40.557 43.4375 41.5384 42.3881 41.5384 41.0938V37.1875C41.5384 34.5986 39.5754 32.5 37.1538 32.5H32.8029C31.17 32.5 29.8462 31.0848 29.8462 29.339V23.9062C29.8462 22.6118 28.8646 21.5625 27.6538 21.5625ZM41.5384 33.0534C40.4672 31.7559 38.8999 30.9375 37.1538 30.9375H32.8029C31.9771 30.9375 31.3076 30.2219 31.3076 29.339V23.9062C31.3076 21.7489 29.6719 20 27.6538 20C25.6359 20 24 21.7489 24 23.9062V41.0938C24 43.2511 25.6359 45 27.6538 45C29.6719 45 31.3076 43.2511 31.3076 41.0938V40.3125C31.3076 39.881 30.9805 39.5312 30.577 39.5312C30.1733 39.5312 29.8462 39.881 29.8462 40.3125V41.0938C29.8462 42.3881 28.8646 43.4375 27.6538 43.4375C26.443 43.4375 25.4615 42.3881 25.4615 41.0938V35.8529C26.5328 37.1504 28.1001 37.9688 29.8462 37.9688H34.2308C35.0379 37.9688 35.6924 38.6682 35.6924 39.5312V41.0938C35.6924 43.2511 37.3281 45 39.3462 45C41.3641 45 43 43.2511 43 41.0938V23.9062C43 21.7489 41.3641 20 39.3462 20C37.3281 20 35.6924 21.7489 35.6924 23.9062V28.5938C35.6924 29.0253 36.0195 29.375 36.423 29.375C36.8267 29.375 37.1538 29.0253 37.1538 28.5938V23.9062C37.1538 22.6118 38.1354 21.5625 39.3462 21.5625C40.557 21.5625 41.5384 22.6118 41.5384 23.9062V33.0534Z" fill="white"/>
</svg>
