<svg width="66" height="66" viewBox="0 0 66 66" fill="none" xmlns="http://www.w3.org/2000/svg">
<circle cx="32.9183" cy="32.9183" r="32.9183" fill="#F5F5F5"/>
<g clip-path="url(#clip0_135_39)">
<path d="M44.4269 39.9284L22.7405 14.4036C22.479 14.1252 22.3329 13.7581 22.3316 13.3762C22.3316 12.9673 22.4824 12.63 22.7814 12.3796C23.0804 12.1291 23.4714 12.0013 23.9825 12.0013H44.2199C44.6255 11.9885 45.0288 12.0679 45.3993 12.2334C45.7698 12.399 46.0979 12.6464 46.3589 12.9571L57.0284 25.1624C57.3095 25.5304 57.4577 26.0083 57.4782 26.6063C57.4986 27.2043 57.3478 27.6822 57.0284 28.0502L46.6298 39.7163C46.352 40.0454 45.9588 40.2557 45.5309 40.3041C45.0709 40.3731 44.7106 40.2453 44.4321 39.9259L44.4269 39.9284ZM32.1092 53.7872L9.45161 27.6439C9.13216 27.2759 8.98139 26.798 9.00183 26.2102C9.0044 25.6837 9.18752 25.1741 9.52061 24.7663L16.8193 16.2563C17.1898 15.8474 17.5783 15.6379 17.9897 15.6379C18.4906 15.6379 18.9097 15.8474 19.2292 16.2563L42.0273 43.0181C42.2982 43.3376 42.4362 43.6749 42.4362 44.0148C42.4362 44.3547 42.3058 44.692 42.0273 45.0114L34.3172 53.7898C34.1973 53.9618 34.0369 54.1017 33.8501 54.197C33.6634 54.2924 33.456 54.3404 33.2464 54.3367C33.0275 54.337 32.8114 54.288 32.6141 54.1933C32.4168 54.0986 32.2433 53.9607 32.1066 53.7898L32.1092 53.7872Z" fill="#FD454D"/>
</g>
<defs>
<clipPath id="clip0_135_39">
<rect width="43" height="43" fill="white" transform="translate(11 11)"/>
</clipPath>
</defs>
</svg>
