<svg width="62" height="62" viewBox="0 0 62 62" fill="none" xmlns="http://www.w3.org/2000/svg" xmlns:xlink="http://www.w3.org/1999/xlink">
<circle cx="31" cy="31" r="31" fill="#F5F5F5"/>
<svg x="11" y="11" width="40" height="40" viewBox="0 0 256 256">
<g stroke-width="2.00" fill="none" stroke-linecap="butt">
<path stroke="#80a2e6" vector-effect="non-scaling-stroke" d="
  M 182.26 110.35
  Q 178.16 109.19 177.25 109.19
  Q 154.95 109.18 146.18 109.15
  A 2.00 1.98 -57.5 0 0 145.25 109.36
  C 139.60 112.18 148.25 119.03 150.60 121.25
  A 0.80 0.80 0.0 0 1 150.61 122.40
  Q 122.47 150.45 102.26 170.77
  Q 96.46 176.62 88.15 178.00
  Q 76.24 179.98 66.17 174.14
  C 55.56 167.98 48.14 154.41 51.08 141.87
  Q 52.23 136.98 53.11 134.08
  Q 54.10 130.82 55.97 128.97
  Q 67.06 117.98 98.74 86.21
  Q 103.17 81.76 108.51 80.18
  Q 113.80 78.61 114.70 78.20
  Q 122.36 74.64 127.84 67.64
  A 2.73 2.61 73.4 0 0 128.26 66.82
  C 129.27 63.52 126.72 62.08 123.67 61.90
  Q 107.02 60.95 93.48 70.50
  Q 85.88 75.86 83.86 77.87
  Q 69.69 92.00 53.62 108.06
  C 49.97 111.72 47.51 115.47 44.84 118.44
  C 38.96 124.98 36.29 132.84 35.20 141.51
  Q 35.03 142.84 35.13 151.87
  A 12.34 12.29 37.1 0 0 35.59 155.13
  Q 37.43 161.72 37.86 162.87
  Q 43.66 178.60 57.75 187.15
  Q 66.99 192.75 76.69 193.92
  C 83.41 194.72 92.55 193.40 98.58 191.25
  Q 103.82 189.39 107.84 186.33
  C 111.11 183.84 115.33 180.94 118.74 177.53
  Q 136.19 160.04 180.37 115.90
  Q 182.20 114.08 182.70 111.04
  A 0.62 0.61 12.7 0 0 182.26 110.35"
/>
<path stroke="#80a2e6" vector-effect="non-scaling-stroke" d="
  M 74.72 146.68
  Q 78.83 147.84 79.74 147.83
  Q 102.04 147.83 110.81 147.86
  A 2.00 1.98 -57.5 0 0 111.74 147.65
  C 117.39 144.82 108.74 137.98 106.38 135.76
  A 0.80 0.80 0.0 0 1 106.37 134.61
  Q 134.50 106.54 154.70 86.20
  Q 160.50 80.35 168.81 78.96
  Q 180.72 76.97 190.80 82.81
  C 201.41 88.96 208.84 102.53 205.91 115.08
  Q 204.76 119.97 203.88 122.87
  Q 202.89 126.13 201.03 127.98
  Q 189.94 138.98 158.27 170.77
  Q 153.85 175.23 148.51 176.81
  Q 143.22 178.38 142.32 178.79
  Q 134.66 182.36 129.18 189.36
  A 2.73 2.61 73.4 0 0 128.76 190.18
  C 127.75 193.48 130.30 194.92 133.35 195.10
  Q 150.01 196.04 163.54 186.48
  Q 171.14 181.12 173.16 179.11
  Q 187.32 164.96 203.39 148.89
  C 207.04 145.23 209.49 141.48 212.16 138.51
  C 218.04 131.96 220.71 124.10 221.79 115.43
  Q 221.96 114.10 221.86 105.06
  A 12.35 12.29 37.1 0 0 221.39 101.80
  Q 219.55 95.21 219.12 94.06
  Q 213.31 78.33 199.21 69.79
  Q 189.97 64.20 180.26 63.03
  C 173.54 62.24 164.40 63.56 158.37 65.71
  Q 153.13 67.58 149.11 70.64
  C 145.84 73.13 141.62 76.04 138.22 79.45
  Q 120.77 96.95 76.61 141.13
  Q 74.78 142.95 74.28 145.99
  A 0.62 0.61 12.6 0 0 74.72 146.68"
/>
</g>
<path fill="#0044cc" d="
  M 189.24 0.00
  C 194.35 0.40 200.14 0.16 204.57 0.82
  Q 215.74 2.47 226.40 7.87
  C 235.74 12.59 244.29 21.17 248.92 30.46
  Q 252.91 38.48 253.34 39.72
  Q 255.32 45.43 256.00 56.49
  L 256.00 198.21
  Q 255.63 207.02 253.53 215.49
  Q 252.52 219.59 250.55 223.34
  C 248.26 227.70 246.30 232.08 242.71 235.71
  Q 238.89 239.59 234.61 243.72
  A 17.60 17.56 8.6 0 1 230.86 246.48
  Q 227.27 248.44 223.26 250.54
  Q 219.53 252.51 215.26 253.52
  Q 206.87 255.52 198.15 256.00
  L 58.62 256.00
  Q 47.43 255.81 36.90 252.19
  A 4.35 4.16 -16.9 0 1 35.79 251.63
  Q 33.46 249.97 31.45 249.49
  A 0.92 0.84 -21.2 0 1 31.19 249.39
  L 24.20 245.28
  A 5.02 5.02 0.0 0 1 23.40 244.68
  Q 21.23 242.62 13.81 235.19
  Q 10.81 232.18 8.62 227.55
  C 6.38 222.82 4.69 220.40 3.63 216.05
  C 1.97 209.20 0.69 205.12 0.40 200.91
  Q 0.28 199.06 0.00 197.25
  L 0.00 62.59
  Q 0.07 41.17 12.33 23.57
  Q 13.69 21.62 24.48 11.30
  A 1.78 1.73 8.9 0 1 24.96 10.96
  L 38.08 4.32
  A 4.51 4.46 -59.3 0 1 39.92 3.84
  Q 40.69 3.81 43.65 2.94
  Q 50.80 0.85 60.13 0.00
  L 189.24 0.00
  Z
  M 182.26 110.35
  Q 178.16 109.19 177.25 109.19
  Q 154.95 109.18 146.18 109.15
  A 2.00 1.98 -57.5 0 0 145.25 109.36
  C 139.60 112.18 148.25 119.03 150.60 121.25
  A 0.80 0.80 0.0 0 1 150.61 122.40
  Q 122.47 150.45 102.26 170.77
  Q 96.46 176.62 88.15 178.00
  Q 76.24 179.98 66.17 174.14
  C 55.56 167.98 48.14 154.41 51.08 141.87
  Q 52.23 136.98 53.11 134.08
  Q 54.10 130.82 55.97 128.97
  Q 67.06 117.98 98.74 86.21
  Q 103.17 81.76 108.51 80.18
  Q 113.80 78.61 114.70 78.20
  Q 122.36 74.64 127.84 67.64
  A 2.73 2.61 73.4 0 0 128.26 66.82
  C 129.27 63.52 126.72 62.08 123.67 61.90
  Q 107.02 60.95 93.48 70.50
  Q 85.88 75.86 83.86 77.87
  Q 69.69 92.00 53.62 108.06
  C 49.97 111.72 47.51 115.47 44.84 118.44
  C 38.96 124.98 36.29 132.84 35.20 141.51
  Q 35.03 142.84 35.13 151.87
  A 12.34 12.29 37.1 0 0 35.59 155.13
  Q 37.43 161.72 37.86 162.87
  Q 43.66 178.60 57.75 187.15
  Q 66.99 192.75 76.69 193.92
  C 83.41 194.72 92.55 193.40 98.58 191.25
  Q 103.82 189.39 107.84 186.33
  C 111.11 183.84 115.33 180.94 118.74 177.53
  Q 136.19 160.04 180.37 115.90
  Q 182.20 114.08 182.70 111.04
  A 0.62 0.61 12.7 0 0 182.26 110.35
  Z
  M 74.72 146.68
  Q 78.83 147.84 79.74 147.83
  Q 102.04 147.83 110.81 147.86
  A 2.00 1.98 -57.5 0 0 111.74 147.65
  C 117.39 144.82 108.74 137.98 106.38 135.76
  A 0.80 0.80 0.0 0 1 106.37 134.61
  Q 134.50 106.54 154.70 86.20
  Q 160.50 80.35 168.81 78.96
  Q 180.72 76.97 190.80 82.81
  C 201.41 88.96 208.84 102.53 205.91 115.08
  Q 204.76 119.97 203.88 122.87
  Q 202.89 126.13 201.03 127.98
  Q 189.94 138.98 158.27 170.77
  Q 153.85 175.23 148.51 176.81
  Q 143.22 178.38 142.32 178.79
  Q 134.66 182.36 129.18 189.36
  A 2.73 2.61 73.4 0 0 128.76 190.18
  C 127.75 193.48 130.30 194.92 133.35 195.10
  Q 150.01 196.04 163.54 186.48
  Q 171.14 181.12 173.16 179.11
  Q 187.32 164.96 203.39 148.89
  C 207.04 145.23 209.49 141.48 212.16 138.51
  C 218.04 131.96 220.71 124.10 221.79 115.43
  Q 221.96 114.10 221.86 105.06
  A 12.35 12.29 37.1 0 0 221.39 101.80
  Q 219.55 95.21 219.12 94.06
  Q 213.31 78.33 199.21 69.79
  Q 189.97 64.20 180.26 63.03
  C 173.54 62.24 164.40 63.56 158.37 65.71
  Q 153.13 67.58 149.11 70.64
  C 145.84 73.13 141.62 76.04 138.22 79.45
  Q 120.77 96.95 76.61 141.13
  Q 74.78 142.95 74.28 145.99
  A 0.62 0.61 12.6 0 0 74.72 146.68
  Z"
/>
<path fill="#ffffff" d="
  M 182.70 111.04
  Q 182.20 114.08 180.37 115.90
  Q 136.19 160.04 118.74 177.53
  C 115.33 180.94 111.11 183.84 107.84 186.33
  Q 103.82 189.39 98.58 191.25
  C 92.55 193.40 83.41 194.72 76.69 193.92
  Q 66.99 192.75 57.75 187.15
  Q 43.66 178.60 37.86 162.87
  Q 37.43 161.72 35.59 155.13
  A 12.34 12.29 37.1 0 1 35.13 151.87
  Q 35.03 142.84 35.20 141.51
  C 36.29 132.84 38.96 124.98 44.84 118.44
  C 47.51 115.47 49.97 111.72 53.62 108.06
  Q 69.69 92.00 83.86 77.87
  Q 85.88 75.86 93.48 70.50
  Q 107.02 60.95 123.67 61.90
  C 126.72 62.08 129.27 63.52 128.26 66.82
  A 2.73 2.61 73.4 0 1 127.84 67.64
  Q 122.36 74.64 114.70 78.20
  Q 113.80 78.61 108.51 80.18
  Q 103.17 81.76 98.74 86.21
  Q 67.06 117.98 55.97 128.97
  Q 54.10 130.82 53.11 134.08
  Q 52.23 136.98 51.08 141.87
  C 48.14 154.41 55.56 167.98 66.17 174.14
  Q 76.24 179.98 88.15 178.00
  Q 96.46 176.62 102.26 170.77
  Q 122.47 150.45 150.61 122.40
  A 0.80 0.80 0.0 0 0 150.60 121.25
  C 148.25 119.03 139.60 112.18 145.25 109.36
  A 2.00 1.98 -57.5 0 1 146.18 109.15
  Q 154.95 109.18 177.25 109.19
  Q 178.16 109.19 182.26 110.35
  A 0.62 0.61 12.7 0 1 182.70 111.04
  Z"
/>
<path fill="#ffffff" d="
  M 74.72 146.68
  A 0.62 0.61 12.6 0 1 74.28 145.99
  Q 74.78 142.95 76.61 141.13
  Q 120.77 96.95 138.22 79.45
  C 141.62 76.04 145.84 73.13 149.11 70.64
  Q 153.13 67.58 158.37 65.71
  C 164.40 63.56 173.54 62.24 180.26 63.03
  Q 189.97 64.20 199.21 69.79
  Q 213.31 78.33 219.12 94.06
  Q 219.55 95.21 221.39 101.80
  A 12.35 12.29 37.1 0 1 221.86 105.06
  Q 221.96 114.10 221.79 115.43
  C 220.71 124.10 218.04 131.96 212.16 138.51
  C 209.49 141.48 207.04 145.23 203.39 148.89
  Q 187.32 164.96 173.16 179.11
  Q 171.14 181.12 163.54 186.48
  Q 150.01 196.04 133.35 195.10
  C 130.30 194.92 127.75 193.48 128.76 190.18
  A 2.73 2.61 73.4 0 1 129.18 189.36
  Q 134.66 182.36 142.32 178.79
  Q 143.22 178.38 148.51 176.81
  Q 153.85 175.23 158.27 170.77
  Q 189.94 138.98 201.03 127.98
  Q 202.89 126.13 203.88 122.87
  Q 204.76 119.97 205.91 115.08
  C 208.84 102.53 201.41 88.96 190.80 82.81
  Q 180.72 76.97 168.81 78.96
  Q 160.50 80.35 154.70 86.20
  Q 134.50 106.54 106.37 134.61
  A 0.80 0.80 0.0 0 0 106.38 135.76
  C 108.74 137.98 117.39 144.82 111.74 147.65
  A 2.00 1.98 -57.5 0 1 110.81 147.86
  Q 102.04 147.83 79.74 147.83
  Q 78.83 147.84 74.72 146.68
  Z"
/>
</svg>
</svg>
