<svg width="66" height="66" viewBox="0 0 66 66" fill="none" xmlns="http://www.w3.org/2000/svg">
<path d="M32.9183 65.8366C51.0986 65.8366 65.8366 51.0986 65.8366 32.9183C65.8366 14.738 51.0986 0 32.9183 0C14.738 0 0 14.738 0 32.9183C0 51.0986 14.738 65.8366 32.9183 65.8366Z" fill="#F5F5F5"/>
<path d="M24.1392 14.6168H20.6028C19.1653 14.6168 18 15.7821 18 17.2196V33.536C18 34.9735 19.1653 36.1388 20.6028 36.1388H24.1392C25.5767 36.1388 26.742 34.9735 26.742 33.536V17.2196C26.742 15.7821 25.5767 14.6168 24.1392 14.6168Z" fill="#1B1B1B"/>
<path fill-rule="evenodd" clip-rule="evenodd" d="M48.4452 36.1952C47.7252 36.1952 47.0112 35.8748 46.314 35.2448L42.2208 31.502L38.1204 35.2448C37.4268 35.8748 36.7128 36.1952 35.988 36.1952C35.2632 36.1952 34.5552 35.8748 33.8568 35.2448L31.0536 32.6864C30.3708 32.0636 30.0216 31.4204 30.0216 30.7784C30.0216 30.1388 30.3708 29.4944 31.0536 28.8704L35.2056 25.0964L31.0692 21.3248C30.3876 20.7008 30.0372 20.0588 30.0372 19.4168C30.0372 18.7724 30.3876 18.1316 31.0692 17.5064L33.8724 14.9504C34.5624 14.3204 35.2764 14 35.988 14C36.6996 14 37.422 14.3204 38.1204 14.9504L42.2184 18.6932L46.3224 14.9504C47.0112 14.3204 47.7264 14 48.4536 14C49.1808 14 49.8888 14.3204 50.5848 14.9504L53.3856 17.5064C54.0696 18.1304 54.4164 18.7724 54.4164 19.4156C54.4164 20.0588 54.0696 20.6996 53.3844 21.3248L49.2396 25.0964L53.3724 28.8704C54.0564 29.4944 54.4032 30.1364 54.4032 30.7784C54.4032 31.4228 54.0564 32.0636 53.3712 32.6864L50.5716 35.2448C49.8816 35.8748 49.164 36.1952 48.4452 36.1952Z" fill="#1B1B1B"/>
<path fill-rule="evenodd" clip-rule="evenodd" d="M25.9643 52.4C24.6407 52.4 23.3184 52.3184 22.0044 52.1564C21.6048 52.1069 21.2198 51.9748 20.874 51.7686C20.5282 51.5623 20.2291 51.2864 19.9956 50.9584C19.7621 50.6304 19.5994 50.2573 19.5178 49.8631C19.4362 49.4688 19.4375 49.0618 19.5216 48.668L19.9259 46.778C20.0785 46.0642 20.4905 45.4323 21.0821 45.0047C21.6738 44.5771 22.403 44.3841 23.1288 44.4632C24.0696 44.5724 25.0163 44.6276 25.9643 44.6276C31.2563 44.6276 36.3239 42.8528 38.8823 40.1072C39.3307 39.6287 39.926 39.3135 40.5738 39.2118C41.2216 39.1101 41.8849 39.2276 42.4584 39.5456L44.2139 40.5248C44.5934 40.7328 44.9214 41.023 45.1741 41.3742C45.4268 41.7254 45.5978 42.1287 45.6744 42.5545C45.751 42.9804 45.7314 43.4179 45.617 43.8352C45.5026 44.2525 45.2963 44.6389 45.0131 44.966C40.9547 49.6112 33.8411 52.4 25.9643 52.4Z" fill="#1B1B1B"/>
</svg>
