<svg width="66" height="66" viewBox="0 0 66 66" fill="none" xmlns="http://www.w3.org/2000/svg">
<circle cx="32.9183" cy="32.9183" r="32.9183" fill="#F5F5F5"/>
<path d="M39.1376 28.3734C37.993 28.7021 36.7309 28.7075 35.5507 28.6578C34.1784 28.5998 32.7247 28.4266 31.4573 27.8644C30.4144 27.4019 29.5778 26.5674 30.0156 25.3621C30.3243 24.512 31.0085 23.7526 31.7995 23.3246C32.6887 22.8431 33.6658 22.9213 34.5555 23.3565C35.5544 23.8452 36.3852 24.6401 37.1383 25.4421C37.5332 25.8627 37.9101 26.2994 38.2818 26.7403C38.4532 26.9432 39.6165 28.1027 39.1376 28.3734ZM58.1629 28.7878C56.4025 28.3791 54.3226 28.5255 52.5579 28.2439C49.7782 27.8 45.6377 24.565 43.3932 21.2769C41.8336 18.992 41.0893 16.6649 39.8971 13.8293C39.0651 11.85 37.2506 5.5896 34.7133 8.51987C33.6686 9.72664 32.4988 13.6993 31.6444 13.6433C31.0115 13.7901 30.9083 12.5591 30.708 12.033C30.3444 11.0776 30.1516 9.97237 29.6645 9.07148C29.2751 8.35145 28.7638 7.48893 27.9809 7.13898C26.5859 6.42307 24.904 8.5808 24.0694 11.1395C23.7125 12.5115 21.3134 15.1711 20.2686 15.8143C15.5149 18.7422 5.97391 21.8267 5.00083 32.0978C4.99686 32.1404 5.00083 32.27 5.16239 32.1533C6.30026 31.3309 19.2067 22.0529 10.9237 39.9869C5.84933 50.9746 30.3494 57.9714 31.6089 57.9999C31.7786 58.0035 31.7662 57.9265 31.772 57.8759C33.7271 40.3393 53.0414 42.1853 57.5392 37.9853C61.9965 33.8239 62.0876 29.7954 58.1629 28.7878Z" fill="#FA5320"/>
</svg>
