<svg width="66" height="66" viewBox="0 0 66 66" fill="none" xmlns="http://www.w3.org/2000/svg">
<path d="M65.8365 32.9183C65.8365 51.0985 51.0985 65.8365 32.9183 65.8365C14.738 65.8365 0 51.0985 0 32.9183C0 14.738 14.738 0 32.9183 0C51.0985 0 65.8365 14.738 65.8365 32.9183Z" fill="#F5F5F5"/>
<g clip-path="url(#clip0_254_13)">
<path d="M14 14H51V51H14V14Z" fill="#0450D5"/>
<path fill-rule="evenodd" clip-rule="evenodd" d="M30.3357 24.6592C29.8457 24.1287 29.6014 23.5167 29.6014 22.7008C29.6419 21.9254 29.8905 21.3133 30.4173 20.7417C30.9882 20.2148 31.6003 19.9258 32.4169 19.9258C33.2335 19.9258 33.8008 20.2148 34.3341 20.7417C34.9057 21.3133 35.1912 21.9254 35.1912 22.7008C35.1912 23.5167 34.8645 24.1287 34.3341 24.6592C33.7969 25.1723 33.078 25.4512 32.3352 25.4346C31.5606 25.4346 30.8661 25.1896 30.3357 24.6592ZM38.2921 38.6549C35.5178 46.2037 24.9902 48.2438 26.9464 38.4511L29.2314 27.3944H34.0465C32.9452 33.3108 32.1286 36.9017 31.3127 41.023C30.4968 45.226 35.7209 42.1251 36.9032 38.6975L38.2899 38.6563L38.2921 38.6549Z" fill="white"/>
</g>
<defs>
<clipPath id="clip0_254_13">
<rect width="37" height="37" fill="white" transform="translate(14 14)"/>
</clipPath>
</defs>
</svg>
