<svg width="66" height="66" viewBox="0 0 66 66" fill="none" xmlns="http://www.w3.org/2000/svg">
<circle cx="32.9183" cy="32.9183" r="32.9183" fill="#F5F5F5"/>
<path d="M43.7501 29.1248H41.5002V22.375H37.0003V29.1248H39.2503V35.8747H37.0003V29.1248H32.5V35.8747H34.7499V42.6249H50.5V22.375H43.7501V29.1248ZM32.5 22.375H30.25V29.1248H32.5V22.375ZM24.6248 22.375H23.4998V29.1248H24.6248V22.375ZM28.0001 29.1248H25.7506V35.8747H28.0001V29.1248ZM20.1253 29.1248H18.9999V35.8747H20.1249L20.1253 29.1248ZM32.5 35.8747H28.0001V42.6249H32.5V35.8747ZM23.5002 35.8751H21.2498V42.6249H23.4998L23.5002 35.8751ZM15.625 35.8751H14.5V42.6249H15.625V35.8751Z" fill="#1A1A1A"/>
</svg>
