<svg width="66" height="66" viewBox="0 0 66 66" fill="none" xmlns="http://www.w3.org/2000/svg">
<circle cx="32.9183" cy="32.9183" r="32.9183" fill="#F5F5F5"/>
<mask id="mask0_4641_47" style="mask-type:luminance" maskUnits="userSpaceOnUse" x="12" y="12" width="42" height="42">
<path d="M54 12H12V54H54V12Z" fill="white"/>
</mask>
<g mask="url(#mask0_4641_47)">
<path d="M33.0059 54C44.6039 54 54.0058 44.598 54.0058 33C54.0058 21.402 44.6039 12 33.0059 12C21.4079 12 12.0059 21.402 12.0059 33C12.0059 44.598 21.4079 54 33.0059 54Z" fill="#0081FF"/>
<path d="M27.1267 36.0339H21.5509C21.3548 36.0339 21.2315 35.822 21.329 35.6516L30.2608 20.043H43.3314C43.5433 20.043 43.6633 20.2862 43.5335 20.4543L37.1475 28.7371C37.0182 28.9052 37.1377 29.1484 37.3496 29.1484H44.1694C44.3995 29.1484 44.5122 29.4284 44.3463 29.5877L24.9183 48.2866C24.7337 48.4642 24.4319 48.2901 24.4933 48.0413L27.3749 36.35C27.4143 36.1895 27.2927 36.0339 27.1267 36.0339Z" fill="white"/>
</g>
</svg>
