<svg width="62" height="62" viewBox="0 0 62 62" fill="none" xmlns="http://www.w3.org/2000/svg">
<circle cx="31" cy="31" r="31" fill="#F5F5F5"/>
<svg x="11" y="11" width="40" height="40" viewBox="0 0 256 256">
<path fill="#2c2c36" d="M 143.91 6.32 Q 149.12 6.53 152.55 9.76 Q 160.99 17.72 155.27 28.10 Q 154.44 29.59 152.54 31.15 C 147.21 35.51 141.38 39.92 144.88 47.57 Q 145.03 47.89 147.11 51.40 C 149.47 55.38 146.49 60.33 141.80 60.15 C 137.09 59.97 134.51 54.79 137.18 51.01 Q 139.53 47.68 139.71 47.36 C 143.79 40.01 138.33 35.16 133.35 30.40 Q 131.58 28.69 130.88 27.14 Q 125.99 16.34 135.03 9.07 Q 138.70 6.12 143.91 6.32 Z"/>
<path fill="#2c2c36" d="M 87.76 17.05 Q 92.60 15.11 97.03 16.66 Q 107.97 20.47 106.99 32.27 Q 106.84 33.96 105.75 36.16 C 102.67 42.31 99.15 48.70 105.45 54.24 Q 105.72 54.48 109.05 56.83 C 112.82 59.50 112.13 65.23 107.76 66.97 C 103.41 68.72 98.95 65.06 99.84 60.52 Q 100.62 56.52 100.65 56.17 C 101.38 47.80 94.42 45.61 87.95 43.29 Q 85.64 42.46 84.37 41.33 Q 75.51 33.48 80.79 23.17 Q 82.93 18.98 87.76 17.05 Z"/>
<path fill="#2c2c36" d="M 198.63 19.48 Q 203.31 21.79 205.11 26.13 Q 209.57 36.83 200.12 43.97 Q 198.77 44.99 196.40 45.64 C 189.76 47.44 182.65 49.09 182.72 57.48 Q 182.73 57.84 183.20 61.89 C 183.73 66.48 179.00 69.79 174.78 67.70 C 170.57 65.62 170.33 59.85 174.30 57.49 Q 177.80 55.41 178.09 55.19 C 184.81 50.15 181.80 43.51 179.21 37.14 Q 178.28 34.86 178.27 33.16 Q 178.22 21.32 189.42 18.37 Q 193.96 17.17 198.63 19.48 Z"/>
<path fill="#2c2c36" d="M 120.47 42.18 C 128.27 40.68 134.36 49.32 130.41 55.98 C 128.63 58.98 125.73 62.36 127.33 66.03 C 128.25 68.12 131.46 69.98 132.24 71.79 C 133.92 75.69 132.23 79.96 127.91 80.79 C 123.58 81.63 120.43 78.29 120.54 74.05 C 120.59 72.07 122.88 69.15 122.96 66.87 C 123.08 62.87 119.13 60.81 116.36 58.68 C 110.22 53.97 112.66 43.68 120.47 42.18 Z"/>
<path fill="#2c2c36" d="M 154.01 81.25 C 149.74 80.22 148.24 75.90 150.09 72.09 C 150.95 70.32 154.23 68.61 155.24 66.57 C 156.99 62.98 154.26 59.49 152.62 56.42 C 148.98 49.61 155.43 41.28 163.13 43.12 C 170.84 44.97 172.82 55.32 166.49 59.74 C 163.64 61.74 159.61 63.61 159.56 67.60 C 159.53 69.88 161.68 72.89 161.65 74.85 C 161.57 79.09 158.28 82.27 154.01 81.25 Z"/>
<path fill="#2c2c36" d="M 39.35 49.98 Q 43.00 46.27 47.68 45.90 Q 59.21 45.01 63.05 56.19 Q 63.59 57.79 63.47 60.24 C 63.12 67.10 62.46 74.36 70.46 76.90 Q 70.80 77.01 74.79 77.83 C 79.31 78.75 80.97 84.27 77.68 87.62 C 74.39 90.96 68.85 89.41 67.84 84.90 Q 66.95 80.93 66.84 80.59 C 64.15 72.64 56.91 73.43 50.05 73.91 Q 47.61 74.07 45.99 73.56 Q 34.74 69.93 35.43 58.38 Q 35.71 53.69 39.35 49.98 Z"/>
<path fill="#2c2c36" d="M 243.19 54.01 Q 246.51 58.00 246.40 62.69 Q 246.12 74.24 234.63 76.92 Q 232.98 77.30 230.55 76.94 C 223.77 75.89 216.63 74.51 213.30 82.19 Q 213.16 82.52 211.94 86.40 C 210.57 90.80 204.92 91.89 201.92 88.29 C 198.93 84.68 201.04 79.33 205.62 78.79 Q 209.66 78.31 210.00 78.23 C 218.17 76.36 218.12 69.08 218.33 62.23 Q 218.42 59.78 219.09 58.22 Q 223.84 47.41 235.24 49.26 Q 239.87 50.01 243.19 54.01 Z"/>
<path fill="#2c2c36" d="M 102.60 91.58 C 99.00 94.12 94.76 92.38 93.12 88.46 C 92.36 86.65 93.24 83.05 92.38 80.93 C 90.85 77.24 86.40 76.98 83.01 76.18 C 75.48 74.40 73.48 64.03 79.98 59.46 C 86.48 54.88 95.57 60.26 94.70 67.95 C 94.31 71.41 93.05 75.68 96.02 78.37 C 97.71 79.90 101.40 80.28 102.86 81.61 C 105.99 84.47 106.20 89.06 102.60 91.58 Z"/>
<path fill="#2c2c36" d="M 177.78 92.25 C 174.29 89.56 174.70 84.99 177.95 82.27 C 179.46 81.00 183.16 80.78 184.92 79.33 C 188.00 76.77 186.93 72.45 186.70 68.97 C 186.16 61.25 195.48 56.28 201.77 61.13 C 208.06 65.98 205.62 76.26 198.02 77.70 C 194.59 78.36 190.14 78.42 188.45 82.05 C 187.49 84.12 188.22 87.76 187.38 89.54 C 185.57 93.38 181.26 94.93 177.78 92.25 Z"/>
<path fill="#2c2c36" d="M 84.80 110.65 C 82.56 114.45 77.97 114.62 74.85 111.72 C 73.40 110.38 72.72 106.73 71.06 105.16 C 68.13 102.42 63.97 104.02 60.54 104.69 C 52.93 106.19 46.82 97.55 50.85 90.69 C 54.89 83.83 65.41 84.97 67.80 92.35 C 68.88 95.67 69.50 100.09 73.32 101.31 C 75.50 102.00 79.02 100.82 80.90 101.44 C 84.94 102.75 87.03 106.85 84.80 110.65 Z"/>
<path fill="#2c2c36" d="M 9.87 97.86 Q 11.68 92.97 15.81 90.72 Q 25.99 85.18 34.07 93.84 Q 35.23 95.09 36.12 97.38 C 38.61 103.79 40.97 110.69 49.32 109.75 Q 49.68 109.71 53.66 108.83 C 58.17 107.82 61.95 112.19 60.31 116.60 C 58.67 121.00 52.96 121.84 50.20 118.13 Q 47.76 114.86 47.52 114.60 C 41.81 108.44 35.51 112.12 29.44 115.36 Q 27.27 116.51 25.58 116.70 Q 13.81 117.98 9.71 107.14 Q 8.05 102.74 9.87 97.86 Z"/>
<circle fill="#2c2c36" cx="139.66" cy="94.23" r="4.87"/>
<ellipse fill="#2c2c36" cx="0" cy="0" transform="translate(119.47,98.43) rotate(-94.8)" rx="4.97" ry="4.82"/>
<circle fill="#2c2c36" cx="159.74" cy="98.56" r="4.90"/>
<circle fill="#2c2c36" cx="102.87" cy="110.39" r="4.89"/>
<ellipse fill="#2c2c36" cx="0" cy="0" transform="translate(176.21,110.71) rotate(-10.2)" rx="4.99" ry="4.81"/>
<path fill="#2c2c36" d="M 76.18 135.37 C 75.69 139.76 71.56 141.79 67.52 140.42 C 65.65 139.78 63.53 136.72 61.37 135.96 C 57.57 134.65 54.42 137.82 51.55 139.84 C 45.20 144.32 36.08 138.92 36.96 130.99 C 37.85 123.06 47.94 119.80 53.14 125.57 C 55.49 128.17 57.87 131.96 61.86 131.52 C 64.14 131.26 66.88 128.74 68.85 128.53 C 73.09 128.08 76.67 130.98 76.18 135.37 Z"/>
<ellipse fill="#2c2c36" cx="0" cy="0" transform="translate(92.62,128.16) rotate(-153.4)" rx="4.95" ry="4.78"/>
<path fill="#2c2c36" d="M 154.44 207.29 Q 155.40 200.24 154.45 193.26 L 154.44 134.52 A 0.49 0.48 -3.3 0 1 154.87 134.04 L 175.40 131.84 A 1.13 1.12 89.8 0 1 176.64 133.08 Q 176.12 137.89 176.11 139.16 Q 176.11 139.74 176.27 139.95 A 0.59 0.59 0.0 0 0 177.17 139.98 Q 178.63 138.37 180.98 136.50 Q 187.24 131.50 195.15 130.80 C 198.06 130.54 202.11 131.21 204.54 131.70 C 215.80 133.94 221.10 142.71 223.28 153.08 Q 224.09 156.91 224.07 164.99 Q 224.03 179.39 223.97 185.24 C 223.89 193.12 220.00 202.43 213.79 207.38 Q 210.11 210.33 204.49 211.81 Q 190.12 215.62 177.25 207.72 A 0.56 0.56 0.0 0 0 176.39 208.20 L 176.39 239.09 A 0.87 0.86 1.3 0 1 175.48 239.95 L 155.00 238.91 A 0.62 0.62 0.0 0 1 154.41 238.29 L 154.44 207.29 Z M 176.38 190.67 A 1.49 1.47 -79.3 0 0 177.31 192.05 Q 181.52 193.70 186.02 194.67 C 196.17 196.85 201.16 189.18 202.90 180.37 Q 205.11 169.17 202.17 159.58 C 200.65 154.61 197.35 150.06 192.04 149.19 C 187.97 148.53 183.53 150.17 180.37 153.09 C 177.83 155.44 176.34 156.42 176.35 159.49 Q 176.40 175.86 176.38 190.67 Z"/>
<path fill="#ef7d00" d="M 120.74 134.98 A 0.71 0.71 0.0 0 1 121.44 134.12 L 143.49 134.12 A 0.48 0.47 -0.0 0 1 143.97 134.59 L 143.97 237.33 A 0.59 0.58 -0.0 0 1 143.38 237.91 L 123.66 237.91 A 0.98 0.97 0.0 0 1 122.68 236.94 Q 122.68 173.55 122.66 161.36 Q 122.65 153.25 122.21 148.16 Q 121.28 137.35 120.74 134.98 Z"/>
<path fill="#2c2c36" d="M 56.32 150.17 C 56.61 154.86 51.72 157.96 47.68 155.69 Q 44.12 153.69 43.79 153.55 C 36.05 150.23 31.78 156.17 27.54 161.61 Q 26.02 163.55 24.55 164.41 Q 14.29 170.38 6.12 162.12 Q 2.81 158.77 2.48 153.56 Q 2.15 148.34 5.02 144.60 Q 12.09 135.38 23.01 140.01 Q 24.58 140.68 26.33 142.42 C 31.22 147.28 36.20 152.64 43.46 148.37 Q 43.77 148.19 47.06 145.76 C 50.78 143.00 56.02 145.46 56.32 150.17 Z"/>
<circle fill="#2c2c36" cx="90.33" cy="148.56" r="4.82"/>
<path fill="#2c2c36" d="M 60.83 165.03 C 64.23 164.52 65.79 162.12 68.09 158.97 A 2.75 2.70 -88.3 0 1 68.82 158.27 C 72.64 155.75 78.03 157.76 78.70 162.56 C 79.15 165.88 76.51 169.31 72.98 169.44 C 70.82 169.52 69.08 168.75 67.16 168.16 C 62.77 166.82 59.78 170.87 58.23 174.38 C 56.57 178.10 53.64 179.87 49.49 179.78 C 36.92 179.48 37.26 160.76 50.46 161.39 C 53.76 161.54 57.61 164.31 59.80 164.96 A 2.40 2.34 48.2 0 0 60.83 165.03 Z"/>
</svg>
</svg>
