<svg width="65" height="62" viewBox="0 0 65 62" fill="none" xmlns="http://www.w3.org/2000/svg">
<circle cx="32" cy="31" r="31" fill="#F5F5F5"/>
<g clip-path="url(#clip0_1613_54)">
<path d="M45.2 32.7927C45.1966 33.1087 45.0687 33.4106 44.844 33.6329C44.6193 33.8551 44.3161 33.9798 44 33.9798C43.684 33.9798 43.3807 33.8551 43.156 33.6329C42.9314 33.4106 42.8034 33.1087 42.8 32.7927V22C42.8034 21.684 42.9314 21.3821 43.156 21.1598C43.3807 20.9376 43.684 20.8129 44 20.8129C44.3161 20.8129 44.6193 20.9376 44.844 21.1598C45.0687 21.3821 45.1966 21.684 45.2 22V32.7927ZM44.7813 40.3039C44.5958 40.4627 40.1505 44.1929 32 44.1929C23.8497 44.1929 19.4045 40.4625 19.219 40.3038C18.9774 40.0966 18.828 39.8019 18.8036 39.4846C18.7792 39.1673 18.8818 38.8533 19.0889 38.6116C19.2956 38.3703 19.5895 38.2209 19.9062 38.1961C20.2229 38.1712 20.5365 38.273 20.7783 38.4791C20.8487 38.5382 24.8183 41.7927 32.0001 41.7927C39.2721 41.7927 43.1803 38.5147 43.2189 38.4817C43.7211 38.0504 44.48 38.1083 44.9111 38.6118C45.1182 38.8534 45.2209 39.1674 45.1966 39.4847C45.1723 39.802 45.0229 40.0967 44.7813 40.3039ZM18.8 22C18.8034 21.684 18.9313 21.3821 19.156 21.1598C19.3807 20.9376 19.6839 20.8129 20 20.8129C20.316 20.8129 20.6193 20.9376 20.844 21.1598C21.0686 21.3821 21.1966 21.684 21.2 22V32.7927C21.1966 33.1087 21.0686 33.4106 20.844 33.6329C20.6193 33.8551 20.316 33.9798 20 33.9798C19.6839 33.9798 19.3807 33.8551 19.156 33.6329C18.9313 33.4106 18.8034 33.1087 18.8 32.7927V22ZM24.8001 19.6C24.805 19.2849 24.9335 18.9844 25.158 18.7633C25.3825 18.5422 25.685 18.4182 26.0001 18.4182C26.3152 18.4182 26.6177 18.5422 26.8422 18.7633C27.0667 18.9844 27.1952 19.2849 27.2 19.6V35.6313C27.1952 35.9464 27.0667 36.2469 26.8422 36.468C26.6177 36.6891 26.3152 36.8131 26.0001 36.8131C25.685 36.8131 25.3825 36.6891 25.158 36.468C24.9335 36.2469 24.805 35.9464 24.8001 35.6313V19.6ZM30.8 18.9927C30.8 18.8351 30.8311 18.6791 30.8914 18.5335C30.9516 18.3879 31.04 18.2556 31.1515 18.1442C31.2629 18.0328 31.3952 17.9444 31.5408 17.8841C31.6864 17.8238 31.8424 17.7928 32 17.7928C32.1576 17.7927 32.3137 17.8238 32.4593 17.884C32.6049 17.9443 32.7372 18.0327 32.8486 18.1441C32.9601 18.2556 33.0485 18.3879 33.1088 18.5335C33.1691 18.6791 33.2001 18.8351 33.2001 18.9927V36.3927C33.1967 36.7087 33.0687 37.0106 32.8441 37.2329C32.6194 37.4551 32.3161 37.5798 32.0001 37.5798C31.684 37.5798 31.3808 37.4551 31.1561 37.2329C30.9314 37.0106 30.8035 36.7087 30.8 36.3927V18.9927ZM36.8001 19.6C36.8049 19.2849 36.9335 18.9844 37.158 18.7633C37.3825 18.5422 37.6849 18.4182 38 18.4182C38.3152 18.4182 38.6176 18.5422 38.8421 18.7633C39.0666 18.9844 39.1952 19.2849 39.2 19.6V35.6313C39.1952 35.9464 39.0666 36.2469 38.8421 36.468C38.6176 36.6891 38.3152 36.8131 38 36.8131C37.6849 36.8131 37.3825 36.6891 37.158 36.468C36.9335 36.2469 36.8049 35.9464 36.8001 35.6313V19.6ZM45.5 13H18.5C16.0147 13 14 15.0147 14 17.5V44.5C14 46.9851 16.0147 49 18.5 49H45.5C47.9853 49 50 46.9851 50 44.5V17.5C50 15.0147 47.9853 13 45.5 13Z" fill="#1F8DED"/>
</g>
<defs>
<clipPath id="clip0_1613_54">
<rect width="36" height="36" fill="white" transform="translate(14 13)"/>
</clipPath>
</defs>
</svg>
