<svg width="66" height="66" viewBox="0 0 66 66" fill="none" xmlns="http://www.w3.org/2000/svg">
<circle cx="32.9183" cy="32.9183" r="32.9183" fill="#F5F5F5"/>
<g transform="translate(13 22.25)">
<g transform="scale(0.5378)" fill="#084E8F">
<g transform="translate(0,41) scale(0.1,-0.1)">
<path d="M0 210 l0 -200 65 0 65 0 0 200 0 200 -65 0 -65 0 0 -200z"/>
<path d="M212 358 l3 -53 191 -3 c211 -3 228 -7 206 -57 l-11 -25 -193 -2 -193 -3 -3 -102 -3 -103 66 0 65 0 0 49 0 50 143 3 c118 2 149 6 181 23 57 29 80 65 80 125 0 62 -23 96 -84 128 -42 21 -56 22 -248 22 l-203 0 3 -52z"/>
</g>
</g>
</g>
</svg>
