<svg width="66" height="66" viewBox="0 0 66 66" fill="none" xmlns="http://www.w3.org/2000/svg">
<circle cx="32.9183" cy="32.9183" r="32.9183" fill="#F5F5F5"/>
<g clip-path="url(#clip0_406_18)">
<path fill-rule="evenodd" clip-rule="evenodd" d="M34.7755 43.1478L37.4026 46.1789L40.4374 43.5553L43.4103 40.9878C46.6052 38.2115 48.5665 34.2889 48.871 30.076C49.1755 25.863 47.7974 21.6959 45.0362 18.4917C42.2542 15.3027 38.3265 13.3465 34.1045 13.0408C29.8826 12.7352 25.7123 14.1157 22.502 16.8717C19.3071 19.643 17.3458 23.5706 17.0413 27.7836C16.7368 31.9965 18.1149 36.1636 20.8762 39.3679L31.3587 51.4616C32.2929 52.5416 33.2787 53.7133 34.8013 52.4652L34.8478 52.4295L34.8942 52.3888C36.3497 51.0592 35.3329 49.9231 34.3936 48.8381L33.7381 48.0841L23.911 36.7392C21.8465 34.3398 20.8142 31.2222 21.0465 28.0688C21.2736 24.9155 22.7445 21.9761 25.1291 19.8977C27.5342 17.8345 30.6568 16.8106 33.8155 17.0347C36.9742 17.2639 39.9162 18.726 42.0013 21.1101C44.0658 23.5095 45.0981 26.6272 44.871 29.7805C44.6439 32.9338 43.1729 35.8732 40.7884 37.9517L37.8155 40.5192L35.1884 37.4881L32.5613 34.457L29.991 31.4922C29.32 30.7026 28.9845 29.6786 29.062 28.6445C29.1394 27.6103 29.6142 26.6475 30.3936 25.9598C31.1884 25.2874 32.2103 24.9562 33.2478 25.0327C34.2852 25.1091 35.2503 25.5828 35.9368 26.3623C36.5097 27.0347 36.84 27.8803 36.8762 28.7616C36.9123 29.643 36.6542 30.5141 36.1433 31.2324C36.1174 31.268 36.0968 31.2986 36.071 31.3291C35.8078 31.7061 35.6839 32.1544 35.7045 32.6129C35.7303 33.0714 35.9007 33.5044 36.2 33.8508C37.5213 35.374 38.9768 34.3246 39.751 33.0357C40.6129 31.5991 41.0052 29.9282 40.8658 28.2573C40.7265 26.5864 40.0658 25.0072 38.9716 23.7336C37.5884 22.1544 35.6323 21.1814 33.5368 21.0286C31.4362 20.8758 29.3665 21.5584 27.7665 22.9236C26.182 24.3042 25.2116 26.2553 25.0568 28.3541C24.9071 30.4478 25.5884 32.5161 26.9562 34.1157L29.5265 37.0805L32.1536 40.1065L34.7807 43.1376L34.7755 43.1478Z" fill="#3091CF"/>
</g>
<defs>
<clipPath id="clip0_406_18">
<rect width="32" height="40" fill="white" transform="translate(17 13)"/>
</clipPath>
</defs>
</svg>
