<svg width="66" height="66" viewBox="0 0 66 66" fill="none" xmlns="http://www.w3.org/2000/svg">
<ellipse cx="32.9183" cy="33" rx="32.9183" ry="33" fill="#F5F5F5"/>
<g clip-path="url(#clip0_499_2)">
<path d="M24.4162 50.8794C25.1878 51.6505 24.6574 52.9517 23.5482 52.9517H16.5076C15.1091 52.9517 14 51.8915 14 50.5421V43.7951C14 42.7348 15.3503 42.2047 16.1218 42.9276L24.4162 50.8794Z" fill="#0A1551"/>
<path d="M35.3629 51.4578C33.2893 49.4337 33.2893 46.1084 35.3629 44.0843L42.8376 36.7108C44.9112 34.6867 48.2868 34.6867 50.3604 36.7108C52.434 38.7349 52.434 42.0602 50.3604 44.0843L42.8858 51.4578C40.8122 53.4819 37.4365 53.4819 35.3629 51.4578Z" fill="#FFB21D"/>
<path d="M15.5913 32.9518C13.5177 30.9277 13.5177 27.6024 15.5913 25.5783L26.8274 14.5421C28.901 12.518 32.2766 12.518 34.3502 14.5421C36.4238 16.5662 36.4238 19.8915 34.3502 21.9156L23.1142 32.9518C21.0406 35.024 17.6649 35.024 15.5913 32.9518Z" fill="#0099FF"/>
<path d="M25.8629 41.8193C23.7893 39.7952 23.7893 36.4699 25.8629 34.4458L42.934 17.6747C45.0076 15.6506 48.3832 15.6506 50.4568 17.6747C52.5305 19.6988 52.5305 23.0241 50.4568 25.0482L33.3858 41.8193C31.3122 43.8434 27.9848 43.8434 25.8629 41.8193Z" fill="#FF6100"/>
</g>
<defs>
<clipPath id="clip0_499_2">
<rect width="38" height="40" fill="white" transform="translate(14 13)"/>
</clipPath>
</defs>
</svg>
