<svg width="66" height="66" viewBox="0 0 66 66" fill="none" xmlns="http://www.w3.org/2000/svg">
<circle cx="32.9183" cy="32.9183" r="32.9183" fill="#F5F5F5"/>
<g clip-path="url(#clip0_271_32)">
<path fill-rule="evenodd" clip-rule="evenodd" d="M57.356 44.8437C58.0212 44.1608 58.5492 43.3479 58.9096 42.452C59.2699 41.5562 59.4553 40.5951 59.4551 39.6244C59.4542 38.4895 59.2002 37.3702 58.713 36.354C58.2257 35.3378 57.5184 34.4523 56.6464 33.7666C55.7713 33.0778 54.7561 32.6054 53.6781 32.3855C52.6001 32.1657 51.488 32.2042 50.4265 32.4981C50.382 31.2975 50.0713 30.1238 49.5185 29.0679C48.9657 28.012 48.1858 27.1024 47.2392 26.4098C46.2891 25.7138 45.1985 25.2515 44.0503 25.058C42.9021 24.8645 41.7264 24.945 40.6127 25.2932C39.6339 23.62 38.1898 22.293 36.4703 21.4867C34.7507 20.6804 32.8362 20.4325 30.9783 20.7756C29.1222 21.1115 27.4083 22.0239 26.0633 23.3922C24.7183 24.7605 23.8057 26.5201 23.4463 28.4381C21.9839 28.3246 20.5232 28.6795 19.2615 29.4548C17.9999 30.23 16.9982 31.3883 16.3917 32.7729C15.0814 32.2315 13.6465 32.1014 12.2655 32.3989C10.8845 32.6964 9.61827 33.4083 8.62427 34.4461C7.63365 35.4787 6.96161 36.7936 6.69365 38.2234C6.4257 39.6532 6.57394 41.1334 7.11951 42.4756C7.6692 43.8211 8.58938 44.9684 9.76486 45.7741C10.9403 46.5798 12.3189 47.008 13.7279 47.0051H13.7773L13.8168 47.0017V47.0051H15.7002C16.1234 45.1134 18.1253 43.529 20.8714 42.7641C20.1243 42.0061 19.6131 41.0335 19.4036 39.9716C19.1941 38.9097 19.2959 37.807 19.6959 36.8056C20.0987 35.8017 20.7795 34.9443 21.6522 34.3417C22.5248 33.739 23.5503 33.4183 24.5987 33.42C25.6472 33.4183 26.6726 33.739 27.5453 34.3417C28.418 34.9443 29.0987 35.8017 29.5015 36.8056C29.9013 37.8072 30.0029 38.9099 29.7931 39.9719C29.5833 41.0338 29.0718 42.0063 28.3244 42.7641C29.2372 43.0104 30.1146 43.3806 30.9338 43.8654C32.2318 42.7176 33.772 41.9029 35.43 41.4871C34.5537 40.5981 33.9541 39.4575 33.7082 38.2122C33.4623 36.9668 33.5815 35.6736 34.0504 34.499C34.5235 33.3225 35.322 32.3177 36.3451 31.6113C37.3683 30.9048 38.5702 30.5284 39.7994 30.5295C42.3199 30.5295 44.5902 32.0968 45.5501 34.499C46.0189 35.6736 46.1381 36.9668 45.8922 38.2122C45.6463 39.4575 45.0467 40.5981 44.1704 41.4871C47.6508 42.4568 50.1104 44.5483 50.3162 47.0051H52.2013L52.1996 47.0017H52.2161L52.2375 47.0034H52.2885C54.1857 47.0043 56.008 46.2281 57.356 44.8437Z" fill="black"/>
</g>
<defs>
<clipPath id="clip0_271_32">
<rect width="54" height="28" fill="white" transform="translate(6 19)"/>
</clipPath>
</defs>
</svg>
