<svg width="66" height="66" viewBox="0 0 66 66" fill="none" xmlns="http://www.w3.org/2000/svg">
<circle cx="32.9183" cy="32.9183" r="32.9183" fill="#F5F5F5"/>
<g clip-path="url(#clip0_488_29)">
<path d="M43.8572 48.4008C43.8229 48.539 43.6869 48.6081 43.4498 48.6081H38.9149C38.6423 48.6081 38.4058 48.4873 38.2018 48.2452L30.7121 38.5646L28.6235 40.5835V48.0907C28.6235 48.4362 28.4532 48.6086 28.1138 48.6086H24.5983C24.2583 48.6086 24.0886 48.4362 24.0886 48.0907V13.8704C24.0886 13.5261 24.2583 13.353 24.5983 13.353H28.1138C28.4532 13.353 28.6235 13.5261 28.6235 13.8704V34.9408L37.5903 25.726C37.828 25.485 38.0658 25.3637 38.3035 25.3637H42.9915C43.1949 25.3637 43.3303 25.4502 43.3989 25.6221C43.4669 25.8293 43.4498 25.9844 43.3481 26.0883L33.8709 35.4059L43.7549 47.8828C43.8903 48.021 43.9246 48.1935 43.8572 48.4008Z" fill="#20BEFF"/>
</g>
<defs>
<clipPath id="clip0_488_29">
<rect width="20" height="36" fill="white" transform="translate(24 13)"/>
</clipPath>
</defs>
</svg>
