<svg width="66" height="66" viewBox="0 0 66 66" fill="none" xmlns="http://www.w3.org/2000/svg">
<circle cx="32.9183" cy="32.9183" r="32.9183" fill="#F5F5F5"/>
<path fill-rule="evenodd" clip-rule="evenodd" d="M51.5281 24.3521V29.7334L35.8871 20.7647L42.8294 16.7601L49.2698 20.4728C50.6498 21.2652 51.5281 22.7671 51.5281 24.3521ZM13.513 35.6568L29.154 44.6672L22.2117 48.6719L15.7713 44.9592C14.3912 44.1666 13.513 42.6649 13.513 41.0797V35.6568ZM23.8427 37.7426V29.6082L39.5673 38.6604L32.5415 42.7066L23.8427 37.7426ZM32.5415 22.6836L41.2402 27.6893V35.782L25.5155 26.7299L32.5415 22.6836ZM32.5415 11.5458C33.3361 11.5458 34.1306 11.7543 34.7998 12.1298L39.4837 14.8412L23.8427 23.8516V15.8841L30.3249 12.1715C30.9523 11.7543 31.7469 11.5458 32.5415 11.5458ZM15.7713 20.4728L20.4552 17.7613V35.782L13.513 31.8191V24.3521C13.513 22.7671 14.3912 21.2652 15.7713 20.4728ZM41.2402 49.5478L34.7579 53.2605C34.0888 53.636 33.2942 53.8445 32.4996 53.8445C31.705 53.8445 30.9104 53.636 30.2413 53.2605L25.5574 50.5491L41.1983 41.5387L41.2402 49.5478ZM49.2698 44.9592L44.5858 47.629V29.6082L51.5281 33.5712V41.0381C51.5281 42.6649 50.6498 44.1666 49.2698 44.9592ZM51.0262 17.4275L36.5562 9.08458C35.3435 8.37543 33.9215 8 32.5415 8C31.1195 8 29.7394 8.37543 28.5266 9.08458L14.0566 17.4275C11.5474 18.8458 10 21.5155 10 24.3521V41.0381C10 43.8747 11.5474 46.5444 14.0148 47.9628L28.4848 56.3056C29.6977 57.0148 31.0777 57.3902 32.4996 57.3902C33.9215 57.3902 35.3016 57.0148 36.5144 56.3056L50.9844 47.9628C53.4518 46.5444 54.9991 43.8747 54.9991 41.0381V24.3521C55.041 21.5155 53.5355 18.8458 51.0262 17.4275Z" fill="#462DE0"/>
</svg>
