<svg width="66" height="66" viewBox="0 0 66 66" fill="none" xmlns="http://www.w3.org/2000/svg">
<circle cx="32.9183" cy="32.9183" r="32.9183" fill="#F5F5F5"/>
<path d="M34.4843 12L31.4343 12.007C28.0879 12.0147 25.3813 14.7634 25.3889 18.1464L25.3958 21.2297C25.3971 21.8251 24.3194 22.6226 23.7589 22.4399L20.8561 21.4937C17.6711 20.4556 14.2567 22.2242 13.2299 25.444L12.294 28.3786C11.2671 31.5984 13.0166 35.0501 16.2015 36.0882L19.1043 37.0343C19.665 37.2171 20.0844 38.497 19.7392 38.9796L17.9521 41.478C15.9913 44.2196 16.6001 48.0487 19.3118 50.031L21.7833 51.8379C24.4951 53.8201 28.283 53.2047 30.2438 50.4632L32.0309 47.9646C33.9917 45.2234 33.3829 41.3939 30.6712 39.4116L28.1997 37.605C27.3567 36.9888 26.4113 34.085 26.7305 33.084L27.6664 30.1495C27.9853 29.1498 30.4297 27.3436 31.4688 27.3413C31.4688 27.3413 33.3625 27.045 34.5187 27.3343C36.3032 27.7807 38.0093 29.1228 38.3332 30.1227L39.2822 33.0529C40.3236 36.268 43.7457 38.0209 46.9262 36.9682L49.8247 36.0088C53.0049 34.9561 54.7387 31.4964 53.6977 28.2813L52.7486 25.3511C51.7073 22.1361 48.2848 20.3831 45.1047 21.4358L42.2061 22.3953C41.6457 22.5808 40.5656 21.791 40.564 21.1949L40.5572 18.1116C40.5498 14.7286 37.8306 11.9924 34.4843 12Z" fill="#AC86F9"/>
<path d="M38 43.6667C38 42.194 39.1939 41 40.6666 41H47.3336C48.8063 41 50 42.194 50 43.6667V50.3333C50 51.806 48.8063 53 47.3336 53H40.6666C39.1939 53 38 51.806 38 50.3333V43.6667Z" fill="#AC86F9"/>
</svg>
