<svg width="66" height="66" viewBox="0 0 66 66" fill="none" xmlns="http://www.w3.org/2000/svg">
<circle cx="32.9183" cy="32.9183" r="32.9183" fill="#F5F5F5"/>
<svg x="13" y="13" width="40" height="40" viewBox="0 0 192 192" fill="none">
<path fill="#2572b1" d="M 76.55 69.67 Q 76.68 69.90 76.37 70.51 L 66.08 80.65 Q 51.37 76.28 41.59 85.79 Q 40.32 87.01 38.43 90.09 Q 37.04 92.36 35.27 94.42 L 35.34 8.65 A 0.53 0.52 -2.4 0 1 35.83 8.13 Q 48.88 7.04 59.46 14.86 Q 71.42 23.68 75.17 37.15 Q 76.36 41.41 76.38 50.51 Q 76.39 59.95 76.55 69.67 Z"/>
<path fill="#e7ac11" d="M 100.52 107.20 Q 100.35 107.17 100.16 107.15 A 1.07 1.07 0.0 0 1 99.61 106.91 L 76.45 88.20 L 76.36 87.26 L 76.37 70.51 Q 76.68 69.90 76.55 69.67 Q 97.43 48.40 117.75 27.50 C 124.46 20.59 134.95 18.83 143.68 23.11 C 154.67 28.50 158.95 42.08 152.78 52.85 Q 151.55 55.01 147.82 58.83 Q 124.20 83.05 100.52 107.20 Z"/>
<path fill="#4988b3" d="M 76.37 70.51 L 76.36 87.26 L 66.08 80.65 L 76.37 70.51 Z"/>
<path fill="#5277b3" d="M 66.08 80.65 L 76.36 87.26 L 76.45 88.20 L 76.41 129.77 L 76.49 144.42 Q 73.00 139.99 69.18 138.49 Q 67.01 136.75 64.85 134.92 Q 52.26 124.30 44.60 118.27 Q 41.91 116.15 37.99 111.58 A 0.43 0.42 -46.6 0 0 37.33 111.60 L 35.28 114.30 L 35.27 94.42 Q 37.04 92.36 38.43 90.09 Q 40.32 87.01 41.59 85.79 Q 51.37 76.28 66.08 80.65 Z"/>
<path fill="#ff1f0f" fill-opacity="0.980" d="M 100.52 107.20 Q 100.62 107.62 100.81 107.86 L 100.37 107.82 A 1.11 1.08 -64.9 0 0 99.54 108.13 Q 88.34 119.39 77.54 130.77 A 0.72 0.71 -44.2 0 1 76.50 130.76 Q 76.25 130.47 76.41 129.77 L 76.45 88.20 L 99.61 106.91 A 1.07 1.07 0.0 0 0 100.16 107.15 Q 100.35 107.17 100.52 107.20 Z"/>
<path fill="#de0a14" d="M 100.81 107.86 Q 124.14 126.68 147.45 145.56 C 161.32 156.80 156.76 176.42 140.69 182.59 A 2.68 2.51 -53.6 0 1 139.77 182.76 L 127.93 182.78 A 1.70 1.00 3.6 0 1 127.69 182.77 Q 123.84 182.22 118.41 177.83 Q 97.79 161.19 76.47 143.98 Q 76.48 144.20 76.49 144.42 L 76.41 129.77 Q 76.25 130.47 76.50 130.76 A 0.72 0.71 -44.2 0 0 77.54 130.77 Q 88.34 119.39 99.54 108.13 A 1.11 1.08 -64.9 0 1 100.37 107.82 L 100.81 107.86 Z"/>
<path fill="#4988b3" d="M 69.18 138.49 Q 62.77 142.21 57.00 142.02 Q 40.43 141.47 35.34 124.38 L 35.28 114.30 L 37.33 111.60 A 0.43 0.42 -46.6 0 1 37.99 111.58 Q 41.91 116.15 44.60 118.27 Q 52.26 124.30 64.85 134.92 Q 67.01 136.75 69.18 138.49 Z"/>
<path fill="#2572b1" d="M 69.18 138.49 Q 73.00 139.99 76.49 144.42 Q 76.48 144.20 76.47 143.98 L 76.47 182.08 A 0.64 0.64 0.0 0 1 75.85 182.72 C 72.70 182.82 68.50 183.13 65.11 182.15 C 47.70 177.15 35.94 162.22 35.17 144.50 Q 34.97 139.93 35.34 124.38 Q 40.43 141.47 57.00 142.02 Q 62.77 142.21 69.18 138.49 Z"/>
</svg>
</svg>
