<svg width="66" height="66" viewBox="0 0 66 66" fill="none" xmlns="http://www.w3.org/2000/svg">
<circle cx="32.9183" cy="32.9183" r="32.9183" fill="#F5F5F5"/>
<path d="M18.813 37.9999H16.7911C16.4167 37.9999 16.048 37.9073 15.7163 37.7299C15.3847 37.5526 15.1001 37.2958 14.8869 36.9816L13.6175 35.1091L12.6248 33.6451C12.5796 33.5781 12.5146 33.5277 12.4394 33.5012C12.3641 33.4748 12.2825 33.4735 12.2065 33.4979C12.1306 33.5222 12.0642 33.5706 12.0172 33.6363C11.9702 33.7018 11.945 33.7811 11.9453 33.8624V37.391C11.9453 37.5525 11.8825 37.7074 11.7706 37.8216C11.6588 37.9358 11.5071 37.9999 11.3489 37.9999H9.59636C9.43827 37.9997 9.28673 37.9355 9.17494 37.8213C9.06315 37.7072 9.00024 37.5524 9 37.391V34.7641C9 34.4536 9.05991 34.146 9.1763 33.8591C9.29269 33.5722 9.46329 33.3115 9.67835 33.0919C9.89342 32.8723 10.1487 32.6981 10.4297 32.5793C10.7107 32.4604 11.0119 32.3992 11.316 32.3992H11.7727C11.8021 32.3992 11.8311 32.3919 11.8572 32.378C11.8833 32.364 11.9057 32.3438 11.9225 32.3191L13.6138 29.8283L14.8404 28.0192C15.0532 27.7046 15.3377 27.4475 15.6694 27.2699C16.001 27.0924 16.37 26.9997 16.7445 27H18.7646C18.7979 27 18.8305 27.0093 18.859 27.0268C18.8875 27.0444 18.9107 27.0695 18.9262 27.0995C18.9417 27.1296 18.9489 27.1634 18.947 27.1972C18.9451 27.2311 18.9341 27.2639 18.9153 27.2919L15.9554 31.657C15.7935 31.8952 15.7068 32.1783 15.7068 32.4683C15.7068 32.7583 15.7935 33.0413 15.9554 33.2796L18.9674 37.7071C18.9866 37.7354 18.9978 37.7686 18.9997 37.803C19.0016 37.8374 18.9942 37.8716 18.9782 37.9019C18.9622 37.9322 18.9383 37.9574 18.9092 37.9747C18.88 37.992 18.8467 38.0008 18.813 37.9999Z" fill="black"/>
<path d="M39 38H36.4262V33.3101C36.4262 33.0929 36.3396 32.8846 36.1854 32.731C36.0313 32.5774 35.8222 32.4911 35.6042 32.4911C35.3862 32.4911 35.1771 32.5774 35.023 32.731C34.8688 32.8846 34.7822 33.0929 34.7822 33.3101V37.9963H32.2131V37.8384C32.2131 37.0484 32.2131 35.0088 32.2131 33.7388C32.2126 33.5972 32.1841 33.457 32.1292 33.3264C32.0744 33.1958 31.9942 33.0772 31.8933 32.9775C31.7924 32.8777 31.6728 32.7988 31.5413 32.7451C31.4098 32.6915 31.2689 32.6642 31.1268 32.6648H30.5644V38H28V30.1854H28.1359C29.1088 30.1854 30.0817 30.1947 31.0546 30.1854C31.9919 30.1742 32.827 30.4114 33.4916 31.109C33.5993 31.0081 33.7015 30.9035 33.813 30.8102C34.2508 30.4422 34.7335 30.1565 35.3061 30.05C36.7955 29.7642 38.4611 30.7354 38.88 32.1502C38.9579 32.4148 38.9979 32.6889 38.9991 32.9646C39 34.6119 39 37.9655 39 38Z" fill="black"/>
<path d="M51 38H48.4273V33.3101C48.4312 33.2003 48.4127 33.0909 48.3732 32.9883C48.3333 32.8858 48.2737 32.7922 48.1967 32.7132C48.1201 32.6342 48.0286 32.5714 47.9271 32.5285C47.8256 32.4856 47.7164 32.4635 47.6061 32.4635C47.4959 32.4635 47.3868 32.4856 47.2853 32.5285C47.1839 32.5714 47.0921 32.6342 47.0155 32.7132C46.9388 32.7922 46.8789 32.8858 46.8393 32.9883C46.7997 33.0909 46.7813 33.2003 46.785 33.3101V37.9963H44.2132V37.8384C44.2132 37.0484 44.2132 35.0088 44.2132 33.7388C44.2132 33.453 44.0993 33.1788 43.8966 32.9767C43.6938 32.7746 43.4188 32.6611 43.132 32.6611H42.5699V37.9963H40V30.1854H40.1358C41.1083 30.1854 42.0808 30.1947 43.0533 30.1854C43.9902 30.1742 44.825 30.4114 45.4893 31.109C45.597 31.0081 45.6991 30.9035 45.8106 30.8102C46.2481 30.4422 46.7306 30.1565 47.3031 30.05C48.7916 29.7642 50.4568 30.7354 50.8756 32.1502C50.953 32.4148 50.9929 32.6889 50.9937 32.9646L51 38Z" fill="black"/>
<path d="M19.0001 33.9996C19.0001 32.0972 20.435 30.3799 22.3427 30.0616C23.8462 29.8108 25.0855 30.3352 26.0505 31.4706C26.4004 31.8684 26.6633 32.3328 26.8228 32.8349C26.9823 33.337 27.0349 33.866 26.9775 34.389C26.8755 35.425 26.3999 36.286 25.6241 36.9819C24.8825 37.6504 23.9964 38.0133 22.9814 37.9996C21.6401 37.9796 20.588 37.3913 19.7955 36.3453C19.2733 35.6718 18.9935 34.8466 19.0001 33.9996ZM21.451 33.9996C21.4514 34.2665 21.5149 34.5297 21.6364 34.7684C21.7364 34.988 21.8897 35.1801 22.0828 35.3278C22.2759 35.4755 22.5029 35.5743 22.7438 35.6155C22.9848 35.6568 23.2324 35.6392 23.4648 35.5643C23.6973 35.4895 23.9075 35.3596 24.077 35.1861C24.3371 34.9076 24.4977 34.5533 24.5345 34.1769C24.5714 33.8005 24.4823 33.4225 24.281 33.1004C24.0861 32.7675 23.7652 32.5241 23.3885 32.4233C23.0118 32.3225 22.6098 32.3724 22.2704 32.5623C21.7142 32.8751 21.4862 33.3867 21.4473 33.9959L21.451 33.9996Z" fill="black"/>
<path d="M61 33.8421C61.0047 35.9639 59.4644 37.7221 57.4899 37.9663C56.1216 38.1359 54.9798 37.6592 54.0588 36.6675C53.4758 36.0548 53.1125 35.2717 53.0241 34.4373C52.9026 33.2943 53.2422 32.2863 53.9893 31.4122C54.591 30.6813 55.4479 30.1963 56.3931 30.0514C57.6126 29.8619 58.6884 30.2 59.6 31.003C60.5116 31.8059 60.9789 32.7994 61 33.8421ZM58.5465 34.0007C58.5453 33.7432 58.4863 33.4891 58.373 33.257C57.8572 32.1714 56.5889 32.1797 56.0008 32.7502C55.7683 32.9605 55.5999 33.2301 55.5143 33.5289C55.4284 33.8277 55.4288 34.144 55.5147 34.4427C55.7476 35.3459 56.6276 35.8336 57.4872 35.5529C58.1022 35.3532 58.5465 34.7016 58.5465 34.0007Z" fill="black"/>
</svg>
