<svg width="66" height="66" viewBox="0 0 66 66" fill="none" xmlns="http://www.w3.org/2000/svg">
<circle cx="32.9183" cy="32.9183" r="32.9183" fill="#F5F5F5"/>
<g clip-path="url(#clip0_145_65)">
<path d="M32.509 54.5152C28.1641 54.5152 23.9163 53.2312 20.2999 50.8247C16.6835 48.4183 13.8601 44.9969 12.1849 40.9911C10.5097 36.9851 10.0574 32.5737 10.8851 28.3116C11.7127 24.0495 13.7833 20.1272 16.8363 17.0381C18.8623 14.9693 21.2792 13.3232 23.9468 12.1952C26.6145 11.0672 29.4797 10.4798 32.3763 10.4671H32.5135C36.5122 10.4661 40.436 11.5517 43.8649 13.6077C47.2936 15.6638 50.0983 18.6128 51.9788 22.1392C53.8591 25.6657 54.7445 29.6367 54.5398 33.6272C54.3352 37.6178 53.0485 41.4776 50.8174 44.7936C50.5542 45.182 50.4513 45.6568 50.5299 46.1193C50.8197 47.7453 51.3677 49.3146 52.1529 50.768L52.6703 51.7224C52.7274 51.8289 52.7585 51.9473 52.7607 52.0679C52.763 52.1886 52.7364 52.3081 52.6832 52.4166C52.63 52.5249 52.5518 52.6192 52.455 52.6914C52.3582 52.7634 52.2455 52.8116 52.1263 52.8316L51.0518 53.004C50.2285 53.1379 49.3961 53.2072 48.5619 53.2116H48.4426C46.6852 53.2051 44.9411 52.9064 43.2818 52.3279C43.0897 52.2612 42.888 52.2269 42.6848 52.2262C42.4229 52.2259 42.1643 52.2847 41.9285 52.3985C39.0235 53.7677 35.8536 54.4843 32.6417 54.4976L32.509 54.5152Z" fill="white"/>
<path d="M36.4581 29.0356C36.4669 29.8178 36.2427 30.5851 35.8142 31.2398C35.3856 31.8945 34.7719 32.4072 34.0511 32.7126C33.3304 33.0181 32.5349 33.1026 31.766 32.9553C30.9971 32.8081 30.2893 32.4358 29.7325 31.8857C29.1759 31.3356 28.7953 30.6327 28.6393 29.866C28.4833 29.0993 28.5589 28.3037 28.8565 27.58C29.154 26.8564 29.6601 26.2375 30.3104 25.8018C30.9608 25.3663 31.7261 25.1337 32.509 25.1337C33.0247 25.1307 33.5359 25.2293 34.0135 25.4238C34.4911 25.6183 34.9256 25.905 35.2923 26.2673C35.6591 26.6296 35.9507 27.0605 36.1508 27.5355C36.3507 28.0105 36.4552 28.5203 36.4581 29.0356Z" fill="#33405E"/>
<path d="M36.7102 43.0878C36.4577 42.7696 36.0896 42.5641 35.6862 42.5161C35.2827 42.4682 34.8767 42.5815 34.5565 42.8315C33.9795 43.2745 33.2693 43.5092 32.5417 43.4972C31.814 43.4851 31.1119 43.2271 30.55 42.7652C30.2564 42.5156 29.8818 42.3819 29.4965 42.3892C29.1111 42.3965 28.7419 42.5444 28.4581 42.805C28.2475 43.0042 28.0979 43.259 28.0266 43.5399C27.9553 43.8208 27.9655 44.116 28.0557 44.3914C28.1593 44.6873 28.3468 44.9467 28.5953 45.1383C29.7007 46.0389 31.0789 46.539 32.5053 46.5566C33.9316 46.5742 35.3218 46.1085 36.4492 45.2354C36.6084 45.1127 36.7416 44.9596 36.8411 44.785C36.9405 44.6104 37.0042 44.4178 37.0285 44.2184C37.0528 44.019 37.0371 43.8167 36.9825 43.6234C36.9278 43.43 36.8353 43.2494 36.7102 43.0922V43.0878Z" fill="#34405F"/>
<path d="M32.509 19.062C30.5389 19.0846 28.6196 19.6892 26.9925 20.7995C25.3655 21.9097 24.1035 23.4761 23.3655 25.3015C22.6274 27.1269 22.4463 29.1297 22.8448 31.0577C23.2434 32.9857 24.2038 34.7528 25.6052 36.1366C27.0066 37.5204 28.7864 38.4591 30.7205 38.8344C32.6546 39.2096 34.6566 39.0048 36.4744 38.2456C38.2923 37.4865 39.8448 36.207 40.9365 34.5681C42.0281 32.9292 42.6103 31.0042 42.6095 29.0356C42.5931 26.3747 41.5199 23.8293 39.6258 21.959C37.7317 20.0888 35.1718 19.0467 32.509 19.062ZM32.509 35.9954C31.136 35.9797 29.7983 35.5586 28.6642 34.785C27.5301 34.0115 26.6503 32.9201 26.1356 31.648C25.6208 30.3761 25.4939 28.9804 25.7711 27.6365C26.0482 26.2927 26.717 25.0608 27.6931 24.0958C28.6693 23.1308 29.9092 22.4759 31.2569 22.2134C32.6046 21.951 34 22.0927 35.2673 22.6206C36.5346 23.1487 37.6175 24.0394 38.3794 25.1809C39.1412 26.3223 39.5483 27.6635 39.5493 29.0356C39.5388 30.8912 38.7912 32.6668 37.471 33.9718C36.1509 35.277 34.3661 36.0048 32.509 35.9954Z" fill="#ED4078"/>
<path d="M54.1606 51.2584C53.1952 49.7951 52.5073 48.1669 52.1307 46.455C52.0832 46.2482 52.077 46.0339 52.1127 45.8245C52.1484 45.6151 52.2251 45.4149 52.3386 45.2354C54.764 41.387 56.0446 36.9287 56.0313 32.3807C56.0032 26.1678 53.5126 20.219 49.1048 15.8369C44.6971 11.4548 38.7311 8.99643 32.5134 9H32.3675C27.87 9.02408 23.4737 10.3363 19.6999 12.781C15.9261 15.2258 12.933 18.7006 11.0754 22.7935C9.21774 26.8863 8.57357 31.4256 9.2192 35.8732C9.86483 40.3208 11.7732 44.4901 14.718 47.8868C16.9213 50.4454 19.6525 52.4973 22.7242 53.9015C25.7961 55.3057 29.1354 56.0291 32.5134 56.0221H32.6373C35.9203 56.0041 39.1643 55.3107 42.1673 53.985C42.4896 53.8429 42.8527 53.8224 43.1889 53.9275C44.9008 54.4385 46.6781 54.6974 48.4646 54.6964H48.5575C50.1012 54.692 51.6374 54.4824 53.1258 54.0733C53.5927 53.943 53.99 53.6349 54.2322 53.2152C54.4744 52.7955 54.5424 52.2977 54.4215 51.8285C54.3692 51.6245 54.2809 51.4314 54.1606 51.2584ZM50.2601 51.5899C48.079 51.8615 45.8646 51.6317 43.7859 50.9182C42.9651 50.6314 42.0643 50.6791 41.2784 51.0508C38.5705 52.3285 35.6143 52.9953 32.6195 53.004H32.5134C28.4622 53.0129 24.4992 51.822 21.1249 49.5817C17.7506 47.3414 15.1163 44.1522 13.5548 40.4168C11.9933 36.6814 11.5745 32.5674 12.3514 28.5944C13.1283 24.6214 15.066 20.9675 17.9198 18.0942C19.8084 16.1723 22.0598 14.6438 24.5434 13.5971C27.0272 12.5503 29.694 12.0062 32.3896 11.9961H32.5134C36.2338 11.9952 39.8844 13.005 43.0748 14.9175C46.265 16.8301 48.875 19.5733 50.6253 22.8538C52.3755 26.1343 53.2003 29.8286 53.0113 33.5413C52.8224 37.2541 51.6269 40.8457 49.5525 43.9318C49.0572 44.6566 48.8681 45.5475 49.0263 46.4109C49.3209 48.0121 49.8405 49.5638 50.5697 51.0198C50.5999 51.0765 50.6156 51.1399 50.6153 51.2041C50.615 51.2684 50.5988 51.3315 50.5682 51.388C50.5375 51.4444 50.4933 51.4924 50.4395 51.5277C50.3859 51.5629 50.3242 51.5843 50.2601 51.5899Z" fill="#34405F"/>
</g>
<defs>
<clipPath id="clip0_145_65">
<rect width="47" height="47" fill="white" transform="translate(9 9)"/>
</clipPath>
</defs>
</svg>
