<svg width="62" height="62" viewBox="0 0 62 62" fill="none" xmlns="http://www.w3.org/2000/svg">
<circle cx="31" cy="31" r="31" fill="#F5F5F5"/>
<g transform="translate(9 9) scale(0.321)">
<path fill="#000" d="M0 66.796C0 35.308 0 19.564 9.782 9.782 19.564 0 35.308 0 66.796 0h2.536c31.488 0 47.232 0 57.014 9.782 9.782 9.782 9.782 25.526 9.782 57.014v2.536c0 31.488 0 47.232-9.782 57.014-9.782 9.782-25.526 9.782-57.014 9.782h-2.536c-31.488 0-47.232 0-57.014-9.782C0 116.564 0 100.82 0 69.332v-2.536z"/>
<path fill="#fff" fill-rule="evenodd" d="M69.332 5.566h-2.536c-15.901 0-27.267.012-35.905 1.173-8.477 1.14-13.489 3.295-17.173 6.979-3.684 3.684-5.839 8.695-6.979 17.173-1.16 8.638-1.173 20.004-1.173 35.905v2.536c0 15.901.012 27.267 1.173 35.905 1.14 8.477 3.295 13.488 6.979 17.173 3.684 3.684 8.695 5.838 17.173 6.978 8.638 1.161 20.004 1.173 35.905 1.173h2.536c15.901 0 27.267-.012 35.905-1.173 8.477-1.14 13.488-3.294 17.173-6.978 3.684-3.685 5.838-8.696 6.978-17.173 1.161-8.638 1.173-20.004 1.173-35.905v-2.536c0-15.901-.012-27.267-1.173-35.905-1.14-8.477-3.294-13.489-6.978-17.173-3.685-3.684-8.696-5.839-17.173-6.979-8.638-1.16-20.004-1.173-35.905-1.173zM9.782 9.782C0 19.564 0 35.308 0 66.796v2.536c0 31.488 0 47.232 9.782 57.014 9.782 9.782 25.526 9.782 57.014 9.782h2.536c31.488 0 47.232 0 57.014-9.782 9.782-9.782 9.782-25.526 9.782-57.014v-2.536c0-31.488 0-47.232-9.782-57.014C116.564 0 100.82 0 69.332 0h-2.536C35.308 0 19.564 0 9.782 9.782z" clip-rule="evenodd"/>
<path fill="#fff" d="M93.66 26.178c-8.982 0-16.288 7.307-16.288 16.29v6.98H58.756v-6.98c0-8.983-7.307-16.29-16.289-16.29-8.982 0-16.289 7.307-16.289 16.29 0 8.981 7.307 16.288 16.29 16.288h6.98v18.616h-6.98c-8.983 0-16.29 7.306-16.29 16.288 0 8.983 7.307 16.289 16.29 16.289 8.981 0 16.288-7.306 16.288-16.288V86.68h18.616v6.98c0 8.983 7.306 16.289 16.288 16.289 8.983 0 16.289-7.306 16.289-16.288 0-8.983-7.306-16.29-16.289-16.29h-6.98V58.757h6.98c8.983 0 16.289-7.307 16.289-16.289 0-8.982-7.306-16.289-16.289-16.289zm-6.98 23.27v-6.98a6.972 6.972 0 016.98-6.982 6.971 6.971 0 016.981 6.981 6.971 6.971 0 01-6.98 6.981H86.68zm-44.213 0a6.972 6.972 0 01-6.98-6.98 6.972 6.972 0 016.98-6.982 6.972 6.972 0 016.981 6.981v6.981h-6.98zm16.289 27.924V58.756h18.616v18.616H58.756zM93.66 100.64a6.971 6.971 0 01-6.98-6.98V86.68h6.98a6.971 6.971 0 016.981 6.98 6.971 6.971 0 01-6.98 6.981zm-51.193 0a6.971 6.971 0 01-6.98-6.98 6.972 6.972 0 016.98-6.981h6.981v6.98a6.971 6.971 0 01-6.98 6.981z"/>
</g>
</svg>
