<svg width="66" height="66" viewBox="0 0 66 66" fill="none" xmlns="http://www.w3.org/2000/svg">
<circle cx="32.9183" cy="32.9183" r="32.9183" fill="#F5F5F5"/>
<g clip-path="url(#clip0_5003_75)">
<path fill-rule="evenodd" clip-rule="evenodd" d="M10.1348 26.4102V36.7411H13.8649V38.5235H8.14844V26.4102H10.1348ZM20.8761 31.5496V30.4594H22.7586V38.5239H20.8765V37.4333C20.6229 37.8372 20.2636 38.1545 19.797 38.3849C19.3309 38.6158 18.8616 38.731 18.3896 38.731C17.7789 38.731 17.2206 38.6189 16.7142 38.3939C16.2206 38.1783 15.7767 37.863 15.4101 37.4678C15.0469 37.0747 14.7602 36.6171 14.5646 36.1185C14.3608 35.6004 14.258 35.0481 14.2617 34.4912C14.2617 33.9264 14.3624 33.3867 14.5641 32.8729C14.7585 32.371 15.0455 31.9102 15.4101 31.5147C15.7768 31.1197 16.2207 30.8046 16.7142 30.589C17.2206 30.3639 17.7789 30.2519 18.3896 30.2519C18.8616 30.2519 19.3309 30.3671 19.797 30.5979C20.2632 30.8288 20.6224 31.1457 20.8761 31.5496ZM20.7034 35.4779C20.8193 35.1621 20.878 34.8281 20.8765 34.4917C20.8765 34.1452 20.8184 33.8166 20.7034 33.5055C20.5955 33.2059 20.4315 32.9298 20.2202 32.6918C20.0093 32.4585 19.7537 32.2701 19.4686 32.1378C19.1752 31.9997 18.8499 31.9302 18.4934 31.9302C18.1359 31.9302 17.8134 31.9997 17.5257 32.1378C17.2442 32.2717 16.9918 32.46 16.7831 32.6918C16.5725 32.9285 16.4113 33.205 16.3089 33.505C16.1982 33.8219 16.1425 34.1555 16.1443 34.4912C16.1443 34.8373 16.1988 35.1663 16.3084 35.4774C16.4176 35.7894 16.576 36.0602 16.7835 36.2911C16.9922 36.523 17.2446 36.7113 17.5262 36.8451C17.8134 36.9836 18.1359 37.0527 18.4929 37.0527C18.8499 37.0527 19.1752 36.9836 19.4686 36.8451C19.7538 36.713 20.0094 36.5245 20.2202 36.2911C20.4315 36.0533 20.5955 35.7773 20.7034 35.4779ZM24.2439 38.5235V30.4594H29.3559V32.3157H26.1259V38.5244H24.2439V38.5235ZM36.1774 31.5496V30.4594H38.0599V38.5239H36.1774V37.4333C35.9242 37.8372 35.5645 38.1545 35.0979 38.3849C34.6318 38.6158 34.1629 38.731 33.6905 38.731C33.0803 38.731 32.522 38.6189 32.0155 38.3939C31.522 38.1783 31.078 37.863 30.7115 37.4678C30.3481 37.0747 30.0612 36.6171 29.8655 36.1185C29.6618 35.6004 29.5592 35.048 29.5631 34.4912C29.5631 33.9264 29.6637 33.3867 29.8655 32.8729C30.0597 32.371 30.3465 31.9102 30.711 31.5147C31.0778 31.1196 31.5219 30.8045 32.0155 30.589C32.522 30.3639 33.0803 30.2519 33.6905 30.2519C34.1625 30.2519 34.6318 30.3671 35.0979 30.5979C35.5645 30.8288 35.9242 31.1457 36.1774 31.5496ZM36.0047 35.4779C36.1205 35.1621 36.179 34.8281 36.1774 34.4917C36.1774 34.1452 36.1193 33.8166 36.0047 33.5055C35.8968 33.2059 35.7328 32.9298 35.5216 32.6918C35.3107 32.4585 35.0551 32.2701 34.77 32.1378C34.4765 31.9997 34.1508 31.9302 33.7943 31.9302C33.4373 31.9302 33.1147 31.9997 32.8271 32.1378C32.5455 32.2717 32.2932 32.46 32.0844 32.6918C31.8737 32.9285 31.7123 33.205 31.6098 33.505C31.4993 33.822 31.4437 34.1555 31.4456 34.4912C31.4456 34.8373 31.4997 35.1663 31.6098 35.4774C31.7189 35.7894 31.8773 36.0602 32.0844 36.2911C32.2931 36.523 32.5455 36.7113 32.8271 36.8451C33.1147 36.9836 33.4373 37.0527 33.7943 37.0527C34.1508 37.0527 34.4765 36.9836 34.77 36.8451C35.0552 36.713 35.3108 36.5245 35.5216 36.2911C35.7328 36.0533 35.8968 35.7773 36.0047 35.4779ZM45.6066 30.4594H47.5133L44.4242 38.5239H42.0576L38.9681 30.4594H40.8748L43.2409 36.6349L45.6066 30.4594ZM51.6192 30.2519C54.1822 30.2519 55.9301 32.5282 55.6017 35.1923H49.3569C49.3569 35.8881 50.0579 37.2329 51.7226 37.2329C53.1542 37.2329 54.1138 35.971 54.1142 35.9701L55.3861 36.9563C54.2489 38.1725 53.3179 38.7315 51.8599 38.7315C49.2549 38.7315 47.4891 37.08 47.4891 34.4917C47.4891 32.1503 49.3144 30.2519 51.6192 30.2519ZM49.3618 33.7906H53.8731C53.8592 33.6355 53.6145 31.75 51.604 31.75C49.5931 31.75 49.3761 33.6355 49.3618 33.7906ZM56.8275 38.5235V26.4102H58.71V38.5235H56.8275Z" fill="#FF2D20"/>
</g>
<defs>
<clipPath id="clip0_5003_75">
<rect width="51" height="13" fill="white" transform="translate(8 26)"/>
</clipPath>
</defs>
</svg>
