<svg width="66" height="66" viewBox="0 0 66 66" fill="none" xmlns="http://www.w3.org/2000/svg">
<circle cx="32.9183" cy="32.9183" r="32.9183" fill="#F5F5F5"/>
<svg x="13" y="13" width="40" height="40" viewBox="0 0 512 512" fill="none">
<path fill="#191919" d="M 319.30 232.27 A 0.21 0.20 -30.9 0 0 319.40 231.89 L 170.95 144.84 A 3.42 3.22 -5.1 0 1 170.25 144.29 Q 164.12 138.07 169.45 131.69 C 173.04 127.39 177.20 128.49 182.30 130.56 Q 236.98 152.80 348.41 198.04 A 0.20 0.20 0.0 0 0 348.65 197.74 Q 256.69 71.20 254.42 68.16 Q 251.31 63.97 250.87 61.85 C 249.37 54.54 256.29 49.39 263.04 51.91 Q 264.25 52.36 266.78 54.87 Q 374.76 161.93 386.33 173.42 Q 391.55 178.61 459.43 246.46 A 4.02 3.91 8.2 0 1 460.06 247.28 Q 464.00 254.14 461.75 260.87 Q 460.77 263.83 454.15 270.44 Q 376.98 347.51 267.60 456.33 Q 263.94 459.97 261.96 460.49 C 254.45 462.47 247.14 453.84 252.18 446.94 Q 304.26 375.59 348.62 314.73 A 0.20 0.20 0.0 0 0 348.38 314.42 Q 259.62 350.45 179.68 382.93 C 172.51 385.85 165.49 380.18 167.44 372.56 C 168.18 369.67 170.22 368.04 173.09 366.36 Q 257.33 316.96 319.25 280.66 A 0.27 0.27 0.0 0 0 319.13 280.16 Q 189.55 272.76 60.09 265.40 Q 55.86 265.16 54.18 264.24 C 46.16 259.86 48.89 247.68 58.01 247.17 Q 212.69 238.38 319.30 232.27 Z"/>
</svg>
</svg>
