<svg width="66" height="66" viewBox="0 0 66 66" fill="none" xmlns="http://www.w3.org/2000/svg">
<circle cx="32.9183" cy="32.9183" r="32.9183" fill="#F5F5F5"/>
<g clip-path="url(#clip0_101_2)">
<path d="M37.5663 32.3957C38.2892 32.8087 38.2892 33.8412 37.5663 34.2542L30.3584 38.372C29.6355 38.785 28.7319 38.2687 28.7319 37.4427V29.2071C28.7319 28.3811 29.6355 27.8649 30.3584 28.2779L37.5663 32.3957Z" fill="#4ADE80"/>
<path d="M39.5997 24.5973L49.659 16.0758C50.0174 15.7721 49.8031 15.1909 49.3311 15.1873L25.3566 15.0034C19.6349 14.848 16.5697 19.9906 15.7523 22.5813L13.0095 36.5529C12.9483 36.8646 13.1896 37.1542 13.5105 37.1542H22.886C23.1332 37.1542 23.3448 36.9789 23.3883 36.7382L25.4858 25.1347C25.5293 24.894 25.7409 24.7187 25.988 24.7187H39.268C39.3896 24.7187 39.5074 24.6756 39.5997 24.5973Z" fill="#513FF2"/>
<path d="M25.667 41.4691L15.4742 50.2982C15.1212 50.6038 15.3371 51.1793 15.8063 51.183L40.0461 51.373C45.8224 51.5335 48.9168 46.225 49.742 43.5505L52.5152 29.1063C52.575 28.7952 52.3338 28.5071 52.0138 28.5071H42.5378C42.2899 28.5071 42.0779 28.6834 42.0351 28.9251L39.9136 40.9263C39.8709 41.1678 39.6589 41.3441 39.411 41.3441H26.0031C25.8794 41.3441 25.76 41.3885 25.667 41.4691Z" fill="#513FF2"/>
</g>
<defs>
<clipPath id="clip0_101_2">
<rect width="40" height="37" fill="white" transform="translate(13 15)"/>
</clipPath>
</defs>
</svg>
