<svg width="62" height="62" viewBox="0 0 62 62" fill="none" xmlns="http://www.w3.org/2000/svg">
<circle cx="31" cy="31" r="31" fill="#F5F5F5"/>
<svg x="11" y="11" width="40" height="40" viewBox="0 0 128 128" fill="none">
<path fill-rule="evenodd" clip-rule="evenodd" d="M23.0205 0.650391H104.98C117.498 0.650391 127.646 10.7987 127.646 23.3173V105.276C127.646 117.795 117.498 127.943 104.98 127.943H23.0205C10.5019 127.943 0.353577 117.795 0.353577 105.276V23.3173C0.353577 10.7987 10.5019 0.650391 23.0205 0.650391ZM84.9057 58.6167H60.5225C58.6772 58.6167 57.1813 60.1126 57.1813 61.9579V66.641C57.1813 68.4863 58.6772 69.9822 60.5225 69.9822H84.9057C86.7507 69.9822 88.2464 68.4863 88.2464 66.641V61.9579C88.2464 60.1126 86.7507 58.6167 84.9057 58.6167ZM60.5225 34.747H90.2089C92.0539 34.747 93.5496 36.2429 93.5496 38.0882V42.7713C93.5496 44.6166 92.0539 46.1125 90.2089 46.1125H60.5225C58.6772 46.1125 57.1813 44.6166 57.1813 42.7713V38.0882C57.1813 36.2429 58.6772 34.747 60.5225 34.747ZM93.5496 90.5057V85.8221C93.5496 83.9777 92.0532 82.4813 90.2089 82.4813H54.5029C49.7022 82.4813 45.8157 78.5947 45.8157 73.7936V38.0882C45.8157 36.2439 44.3189 34.747 42.4745 34.747H37.7915C35.9471 34.747 34.4502 36.2439 34.4502 38.0882V80.7593C34.8992 87.7845 40.5125 93.3974 47.5371 93.8465H90.2089C92.0532 93.8465 93.5496 92.3501 93.5496 90.5057Z" fill="#316BFF"/>
<path d="M60.5225 34.7471H90.2089C92.0539 34.7471 93.5496 36.243 93.5496 38.0883V42.7714C93.5496 44.6167 92.0539 46.1126 90.2089 46.1126H60.5225C58.6772 46.1126 57.1813 44.6167 57.1813 42.7714V38.0883C57.1813 36.243 58.6772 34.7471 60.5225 34.7471Z" fill="white"/>
<path d="M60.5225 58.6167H84.9057C86.7508 58.6167 88.2465 60.1126 88.2465 61.9579V66.641C88.2465 68.4863 86.7508 69.9823 84.9057 69.9823H60.5225C58.6772 69.9823 57.1813 68.4863 57.1813 66.641V61.9579C57.1813 60.1126 58.6772 58.6167 60.5225 58.6167Z" fill="white"/>
<path d="M93.5496 85.8222V90.5059C93.5496 92.3502 92.0532 93.8466 90.2088 93.8466H47.5371C40.5125 93.3975 34.8992 87.7846 34.4501 80.7595V38.0883C34.4501 36.244 35.947 34.7471 37.7914 34.7471H42.4745C44.3189 34.7471 45.8157 36.244 45.8157 38.0883V73.7937C45.8157 78.5948 49.7022 82.4815 54.5029 82.4815H90.2088C92.0532 82.4815 93.5496 83.9779 93.5496 85.8222Z" fill="white"/>
</svg>
</svg>
