<svg width="66" height="66" viewBox="0 0 66 66" fill="none" xmlns="http://www.w3.org/2000/svg">
<circle cx="32.9183" cy="32.9183" r="32.9183" fill="#F5F5F5"/>
<g clip-path="url(#clip0_2641_45)">
<path d="M10.5637 38.3005C10.4613 37.8642 10.9811 37.5894 11.298 37.9063L28.0937 54.702C28.4106 55.0188 28.1358 55.5386 27.6995 55.4363C19.2237 53.448 12.552 46.7763 10.5637 38.3005ZM10.0009 31.569C9.99275 31.6993 10.0418 31.8265 10.1341 31.9189L34.0811 55.8659C34.1735 55.9582 34.3007 56.0073 34.431 55.9991C35.5208 55.9312 36.5902 55.7875 37.6337 55.5732C37.9854 55.501 38.1076 55.0689 37.8537 54.8151L11.1849 28.1463C10.9311 27.8924 10.499 28.0146 10.4268 28.3663C10.2125 29.4098 10.0687 30.4791 10.0009 31.569ZM11.937 23.6645C11.8604 23.8364 11.8995 24.0374 12.0325 24.1705L41.8295 53.9674C41.9626 54.1006 42.1636 54.1396 42.3355 54.063C43.1571 53.697 43.9534 53.2843 44.7208 52.8283C44.9748 52.6775 45.014 52.3284 44.8051 52.1196L13.8804 21.1949C13.6715 20.986 13.3226 21.0252 13.1717 21.2791C12.7157 22.0466 12.303 22.8429 11.937 23.6645ZM15.823 18.314C15.6528 18.1438 15.6422 17.8707 15.8026 17.6912C20.0186 12.9713 26.1512 10 32.9779 10C45.6926 10 56 20.3074 56 33.0221C56 39.8487 53.0287 45.9814 48.3088 50.1974C48.1293 50.3578 47.8562 50.3472 47.6859 50.177L15.823 18.314Z" fill="#222326"/>
</g>
<defs>
<clipPath id="clip0_2641_45">
<rect width="46" height="46" fill="white" transform="translate(10 10)"/>
</clipPath>
</defs>
</svg>
