<svg width="66" height="66" viewBox="0 0 66 66" fill="none" xmlns="http://www.w3.org/2000/svg">
<circle cx="32.9183" cy="32.9183" r="32.9183" fill="#F5F5F5"/>
<path d="M46.3778 46.3786H40.7474V37.5608C40.7474 35.4581 40.7099 32.7513 37.819 32.7513C34.8865 32.7513 34.4378 35.0423 34.4378 37.4077V46.378H28.8074V28.2451H34.2126V30.7231H34.2883C34.8292 29.7982 35.6108 29.0373 36.55 28.5215C37.4891 28.0057 38.5506 27.7543 39.6213 27.794C45.328 27.794 46.3802 31.5478 46.3802 36.4312L46.3778 46.3786ZM22.4544 25.7664C21.8082 25.7666 21.1764 25.575 20.639 25.2161C20.1016 24.8572 19.6828 24.3469 19.4354 23.7499C19.188 23.1529 19.1231 22.4959 19.2491 21.8621C19.375 21.2282 19.6861 20.6459 20.143 20.1889C20.5999 19.7318 21.182 19.4205 21.8158 19.2943C22.4496 19.1681 23.1066 19.2327 23.7037 19.4799C24.3007 19.7271 24.8111 20.1458 25.1702 20.6831C25.5294 21.2204 25.7211 21.8521 25.7212 22.4983C25.7213 22.9274 25.6369 23.3524 25.4727 23.7488C25.3086 24.1453 25.068 24.5055 24.7647 24.809C24.4613 25.1125 24.1011 25.3532 23.7047 25.5175C23.3083 25.6818 22.8835 25.7664 22.4544 25.7664ZM25.2696 46.3786H19.6333V28.2451H25.2696V46.3786ZM49.1848 14.0026H16.8041C16.0691 13.9943 15.3609 14.2781 14.8351 14.7917C14.3093 15.3053 14.009 16.0067 14 16.7416V49.2578C14.0087 49.9931 14.3088 50.6949 14.8346 51.2091C15.3604 51.7232 16.0688 52.0076 16.8041 51.9998H49.1848C49.9216 52.009 50.6319 51.7254 51.1598 51.2113C51.6876 50.6972 51.9898 49.9946 52 49.2578V16.7393C51.9895 16.0029 51.6871 15.3007 51.1592 14.7871C50.6314 14.2736 49.9212 13.9905 49.1848 14.0002" fill="#0A66C2"/>
</svg>
