<svg width="66" height="66" viewBox="0 0 66 66" fill="none" xmlns="http://www.w3.org/2000/svg">
<circle cx="32.9183" cy="32.9183" r="32.9183" fill="#F5F5F5"/>
<path d="M59.8564 37.1432C58.4574 36.2918 55.4622 36.0472 50.9486 36.4157C52.3933 31.9446 54.0332 24.238 49.754 20.6977C47.8828 19.1491 44.9868 18.5852 41.5952 19.1093C40.5832 19.2666 39.5161 19.5191 38.4192 19.8606C35.1424 14.8637 30.8159 12 26.5367 12C21.5697 12 16.9929 15.2291 13.6469 21.09C9.95314 27.5656 8 36.8843 8 48.0421V48.1469L9.24019 48.9793L9.33619 48.9395C18.5227 45.0451 31.2566 41.4174 42.6197 39.4574C42.9676 42.3068 43.1438 45.1944 43.1438 48.0439V48.1424L44.3053 49L44.3983 48.9699C44.5683 48.9142 61.3989 43.4266 60.9928 38.83C60.9504 38.3503 60.7188 37.6673 59.8564 37.1432ZM59.0758 39.0031C59.1811 40.1975 53.8539 43.4869 46.4897 46.195C47.9111 43.8475 49.2361 41.106 50.2544 38.4043C54.6878 37.9834 57.7412 38.1263 58.8635 38.8093C59.0648 38.9316 59.0758 39.0031 59.0758 39.0031ZM48.152 38.6298C47.2627 40.8313 46.1844 42.9946 45.0105 44.9355C44.9396 42.9533 44.7947 41.006 44.5824 39.1318C45.8303 38.9364 47.0297 38.768 48.152 38.6298ZM48.5326 22.2002C51.1499 24.3651 51.2886 29.7463 48.9088 36.6127C47.4908 36.7699 45.9549 36.9796 44.3415 37.2353C43.4649 31.0789 41.825 25.82 39.4642 21.5967C40.5454 21.2726 41.3717 21.1106 41.8863 21.0296C44.7287 20.5897 47.0896 21.0058 48.5326 22.2002ZM26.5351 13.9441C30.3894 13.9441 33.7732 16.1503 36.5967 20.5039C27.8587 23.9442 18.4346 32.5434 9.98933 44.7814C10.5575 29.8019 15.9259 13.9441 26.5367 13.9441M11.5081 45.971C22.0245 30.6501 31.4723 24.6017 37.6228 22.2304C39.8168 26.26 41.4535 31.5554 42.3617 37.5656C32.2702 39.3287 20.2649 42.6022 11.5081 45.971Z" fill="black"/>
</svg>
