<svg width="66" height="66" viewBox="0 0 66 66" fill="none" xmlns="http://www.w3.org/2000/svg">
<path d="M32.9183 65.8366C51.0986 65.8366 65.8366 51.0986 65.8366 32.9183C65.8366 14.738 51.0986 0 32.9183 0C14.738 0 0 14.738 0 32.9183C0 51.0986 14.738 65.8366 32.9183 65.8366Z" fill="#F5F5F5"/>
<path fill-rule="evenodd" clip-rule="evenodd" d="M42.4162 30.0103C42.1583 30.0511 41.7335 30.1866 41.6849 30.2436C41.6787 30.2509 41.6232 30.286 41.5616 30.3218C41.4402 30.392 41.1351 30.6319 41.0746 30.7048L40.9871 30.806C40.9028 30.9009 40.6557 31.3235 40.6846 31.3235C40.6909 31.3235 40.6801 31.3544 40.6606 31.3923C40.5264 31.6519 40.4864 32.0496 40.4871 33.1234C40.4876 34.0582 40.5007 34.2566 40.5835 34.593C40.6338 34.7982 40.8366 35.2351 40.9312 35.3425C40.9437 35.3567 40.9879 35.4102 41.0297 35.4616C41.0714 35.5131 41.1676 35.6019 41.2434 35.659C41.3191 35.7161 41.3915 35.774 41.4039 35.7875C41.908 36.3348 43.619 36.3491 44.2274 35.8111C44.2707 35.7728 44.3316 35.7243 44.3625 35.7035C44.4614 35.6371 44.7015 35.3876 44.7508 35.3003C44.7768 35.254 44.8065 35.2159 44.8167 35.2159C44.8268 35.2159 44.835 35.2008 44.835 35.1822C44.835 35.1635 44.8438 35.1484 44.8547 35.1484C44.9 35.1484 45.0621 34.6765 45.1176 34.3835C45.208 33.9045 45.1848 32.1426 45.0818 31.6807C44.9039 30.8815 44.3273 30.2921 43.4962 30.0597C43.3404 30.0161 42.5954 29.9821 42.4162 30.0103ZM56.7022 30.0298C56.4732 30.0699 56.122 30.1854 56.0124 30.2566C55.9662 30.2865 55.9207 30.3111 55.9111 30.3112C55.9015 30.3114 55.8367 30.3543 55.7672 30.4068C55.2591 30.7898 55.0406 31.2018 55.012 31.8311C54.9711 32.7279 55.3052 33.2927 56.0287 33.5506C56.3658 33.6707 56.5344 33.7093 56.9625 33.7643C57.6383 33.8509 57.7485 33.8891 57.8404 34.0692C57.9894 34.3615 57.8454 34.6844 57.518 34.7917C57.1593 34.9092 56.1719 34.8111 56.0018 34.6411C55.9839 34.6231 55.9557 34.6084 55.9391 34.6084C55.9224 34.6084 55.9053 34.6009 55.9013 34.5915C55.8896 34.5655 55.7077 34.4285 55.6847 34.4285C55.6507 34.4285 54.7124 35.3706 54.7124 35.4046C54.7124 35.4446 54.9062 35.6157 55.0773 35.7269C55.1304 35.7615 55.1839 35.8017 55.1963 35.8165C55.2366 35.8646 55.6357 36.0263 55.8547 36.0832C56.846 36.3407 58.1967 36.1951 58.6235 35.7845C58.6399 35.7689 58.6617 35.7559 58.6723 35.7559C58.7506 35.7559 59.1244 35.3261 59.2299 35.1147C59.4559 34.6619 59.4775 33.9507 59.2812 33.4272C59.1133 32.9794 58.686 32.6366 58.1437 32.5147C58.0819 32.5008 58.016 32.4837 57.9975 32.4765C57.9757 32.4687 57.9531 32.4636 57.93 32.4614C57.9104 32.4598 57.8912 32.4542 57.8737 32.445C57.8613 32.4373 57.7904 32.4243 57.7162 32.4159C57.6223 32.4051 57.5285 32.3929 57.435 32.3794L57.1087 32.3349C56.7489 32.2886 56.4966 32.1351 56.4868 31.9562C56.478 31.7976 56.5455 31.5709 56.6016 31.5709C56.6089 31.5709 56.6483 31.5404 56.6893 31.5031C56.8768 31.3318 57.3466 31.2724 57.7387 31.3703C57.894 31.4092 58.1193 31.5208 58.2651 31.6311L58.3639 31.7059L58.8501 31.2206L59.3362 30.7353L59.2237 30.635C58.8854 30.3332 58.4818 30.1402 58.002 30.0505C57.7285 29.9994 56.9462 29.9868 56.7022 30.0298ZM35.0024 33.1013V36.1616L35.7732 36.1557L36.5437 36.1497L36.5552 34.6647L36.5721 33.2023C36.5751 33.2145 36.6003 33.2518 36.6281 33.2849C36.6627 33.3277 36.6945 33.3728 36.7232 33.4199C36.9331 33.773 37.0733 33.9951 37.1214 34.0501C37.1464 34.0787 37.1916 34.1478 37.2217 34.2034C37.2581 34.2697 37.2967 34.3348 37.3375 34.3985C37.4899 34.6342 37.641 34.8708 37.7909 35.1082C38.081 35.5656 38.1375 35.6514 38.1762 35.694C38.1959 35.7156 38.2337 35.7763 38.2603 35.829C38.2869 35.8816 38.3419 35.9753 38.3827 36.0373L38.4568 36.1497H39.8287V30.0522L39.0582 30.0462L38.2878 30.0404L38.282 31.5426L38.2762 33.0447L38.1732 32.8872C38.1049 32.7824 38.0374 32.6771 37.9707 32.5714L37.8434 32.3689C37.828 32.3446 37.7961 32.2893 37.7724 32.2459C37.7443 32.1961 37.7119 32.149 37.6754 32.105C37.6459 32.0707 37.562 31.9441 37.4893 31.8236C37.3328 31.5646 37.2032 31.3617 37.1842 31.346C37.1719 31.3328 37.162 31.3175 37.1549 31.3009C37.1462 31.2824 37.1093 31.2217 37.0727 31.1659C37.025 31.0928 36.9782 31.019 36.9324 30.9447L36.8191 30.7646C36.7982 30.7333 36.7803 30.7001 36.7658 30.6653C36.7584 30.6437 36.7446 30.6259 36.7354 30.6259C36.7263 30.6259 36.665 30.5374 36.5995 30.4291C36.5405 30.3317 36.4814 30.2345 36.4221 30.1374L36.3638 30.0426L35.6831 30.0418L35.0024 30.041V33.1013ZM45.3185 30.0916C45.3117 30.1194 45.309 30.4257 45.3124 30.7723L45.3187 31.4022L46.0556 31.4081L46.7923 31.414L46.7981 33.7819L46.8037 36.1497L47.5743 36.1557L48.345 36.1616V31.414L49.0931 31.4081L49.8412 31.4022L49.8472 30.7216L49.8531 30.041H45.3309L45.3185 30.0916ZM50.3702 33.1009L50.3696 36.1609H54.5774V34.8109H51.9225V33.7764L53.0532 33.7706L54.1838 33.7647L54.1897 33.0728C54.193 32.6921 54.1878 32.382 54.1784 32.3835C54.1689 32.385 53.6576 32.3851 53.0418 32.3836L51.9225 32.3809V31.4135H54.5781L54.5722 30.7328L54.5662 30.0522L52.4685 30.0465L50.3706 30.0407L50.3702 33.1009ZM43.1624 31.4383C43.5587 31.6269 43.6315 31.9191 43.6131 33.2472C43.5995 34.2316 43.5717 34.3931 43.3762 34.6238C43.0841 34.9685 42.4245 34.9031 42.1919 34.5064C41.972 34.1309 41.9562 32.1748 42.1697 31.7456C42.2289 31.6268 42.4316 31.4359 42.4986 31.4359C42.5195 31.4346 42.5394 31.4262 42.5549 31.412C42.6348 31.3321 42.9696 31.3465 43.1624 31.4383Z" fill="#B82F00"/>
<path fill-rule="evenodd" clip-rule="evenodd" d="M14.5019 30.0187C13.385 30.1946 12.7607 30.8889 12.7621 31.9535C12.7635 32.8669 12.985 33.1976 13.8637 33.5972C13.9861 33.6528 14.3175 33.7168 14.8425 33.786C15.5101 33.874 15.643 33.9664 15.6258 34.3293C15.6065 34.7366 15.2463 34.9049 14.5412 34.8363C14.075 34.791 13.8192 34.707 13.5666 34.5168C13.4069 34.3964 13.4469 34.3723 12.9073 34.913L12.4237 35.3975L12.5502 35.5148C13.2526 36.1668 14.5977 36.4093 15.7425 36.0906C16.9449 35.7559 17.5262 34.4232 16.9666 33.2845C16.7807 32.906 16.171 32.4935 15.7978 32.4935C15.7694 32.4935 15.7428 32.484 15.7388 32.4722C15.7347 32.4605 15.4748 32.4152 15.1615 32.3715C14.539 32.2847 14.4204 32.2465 14.3188 32.101C14.2925 32.0632 14.2617 32.0259 14.2504 32.0181C14.1505 31.9491 14.3022 31.5846 14.4745 31.4798C14.5221 31.4508 14.5663 31.42 14.5725 31.4114C14.643 31.3128 15.6075 31.3177 15.6075 31.4165C15.6075 31.4273 15.6201 31.4361 15.6356 31.4362C15.6912 31.4366 15.9047 31.5492 16.0036 31.6303L16.1046 31.7131L16.1957 31.6252C16.5736 31.2609 17.07 30.7526 17.07 30.7302C17.07 30.6921 16.8886 30.5441 16.6882 30.4187C16.5951 30.3605 16.5054 30.3013 16.4892 30.2871C16.4157 30.2235 16.0467 30.1032 15.7556 30.0481C15.543 30.0079 14.6968 29.9881 14.5019 30.0187ZM6 33.101V36.1609H10.1175V34.8109H7.5525V30.041H6V33.101ZM10.6125 33.101V36.1609H12.165V30.041H10.6125V33.101ZM17.4353 30.7329L17.4412 31.4247L18.1894 31.4307L18.9375 31.4366V36.1609H20.49V31.4366L21.2381 31.4307L21.9863 31.4247L21.9922 30.7329L21.9982 30.041H17.4294L17.4353 30.7329ZM22.4925 33.101V36.1609H26.6775V34.8109H24.045V33.776H26.295V32.3809H24.045V31.4364L25.3556 31.4305L26.6662 31.4247L26.6721 30.7329L26.6781 30.041H22.4925V33.101ZM27.375 33.101V36.1609H28.9275V34.683C28.9275 33.2715 28.9293 33.207 28.967 33.2486C29.0093 33.2952 29.1078 33.4484 29.328 33.8098C29.4035 33.9334 29.481 34.0549 29.5004 34.0798C29.5198 34.1046 29.6177 34.2564 29.718 34.4173C29.8122 34.5687 29.9087 34.7187 30.0073 34.8672C30.1 35.0079 30.1898 35.1504 30.2765 35.2948C30.3657 35.4433 30.4771 35.6154 30.5241 35.6772C30.5711 35.7391 30.6131 35.8005 30.6178 35.8136C30.6225 35.8267 30.6717 35.9103 30.727 35.9992L30.8278 36.1609H32.2125V30.041H30.66L30.6596 31.5429L30.6592 33.0447L30.6098 32.966C30.5827 32.9227 30.5542 32.8822 30.5465 32.876C30.5322 32.8644 30.3888 32.6383 30.2008 32.3305C30.1423 32.2345 30.0814 32.1432 30.0658 32.1274C30.0501 32.1116 29.9732 31.9928 29.8949 31.8631C29.7742 31.6664 29.6507 31.4715 29.5243 31.2785C29.3987 31.0867 29.2625 30.8707 29.2216 30.7986C29.1758 30.7189 29.1255 30.6419 29.0711 30.5678C29.0292 30.513 28.938 30.372 28.8683 30.2546L28.7414 30.041H27.375V33.101Z" fill="black"/>
</svg>
