<svg width="66" height="66" viewBox="0 0 66 66" fill="none" xmlns="http://www.w3.org/2000/svg">
<circle cx="32.9183" cy="32.9183" r="32.9183" fill="#F5F5F5"/>
<g clip-path="url(#clip0_149_6)">
<path d="M13 13H53V53H13V13Z" fill="#061631"/>
<path d="M35.2547 41.1031C33.4238 41.1031 31.776 40.5334 30.3112 39.3942L31.4708 37.5328C32.773 38.5296 34.0546 39.028 35.3157 39.028C35.8446 39.028 36.2667 38.9009 36.5821 38.6466C36.7309 38.5348 36.8513 38.3895 36.9334 38.2225C37.0156 38.0555 37.0573 37.8715 37.0551 37.6854C37.0551 37.1158 36.3023 36.6072 34.7969 36.1596C34.7562 36.1393 34.7105 36.119 34.6596 36.0986C34.6259 36.0828 34.5898 36.0725 34.5528 36.0681C32.193 35.4374 31.0131 34.3693 31.0131 32.864C31.0131 31.8061 31.4149 30.9618 32.2184 30.3312C33.022 29.7005 34.085 29.3852 35.4073 29.3852C36.7093 29.3852 37.9502 29.7717 39.1302 30.5448L38.2452 32.3147C37.3537 31.7116 36.3004 31.3924 35.224 31.3992C33.9424 31.3992 33.3015 31.806 33.3015 32.6198C33.3015 32.9657 33.4287 33.2149 33.683 33.3674C33.9373 33.5199 34.3594 33.6674 34.9494 33.8099C35.7153 34.0117 36.4694 34.2562 37.208 34.5422C37.5793 34.7059 37.9366 34.8998 38.2761 35.122C39.0492 35.6509 39.4357 36.4545 39.4357 37.5327C39.4357 38.5905 39.0441 39.4501 38.2608 40.1112C37.4776 40.7724 36.4755 41.103 35.2547 41.1031ZM28.8796 41.08H26.4994V25.7931L28.8796 25.2424V41.08Z" fill="white"/>
<path d="M40.9842 28.653C40.5443 28.6527 40.1181 28.5004 39.7777 28.2219C39.4373 27.9434 39.2037 27.5557 39.1163 27.1247C39.029 26.6936 39.0934 26.2456 39.2985 25.8565C39.5037 25.4675 39.837 25.1613 40.2421 24.9899C40.7077 24.7948 41.2316 24.7922 41.6991 24.9828C42.1665 25.1734 42.5394 25.5415 42.7358 26.0066C42.9323 26.4716 42.9363 26.9955 42.7471 27.4635C42.5578 27.9315 42.1907 28.3054 41.7263 28.5032C41.4915 28.6025 41.2391 28.6535 40.9842 28.653ZM40.4402 25.9352C40.419 25.9352 40.3986 25.9437 40.3836 25.9587C40.3686 25.9737 40.3602 25.994 40.3602 26.0152V27.5048C40.3602 27.526 40.3686 27.5463 40.3836 27.5613C40.3986 27.5763 40.419 27.5848 40.4402 27.5848C40.4537 27.5847 40.4669 27.5813 40.4787 27.5747L41.8326 26.83C41.8451 26.8231 41.8556 26.8129 41.8629 26.8006C41.8701 26.7883 41.874 26.7742 41.874 26.7599C41.874 26.7456 41.8701 26.7315 41.8629 26.7192C41.8556 26.7068 41.8451 26.6967 41.8326 26.6898L40.4786 25.9452C40.4668 25.9387 40.4536 25.9353 40.4402 25.9352Z" fill="#196CFF"/>
</g>
<defs>
<clipPath id="clip0_149_6">
<rect width="40" height="40" fill="white" transform="translate(13 13)"/>
</clipPath>
</defs>
</svg>
