<svg width="66" height="66" viewBox="0 0 66 66" fill="none" xmlns="http://www.w3.org/2000/svg">
<circle cx="32.9183" cy="32.9183" r="32.9183" fill="#F5F5F5"/>
<g clip-path="url(#clip0_147_45)">
<path d="M11 11H54V54H11V11Z" fill="#061631"/>
<path d="M34.9238 41.2108C32.9556 41.2108 31.1841 40.5985 29.6095 39.3738L30.8561 37.3728C32.2559 38.4444 33.6337 38.9802 34.9894 38.9802C35.5579 38.9802 36.0117 38.8435 36.3507 38.5701C36.5107 38.4499 36.6401 38.2938 36.7284 38.1142C36.8168 37.9347 36.8615 37.7369 36.8592 37.5368C36.8592 36.9245 36.05 36.3778 34.4316 35.8966C34.3879 35.8748 34.3387 35.8529 34.2841 35.831C34.2478 35.8141 34.209 35.803 34.1693 35.7983C31.6324 35.1202 30.364 33.9721 30.364 32.3538C30.364 31.2166 30.7959 30.309 31.6598 29.631C32.5236 28.9531 33.6663 28.6141 35.0878 28.6141C36.4874 28.6141 37.8215 29.0296 39.0899 29.8607L38.1386 31.7633C37.1801 31.115 36.0479 30.7719 34.8908 30.7791C33.513 30.7791 32.8241 31.2165 32.8241 32.0913C32.8241 32.4631 32.9608 32.731 33.2342 32.895C33.5075 33.059 33.9613 33.2175 34.5956 33.3707C35.419 33.5876 36.2296 33.8504 37.0236 34.1579C37.4228 34.3339 37.8068 34.5423 38.1718 34.7811C39.0028 35.3498 39.4184 36.2136 39.4184 37.3727C39.4184 38.5099 38.9974 39.4339 38.1554 40.1446C37.3134 40.8554 36.2362 41.2108 34.9238 41.2108ZM28.0706 41.186H25.5118V24.7526L28.0706 24.1607V41.186Z" fill="white"/>
<path d="M41.083 27.8269C40.6102 27.8267 40.152 27.6629 39.786 27.3635C39.4201 27.0641 39.1689 26.6474 39.075 26.184C38.9812 25.7206 39.0504 25.239 39.2709 24.8207C39.4915 24.4025 39.8498 24.0734 40.2852 23.8891C40.7857 23.6793 41.349 23.6766 41.8515 23.8815C42.354 24.0863 42.7548 24.4821 42.966 24.982C43.1772 25.4819 43.1815 26.0451 42.9781 26.5482C42.7746 27.0513 42.38 27.4533 41.8807 27.6659C41.6283 27.7727 41.357 27.8275 41.083 27.8269ZM40.4982 24.9053C40.4754 24.9053 40.4535 24.9144 40.4374 24.9305C40.4212 24.9467 40.4122 24.9685 40.4122 24.9913V26.5926C40.4122 26.6154 40.4212 26.6373 40.4374 26.6534C40.4535 26.6695 40.4754 26.6786 40.4982 26.6786C40.5127 26.6786 40.5269 26.6748 40.5395 26.6677L41.995 25.8672C42.0085 25.8597 42.0197 25.8488 42.0276 25.8356C42.0354 25.8223 42.0395 25.8072 42.0395 25.7918C42.0395 25.7764 42.0354 25.7613 42.0276 25.7481C42.0197 25.7348 42.0085 25.7239 41.995 25.7165L40.5395 24.9161C40.5268 24.9091 40.5126 24.9054 40.4982 24.9053Z" fill="#196CFF"/>
</g>
<defs>
<clipPath id="clip0_147_45">
<rect width="43" height="43" fill="white" transform="translate(11 11)"/>
</clipPath>
</defs>
</svg>
