<svg width="66" height="66" viewBox="0 0 66 66" fill="none" xmlns="http://www.w3.org/2000/svg">
<circle cx="32.9183" cy="32.9183" r="32.9183" fill="#F5F5F5"/>
<g clip-path="url(#clip0_518_2)">
<path d="M53.0969 34.4832C53.1933 34.4832 53.2715 34.405 53.2715 34.3086C53.2715 34.2122 53.1933 34.134 53.0969 34.134C53.0005 34.134 52.9224 34.2122 52.9224 34.3086C52.9224 34.405 53.0005 34.4832 53.0969 34.4832Z" fill="#1267AD"/>
<path d="M52.9092 36.2485C53.1448 36.2485 53.3358 36.0575 53.3358 35.8219C53.3358 35.5864 53.1448 35.3954 52.9092 35.3954C52.6736 35.3954 52.4827 35.5864 52.4827 35.8219C52.4827 36.0575 52.6736 36.2485 52.9092 36.2485Z" fill="#1267AD"/>
<path d="M52.7413 37.7C52.9726 37.7 53.16 37.5126 53.16 37.2814C53.16 37.0501 52.9726 36.8627 52.7413 36.8627C52.5101 36.8627 52.3226 37.0501 52.3226 37.2814C52.3226 37.5126 52.5101 37.7 52.7413 37.7Z" fill="#1267AD"/>
<path d="M51.7831 40.7163C51.9752 40.7163 52.1309 40.5605 52.1309 40.3684C52.1309 40.1764 51.9752 40.0206 51.7831 40.0206C51.591 40.0206 51.4353 40.1764 51.4353 40.3684C51.4353 40.5605 51.591 40.7163 51.7831 40.7163Z" fill="#1267AD"/>
<path d="M52.3265 39.3696C52.4846 39.3696 52.6127 39.2415 52.6127 39.0835C52.6127 38.9255 52.4846 38.7974 52.3265 38.7974C52.1685 38.7974 52.0404 38.9255 52.0404 39.0835C52.0404 39.2415 52.1685 39.3696 52.3265 39.3696Z" fill="#1267AD"/>
<path d="M52.0272 39.9235C52.1381 39.9235 52.228 39.8336 52.228 39.7227C52.228 39.6118 52.1381 39.5219 52.0272 39.5219C51.9163 39.5219 51.8264 39.6118 51.8264 39.7227C51.8264 39.8336 51.9163 39.9235 52.0272 39.9235Z" fill="#1267AD"/>
<path d="M51.3264 41.9277C51.4808 41.9277 51.606 41.8025 51.606 41.6481C51.606 41.4937 51.4808 41.3685 51.3264 41.3685C51.172 41.3685 51.0469 41.4937 51.0469 41.6481C51.0469 41.8025 51.172 41.9277 51.3264 41.9277Z" fill="#1267AD"/>
<path d="M51.0429 42.6469C51.2292 42.6469 51.3802 42.4959 51.3802 42.3096C51.3802 42.1233 51.2292 41.9723 51.0429 41.9723C50.8566 41.9723 50.7056 42.1233 50.7056 42.3096C50.7056 42.4959 50.8566 42.6469 51.0429 42.6469Z" fill="#1267AD"/>
<path d="M48.96 46.0554C49.2188 46.0554 49.4286 45.8456 49.4286 45.5868C49.4286 45.3281 49.2188 45.1183 48.96 45.1183C48.7012 45.1183 48.4915 45.3281 48.4915 45.5868C48.4915 45.8456 48.7012 46.0554 48.96 46.0554Z" fill="#1267AD"/>
<path d="M47.8378 47.1344C48.0089 47.1344 48.1476 46.9957 48.1476 46.8246C48.1476 46.6536 48.0089 46.5149 47.8378 46.5149C47.6668 46.5149 47.5281 46.6536 47.5281 46.8246C47.5281 46.9957 47.6668 47.1344 47.8378 47.1344Z" fill="#1267AD"/>
<path d="M47.0201 47.998C47.2166 47.998 47.3758 47.8387 47.3758 47.6423C47.3758 47.4459 47.2166 47.2866 47.0201 47.2866C46.8237 47.2866 46.6644 47.4459 46.6644 47.6423C46.6644 47.8387 46.8237 47.998 47.0201 47.998Z" fill="#1267AD"/>
<path d="M44.9254 49.7121C45.0515 49.7121 45.1538 49.6099 45.1538 49.4837C45.1538 49.3576 45.0515 49.2554 44.9254 49.2554C44.7993 49.2554 44.697 49.3576 44.697 49.4837C44.697 49.6099 44.7993 49.7121 44.9254 49.7121Z" fill="#1267AD"/>
<path d="M42.9711 51.1874C43.2255 51.1874 43.4318 50.9811 43.4318 50.7267C43.4318 50.4722 43.2255 50.266 42.9711 50.266C42.7166 50.266 42.5104 50.4722 42.5104 50.7267C42.5104 50.9811 42.7166 51.1874 42.9711 51.1874Z" fill="#1267AD"/>
<path d="M41.1742 51.9302C41.3141 51.9302 41.4275 51.8168 41.4275 51.6769C41.4275 51.537 41.3141 51.4236 41.1742 51.4236C41.0343 51.4236 40.9209 51.537 40.9209 51.6769C40.9209 51.8168 41.0343 51.9302 41.1742 51.9302Z" fill="#1267AD"/>
<path d="M38.6188 52.8634C38.7696 52.8634 38.8918 52.7412 38.8918 52.5904C38.8918 52.4396 38.7696 52.3174 38.6188 52.3174C38.468 52.3174 38.3458 52.4396 38.3458 52.5904C38.3458 52.7412 38.468 52.8634 38.6188 52.8634Z" fill="#1267AD"/>
<path d="M34.8231 53.5407C34.9702 53.5407 35.0895 53.4214 35.0895 53.2742C35.0895 53.1271 34.9702 53.0078 34.8231 53.0078C34.6759 53.0078 34.5566 53.1271 34.5566 53.2742C34.5566 53.4214 34.6759 53.5407 34.8231 53.5407Z" fill="#1267AD"/>
<path d="M32.7834 53.6982C32.9096 53.6982 33.0118 53.596 33.0118 53.4698C33.0118 53.3437 32.9096 53.2415 32.7834 53.2415C32.6573 53.2415 32.5551 53.3437 32.5551 53.4698C32.5551 53.596 32.6573 53.6982 32.7834 53.6982Z" fill="#1267AD"/>
<path d="M29.4181 53.3438C29.5631 53.3438 29.6806 53.2263 29.6806 53.0813C29.6806 52.9364 29.5631 52.8188 29.4181 52.8188C29.2732 52.8188 29.1556 52.9364 29.1556 53.0813C29.1556 53.2263 29.2732 53.3438 29.4181 53.3438Z" fill="#1267AD"/>
<path d="M27.7079 53.1495C27.9348 53.1495 28.1187 52.9656 28.1187 52.7387C28.1187 52.5118 27.9348 52.3279 27.7079 52.3279C27.481 52.3279 27.2971 52.5118 27.2971 52.7387C27.2971 52.9656 27.481 53.1495 27.7079 53.1495Z" fill="#1267AD"/>
<path d="M26.1999 52.6035C26.4232 52.6035 26.6042 52.4226 26.6042 52.1993C26.6042 51.976 26.4232 51.795 26.1999 51.795C25.9766 51.795 25.7957 51.976 25.7957 52.1993C25.7957 52.4226 25.9766 52.6035 26.1999 52.6035Z" fill="#1267AD"/>
<path d="M25.0804 52.177C25.2892 52.177 25.4584 52.0078 25.4584 51.799C25.4584 51.5903 25.2892 51.421 25.0804 51.421C24.8716 51.421 24.7024 51.5903 24.7024 51.799C24.7024 52.0078 24.8716 52.177 25.0804 52.177Z" fill="#1267AD"/>
<path d="M21.7624 50.3513C21.969 50.3513 22.1364 50.1838 22.1364 49.9772C22.1364 49.7706 21.969 49.6031 21.7624 49.6031C21.5558 49.6031 21.3883 49.7706 21.3883 49.9772C21.3883 50.1838 21.5558 50.3513 21.7624 50.3513Z" fill="#1267AD"/>
<path d="M20.5154 49.4667C20.672 49.4667 20.7989 49.3397 20.7989 49.1832C20.7989 49.0266 20.672 48.8997 20.5154 48.8997C20.3589 48.8997 20.2319 49.0266 20.2319 49.1832C20.2319 49.3397 20.3589 49.4667 20.5154 49.4667Z" fill="#1267AD"/>
<path d="M19.6309 48.7986C19.8614 48.7986 20.0483 48.6118 20.0483 48.3812C20.0483 48.1507 19.8614 47.9639 19.6309 47.9639C19.4004 47.9639 19.2135 48.1507 19.2135 48.3812C19.2135 48.6118 19.4004 48.7986 19.6309 48.7986Z" fill="#1267AD"/>
<path d="M17.8052 46.8942C17.9922 46.8942 18.1438 46.7426 18.1438 46.5555C18.1438 46.3685 17.9922 46.2169 17.8052 46.2169C17.6182 46.2169 17.4666 46.3685 17.4666 46.5555C17.4666 46.7426 17.6182 46.8942 17.8052 46.8942Z" fill="#1267AD"/>
<path d="M16.0635 44.68C16.3346 44.68 16.5544 44.4602 16.5544 44.1891C16.5544 43.918 16.3346 43.6982 16.0635 43.6982C15.7924 43.6982 15.5726 43.918 15.5726 44.1891C15.5726 44.4602 15.7924 44.68 16.0635 44.68Z" fill="#1267AD"/>
<path d="M14.3704 41.4985C14.6212 41.4985 14.8245 41.2951 14.8245 41.0443C14.8245 40.7935 14.6212 40.5902 14.3704 40.5902C14.1196 40.5902 13.9163 40.7935 13.9163 41.0443C13.9163 41.2951 14.1196 41.4985 14.3704 41.4985Z" fill="#1267AD"/>
<path d="M13.1694 37.7487C13.4326 37.7487 13.6459 37.5353 13.6459 37.2722C13.6459 37.0091 13.4326 36.7958 13.1694 36.7958C12.9063 36.7958 12.693 37.0091 12.693 37.2722C12.693 37.5353 12.9063 37.7487 13.1694 37.7487Z" fill="#1267AD"/>
<path d="M12.7324 33.9412C12.9911 33.9412 13.2009 33.7314 13.2009 33.4726C13.2009 33.2138 12.9911 33.004 12.7324 33.004C12.4736 33.004 12.2638 33.2138 12.2638 33.4726C12.2638 33.7314 12.4736 33.9412 12.7324 33.9412Z" fill="#1267AD"/>
<path d="M13.0159 30.9919C13.2616 30.9919 13.4608 30.7927 13.4608 30.547C13.4608 30.3013 13.2616 30.1021 13.0159 30.1021C12.7701 30.1021 12.5709 30.3013 12.5709 30.547C12.5709 30.7927 12.7701 30.9919 13.0159 30.9919Z" fill="#1267AD"/>
<path d="M13.9045 26.9362C14.0146 26.9362 14.104 26.8469 14.104 26.7367C14.104 26.6266 14.0146 26.5372 13.9045 26.5372C13.7943 26.5372 13.705 26.6266 13.705 26.7367C13.705 26.8469 13.7943 26.9362 13.9045 26.9362Z" fill="#1267AD"/>
<path d="M15.4781 23.386C15.5759 23.386 15.6553 23.3067 15.6553 23.2088C15.6553 23.1109 15.5759 23.0316 15.4781 23.0316C15.3802 23.0316 15.3009 23.1109 15.3009 23.2088C15.3009 23.3067 15.3802 23.386 15.4781 23.386Z" fill="#1267AD"/>
<path d="M16.9743 21.051C17.0831 21.051 17.1712 20.9628 17.1712 20.8541C17.1712 20.7454 17.0831 20.6572 16.9743 20.6572C16.8656 20.6572 16.7775 20.7454 16.7775 20.8541C16.7775 20.9628 16.8656 21.051 16.9743 21.051Z" fill="#1267AD"/>
<path d="M18.1516 19.791C18.2712 19.791 18.3682 19.6941 18.3682 19.5745C18.3682 19.4549 18.2712 19.3579 18.1516 19.3579C18.032 19.3579 17.9351 19.4549 17.9351 19.5745C17.9351 19.6941 18.032 19.791 18.1516 19.791Z" fill="#1267AD"/>
<path d="M20.1808 18.0231C20.4439 18.0231 20.6572 17.8098 20.6572 17.5466C20.6572 17.2835 20.4439 17.0702 20.1808 17.0702C19.9177 17.0702 19.7043 17.2835 19.7043 17.5466C19.7043 17.8098 19.9177 18.0231 20.1808 18.0231Z" fill="#1267AD"/>
<path d="M21.8752 16.6896C22.0195 16.6896 22.1364 16.5727 22.1364 16.4284C22.1364 16.2842 22.0195 16.1672 21.8752 16.1672C21.731 16.1672 21.614 16.2842 21.614 16.4284C21.614 16.5727 21.731 16.6896 21.8752 16.6896Z" fill="#1267AD"/>
<path d="M25.377 15.0686C25.6517 15.0686 25.8744 14.8459 25.8744 14.5712C25.8744 14.2964 25.6517 14.0737 25.377 14.0737C25.1022 14.0737 24.8795 14.2964 24.8795 14.5712C24.8795 14.8459 25.1022 15.0686 25.377 15.0686Z" fill="#1267AD"/>
<path d="M28.842 13.8296C29.045 13.8296 29.2095 13.6651 29.2095 13.4621C29.2095 13.2591 29.045 13.0946 28.842 13.0946C28.639 13.0946 28.4745 13.2591 28.4745 13.4621C28.4745 13.6651 28.639 13.8296 28.842 13.8296Z" fill="#1267AD"/>
<path d="M32.4828 13.4372C32.701 13.4372 32.8779 13.2603 32.8779 13.0422C32.8779 12.824 32.701 12.6471 32.4828 12.6471C32.2646 12.6471 32.0878 12.824 32.0878 13.0422C32.0878 13.2603 32.2646 13.4372 32.4828 13.4372Z" fill="#1267AD"/>
<path d="M34.9792 13.5764C35.1757 13.5764 35.3349 13.4171 35.3349 13.2207C35.3349 13.0242 35.1757 12.865 34.9792 12.865C34.7828 12.865 34.6235 13.0242 34.6235 13.2207C34.6235 13.4171 34.7828 13.5764 34.9792 13.5764Z" fill="#1267AD"/>
<path d="M37.5714 13.8178C37.7359 13.8178 37.8693 13.6844 37.8693 13.5199C37.8693 13.3553 37.7359 13.2219 37.5714 13.2219C37.4068 13.2219 37.2734 13.3553 37.2734 13.5199C37.2734 13.6844 37.4068 13.8178 37.5714 13.8178Z" fill="#1267AD"/>
<path d="M38.6148 14.1341C38.8258 14.1341 38.9968 13.9631 38.9968 13.7522C38.9968 13.5412 38.8258 13.3702 38.6148 13.3702C38.4039 13.3702 38.2329 13.5412 38.2329 13.7522C38.2329 13.9631 38.4039 14.1341 38.6148 14.1341Z" fill="#1267AD"/>
<path d="M41.4735 15.1408C41.6025 15.1408 41.7071 15.0362 41.7071 14.9072C41.7071 14.7782 41.6025 14.6736 41.4735 14.6736C41.3445 14.6736 41.2399 14.7782 41.2399 14.9072C41.2399 15.0362 41.3445 15.1408 41.4735 15.1408Z" fill="#1267AD"/>
<path d="M43.6785 16.6909C43.9489 16.6909 44.1681 16.4717 44.1681 16.2014C44.1681 15.931 43.9489 15.7118 43.6785 15.7118C43.4081 15.7118 43.189 15.931 43.189 16.2014C43.189 16.4717 43.4081 16.6909 43.6785 16.6909Z" fill="#1267AD"/>
<path d="M46.4675 18.737C46.719 18.737 46.923 18.5331 46.923 18.2816C46.923 18.0301 46.719 17.8262 46.4675 17.8262C46.216 17.8262 46.0121 18.0301 46.0121 18.2816C46.0121 18.5331 46.216 18.737 46.4675 18.737Z" fill="#1267AD"/>
<path d="M47.4125 19.4852C47.6126 19.4852 47.7748 19.3231 47.7748 19.123C47.7748 18.9229 47.6126 18.7607 47.4125 18.7607C47.2125 18.7607 47.0503 18.9229 47.0503 19.123C47.0503 19.3231 47.2125 19.4852 47.4125 19.4852Z" fill="#1267AD"/>
<path d="M49.187 21.7545C49.4675 21.7545 49.695 21.5271 49.695 21.2466C49.695 20.9661 49.4675 20.7386 49.187 20.7386C48.9065 20.7386 48.6791 20.9661 48.6791 21.2466C48.6791 21.5271 48.9065 21.7545 49.187 21.7545Z" fill="#1267AD"/>
<path d="M49.8997 22.4318C50.0527 22.4318 50.1767 22.3078 50.1767 22.1549C50.1767 22.0019 50.0527 21.8779 49.8997 21.8779C49.7468 21.8779 49.6228 22.0019 49.6228 22.1549C49.6228 22.3078 49.7468 22.4318 49.8997 22.4318Z" fill="#1267AD"/>
<path d="M50.5915 23.7902C50.7749 23.7902 50.9235 23.6416 50.9235 23.4582C50.9235 23.2748 50.7749 23.1261 50.5915 23.1261C50.4081 23.1261 50.2594 23.2748 50.2594 23.4582C50.2594 23.6416 50.4081 23.7902 50.5915 23.7902Z" fill="#1267AD"/>
<path d="M51.1111 24.7654C51.3815 24.7654 51.6007 24.5462 51.6007 24.2758C51.6007 24.0054 51.3815 23.7863 51.1111 23.7863C50.8408 23.7863 50.6216 24.0054 50.6216 24.2758C50.6216 24.5462 50.8408 24.7654 51.1111 24.7654Z" fill="#1267AD"/>
<path d="M51.7425 26.3352C51.931 26.3352 52.0837 26.1824 52.0837 25.994C52.0837 25.8055 51.931 25.6527 51.7425 25.6527C51.554 25.6527 51.4012 25.8055 51.4012 25.994C51.4012 26.1824 51.554 26.3352 51.7425 26.3352Z" fill="#1267AD"/>
<path d="M52.7872 30.0154C53.0214 30.0154 53.2112 29.8256 53.2112 29.5914C53.2112 29.3573 53.0214 29.1675 52.7872 29.1675C52.5531 29.1675 52.3633 29.3573 52.3633 29.5914C52.3633 29.8256 52.5531 30.0154 52.7872 30.0154Z" fill="#1267AD"/>
<path d="M53.2072 33.7941C53.4421 33.7941 53.6325 33.6037 53.6325 33.3689C53.6325 33.134 53.4421 32.9436 53.2072 32.9436C52.9724 32.9436 52.782 33.134 52.782 33.3689C52.782 33.6037 52.9724 33.7941 53.2072 33.7941Z" fill="#1267AD"/>
<path d="M51.6729 33.7403C51.8462 33.7403 51.9866 33.5998 51.9866 33.4266C51.9866 33.2534 51.8462 33.1129 51.6729 33.1129C51.4997 33.1129 51.3593 33.2534 51.3593 33.4266C51.3593 33.5998 51.4997 33.7403 51.6729 33.7403Z" fill="#1689D6"/>
<path d="M51.3527 36.9717C51.5013 36.9717 51.6217 36.8513 51.6217 36.7027C51.6217 36.5541 51.5013 36.4336 51.3527 36.4336C51.2041 36.4336 51.0836 36.5541 51.0836 36.7027C51.0836 36.8513 51.2041 36.9717 51.3527 36.9717Z" fill="#1689D6"/>
<path d="M51.1295 38.0426C51.3658 38.0426 51.5574 37.8511 51.5574 37.6148C51.5574 37.3785 51.3658 37.1869 51.1295 37.1869C50.8932 37.1869 50.7017 37.3785 50.7017 37.6148C50.7017 37.8511 50.8932 38.0426 51.1295 38.0426Z" fill="#1689D6"/>
<path d="M50.8198 38.9103C51.0213 38.9103 51.1847 38.7469 51.1847 38.5454C51.1847 38.3439 51.0213 38.1805 50.8198 38.1805C50.6183 38.1805 50.455 38.3439 50.455 38.5454C50.455 38.7469 50.6183 38.9103 50.8198 38.9103Z" fill="#1689D6"/>
<path d="M50.0598 40.9919C50.2707 40.9919 50.4417 40.8209 50.4417 40.61C50.4417 40.399 50.2707 40.228 50.0598 40.228C49.8489 40.228 49.6779 40.399 49.6779 40.61C49.6779 40.8209 49.8489 40.9919 50.0598 40.9919Z" fill="#1689D6"/>
<path d="M49.2631 42.517C49.4371 42.517 49.5781 42.3759 49.5781 42.202C49.5781 42.028 49.4371 41.887 49.2631 41.887C49.0891 41.887 48.9481 42.028 48.9481 42.202C48.9481 42.3759 49.0891 42.517 49.2631 42.517Z" fill="#1689D6"/>
<path d="M48.6699 43.5775C48.9315 43.5775 49.1437 43.3654 49.1437 43.1037C49.1437 42.842 48.9315 42.6299 48.6699 42.6299C48.4082 42.6299 48.196 42.842 48.196 43.1037C48.196 43.3654 48.4082 43.5775 48.6699 43.5775Z" fill="#1689D6"/>
<path d="M46.1578 46.5069C46.3101 46.5069 46.4335 46.3835 46.4335 46.2313C46.4335 46.0791 46.3101 45.9557 46.1578 45.9557C46.0056 45.9557 45.8822 46.0791 45.8822 46.2313C45.8822 46.3835 46.0056 46.5069 46.1578 46.5069Z" fill="#1689D6"/>
<path d="M45.4818 47.2197C45.6543 47.2197 45.7942 47.0799 45.7942 46.9073C45.7942 46.7348 45.6543 46.595 45.4818 46.595C45.3093 46.595 45.1694 46.7348 45.1694 46.9073C45.1694 47.0799 45.3093 47.2197 45.4818 47.2197Z" fill="#1689D6"/>
<path d="M44.9542 47.7145C45.1028 47.7145 45.2233 47.5941 45.2233 47.4455C45.2233 47.2969 45.1028 47.1764 44.9542 47.1764C44.8056 47.1764 44.6852 47.2969 44.6852 47.4455C44.6852 47.5941 44.8056 47.7145 44.9542 47.7145Z" fill="#1689D6"/>
<path d="M44.2193 48.3944C44.4375 48.3944 44.6143 48.2175 44.6143 47.9993C44.6143 47.7811 44.4375 47.6042 44.2193 47.6042C44.0011 47.6042 43.8242 47.7811 43.8242 47.9993C43.8242 48.2175 44.0011 48.3944 44.2193 48.3944Z" fill="#1689D6"/>
<path d="M41.3803 50.0495C41.5159 50.0495 41.6258 49.9396 41.6258 49.804C41.6258 49.6685 41.5159 49.5586 41.3803 49.5586C41.2448 49.5586 41.1349 49.6685 41.1349 49.804C41.1349 49.9396 41.2448 50.0495 41.3803 50.0495Z" fill="#1689D6"/>
<path d="M38.8419 51.0286C38.9905 51.0286 39.111 50.9081 39.111 50.7595C39.111 50.6109 38.9905 50.4905 38.8419 50.4905C38.6933 50.4905 38.5729 50.6109 38.5729 50.7595C38.5729 50.9081 38.6933 51.0286 38.8419 51.0286Z" fill="#1689D6"/>
<path d="M35.0449 51.7623C35.1449 51.7623 35.226 51.6812 35.226 51.5812C35.226 51.4811 35.1449 51.4 35.0449 51.4C34.9449 51.4 34.8638 51.4811 34.8638 51.5812C34.8638 51.6812 34.9449 51.7623 35.0449 51.7623Z" fill="#1689D6"/>
<path d="M32.1692 52.2059C32.4316 52.2059 32.6443 51.9931 32.6443 51.7307C32.6443 51.4683 32.4316 51.2556 32.1692 51.2556C31.9068 51.2556 31.6941 51.4683 31.6941 51.7307C31.6941 51.9931 31.9068 52.2059 32.1692 52.2059Z" fill="#1689D6"/>
<path d="M29.4208 51.6795C29.5672 51.6795 29.6859 51.5608 29.6859 51.4144C29.6859 51.268 29.5672 51.1493 29.4208 51.1493C29.2743 51.1493 29.1556 51.268 29.1556 51.4144C29.1556 51.5608 29.2743 51.6795 29.4208 51.6795Z" fill="#1689D6"/>
<path d="M26.1933 50.7792C26.3144 50.7792 26.4125 50.6811 26.4125 50.56C26.4125 50.439 26.3144 50.3408 26.1933 50.3408C26.0723 50.3408 25.9741 50.439 25.9741 50.56C25.9741 50.6811 26.0723 50.7792 26.1933 50.7792Z" fill="#1689D6"/>
<path d="M25.352 50.6243C25.6166 50.6243 25.8311 50.4098 25.8311 50.1452C25.8311 49.8806 25.6166 49.6661 25.352 49.6661C25.0874 49.6661 24.8729 49.8806 24.8729 50.1452C24.8729 50.4098 25.0874 50.6243 25.352 50.6243Z" fill="#1689D6"/>
<path d="M23.3833 49.3761C23.55 49.3761 23.6852 49.2409 23.6852 49.0742C23.6852 48.9075 23.55 48.7723 23.3833 48.7723C23.2166 48.7723 23.0814 48.9075 23.0814 49.0742C23.0814 49.2409 23.2166 49.3761 23.3833 49.3761Z" fill="#1689D6"/>
<path d="M21.2912 48.1595C21.5203 48.1595 21.706 47.9738 21.706 47.7447C21.706 47.5156 21.5203 47.33 21.2912 47.33C21.0622 47.33 20.8765 47.5156 20.8765 47.7447C20.8765 47.9738 21.0622 48.1595 21.2912 48.1595Z" fill="#1689D6"/>
<path d="M20.001 46.9691C20.2721 46.9691 20.4919 46.7493 20.4919 46.4782C20.4919 46.2071 20.2721 45.9873 20.001 45.9873C19.7299 45.9873 19.5101 46.2071 19.5101 46.4782C19.5101 46.7493 19.7299 46.9691 20.001 46.9691Z" fill="#1689D6"/>
<path d="M17.5545 44.0671C17.8155 44.0671 18.027 43.8555 18.027 43.5946C18.027 43.3336 17.8155 43.1221 17.5545 43.1221C17.2936 43.1221 17.082 43.3336 17.082 43.5946C17.082 43.8555 17.2936 44.0671 17.5545 44.0671Z" fill="#1689D6"/>
<path d="M16.5347 42.4239C16.7739 42.4239 16.9678 42.2299 16.9678 41.9907C16.9678 41.7515 16.7739 41.5576 16.5347 41.5576C16.2955 41.5576 16.1016 41.7515 16.1016 41.9907C16.1016 42.2299 16.2955 42.4239 16.5347 42.4239Z" fill="#1689D6"/>
<path d="M15.944 41.3528C16.0709 41.3528 16.1737 41.25 16.1737 41.1231C16.1737 40.9963 16.0709 40.8934 15.944 40.8934C15.8172 40.8934 15.7144 40.9963 15.7144 41.1231C15.7144 41.25 15.8172 41.3528 15.944 41.3528Z" fill="#1689D6"/>
<path d="M15.133 39.0612C15.3896 39.0612 15.5976 38.8532 15.5976 38.5966C15.5976 38.34 15.3896 38.132 15.133 38.132C14.8764 38.132 14.6683 38.34 14.6683 38.5966C14.6683 38.8532 14.8764 39.0612 15.133 39.0612Z" fill="#1689D6"/>
<path d="M14.4294 35.318C14.5585 35.318 14.6631 35.2134 14.6631 35.0843C14.6631 34.9553 14.5585 34.8507 14.4294 34.8507C14.3004 34.8507 14.1958 34.9553 14.1958 35.0843C14.1958 35.2134 14.3004 35.318 14.4294 35.318Z" fill="#1689D6"/>
<path d="M14.3178 32.3674C14.5143 32.3674 14.6735 32.2081 14.6735 32.0117C14.6735 31.8153 14.5143 31.656 14.3178 31.656C14.1214 31.656 13.9622 31.8153 13.9622 32.0117C13.9622 32.2081 14.1214 32.3674 14.3178 32.3674Z" fill="#1689D6"/>
<path d="M14.608 29.6951C14.7239 29.6951 14.8179 29.6011 14.8179 29.4851C14.8179 29.3692 14.7239 29.2751 14.608 29.2751C14.492 29.2751 14.3979 29.3692 14.3979 29.4851C14.3979 29.6011 14.492 29.6951 14.608 29.6951Z" fill="#1689D6"/>
<path d="M15.4269 27.0767C15.632 27.0767 15.7983 26.9104 15.7983 26.7053C15.7983 26.5002 15.632 26.3339 15.4269 26.3339C15.2217 26.3339 15.0554 26.5002 15.0554 26.7053C15.0554 26.9104 15.2217 27.0767 15.4269 27.0767Z" fill="#1689D6"/>
<path d="M16.9704 23.7509C17.1379 23.7509 17.2736 23.6152 17.2736 23.4477C17.2736 23.2803 17.1379 23.1445 16.9704 23.1445C16.803 23.1445 16.6672 23.2803 16.6672 23.4477C16.6672 23.6152 16.803 23.7509 16.9704 23.7509Z" fill="#1689D6"/>
<path d="M19.1727 20.6862C19.2894 20.6862 19.3841 20.5916 19.3841 20.4749C19.3841 20.3582 19.2894 20.2635 19.1727 20.2635C19.056 20.2635 18.9614 20.3582 18.9614 20.4749C18.9614 20.5916 19.056 20.6862 19.1727 20.6862Z" fill="#1689D6"/>
<path d="M20.8541 19.0718C21.0077 19.0718 21.1323 18.9472 21.1323 18.7935C21.1323 18.6398 21.0077 18.5153 20.8541 18.5153C20.7004 18.5153 20.5758 18.6398 20.5758 18.7935C20.5758 18.9472 20.7004 19.0718 20.8541 19.0718Z" fill="#1689D6"/>
<path d="M22.3359 18.0455C22.5178 18.0455 22.6653 17.898 22.6653 17.716C22.6653 17.5341 22.5178 17.3866 22.3359 17.3866C22.154 17.3866 22.0065 17.5341 22.0065 17.716C22.0065 17.898 22.154 18.0455 22.3359 18.0455Z" fill="#1689D6"/>
<path d="M23.6484 17.1083C23.7739 17.1083 23.8755 17.0066 23.8755 16.8812C23.8755 16.7558 23.7739 16.6542 23.6484 16.6542C23.523 16.6542 23.4214 16.7558 23.4214 16.8812C23.4214 17.0066 23.523 17.1083 23.6484 17.1083Z" fill="#1689D6"/>
<path d="M24.9898 16.46C25.1841 16.46 25.3416 16.3025 25.3416 16.1082C25.3416 15.914 25.1841 15.7565 24.9898 15.7565C24.7955 15.7565 24.6381 15.914 24.6381 16.1082C24.6381 16.3025 24.7955 16.46 24.9898 16.46Z" fill="#1689D6"/>
<path d="M27.7434 15.343C27.8644 15.343 27.9625 15.2449 27.9625 15.1239C27.9625 15.0028 27.8644 14.9047 27.7434 14.9047C27.6223 14.9047 27.5242 15.0028 27.5242 15.1239C27.5242 15.2449 27.6223 15.343 27.7434 15.343Z" fill="#1689D6"/>
<path d="M28.8722 15.2655C29.144 15.2655 29.3644 15.0451 29.3644 14.7733C29.3644 14.5015 29.144 14.2811 28.8722 14.2811C28.6004 14.2811 28.38 14.5015 28.38 14.7733C28.38 15.0451 28.6004 15.2655 28.8722 15.2655Z" fill="#1689D6"/>
<path d="M29.9956 15.049C30.2196 15.049 30.4012 14.8675 30.4012 14.6435C30.4012 14.4195 30.2196 14.2379 29.9956 14.2379C29.7717 14.2379 29.5901 14.4195 29.5901 14.6435C29.5901 14.8675 29.7717 15.049 29.9956 15.049Z" fill="#1689D6"/>
<path d="M31.5877 14.7812C31.7646 14.7812 31.908 14.6379 31.908 14.461C31.908 14.2841 31.7646 14.1407 31.5877 14.1407C31.4108 14.1407 31.2675 14.2841 31.2675 14.461C31.2675 14.6379 31.4108 14.7812 31.5877 14.7812Z" fill="#1689D6"/>
<path d="M34.3033 14.688C34.4301 14.688 34.533 14.5852 34.533 14.4583C34.533 14.3315 34.4301 14.2286 34.3033 14.2286C34.1764 14.2286 34.0736 14.3315 34.0736 14.4583C34.0736 14.5852 34.1764 14.688 34.3033 14.688Z" fill="#1689D6"/>
<path d="M38.0925 15.5898C38.365 15.5898 38.586 15.3688 38.586 15.0963C38.586 14.8237 38.365 14.6028 38.0925 14.6028C37.8199 14.6028 37.599 14.8237 37.599 15.0963C37.599 15.3688 37.8199 15.5898 38.0925 15.5898Z" fill="#1689D6"/>
<path d="M38.3025 15.3601C38.4069 15.3601 38.4915 15.2754 38.4915 15.1711C38.4915 15.0667 38.4069 14.9821 38.3025 14.9821C38.1981 14.9821 38.1135 15.0667 38.1135 15.1711C38.1135 15.2754 38.1981 15.3601 38.3025 15.3601Z" fill="#1689D6"/>
<path d="M39.6741 16.0321C39.8785 16.0321 40.0442 15.8664 40.0442 15.662C40.0442 15.4576 39.8785 15.2919 39.6741 15.2919C39.4697 15.2919 39.304 15.4576 39.304 15.662C39.304 15.8664 39.4697 16.0321 39.6741 16.0321Z" fill="#1689D6"/>
<path d="M43.2401 17.7291C43.3655 17.7291 43.4672 17.6275 43.4672 17.5021C43.4672 17.3767 43.3655 17.275 43.2401 17.275C43.1147 17.275 43.0131 17.3767 43.0131 17.5021C43.0131 17.6275 43.1147 17.7291 43.2401 17.7291Z" fill="#1689D6"/>
<path d="M45.327 19.505C45.5712 19.505 45.7693 19.307 45.7693 19.0627C45.7693 18.8184 45.5712 18.6204 45.327 18.6204C45.0827 18.6204 44.8846 18.8184 44.8846 19.0627C44.8846 19.307 45.0827 19.505 45.327 19.505Z" fill="#1689D6"/>
<path d="M46.1893 20.2701C46.4306 20.2701 46.6263 20.0744 46.6263 19.8331C46.6263 19.5917 46.4306 19.396 46.1893 19.396C45.9479 19.396 45.7522 19.5917 45.7522 19.8331C45.7522 20.0744 45.9479 20.2701 46.1893 20.2701Z" fill="#1689D6"/>
<path d="M47.9809 22.1103C48.0766 22.1103 48.1541 22.0327 48.1541 21.937C48.1541 21.8414 48.0766 21.7638 47.9809 21.7638C47.8852 21.7638 47.8076 21.8414 47.8076 21.937C47.8076 22.0327 47.8852 22.1103 47.9809 22.1103Z" fill="#1689D6"/>
<path d="M49.9641 25.5188C50.1141 25.5188 50.2358 25.3972 50.2358 25.2472C50.2358 25.0971 50.1141 24.9755 49.9641 24.9755C49.814 24.9755 49.6924 25.0971 49.6924 25.2472C49.6924 25.3972 49.814 25.5188 49.9641 25.5188Z" fill="#1689D6"/>
<path d="M51.0062 28.5716C51.233 28.5716 51.417 28.3877 51.417 28.1608C51.417 27.9339 51.233 27.75 51.0062 27.75C50.7793 27.75 50.5953 27.9339 50.5953 28.1608C50.5953 28.3877 50.7793 28.5716 51.0062 28.5716Z" fill="#1689D6"/>
<path d="M51.4826 31.4132C51.6856 31.4132 51.8501 31.2487 51.8501 31.0457C51.8501 30.8428 51.6856 30.6782 51.4826 30.6782C51.2797 30.6782 51.1151 30.8428 51.1151 31.0457C51.1151 31.2487 51.2797 31.4132 51.4826 31.4132Z" fill="#1689D6"/>
<path d="M51.7017 32.8478C51.8402 32.8478 51.9524 32.7356 51.9524 32.5971C51.9524 32.4587 51.8402 32.3464 51.7017 32.3464C51.5633 32.3464 51.451 32.4587 51.451 32.5971C51.451 32.7356 51.5633 32.8478 51.7017 32.8478Z" fill="#1689D6"/>
<path d="M50.0638 34.995C50.3161 34.995 50.5206 34.7905 50.5206 34.5383C50.5206 34.286 50.3161 34.0815 50.0638 34.0815C49.8116 34.0815 49.6071 34.286 49.6071 34.5383C49.6071 34.7905 49.8116 34.995 50.0638 34.995Z" fill="#1267AD"/>
<path d="M49.8079 36.9362C49.9058 36.9362 49.9851 36.8568 49.9851 36.759C49.9851 36.6611 49.9058 36.5818 49.8079 36.5818C49.7101 36.5818 49.6307 36.6611 49.6307 36.759C49.6307 36.8568 49.7101 36.9362 49.8079 36.9362Z" fill="#1267AD"/>
<path d="M49.2921 38.7462C49.4617 38.7462 49.5992 38.6087 49.5992 38.4391C49.5992 38.2695 49.4617 38.132 49.2921 38.132C49.1225 38.132 48.985 38.2695 48.985 38.4391C48.985 38.6087 49.1225 38.7462 49.2921 38.7462Z" fill="#1267AD"/>
<path d="M47.62 42.4343C47.8157 42.4343 47.9744 42.2757 47.9744 42.08C47.9744 41.8842 47.8157 41.7256 47.62 41.7256C47.4243 41.7256 47.2656 41.8842 47.2656 42.08C47.2656 42.2757 47.4243 42.4343 47.62 42.4343Z" fill="#1267AD"/>
<path d="M45.8167 44.7443C45.916 44.7443 45.9965 44.6638 45.9965 44.5645C45.9965 44.4651 45.916 44.3846 45.8167 44.3846C45.7173 44.3846 45.6368 44.4651 45.6368 44.5645C45.6368 44.6638 45.7173 44.7443 45.8167 44.7443Z" fill="#1267AD"/>
<path d="M44.4516 46.1408C44.5691 46.1408 44.6643 46.0456 44.6643 45.9282C44.6643 45.8108 44.5691 45.7156 44.4516 45.7156C44.3342 45.7156 44.239 45.8108 44.239 45.9282C44.239 46.0456 44.3342 46.1408 44.4516 46.1408Z" fill="#1267AD"/>
<path d="M41.6218 48.2238C41.7559 48.2238 41.8647 48.1151 41.8647 47.981C41.8647 47.8469 41.7559 47.7382 41.6218 47.7382C41.4877 47.7382 41.379 47.8469 41.379 47.981C41.379 48.1151 41.4877 48.2238 41.6218 48.2238Z" fill="#1267AD"/>
<path d="M40.0968 49.0217C40.2055 49.0217 40.2937 48.9335 40.2937 48.8248C40.2937 48.7161 40.2055 48.6279 40.0968 48.6279C39.988 48.6279 39.8999 48.7161 39.8999 48.8248C39.8999 48.9335 39.988 49.0217 40.0968 49.0217Z" fill="#1267AD"/>
<path d="M37.0649 50.4077C37.3411 50.4077 37.5649 50.1838 37.5649 49.9077C37.5649 49.6315 37.3411 49.4076 37.0649 49.4076C36.7887 49.4076 36.5648 49.6315 36.5648 49.9077C36.5648 50.1838 36.7887 50.4077 37.0649 50.4077Z" fill="#1267AD"/>
<path d="M34.4307 50.4261C34.5293 50.4261 34.6092 50.3462 34.6092 50.2476C34.6092 50.149 34.5293 50.0691 34.4307 50.0691C34.3321 50.0691 34.2522 50.149 34.2522 50.2476C34.2522 50.3462 34.3321 50.4261 34.4307 50.4261Z" fill="#1267AD"/>
<path d="M32.3162 50.7818C32.5583 50.7818 32.7546 50.5855 32.7546 50.3434C32.7546 50.1013 32.5583 49.905 32.3162 49.905C32.0741 49.905 31.8778 50.1013 31.8778 50.3434C31.8778 50.5855 32.0741 50.7818 32.3162 50.7818Z" fill="#1267AD"/>
<path d="M29.9905 50.3828C30.1601 50.3828 30.2976 50.2453 30.2976 50.0757C30.2976 49.9061 30.1601 49.7686 29.9905 49.7686C29.8209 49.7686 29.6833 49.9061 29.6833 50.0757C29.6833 50.2453 29.8209 50.3828 29.9905 50.3828Z" fill="#1267AD"/>
<path d="M28.8433 50.3854C29.1079 50.3854 29.3224 50.1709 29.3224 49.9063C29.3224 49.6417 29.1079 49.4272 28.8433 49.4272C28.5787 49.4272 28.3643 49.6417 28.3643 49.9063C28.3643 50.1709 28.5787 50.3854 28.8433 50.3854Z" fill="#1267AD"/>
<path d="M26.0385 49.3315C26.2741 49.3315 26.4651 49.1405 26.4651 48.905C26.4651 48.6694 26.2741 48.4784 26.0385 48.4784C25.8029 48.4784 25.6119 48.6694 25.6119 48.905C25.6119 49.1405 25.8029 49.3315 26.0385 49.3315Z" fill="#1267AD"/>
<path d="M23.5435 47.9901C23.811 47.9901 24.0278 47.7733 24.0278 47.5058C24.0278 47.2383 23.811 47.0215 23.5435 47.0215C23.276 47.0215 23.0592 47.2383 23.0592 47.5058C23.0592 47.7733 23.276 47.9901 23.5435 47.9901Z" fill="#1267AD"/>
<path d="M20.9225 45.625C21.0515 45.625 21.1561 45.5204 21.1561 45.3913C21.1561 45.2623 21.0515 45.1577 20.9225 45.1577C20.7934 45.1577 20.6888 45.2623 20.6888 45.3913C20.6888 45.5204 20.7934 45.625 20.9225 45.625Z" fill="#1267AD"/>
<path d="M19.9446 44.7955C20.1555 44.7955 20.3265 44.6245 20.3265 44.4136C20.3265 44.2026 20.1555 44.0316 19.9446 44.0316C19.7336 44.0316 19.5626 44.2026 19.5626 44.4136C19.5626 44.6245 19.7336 44.7955 19.9446 44.7955Z" fill="#1267AD"/>
<path d="M17.9444 41.7859C18.0843 41.7859 18.1977 41.6725 18.1977 41.5326C18.1977 41.3927 18.0843 41.2793 17.9444 41.2793C17.8045 41.2793 17.691 41.3927 17.691 41.5326C17.691 41.6725 17.8045 41.7859 17.9444 41.7859Z" fill="#1267AD"/>
<path d="M16.4415 38.4509C16.7228 38.4509 16.9508 38.2229 16.9508 37.9416C16.9508 37.6604 16.7228 37.4324 16.4415 37.4324C16.1602 37.4324 15.9323 37.6604 15.9323 37.9416C15.9323 38.2229 16.1602 38.4509 16.4415 38.4509Z" fill="#1267AD"/>
<path d="M16.1279 37.1738C16.2424 37.1738 16.3353 37.0809 16.3353 36.9664C16.3353 36.8519 16.2424 36.759 16.1279 36.759C16.0134 36.759 15.9205 36.8519 15.9205 36.9664C15.9205 37.0809 16.0134 37.1738 16.1279 37.1738Z" fill="#1267AD"/>
<path d="M16.07 36.6843C16.1875 36.6843 16.2827 36.5891 16.2827 36.4717C16.2827 36.3542 16.1875 36.259 16.07 36.259C15.9526 36.259 15.8574 36.3542 15.8574 36.4717C15.8574 36.5891 15.9526 36.6843 16.07 36.6843Z" fill="#1267AD"/>
<path d="M15.7354 33.0643C15.9181 33.0643 16.0662 32.9163 16.0662 32.7336C16.0662 32.5509 15.9181 32.4028 15.7354 32.4028C15.5527 32.4028 15.4047 32.5509 15.4047 32.7336C15.4047 32.9163 15.5527 33.0643 15.7354 33.0643Z" fill="#1267AD"/>
<path d="M15.8561 32.0091C16.0366 32.0091 16.1829 31.8628 16.1829 31.6823C16.1829 31.5018 16.0366 31.3555 15.8561 31.3555C15.6756 31.3555 15.5293 31.5018 15.5293 31.6823C15.5293 31.8628 15.6756 32.0091 15.8561 32.0091Z" fill="#1267AD"/>
<path d="M16.3471 29.0652C16.5914 29.0652 16.7894 28.8671 16.7894 28.6229C16.7894 28.3786 16.5914 28.1805 16.3471 28.1805C16.1028 28.1805 15.9048 28.3786 15.9048 28.6229C15.9048 28.8671 16.1028 29.0652 16.3471 29.0652Z" fill="#1267AD"/>
<path d="M17.1503 26.683C17.3214 26.683 17.4601 26.5443 17.4601 26.3732C17.4601 26.2022 17.3214 26.0635 17.1503 26.0635C16.9793 26.0635 16.8406 26.2022 16.8406 26.3732C16.8406 26.5443 16.9793 26.683 17.1503 26.683Z" fill="#1267AD"/>
<path d="M17.481 25.738C17.6144 25.738 17.7225 25.6299 17.7225 25.4965C17.7225 25.3631 17.6144 25.255 17.481 25.255C17.3476 25.255 17.2395 25.3631 17.2395 25.4965C17.2395 25.6299 17.3476 25.738 17.481 25.738Z" fill="#1267AD"/>
<path d="M18.9418 23.6826C19.21 23.6826 19.4274 23.4651 19.4274 23.1969C19.4274 22.9287 19.21 22.7113 18.9418 22.7113C18.6736 22.7113 18.4562 22.9287 18.4562 23.1969C18.4562 23.4651 18.6736 23.6826 18.9418 23.6826Z" fill="#1267AD"/>
<path d="M21.0222 21.311C21.2599 21.311 21.4527 21.1182 21.4527 20.8805C21.4527 20.6427 21.2599 20.45 21.0222 20.45C20.7844 20.45 20.5917 20.6427 20.5917 20.8805C20.5917 21.1182 20.7844 21.311 21.0222 21.311Z" fill="#1267AD"/>
<path d="M21.8123 20.4407C22.0457 20.4407 22.2349 20.2515 22.2349 20.0181C22.2349 19.7847 22.0457 19.5955 21.8123 19.5955C21.5789 19.5955 21.3896 19.7847 21.3896 20.0181C21.3896 20.2515 21.5789 20.4407 21.8123 20.4407Z" fill="#1267AD"/>
<path d="M23.4503 19.2017C23.6438 19.2017 23.8007 19.0448 23.8007 18.8513C23.8007 18.6578 23.6438 18.5009 23.4503 18.5009C23.2567 18.5009 23.0999 18.6578 23.0999 18.8513C23.0999 19.0448 23.2567 19.2017 23.4503 19.2017Z" fill="#1267AD"/>
<path d="M26.7539 17.5164C26.9619 17.5164 27.1306 17.3478 27.1306 17.1397C27.1306 16.9317 26.9619 16.7631 26.7539 16.7631C26.5458 16.7631 26.3772 16.9317 26.3772 17.1397C26.3772 17.3478 26.5458 17.5164 26.7539 17.5164Z" fill="#1267AD"/>
<path d="M27.9128 17.0728C28.1048 17.0728 28.2606 16.9171 28.2606 16.725C28.2606 16.5329 28.1048 16.3772 27.9128 16.3772C27.7207 16.3772 27.5649 16.5329 27.5649 16.725C27.5649 16.9171 27.7207 17.0728 27.9128 17.0728Z" fill="#1267AD"/>
<path d="M31.8214 16.3207C31.9917 16.3207 32.1298 16.1826 32.1298 16.0123C32.1298 15.8419 31.9917 15.7039 31.8214 15.7039C31.651 15.7039 31.5129 15.8419 31.5129 16.0123C31.5129 16.1826 31.651 16.3207 31.8214 16.3207Z" fill="#1267AD"/>
<path d="M33.8203 16.3982C34.0508 16.3982 34.2377 16.2114 34.2377 15.9809C34.2377 15.7503 34.0508 15.5635 33.8203 15.5635C33.5898 15.5635 33.403 15.7503 33.403 15.9809C33.403 16.2114 33.5898 16.3982 33.8203 16.3982Z" fill="#1267AD"/>
<path d="M36.0201 16.712C36.284 16.712 36.4979 16.4981 36.4979 16.2342C36.4979 15.9704 36.284 15.7565 36.0201 15.7565C35.7563 15.7565 35.5424 15.9704 35.5424 16.2342C35.5424 16.4981 35.7563 16.712 36.0201 16.712Z" fill="#1267AD"/>
<path d="M37.62 16.8432C37.7599 16.8432 37.8733 16.7298 37.8733 16.5899C37.8733 16.45 37.7599 16.3365 37.62 16.3365C37.4801 16.3365 37.3667 16.45 37.3667 16.5899C37.3667 16.7298 37.4801 16.8432 37.62 16.8432Z" fill="#1267AD"/>
<path d="M39.2107 17.4049C39.347 17.4049 39.4575 17.2944 39.4575 17.1581C39.4575 17.0219 39.347 16.9114 39.2107 16.9114C39.0745 16.9114 38.964 17.0219 38.964 17.1581C38.964 17.2944 39.0745 17.4049 39.2107 17.4049Z" fill="#1267AD"/>
<path d="M41.5903 18.5704C41.7745 18.5704 41.9237 18.4212 41.9237 18.2371C41.9237 18.0529 41.7745 17.9037 41.5903 17.9037C41.4062 17.9037 41.257 18.0529 41.257 18.2371C41.257 18.4212 41.4062 18.5704 41.5903 18.5704Z" fill="#1267AD"/>
<path d="M42.4264 19.157C42.6069 19.157 42.7532 19.0107 42.7532 18.8302C42.7532 18.6497 42.6069 18.5034 42.4264 18.5034C42.2459 18.5034 42.0996 18.6497 42.0996 18.8302C42.0996 19.0107 42.2459 19.157 42.4264 19.157Z" fill="#1267AD"/>
<path d="M44.4621 20.7662C44.6745 20.7662 44.8466 20.594 44.8466 20.3816C44.8466 20.1692 44.6745 19.9971 44.4621 19.9971C44.2497 19.9971 44.0775 20.1692 44.0775 20.3816C44.0775 20.594 44.2497 20.7662 44.4621 20.7662Z" fill="#1267AD"/>
<path d="M46.3035 22.5472C46.4833 22.5472 46.629 22.4015 46.629 22.2217C46.629 22.042 46.4833 21.8962 46.3035 21.8962C46.1238 21.8962 45.978 22.042 45.978 22.2217C45.978 22.4015 46.1238 22.5472 46.3035 22.5472Z" fill="#1267AD"/>
<path d="M47.4874 24.3651C47.6831 24.3651 47.8418 24.2065 47.8418 24.0107C47.8418 23.815 47.6831 23.6564 47.4874 23.6564C47.2917 23.6564 47.1331 23.815 47.1331 24.0107C47.1331 24.2065 47.2917 24.3651 47.4874 24.3651Z" fill="#1267AD"/>
<path d="M47.9613 25.2143C48.2135 25.2143 48.418 25.0098 48.418 24.7575C48.418 24.5053 48.2135 24.3008 47.9613 24.3008C47.709 24.3008 47.5045 24.5053 47.5045 24.7575C47.5045 25.0098 47.709 25.2143 47.9613 25.2143Z" fill="#1267AD"/>
<path d="M48.9705 27.2329C49.1213 27.2329 49.2435 27.1107 49.2435 26.9599C49.2435 26.8091 49.1213 26.6869 48.9705 26.6869C48.8197 26.6869 48.6975 26.8091 48.6975 26.9599C48.6975 27.1107 48.8197 27.2329 48.9705 27.2329Z" fill="#1267AD"/>
<path d="M49.2934 28.0584C49.4022 28.0584 49.4903 27.9703 49.4903 27.8615C49.4903 27.7528 49.4022 27.6647 49.2934 27.6647C49.1847 27.6647 49.0966 27.7528 49.0966 27.8615C49.0966 27.9703 49.1847 28.0584 49.2934 28.0584Z" fill="#1267AD"/>
<path d="M49.8932 30.4486C49.9903 30.4486 50.069 30.3698 50.069 30.2727C50.069 30.1755 49.9903 30.0968 49.8932 30.0968C49.796 30.0968 49.7173 30.1755 49.7173 30.2727C49.7173 30.3698 49.796 30.4486 49.8932 30.4486Z" fill="#1267AD"/>
<path d="M50.2239 33.3492C50.3341 33.3492 50.4234 33.2599 50.4234 33.1497C50.4234 33.0395 50.3341 32.9502 50.2239 32.9502C50.1137 32.9502 50.0244 33.0395 50.0244 33.1497C50.0244 33.2599 50.1137 33.3492 50.2239 33.3492Z" fill="#1267AD"/>
<path d="M48.6003 34.5212C48.7468 34.5212 48.8655 34.4025 48.8655 34.2561C48.8655 34.1097 48.7468 33.991 48.6003 33.991C48.4539 33.991 48.3352 34.1097 48.3352 34.2561C48.3352 34.4025 48.4539 34.5212 48.6003 34.5212Z" fill="#1689D6"/>
<path d="M48.3353 36.7538C48.4447 36.7538 48.5335 36.6651 48.5335 36.5556C48.5335 36.4462 48.4447 36.3574 48.3353 36.3574C48.2258 36.3574 48.1371 36.4462 48.1371 36.5556C48.1371 36.6651 48.2258 36.7538 48.3353 36.7538Z" fill="#1689D6"/>
<path d="M47.7473 38.7554C47.9908 38.7554 48.1883 38.558 48.1883 38.3144C48.1883 38.0709 47.9908 37.8734 47.7473 37.8734C47.5037 37.8734 47.3063 38.0709 47.3063 38.3144C47.3063 38.558 47.5037 38.7554 47.7473 38.7554Z" fill="#1689D6"/>
<path d="M45.9426 42.156C46.0781 42.156 46.188 42.0462 46.188 41.9106C46.188 41.7751 46.0781 41.6652 45.9426 41.6652C45.807 41.6652 45.6971 41.7751 45.6971 41.9106C45.6971 42.0462 45.807 42.156 45.9426 42.156Z" fill="#1689D6"/>
<path d="M45.4242 42.9292C45.5358 42.9292 45.6263 42.8387 45.6263 42.727C45.6263 42.6154 45.5358 42.5249 45.4242 42.5249C45.3125 42.5249 45.222 42.6154 45.222 42.727C45.222 42.8387 45.3125 42.9292 45.4242 42.9292Z" fill="#1689D6"/>
<path d="M43.8137 44.8257C44.034 44.8257 44.2127 44.6471 44.2127 44.4267C44.2127 44.2063 44.034 44.0277 43.8137 44.0277C43.5933 44.0277 43.4147 44.2063 43.4147 44.4267C43.4147 44.6471 43.5933 44.8257 43.8137 44.8257Z" fill="#1689D6"/>
<path d="M42.072 46.4033C42.3532 46.4033 42.5812 46.1753 42.5812 45.894C42.5812 45.6128 42.3532 45.3848 42.072 45.3848C41.7907 45.3848 41.5627 45.6128 41.5627 45.894C41.5627 46.1753 41.7907 46.4033 42.072 46.4033Z" fill="#1689D6"/>
<path d="M41.0416 46.9926C41.2867 46.9926 41.4853 46.794 41.4853 46.549C41.4853 46.304 41.2867 46.1053 41.0416 46.1053C40.7966 46.1053 40.598 46.304 40.598 46.549C40.598 46.794 40.7966 46.9926 41.0416 46.9926Z" fill="#1689D6"/>
<path d="M37.6908 48.4823C37.9206 48.4823 38.1069 48.296 38.1069 48.0662C38.1069 47.8364 37.9206 47.6501 37.6908 47.6501C37.4611 47.6501 37.2748 47.8364 37.2748 48.0662C37.2748 48.296 37.4611 48.4823 37.6908 48.4823Z" fill="#1689D6"/>
<path d="M35.0343 49.0822C35.2764 49.0822 35.4727 48.8859 35.4727 48.6438C35.4727 48.4017 35.2764 48.2054 35.0343 48.2054C34.7922 48.2054 34.5959 48.4017 34.5959 48.6438C34.5959 48.8859 34.7922 49.0822 35.0343 49.0822Z" fill="#1689D6"/>
<path d="M33.3124 49.3513C33.5936 49.3513 33.8216 49.1233 33.8216 48.842C33.8216 48.5608 33.5936 48.3328 33.3124 48.3328C33.0311 48.3328 32.8031 48.5608 32.8031 48.842C32.8031 49.1233 33.0311 49.3513 33.3124 49.3513Z" fill="#1689D6"/>
<path d="M30.7162 48.9666C30.9054 48.9666 31.0588 48.8133 31.0588 48.6241C31.0588 48.4349 30.9054 48.2815 30.7162 48.2815C30.527 48.2815 30.3737 48.4349 30.3737 48.6241C30.3737 48.8133 30.527 48.9666 30.7162 48.9666Z" fill="#1689D6"/>
<path d="M29.3447 48.6543C29.4483 48.6543 29.5324 48.5703 29.5324 48.4666C29.5324 48.363 29.4483 48.2789 29.3447 48.2789C29.241 48.2789 29.157 48.363 29.157 48.4666C29.157 48.5703 29.241 48.6543 29.3447 48.6543Z" fill="#1689D6"/>
<path d="M26.9573 47.8261C27.074 47.8261 27.1686 47.7315 27.1686 47.6148C27.1686 47.4981 27.074 47.4034 26.9573 47.4034C26.8406 47.4034 26.746 47.4981 26.746 47.6148C26.746 47.7315 26.8406 47.8261 26.9573 47.8261Z" fill="#1689D6"/>
<path d="M25.2601 47.2433C25.5059 47.2433 25.7051 47.0441 25.7051 46.7983C25.7051 46.5526 25.5059 46.3534 25.2601 46.3534C25.0144 46.3534 24.8152 46.5526 24.8152 46.7983C24.8152 47.0441 25.0144 47.2433 25.2601 47.2433Z" fill="#1689D6"/>
<path d="M24.4004 46.5345C24.557 46.5345 24.6839 46.4076 24.6839 46.251C24.6839 46.0945 24.557 45.9675 24.4004 45.9675C24.2439 45.9675 24.1169 46.0945 24.1169 46.251C24.1169 46.4076 24.2439 46.5345 24.4004 46.5345Z" fill="#1689D6"/>
<path d="M22.2362 44.9556C22.4522 44.9556 22.6273 44.7805 22.6273 44.5645C22.6273 44.3484 22.4522 44.1733 22.2362 44.1733C22.0202 44.1733 21.8451 44.3484 21.8451 44.5645C21.8451 44.7805 22.0202 44.9556 22.2362 44.9556Z" fill="#1689D6"/>
<path d="M21.3358 44.0369C21.5416 44.0369 21.7085 43.87 21.7085 43.6641C21.7085 43.4583 21.5416 43.2914 21.3358 43.2914C21.1299 43.2914 20.963 43.4583 20.963 43.6641C20.963 43.87 21.1299 44.0369 21.3358 44.0369Z" fill="#1689D6"/>
<path d="M20.2424 42.5735C20.3707 42.5735 20.4748 42.4695 20.4748 42.3412C20.4748 42.2129 20.3707 42.1089 20.2424 42.1089C20.1141 42.1089 20.0101 42.2129 20.0101 42.3412C20.0101 42.4695 20.1141 42.5735 20.2424 42.5735Z" fill="#1689D6"/>
<path d="M18.3354 39.2502C18.5877 39.2502 18.7922 39.0457 18.7922 38.7934C18.7922 38.5412 18.5877 38.3367 18.3354 38.3367C18.0832 38.3367 17.8787 38.5412 17.8787 38.7934C17.8787 39.0457 18.0832 39.2502 18.3354 39.2502Z" fill="#1689D6"/>
<path d="M17.6726 36.7289C17.9292 36.7289 18.1373 36.5209 18.1373 36.2643C18.1373 36.0077 17.9292 35.7997 17.6726 35.7997C17.416 35.7997 17.208 36.0077 17.208 36.2643C17.208 36.5209 17.416 36.7289 17.6726 36.7289Z" fill="#1689D6"/>
<path d="M17.4048 35.5292C17.6614 35.5292 17.8694 35.3212 17.8694 35.0646C17.8694 34.808 17.6614 34.6 17.4048 34.6C17.1482 34.6 16.9402 34.808 16.9402 35.0646C16.9402 35.3212 17.1482 35.5292 17.4048 35.5292Z" fill="#1689D6"/>
<path d="M17.2789 32.0919C17.3847 32.0919 17.4705 32.0061 17.4705 31.9002C17.4705 31.7944 17.3847 31.7086 17.2789 31.7086C17.1731 31.7086 17.0873 31.7944 17.0873 31.9002C17.0873 32.0061 17.1731 32.0919 17.2789 32.0919Z" fill="#1689D6"/>
<path d="M17.2907 33.1641C17.5531 33.1641 17.7658 32.9514 17.7658 32.689C17.7658 32.4266 17.5531 32.2139 17.2907 32.2139C17.0283 32.2139 16.8156 32.4266 16.8156 32.689C16.8156 32.9514 17.0283 33.1641 17.2907 33.1641Z" fill="#1689D6"/>
<path d="M17.5439 30.4C17.7694 30.4 17.9521 30.2172 17.9521 29.9918C17.9521 29.7664 17.7694 29.5836 17.5439 29.5836C17.3185 29.5836 17.1357 29.7664 17.1357 29.9918C17.1357 30.2172 17.3185 30.4 17.5439 30.4Z" fill="#1689D6"/>
<path d="M17.7435 29.4472C17.9493 29.4472 18.1162 29.2803 18.1162 29.0744C18.1162 28.8685 17.9493 28.7017 17.7435 28.7017C17.5376 28.7017 17.3707 28.8685 17.3707 29.0744C17.3707 29.2803 17.5376 29.4472 17.7435 29.4472Z" fill="#1689D6"/>
<path d="M18.2684 27.6936C18.3967 27.6936 18.5008 27.5896 18.5008 27.4613C18.5008 27.333 18.3967 27.229 18.2684 27.229C18.1401 27.229 18.0361 27.333 18.0361 27.4613C18.0361 27.5896 18.1401 27.6936 18.2684 27.6936Z" fill="#1689D6"/>
<path d="M18.1267 28.2685C18.2731 28.2685 18.3918 28.1498 18.3918 28.0034C18.3918 27.857 18.2731 27.7383 18.1267 27.7383C17.9803 27.7383 17.8616 27.857 17.8616 28.0034C17.8616 28.1498 17.9803 28.2685 18.1267 28.2685Z" fill="#1689D6"/>
<path d="M18.6229 27.0243C18.8483 27.0243 19.0311 26.8415 19.0311 26.6161C19.0311 26.3906 18.8483 26.2079 18.6229 26.2079C18.3975 26.2079 18.2147 26.3906 18.2147 26.6161C18.2147 26.8415 18.3975 27.0243 18.6229 27.0243Z" fill="#1689D6"/>
<path d="M20.2583 24.0698C20.3815 24.0698 20.4814 23.9699 20.4814 23.8467C20.4814 23.7234 20.3815 23.6235 20.2583 23.6235C20.1351 23.6235 20.0352 23.7234 20.0352 23.8467C20.0352 23.9699 20.1351 24.0698 20.2583 24.0698Z" fill="#1689D6"/>
<path d="M21.0851 23.1209C21.2627 23.1209 21.4067 22.9769 21.4067 22.7993C21.4067 22.6218 21.2627 22.4778 21.0851 22.4778C20.9075 22.4778 20.7635 22.6218 20.7635 22.7993C20.7635 22.9769 20.9075 23.1209 21.0851 23.1209Z" fill="#1689D6"/>
<path d="M23.0906 21.1062C23.2631 21.1062 23.4029 20.9663 23.4029 20.7938C23.4029 20.6213 23.2631 20.4814 23.0906 20.4814C22.9181 20.4814 22.7782 20.6213 22.7782 20.7938C22.7782 20.9663 22.9181 21.1062 23.0906 21.1062Z" fill="#1689D6"/>
<path d="M24.033 20.5654C24.2686 20.5654 24.4596 20.3744 24.4596 20.1388C24.4596 19.9033 24.2686 19.7123 24.033 19.7123C23.7974 19.7123 23.6064 19.9033 23.6064 20.1388C23.6064 20.3744 23.7974 20.5654 24.033 20.5654Z" fill="#1689D6"/>
<path d="M25.3692 19.5877C25.5033 19.5877 25.612 19.479 25.612 19.3449C25.612 19.2108 25.5033 19.1021 25.3692 19.1021C25.2351 19.1021 25.1263 19.2108 25.1263 19.3449C25.1263 19.479 25.2351 19.5877 25.3692 19.5877Z" fill="#1689D6"/>
<path d="M27.6713 18.5429C27.7822 18.5429 27.8721 18.453 27.8721 18.342C27.8721 18.2311 27.7822 18.1412 27.6713 18.1412C27.5604 18.1412 27.4705 18.2311 27.4705 18.342C27.4705 18.453 27.5604 18.5429 27.6713 18.5429Z" fill="#1689D6"/>
<path d="M28.6635 18.2266C28.7962 18.2266 28.9037 18.1191 28.9037 17.9864C28.9037 17.8538 28.7962 17.7462 28.6635 17.7462C28.5309 17.7462 28.4233 17.8538 28.4233 17.9864C28.4233 18.1191 28.5309 18.2266 28.6635 18.2266Z" fill="#1689D6"/>
<path d="M31.026 17.9378C31.2753 17.9378 31.4775 17.7356 31.4775 17.4863C31.4775 17.2369 31.2753 17.0348 31.026 17.0348C30.7766 17.0348 30.5745 17.2369 30.5745 17.4863C30.5745 17.7356 30.7766 17.9378 31.026 17.9378Z" fill="#1689D6"/>
<path d="M32.328 17.8236C32.557 17.8236 32.7427 17.638 32.7427 17.4089C32.7427 17.1798 32.557 16.9941 32.328 16.9941C32.0989 16.9941 31.9132 17.1798 31.9132 17.4089C31.9132 17.638 32.0989 17.8236 32.328 17.8236Z" fill="#1689D6"/>
<path d="M34.9438 17.9641C35.1678 17.9641 35.3493 17.7825 35.3493 17.5585C35.3493 17.3345 35.1678 17.153 34.9438 17.153C34.7198 17.153 34.5382 17.3345 34.5382 17.5585C34.5382 17.7825 34.7198 17.9641 34.9438 17.9641Z" fill="#1689D6"/>
<path d="M37.9035 18.4904C38.0521 18.4904 38.1725 18.3699 38.1725 18.2213C38.1725 18.0727 38.0521 17.9523 37.9035 17.9523C37.7549 17.9523 37.6344 18.0727 37.6344 18.2213C37.6344 18.3699 37.7549 18.4904 37.9035 18.4904Z" fill="#1689D6"/>
<path d="M39.7436 19.2188C39.9314 19.2188 40.0836 19.0666 40.0836 18.8789C40.0836 18.6911 39.9314 18.5389 39.7436 18.5389C39.5559 18.5389 39.4037 18.6911 39.4037 18.8789C39.4037 19.0666 39.5559 19.2188 39.7436 19.2188Z" fill="#1689D6"/>
<path d="M41.7912 20.6246C42.0594 20.6246 42.2768 20.4071 42.2768 20.1389C42.2768 19.8707 42.0594 19.6533 41.7912 19.6533C41.523 19.6533 41.3055 19.8707 41.3055 20.1389C41.3055 20.4071 41.523 20.6246 41.7912 20.6246Z" fill="#1689D6"/>
<path d="M43.9016 22.3819C44.1828 22.3819 44.4108 22.1539 44.4108 21.8727C44.4108 21.5914 44.1828 21.3634 43.9016 21.3634C43.6203 21.3634 43.3923 21.5914 43.3923 21.8727C43.3923 22.1539 43.6203 22.3819 43.9016 22.3819Z" fill="#1689D6"/>
<path d="M44.6956 22.844C44.7935 22.844 44.8728 22.7647 44.8728 22.6668C44.8728 22.569 44.7935 22.4896 44.6956 22.4896C44.5978 22.4896 44.5184 22.569 44.5184 22.6668C44.5184 22.7647 44.5978 22.844 44.6956 22.844Z" fill="#1689D6"/>
<path d="M46.8089 26.1016C47.051 26.1016 47.2472 25.9053 47.2472 25.6632C47.2472 25.4211 47.051 25.2249 46.8089 25.2249C46.5668 25.2249 46.3705 25.4211 46.3705 25.6632C46.3705 25.9053 46.5668 26.1016 46.8089 26.1016Z" fill="#1689D6"/>
<path d="M48.1397 29.4366C48.384 29.4366 48.582 29.2386 48.582 28.9943C48.582 28.75 48.384 28.552 48.1397 28.552C47.8954 28.552 47.6974 28.75 47.6974 28.9943C47.6974 29.2386 47.8954 29.4366 48.1397 29.4366Z" fill="#1689D6"/>
<path d="M48.2184 29.4524C48.3489 29.4524 48.4547 29.3466 48.4547 29.2161C48.4547 29.0856 48.3489 28.9799 48.2184 28.9799C48.088 28.9799 47.9822 29.0856 47.9822 29.2161C47.9822 29.3466 48.088 29.4524 48.2184 29.4524Z" fill="#1689D6"/>
<path d="M48.5492 31.7046C48.6543 31.7046 48.7395 31.6194 48.7395 31.5143C48.7395 31.4092 48.6543 31.324 48.5492 31.324C48.4441 31.324 48.3589 31.4092 48.3589 31.5143C48.3589 31.6194 48.4441 31.7046 48.5492 31.7046Z" fill="#1689D6"/>
<path d="M48.7329 33.5447C48.975 33.5447 49.1713 33.3485 49.1713 33.1063C49.1713 32.8642 48.975 32.668 48.7329 32.668C48.4908 32.668 48.2946 32.8642 48.2946 33.1063C48.2946 33.3485 48.4908 33.5447 48.7329 33.5447Z" fill="#1689D6"/>
</g>
<defs>
<clipPath id="clip0_518_2">
<rect width="42" height="42" fill="white" transform="translate(12 12)"/>
</clipPath>
</defs>
</svg>
