<svg width="66" height="66" viewBox="0 0 66 66" fill="none" xmlns="http://www.w3.org/2000/svg">
<circle cx="32.9183" cy="32.9183" r="32.9183" fill="#F5F5F5"/>
<g transform="translate(11 23.45) scale(0.8302)">
<path fill-rule="evenodd" clip-rule="evenodd" d="M53 13.6826C53 19.3253 48.7138 22.9012 44.1896 22.9012C41.7404 22.9012 39.5972 21.8514 38.3726 20.0799L37.5656 22.5404H33.7463L33.7455 4.81474e-05L38.5781 0V7.02457C39.8172 5.45077 41.7849 4.46404 44.1556 4.46404C48.7819 4.46404 53 8.03995 53 13.6826ZM38.1345 13.6498C38.1345 16.4056 40.3457 18.6364 43.2371 18.6364C46.0605 18.6364 48.3056 16.4384 48.3056 13.6498C48.3056 10.8613 46.0605 8.66327 43.2371 8.66327C40.3457 8.66327 38.1345 10.8941 38.1345 13.6498Z" fill="#4131F1"/>
<path d="M0.000785697 22.5405L10.5086 22.5404L11.9712 18.0459L4.83125 18.046L4.83047 4.81474e-05H0L0.000785697 22.5405Z" fill="#4131F1"/>
<path fill-rule="evenodd" clip-rule="evenodd" d="M22.1076 22.9012C27.6523 22.9012 31.8365 18.7676 31.8365 13.6826C31.8365 8.56485 27.5844 4.46404 22.1076 4.46404C16.5968 4.46404 12.4127 8.56485 12.4127 13.6826C12.4127 18.7676 16.5968 22.9012 22.1076 22.9012ZM22.1416 18.6036C19.3181 18.6036 17.1071 16.4056 17.1071 13.6498C17.1071 10.8941 19.3181 8.69608 22.1416 8.69608C24.931 8.69608 27.1761 10.8941 27.1761 13.6498C27.1761 16.4056 24.931 18.6036 22.1416 18.6036Z" fill="#4131F1"/>
</g>
</svg>
