<svg width="66" height="66" viewBox="0 0 66 66" fill="none" xmlns="http://www.w3.org/2000/svg">
<circle cx="32.9183" cy="32.9183" r="32.9183" fill="#F5F5F5"/>
<g clip-path="url(#clip0_536_10)">
<path d="M42.9062 14H22.0938C17.6237 14 14 17.6237 14 22.0938V42.9062C14 47.3763 17.6237 51 22.0938 51H42.9062C47.3763 51 51 47.3763 51 42.9062V22.0938C51 17.6237 47.3763 14 42.9062 14Z" fill="#FFF65B"/>
<path fill-rule="evenodd" clip-rule="evenodd" d="M27.587 38.743C27.3912 39.2077 27.9011 39.6527 28.3355 39.3973L40.4908 32.2314V43.3398H28.3963C26.7831 43.3398 25.399 42.3505 24.8107 40.9404C24.6139 40.4713 24.5071 39.9553 24.5092 39.413H24.5103L24.5605 21.6602H34.7686L27.587 38.743Z" fill="#111111"/>
</g>
<defs>
<clipPath id="clip0_536_10">
<rect width="37" height="37" fill="white" transform="translate(14 14)"/>
</clipPath>
</defs>
</svg>
