<svg width="66" height="66" viewBox="0 0 66 66" fill="none" xmlns="http://www.w3.org/2000/svg">
<circle cx="32.9183" cy="32.9183" r="32.9183" fill="#F5F5F5"/>
<path d="M16 21.6302V35.9031H18.3788V40.6607H16V54.9336H30.2729V52.5547H35.0305V54.9336H49.3034V40.6607H46.9245V35.9031H49.3034V21.6302H35.0305V24.009H30.2729V21.6302H16ZM18.3788 24.009H27.8941V33.5243H18.3788V24.009ZM37.4093 24.009H46.9245V33.5243H37.4093V24.009ZM30.2729 26.3878H35.0305V35.9031H44.5457V40.6607H35.0305V50.1759H30.2729V40.6607H20.7576V35.9031H30.2729V26.3878ZM18.3788 43.0395H27.8941V52.5547H18.3788V43.0395ZM37.4093 43.0395H46.9245V52.5547H37.4093V43.0395Z" fill="#F5833C"/>
<path d="M42.4435 11.3546C41.5317 10.4432 40.4595 10 39.1649 10C37.6769 10 36.5433 10.5174 35.6983 11.5839L32.649 15.5101L29.5991 11.578C28.7576 10.5163 27.6247 10 26.1373 10C24.8427 10 23.77 10.4432 22.8581 11.3547C21.9469 12.2661 21.5041 13.3382 21.5041 14.633C21.5041 15.9278 21.947 17 22.8587 17.9116C23.6394 18.6925 24.5348 19.1265 25.619 19.2392H39.6915L39.7035 19.238C40.7631 19.1265 41.658 18.6926 42.4399 17.9116C43.3516 16.9998 43.7944 15.9274 43.7944 14.633C43.7945 13.3388 43.3516 12.2663 42.4399 11.3547L42.4435 11.3546ZM31.0359 17.0403H26.1409C25.4762 17.0403 24.9022 16.8038 24.4364 16.3377C23.9701 15.8716 23.7339 15.2983 23.7339 14.6332C23.7339 13.9682 23.9701 13.3949 24.4364 12.9288C24.9022 12.4628 25.4756 12.2262 26.1409 12.2262C26.8597 12.2262 27.4462 12.4913 27.8916 13.0214L31.0359 17.0403ZM34.2945 17.0403L37.4209 13.0136C37.8591 12.4913 38.4456 12.2262 39.165 12.2262C39.8297 12.2262 40.4031 12.4624 40.8689 12.9285C41.3353 13.3949 41.5715 13.9682 41.5715 14.6332C41.5715 15.2983 41.3353 15.8716 40.8689 16.3377C40.4031 16.8037 39.8297 17.0403 39.165 17.0403L34.2945 17.0403Z" fill="#F5833C"/>
</svg>
