<svg width="66" height="66" viewBox="0 0 66 66" fill="none" xmlns="http://www.w3.org/2000/svg">
<circle cx="32.9183" cy="32.9183" r="32.9183" fill="#F5F5F5"/>
<path d="M49.5702 27.0654C49.4354 26.8694 49.2108 26.7689 48.9844 26.7689H36.0914L42.5205 16.5181C42.6861 16.2548 42.6954 15.8945 42.4944 15.6056C42.358 15.4094 42.1312 15.3094 41.9038 15.3094H30.8014C29.6867 15.3094 28.6452 15.9056 28.0208 16.901L15.4031 37.02C15.2381 37.2834 15.2311 37.6436 15.43 37.9326C15.5647 38.1283 15.7893 38.2286 16.0159 38.2286H28.9024L22.4725 48.4821C22.3567 48.6668 22.3213 48.8995 22.3741 49.1214C22.4553 49.4651 22.7605 49.6907 23.0894 49.6907H34.1854C35.3084 49.6907 36.3578 49.0898 36.9866 48.087L43.1676 38.2286L49.5967 27.9778C49.7618 27.7146 49.7688 27.3538 49.5702 27.0654Z" fill="#4E48E0"/>
<path d="M43.1692 38.2264L36.9866 48.0868C36.3578 49.0898 35.3082 49.6905 34.1855 49.6905H23.0895C22.7605 49.6905 22.4554 49.4651 22.3742 49.1216C22.3214 48.8995 22.3568 48.6668 22.4725 48.4821L28.9036 38.2264H43.1692Z" fill="#4E48E0"/>
<path d="M36.0831 26.7689H48.9844C49.2107 26.7689 49.4353 26.8694 49.5701 27.0651C49.7692 27.3538 49.7616 27.7143 49.5969 27.9778L43.1682 38.2286H28.897L36.0831 26.7689Z" fill="#1C81C1"/>
<path d="M16.0159 38.2286C15.7895 38.2286 15.5649 38.1283 15.4302 37.9326C15.2311 37.6436 15.238 37.2834 15.4033 37.0202L28.021 16.901C28.6451 15.9056 29.6869 15.3094 30.8014 15.3094H41.9038C42.1312 15.3094 42.3582 15.4097 42.4946 15.6056C42.6954 15.8945 42.6861 16.2548 42.5207 16.5183L28.9037 38.2286H16.0159Z" fill="#5CC4CD"/>
</svg>
