<svg width="66" height="66" viewBox="0 0 66 66" fill="none" xmlns="http://www.w3.org/2000/svg">
<circle cx="32.9183" cy="32.9183" r="32.9183" fill="#F5F5F5"/>
<g transform="translate(13.4 11) scale(1.1)">
<path d="M6.80931 29.3284L3.42426 31.3383C2.96506 31.6406 3.17489 32.1602 3.42426 32.2648L16.5706 39.6385C17.3472 40.0741 18.3039 40.0741 19.0805 39.6385L32.4009 32.1672C32.8045 31.9279 32.7383 31.4414 32.4009 31.2774L28.8218 29.3415C28.5196 29.142 27.846 29.2084 27.6074 29.3708L19.0805 34.1534C18.3039 34.5891 17.3472 34.5891 16.5706 34.1534L7.96818 29.3284C7.64749 29.1309 7.13949 29.1421 6.80931 29.3284Z" fill="#22D172"/>
<path d="M16.5697 0.361456C17.3463 -0.0740985 18.3029 -0.0740985 19.0795 0.361456C19.0795 0.361456 29.0461 5.95166 29.6661 6.29938C30.0887 6.51343 30.127 7.08807 29.6661 7.3472C28.9682 7.73722 28.0321 8.25986 27.2553 8.69346C26.348 9.20001 25.2433 9.19851 24.337 8.69011L19.0795 5.74125C18.3029 5.3057 17.3463 5.3057 16.5697 5.74125L11.3061 8.69362C10.399 9.20234 9.29341 9.20329 8.38541 8.69632C7.57794 8.24547 6.59841 7.69887 5.89255 7.30598C5.50102 7.13766 5.41953 6.63799 5.89255 6.35018L16.5697 0.361456Z" fill="#22D172"/>
<path d="M34.3924 9.2991C35.1689 9.73464 35.6473 10.5395 35.6473 11.4107V28.5895C35.6473 29.4398 35.1153 29.5983 34.548 29.3014L30.6276 27.1832V15.6339L19.0785 22.1117C18.302 22.5472 17.3453 22.5472 16.5688 22.1117L5.01962 15.6339V27.1818L1.45725 29.2989C1.03269 29.5692 0 29.6543 0 28.5895V11.4107C0 10.5395 0.478367 9.73464 1.2549 9.2991C2.50431 8.64413 3.79531 9.2991 3.79531 9.2991L17.8236 17.1846L31.83 9.2991C31.83 9.2991 33.0738 8.54813 34.3924 9.2991Z" fill="#22D172"/>
</g>
</svg>
