<svg width="66" height="66" viewBox="0 0 66 66" fill="none" xmlns="http://www.w3.org/2000/svg">
<circle cx="32.9183" cy="32.9183" r="32.9183" fill="#F5F5F5"/>
<g clip-path="url(#clip0_2693_74)">
<path d="M42.0896 32.8475C42.3998 32.8115 42.6962 32.8098 42.9682 32.8475C43.1259 32.4892 43.1537 31.872 43.0116 31.1999C42.8001 30.2003 42.5142 29.595 41.925 29.6893C41.334 29.7836 41.3132 30.5072 41.5246 31.5068C41.6425 32.0691 41.8539 32.5492 42.0896 32.8475Z" fill="black"/>
<path d="M37.0206 33.6376C37.4434 33.8211 37.7034 33.9428 37.8039 33.8365C37.8698 33.7696 37.849 33.6445 37.7484 33.4816C37.5405 33.1455 37.1107 32.8026 36.6566 32.6123C35.726 32.2162 34.6169 32.3483 33.7607 32.9569C33.4783 33.161 33.2096 33.4456 33.2478 33.617C33.2599 33.6736 33.3032 33.7148 33.402 33.7285C33.6342 33.7542 34.4488 33.3478 35.3863 33.2913C36.0501 33.2501 36.5977 33.4541 37.0206 33.6376Z" fill="black"/>
<path d="M36.1706 34.1197C35.6212 34.2055 35.3162 34.3855 35.1221 34.5518C34.9558 34.6958 34.8535 34.8553 34.8535 34.9667C34.8535 35.0199 34.8778 35.0507 34.8951 35.0662C34.9194 35.0885 34.9506 35.1005 34.9852 35.1005C35.11 35.1005 35.3873 34.9907 35.3873 34.9907C36.1533 34.7198 36.6576 34.7524 37.1584 34.809C37.4357 34.8398 37.5657 34.857 37.6264 34.7627C37.6437 34.7353 37.6662 34.677 37.6108 34.5895C37.4843 34.3803 36.928 34.0306 36.1706 34.1197Z" fill="black"/>
<path d="M40.3765 35.8807C40.7508 36.0624 41.1615 35.9904 41.295 35.7212C41.4284 35.452 41.2343 35.0868 40.8617 34.9051C40.4874 34.7233 40.0767 34.7953 39.9432 35.0645C39.808 35.3337 40.0039 35.6989 40.3765 35.8807Z" fill="black"/>
<path d="M42.7784 33.8008C42.4752 33.7957 42.2239 34.1249 42.2169 34.5364C42.21 34.9479 42.4509 35.2857 42.7542 35.2908C43.0575 35.2959 43.3087 34.9667 43.3157 34.5552C43.3226 34.1438 43.0817 33.806 42.7784 33.8008Z" fill="black"/>
<path d="M22.3959 41.2285C22.3196 41.1342 22.1966 41.1633 22.077 41.1908C21.9938 41.2096 21.8985 41.2319 21.7945 41.2302C21.571 41.2268 21.3821 41.1308 21.2764 40.9696C21.1377 40.7604 21.1464 40.4467 21.2989 40.0883C21.3197 40.0403 21.3439 39.9871 21.3699 39.9271C21.6126 39.387 22.0216 38.4835 21.564 37.621C21.2192 36.9729 20.6577 36.5683 19.9835 36.4843C19.3354 36.4037 18.6682 36.6403 18.2436 37.105C17.5729 37.8371 17.4672 38.835 17.5971 39.1864C17.6439 39.315 17.7185 39.351 17.7739 39.3579C17.8883 39.3733 18.0564 39.291 18.1621 39.0098C18.169 38.9893 18.1794 38.9584 18.1916 38.919C18.2384 38.7698 18.3267 38.492 18.4706 38.2709C18.6439 38.0034 18.9142 37.8182 19.2314 37.7514C19.5537 37.6828 19.8847 37.7445 20.1603 37.9228C20.6299 38.228 20.8119 38.7972 20.6109 39.3408C20.5069 39.6219 20.3388 40.1603 20.3752 40.6027C20.4497 41.4977 21.006 41.856 21.5069 41.8955C21.9921 41.9143 22.3318 41.6434 22.4184 41.4462C22.4669 41.3297 22.4236 41.2594 22.3959 41.2285Z" fill="black"/>
<path d="M50.4352 39.5911C50.4162 39.526 50.2966 39.0905 50.1302 38.5658C49.9638 38.0412 49.794 37.6708 49.794 37.6708C50.4578 36.6867 50.4699 35.8071 50.3815 35.3099C50.2879 34.6926 50.028 34.1662 49.5029 33.6227C48.9795 33.0792 47.9085 32.522 46.4025 32.1036C46.2309 32.0556 45.6625 31.9013 45.6122 31.8859C45.6087 31.8533 45.5706 30.0444 45.536 29.266C45.5117 28.7036 45.4614 27.8275 45.1876 26.9634C44.8601 25.794 44.2882 24.7721 43.5759 24.1172C45.5429 22.1008 46.7699 19.8788 46.7681 17.9722C46.7629 14.3064 42.212 13.1971 36.6039 15.4946C36.5987 15.4963 35.4237 15.9901 35.4151 15.9936C35.4099 15.9884 33.2679 13.9086 33.2349 13.8812C26.8435 8.36374 6.85305 30.3479 13.2445 35.6871L14.6413 36.8581C14.2791 37.7874 14.137 38.8504 14.2531 39.9941C14.4021 41.4634 15.1681 42.8728 16.4107 43.9598C17.5892 44.9937 19.1385 45.647 20.6428 45.6453C23.1296 51.3153 28.8122 54.7942 35.4757 54.9896C42.6227 55.2005 48.6225 51.8811 51.1371 45.9213C51.3017 45.5029 52.0001 43.6186 52.0001 41.9538C52.0001 40.2838 51.0452 39.5911 50.4352 39.5911ZM21.1921 44.0541C20.9755 44.0901 20.7537 44.1056 20.5301 44.1004C18.3708 44.0439 16.0398 42.1201 15.8076 39.8397C15.5511 37.3193 16.8526 35.3802 19.1575 34.9189C19.4331 34.8641 19.7658 34.8315 20.1246 34.8504C21.4157 34.9207 23.3185 35.9014 23.7535 38.6841C24.14 41.1497 23.5282 43.6598 21.1921 44.0541ZM18.7815 33.4118C17.3465 33.6879 16.0814 34.492 15.3085 35.603C14.8458 35.2224 13.9845 34.4834 13.8337 34.1954C12.5998 31.8756 15.1802 27.3663 16.9843 24.8201C21.4417 18.5277 28.4223 13.7629 31.6544 14.6271C32.1795 14.7745 33.9195 16.7703 33.9195 16.7703C33.9195 16.7703 30.6891 18.5431 27.6927 21.0155C23.6582 24.0915 20.6081 28.5613 18.7815 33.4118ZM41.4408 43.1111C41.4876 43.0923 41.5205 43.0391 41.5153 42.986C41.5084 42.9208 41.4495 42.8745 41.3854 42.8814C41.3854 42.8814 38.0042 43.3769 34.8085 42.2196C35.1569 41.0999 36.0823 41.5046 37.4808 41.616C40.0024 41.7652 42.2605 41.4 43.9312 40.9268C45.3782 40.5153 47.2776 39.706 48.7542 38.5538C49.2516 39.6357 49.4283 40.8256 49.4283 40.8256C49.4283 40.8256 49.8131 40.757 50.1354 40.9542C50.4404 41.1394 50.6622 41.5252 50.5097 42.5196C50.1995 44.3799 49.4006 45.8904 48.0575 47.2792C47.2395 48.1502 46.2465 48.9081 45.1114 49.4585C44.5083 49.7722 43.8653 50.0431 43.1877 50.2626C38.1238 51.8983 32.9403 50.0997 31.2697 46.2368C31.1362 45.947 31.0236 45.6418 30.9352 45.3246C30.2229 42.7785 30.8278 39.7249 32.7168 37.8011C32.7168 37.8011 32.7168 37.8011 32.7168 37.7994C32.8329 37.6777 32.9524 37.5336 32.9524 37.3519C32.9524 37.1993 32.8554 37.0399 32.7705 36.9267C32.1102 35.9785 29.8191 34.3617 30.2784 31.2326C30.6077 28.9848 32.5954 27.4023 34.448 27.4966C34.604 27.5052 34.7617 27.5137 34.9177 27.524C35.7201 27.5703 36.4202 27.6732 37.0822 27.7006C38.1879 27.7486 39.1827 27.5892 40.3611 26.617C40.758 26.2895 41.0769 26.0049 41.6158 25.9158C41.673 25.9055 41.8134 25.8557 42.0959 25.8695C42.3836 25.8849 42.6574 25.962 42.9035 26.1249C43.848 26.7473 43.9814 28.2527 44.03 29.3535C44.0577 29.9827 44.1339 31.5035 44.1617 31.9407C44.2223 32.9386 44.4875 33.0809 45.023 33.2558C45.3245 33.3535 45.6053 33.4273 46.0177 33.5421C47.2672 33.8902 48.009 34.2417 48.4769 34.6943C48.7559 34.9772 48.8859 35.2773 48.9258 35.5636C49.0731 36.6266 48.0904 37.9417 45.4909 39.1351C42.6487 40.4398 39.2 40.7707 36.8171 40.5084C36.6351 40.4878 35.9852 40.4158 35.9818 40.4158C34.0754 40.1621 32.9888 42.5985 34.1326 44.2685C34.8692 45.3452 36.8777 46.0448 38.8863 46.0448C43.4927 46.0448 47.0333 44.0987 48.3504 42.4184C48.3902 42.3687 48.3937 42.3619 48.4561 42.2693C48.5202 42.1733 48.4682 42.1201 48.3868 42.1733C47.3106 42.902 42.5309 45.7927 37.4202 44.9234C37.4202 44.9234 36.7998 44.8223 36.2313 44.6045C35.7807 44.4313 34.838 44.0027 34.7236 43.0443C38.843 44.3045 41.4408 43.1111 41.4408 43.1111ZM34.9056 42.3481C34.9073 42.3499 34.9073 42.3499 34.9073 42.3516C34.9073 42.3499 34.9073 42.3481 34.9056 42.3481ZM27.0134 24.7944C28.5973 22.9821 30.5487 21.4082 32.2956 20.5234C32.3563 20.4926 32.4204 20.5577 32.3875 20.616C32.2488 20.8646 31.9819 21.3962 31.897 21.8008C31.8832 21.8642 31.9525 21.9105 32.0062 21.8745C33.0928 21.1407 34.9853 20.3554 36.6438 20.2543C36.7148 20.2491 36.7495 20.34 36.6923 20.3828C36.4393 20.5749 36.1637 20.8389 35.9627 21.1064C35.9281 21.1527 35.961 21.2178 36.0182 21.2178C37.1828 21.2264 38.8257 21.6293 39.895 22.2226C39.9677 22.262 39.9157 22.4009 39.8343 22.3837C38.2156 22.0168 35.5641 21.7374 32.8103 22.4026C30.3529 22.9958 28.476 23.9114 27.1069 24.8973C27.0411 24.9487 26.9579 24.8596 27.0134 24.7944Z" fill="black"/>
</g>
<defs>
<clipPath id="clip0_2693_74">
<rect width="40" height="42" fill="white" transform="translate(12 13)"/>
</clipPath>
</defs>
</svg>
