<svg width="66" height="66" viewBox="0 0 66 66" fill="none" xmlns="http://www.w3.org/2000/svg">
<circle cx="32.9183" cy="32.9183" r="32.9183" fill="#F5F5F5"/>
<path d="M33 24.614C27.988 24.614 23.9232 28.5946 23.9232 33.5028C23.9232 38.4109 27.988 42.3915 33 42.3915C38.012 42.3915 42.0768 38.4109 42.0768 33.5028C42.0768 28.5946 38.0176 24.614 33 24.614ZM18.8492 33.5028C18.8492 25.8452 25.186 19.6451 33 19.6451C40.8196 19.6451 47.1564 25.8507 47.1564 33.5028C47.1564 34.0107 47.1283 34.5076 47.0775 34.9989C46.9704 36.3516 47.9852 37.384 49.3552 37.384C51.6836 37.384 51.9316 34.4468 51.9316 33.5028C51.9316 23.2669 43.4581 14.9744 33.0113 14.9744C22.5645 14.9744 14.0796 23.2724 14.0796 33.5028C14.0796 43.7386 22.5532 52.0311 33 52.0311C38.5476 52.0311 43.5426 49.6902 47.0042 45.9636L50.8943 49.1602C46.5025 53.969 40.1092 57 33 57C19.7456 57 9 46.477 9 33.4972C9 20.5174 19.7456 10 33 10C46.2544 10 57 20.523 57 33.5028C57 38.7201 54.463 42.9547 49.3665 42.9547C47.1226 42.9547 45.7583 41.9498 45.0141 40.8236C42.5222 44.7545 38.074 47.3659 33 47.3659C25.186 47.3659 18.8492 41.1603 18.8492 33.5028ZM33 29.4393C35.2946 29.4393 37.155 31.2612 37.155 33.5083C37.155 35.7553 35.2946 37.5772 33 37.5772C30.7054 37.5772 28.845 35.7553 28.845 33.5083C28.845 31.2612 30.7054 29.4393 33 29.4393Z" fill="#C12126"/>
</svg>
