<svg width="66" height="66" viewBox="0 0 66 66" fill="none" xmlns="http://www.w3.org/2000/svg">
<circle cx="32.9183" cy="32.9183" r="32.9183" fill="#F5F5F5"/>
<svg x="6" y="6" width="54" height="54" viewBox="0 0 400 400" fill="none">
<path fill="#0052cc" d="M 232.25 83.39 Q 257.53 83.39 283.53 83.38 A 0.49 0.48 -10.5 0 1 283.98 83.68 Q 322.14 174.92 329.63 192.47 Q 332.70 199.66 332.72 203.09 C 332.79 210.82 328.29 217.75 321.09 220.61 Q 318.26 221.74 310.07 221.76 Q 307.94 221.76 232.41 221.76 Q 207.13 221.76 181.13 221.77 A 0.49 0.48 -10.5 0 1 180.68 221.47 Q 142.52 130.23 135.03 112.68 Q 131.96 105.49 131.94 102.06 C 131.87 94.33 136.37 87.40 143.57 84.54 Q 146.40 83.41 154.59 83.39 Q 156.72 83.39 232.25 83.39 Z"/>
<path fill="#0052cc" d="M 312.48 240.23 A 0.28 0.27 18.7 0 1 312.70 240.67 Q 305.77 249.68 303.91 252.21 C 297.75 260.54 293.61 264.49 284.96 267.01 Q 282.28 267.78 274.97 267.78 Q 195.36 267.76 149.75 267.77 A 0.78 0.78 0.0 0 1 149.03 267.29 Q 123.33 206.14 102.84 157.15 Q 99.93 150.18 99.79 146.96 Q 99.57 141.73 101.17 136.34 Q 102.18 132.95 107.55 126.05 Q 110.69 122.00 115.02 116.36 A 0.49 0.48 -37.8 0 1 115.85 116.46 L 167.37 239.72 A 0.84 0.82 -11.0 0 0 168.14 240.23 L 312.48 240.23 Z"/>
<path fill="#0052cc" d="M 277.48 285.98 A 0.20 0.20 0.0 0 1 277.64 286.30 Q 269.47 297.01 268.19 298.73 C 262.08 306.92 257.82 310.68 249.31 312.96 Q 246.72 313.65 239.66 313.63 Q 185.97 313.53 134.43 313.65 Q 126.34 313.67 123.28 312.30 C 116.42 309.23 113.78 305.25 110.59 297.61 Q 76.79 216.47 70.12 200.82 Q 65.18 189.23 68.80 179.03 Q 70.41 174.46 74.86 168.73 Q 78.83 163.60 82.19 159.22 A 0.38 0.37 -37.3 0 1 82.83 159.30 L 135.57 285.47 A 0.82 0.81 78.6 0 0 136.32 285.98 L 277.48 285.98 Z"/>
</svg>
</svg>
