<svg width="66" height="66" viewBox="0 0 66 66" fill="none" xmlns="http://www.w3.org/2000/svg">
<ellipse cx="32.9183" cy="33" rx="32.9183" ry="33" fill="#F5F5F5"/>
<g clip-path="url(#clip0_497_8)">
<path fill-rule="evenodd" clip-rule="evenodd" d="M25.6667 12H39.3333C46.8816 12 53 18.1184 53 25.6667V39.3333C53 46.8816 46.8816 53 39.3333 53H25.6667C18.1175 53 12 46.8816 12 39.3333V25.6667C12 18.1175 18.1184 12 25.6667 12ZM28.06 36.184C27.8289 35.9527 27.5543 35.7693 27.252 35.6444C26.9498 35.5195 26.6258 35.4556 26.2988 35.4563H26.297C25.9707 35.4547 25.6473 35.5178 25.3454 35.6418C25.0436 35.7658 24.7693 35.9484 24.5383 36.1789C24.3078 36.4099 24.1254 36.6844 24.0018 36.9865C23.8782 37.2885 23.8158 37.6121 23.8183 37.9385C23.8183 38.6116 24.0745 39.2343 24.5383 39.6989C24.7694 39.9297 25.044 40.1123 25.3462 40.236C25.6484 40.3598 25.9722 40.4223 26.2988 40.4198C26.9718 40.4198 27.5945 40.1636 28.0583 39.6989L28.0959 39.6622C28.5419 39.2003 28.788 38.5813 28.781 37.9393C28.781 37.2714 28.5247 36.6478 28.06 36.184ZM26.2953 33.695H26.3005V33.6967H26.3047C26.8622 33.6963 27.4143 33.8058 27.9293 34.0191C28.4444 34.2324 28.9123 34.5451 29.3063 34.9395C30.0992 35.7362 30.5445 36.8144 30.5448 37.9385C30.5448 39.0489 30.1263 40.0944 29.3678 40.8845L29.355 40.8973L29.3413 40.9101L29.3071 40.9443C28.913 41.3396 28.4443 41.6527 27.9281 41.8654C27.412 42.078 26.8587 42.1859 26.3005 42.1828C25.7423 42.1857 25.189 42.0777 24.6729 41.8651C24.1568 41.6525 23.688 41.3395 23.2938 40.9443C22.8987 40.5502 22.5858 40.0816 22.3734 39.5656C22.1609 39.0496 22.053 38.4965 22.0561 37.9385C22.0535 37.3805 22.1617 36.8275 22.3743 36.3115C22.5869 35.7956 22.8997 35.3269 23.2946 34.9327C23.688 34.538 24.1558 34.2252 24.6708 34.0126C25.1859 33.8 25.7381 33.6926 26.2953 33.695ZM38.697 35.4563C39.0237 35.456 39.3473 35.5202 39.6492 35.645C39.9511 35.7699 40.2255 35.9531 40.4566 36.184C40.6874 36.4138 40.8703 36.6872 40.9946 36.9882C41.1189 37.2892 41.1823 37.6119 41.1809 37.9376C41.1826 38.2639 41.1197 38.5874 40.996 38.8893C40.8723 39.1913 40.6901 39.4659 40.46 39.6972C40.2291 39.9281 39.9547 40.1109 39.6526 40.2349C39.3506 40.359 39.0269 40.4218 38.7004 40.4198C38.0273 40.4198 37.4038 40.1636 36.94 39.6989C36.7093 39.4679 36.5268 39.1935 36.4031 38.8914C36.2793 38.5894 36.2168 38.2657 36.219 37.9393C36.219 37.2663 36.4753 36.6436 36.94 36.1789C37.1707 35.9486 37.4448 35.7661 37.7463 35.6421C38.0478 35.5181 38.3709 35.4549 38.697 35.4563ZM38.7013 33.695H38.6961C38.1389 33.6926 37.5867 33.8009 37.0716 34.0135C36.5565 34.2261 36.0888 34.5388 35.6954 34.9335C35.3004 35.3275 34.9876 35.796 34.775 36.3119C34.5624 36.8277 34.4543 37.3806 34.4569 37.9385C34.4569 39.0805 34.8959 40.1456 35.6954 40.9451C36.0896 41.3402 36.5582 41.6532 37.0742 41.8658C37.5901 42.0784 38.1432 42.1864 38.7013 42.1837C39.2554 42.1874 39.8048 42.0813 40.3177 41.8717C40.8307 41.6621 41.297 41.353 41.69 40.9622H41.6917L41.7071 40.9451C42.102 40.5507 42.4148 40.0819 42.6274 39.5658C42.84 39.0497 42.9481 38.4966 42.9456 37.9385C42.9481 37.3814 42.8398 36.8294 42.627 36.3145C42.4143 35.7997 42.1013 35.3323 41.7062 34.9395C40.9111 34.1442 39.8327 33.6971 38.7081 33.6967H38.703L38.7013 33.695ZM38.3647 29.9247L38.9686 24.5802L32.5 27.3622L26.0314 24.5802L26.6353 29.9247C28.7895 30.5226 30.8036 31.6364 32.5 33.1628C34.1789 31.6454 36.1862 30.5371 38.3647 29.9247ZM24.2829 24.7792L23.9421 21.7631H23.9455L26.7318 22.9624L32.5043 25.4454L38.2759 22.9624L41.063 21.7631L40.7214 24.7783L40.1175 30.1237L39.9851 31.305L38.8379 31.6228C36.9226 32.1625 35.1579 33.1374 33.6813 34.4714L32.5026 35.5314L31.3238 34.4723C29.847 33.1379 28.082 32.1624 26.1664 31.6219L25.0201 31.3059L24.8868 30.1237L24.2829 24.7792Z" fill="#142D6F"/>
</g>
<defs>
<clipPath id="clip0_497_8">
<rect width="41" height="41" fill="white" transform="translate(12 12)"/>
</clipPath>
</defs>
</svg>
