<svg width="66" height="66" viewBox="0 0 66 66" fill="none" xmlns="http://www.w3.org/2000/svg">
<circle cx="32.9183" cy="32.9183" r="32.9183" fill="#F5F5F5"/>
<path d="M50.9668 47.0899H43.4808C42.9092 47.0899 42.4477 46.6252 42.4477 46.0567V18.4175C42.4477 17.8459 42.9123 17.3844 43.4808 17.3844H50.9668C51.5384 17.3844 52 17.8459 52 18.4175V46.0567C52 46.6252 51.5384 47.0899 50.9668 47.0899ZM17.6452 46.7322L30.0556 22.0367C30.3124 21.5263 30.1076 20.9057 29.5971 20.649L22.9089 17.2866C22.3984 17.0298 21.7779 17.2346 21.5211 17.7451L9.11074 42.4405C8.85398 42.951 9.05878 43.5715 9.56926 43.8283L16.2574 47.1907C16.7679 47.4444 17.3884 47.2396 17.6452 46.7322ZM36.0132 46.6344L41.3228 19.7167C41.4328 19.1573 41.0721 18.6162 40.5127 18.5031L33.1735 17.0206C32.6141 16.9075 32.0669 17.2713 31.9538 17.8307V17.8337L26.6443 44.7514C26.5342 45.3108 26.8949 45.8519 27.4543 45.965L34.7936 47.4475C35.3529 47.5606 35.9001 47.1968 36.0132 46.6375C36.0132 46.6375 36.0132 46.6375 36.0132 46.6344Z" fill="#6C00CB"/>
<mask id="mask0_2634_153" style="mask-type:luminance" maskUnits="userSpaceOnUse" x="9" y="17" width="43" height="31">
<path d="M50.9668 47.0899H43.4808C42.9092 47.0899 42.4477 46.6252 42.4477 46.0567V18.4175C42.4477 17.8459 42.9123 17.3844 43.4808 17.3844H50.9668C51.5384 17.3844 52 17.8459 52 18.4175V46.0567C52 46.6252 51.5384 47.0899 50.9668 47.0899ZM17.6452 46.7322L30.0556 22.0367C30.3124 21.5263 30.1076 20.9057 29.5971 20.649L22.9089 17.2866C22.3984 17.0298 21.7779 17.2346 21.5211 17.7451L9.11074 42.4405C8.85398 42.951 9.05878 43.5715 9.56926 43.8283L16.2574 47.1907C16.7679 47.4444 17.3884 47.2396 17.6452 46.7322ZM36.0132 46.6344L41.3228 19.7167C41.4328 19.1573 41.0721 18.6162 40.5127 18.5031L33.1735 17.0206C32.6141 16.9075 32.0669 17.2713 31.9538 17.8307V17.8337L26.6443 44.7514C26.5342 45.3108 26.8949 45.8519 27.4543 45.965L34.7936 47.4475C35.3529 47.5606 35.9001 47.1968 36.0132 46.6375C36.0132 46.6375 36.0132 46.6375 36.0132 46.6344Z" fill="white"/>
</mask>
<g mask="url(#mask0_2634_153)">
<path d="M54.6103 14.3828H6.38086V50.0765H54.6103V14.3828Z" fill="#6C00CB"/>
<mask id="mask1_2634_153" style="mask-type:luminance" maskUnits="userSpaceOnUse" x="6" y="14" width="49" height="37">
<path d="M54.6103 14.3828H6.38086V50.0765H54.6103V14.3828Z" fill="white"/>
</mask>
<g mask="url(#mask1_2634_153)">
<path d="M54.6103 14.3828H6.38086V50.0765H54.6103V14.3828Z" fill="#6C00CB"/>
<mask id="mask2_2634_153" style="mask-type:luminance" maskUnits="userSpaceOnUse" x="6" y="14" width="49" height="37">
<path d="M54.6103 14.3828H6.38086V50.0765H54.6103V14.3828Z" fill="white"/>
</mask>
<g mask="url(#mask2_2634_153)">
<path d="M54.6288 14.1406H6.23438V50.25H54.6288V14.1406Z" fill="#6C00CB"/>
</g>
</g>
</g>
</svg>
