<svg width="66" height="66" viewBox="0 0 66 66" fill="none" xmlns="http://www.w3.org/2000/svg">
<circle cx="32.9183" cy="32.9183" r="32.9183" fill="#F5F5F5"/>
<path d="M33 12C21.4016 12 12 21.4016 12 33C12 44.5984 21.4016 54 33 54C44.5984 54 54 44.5984 54 33C54 21.4016 44.5984 12 33 12ZM42.9685 38.1496C35.7874 45.3307 22.9606 43.0394 22.9606 43.0394C22.9606 43.0394 20.6457 30.2362 27.8504 23.0315C31.8425 19.0394 38.4567 19.2047 42.6378 23.3622C46.8189 27.5197 46.9606 34.1575 42.9685 38.1496Z" fill="black"/>
<path d="M35.4104 24.3086L33.3553 28.5369L29.127 30.5921L33.3553 32.6472L35.4104 36.8755L37.4655 32.6472L41.6939 30.5921L37.4655 28.5369L35.4104 24.3086Z" fill="black"/>
</svg>
