<svg width="66" height="66" viewBox="0 0 66 66" fill="none" xmlns="http://www.w3.org/2000/svg">
<circle cx="32.9183" cy="32.9183" r="32.9183" fill="#F5F5F5"/>
<path fill-rule="evenodd" clip-rule="evenodd" d="M38.7035 18.8984L29.5391 35.9834L32.9995 41.5855L38.7035 33.74V18.8984Z" fill="#9698EF"/>
<path fill-rule="evenodd" clip-rule="evenodd" d="M52.8903 33.5062L38.9395 41.5861L46.9901 27.6844L55.4453 25.0586L52.8903 33.5062Z" fill="#6669E7"/>
<path fill-rule="evenodd" clip-rule="evenodd" d="M13.1524 33.5192L25.1533 39.6788L19.0046 27.6674L10.5547 25.0586L13.1524 33.5192Z" fill="#6669E7"/>
<path fill-rule="evenodd" clip-rule="evenodd" d="M10 32.5742L32.9998 39.4401L56 32.5742L41.1217 47.4518H24.878L10 32.5742Z" fill="#9698EF"/>
<path fill-rule="evenodd" clip-rule="evenodd" d="M18.0664 24.5117L32.9994 39.4443L47.9329 24.5117L41.1213 47.456H24.8776L18.0664 24.5117Z" fill="#7E80EB"/>
<path fill-rule="evenodd" clip-rule="evenodd" d="M37.138 21.8155L32.9998 29.5309L28.8613 21.8155L33.0029 14L37.138 21.8155Z" fill="#6669E7"/>
<path fill-rule="evenodd" clip-rule="evenodd" d="M27.2949 18.8984L32.9988 29.5319L29.5362 37.4486L27.2949 35.1792V18.8984Z" fill="#7E80EB"/>
<path fill-rule="evenodd" clip-rule="evenodd" d="M33.0002 39.4688L40.9867 47.4552H25.0137L33.0002 39.4688Z" fill="#6669E7"/>
<path fill-rule="evenodd" clip-rule="evenodd" d="M35.8527 51.5968H30.1484L31.5744 46.0039H34.4267L35.8527 51.5968Z" fill="#6669E7"/>
<path fill-rule="evenodd" clip-rule="evenodd" d="M25.2231 47.5529L29.7256 36.2009C30.8297 35.9436 38.642 34.1237 38.642 34.1237C38.6878 34.113 38.7299 34.0892 38.7639 34.0555L48.1082 24.6942C48.2071 24.5946 48.2061 24.4345 48.1075 24.3357C48.0087 24.2371 47.8478 24.2371 47.7497 24.3357L38.4557 33.6465C37.6118 33.8433 29.4817 35.7375 29.4817 35.7375C29.4008 35.7559 29.3341 35.8133 29.3036 35.8907L24.7523 47.366C24.7007 47.4954 24.7644 47.6433 24.8942 47.6946C25.0242 47.7459 25.1715 47.6823 25.2231 47.5529Z" fill="#474758"/>
<path d="M24.9878 48.804C25.7307 48.804 26.3329 48.2016 26.3329 47.4586C26.3329 46.7156 25.7307 46.1133 24.9878 46.1133C24.2448 46.1133 23.6426 46.7156 23.6426 47.4586C23.6426 48.2016 24.2448 48.804 24.9878 48.804Z" fill="#474758"/>
<path d="M29.5385 37.3267C30.2815 37.3267 30.8837 36.7245 30.8837 35.9817C30.8837 35.2389 30.2815 34.6367 29.5385 34.6367C28.7956 34.6367 28.1934 35.2389 28.1934 35.9817C28.1934 36.7245 28.7956 37.3267 29.5385 37.3267Z" fill="#474758"/>
<path d="M38.861 35.2173C39.604 35.2173 40.2063 34.6152 40.2063 33.8723C40.2063 33.1295 39.604 32.5273 38.861 32.5273C38.118 32.5273 37.5156 33.1295 37.5156 33.8723C37.5156 34.6152 38.118 35.2173 38.861 35.2173Z" fill="#474758"/>
<path d="M47.9313 25.8579C48.6743 25.8579 49.2766 25.2557 49.2766 24.5129C49.2766 23.7701 48.6743 23.168 47.9313 23.168C47.1883 23.168 46.5859 23.7701 46.5859 24.5129C46.5859 25.2557 47.1883 25.8579 47.9313 25.8579Z" fill="#474758"/>
</svg>
