<svg width="66" height="66" viewBox="0 0 66 66" fill="none" xmlns="http://www.w3.org/2000/svg">
<circle cx="32.9183" cy="32.9183" r="32.9183" fill="#F5F5F5"/>
<g transform="translate(-4.52 -4.52) scale(0.156)">
<path fill="#185efe" d="
  M 240.01 259.29
  Q 240.35 259.29 240.55 258.85
  Q 256.58 223.89 283.55 165.28
  A 1.68 1.68 0.0 0 1 285.08 164.30
  L 367.50 164.30
  A 0.46 0.46 0.0 0 1 367.96 164.76
  L 367.96 315.42
  A 0.28 0.28 0.0 0 1 367.68 315.70
  L 312.51 315.70
  A 0.48 0.47 0.0 0 1 312.03 315.23
  L 312.03 221.20
  A 0.27 0.27 0.0 0 0 311.52 221.08
  L 268.38 314.85
  A 1.40 1.39 11.3 0 1 267.16 315.66
  Q 265.75 315.71 240.01 315.71
  Q 214.27 315.71 212.86 315.66
  A 1.40 1.39 -11.3 0 1 211.64 314.85
  L 168.49 221.09
  A 0.27 0.27 0.0 0 0 167.98 221.21
  L 167.99 315.24
  A 0.48 0.47 -0.0 0 1 167.51 315.71
  L 112.34 315.71
  A 0.28 0.28 0.0 0 1 112.06 315.43
  L 112.04 164.77
  A 0.46 0.46 0.0 0 1 112.50 164.31
  L 194.92 164.30
  A 1.68 1.68 0.0 0 1 196.45 165.28
  Q 223.43 223.89 239.46 258.85
  Q 239.66 259.29 240.01 259.29
  Z"
/>
</g>
</svg>
