<svg width="62" height="62" viewBox="0 0 62 62" fill="none" xmlns="http://www.w3.org/2000/svg">
<circle cx="31" cy="31" r="31" fill="#F5F5F5"/>
<svg x="11" y="11" width="40" height="40" viewBox="45.69 52.04 299.20 299.20">
<path fill="#000000" d="
  M 211.14 94.97
  C 197.66 99.57 190.79 79.95 204.56 75.33
  C 217.41 72.67 222.94 89.51 211.14 94.97
  Z"
/>
<path fill="#000000" d="
  M 173.03 86.34
  C 178.61 88.60 183.08 93.19 184.41 99.08
  Q 186.99 110.52 177.32 118.27
  A 5.08 4.82 11.5 0 1 176.39 118.85
  Q 173.40 120.27 171.54 121.19
  C 164.76 124.55 162.20 130.59 166.39 137.64
  C 168.17 140.62 170.14 142.59 171.08 145.68
  Q 173.15 152.45 171.04 157.75
  Q 165.89 170.69 151.21 169.50
  Q 143.47 168.02 139.02 161.64
  Q 134.14 154.10 137.25 145.34
  Q 139.64 138.59 145.16 135.94
  C 147.68 134.73 150.77 133.34 152.73 131.65
  Q 159.73 125.63 154.33 117.20
  Q 152.03 113.62 151.91 113.43
  C 147.47 106.40 147.79 98.36 153.09 91.91
  Q 160.38 83.04 173.03 86.34
  Z"
/>
<path fill="#000000" d="
  M 248.04 90.39
  C 261.59 93.37 267.87 108.73 258.77 119.83
  Q 251.93 128.18 239.79 125.74
  C 231.44 121.84 223.47 121.71 220.35 131.90
  Q 220.29 132.10 219.60 136.05
  C 217.92 145.79 209.42 152.17 199.50 151.27
  Q 186.11 148.81 183.80 135.98
  C 182.61 129.37 185.79 122.62 191.15 118.65
  Q 198.99 112.86 209.37 116.80
  C 219.04 120.65 225.04 116.84 226.75 107.46
  C 227.07 105.72 227.26 103.82 227.90 102.25
  Q 233.26 89.17 248.04 90.39
  Z"
/>
<path fill="#000000" d="
  M 131.90 106.80
  C 137.44 113.92 133.54 123.29 124.52 124.14
  C 114.15 123.90 109.55 110.93 118.70 104.97
  C 122.85 102.27 128.42 103.26 131.90 106.80
  Z"
/>
<path fill="#000000" d="
  M 242.19 171.02
  C 233.76 167.62 229.32 159.94 230.66 150.97
  Q 232.08 141.44 242.26 136.94
  Q 253.61 133.71 261.32 141.43
  C 264.54 144.64 265.36 148.85 267.84 152.13
  Q 272.45 158.20 279.51 156.00
  C 283.49 154.75 286.10 151.33 290.28 149.94
  Q 299.61 146.85 307.33 152.42
  C 316.63 159.13 316.94 172.87 308.67 180.31
  C 300.69 187.48 289.02 186.21 282.19 177.89
  C 280.46 175.78 279.34 172.12 277.97 170.01
  C 273.23 162.69 266.95 163.16 260.49 167.58
  Q 257.31 169.77 256.49 170.22
  Q 250.14 173.70 242.19 171.02
  Z"
/>
<path fill="#000000" d="
  M 120.44 141.54
  Q 128.49 149.51 125.59 160.59
  C 122.27 167.49 121.59 175.44 129.84 178.92
  Q 131.55 179.64 136.48 180.55
  C 149.44 182.95 155.43 197.34 148.13 208.57
  C 139.66 220.38 121.46 218.38 116.37 204.65
  C 114.17 198.73 115.40 194.51 117.41 188.98
  C 118.77 185.26 118.83 180.08 115.83 177.15
  C 112.40 173.80 108.57 173.50 104.13 172.57
  C 95.49 170.76 89.81 162.52 90.24 153.76
  Q 90.95 146.31 96.54 141.25
  Q 108.63 132.41 120.44 141.54
  Z"
/>
<path fill="#000000" d="
  M 209.74 170.52
  C 224.94 176.01 233.58 190.84 230.28 206.76
  Q 225.66 224.38 208.21 229.95
  C 184.25 235.46 164.51 215.75 170.06 191.76
  C 175.29 174.36 192.16 165.48 209.74 170.52
  Z"
/>
<path fill="#000000" d="
  M 88.78 202.57
  Q 77.84 204.76 75.27 194.98
  Q 73.64 188.80 79.28 184.23
  C 86.91 179.89 95.13 183.94 95.61 192.56
  Q 95.96 198.76 88.78 202.57
  Z"
/>
<path fill="#000000" d="
  M 309.32 249.20
  C 303.09 270.85 271.57 265.50 273.78 242.57
  C 274.07 239.58 275.88 236.35 276.42 233.49
  C 278.01 225.04 272.98 221.12 265.49 219.84
  C 259.12 218.75 254.05 216.32 250.94 210.32
  Q 245.04 198.96 254.13 188.71
  C 267.49 176.95 286.64 187.22 284.62 204.71
  A 7.73 7.57 -33.1 0 1 284.29 206.20
  C 283.66 208.13 282.23 211.35 281.87 213.98
  Q 280.47 223.98 291.08 226.40
  C 293.74 227.01 297.36 227.41 300.32 229.13
  Q 311.42 235.56 309.32 249.20
  Z"
/>
<path fill="#000000" d="
  M 103.82 214.96
  Q 112.41 215.53 117.49 221.81
  C 119.83 224.70 120.86 228.94 123.18 231.66
  C 129.72 239.33 136.55 234.49 142.93 230.06
  A 6.13 5.52 14.3 0 1 144.21 229.39
  Q 152.98 226.09 160.20 230.14
  C 175.64 238.79 171.19 261.37 153.63 263.98
  Q 143.53 264.69 137.43 257.22
  C 135.77 255.18 134.87 252.83 133.76 250.49
  C 131.34 245.41 126.56 242.16 120.73 243.93
  C 117.37 244.94 114.56 247.42 112.18 248.86
  Q 108.62 251.02 103.39 251.19
  Q 99.39 251.32 94.75 248.79
  Q 82.51 242.09 86.40 226.49
  Q 91.72 215.32 103.82 214.96
  Z"
/>
<path fill="#000000" d="
  M 250.29 230.77
  Q 264.19 235.29 264.03 249.95
  Q 263.09 257.67 257.44 262.38
  C 253.50 265.66 248.35 266.07 245.21 270.57
  Q 242.22 274.85 244.17 280.13
  Q 244.56 281.19 248.76 287.49
  Q 250.77 290.52 251.21 295.66
  C 251.37 304.94 245.55 312.38 236.44 314.42
  Q 226.08 315.78 219.73 308.72
  C 212.64 300.85 213.73 289.18 221.77 282.45
  C 224.72 280.43 228.69 279.02 230.96 277.35
  Q 237.77 272.34 234.67 264.33
  C 233.61 261.59 230.60 258.20 228.99 254.90
  Q 224.99 241.68 235.29 233.81
  Q 241.55 229.01 250.29 230.77
  Z"
/>
<path fill="#000000" d="
  M 215.14 273.23
  C 211.77 281.55 203.55 286.06 194.65 284.50
  Q 192.25 283.84 189.73 282.85
  C 184.42 280.77 178.01 281.10 175.05 287.00
  Q 173.84 289.12 173.37 291.60
  Q 172.92 294.04 172.25 296.44
  Q 169.82 305.12 161.51 308.53
  Q 155.78 310.89 149.15 308.79
  Q 139.14 304.96 137.09 294.17
  C 136.12 282.73 144.44 272.82 156.20 273.61
  Q 157.83 273.72 162.67 275.35
  Q 165.91 276.44 169.39 276.77
  Q 177.06 276.56 179.35 268.66
  C 180.26 265.51 180.57 261.90 181.85 259.21
  Q 184.93 252.74 191.79 249.79
  Q 208.14 245.37 214.93 259.79
  Q 217.81 265.90 215.14 273.23
  Z"
/>
<path fill="#000000" d="
  M 120.20 283.98
  C 112.39 289.71 102.94 283.92 103.42 274.52
  Q 105.75 265.69 113.57 265.68
  C 123.63 265.68 127.77 277.65 120.20 283.98
  Z"
/>
<path fill="#000000" d="
  M 279.98 276.81
  Q 282.24 277.89 283.93 279.80
  C 288.40 285.52 286.12 293.22 279.66 295.87
  C 273.35 298.45 266.44 294.20 265.69 287.39
  C 264.82 279.50 272.51 273.78 279.98 276.81
  Z"
/>
<path fill="#000000" d="
  M 200.93 320.99
  C 192.86 330.60 178.01 321.16 183.38 310.12
  Q 185.39 305.98 190.23 304.60
  C 200.00 302.99 206.53 312.72 200.93 320.99
  Z"
/>
</svg>
</svg>
