<svg width="66" height="66" viewBox="0 0 66 66" fill="none" xmlns="http://www.w3.org/2000/svg">
<circle cx="32.9183" cy="32.9183" r="32.9183" fill="#F5F5F5"/>
<path d="M46.648 28.7538L51.2552 38.9324C52.1876 40.9922 51.2458 43.4055 49.1518 44.3226C47.058 45.2397 44.6047 44.3132 43.6723 42.2534L39.9482 34.0253L38.3068 37.8288V28.7538H46.648Z" fill="#2AA8FF"/>
<path d="M47.1474 29.8569L48.1007 31.9629C47.5249 31.7662 46.9064 31.6592 46.2626 31.6592C43.6025 31.6592 41.3763 33.4834 40.8092 35.9279L39.9482 34.0253L39.0356 36.1402V29.8569H47.1474Z" fill="#393939" fill-opacity="0.2"/>
<path d="M33.2827 28.5751V35.783H25.6077L24.8122 34.0253L24.0536 35.783H15.5641V34.56L20.885 22.2294C21.5579 20.6699 23.1008 19.7355 24.7215 19.7411C26.3158 19.7356 27.8394 20.6393 28.5295 22.1641L32.3791 30.6692L33.2827 28.5751Z" fill="#017ACE"/>
<path d="M32.3735 30.6569L32.3791 30.6693L36.0209 22.2294C36.694 20.6699 38.2368 19.7355 39.8574 19.7411C41.4518 19.7356 42.9755 20.6393 43.6654 22.1641L48.0966 31.9543C47.2031 31.1953 46.039 30.7362 44.7657 30.7362C42.5533 30.7362 40.6701 32.1221 39.9638 34.0596L39.9482 34.0253L36.3706 42.3159C35.475 44.3914 33.0385 45.3598 30.9286 44.4788C30.7223 44.3926 30.5267 44.2919 30.3424 44.1784C29.5687 43.7645 28.9222 43.1062 28.5364 42.2534L24.8265 34.0571C25.385 34.2145 25.9748 34.2987 26.5846 34.2987C29.1507 34.2987 31.3626 32.8071 32.3735 30.6569Z" fill="#AEDEFF"/>
</svg>
