<svg width="66" height="66" viewBox="0 0 66 66" fill="none" xmlns="http://www.w3.org/2000/svg">
<circle cx="32.9183" cy="32.9183" r="32.9183" fill="#F5F5F5"/>
<g clip-path="url(#clip0_2619_57)">
<path d="M15.0766 37.4503C15.0766 39.2356 15.4705 40.6006 15.9853 41.4283C16.2597 41.8996 16.6548 42.2903 17.1305 42.5608C17.6061 42.8314 18.1454 42.9721 18.6936 42.9686C20.0175 42.9686 21.2286 42.644 23.5626 39.4369C25.4324 36.8676 27.6356 33.2693 29.1197 30.9971L31.6302 27.1667C33.3741 24.5065 35.3894 21.5494 37.7071 19.5384C39.5948 17.9089 41.633 17 43.6842 17C47.128 17 50.4083 18.9817 52.9188 22.6985C55.6663 26.7691 57.0049 31.8962 57.0049 37.1873C57.0049 40.3328 56.3805 42.644 55.3182 44.4699C54.2934 46.2358 52.2863 48 48.921 48V42.9686C51.8025 42.9686 52.5167 40.3393 52.5167 37.3302C52.5167 33.0421 51.5099 28.2834 49.292 24.8831C47.718 22.4713 45.6782 20.9975 43.4341 20.9975C41.007 20.9975 39.0538 22.8153 36.8588 26.0565C35.6918 27.7786 34.4937 29.8772 33.1486 32.2452L31.6678 34.842C28.6931 40.0796 27.9396 41.2725 26.4523 43.2413C23.8503 46.7016 21.6241 48 18.6936 48C15.2171 48 13.0188 46.5052 11.6655 44.2524C10.5459 42.4168 10 40.0082 10 37.2636L15.0766 37.4503Z" fill="#0081FB"/>
<path d="M14.002 23.0539C16.3294 19.4914 19.6882 17 23.5406 17C25.7716 17 27.9895 17.6492 30.3055 19.5336C32.8389 21.5867 35.5357 24.9675 38.9076 30.5394L40.1154 32.539C43.0313 37.3626 44.6919 39.8426 45.6611 41.0145C46.9098 42.5174 47.7859 42.9621 48.9202 42.9621C51.8017 42.9621 52.5159 40.3328 52.5159 37.3237L56.9943 37.1841C56.9943 40.3295 56.3699 42.6407 55.3076 44.4666C54.2926 46.2358 52.2855 48 48.9202 48C46.8281 48 44.9746 47.5488 42.925 45.6287C41.3494 44.155 39.5074 41.5371 38.0903 39.1837L33.8751 32.1916C31.7602 28.6826 29.8201 26.0663 28.6972 24.888C27.4877 23.6074 25.9366 22.0687 23.4588 22.0687C21.4534 22.0687 19.7503 23.4662 18.3251 25.6037L14.002 23.0539Z" fill="url(#paint0_linear_2619_57)"/>
<path d="M23.4596 22.0687C21.4542 22.0687 19.7511 23.4662 18.3258 25.6037C16.3106 28.6242 15.0766 33.1232 15.0766 37.4503C15.0766 39.2356 15.4705 40.6006 15.9853 41.4283L11.6573 44.2524C10.5459 42.4168 10 40.0082 10 37.2636C10 32.2728 11.3795 27.0709 14.0027 23.0539C16.3302 19.4914 19.689 17 23.5413 17L23.4596 22.0687Z" fill="url(#paint1_linear_2619_57)"/>
</g>
<defs>
<linearGradient id="paint0_linear_2619_57" x1="20.1883" y1="31.6966" x2="52.5491" y2="33.3425" gradientUnits="userSpaceOnUse">
<stop stop-color="#0064E1"/>
<stop offset="0.4" stop-color="#0064E1"/>
<stop offset="0.83" stop-color="#0073EE"/>
<stop offset="1" stop-color="#0082FB"/>
</linearGradient>
<linearGradient id="paint1_linear_2619_57" x1="16.7699" y1="39.5602" x2="16.7699" y2="27.712" gradientUnits="userSpaceOnUse">
<stop stop-color="#0082FB"/>
<stop offset="1" stop-color="#0064E0"/>
</linearGradient>
<clipPath id="clip0_2619_57">
<rect width="47" height="31" fill="white" transform="translate(10 17)"/>
</clipPath>
</defs>
</svg>
