<svg width="66" height="66" viewBox="0 0 66 66" fill="none" xmlns="http://www.w3.org/2000/svg">
<circle cx="32.9183" cy="32.9183" r="32.9183" fill="#F5F5F5"/>
<path d="M12 22.3711C12 16.6433 16.6433 12 22.3711 12H43.1131C48.8409 12 53.4842 16.6433 53.4842 22.3711V43.1131C53.4842 48.8409 48.8409 53.4842 43.1131 53.4842H22.3711C16.6433 53.4842 12 48.8409 12 43.1131V22.3711Z" fill="#FFDD33"/>
<path d="M39.5796 19.9079H35.8139L38.9521 25.4218L32.0481 19.9079H28.2822L31.7343 26.6471L24.5164 19.9079H20.7505L24.5164 28.4862L20.7505 45.6411H24.5164L31.7343 27.2607L28.2822 45.6411H32.0481L38.9521 26.0352L35.8139 45.6411H39.5797L46.4837 24.1962L39.5797 19.9079H39.5796Z" fill="black"/>
</svg>
