<svg width="66" height="66" viewBox="0 0 66 66" fill="none" xmlns="http://www.w3.org/2000/svg">
<circle cx="32.9183" cy="32.9183" r="32.9183" fill="#F5F5F5"/>
<g clip-path="url(#clip0_4709_25)">
<path d="M25.031 29.853H29.8614C28.6519 29.1005 28.2002 28.0515 27.5955 26.1056L25.7812 19.4316C24.9545 16.4291 24.2732 15.0076 20.9508 15.0076H14.0077V16.8091H14.9952C17.0314 16.8091 17.2611 17.5617 17.8658 19.8117L19.4504 25.6647C20.2772 28.5076 21.5709 29.853 25.031 29.853ZM36.2151 29.853H41.0455C44.521 29.853 45.7228 28.5 46.5572 25.6571L48.1418 19.8041C48.7466 17.5541 49.0451 16.8015 51.0125 16.8015H52V15H45.1257C41.7268 15 41.0455 16.353 40.2877 19.424L38.4734 26.098C37.8763 28.1199 37.417 29.1005 36.2151 29.853ZM29.8691 36.147H36.2151V29.8454H29.8691V36.147ZM14.0077 51H20.9508C24.2732 51 24.9545 49.5709 25.7812 46.576L27.5955 39.902C28.2002 37.9561 28.6519 36.8995 29.8614 36.1546H25.031C21.5556 36.1546 20.2695 37.5076 19.4428 40.3505L17.8582 46.2035C17.2534 48.4535 17.0314 49.2061 14.9875 49.2061H14L14.0077 51ZM45.1181 51H51.9923V49.1985H51.0048C49.0451 49.1985 48.7389 48.4459 48.1342 46.1959L46.5496 40.3429C45.7228 37.4924 44.5133 36.147 41.0379 36.147H36.2151C37.4247 36.8995 37.861 37.8725 38.4658 39.8944L40.28 46.5684C41.0379 49.647 41.7192 51 45.1181 51Z" fill="#7856FF"/>
</g>
<defs>
<clipPath id="clip0_4709_25">
<rect width="38" height="36" fill="white" transform="translate(14 15)"/>
</clipPath>
</defs>
</svg>
