<svg width="66" height="66" viewBox="0 0 66 66" fill="none" xmlns="http://www.w3.org/2000/svg">
<circle cx="32.9183" cy="32.9183" r="32.9183" fill="#F5F5F5"/>
<path d="M15.0405 47.1134C12.8551 47.1181 10.8362 45.9466 9.75601 44.0469C8.69137 42.1589 8.75521 39.8375 9.92201 38.0108L20.8045 20.9217C21.9384 19.0518 23.9907 17.9367 26.1765 18.0028C28.3607 18.0551 30.3475 19.2798 31.3757 21.2076C32.3901 23.1258 32.2633 25.4337 31.0483 27.2344L20.1727 44.3236C19.0518 46.0702 17.1158 47.1226 15.0405 47.1134Z" fill="#F62B54"/>
<path d="M33.7066 47.1134C31.5117 47.1134 29.492 45.9398 28.4314 44.0538C27.3691 42.1709 27.433 39.8554 28.5974 38.0339L39.4591 20.9839C40.5767 19.0873 42.6351 17.946 44.8358 18.0028C47.0492 18.0512 49.0551 19.2893 50.0695 21.226C51.0771 23.1627 50.9295 25.4845 49.6776 27.2805L38.8182 44.3305C37.7008 46.0696 35.7737 47.1187 33.7066 47.1134Z" fill="#FFCC00"/>
<path d="M51.9555 47.2563C55.0497 47.2563 57.5581 44.8006 57.5581 41.7713C57.5581 38.742 55.0497 36.2862 51.9555 36.2862C48.8613 36.2862 46.3529 38.742 46.3529 41.7713C46.3529 44.8006 48.8613 47.2563 51.9555 47.2563Z" fill="#00CA72"/>
</svg>
