<svg width="66" height="66" viewBox="0 0 66 66" fill="none" xmlns="http://www.w3.org/2000/svg">
<circle cx="32.9183" cy="32.9183" r="32.9183" fill="#F5F5F5"/>
<path fill-rule="evenodd" clip-rule="evenodd" d="M19.6001 35.2142C20.4307 38.7172 23.4063 43.7813 32.5667 44.491C45.6142 44.4033 47.5744 36.8451 47.5744 32.3277C47.5744 25.8585 45.2378 24.7669 40.0005 24.7669C25.3235 25.1354 20.8956 24.1972 16.4681 23.259C15.7939 23.1162 15.1197 22.9733 14.4094 22.8351C14.4094 22.8351 14.5314 26.1541 16.5349 29.615C18.4725 32.9623 21.9657 34.679 23.5524 35.4588C24.0682 35.7123 24.3825 35.8668 24.3765 35.9461C24.3638 36.1141 23.7373 36.0264 23.7309 36.0255C21.3913 35.7024 19.6001 35.2142 19.6001 35.2142ZM54.0092 30.3482C55.11 30.6965 56 31.2395 56 32.0862C56 32.927 55.1217 33.514 54.0312 33.9192L54.0308 33.9195C53.6933 34.0447 53.3363 34.1524 52.978 34.2453C52.8443 34.3229 52.7159 34.4173 52.6073 34.5352C52.3578 34.8068 52.2146 35.1597 52.134 35.4455C51.5803 38.8805 49.9786 41.7429 47.7453 44.1668C44.1771 48.0387 30.2283 53.5639 19.965 44.7619C15.2304 40.7009 14.3573 35.6812 14.5666 33.3799L14.5711 33.3294C9.12148 28.9797 10.0412 20.408 10.0839 20.0388L10.4363 17L13.2747 18.023C13.3014 18.0325 16.1946 19.0595 19.4281 19.4161C22.7622 19.784 24.1694 19.8656 24.6879 19.8828H40.0005C48.8173 19.8828 51.4567 24.1759 52.1547 28.8683C52.2386 29.1406 52.3776 29.4593 52.6073 29.7095C52.8064 29.9264 53.0716 30.0673 53.3194 30.1593C53.5028 30.2027 53.6843 30.2503 53.8612 30.303C53.9656 30.3202 54.0312 30.3254 54.0312 30.3254L54.0092 30.3482ZM40.5908 29.8104C40.5908 28.4404 41.3905 27.6974 42.5787 27.6974C43.8815 27.6974 44.59 28.4173 44.59 29.7873C44.59 31.041 43.7447 31.8074 42.5787 31.8074C41.3905 31.8074 40.5908 31.0875 40.5908 29.8104Z" fill="#2491FF"/>
</svg>
