<svg width="66" height="66" viewBox="0 0 66 66" fill="none" xmlns="http://www.w3.org/2000/svg">
<circle cx="32.9183" cy="32.9183" r="32.9183" fill="#F5F5F5"/>
<path d="M36.7205 18.7926C34.9228 16.6514 33.3747 14.4768 33.0585 14.0251C33.0252 13.9916 32.9752 13.9916 32.942 14.0251C32.6257 14.4768 31.0777 16.6514 29.28 18.7926C13.8497 38.5486 31.7102 51.8812 31.7102 51.8812L31.86 51.9815C31.9932 54.039 32.3261 57 32.3261 57H32.9919H33.6577C33.6577 57 33.9906 54.0558 34.1238 51.9815L34.2736 51.8644C34.2902 51.8812 52.1508 38.5486 36.7205 18.7926ZM32.9919 51.58C32.9919 51.58 32.1929 50.8942 31.9765 50.543V50.5093L32.942 28.9969C32.942 28.93 33.0418 28.93 33.0418 28.9969L34.0073 50.5093V50.543C33.7909 50.8942 32.9919 51.58 32.9919 51.58Z" fill="#001E2B"/>
</svg>
