<svg width="66" height="66" viewBox="0 0 66 66" fill="none" xmlns="http://www.w3.org/2000/svg">
<circle cx="32.9183" cy="32.9183" r="32.9183" fill="#F5F5F5"/>
<g clip-path="url(#clip0_260_2)">
<path d="M9.2586 40.0124C9.2586 40.0124 23.3159 49.8177 24.1706 50.3065C24.9958 50.7953 26.204 50.9103 27.265 50.5078C28.3258 50.1052 29.1216 49.1851 29.3573 48.265C29.6226 47.3447 32.8348 30.7822 32.8348 30.7822C32.8643 30.5522 32.9527 29.8908 32.5991 29.2581C32.098 28.3955 30.9782 27.9355 29.9762 28.223C29.1806 28.453 28.7679 29.0281 28.65 29.2294C28.4732 29.5457 28.1491 30.0634 27.5597 30.5234C27.1176 30.8685 26.6756 31.0697 26.4692 31.156C24.6716 31.8748 22.6676 31.271 21.5183 29.8333C20.8109 28.9419 19.5437 28.5968 18.4239 29.0281C17.304 29.4594 16.6556 30.5809 16.7441 31.7023C16.9503 33.4851 15.9189 35.2679 14.0917 35.9868C13.1192 36.3606 12.0877 36.3606 11.1742 36.073C10.9679 36.0155 10.2311 35.843 9.49437 36.2455C8.58079 36.7056 8.10926 37.7983 8.34502 38.7759C8.52184 39.4373 9.05231 39.8686 9.2586 40.0124Z" fill="#FF9538"/>
<path d="M32.6875 18.5328C32.6875 18.5328 37.6974 34.6928 38.0511 35.5555C38.4047 36.4468 39.2888 37.2519 40.3792 37.5682C41.4696 37.8846 42.6779 37.6257 43.4442 37.0507C44.2103 36.4756 57.1478 25.2901 57.1478 25.2901C57.3247 25.1463 57.7961 24.6575 57.914 23.9386C58.0613 22.961 57.4425 21.9258 56.4994 21.552C55.7333 21.2645 55.0259 21.4657 54.8197 21.552C54.4955 21.6958 53.9061 21.8971 53.1693 21.9258C52.5799 21.9546 52.1378 21.8396 51.9021 21.782C50.0455 21.2645 48.8077 19.5967 48.8077 17.7852C48.7783 16.6637 48.012 15.6286 46.8627 15.3123C45.6839 14.996 44.4755 15.4848 43.8567 16.4337C42.8841 17.9864 40.9686 18.7628 39.0825 18.2452C38.0806 17.9577 37.2553 17.3538 36.7249 16.5775C36.5775 16.4049 36.106 15.8298 35.2808 15.6861C34.2789 15.5136 33.1884 16.0886 32.7758 16.98C32.4517 17.6701 32.6285 18.3027 32.6875 18.5328Z" fill="#FF9538"/>
</g>
<defs>
<clipPath id="clip0_260_2">
<rect width="50" height="36" fill="white" transform="translate(8 15)"/>
</clipPath>
</defs>
</svg>
