<svg width="66" height="66" viewBox="0 0 66 66" fill="none" xmlns="http://www.w3.org/2000/svg">
<circle cx="32.9183" cy="32.9183" r="32.9183" fill="#F5F5F5"/>
<path d="M31.0756 13.7144C28.0839 13.9657 25.1943 14.9224 22.6437 16.506C20.0931 18.0896 17.954 20.2551 16.4019 22.825L18.7938 22.8519L21.5619 22.9056C22.6369 23.0131 23.5506 23.4431 24.2494 24.1688C24.8944 24.8138 25.2706 25.5125 25.5394 26.5606C25.8183 27.8396 25.9088 29.1524 25.8081 30.4575V33.1988L26.6681 29.5706L27.6625 25.5394C28.0925 24.0881 28.7913 23.0938 29.6244 22.7713C29.8294 22.6902 30.0492 22.6536 30.2694 22.6638C30.6456 22.6638 30.7263 22.6638 30.9413 22.7981C31.3713 23.0131 31.7206 23.47 31.9088 24.1419C32.1238 24.9481 32.1238 24.6794 32.1775 31.8819C32.1775 38.0631 32.1775 38.5469 32.2581 38.7619C32.4194 39.2188 32.7419 39.38 32.9838 39.0844C33.1181 38.9231 33.3869 38.3856 33.5213 37.875C33.6019 37.66 34.3275 34.865 35.08 31.6938L36.6119 25.4319C37.1763 23.5506 38.1706 22.5831 39.38 22.6638C40.24 22.7175 40.7238 23.3894 40.9925 24.8138C41.0463 25.19 41.0731 25.8888 41.1 31.0756V36.9075L41.2075 37.2569C41.4763 38.1975 42.0138 38.7619 42.82 38.8963C44.1185 38.9401 45.4179 38.9491 46.7169 38.9231H50.345L50.4794 38.52C51.401 35.7525 51.6768 32.8106 51.2856 29.92C50.6159 25.1544 48.1503 20.8249 44.3934 17.8173C40.6365 14.8098 35.8723 13.3517 31.0756 13.7413V13.7144Z" fill="black"/>
<path d="M30.0812 24.4375C29.8125 24.5719 29.5169 25.0556 29.2212 25.8619C29.1406 26.1306 28.3075 29.49 27.3937 33.3869C26.8297 35.7854 26.2384 38.1774 25.62 40.5625C25.553 40.6714 25.4716 40.7709 25.3781 40.8581C25.2437 41.0194 25.2169 41.0194 24.975 41.0194C24.7062 41.0194 24.7062 41.0194 24.5181 40.8581C24.1956 40.5087 24.2225 41.1 24.1956 33.9512C24.1687 27.6894 24.1687 27.5819 24.0612 27.2056C23.7925 26.1037 23.2819 25.3244 22.5025 24.975C21.8037 24.6525 21.6425 24.6256 18.2562 24.6256H15.4075L15.1387 25.1631C13.8213 28.2398 13.3484 31.6123 13.7691 34.9326C14.1897 38.253 15.4885 41.401 17.5315 44.052C19.5745 46.703 22.2878 48.761 25.3914 50.0136C28.495 51.2663 31.8767 51.6683 35.1875 51.1781C38.1782 50.7629 41.0264 49.639 43.4947 47.9C45.963 46.1609 47.98 43.8571 49.3775 41.1806L49.5925 40.7506H46.3137C44.2712 40.7506 42.9006 40.7506 42.6856 40.6969C41.2075 40.5356 40.2131 39.6219 39.7831 38.0631C39.5144 37.23 39.5412 37.3912 39.5144 30.9681C39.5144 26.8562 39.4606 24.975 39.4337 24.8675C39.3262 24.4375 39.2456 24.3837 39.0306 24.4912C38.735 24.6256 38.3856 25.19 38.1169 25.9694L36.585 32.1506C36.0902 34.2463 35.5615 36.3339 34.9994 38.4125C34.6769 39.4069 34.2737 40.1056 33.8169 40.5356C33.3869 40.9119 33.0106 41.0731 32.4731 40.9656C31.6669 40.8312 31.1294 40.2937 30.8069 39.2725C30.5919 38.5469 30.6187 38.735 30.5919 31.6131C30.565 24.5987 30.565 24.7869 30.3769 24.545C30.2694 24.4106 30.2694 24.4106 30.1081 24.4912L30.0812 24.4375Z" fill="black"/>
</svg>
