<svg width="66" height="66" viewBox="0 0 66 66" fill="none" xmlns="http://www.w3.org/2000/svg">
<circle cx="32.9183" cy="32.9183" r="32.9183" fill="#F5F5F5"/>
<path fill-rule="evenodd" clip-rule="evenodd" d="M58 25C58 27.7604 55.7042 30 52.8708 30C50.4833 30 48.475 28.4062 47.9042 26.25H40.7458C39.4917 26.25 38.4229 27.1333 38.2167 28.3396L38.0062 29.5729C37.8093 30.7132 37.2197 31.7487 36.3396 32.5C37.1979 33.2375 37.8062 34.2583 38.0062 35.4271L38.2146 36.6604C38.3223 37.2517 38.6356 37.7858 39.0993 38.1683C39.5629 38.5507 40.1469 38.7568 40.7479 38.75H42.7792C43.3479 36.5938 45.3562 35 47.7458 35C50.5792 35 52.8729 37.2396 52.8729 40C52.8729 42.7604 50.575 45 47.7458 45C45.3562 45 43.35 43.4062 42.7792 41.25H40.7479C38.2396 41.25 36.1021 39.4833 35.6896 37.0729L35.4792 35.8396C35.3716 35.249 35.0588 34.7154 34.596 34.3331C34.1333 33.9507 33.5503 33.7442 32.95 33.75H30.8542C30.2125 35.8 28.2583 37.2917 25.9458 37.2917C23.6333 37.2917 21.6792 35.8 21.0396 33.75H18.0354C17.3937 35.8 15.4396 37.2917 13.1292 37.2917C10.2958 37.2917 8 35.0521 8 32.2917C8 29.5312 10.2958 27.2917 13.1292 27.2917C15.5937 27.2917 17.6542 28.9896 18.1458 31.25H20.9312C21.4229 28.9896 23.4833 27.2917 25.9479 27.2917C28.4146 27.2917 30.4729 28.9896 30.9646 31.25H32.9479C34.2 31.25 35.2708 30.3667 35.475 29.1604L35.6875 27.9271C36.1 25.5167 38.2396 23.75 40.7458 23.75H47.9042C48.475 21.5938 50.4833 20 52.8708 20C55.7042 20 58 22.2396 58 25ZM55.4375 25C55.4375 26.3812 54.2875 27.5 52.8708 27.5C51.4542 27.5 50.3083 26.3812 50.3083 25C50.3083 23.6187 51.4542 22.5 52.8708 22.5C54.2875 22.5 55.4354 23.6187 55.4354 25H55.4375ZM13.1271 34.7917C14.5437 34.7917 15.6896 33.6729 15.6896 32.2917C15.6896 30.9104 14.5437 29.7917 13.1271 29.7917C11.7104 29.7917 10.5625 30.9104 10.5625 32.2917C10.5625 33.6729 11.7104 34.7917 13.1271 34.7917ZM25.9458 34.7917C27.3625 34.7917 28.5104 33.6729 28.5104 32.2917C28.5104 30.9104 27.3646 29.7917 25.9479 29.7917C24.5312 29.7917 23.3833 30.9104 23.3833 32.2917C23.3833 33.6729 24.5292 34.7917 25.9458 34.7917ZM47.7417 42.5C49.1583 42.5 50.3042 41.3812 50.3042 40C50.3042 38.6188 49.1583 37.5 47.7417 37.5C46.325 37.5 45.1792 38.6188 45.1792 40C45.1792 41.3812 46.325 42.5 47.7417 42.5Z" fill="#EA4B71"/>
</svg>
