<svg width="66" height="66" viewBox="0 0 66 66" fill="none" xmlns="http://www.w3.org/2000/svg">
<circle cx="32.9183" cy="32.9183" r="32.9183" fill="#F5F5F5"/>
<path d="M28 24C24.1402 24 21 20.6341 21 16.4878C21 12.3659 24.1402 9 28 9C31.8599 9 35 12.3659 35 16.4878C35 20.6341 31.8599 24 28 24Z" fill="#008EFF"/>
<path d="M51 34.4651C50.9096 27.3965 49.9618 20.4441 47.1856 13.9335C46.6214 12.6314 44.5673 12.7476 43.9805 13.9335C38.5862 24.6527 28.3617 31.0703 16.8959 32.5584H16.8734C15.8351 32.5584 15 33.4187 15 34.4883C15 35.5579 15.8351 36.4184 16.8734 36.4184C28.3618 37.9065 38.6087 44.3472 43.9805 55.0664C44.5673 56.2524 46.6214 56.3687 47.1856 55.0664C49.9618 48.5558 50.9096 41.6034 51 34.5348V34.5116V34.4651Z" fill="#008EFF"/>
</svg>
