<svg width="66" height="66" viewBox="0 0 66 66" fill="none" xmlns="http://www.w3.org/2000/svg">
<circle cx="32.9183" cy="32.9183" r="32.9183" fill="#F5F5F5"/>
<path d="M22.9841 45.5944H22.5684L20.4902 43.5162V43.1006L23.6768 39.9141H25.8935L26.2052 40.2258V42.4425L22.9841 45.5944Z" fill="#05BDBA"/>
<path d="M20.4902 21.9352V21.5196L22.5684 19.4414H22.9841L26.1706 22.628V24.8447L25.8935 25.1218H23.6768L20.4902 21.9352Z" fill="#05BDBA"/>
<path d="M38.8825 38.8376H35.8345L35.592 38.5951V31.46C35.592 30.1785 35.1071 29.2087 33.5831 29.174C32.7865 29.1394 31.8859 29.174 30.9508 29.2087L30.8122 29.3472V38.5605L30.5698 38.8029H27.5218L27.2793 38.5605V26.4378L27.5218 26.1953H34.3798C37.0468 26.1953 39.1942 28.3428 39.1942 31.0098V38.5951L38.8825 38.8376Z" fill="#014847"/>
<path d="M23.3998 34.2673H11.2425L11 34.0248V30.9768L11.2425 30.7344H23.3998L23.6423 30.9768V34.0248L23.3998 34.2673Z" fill="#05BDBA"/>
<path d="M55.0912 34.2673H42.9339L42.6914 34.0248V30.9768L42.9339 30.7344H55.0912L55.3337 30.9768V34.0248L55.0912 34.2673Z" fill="#05BDBA"/>
<path d="M31.4004 22.3865V13.2425L31.6775 13H34.7255L34.9679 13.2425V22.3518L34.7255 22.5943H31.6775L31.4004 22.3865Z" fill="#05BDBA"/>
<path d="M31.4004 51.7581V42.6487L31.6428 42.4062H34.6908L34.9333 42.6487V51.7581L34.6908 52.0005H31.6428L31.4004 51.7581Z" fill="#05BDBA"/>
</svg>
