<svg width="66" height="66" viewBox="0 0 66 66" fill="none" xmlns="http://www.w3.org/2000/svg">
<circle cx="32.9183" cy="32.9183" r="32.9183" fill="#F5F5F5"/>
<g transform="translate(7.1040 7.1048) scale(0.581463)">
<path d="M23.229 69.53h2.646v9.26h-2.646zM10 69.53v2.645h6.614v6.615h2.646v-9.26h-2.646z" fill="#0972a5" />
<path d="M10 36.457V65.56h15.875v-2.646h-13.23V36.457z" fill="#71a865" />
<path d="M10 23.228v2.646h13.229V56.3H19.26V29.842H10v2.646h6.614v26.458h9.26V23.228H23.23z" fill="#0972a5" />
<path d="M16.614 9.999v9.26h26.458v3.969h-6.614v2.646h9.26v-9.26H19.26V9.998z" fill="#71a865" />
<path d="M49.687 16.613v13.23h-13.23V65.56h15.876v-2.646h-13.23V32.488h13.23V16.613zM23.229 10h29.104v2.646H23.229z" fill="#0972a5" />
<path d="M43.072 36.457v22.489h9.26V43.071h-2.645v13.23h-3.969V39.102h6.615v-2.646z" fill="#71a865" />
<path d="M69.53 62.915v13.229H36.458v2.646h35.718V65.56h3.969v6.615h2.646v-9.26h-6.615zM69.53 9.999v13.229h-6.614v2.646h9.26V9.999z" fill="#0972a5" />
<path d="M76.145 19.259v10.583h-13.23v9.26h13.23v3.97h-13.23v2.645h13.23v3.969h-13.23v2.646h13.23V56.3h-13.23v13.23H36.459v2.645h29.104V58.946H78.79v-22.49H65.56v-3.968h13.23V19.259z" fill="#71a865" />
<path d="M62.917 10h2.646v9.26h-2.646z" fill="#0972a5" />
</g>
</svg>
