<svg width="66" height="66" viewBox="0 0 66 66" fill="none" xmlns="http://www.w3.org/2000/svg">
<circle cx="32.9183" cy="32.9183" r="32.9183" fill="#F5F5F5"/>
<svg x="11" y="11" width="44" height="44" viewBox="0 0 180 180" fill="none">
<path fill="#1ce783" d="M 167.86 45.11 Q 167.95 45.25 167.95 45.27 Q 167.94 93.04 167.88 134.78 A 0.48 0.46 -16.3 0 1 167.65 135.18 L 99.64 174.44 A 0.44 0.43 -15.2 0 1 98.98 174.07 L 98.98 140.75 A 0.97 0.96 -15.0 0 1 99.47 139.91 L 137.73 117.82 A 0.49 0.48 -15.0 0 0 137.98 117.40 Q 138.02 82.72 138.02 62.77 Q 138.02 62.64 137.88 62.40 Q 137.73 62.15 137.63 62.09 Q 120.36 52.08 90.33 34.74 A 0.49 0.48 -44.9 0 0 89.84 34.74 L 51.55 56.78 A 0.97 0.96 -44.9 0 1 50.58 56.79 L 21.74 40.09 A 0.44 0.43 -44.7 0 1 21.76 39.33 L 89.81 0.15 A 0.48 0.46 -43.6 0 1 90.27 0.15 Q 126.42 21.02 167.77 44.96 Q 167.78 44.97 167.86 45.11 Z"/>
<path fill="#1ce783" d="M 89.93 90.07 Q 90.01 90.20 90.01 90.27 Q 90.03 142.58 90.00 179.44 A 0.32 0.32 0.0 0 1 89.52 179.72 L 60.73 163.10 A 1.36 1.35 -75.2 0 1 60.05 161.92 Q 60.10 140.03 60.06 107.75 Q 60.06 107.65 59.91 107.40 Q 59.77 107.15 59.68 107.10 Q 31.75 90.93 12.76 80.03 A 1.36 1.35 15.2 0 1 12.08 78.85 L 12.08 45.61 A 0.32 0.32 0.0 0 1 12.56 45.33 Q 44.50 63.73 89.80 89.90 Q 89.85 89.93 89.93 90.07 Z"/>
</svg>
</svg>
