<svg width="66" height="66" viewBox="0 0 66 66" fill="none" xmlns="http://www.w3.org/2000/svg">
<circle cx="32.9183" cy="32.9183" r="32.9183" fill="#F5F5F5"/>
<path d="M18.2285 45.3606C20.836 45.3606 22.9446 47.3631 22.9446 49.8302C22.9446 52.2973 20.8316 54.2956 18.2241 54.2956C15.6253 54.2956 13.5123 52.2932 13.5123 49.8261C13.5123 47.359 15.6253 45.3606 18.2285 45.3606ZM51.1471 43.206C51.6938 45.6402 50.0538 48.0333 47.4853 48.5473L33.6537 51.3351C31.0852 51.8532 28.5644 50.2989 28.0178 47.8647C27.4754 45.4305 29.1154 43.0415 31.6796 42.5234L45.5112 39.7356C48.0797 39.2175 50.6048 40.7718 51.1471 43.206ZM41.4953 31.3352V31.3475C42.042 33.7817 40.402 36.1748 37.8335 36.6888L19.2034 40.4429C16.6349 40.9568 14.1141 39.4026 13.5674 36.9725L13.5631 36.956C13.0208 34.5259 14.6608 32.1329 17.2293 31.6189L35.8594 27.8648C38.4279 27.3467 40.9487 28.901 41.4953 31.3352ZM51.151 15.57L51.1597 15.5988C51.702 18.033 50.062 20.4261 47.4935 20.94L19.2099 26.6349C16.6457 27.1489 14.125 25.5946 13.5783 23.1645L13.574 23.1316C13.0273 20.7016 14.6673 18.3085 17.2314 17.7945L45.5151 12.0996C48.0836 11.5815 50.6087 13.1358 51.151 15.57Z" fill="#647DFF"/>
</svg>
