<svg width="66" height="66" viewBox="0 0 66 66" fill="none" xmlns="http://www.w3.org/2000/svg">
<circle cx="32.9183" cy="32.9183" r="32.9183" fill="#F5F5F5"/>
<g clip-path="url(#clip0_312_19)">
<path d="M49.9601 23.8534L49.9589 23.8222C49.9408 23.4081 49.9288 22.9937 49.9229 22.5793C49.8904 20.3737 48.1403 18.5494 45.9386 18.4261C41.348 18.1695 37.7967 16.6698 34.7625 13.7069L34.7366 13.6822C33.747 12.7731 32.254 12.7731 31.264 13.6822L31.2381 13.7069C28.2038 16.6698 24.6526 18.1695 20.0621 18.4264C17.8606 18.5494 16.1103 20.3737 16.0777 22.5796C16.072 22.994 16.06 23.4082 16.0417 23.8222L16.0399 23.8945C15.9507 28.5842 15.8397 34.4207 17.7887 39.7183C18.8603 42.6315 20.4833 45.1638 22.6123 47.2454C25.037 49.616 28.213 51.498 32.0517 52.839C32.1767 52.8826 32.3064 52.918 32.4386 52.9445C32.6251 52.9818 32.8127 53.0004 33.0003 53.0004C33.188 53.0004 33.3759 52.9818 33.562 52.9445C33.6938 52.9181 33.8235 52.8826 33.9504 52.8383C37.7846 51.495 40.9572 49.612 43.3798 47.2417C45.5079 45.1595 47.1308 42.6266 48.2034 39.7128C50.1596 34.3993 50.049 28.5518 49.9601 23.8534Z" fill="url(#paint0_linear_312_19)"/>
</g>
<defs>
<linearGradient id="paint0_linear_312_19" x1="13.8321" y1="15.8634" x2="28.7808" y2="46.4567" gradientUnits="userSpaceOnUse">
<stop stop-color="#00A9FF"/>
<stop offset="1" stop-color="#0055FF"/>
</linearGradient>
<clipPath id="clip0_312_19">
<rect width="34" height="40" fill="white" transform="translate(16 13)"/>
</clipPath>
</defs>
</svg>
