<svg width="66" height="66" viewBox="0 0 66 66" fill="none" xmlns="http://www.w3.org/2000/svg">
<circle cx="32.9183" cy="32.9183" r="32.9183" fill="#F5F5F5"/>
<path d="M26.3748 30.3298C25.7497 29.6324 24.9766 29.2812 24.0577 29.2812C23.4914 29.2812 22.9697 29.3911 22.4903 29.6132C22.0109 29.8354 21.5973 30.1363 21.2471 30.5209C20.8993 30.9078 20.6244 31.3568 20.4223 31.8775C20.2202 32.3958 20.1191 32.9571 20.1191 33.5637C20.1191 34.1585 20.2131 34.7006 20.3988 35.1903C20.5868 35.6775 20.8476 36.0955 21.186 36.4442C21.5244 36.7929 21.9263 37.0652 22.3916 37.2611C22.8569 37.4569 23.3668 37.5548 23.9214 37.5548C24.1729 37.5548 24.4055 37.5357 24.617 37.4999C24.8285 37.4641 25.0306 37.4044 25.2233 37.3232C25.416 37.2396 25.604 37.1345 25.792 37.0079C25.9777 36.8789 26.1727 36.7165 26.3748 36.523V38.5938H26.3725V38.7944H23.8063L21.8769 41.0014V41.3811H29.1173V40.4855V29.4986H26.3748V30.3298ZM26.3678 34.125C26.2714 34.3448 26.1445 34.5382 25.9894 34.703C25.832 34.8678 25.6463 34.9944 25.4301 35.0876C25.2139 35.1807 24.9836 35.2261 24.7416 35.2261C24.4878 35.2261 24.2528 35.1807 24.0366 35.0876C23.8204 34.9944 23.6324 34.8678 23.4749 34.703C23.3175 34.5382 23.1953 34.3448 23.1036 34.125C23.012 33.9053 22.9673 33.6641 22.9673 33.4085C22.9673 33.1625 23.0143 32.9308 23.1107 32.7158C23.207 32.5009 23.3339 32.3146 23.4984 32.1546C23.6606 31.9945 23.8462 31.8679 24.0577 31.77C24.2692 31.6721 24.4972 31.6243 24.7392 31.6243C24.9719 31.6243 25.1951 31.6697 25.4137 31.7628C25.6299 31.8536 25.8202 31.9826 25.9824 32.1474C26.1445 32.3122 26.2714 32.5009 26.3701 32.7158C26.4665 32.9308 26.5135 33.1673 26.5135 33.4252C26.5111 33.6712 26.4641 33.9053 26.3678 34.125Z" fill="#1F1E37"/>
<path d="M18.7224 30.4619C18.5767 30.2875 18.4122 30.1371 18.236 30.0033C18.0785 29.8863 17.9117 29.7836 17.7307 29.7C17.6438 29.6594 17.5521 29.6259 17.4558 29.5949C17.3171 29.5495 17.1667 29.5185 17.0116 29.4922H15.0564L13.7639 30.9897V30.8154V29.5232H11.0215V37.4242H13.7639V34.035V32.0932H14.1446H14.9084H16.3066H16.3395L16.5534 32.0884V37.4218H19.2958V32.4801C19.2958 32.0598 19.2559 31.6848 19.176 31.3552C19.0961 31.028 18.9457 30.7318 18.7224 30.4619Z" fill="#1F1E37"/>
<path d="M37.1813 29.5H35.1486C35.1486 29.5 34.4224 29.5 34.1898 29.5L33.0007 30.8614V29.5H30.2559V37.401H33.0054L33.0077 32.113H33.9101H35.0029L37.1813 29.6099V29.5Z" fill="#1F1E37"/>
<path d="M52.0001 33.1487L55.7507 29.6329V29.4992H52.1364L49.26 32.3486V24.6172H46.5176V37.3978H49.26V34.1805L52.2751 37.3978H55.9763V37.2473L52.0001 33.1487Z" fill="#1F1E37"/>
<path d="M44.376 30.4028C43.9577 30.0278 43.4618 29.7364 42.8908 29.5262C42.3197 29.316 41.7017 29.2109 41.0343 29.2109C40.3575 29.2109 39.7324 29.3184 39.1637 29.5334C38.5926 29.7483 38.1015 30.0445 37.6855 30.4171C37.2719 30.7921 36.9476 31.234 36.715 31.7427C36.4823 32.2514 36.3672 32.7984 36.3672 33.3836C36.3672 34.0308 36.4823 34.6184 36.715 35.1462C36.9476 35.6741 37.2672 36.1279 37.6785 36.5076C38.0874 36.8874 38.5738 37.1812 39.1402 37.3866C39.7065 37.592 40.3222 37.6947 40.9896 37.6947C41.6664 37.6947 42.2939 37.592 42.8767 37.3866C43.4571 37.1812 43.9553 36.8922 44.3689 36.5148C44.7825 36.1398 45.1092 35.6932 45.3465 35.1749C45.5839 34.6566 45.7037 34.0858 45.7037 33.4576C45.7037 32.8318 45.5862 32.2586 45.3559 31.7403C45.1209 31.2244 44.7943 30.7778 44.376 30.4028ZM42.6628 34.1431C42.5665 34.3628 42.4396 34.5563 42.2845 34.7211C42.127 34.8859 41.9414 35.0125 41.7252 35.1056C41.5066 35.1988 41.2787 35.2442 41.0366 35.2442C40.7946 35.2442 40.5643 35.1988 40.3457 35.1056C40.1295 35.0125 39.9415 34.8859 39.7864 34.7211C39.629 34.5563 39.5044 34.3628 39.4081 34.1431C39.3117 33.9233 39.2647 33.6797 39.2647 33.4122C39.2647 33.1662 39.3117 32.9345 39.4081 32.7196C39.5044 32.5046 39.629 32.3159 39.7864 32.1511C39.9439 31.9863 40.1295 31.8573 40.3457 31.7666C40.5643 31.6734 40.7922 31.628 41.0366 31.628C41.2787 31.628 41.509 31.6734 41.7252 31.7666C41.9414 31.8573 42.1294 31.9863 42.2845 32.1511C42.4419 32.3159 42.5665 32.5094 42.6628 32.7291C42.7592 32.9489 42.8062 33.1829 42.8062 33.4289C42.8062 33.6845 42.7592 33.9233 42.6628 34.1431Z" fill="#1F1E37"/>
</svg>
