<svg width="66" height="66" viewBox="0 0 66 66" fill="none" xmlns="http://www.w3.org/2000/svg">
<circle cx="32.9183" cy="32.9183" r="32.9183" fill="#F5F5F5"/>
<svg x="13" y="13" width="40" height="40" viewBox="0 0 256 256" fill="none">
<path fill="#3b40d2" d="M 63.82 0.00 C 70.61 5.26 74.07 8.46 78.19 13.72 Q 80.86 17.13 83.00 18.38 C 88.45 21.58 95.21 22.15 101.30 22.73 Q 70.14 22.77 39.00 22.79 Q 31.26 22.79 26.25 28.76 L 7.91 10.94 Q 16.44 1.40 29.40 0.00 L 63.82 0.00 Z"/>
<path fill="#3330bc" d="M 226.54 0.00 C 242.47 1.74 254.31 13.45 256.00 29.40 L 256.00 150.05 L 233.26 123.75 Q 233.20 84.40 233.28 44.96 Q 233.30 35.42 232.12 32.73 Q 229.52 26.81 223.54 24.03 Q 220.75 22.73 213.74 22.73 Q 157.52 22.76 101.30 22.73 C 95.21 22.15 88.45 21.58 83.00 18.38 Q 80.86 17.13 78.19 13.72 C 74.07 8.46 70.61 5.26 63.82 0.00 L 226.54 0.00 Z"/>
<path fill="#3f48db" d="M 7.91 10.94 L 26.25 28.76 Q 22.75 33.18 22.75 38.00 Q 22.76 82.94 22.75 128.02 Q 16.63 123.30 10.30 119.19 Q 5.49 116.06 0.00 116.88 L 0.00 29.49 Q 1.11 18.82 7.91 10.94 Z"/>
<path fill="#ffffff" d="M 101.30 22.73 Q 157.52 22.76 213.74 22.73 Q 220.75 22.73 223.54 24.03 Q 229.52 26.81 232.12 32.73 Q 233.30 35.42 233.28 44.96 Q 233.20 84.40 233.26 123.75 Q 233.23 168.75 233.26 213.67 Q 233.26 220.89 231.99 223.61 Q 229.20 229.56 223.08 232.19 Q 220.60 233.25 214.24 233.25 Q 209.77 233.24 205.24 233.26 L 143.22 233.27 Q 92.40 233.23 41.60 233.25 Q 35.60 233.25 33.07 232.25 C 26.69 229.73 22.74 223.77 22.74 216.75 Q 22.77 172.31 22.75 128.02 Q 22.76 82.94 22.75 38.00 Q 22.75 33.18 26.25 28.76 Q 31.26 22.79 39.00 22.79 Q 70.14 22.77 101.30 22.73 Z M 94.33 117.26 Q 137.84 156.43 181.27 195.73 C 183.46 197.71 187.29 198.07 189.06 195.34 Q 189.97 193.94 189.97 193.14 Q 190.04 160.55 189.98 127.96 L 189.96 59.27 A 0.50 0.50 0.0 0 0 189.46 58.77 L 161.09 58.77 A 0.44 0.43 -0.0 0 0 160.65 59.20 L 160.64 126.37 L 160.66 132.89 A 0.28 0.28 0.0 0 1 160.20 133.10 L 137.59 113.46 Q 107.20 86.98 76.83 60.74 Q 73.52 57.88 71.67 57.95 Q 68.14 58.08 66.89 61.46 A 4.51 4.43 -35.7 0 0 66.63 62.96 L 66.63 91.38 A 2.12 2.11 21.3 0 0 67.32 92.94 L 94.33 117.26 Z M 95.67 197.13 A 0.31 0.31 0.0 0 0 95.98 196.82 L 95.98 150.60 A 0.31 0.31 0.0 0 0 95.89 150.38 L 67.16 121.65 A 0.31 0.31 0.0 0 0 66.63 121.87 L 66.63 196.82 A 0.31 0.31 0.0 0 0 66.94 197.13 L 95.67 197.13 Z"/>
<path fill="#3b40d2" d="M 137.59 113.46 Q 126.00 114.07 114.67 114.17 Q 104.18 114.27 94.33 117.26 L 67.32 92.94 A 2.12 2.11 21.3 0 1 66.63 91.38 L 66.63 62.96 A 4.51 4.43 -35.7 0 1 66.89 61.46 Q 68.14 58.08 71.67 57.95 Q 73.52 57.88 76.83 60.74 Q 107.20 86.98 137.59 113.46 Z"/>
<path fill="#3b40d2" d="M 189.98 127.96 Q 175.66 123.85 160.64 126.37 L 160.65 59.20 A 0.44 0.43 0.0 0 1 161.09 58.77 L 189.46 58.77 A 0.50 0.50 0.0 0 1 189.96 59.27 L 189.98 127.96 Z"/>
<path fill="#4351e7" d="M 22.75 128.02 Q 22.77 172.31 22.74 216.75 C 22.74 223.77 26.69 229.73 33.07 232.25 Q 35.60 233.25 41.60 233.25 Q 92.40 233.23 143.22 233.27 Q 138.96 237.86 143.82 242.89 Q 149.76 249.05 154.85 256.00 L 29.45 256.00 C 13.36 253.99 1.89 242.91 0.00 226.60 L 0.00 116.88 Q 5.49 116.06 10.30 119.19 Q 16.63 123.30 22.75 128.02 Z"/>
<path fill="#3330bc" d="M 137.59 113.46 L 160.20 133.10 A 0.28 0.28 0.0 0 0 160.66 132.89 L 160.64 126.37 Q 175.66 123.85 189.98 127.96 Q 190.04 160.55 189.97 193.14 Q 189.97 193.94 189.06 195.34 C 187.29 198.07 183.46 197.71 181.27 195.73 Q 137.84 156.43 94.33 117.26 Q 104.18 114.27 114.67 114.17 Q 126.00 114.07 137.59 113.46 Z"/>
<path fill="#3330bc" d="M 95.67 197.13 L 66.94 197.13 A 0.31 0.31 0.0 0 1 66.63 196.82 L 66.63 121.87 A 0.31 0.31 0.0 0 1 67.16 121.65 L 95.89 150.38 A 0.31 0.31 0.0 0 1 95.98 150.60 L 95.98 196.82 A 0.31 0.31 0.0 0 1 95.67 197.13 Z"/>
<path fill="#3b40d2" d="M 256.00 150.05 L 256.00 226.53 C 253.83 243.04 243.01 253.81 226.60 256.00 L 218.58 256.00 C 215.34 247.71 210.81 241.54 205.24 233.26 Q 209.77 233.24 214.24 233.25 Q 220.60 233.25 223.08 232.19 Q 229.20 229.56 231.99 223.61 Q 233.26 220.89 233.26 213.67 Q 233.23 168.75 233.26 123.75 L 256.00 150.05 Z"/>
<path fill="#3f48db" d="M 205.24 233.26 C 210.81 241.54 215.34 247.71 218.58 256.00 L 154.85 256.00 Q 149.76 249.05 143.82 242.89 Q 138.96 237.86 143.22 233.27 L 205.24 233.26 Z"/>
</svg>
</svg>
