<?xml version="1.0" encoding="UTF-8" standalone="no"?>
<!DOCTYPE svg PUBLIC "-//W3C//DTD SVG 1.1//EN" "http://www.w3.org/Graphics/SVG/1.1/DTD/svg11.dtd">
<svg xmlns="http://www.w3.org/2000/svg" version="1.1" viewBox="-0.00 -0.00 196.00 196.00" width="128" height="128">
<g stroke-width="2.00" fill="none" stroke-linecap="butt">
<path stroke="#b280b7" vector-effect="non-scaling-stroke" d="
  M 33.23 60.89
  L 33.33 134.73
  A 0.41 0.41 0.0 0 0 33.95 135.08
  L 65.36 116.99"
/>
<path stroke="#e181eb" vector-effect="non-scaling-stroke" d="
  M 65.36 116.99
  L 97.51 172.10"
/>
<path stroke="#fbb6f3" vector-effect="non-scaling-stroke" d="
  M 97.51 172.10
  Q 97.57 173.24 99.31 172.25
  Q 143.81 146.90 162.00 136.25
  A 1.15 1.15 0.0 0 0 162.58 135.25
  L 162.58 61.82
  A 0.47 0.46 -15.0 0 0 161.88 61.42
  Q 146.19 70.38 130.94 79.25
  Q 130.54 79.49 130.01 79.20"
/>
<path stroke="#e181eb" vector-effect="non-scaling-stroke" d="
  M 130.01 79.20
  L 98.10 23.80
  A 0.48 0.47 60.0 0 0 97.45 23.62
  L 33.23 60.89"
/>
<path stroke="#dd38df" vector-effect="non-scaling-stroke" d="
  M 130.01 79.20
  L 129.85 79.61
  A 1.20 1.20 0.0 0 1 129.35 80.20
  L 98.51 98.00
  A 1.08 1.07 -15.0 0 0 97.97 98.93
  L 97.97 171.80
  A 0.31 0.30 78.2 0 1 97.79 172.08
  Q 97.59 172.18 97.51 172.10"
/>
<path stroke="#9401a3" vector-effect="non-scaling-stroke" d="
  M 65.36 116.99
  L 33.23 60.89"
/>
</g>
<path fill="#ffffff" d="
  M 188.12 97.51
  A 90.61 90.61 0.0 0 1 97.51 188.12
  A 90.61 90.61 0.0 0 1 6.90 97.51
  A 90.61 90.61 0.0 0 1 97.51 6.90
  A 90.61 90.61 0.0 0 1 188.12 97.51
  Z
  M 33.23 60.89
  L 33.33 134.73
  A 0.41 0.41 0.0 0 0 33.95 135.08
  L 65.36 116.99
  L 97.51 172.10
  Q 97.57 173.24 99.31 172.25
  Q 143.81 146.90 162.00 136.25
  A 1.15 1.15 0.0 0 0 162.58 135.25
  L 162.58 61.82
  A 0.47 0.46 -15.0 0 0 161.88 61.42
  Q 146.19 70.38 130.94 79.25
  Q 130.54 79.49 130.01 79.20
  L 98.10 23.80
  A 0.48 0.47 60.0 0 0 97.45 23.62
  L 33.23 60.89
  Z"
/>
<path fill="#c202d7" d="
  M 130.01 79.20
  L 129.85 79.61
  A 1.20 1.20 0.0 0 1 129.35 80.20
  L 98.51 98.00
  A 1.08 1.07 -15.0 0 0 97.97 98.93
  L 97.97 171.80
  A 0.31 0.30 78.2 0 1 97.79 172.08
  Q 97.59 172.18 97.51 172.10
  L 65.36 116.99
  L 33.23 60.89
  L 97.45 23.62
  A 0.48 0.47 60.0 0 1 98.10 23.80
  L 130.01 79.20
  Z"
/>
<path fill="#f76de6" d="
  M 97.51 172.10
  Q 97.59 172.18 97.79 172.08
  A 0.31 0.30 78.2 0 0 97.97 171.80
  L 97.97 98.93
  A 1.08 1.07 -15.0 0 1 98.51 98.00
  L 129.35 80.20
  A 1.20 1.20 0.0 0 0 129.85 79.61
  L 130.01 79.20
  Q 130.54 79.49 130.94 79.25
  Q 146.19 70.38 161.88 61.42
  A 0.47 0.46 -15.0 0 1 162.58 61.82
  L 162.58 135.25
  A 1.15 1.15 0.0 0 1 162.00 136.25
  Q 143.81 146.90 99.31 172.25
  Q 97.57 173.24 97.51 172.10
  Z"
/>
<path fill="#65006f" d="
  M 65.36 116.99
  L 33.95 135.08
  A 0.41 0.41 0.0 0 1 33.33 134.73
  L 33.23 60.89
  L 65.36 116.99
  Z"
/>
</svg>