<svg width="66" height="66" viewBox="0 0 66 66" fill="none" xmlns="http://www.w3.org/2000/svg">
<circle cx="32.9183" cy="32.9183" r="32.9183" fill="#F5F5F5"/>
<path d="M48.1139 17.8953C45.5861 15.3675 42.2294 14 38.6656 14C35.1018 14 31.7452 15.3675 29.2173 17.8953L15.5422 31.5705C15.2107 31.902 15.0449 32.3164 15.0449 32.7722C15.0449 33.2281 15.2107 33.6839 15.5422 33.974C15.8737 34.2641 16.2881 34.4713 16.744 34.4713C17.1998 34.4713 17.6556 34.3055 17.9457 33.974L31.6209 20.2989C35.5162 16.4035 41.8151 16.4035 45.669 20.2989C49.5229 24.1942 49.5643 30.4931 45.669 34.347L31.9938 48.0221C31.3308 48.6851 31.3308 49.7626 31.9938 50.467C32.3253 50.7986 32.7397 50.9643 33.1956 50.9643C33.6514 50.9643 34.1072 50.7986 34.3973 50.467L48.0725 36.7919C50.6003 34.2641 51.9678 30.9075 51.9678 27.3436C51.9678 23.7798 50.6417 20.4232 48.1139 17.8953Z" fill="#4169E1"/>
<path d="M46.2061 27.3844C46.2061 25.3539 45.4187 23.4891 44.0097 22.0387C41.0675 19.0965 36.2605 19.0965 33.3183 22.0387L15.1262 40.1893C14.7947 40.5209 14.6289 40.9353 14.6289 41.3911C14.6289 41.8469 14.7947 42.3028 15.1262 42.5929C15.4577 42.8829 15.8721 43.0901 16.3279 43.0901C16.7838 43.0901 17.2396 42.9244 17.5297 42.5929L35.556 24.6909L35.5975 24.6494C35.6389 24.5665 35.7218 24.5251 35.7632 24.4422C35.8461 24.3593 35.8875 24.3179 35.9704 24.235L36.0119 24.1936C37.628 22.8261 40.073 22.9089 41.5648 24.4008C43.0566 25.8926 43.1809 28.1718 41.9378 29.7879C41.8134 29.9537 41.6891 30.078 41.5648 30.2023C41.4405 30.3267 41.3162 30.4095 41.1504 30.5753L23.3727 48.4359C23.0412 48.7674 22.8754 49.1818 22.8754 49.6376C22.8754 50.0935 23.0412 50.5493 23.3727 50.8394C23.7042 51.1295 24.1186 51.3367 24.5745 51.3367C25.0303 51.3367 25.4447 51.1709 25.7762 50.8394L43.9269 32.6887C45.4187 31.2798 46.2061 29.3736 46.2061 27.3844Z" fill="#4169E1"/>
<path d="M36.9239 31.1136C36.4681 30.9064 36.0537 30.6163 35.7222 30.2848C35.3906 29.9533 35.1006 29.5389 34.8934 29.083L34.769 28.793L14.7122 48.8913C14.3392 49.2642 14.0906 49.803 14.0077 50.3002C13.9663 50.7975 14.0906 51.2534 14.4221 51.5849C14.7122 51.875 15.0851 51.9993 15.541 51.9993C16.1211 51.9993 16.7013 51.7506 17.1157 51.2948L37.214 31.2379L36.9239 31.1136Z" fill="#4169E1"/>
</svg>
