<svg width="66" height="66" viewBox="0 0 66 66" fill="none" xmlns="http://www.w3.org/2000/svg">
<circle cx="32.9183" cy="32.9183" r="32.9183" fill="#F5F5F5"/>
<g clip-path="url(#clip0_4609_30)">
<path d="M33 54C44.598 54 54 44.598 54 33C54 21.402 44.598 12 33 12C21.402 12 12 21.402 12 33C12 44.598 21.402 54 33 54Z" fill="url(#paint0_linear_4609_30)"/>
<path d="M32.9998 50.769C42.8135 50.769 50.769 42.8135 50.769 32.9998C50.769 23.186 42.8135 15.2305 32.9998 15.2305C23.186 15.2305 15.2305 23.186 15.2305 32.9998C15.2305 42.8135 23.186 50.769 32.9998 50.769Z" fill="url(#paint1_linear_4609_30)"/>
<path d="M33.0009 47.9432C41.2533 47.9432 47.9432 41.2533 47.9432 33.0009C47.9432 24.7485 41.2533 18.0586 33.0009 18.0586C24.7485 18.0586 18.0586 24.7485 18.0586 33.0009C18.0586 41.2533 24.7485 47.9432 33.0009 47.9432Z" fill="#111928" fill-opacity="0.87"/>
<path d="M33.0001 45.1175C39.6913 45.1175 45.1155 39.6932 45.1155 33.0021C45.1155 26.311 39.6913 20.8867 33.0001 20.8867C26.309 20.8867 20.8848 26.311 20.8848 33.0021C20.8848 39.6932 26.309 45.1175 33.0001 45.1175Z" fill="url(#paint2_linear_4609_30)"/>
<path d="M32.9994 42.2879C38.1293 42.2879 42.2879 38.1293 42.2879 32.9994C42.2879 27.8695 38.1293 23.7109 32.9994 23.7109C27.8695 23.7109 23.7109 27.8695 23.7109 32.9994C23.7109 38.1293 27.8695 42.2879 32.9994 42.2879Z" fill="url(#paint3_linear_4609_30)"/>
<path d="M32.9991 39.0568C36.3447 39.0568 39.0568 36.3447 39.0568 32.9991C39.0568 29.6535 36.3447 26.9414 32.9991 26.9414C29.6535 26.9414 26.9414 29.6535 26.9414 32.9991C26.9414 36.3447 29.6535 39.0568 32.9991 39.0568Z" fill="#111928" fill-opacity="0.87"/>
<path d="M32.7256 30.3929C32.8297 30.1763 33.1699 30.1763 33.274 30.3929C33.4925 30.8475 33.8217 31.4458 34.1877 31.8118C34.5538 32.1779 35.152 32.5071 35.6067 32.7256C35.8232 32.8297 35.8232 33.1699 35.6067 33.274C35.152 33.4925 34.5538 33.8217 34.1877 34.1877C33.8217 34.5538 33.4925 35.152 33.274 35.6068C33.1699 35.8234 32.8297 35.8234 32.7256 35.6068C32.5071 35.152 32.1779 34.5538 31.8118 34.1877C31.4458 33.8217 30.8475 33.4925 30.3929 33.274C30.1763 33.1699 30.1763 32.8297 30.3929 32.7256C30.8475 32.5071 31.4458 32.1779 31.8118 31.8118C32.1779 31.4458 32.5071 30.8475 32.7256 30.3929Z" fill="white"/>
</g>
<defs>
<linearGradient id="paint0_linear_4609_30" x1="12.0945" y1="33" x2="54.0945" y2="33" gradientUnits="userSpaceOnUse">
<stop stop-color="#02FCF1"/>
<stop offset="1" stop-color="#A02BFE"/>
</linearGradient>
<linearGradient id="paint1_linear_4609_30" x1="15.2305" y1="32.9998" x2="50.769" y2="32.9998" gradientUnits="userSpaceOnUse">
<stop stop-color="#15E4F3"/>
<stop offset="1" stop-color="#A22AFF"/>
</linearGradient>
<linearGradient id="paint2_linear_4609_30" x1="15.6579" y1="33.0021" x2="50.252" y2="33.0021" gradientUnits="userSpaceOnUse">
<stop stop-color="#F8D85C"/>
<stop offset="1" stop-color="#FF1C8B"/>
</linearGradient>
<linearGradient id="paint3_linear_4609_30" x1="23.711" y1="32.9994" x2="42.2878" y2="32.9994" gradientUnits="userSpaceOnUse">
<stop stop-color="#F8D15D"/>
<stop offset="1" stop-color="#FF1C8B"/>
</linearGradient>
<clipPath id="clip0_4609_30">
<rect width="42" height="42" fill="white" transform="translate(12 12)"/>
</clipPath>
</defs>
</svg>
