<svg width="66" height="66" viewBox="0 0 66 66" fill="none" xmlns="http://www.w3.org/2000/svg">
<circle cx="32.9183" cy="32.9183" r="32.9183" fill="#F5F5F5"/>
<path d="M42.8085 15.8257H20.0369C19.2445 15.8245 18.4597 15.9794 17.7274 16.2818C16.995 16.5842 16.3294 17.028 15.7687 17.5878C15.208 18.1476 14.7632 18.8125 14.4597 19.5444C14.1562 20.2763 14 21.0609 14 21.8532V44.6248C14 45.4171 14.1562 46.2017 14.4597 46.9336C14.7632 47.6656 15.208 48.3304 15.7687 48.8902C16.3294 49.4501 16.995 49.8938 17.7274 50.1962C18.4597 50.4986 19.2445 50.6535 20.0369 50.6524H30.4072V45.6637C30.4072 40.8529 29.8081 37.1653 26.2329 36.0984V32.1581C32.045 32.6822 34.9278 37.0061 34.9278 44.1101V50.6617H42.8085C44.4072 50.6617 45.9402 50.0267 47.0705 48.8963C48.201 47.7658 48.8361 46.2328 48.8361 44.6342V21.8532C48.8361 20.2546 48.201 18.7215 47.0705 17.5911C45.9402 16.4607 44.4072 15.8257 42.8085 15.8257ZM31.577 28.4048C30.9158 28.4067 30.269 28.2123 29.7183 27.8463C29.1676 27.4803 28.7377 26.9591 28.4835 26.3487C28.2291 25.7383 28.1616 25.0662 28.2895 24.4174C28.4173 23.7686 28.7348 23.1724 29.2018 22.7041C29.6687 22.2359 30.264 21.9168 30.9125 21.7871C31.5608 21.6574 32.2331 21.723 32.8442 21.9756C33.4554 22.2282 33.9778 22.6565 34.3453 23.2062C34.7129 23.7559 34.9091 24.4022 34.9091 25.0635C34.9091 25.9481 34.5583 26.7965 33.9338 27.4229C33.3091 28.0492 32.4617 28.4024 31.577 28.4048Z" fill="#1E2423"/>
</svg>
