<svg width="66" height="66" viewBox="0 0 66 66" fill="none" xmlns="http://www.w3.org/2000/svg">
<circle cx="32.9183" cy="32.9183" r="32.9183" fill="#F5F5F5"/>
<path d="M44.7711 15H21.2386C20.4198 14.9987 19.6087 15.1589 18.8519 15.4714C18.0951 15.7838 17.4073 16.2425 16.8278 16.821C16.2484 17.3995 15.7887 18.0866 15.4751 18.843C15.1614 19.5993 15 20.4101 15 21.2289V44.7614C15 45.5802 15.1614 46.391 15.4751 47.1473C15.7887 47.9037 16.2484 48.5908 16.8278 49.1693C17.4073 49.7479 18.0951 50.2065 18.8519 50.5189C19.6087 50.8314 20.4198 50.9915 21.2386 50.9903H31.9554V45.835C31.9554 40.8634 31.3363 37.0526 27.6416 35.95V31.8781C33.6479 32.4197 36.627 36.8881 36.627 44.2295V51H44.7711C46.4231 51 48.0073 50.3437 49.1755 49.1756C50.3437 48.0074 51 46.4231 51 44.7711V21.2289C51 19.5769 50.3437 17.9926 49.1755 16.8244C48.0073 15.6563 46.4231 15 44.7711 15ZM33.1643 27.9995C32.481 28.0014 31.8125 27.8005 31.2434 27.4222C30.6743 27.044 30.2301 26.5054 29.9674 25.8746C29.7045 25.2438 29.6348 24.5492 29.7669 23.8788C29.8991 23.2083 30.2271 22.5922 30.7097 22.1083C31.1922 21.6244 31.8074 21.2946 32.4776 21.1606C33.1476 21.0266 33.8423 21.0944 34.4738 21.3554C35.1055 21.6165 35.6453 22.0591 36.0251 22.6271C36.405 23.1952 36.6077 23.8631 36.6077 24.5465C36.6077 25.4606 36.2452 26.3374 35.5998 26.9847C34.9543 27.632 34.0786 27.9969 33.1643 27.9995Z" fill="#1E2423"/>
</svg>
