<svg width="66" height="66" viewBox="0 0 66 66" fill="none" xmlns="http://www.w3.org/2000/svg">
<circle cx="32.9183" cy="32.9183" r="32.9183" fill="#F5F5F5"/>
<g clip-path="url(#clip0_285_62)">
<path d="M32.5 55C44.9264 55 55 44.9264 55 32.5C55 20.0736 44.9264 10 32.5 10C20.0736 10 10 20.0736 10 32.5C10 44.9264 20.0736 55 32.5 55Z" fill="#F5F5F5"/>
<path d="M48.0908 29.035C48.6202 31.5537 48.5368 34.1628 47.8476 36.6426C47.3071 38.5763 46.4082 40.3913 45.1978 41.9933C39.8783 49.0531 29.871 50.4853 22.8458 45.1917C20.3652 43.3278 18.4886 40.7745 17.4501 37.8507C16.8774 36.2403 16.5657 34.5488 16.5267 32.8401C16.4423 29.2321 17.5819 25.7018 19.7598 22.8241C24.6735 16.3035 33.5861 14.5839 40.4537 18.5301C40.7627 18.7075 41.0682 18.897 41.3693 19.0978L39.552 21.8177C39.3143 21.6589 39.0713 21.5083 38.8234 21.366C33.3264 18.2073 26.2511 19.6438 22.3724 24.7929C20.6376 27.083 19.73 29.8934 19.7979 32.7657C19.8286 34.1255 20.0764 35.4717 20.5317 36.7534C21.3556 39.0743 22.8457 41.1007 24.8154 42.5791C30.3937 46.7832 38.35 45.6443 42.5852 40.0245C43.5497 38.7492 44.2659 37.304 44.6967 35.7642C45.2475 33.7905 45.3137 31.713 44.8897 29.7083L48.0908 29.035Z" fill="#404042"/>
<path d="M46.5227 17.8663C46.5227 17.8663 48.1167 19.3912 49.3153 21.6394L32.0664 38.903L25.2896 29.9099L27.9074 26.2727L32.4091 32.2075L46.5236 17.8663H46.5227Z" fill="#009BDE"/>
<mask id="mask0_285_62" style="mask-type:luminance" maskUnits="userSpaceOnUse" x="25" y="17" width="25" height="22">
<path d="M46.5227 17.8663C46.5227 17.8663 48.1167 19.3912 49.3153 21.6394L32.0664 38.903L25.2896 29.9099L27.9074 26.2727L32.4091 32.2075L46.5236 17.8663H46.5227Z" fill="white"/>
</mask>
<g mask="url(#mask0_285_62)">
<path d="M45.4479 36.8771C52.2241 36.8771 57.7173 31.3157 57.7173 24.4554C57.7173 17.595 52.2241 12.0336 45.4479 12.0336C38.6717 12.0336 33.1785 17.595 33.1785 24.4554C33.1785 31.3157 38.6717 36.8771 45.4479 36.8771Z" fill="#FFAD00"/>
<path d="M55.1852 34.3138C61.9614 34.3138 67.4546 28.7524 67.4546 21.8921C67.4546 15.0318 61.9614 9.47038 55.1852 9.47038C48.409 9.47038 42.9158 15.0318 42.9158 21.8921C42.9158 28.7524 48.409 34.3138 55.1852 34.3138Z" fill="#009B48"/>
<path d="M31.0366 59.1573C40.1791 59.1573 47.5906 51.6536 47.5906 42.3974C47.5906 33.1412 40.1791 25.6375 31.0366 25.6375C21.8941 25.6375 14.4827 33.1412 14.4827 42.3974C14.4827 51.6536 21.8941 59.1573 31.0366 59.1573Z" fill="#B731A9"/>
<path d="M25.7786 43.7777C30.9413 43.7777 35.1264 39.5406 35.1264 34.3138C35.1264 29.0871 30.9413 24.85 25.7786 24.85C20.6159 24.85 16.4307 29.0871 16.4307 34.3138C16.4307 39.5406 20.6159 43.7777 25.7786 43.7777Z" fill="#009BDE"/>
</g>
</g>
<defs>
<clipPath id="clip0_285_62">
<rect width="45" height="45" fill="white" transform="translate(10 10)"/>
</clipPath>
</defs>
</svg>
