<svg width="66" height="66" viewBox="0 0 66 66" fill="none" xmlns="http://www.w3.org/2000/svg">
<circle cx="32.9183" cy="32.9183" r="32.9183" fill="#F5F5F5"/>
<path d="M15.7368 21.5312C16.2276 18.0112 19.0111 15.2279 22.5309 14.7365C29.8163 13.7545 37.1835 13.7545 44.469 14.7365C47.9889 15.2279 50.772 18.0112 51.2633 21.5311C52.2456 28.8165 52.2456 36.1836 51.2633 43.4691C50.772 46.9892 47.9889 49.7721 44.469 50.2632C37.1835 51.2456 29.8163 51.2456 22.5309 50.2632C19.0111 49.7721 16.2279 46.9892 15.7368 43.4691C14.7544 36.1018 14.7544 28.8165 15.7368 21.5312Z" fill="#FF9200"/>
<path d="M22 36.594C22 36.9353 22.1769 37.2765 22.5307 37.3619L31.3767 40.9439C31.6423 41.0293 31.996 41.0293 32.173 40.8587C32.35 40.688 32.5267 40.4323 32.5267 40.1765V38.6411C32.5267 38.2999 32.35 37.9586 31.9962 37.8733L23.15 34.2913C22.8845 34.2059 22.5308 34.2059 22.3537 34.3763C22.1769 34.5471 22 34.8029 22 35.0588V36.594ZM22 31.4765C22 31.8177 22.1769 32.1589 22.5307 32.2443L31.3767 35.8265C31.6423 35.9117 31.996 35.9117 32.173 35.7412C32.35 35.5706 32.5267 35.3146 32.5267 35.0588V33.5233C32.5267 33.1822 32.35 32.8411 31.9962 32.7559L23.15 29.1737C22.8845 29.0882 22.5308 29.0882 22.3537 29.2589C22.1769 29.4294 22 29.6853 22 29.9413V31.4765ZM22 26.3589C22 26.7001 22.1769 27.0414 22.5307 27.1266L31.3767 30.7089C31.6423 30.7941 31.996 30.7941 32.173 30.6235C32.35 30.4531 32.5267 30.1971 32.5267 29.9413V28.4059C32.5267 28.0648 32.35 27.7235 31.9962 27.6382L23.15 24.0559C22.8845 23.9708 22.5308 23.9708 22.3537 24.1413C22.1769 24.3118 22 24.5678 22 24.8236V26.3589ZM45 36.594C45 36.9353 44.823 37.2765 44.469 37.3619L35.623 40.9439C35.3574 41.0293 35.0037 41.0293 34.8268 40.8587C34.6499 40.688 34.473 40.4323 34.473 40.1765V28.4059C34.473 28.0648 34.6499 27.7235 35.0037 27.6382L43.8499 24.0559C44.1153 23.9708 44.469 23.9708 44.646 24.1413C44.823 24.3118 45 24.5678 45 24.8236V36.594Z" fill="white"/>
</svg>
