<svg width="66" height="66" viewBox="0 0 66 66" fill="none" xmlns="http://www.w3.org/2000/svg">
<circle cx="32.9183" cy="32.9183" r="32.9183" fill="#F5F5F5"/>
<g clip-path="url(#clip0_252_26)">
<path d="M39.0727 32.1236C39.6339 31.2803 40.3323 30.6176 41.3549 30.3284C42.1905 30.0754 43.0386 30.0272 43.8867 30.2441C44.8594 30.4971 45.4955 31.0875 45.7075 32.0513C45.7199 32.1116 45.7448 32.1839 45.7946 32.3405C46.2187 31.2682 46.9545 30.6176 48.002 30.3164C48.9249 30.0393 49.8727 30.0272 50.7956 30.3405C51.8057 30.6778 52.3794 31.5694 52.2796 32.5815C52.2547 32.7863 52.1923 32.8706 51.9803 32.8706C51.5064 32.8586 51.0076 32.8706 50.5337 32.8706C50.3341 32.8706 50.247 32.7742 50.1971 32.5935C50.1098 32.1959 49.7854 32.0272 49.4113 31.9791C48.9498 31.9309 48.4759 31.9429 48.1517 32.2803C47.9023 32.5212 48.1269 32.7381 48.3888 32.7983C48.8627 32.9308 49.3614 33.0031 49.8353 33.0995C49.9725 33.1357 50.0972 33.1477 50.2344 33.1839C51.0575 33.3646 51.7185 33.7381 52.0677 34.5814C52.1675 33.967 52.2797 33.3646 52.3795 32.7501C52.6165 31.3405 52.8534 29.9429 53.0654 28.5453C53.1028 28.3043 53.1901 28.22 53.4396 28.2321C53.7513 28.2562 54.0755 28.2321 54.3872 28.2321C55.0233 28.2441 55.3351 28.6296 55.2228 29.2441C55.0607 30.1959 54.8987 31.1357 54.749 32.0754C54.7241 32.208 54.7364 32.3284 54.724 32.5092C54.9859 32.3887 55.1605 32.208 55.3475 32.0393C55.8214 31.5935 56.3452 31.1839 56.7942 30.714C57.106 30.3887 57.4303 30.2923 57.8668 30.3164C58.5403 30.3525 59.226 30.3284 59.9618 30.3284C59.7623 30.6658 59.463 30.8586 59.2136 31.0875C58.4404 31.7863 57.6672 32.473 56.8815 33.1477C56.6944 33.3044 56.6819 33.4489 56.7817 33.6778C57.3554 34.9549 57.8916 36.2562 58.4653 37.5333C58.615 37.8586 58.5401 37.9429 58.1909 37.9308C57.5923 37.9068 56.9938 37.9068 56.3703 37.9308C56.071 37.9429 55.9087 37.8586 55.7965 37.5694C55.4722 36.726 55.0982 35.9068 54.749 35.0634C54.6991 34.9188 54.6616 34.7622 54.4621 34.7742C54.2376 34.7863 54.2875 34.967 54.2625 35.1116C54.1129 35.9549 53.9632 36.7983 53.826 37.6417C53.7886 37.8827 53.6764 37.9308 53.4644 37.9308C52.9406 37.9188 52.4043 37.9188 51.893 37.9308C51.6062 37.9429 51.519 37.8465 51.5689 37.5814C51.6437 37.1839 51.706 36.7863 51.7808 36.2561C51.5064 36.5574 51.3318 36.7863 51.1198 36.967C50.409 37.5935 49.5484 37.8586 48.6006 37.9429C48.027 37.9911 47.4533 38.0031 46.8796 37.8827C45.6824 37.6176 45.1961 37.1116 45.0216 35.8947C44.5227 36.8586 43.7743 37.4971 42.7392 37.7983C41.8538 38.0513 40.9558 38.0513 40.0704 37.8224C38.9729 37.5333 38.3494 36.7019 38.312 35.5935C38.312 35.4369 38.312 35.2802 38.2621 35.1116C37.9004 35.6296 37.5512 36.1477 37.0773 36.5694C36.0921 37.4489 34.9448 37.9309 33.6228 37.955C32.3882 37.9911 31.1535 37.955 29.9189 37.967C29.5946 37.967 29.4949 37.8947 29.5572 37.5814C29.9937 34.9911 30.4053 32.3887 30.8542 29.7983C31.0288 28.726 31.6524 28.2321 32.7872 28.2441C33.8099 28.2562 34.8326 28.1959 35.8553 28.3164C37.9255 28.5694 38.9855 29.7742 39.0229 31.8465C39.0479 31.9067 39.0727 32.0152 39.0727 32.1236C39.0228 32.1357 39.0105 32.1718 39.0229 32.208C39.0229 32.22 39.0478 32.2321 39.0478 32.2441C39.0478 32.208 39.0602 32.1718 39.0727 32.1236ZM33.0741 35.8104C34.9073 35.8104 35.9923 35.0513 36.4413 33.4369C36.5909 32.9188 36.6658 32.3766 36.6408 31.8465C36.6034 31.1236 36.2418 30.6176 35.5309 30.3646C34.8824 30.1357 34.209 30.1357 33.5355 30.1236C33.2736 30.1116 33.2114 30.1959 33.174 30.4369C32.937 31.967 32.6875 33.4971 32.4131 35.0272C32.2759 35.8104 32.2635 35.8104 33.0741 35.8104ZM45.7075 33.6417C45.6451 33.8947 45.5452 34.0995 45.5452 34.2923C45.5203 34.714 45.2833 34.7622 44.9217 34.7501C43.6122 34.726 42.3278 34.7501 41.0308 34.7381C40.7938 34.7381 40.6442 34.7863 40.6442 35.0272C40.6317 35.461 40.9184 35.8104 41.3549 35.9188C41.966 36.0754 42.5149 35.8827 42.9015 35.3766C43.0012 35.2321 43.0884 35.1357 43.2879 35.1357C44.5226 35.1477 45.7572 35.1357 46.9919 35.1357C47.129 35.1357 47.2413 35.1236 47.3036 35.3044C47.5655 36.0513 48.6755 36.3646 49.3364 35.9068C49.6856 35.6658 49.6732 35.3284 49.2741 35.1718C48.9249 35.0393 48.5508 34.9791 48.1891 34.8947C47.2662 34.6899 46.2687 34.5935 45.7075 33.6417ZM41.118 33.1116C41.7665 33.1116 42.415 33.1116 43.051 33.1116C43.5498 33.1116 43.6497 32.9429 43.3878 32.5212C43.3255 32.4128 43.2256 32.3164 43.1133 32.2441C42.3775 31.7983 41.305 32.2682 41.118 33.1116Z" fill="#3486AA"/>
<path d="M9.97761 37.9188C9.57853 37.9429 9.04227 37.8827 8.50601 37.7501C7.1716 37.4007 6.29862 36.5814 6.09908 35.2682C5.82472 33.3887 6.08661 31.5694 7.30878 30.0031C8.294 28.7381 9.64088 28.1236 11.2746 28.0272C11.9231 27.979 12.5841 27.979 13.2076 28.1598C14.6543 28.5574 15.5522 29.4489 15.7767 30.8947C16.1134 33.0272 15.652 34.955 14.0432 36.5092C12.9582 37.5333 11.6113 37.9308 9.97761 37.9188ZM10.5762 35.9549C11.5864 35.9067 12.5092 35.4489 12.9831 34.3646C13.3323 33.5935 13.5194 32.7622 13.5194 31.9067C13.5194 31.0754 13.0704 30.4489 12.3845 30.1839C10.9129 29.6417 9.22934 30.4248 8.74296 31.8706C8.56837 32.4248 8.45613 32.9911 8.35636 33.5694C8.10694 35.0513 8.89262 35.967 10.5762 35.9549Z" fill="#3486AA"/>
<path d="M27.1752 34.7501C26.4893 34.7501 25.7785 34.7622 25.0926 34.7501C24.8307 34.7381 24.7434 34.8465 24.7683 35.0875C24.8057 35.5092 24.9803 35.7983 25.4293 35.9188C26.0653 36.0754 26.6639 35.9188 27.0131 35.3887C27.1503 35.1839 27.2999 35.1236 27.5244 35.1357C28.0357 35.1477 28.5471 35.1477 29.0584 35.1357C29.3577 35.1236 29.42 35.1959 29.3203 35.4851C28.8464 36.8345 27.5244 37.8345 26.0279 37.8947C25.5166 37.9188 25.0053 37.9309 24.4939 37.8345C22.9725 37.5333 22.3614 36.461 22.4611 35.0875C22.5235 34.2562 22.7355 33.461 22.9974 32.6658C23.4713 31.2441 24.8307 30.2321 26.402 30.1477C26.7886 30.1236 27.1877 30.0995 27.5618 30.1718C29.233 30.4369 30.0685 31.5574 29.869 33.208C29.6819 34.7742 29.6819 34.7742 28.0482 34.7742C27.7739 34.7501 27.4745 34.7501 27.1752 34.7501ZM26.427 33.1116C26.6889 33.1116 26.9757 33.0875 27.2376 33.1116C27.5993 33.1477 27.6367 32.955 27.5743 32.6899C27.512 32.4489 27.3374 32.2803 27.1129 32.1839C26.5018 31.9068 25.6413 32.208 25.317 32.7863C25.1674 33.0513 25.2672 33.1236 25.5415 33.1116C25.8284 33.0995 26.1277 33.1116 26.427 33.1116Z" fill="#3486AA"/>
<path d="M20.9521 37.8826C20.7526 37.8826 20.5655 37.8947 20.366 37.8826C19.8672 37.8345 19.5928 37.473 19.6801 37.0152C19.9046 35.6899 20.1291 34.3887 20.3411 33.0634C20.4034 32.6296 20.1789 32.2441 19.7923 32.1116C19.2685 31.9308 18.6575 32.1357 18.3707 32.5814C18.0838 33.0393 18.0963 33.5573 18.009 34.0513C17.8095 35.2079 17.6349 36.3766 17.4354 37.5332C17.3979 37.7622 17.3106 37.9188 16.9989 37.8947C16.5 37.8585 16.0136 37.8706 15.5148 37.8947C15.228 37.9067 15.1282 37.8465 15.1781 37.5332C15.44 36.0634 15.652 34.5814 15.9263 33.0995C16.3254 30.9549 18.7448 29.5935 20.9023 30.2923C21.9748 30.6417 22.5734 31.473 22.6233 32.6176C22.6732 33.461 22.4237 34.2561 22.324 35.0754C22.2242 35.8465 22.0247 36.6055 21.9498 37.4007C21.9 37.8224 21.7503 37.967 21.3388 37.8947C21.1891 37.8706 21.0644 37.8826 20.9521 37.8826Z" fill="#3486AA"/>
<path d="M39.0727 32.1236C39.0602 32.1718 39.0479 32.1959 39.0354 32.2441C39.0229 32.232 39.0103 32.22 39.0103 32.2079C38.9979 32.1718 39.0228 32.1357 39.0727 32.1236Z" fill="#FCFDFD"/>
</g>
<defs>
<clipPath id="clip0_252_26">
<rect width="54" height="10" fill="white" transform="translate(6 28)"/>
</clipPath>
</defs>
</svg>
