<svg width="66" height="66" viewBox="0 0 66 66" fill="none" xmlns="http://www.w3.org/2000/svg">
<circle cx="32.9183" cy="32.9183" r="32.9183" fill="#F5F5F5"/>
<g clip-path="url(#clip0_355_65)">
<path d="M32.4744 43.4427C36.225 45.0982 40.8233 46.2302 44.9022 45.5409C48.6216 44.9127 51.7551 42.8162 52.6519 38.9735C53.3794 35.8543 52.4399 32.5008 50.9443 29.7386C48.6204 25.4453 44.6945 21.6833 40.5307 19.1693C36.3669 16.6554 31.3761 14.8172 26.482 15.0145C23.4963 15.1344 20.4615 15.9649 18.3096 18.1152C17.0605 19.3632 16.2022 21.2266 16.0118 22.9936C15.832 24.6596 16.0571 26.2843 16.6177 27.873C19.0958 34.896 25.8264 40.5079 32.475 43.4433L32.4744 43.4427ZM40.2448 44.7474C34.125 43.9527 28.0616 40.713 23.5968 36.5638C21.0629 34.2089 18.7741 31.1811 17.5647 27.9262C16.7305 25.6812 16.4926 23.1224 17.4352 20.8898C17.9695 19.6233 18.8104 18.5725 19.911 17.7605C22.9848 15.4936 27.3413 15.2544 30.9702 15.9767C35.0597 16.791 38.865 18.6168 42.2287 21.0551C45.8654 23.6918 49.2151 27.3608 50.9863 31.5319C51.8569 33.5819 52.275 35.731 51.9725 37.9407C51.6732 40.1257 50.4845 41.9947 48.6517 43.1956C46.2473 44.7715 43.1037 45.1184 40.2454 44.7474H40.2448Z" fill="#191919"/>
<path d="M52.9735 39.0447C52.3724 42.466 50.134 44.7681 46.8413 45.8615C42.7735 47.2126 37.824 46.2823 33.8786 44.7788C29.3953 43.0706 25.3309 40.4513 21.8824 37.1023C20.5724 35.8302 19.4222 34.4348 18.3926 32.9284C16.637 30.3601 15.2355 27.1888 15.3852 24.0208C15.4717 22.1916 16.0429 20.7906 17.0363 19.2523C14.6604 21.2294 14.1377 24.5459 14.7084 27.4365C14.9373 28.5942 15.2818 29.6629 15.7727 30.744C16.6353 32.6437 17.7432 34.3816 19.0777 35.9905C22.2554 39.8209 26.3271 42.8229 30.7924 44.9682C35.2577 47.1134 40.8734 48.4797 45.6257 47.332C48.7168 46.5855 51.459 44.6762 52.5228 41.5766C52.7891 40.7713 53.022 39.966 52.9728 39.0453L52.9735 39.0447Z" fill="#191919"/>
<path d="M45.0035 50.0364C46.4474 49.439 47.8143 48.6735 48.8083 47.5078C47.5748 48.3759 46.367 48.9929 44.9711 49.3633C40.2372 50.6192 34.5624 49.2759 30.2004 47.2388C28.2935 46.3483 26.5006 45.3279 24.7819 44.1123C20.4321 41.0357 16.2421 36.7452 14.3324 31.682C13.7322 30.0899 13.4268 28.4692 13.4178 26.7723C13.4139 26.0051 13.5602 25.318 13.6892 24.5637C12.9086 26.2903 12.8673 28.8514 13.1889 30.6951C14.1616 36.2683 18.3315 41.2234 22.6734 44.5993C25.4436 46.7535 28.8117 48.6331 32.1458 49.7153C35.4798 50.7974 38.8641 51.3427 42.2931 50.7671C43.234 50.6091 44.1 50.4102 45.0035 50.0364Z" fill="#191919"/>
<path d="M50.8656 45.2087C51.1721 44.6785 51.4692 44.1982 51.6591 43.6204C50.8171 44.9834 49.7134 46.0694 48.3004 46.8176C47.3388 47.327 46.3416 47.7008 45.2672 47.9171C44.3253 48.1065 43.4229 48.2539 42.4486 48.2674C39.8013 48.3038 37.2289 47.8398 34.7195 47.0311C28.1698 44.92 21.6385 40.3673 17.6371 34.7515C16.4377 33.068 15.4952 31.2854 14.8374 29.3284C14.0217 26.7982 13.934 24.407 14.9352 21.8756C14.3092 22.7028 13.9781 23.6471 13.7397 24.6334C13.6654 25.2812 13.5331 25.8853 13.5465 26.5477C13.5783 28.1191 13.853 29.6434 14.3941 31.1296C15.6504 34.5806 17.889 37.6135 20.5133 40.1605C24.1355 43.6759 28.4624 46.3552 33.222 48.018C37.9816 49.6807 44.5933 50.4098 48.9643 47.1981C49.7131 46.6478 50.2964 45.9736 50.8649 45.2092L50.8656 45.2087Z" fill="#191919"/>
<path d="M33.02 42.1151C37.3144 44.0121 43.2835 45.3828 47.593 42.9681C49.2006 42.0675 50.3909 40.6592 50.9706 38.9023C52.375 34.646 49.9667 29.757 47.316 26.4775C43.9976 22.3726 39.4379 19.1643 34.4768 17.4012C31.3459 16.2888 28.18 15.8029 24.8917 16.3622C22.5041 16.768 20.0757 17.9712 18.7088 20.0267C17.3084 22.1322 17.1989 24.8468 17.955 27.2139C19.3956 31.7246 23.0278 35.7551 26.8047 38.501C28.7606 39.9234 30.8138 41.1406 33.0205 42.1151H33.02ZM20.6145 30.3802C20.2426 29.6321 19.8529 28.9165 19.6932 28.105C19.6038 27.6516 19.6893 27.1265 19.6871 26.6597C19.6826 25.6627 20.0316 24.784 20.6084 24.0157C20.9568 23.5517 21.3136 23.1762 21.805 22.8512C25.3629 20.4975 30.2482 21.3997 33.8972 23.142C36.9844 24.6159 39.7171 26.6922 41.8445 29.395C43.3231 31.2735 44.5649 33.6777 44.9022 36.0728C45.1825 38.0645 44.6392 40.2904 42.9551 41.516C42.27 42.0148 41.4436 42.3354 40.5988 42.49C39.1565 42.7534 37.9566 42.564 36.5349 42.2334C34.5315 41.7671 32.6553 41.0078 30.8362 40.0506C29.0136 39.0917 27.3748 37.9631 25.7901 36.6523C24.3902 35.4945 23.154 34.5581 22.0021 33.1094L21.9954 33.1032L21.0255 31.7981L20.6586 31.2124C20.0327 30.2149 19.4274 29.2308 18.9868 28.1347C18.4815 26.8766 18.1694 25.6129 18.2057 24.2466C18.2967 20.8387 20.3828 18.5181 23.5158 17.4662C28.7389 15.7127 35.158 17.8882 39.6412 20.7323C42.8949 22.7968 45.7693 25.4212 47.9029 28.6413C48.8611 30.0871 49.6094 31.6182 50.0935 33.2781C51.0377 36.515 50.5649 39.9413 47.6885 42.0058C45.2556 43.7521 41.4637 43.8417 38.6266 43.2359C37.6522 42.9905 36.698 42.8549 35.7979 42.448C39.5256 43.5066 44.9709 44.0082 47.9253 41.0128C48.8912 40.0332 49.5054 38.8625 49.7301 37.4923C49.988 35.9176 49.8159 34.3322 49.3268 32.8157C48.7064 30.8935 47.65 28.9646 46.4204 27.3742C44.7721 25.2424 42.8256 23.383 40.6256 21.8357C37.6779 19.7628 34.3327 18.2323 30.7825 17.585C28.42 17.1546 25.6617 17.1967 23.4187 18.0944C22.2913 18.5456 21.279 19.1637 20.461 20.0491C18.7356 21.9164 18.3324 24.3105 18.8528 26.7594C19.0455 27.6667 19.3571 28.5017 19.7245 29.3541C20.0466 30.1017 21.0679 31.7958 21.5515 32.3691L21.2148 31.589L20.6145 30.3819V30.3802ZM43.1573 25.4341C40.424 22.6926 37.1463 20.6028 33.4672 19.3727C32.078 18.9082 30.6792 18.6179 29.2191 18.494C27.5384 18.3517 25.9046 18.5176 24.3121 19.0488C21.0556 20.1349 19.1376 22.901 19.3498 26.3576C19.4335 26.8127 19.5056 27.21 19.5435 27.6729C18.5424 24.6344 19.3208 21.3723 22.1071 19.5666C24.2607 18.1712 27.0358 17.8439 29.5468 18.155C31.2505 18.3657 33.1227 18.8785 34.7057 19.5207C38.5803 21.0926 42.0131 23.5315 44.7659 26.6871C46.0435 28.1515 47.1335 29.7548 47.923 31.5285C49.1151 34.2061 49.6612 37.1835 47.9962 39.7771C47.5064 40.5404 46.8922 41.1389 46.1262 41.6135C45.0446 42.179 43.9038 42.5881 42.6692 42.675C43.4175 42.4895 44.1378 42.3085 44.8346 41.9246C46.6661 41.075 47.9492 39.4207 48.3195 37.4178C48.7851 34.8999 47.9526 32.2884 46.7275 30.1039C45.7476 28.3566 44.575 26.8564 43.1562 25.433L43.1573 25.4341ZM45.2707 30.2793C44.2182 28.4687 42.9099 26.9135 41.38 25.4727C39.147 23.3695 36.5517 21.7399 33.6738 20.674C31.6095 19.9096 29.4676 19.5235 27.2676 19.6585C25.8013 19.7488 24.4394 20.0861 23.1629 20.8006C21.8865 21.5152 20.8557 22.4516 20.2834 23.7417L19.8339 24.7543C20.4124 21.5617 23.0842 19.802 26.1134 19.3402C27.9549 19.0595 29.7629 19.2416 31.5659 19.6927C34.627 20.4588 37.4239 21.9063 39.9366 23.8011C42.5872 25.8 45.0842 28.583 46.4992 31.6176C47.4099 33.5701 47.9671 35.7859 47.4143 37.9177C47.0224 39.428 46.062 40.6934 44.714 41.4723C43.6888 42.0652 42.5721 42.443 41.3783 42.5674C42.9244 42.1246 44.2953 41.6152 45.4393 40.4109C46.0982 39.7171 46.5701 38.9135 46.8063 37.9715C47.4691 35.3269 46.6047 32.5737 45.2696 30.2777L45.2707 30.2793ZM39.3112 25.1589C35.6695 22.2291 30.8769 20.1607 26.1396 20.7082C25.4584 20.7866 24.8314 20.9699 24.1825 21.1526C23.9123 21.2288 23.6956 21.463 23.3801 21.4093C26.707 19.7303 30.8283 20.4381 34.1283 21.8407C37.7863 23.3953 41.1142 26.0119 43.4588 29.2207C44.5867 30.7647 45.4567 32.4419 45.9531 34.2868C46.2747 35.4827 46.3417 36.6966 46.0413 37.8835C45.8124 38.7874 45.4449 39.6465 44.7313 40.2691C45.3908 39.2301 45.8062 38.1889 45.8654 36.9683C45.9246 35.7478 45.7225 34.5115 45.3031 33.3117C44.2098 30.183 41.8792 27.2251 39.3117 25.1595L39.3112 25.1589Z" fill="#191919"/>
</g>
<defs>
<clipPath id="clip0_355_65">
<rect width="40" height="36" fill="white" transform="translate(13 15)"/>
</clipPath>
</defs>
</svg>
