<svg width="62" height="62" viewBox="0 0 62 62" fill="none" xmlns="http://www.w3.org/2000/svg">
<circle cx="31" cy="31" r="31" fill="#F5F5F5"/>
<g clip-path="url(#clip0_1866_74)">
<path d="M48.1651 29.643C48.5483 30.489 48.7915 31.3933 48.891 32.3159C48.9868 33.2385 48.9389 34.172 48.7399 35.08C48.5446 35.988 48.2056 36.8596 47.7339 37.6618C47.4244 38.1979 47.0596 38.7011 46.6395 39.1642C46.2231 39.6237 45.7588 40.0394 45.254 40.4041C44.7455 40.7687 44.2038 41.075 43.6289 41.3267C43.0578 41.5746 42.4608 41.7642 41.8491 41.8882C41.5617 42.7707 41.1342 43.6058 40.5815 44.357C40.0325 45.1082 39.3655 45.7682 38.6064 46.3116C37.8473 46.8585 37.0071 47.2815 36.1154 47.566C35.2236 47.8541 34.2914 47.9963 33.3517 47.9963C32.729 47.9999 32.1025 47.9343 31.4908 47.8103C30.8828 47.6827 30.2859 47.4894 29.7147 47.2378C29.1435 46.9862 28.6019 46.6726 28.097 46.3079C27.5959 45.9432 27.1316 45.5239 26.7189 45.0608C25.7976 45.2577 24.8543 45.3051 23.922 45.2103C22.9897 45.1118 22.0759 44.8711 21.2173 44.4919C20.3624 44.1163 19.5701 43.6058 18.8737 42.9822C18.1772 42.3586 17.584 41.6293 17.116 40.8271C16.8027 40.291 16.5448 39.7258 16.3495 39.1387C16.1542 38.5516 16.0252 37.9463 15.9589 37.33C15.8926 36.7174 15.8963 36.0974 15.9626 35.4812C16.0289 34.8685 16.1653 34.2632 16.3606 33.6761C15.7341 32.9869 15.2182 32.2029 14.835 31.3569C14.4555 30.5072 14.2086 29.6065 14.1128 28.6839C14.0133 27.7613 14.0649 26.8278 14.2602 25.9198C14.4555 25.0118 14.7945 24.1403 15.2661 23.338C15.5757 22.802 15.9405 22.2951 16.3569 21.8356C16.7733 21.3761 17.2413 20.9604 17.7461 20.5958C18.2509 20.2311 18.7963 19.9212 19.3675 19.6732C19.9423 19.4216 20.5393 19.2356 21.1509 19.1116C21.4384 18.2255 21.8658 17.3941 22.4149 16.6429C22.9676 15.8917 23.6346 15.2316 24.3937 14.6846C25.1528 14.1413 25.9929 13.7183 26.8847 13.4302C27.7764 13.1458 28.7087 12.9999 29.6484 13.0036C30.2711 12.9999 30.8976 13.0619 31.5092 13.1895C32.1209 13.3172 32.7179 13.5068 33.2891 13.7584C33.8602 14.0137 34.4019 14.3236 34.9067 14.6883C35.4116 15.0566 35.8759 15.4723 36.2886 15.9354C37.2061 15.7422 38.1495 15.6948 39.0818 15.7896C40.014 15.8844 40.9242 16.1287 41.7828 16.5043C42.6377 16.8835 43.43 17.3904 44.1264 18.014C44.8229 18.6339 45.4161 19.3596 45.8841 20.1655C46.1973 20.6979 46.4553 21.2631 46.6506 21.8539C46.8459 22.441 46.9785 23.0463 47.0412 23.6626C47.1075 24.2788 47.1075 24.8988 47.0375 25.515C46.9712 26.1313 46.8348 26.7366 46.6395 27.3237C47.2696 28.0129 47.7818 28.7933 48.1651 29.643ZM35.8869 45.2103C36.6902 44.8821 37.4199 44.3971 38.0352 43.7881C38.6506 43.1791 39.1407 42.4571 39.4724 41.6585C39.804 40.8635 39.9772 40.0102 39.9772 39.1496V31.0177C39.9747 31.0104 39.9723 31.0019 39.9698 30.9922C39.9674 30.9849 39.9637 30.9776 39.9588 30.9703C39.9538 30.963 39.9477 30.957 39.9403 30.9521C39.933 30.9448 39.9256 30.9399 39.9182 30.9375L36.9445 29.2382V39.0621C36.9445 39.1606 36.9298 39.2627 36.904 39.3575C36.8782 39.456 36.8413 39.5471 36.7897 39.6346C36.7381 39.7222 36.6792 39.8024 36.6055 39.8717C36.5339 39.9423 36.4534 40.0036 36.366 40.054L29.3241 44.0762C29.2651 44.1127 29.1656 44.1637 29.1141 44.1929C29.4052 44.4372 29.7221 44.6524 30.0537 44.842C30.389 45.0316 30.7354 45.192 31.0965 45.3233C31.4577 45.451 31.8298 45.5494 32.2057 45.6151C32.5852 45.6807 32.9685 45.7135 33.3517 45.7135C34.2213 45.7135 35.0836 45.5421 35.8869 45.2103ZM19.1169 39.6893C19.5554 40.4369 20.1339 41.086 20.823 41.6111C21.5158 42.1362 22.3006 42.5191 23.1408 42.7415C23.981 42.964 24.858 43.0223 25.7202 42.9093C26.5825 42.7962 27.4116 42.5191 28.167 42.0888L35.2863 38.0228L35.3047 38.0046C35.3096 37.9997 35.3133 37.9925 35.3158 37.9827C35.3207 37.9754 35.3244 37.9681 35.3268 37.9609V34.5331L26.7336 39.4523C26.6452 39.5034 26.553 39.5398 26.4572 39.569C26.3577 39.5945 26.2582 39.6055 26.1551 39.6055C26.0556 39.6055 25.9561 39.5945 25.8566 39.569C25.7608 39.5398 25.665 39.5034 25.5765 39.4523L18.5347 35.4265C18.472 35.39 18.3799 35.3353 18.3283 35.3025C18.262 35.6781 18.2288 36.0573 18.2288 36.4366C18.2288 36.8158 18.2657 37.1951 18.332 37.5707C18.3983 37.9426 18.5015 38.3109 18.6305 38.6683C18.7631 39.0257 18.9253 39.3684 19.1169 39.6966V39.6893ZM17.267 24.483C16.8322 25.2306 16.5522 26.0547 16.4379 26.908C16.3237 27.7613 16.3827 28.6256 16.6074 29.4606C16.8322 30.2921 17.2191 31.0688 17.7498 31.7544C18.2804 32.4363 18.94 33.0088 19.6917 33.4391L26.8073 37.5087C26.8147 37.5111 26.8233 37.5135 26.8331 37.516H26.8589C26.8687 37.516 26.8773 37.5135 26.8847 37.5087C26.892 37.5062 26.8994 37.5026 26.9068 37.4977L29.8916 35.7911L21.2983 30.8828C21.2136 30.8318 21.1325 30.7698 21.0588 30.7005C20.9874 30.6296 20.9255 30.5499 20.8746 30.4635C20.8267 30.3759 20.7861 30.2848 20.7603 30.1863C20.7346 30.0915 20.7198 29.993 20.7235 29.8909V21.6095C20.3624 21.7408 20.0123 21.9013 19.6807 22.0909C19.349 22.2841 19.0358 22.5029 18.741 22.7473C18.4499 22.9916 18.1772 23.2614 17.9303 23.5532C17.6834 23.8412 17.466 24.1549 17.2744 24.483H17.267ZM41.7091 30.1134C41.7975 30.1644 41.8786 30.2228 41.9523 30.2957C42.0223 30.365 42.085 30.4452 42.1365 30.5327C42.1845 30.6203 42.225 30.7151 42.2508 30.8099C42.2729 30.9083 42.2876 31.0068 42.2839 31.1089V39.3903C43.4668 38.96 44.4986 38.2052 45.2614 37.2133C46.0278 36.2214 46.4884 35.0363 46.5953 33.7964C46.7022 32.5566 46.4516 31.3095 45.8694 30.2046C45.2871 29.0996 44.3991 28.1807 43.3083 27.5608L36.1928 23.4912C36.1854 23.4887 36.1768 23.4863 36.167 23.4839H36.1412C36.1338 23.4863 36.1252 23.4887 36.1154 23.4912C36.108 23.4936 36.1007 23.4972 36.0933 23.5021L33.1232 25.2014L41.7165 30.1134H41.7091ZM44.6755 25.701H44.6718V25.7047L44.6755 25.701ZM44.6718 25.6974C44.8855 24.4721 44.7418 23.2104 44.2554 22.0617C43.7726 20.913 42.9657 19.9248 41.9339 19.2101C40.9021 18.499 39.6861 18.0906 38.4295 18.0359C37.1693 17.9848 35.9238 18.2875 34.833 18.9074L27.7175 22.9734C27.7101 22.9782 27.704 22.9843 27.699 22.9916L27.6843 23.0135C27.6818 23.0208 27.6794 23.0293 27.6769 23.039C27.6745 23.0463 27.6733 23.0548 27.6733 23.0645V26.4631L36.2665 21.5512C36.3549 21.5001 36.4507 21.4637 36.5465 21.4345C36.646 21.409 36.7455 21.398 36.845 21.398C36.9482 21.398 37.0477 21.409 37.1472 21.4345C37.243 21.4637 37.3351 21.5001 37.4235 21.5512L44.4654 25.577C44.5281 25.6135 44.6202 25.6645 44.6718 25.6974ZM26.0519 21.9341C26.0519 21.8356 26.0666 21.7372 26.0924 21.6387C26.1182 21.5439 26.1551 21.4491 26.2067 21.3616C26.2582 21.2777 26.3172 21.1975 26.3909 21.1245C26.4609 21.0552 26.542 20.9933 26.6304 20.9458L33.6723 16.9237C33.7386 16.8835 33.8307 16.8325 33.8823 16.807C32.9169 16.0084 31.7377 15.4978 30.4885 15.341C29.2393 15.1806 27.9717 15.3775 26.8331 15.9063C25.6908 16.435 24.7253 17.2774 24.051 18.3276C23.3766 19.3815 23.0192 20.5994 23.0192 21.8466V29.9785C23.0217 29.9882 23.0241 29.9967 23.0266 30.004C23.029 30.0113 23.0327 30.0186 23.0376 30.0259C23.0425 30.0332 23.0487 30.0405 23.0561 30.0477C23.061 30.0526 23.0683 30.0575 23.0782 30.0623L26.0519 31.7616V21.9341ZM27.6659 32.6806L31.4945 34.8685L35.3231 32.6806V28.3083L31.4982 26.1204L27.6696 28.3083L27.6659 32.6806Z" fill="black"/>
</g>
<defs>
<clipPath id="clip0_1866_74">
<rect width="35" height="35" fill="white" transform="translate(14 13)"/>
</clipPath>
</defs>
</svg>
