<svg width="66" height="66" viewBox="0 0 66 66" fill="none" xmlns="http://www.w3.org/2000/svg">
<circle cx="32.9183" cy="32.9183" r="32.9183" fill="#F5F5F5"/>
<path d="M37.3643 17C44.4725 17.0013 50.6861 21.755 52.488 28.5718C54.2898 35.3886 51.2261 42.5523 45.0313 46.008C38.8365 49.4638 31.07 48.3414 26.128 43.2763C30.5577 41.5001 33.4571 37.2369 33.4571 32.4998C33.4571 27.7627 30.5577 23.4994 26.128 21.7232C29.0381 18.7338 33.0381 17.033 37.2247 17.0005L37.3643 17ZM12.4043 25.4469C15.6101 21.282 21.2297 19.7573 26.128 21.7232C20.2646 27.7318 20.2646 37.2678 26.128 43.2763C21.2297 45.2423 15.6101 43.7176 12.4043 39.5527C9.19855 35.3878 9.19855 29.6118 12.4043 25.4469Z" fill="black"/>
</svg>
