<svg width="66" height="66" viewBox="0 0 66 66" fill="none" xmlns="http://www.w3.org/2000/svg">
<circle cx="32.9183" cy="32.9183" r="32.9183" fill="#F5F5F5"/>
<path fill-rule="evenodd" clip-rule="evenodd" d="M41.407 15L54.042 22.1837V22.336L41.2775 29.4428L41.3072 25.738L39.8705 25.6855C38.0172 25.6365 37.0512 25.689 35.9015 25.878C34.0395 26.1843 32.335 26.8877 30.3942 28.244L26.6038 30.8777C26.1068 31.219 25.7375 31.4657 25.4137 31.674L24.5125 32.2375L23.8177 32.647L24.4915 33.0495L25.419 33.641C26.252 34.1905 27.4665 35.034 30.1458 36.9065C32.0883 38.2628 33.791 38.9662 35.653 39.2725L36.178 39.3512C37.3925 39.5105 38.5843 39.5157 41.1218 39.409L41.1603 35.6308L53.7952 42.8145V42.9667L41.0308 50.0752L41.0553 46.8167L39.944 46.8552C37.5185 46.9287 36.2042 46.8587 34.4525 46.5717C31.488 46.0817 28.7475 44.9512 25.9107 42.9685L22.1342 40.3435C21.6999 40.044 21.2593 39.7534 20.813 39.472L19.9957 38.982C19.5544 38.7277 19.111 38.4769 18.6658 38.2295C17.089 37.3528 12.9853 36.2783 12 36.2783V28.8792L12.245 28.8863C13.232 28.874 17.3375 27.7977 18.9107 26.9192L20.6888 25.9042L21.4552 25.4247C22.2042 24.9347 23.3312 24.1543 26.1557 22.182C28.9925 20.1993 31.7313 19.067 34.6975 18.5787C36.7135 18.2462 38.152 18.206 41.372 18.3373L41.407 15Z" fill="black"/>
</svg>
