<svg width="66" height="66" viewBox="0 0 66 66" fill="none" xmlns="http://www.w3.org/2000/svg">
<circle cx="32.9183" cy="32.9183" r="32.9183" fill="#F5F5F5"/>
<path d="M39.9387 44.8765C35.6531 47.515 30.2961 47.515 26.0106 44.8765C25.3513 44.4508 24.4447 44.536 23.8678 45.1318L17.4395 51.771L19.9119 54.3245L25.4337 48.6216C30.2138 51.005 35.7356 51.005 40.4333 48.6216L46.0375 54.4097L48.5099 51.8561L41.9992 45.1318C41.5047 44.536 40.5982 44.4508 39.9387 44.8765Z" fill="#040F21"/>
<path d="M21.1481 39.8548C18.5932 35.4286 18.5932 29.896 21.1481 25.4699C21.5602 24.789 21.4777 23.8527 20.9008 23.2569L14.4725 16.6177L12 19.1712L17.6042 24.9592C15.2966 29.896 15.2966 35.5989 17.6042 40.4506L12 46.1535L14.4725 48.707L20.9008 42.0678C21.4777 41.472 21.5602 40.5357 21.1481 39.8548Z" fill="#040F21"/>
<path d="M40.5157 16.788C35.7356 14.4047 30.2138 14.4047 25.5161 16.788L19.9119 11L17.4395 13.5535L23.9503 20.2778C24.5272 20.8736 25.3513 20.9587 26.093 20.5332C30.3787 17.8945 35.6531 17.8945 40.0212 20.5332C40.6805 20.9587 41.5871 20.8736 42.164 20.2778L48.5099 13.5535L46.0375 11L40.5157 16.788Z" fill="#040F21"/>
<path d="M37.2194 37.0459C34.9118 39.4293 31.1206 39.4293 28.8131 37.1311L28.7306 37.0459C26.423 34.6627 26.423 30.7473 28.7306 28.364C31.0383 25.9807 34.8294 25.9807 37.1369 28.364C39.5271 30.7473 39.5271 34.6627 37.2194 37.0459ZM39.6095 25.8105C35.9008 21.9802 29.9669 21.9802 26.2582 25.8105C22.6319 29.5557 22.6319 35.7693 26.1758 39.5143L26.2582 39.5995C29.9669 43.3446 35.9008 43.2596 39.5271 39.5143C43.3181 35.7693 43.3181 29.5557 39.6095 25.8105Z" fill="#040F21"/>
<path d="M44.8011 25.4699C47.356 29.896 47.356 35.3436 44.8011 39.8548C44.389 40.5357 44.4714 41.472 45.0483 42.0678L51.5591 48.7922L54.0316 46.2385L48.4274 40.4506C50.735 35.5138 50.735 29.8109 48.4274 24.9592L54.0316 19.1712L51.5591 16.6177L45.0483 23.342C44.4714 23.8527 44.389 24.789 44.8011 25.4699Z" fill="#040F21"/>
</svg>
