<svg width="66" height="66" viewBox="0 0 66 66" fill="none" xmlns="http://www.w3.org/2000/svg">
<circle cx="32.9183" cy="32.9183" r="32.9183" fill="#F5F5F5"/>
<path d="M28.6889 14.3879C29.9344 14.4117 31.3878 14.7702 33.0023 15.4512C36.3523 16.8545 40.0443 19.4726 43.4035 22.8194C45.7866 25.1936 47.7984 27.7371 49.2704 30.2024H49.335C49.8055 30.1967 50.1297 30.0878 50.3146 29.9011C50.5003 29.7131 50.6123 29.3922 50.618 28.9247C50.6264 28.3167 50.4554 27.5439 50.1177 26.6856C49.3464 24.7314 47.8349 22.5674 45.8554 20.5953C43.876 18.6262 41.705 17.1179 39.7437 16.3496C38.8818 16.013 38.1023 15.8416 37.4946 15.8501C37.0661 15.8588 36.7654 15.9538 36.5721 16.1126L36.5195 16.1546L36.4609 16.1201C36.1074 15.9105 35.7567 15.7125 35.4092 15.5262L35.307 15.4722L35.3777 15.3807C35.4295 15.314 35.4854 15.2491 35.5474 15.1873L35.7292 15.0283C36.173 14.6787 36.7612 14.4974 37.475 14.4869C38.2807 14.4751 39.2115 14.6791 40.2424 15.0823C42.382 15.9214 44.7172 17.5374 46.8215 19.6339C48.9255 21.7303 50.5481 24.0563 51.3903 26.1877C51.7949 27.215 51.9987 28.1429 51.9867 28.9457C51.9747 29.7578 51.743 30.4073 51.2837 30.8654C50.953 31.1946 50.5214 31.4046 50.0006 31.5012C50.2986 32.0672 50.5684 32.6248 50.7998 33.1765C51.4803 34.7905 51.8397 36.2382 51.8635 37.4762C51.8843 38.7384 51.5529 39.7326 50.866 40.4201C50.1786 41.1077 49.179 41.4366 47.9121 41.4128C47.4034 41.4041 46.8574 41.3357 46.2837 41.2149C45.4523 41.041 44.554 40.7565 43.5958 40.3541C40.2457 38.9509 36.5541 36.3314 33.1946 32.9845C29.8352 29.6374 27.2067 25.9562 25.7983 22.6214C25.3886 21.6526 25.0971 20.744 24.9239 19.9039C23.5147 19.3627 22.2326 19.0594 21.1799 19.025C20.0814 18.9876 19.2816 19.2279 18.7896 19.7209C18.2972 20.2144 18.0534 21.007 18.091 22.101C18.1199 22.9481 18.3256 23.9472 18.6904 25.0434L18.7415 25.1979L18.5808 25.1694C18.1416 25.0912 17.7203 25.0427 17.3142 25.0224L17.2451 25.0194L17.2256 24.9534C16.9246 23.9392 16.755 22.9978 16.7253 22.146C16.6749 20.685 17.0402 19.5385 17.8251 18.7566C18.6098 17.9748 19.7603 17.6116 21.2265 17.6618C22.2752 17.6989 23.453 17.9408 24.7406 18.3832L24.7376 18.3232C24.717 17.0613 25.0469 16.0681 25.7337 15.3807C26.421 14.693 27.4219 14.3642 28.6889 14.3879ZM28.6694 15.7482C27.7645 15.7339 27.112 15.9389 26.7073 16.342C26.3023 16.7455 26.0935 17.3962 26.1108 18.2977L26.1273 18.6336C26.1352 18.7302 26.1462 18.8287 26.1589 18.9291C26.1632 18.9308 26.1679 18.9333 26.1724 18.9351C26.1938 18.9435 26.2178 18.9541 26.243 18.9651C30.1381 20.6488 34.4575 23.7398 38.4004 27.668C41.9969 31.251 44.8886 35.138 46.6517 38.7388L46.7418 38.9248L46.542 38.8769C46.0472 38.7588 45.5175 38.5905 44.9569 38.3759L44.924 38.3624L44.9058 38.3309C43.1863 35.1551 40.5929 31.7774 37.4329 28.6292C33.8797 25.0922 30.0409 22.2705 26.5225 20.5923C26.6675 21.0719 26.8476 21.5739 27.0663 22.0935C28.4038 25.2645 30.9269 28.7908 34.1683 32.0201C37.4097 35.2495 40.9492 37.7633 44.1321 39.0959C44.6977 39.3339 45.2424 39.5253 45.7607 39.6762C45.9935 39.7429 46.2206 39.8009 46.4414 39.8502C46.4674 39.8559 46.496 39.8619 46.521 39.8682C46.7443 39.9172 46.9595 39.9579 47.167 39.9866C47.439 40.0241 47.6997 40.0439 47.9423 40.0497L48.2698 40.0466C49.0066 40.0135 49.5501 39.8117 49.9044 39.4588L49.9164 39.4483C50.3163 39.0444 50.524 38.3971 50.5069 37.5017C50.4866 36.4603 50.1574 35.1448 49.5498 33.7043C49.2458 32.9814 48.875 32.2418 48.4515 31.4892C47.8787 31.4007 47.2574 31.2295 46.5961 30.9689C44.4567 30.1298 42.1227 28.5136 40.0186 26.4172C37.9147 24.3211 36.2921 21.9961 35.4498 19.8649L35.31 19.496L35.2124 19.229L35.4543 19.3805C35.7615 19.5739 36.0697 19.7759 36.3783 19.9864L37.3083 20.6448L37.3247 20.6567L37.3352 20.6762C38.1837 22.2594 39.4427 23.9152 40.9861 25.4529C42.9654 27.4218 45.1366 28.9302 47.098 29.6985C47.212 29.7434 47.3255 29.7842 47.436 29.8231C46.104 27.7949 44.4092 25.7287 42.448 23.7747C40.5206 21.8544 38.4864 20.1916 36.4849 18.8751V18.8826L36.3347 18.7836C35.8692 18.4803 35.4063 18.1921 34.948 17.9303C34.1094 17.4528 33.2832 17.0392 32.481 16.702C31.0355 16.0939 29.7147 15.7683 28.6694 15.7482Z" fill="black" stroke="black" stroke-width="0.1264"/>
<path d="M17.046 25.9817C17.3652 25.9884 17.6987 26.018 18.0451 26.0686L18.3952 26.1271L18.4132 26.1286C18.6381 26.1699 18.8721 26.2212 19.1088 26.2801C19.8183 26.4569 20.568 26.7101 21.3609 27.042C24.7111 28.4451 28.404 31.0631 31.7636 34.4102C35.1228 37.757 37.7499 41.4385 39.1584 44.7732C39.4693 45.5102 39.7108 46.2115 39.8871 46.8743C41.4362 47.5037 42.843 47.857 43.9811 47.8941C45.0797 47.9315 45.8748 47.6901 46.3699 47.1967C46.8622 46.7033 47.1062 45.9107 47.0685 44.8166C47.0454 44.1111 46.8984 43.2984 46.6388 42.4126L46.5968 42.2657L46.747 42.2896C47.1368 42.3492 47.5119 42.3818 47.8724 42.3887L47.8768 42.3871H48.0631L48.0811 42.4605C48.2967 43.2872 48.4194 44.0574 48.4433 44.7701C48.4936 46.231 48.1282 47.3777 47.3434 48.1596C46.5587 48.9413 45.408 49.3046 43.942 49.2544C42.8319 49.2172 41.5714 48.9413 40.1876 48.446C40.21 48.6604 40.2264 48.8692 40.2311 49.0729V49.0744C40.2493 50.1786 39.9987 51.0788 39.4754 51.7453L39.235 52.0168C38.5477 52.7045 37.548 53.0332 36.2813 53.0097C35.194 52.9889 33.945 52.7124 32.5644 52.1893L31.9648 51.9508C31.7991 51.8831 31.6305 51.8058 31.4676 51.7333L31.3834 51.6959L31.415 51.6105C31.5433 51.2639 31.6205 50.8789 31.6494 50.4601L31.6599 50.3191L31.7876 50.3791C32.024 50.4897 32.2616 50.5937 32.4953 50.6926C33.9407 51.3006 35.26 51.6263 36.3053 51.6464C37.2104 51.6607 37.8627 51.4558 38.2674 51.0526C38.6722 50.6491 38.8811 49.9994 38.8639 49.0984L38.8488 48.7954C38.8273 48.4999 38.7828 48.1855 38.7182 47.855C34.8773 46.1555 30.6479 43.1091 26.7741 39.2497C23.3832 35.8714 20.6156 32.2195 18.8324 28.7951L18.7272 28.5941L18.945 28.6572C19.4214 28.7958 19.9301 28.9782 20.458 29.1986C20.4876 29.211 20.5183 29.2245 20.5466 29.2376L20.6277 29.275L20.6578 29.287L20.6743 29.3156C22.3856 32.2737 24.8188 35.3764 27.7386 38.2854C31.1476 41.6789 34.8188 44.4137 38.2194 46.1125C38.1245 45.8472 38.0208 45.5762 37.9054 45.3011C36.5679 42.1302 34.0447 38.6036 30.8036 35.3744C27.5622 32.1453 24.0224 29.6312 20.8396 28.2988C20.452 28.1362 20.0757 27.9963 19.7113 27.8743C19.468 27.7935 19.2304 27.7237 18.9976 27.6598C18.9859 27.6569 18.9733 27.6553 18.9616 27.6524C18.95 27.6495 18.9386 27.6463 18.927 27.6434C18.6921 27.5798 18.461 27.5263 18.2374 27.4829C17.8014 27.3989 17.3961 27.3506 17.025 27.345C16.1195 27.3305 15.4662 27.5354 15.0613 27.9388C14.6564 28.3423 14.4475 28.9929 14.4649 29.8944C14.4851 30.9356 14.816 32.25 15.4234 33.6902C15.703 34.3524 16.0382 35.032 16.4165 35.7209C17.1621 35.7496 18.0078 35.944 18.936 36.3088C21.0755 37.1479 23.4107 38.7639 25.515 40.8605C27.6192 42.9569 29.2416 45.2827 30.0839 47.4141C30.4414 48.3179 30.6413 49.1472 30.6744 49.8797L30.6804 50.1707V50.1737C30.6774 50.2647 30.6725 50.3543 30.6637 50.4436C30.6607 50.5097 30.6513 50.5733 30.6428 50.6325L30.6442 50.6341L30.6353 50.7001C30.6237 50.7744 30.6087 50.8458 30.5947 50.913V50.9251L30.5917 50.9355C30.4827 51.4002 30.281 51.7891 29.9757 52.0933C29.5162 52.5479 28.865 52.7816 28.0496 52.7937C27.2438 52.8056 26.3118 52.603 25.2807 52.1997C23.1414 51.3608 20.8073 49.7444 18.7032 47.6482C16.5991 45.5518 14.9766 43.2258 14.1343 41.0944C13.7295 40.067 13.5259 39.1377 13.5379 38.3348C13.55 37.5226 13.7813 36.8733 14.241 36.4152C14.4473 36.2097 14.6956 36.0511 14.9787 35.9368C14.6722 35.3585 14.396 34.7837 14.1584 34.2211C13.4779 32.6097 13.1185 31.1623 13.0947 29.9214C13.0739 28.6591 13.4037 27.6621 14.0908 26.9745C14.7781 26.2867 15.779 25.958 17.046 25.9817ZM15.6563 37.1487C15.5142 37.1857 15.3953 37.2357 15.3017 37.3001L15.2056 37.3795C15.0663 37.5203 14.9687 37.7359 14.9261 38.032L14.9021 38.3559C14.8935 38.9642 15.0661 39.7377 15.4039 40.5965C16.1752 42.5504 17.6856 44.7134 19.6647 46.6853C21.6442 48.6547 23.8164 50.1626 25.778 50.9311C26.6396 51.2674 27.4151 51.4389 28.0256 51.4305C28.4953 51.4247 28.817 51.3161 29.0051 51.129L29.0067 51.1275C29.136 51.0011 29.2245 50.8039 29.2725 50.5366L29.292 50.4016C29.3008 50.3203 29.3087 50.2411 29.3087 50.1572C29.3087 50.009 29.3004 49.8542 29.2831 49.6908V49.6893L29.1959 49.1719C29.1122 48.7832 28.9828 48.3612 28.8084 47.9151C28.0371 45.9609 26.5254 43.7968 24.546 41.8248C22.5667 39.8558 20.3955 38.3473 18.4342 37.579L18.3726 37.555V37.5521C17.9976 37.4074 17.6403 37.2996 17.3059 37.2205C18.6677 39.3601 20.4436 41.5489 22.5193 43.6169C24.01 45.1021 25.5626 46.4357 27.1151 47.5717L27.7807 48.0456L27.8032 48.0605L27.8137 48.086C27.8389 48.1416 27.8704 48.2067 27.8949 48.2675C28.1289 48.8548 28.2718 49.4023 28.314 49.8467L28.3336 50.0447L28.1653 49.9382C25.9438 48.5281 23.6831 46.7017 21.5547 44.5812C19.1556 42.191 17.1306 39.6302 15.6563 37.1487Z" fill="black"/>
<path d="M18.4132 26.1286L18.3952 26.1271L18.0451 26.0686C17.6987 26.018 17.3652 25.9884 17.046 25.9817C15.779 25.958 14.7781 26.2867 14.0908 26.9745C13.4037 27.6621 13.0739 28.6591 13.0947 29.9214C13.1185 31.1623 13.4779 32.6097 14.1584 34.2211C14.396 34.7837 14.6722 35.3585 14.9787 35.9368C14.6956 36.0511 14.4473 36.2097 14.241 36.4152C13.7813 36.8733 13.55 37.5226 13.5379 38.3348C13.5259 39.1377 13.7295 40.067 14.1343 41.0944C14.9766 43.2258 16.5991 45.5518 18.7032 47.6482C20.8073 49.7444 23.1414 51.3608 25.2807 52.1997C26.3118 52.603 27.2438 52.8056 28.0496 52.7937C28.865 52.7816 29.5162 52.5479 29.9757 52.0933C30.281 51.7891 30.4827 51.4002 30.5917 50.9355L30.5947 50.9251V50.913C30.6087 50.8458 30.6237 50.7744 30.6353 50.7001L30.6442 50.6341L30.6428 50.6325C30.6513 50.5733 30.6607 50.5097 30.6637 50.4436C30.6725 50.3543 30.6774 50.2647 30.6804 50.1737V50.1707L30.6744 49.8797C30.6413 49.1472 30.4414 48.3179 30.0839 47.4141C29.2416 45.2827 27.6192 42.9569 25.515 40.8605C23.4107 38.7639 21.0755 37.1479 18.936 36.3088C18.0078 35.944 17.1621 35.7496 16.4165 35.7209C16.0382 35.032 15.703 34.3524 15.4234 33.6902C14.816 32.25 14.4851 30.9356 14.4649 29.8944C14.4475 28.9929 14.6564 28.3423 15.0613 27.9388C15.4662 27.5354 16.1195 27.3305 17.025 27.345C17.3961 27.3506 17.8014 27.3989 18.2374 27.4829C18.461 27.5263 18.6921 27.5798 18.927 27.6434C18.9386 27.6463 18.95 27.6495 18.9616 27.6524C18.9733 27.6553 18.9859 27.6569 18.9976 27.6598C19.2304 27.7237 19.468 27.7935 19.7113 27.8743C20.0757 27.9963 20.452 28.1362 20.8396 28.2988C24.0224 29.6312 27.5622 32.1453 30.8036 35.3744C34.0447 38.6036 36.5679 42.1302 37.9054 45.3011C38.0208 45.5762 38.1245 45.8472 38.2194 46.1125C34.8188 44.4137 31.1476 41.6789 27.7386 38.2854C24.8188 35.3764 22.3856 32.2737 20.6743 29.3156L20.6578 29.287L20.6277 29.275L20.5466 29.2376C20.5183 29.2245 20.4876 29.211 20.458 29.1986C19.9301 28.9782 19.4214 28.7958 18.945 28.6572L18.7272 28.5941L18.8324 28.7951C20.6156 32.2195 23.3832 35.8714 26.7741 39.2497C30.6479 43.1091 34.8773 46.1555 38.7182 47.855C38.7828 48.1855 38.8273 48.4999 38.8488 48.7954L38.8639 49.0984C38.8811 49.9994 38.6722 50.6491 38.2674 51.0526C37.8627 51.4558 37.2104 51.6607 36.3053 51.6464C35.26 51.6263 33.9407 51.3006 32.4953 50.6926C32.2616 50.5937 32.024 50.4897 31.7876 50.3791L31.6599 50.3191L31.6494 50.4601C31.6205 50.8789 31.5433 51.2639 31.415 51.6105L31.3834 51.6959L31.4676 51.7333C31.6305 51.8058 31.7991 51.8831 31.9648 51.9508L32.5644 52.1893C33.945 52.7124 35.194 52.9889 36.2813 53.0097C37.548 53.0332 38.5477 52.7045 39.235 52.0168L39.4754 51.7453C39.9987 51.0788 40.2493 50.1786 40.2311 49.0744V49.0729C40.2264 48.8692 40.21 48.6604 40.1876 48.446C41.5714 48.9413 42.8319 49.2172 43.942 49.2544C45.408 49.3046 46.5587 48.9413 47.3434 48.1596C48.1282 47.3777 48.4936 46.231 48.4433 44.7701C48.4194 44.0574 48.2967 43.2872 48.0811 42.4605L48.0631 42.3871H47.8768L47.8724 42.3887C47.5119 42.3818 47.1368 42.3492 46.747 42.2896L46.5968 42.2657L46.6388 42.4126C46.8984 43.2984 47.0454 44.1111 47.0685 44.8166C47.1062 45.9107 46.8622 46.7033 46.3699 47.1967C45.8748 47.6901 45.0797 47.9315 43.9811 47.8941C42.843 47.857 41.4362 47.5037 39.8871 46.8743C39.7108 46.2115 39.4693 45.5102 39.1584 44.7732C37.7499 41.4385 35.1228 37.757 31.7636 34.4102C28.404 31.0631 24.7111 28.4451 21.3609 27.042C20.568 26.7101 19.8183 26.4569 19.1088 26.2801C18.8721 26.2212 18.6381 26.1699 18.4132 26.1286ZM18.4132 26.1286L18.4117 26.1301M15.6563 37.1487C15.5142 37.1857 15.3953 37.2357 15.3017 37.3001L15.2056 37.3795C15.0663 37.5203 14.9687 37.7359 14.9261 38.032L14.9021 38.3559C14.8935 38.9642 15.0661 39.7377 15.4039 40.5965C16.1752 42.5504 17.6856 44.7134 19.6647 46.6853C21.6442 48.6547 23.8164 50.1626 25.778 50.9311C26.6396 51.2674 27.4151 51.4389 28.0256 51.4305C28.4953 51.4247 28.817 51.3161 29.0051 51.129L29.0067 51.1275C29.136 51.0011 29.2245 50.8039 29.2725 50.5366L29.292 50.4016C29.3008 50.3203 29.3087 50.2411 29.3087 50.1572C29.3087 50.009 29.3004 49.8542 29.2831 49.6908V49.6893L29.1959 49.1719C29.1122 48.7832 28.9828 48.3612 28.8084 47.9151C28.0371 45.9609 26.5254 43.7968 24.546 41.8248C22.5667 39.8558 20.3955 38.3473 18.4342 37.579L18.3726 37.555V37.5521C17.9976 37.4074 17.6403 37.2996 17.3059 37.2205C18.6677 39.3601 20.4436 41.5489 22.5193 43.6169C24.01 45.1021 25.5626 46.4357 27.1151 47.5717L27.7807 48.0456L27.8032 48.0605L27.8137 48.086C27.8389 48.1416 27.8704 48.2067 27.8949 48.2675C28.1289 48.8548 28.2718 49.4023 28.314 49.8467L28.3336 50.0447L28.1653 49.9382C25.9438 48.5281 23.6831 46.7017 21.5547 44.5812C19.1556 42.191 17.1306 39.6302 15.6563 37.1487Z" stroke="black" stroke-width="0.1264"/>
</svg>
