<svg width="66" height="66" viewBox="0 0 66 66" fill="none" xmlns="http://www.w3.org/2000/svg">
<circle cx="32.9183" cy="32.9183" r="32.9183" fill="#F5F5F5"/>
<g clip-path="url(#clip0_336_2)">
<path fill-rule="evenodd" clip-rule="evenodd" d="M39.1622 23.274C40.6487 23.274 41.8649 24.5068 41.8649 26.0137V39.9863C41.8649 41.4931 40.6487 42.726 39.1622 42.726C37.6757 42.726 36.4595 41.4931 36.4595 39.9863V26.0137C36.4595 24.5068 37.6757 23.274 39.1622 23.274Z" fill="#007AFF"/>
<path fill-rule="evenodd" clip-rule="evenodd" d="M31.5945 23.274C33.081 23.274 34.2973 24.5068 34.2973 26.0137V39.9863C34.2973 41.4931 33.081 42.726 31.5945 42.726C30.1081 42.726 28.8918 41.4931 28.8918 39.9863V26.0137C28.8918 24.5068 30.1081 23.274 31.5945 23.274Z" fill="#007AFF"/>
<path fill-rule="evenodd" clip-rule="evenodd" d="M46.7297 29.5753C48.2162 29.5753 49.4324 30.8082 49.4324 32.3151V33.9589C49.4324 35.4658 48.2162 36.6986 46.7297 36.6986C45.2432 36.6986 44.027 35.4658 44.027 33.9589V32.3151C44.027 30.8082 45.2432 29.5753 46.7297 29.5753Z" fill="#007AFF"/>
<path fill-rule="evenodd" clip-rule="evenodd" d="M54.2973 26.8356C55.7838 26.8356 57 28.0685 57 29.5753V36.4247C57 37.9315 55.7838 39.1644 54.2973 39.1644C52.8108 39.1644 51.5946 37.9315 51.5946 36.4247V29.5753C51.5946 28.0685 52.8108 26.8356 54.2973 26.8356Z" fill="#007AFF"/>
<path d="M16.8649 37.7397C19.4865 37.7397 21.6216 35.5753 21.6216 32.9178C21.6216 30.2603 19.4865 28.0959 16.8649 28.0959C14.2432 28.0959 12.1351 30.2877 12.1351 32.9452C12.1351 35.6027 14.2432 37.7397 16.8649 37.7397ZM16.8649 43C11.4054 43 7 38.5342 7 33C7 27.4658 11.4054 23 16.8649 23C22.3243 23 26.7297 27.4658 26.7297 33C26.7297 38.5342 22.3243 43 16.8649 43Z" fill="#007AFF"/>
</g>
<defs>
<clipPath id="clip0_336_2">
<rect width="50" height="20" fill="white" transform="translate(7 23)"/>
</clipPath>
</defs>
</svg>
