<svg width="66" height="66" viewBox="0 0 66 66" fill="none" xmlns="http://www.w3.org/2000/svg">
<circle cx="32.9183" cy="32.9183" r="32.9183" fill="#F5F5F5"/>
<path d="M13.8751 27.2329H19.6275V26H13.8751V27.2329ZM40.16 33.8375H36.1366V29.74H40.16C41.5935 29.74 42.5568 30.5635 42.5568 31.7888C42.5568 33.0142 41.5936 33.8375 40.16 33.8375ZM41.4927 34.7959C42.8729 34.4049 43.7647 33.2245 43.7647 31.7888C43.7647 29.9253 42.3161 28.6732 40.1599 28.6732H34.9291V39.6868H36.1366V34.921H40.2287L42.8345 39.6867H44.141L41.4244 34.8152L41.4927 34.7959ZM28.6587 39.8943C31.6201 39.8943 33.6883 37.828 33.6883 34.8692V28.6732H32.4472V34.7861C32.4472 37.0679 30.8893 38.6615 28.6587 38.6615C26.8098 38.6615 24.8199 37.4488 24.8199 34.7861V28.6732H23.579V34.8692C23.579 37.828 25.6677 39.8943 28.6587 39.8943ZM50.3291 30.1101L52.9465 35.7971H47.6949L50.3291 30.1101ZM49.7469 28.6733L44.6779 39.6869H45.9743L47.2279 36.8638H53.4133L54.6673 39.6869H55.9635L50.8947 28.6732L49.7469 28.6733ZM16.7524 28.4658C13.5805 28.4658 11 31.0292 11 34.18C11 37.3309 13.5805 39.8943 16.7524 39.8943C19.9245 39.8943 22.505 37.3309 22.505 34.18C22.505 31.0292 19.9245 28.4658 16.7524 28.4658ZM16.7524 38.6614C14.2648 38.6614 12.241 36.651 12.241 34.18C12.241 31.7089 14.2649 29.6986 16.7525 29.6986C19.2401 29.6986 21.2641 31.7089 21.2641 34.18C21.2641 36.651 19.2401 38.6614 16.7524 38.6614Z" fill="black"/>
</svg>
