<svg width="66" height="66" viewBox="0 0 66 66" fill="none" xmlns="http://www.w3.org/2000/svg">
<circle cx="32.9183" cy="32.9183" r="32.9183" fill="#F5F5F5"/>
<path d="M29 41.6842C29 42.9625 30.0667 44 31.381 44H51.619C52.9333 44 54 42.9625 54 41.6842V24.3158C54 23.0375 52.9333 22 51.619 22H31.381C30.0667 22 29 23.0375 29 24.3158V41.6842Z" fill="#03A9F4"/>
<path d="M54 25.5528V24.3804C54 23.8658 53.8415 23.3908 53.5753 23L40.5402 31.3354L31.8124 25.7368L31 27.9878L40.789 34L54 25.5528Z" fill="#B3E5FC"/>
<path d="M36 54L12 49.3333V16.6667L36 12V54Z" fill="#0277BD"/>
<path d="M29.9766 27.1639C28.6325 25.7217 26.86 25 24.6787 25C22.3627 25 20.507 25.7567 19.1042 27.2657C17.7039 28.778 17 30.7586 17 33.1996C17 35.5128 17.6904 37.4007 19.0687 38.8395C20.447 40.2795 22.2416 41 24.4278 41C26.6801 41 28.5052 40.2625 29.9044 38.766C31.3035 37.2808 32 35.3239 32 32.8852C32 30.5234 31.3255 28.6163 29.9766 27.1639ZM27.324 36.6926C26.6287 37.5625 25.6849 37.9957 24.4927 37.9957C23.3432 37.9957 22.4129 37.55 21.6956 36.653C20.9844 35.7651 20.6307 34.548 20.6307 33.0209C20.6307 31.5097 20.9844 30.2903 21.6956 29.373C22.4129 28.4568 23.3702 28.0032 24.5783 28.0032C25.7559 28.0032 26.6813 28.4477 27.3534 29.3357C28.0327 30.2349 28.373 31.4792 28.373 33.0797C28.3742 34.6238 28.0205 35.825 27.324 36.6926Z" fill="white"/>
</svg>
