<svg width="66" height="66" viewBox="0 0 66 66" fill="none" xmlns="http://www.w3.org/2000/svg">
<circle cx="32.9183" cy="32.9183" r="32.9183" fill="#F5F5F5"/>
<path d="M38.3333 51.8957V53.0476C38.3333 54.6782 37.0275 56 35.4167 56C34.9158 56 34.4233 55.8694 33.9867 55.6208L16.4867 45.6564C15.5683 45.1335 15 44.1498 15 43.0832V22.9173C15 21.8507 15.5683 20.867 16.4867 20.3441L33.9867 10.3797C35.3907 9.58028 37.169 10.0843 37.9588 11.5055C38.2043 11.9474 38.3333 12.4459 38.3333 12.9529V14.1048L40.4119 13.4736C41.9548 13.0051 43.5808 13.8913 44.0437 15.4531C44.1252 15.7284 44.1667 16.0142 44.1667 16.3015V17.5001L46.7216 17.1768C48.32 16.9746 49.7777 18.1223 49.9775 19.7402C49.9925 19.8617 50 19.984 50 20.1064V45.8941C50 47.5247 48.6942 48.8465 47.0833 48.8465C46.9624 48.8465 46.8416 48.8389 46.7216 48.8237L44.1667 48.5004V49.699C44.1667 51.3296 42.8608 52.6514 41.25 52.6514C40.9661 52.6514 40.6838 52.6095 40.4119 52.5269L38.3333 51.8957ZM38.3333 48.8133L41.25 49.699V16.3015L38.3333 17.1872V48.8133ZM44.1667 20.4755V45.525L47.0833 45.8941V20.1064L44.1667 20.4755ZM17.9167 22.9173V43.0832L35.4167 53.0476V12.9529L17.9167 22.9173ZM20.8333 24.8811L23.75 23.4049V42.5956L20.8333 41.1194V24.8811Z" fill="black"/>
</svg>
