<svg width="66" height="66" viewBox="0 0 66 66" fill="none" xmlns="http://www.w3.org/2000/svg">
<circle cx="32.9183" cy="32.9183" r="32.9183" fill="#F5F5F5"/>
<path d="M37 21H52.4413C53.3019 21 54 21.7167 54 22.6004V43.3996C54 44.2833 53.3019 45 52.4413 45H37V21Z" fill="#1976D2"/>
<path d="M52 27H37V43H52V27Z" fill="white"/>
<path d="M36 54L12 49.275V16.725L36 12V54Z" fill="#1976D2"/>
<path d="M24 25C20.6859 25 18 28.5819 18 33C18 37.4181 20.6859 41 24 41C27.3141 41 30 37.4181 30 33C30 28.5819 27.3141 25 24 25ZM23.7391 37.8C22.0101 37.8 20.6087 35.6507 20.6087 33C20.6087 30.3493 22.0101 28.2 23.7391 28.2C25.4682 28.2 26.8696 30.3493 26.8696 33C26.8696 35.6507 25.4682 37.8 23.7391 37.8Z" fill="white"/>
<path d="M40 39H37V42H40V39Z" fill="#1976D2"/>
<path d="M44 39H41V42H44V39Z" fill="#1976D2"/>
<path d="M47 39H44V42H47V39Z" fill="#1976D2"/>
<path d="M40 35H37V38H40V35Z" fill="#1976D2"/>
<path d="M44 35H41V38H44V35Z" fill="#1976D2"/>
<path d="M47 35H44V38H47V35Z" fill="#1976D2"/>
<path d="M51 35H48V38H51V35Z" fill="#1976D2"/>
<path d="M40 32H37V35H40V32Z" fill="#1976D2"/>
<path d="M44 32H41V35H44V32Z" fill="#1976D2"/>
<path d="M47 32H44V35H47V32Z" fill="#1976D2"/>
<path d="M51 32H48V35H51V32Z" fill="#1976D2"/>
<path d="M44 28H41V31H44V28Z" fill="#1976D2"/>
<path d="M47 28H44V31H47V28Z" fill="#1976D2"/>
<path d="M51 28H48V31H51V28Z" fill="#1976D2"/>
</svg>
