<svg width="66" height="66" viewBox="0 0 66 66" fill="none" xmlns="http://www.w3.org/2000/svg">
<circle cx="32.9183" cy="32.9183" r="32.9183" fill="#F5F5F5"/>
<g clip-path="url(#clip0_70_15)">
<path d="M12 12H54V54H12V12Z" fill="#248567"/>
<path fill-rule="evenodd" clip-rule="evenodd" d="M42.8 27.386L42.688 27.442C41.792 26.7 40.63 26.224 39.146 26.224C37.242 26.224 35.492 26.91 34.33 28.296L36.136 30.214C37.032 29.36 37.984 28.884 39.202 28.884C41.484 28.94 42.954 30.69 42.954 33.042C42.954 35.394 41.414 37.2 39.09 37.2C33.266 37.2 34.904 26.238 27.078 26.238C23.158 26.238 20.414 29.164 20.414 33.056V44.928H23.214V38.586L23.326 38.53C24.222 39.272 25.384 39.748 26.868 39.748C28.772 39.748 30.522 39.062 31.684 37.676L29.878 35.758C28.982 36.612 28.03 37.088 26.812 37.088C24.53 37.032 23.06 35.282 23.06 32.93C23.06 30.578 24.6 28.772 26.924 28.772C32.748 28.772 31.11 39.734 38.936 39.734C42.856 39.734 45.6 36.808 45.6 32.916V21.1H42.8V27.386Z" fill="white"/>
</g>
<defs>
<clipPath id="clip0_70_15">
<rect width="42" height="42" fill="white" transform="translate(12 12)"/>
</clipPath>
</defs>
</svg>
