<svg width="66" height="66" viewBox="0 0 66 66" fill="none" xmlns="http://www.w3.org/2000/svg">
<ellipse cx="32.9183" cy="33" rx="32.9183" ry="33" fill="#F5F5F5"/>
<path d="M38.6755 11C38.6156 11.057 38.5558 11.1103 38.5045 11.171L32.9795 17.0392H47.434C44.9204 14.4155 41.9419 12.3618 38.6755 11Z" fill="black"/>
<path d="M53 26.6007C51.8191 23.0139 49.9189 19.7502 47.434 17.041V32.5866L53 26.6007Z" fill="black"/>
<path d="M27.4527 11.057C24.1022 12.323 21.0515 14.3653 18.5164 17.0392H32.9794L27.4527 11.057Z" fill="black"/>
<path d="M38.6755 54.2172C38.6156 54.1602 38.5558 54.1069 38.5045 54.0462L32.9795 48.1357H47.434C44.9212 50.7673 41.943 52.8303 38.6755 54.2025" fill="black"/>
<path d="M27.4527 54.1418C24.1004 52.8683 21.0496 50.8179 18.5164 48.1357H32.9794L27.4527 54.1418Z" fill="black"/>
<path d="M53 38.4731C51.8196 42.0905 49.9202 45.3878 47.434 48.1358V32.5884L53 38.4731Z" fill="black"/>
<path d="M13 26.6007C14.1622 23.0166 16.0458 19.7525 18.5164 17.041V32.5902L13 26.6007Z" fill="black"/>
<path d="M13 38.4731C14.197 42.0874 16.0575 45.4719 18.5164 48.1431V32.5884L13 38.4731Z" fill="black"/>
<path d="M32.9794 43.3559C27.5588 43.3559 23.1641 38.2378 23.1641 32.4101C23.1641 29.6114 24.1982 26.9273 26.0389 24.9484C27.8797 22.9694 30.3762 21.8576 32.9794 21.8576C35.5826 21.8576 38.0792 22.9694 39.9199 24.9484C41.7606 26.9273 42.7947 29.6114 42.7947 32.4101C42.7947 38.2378 38.4001 43.3559 32.9794 43.3559ZM18.5164 32.5902L32.9794 48.1358L47.4442 32.5847L32.9794 17.0392L18.5164 32.5902Z" fill="black"/>
</svg>
