<svg width="66" height="66" viewBox="0 0 66 66" fill="none" xmlns="http://www.w3.org/2000/svg">
<circle cx="32.9183" cy="32.9183" r="32.9183" fill="#F5F5F5"/>
<g clip-path="url(#clip0_249_69)">
<path d="M54.5191 27.6084H42.1897C42.2226 27.8024 42.2497 27.9993 42.2766 28.1963H22.6635C22.6275 28.456 22.5915 28.7186 22.5616 28.9783H10.1573C10.0974 29.3662 10.0435 29.7572 10.0015 30.1542H22.4477C22.4267 30.4137 22.4117 30.6764 22.3968 30.936H42.5433C42.5522 31.1301 42.5612 31.327 42.5672 31.524H54.9985V30.8973C54.9176 29.7751 54.7587 28.6768 54.5191 27.6084Z" fill="black"/>
<path d="M42.5433 34.0668H22.3968C22.4087 34.3295 22.4267 34.5891 22.4477 34.8488H10.0015C10.0435 35.2427 10.0944 35.6337 10.1573 36.0247H22.5616C22.5915 36.2873 22.6245 36.547 22.6635 36.8066H42.2766C42.2497 37.0036 42.2197 37.1975 42.1897 37.3945H54.5191C54.7587 36.3261 54.9176 35.2278 54.9985 34.1056V33.4789H42.5672C42.5612 33.6758 42.5522 33.8699 42.5433 34.0668Z" fill="black"/>
<path d="M41.6564 39.9403H23.2777C23.3436 40.2029 23.4156 40.4626 23.4874 40.7222H11.4367C11.5925 41.1192 11.7603 41.5101 11.9371 41.8981H23.844C23.9309 42.1608 24.0178 42.4204 24.1106 42.6801H40.8175C40.7456 42.877 40.6737 43.071 40.5987 43.268H52.3049C52.9851 42.0294 53.5483 40.7192 53.9858 39.3524H41.7942C41.7493 39.5493 41.7014 39.7433 41.6534 39.9403H41.6564Z" fill="black"/>
<path d="M39.4961 45.8137H25.4409C25.5698 46.0764 25.7046 46.339 25.8424 46.5957H14.8643C15.1909 46.9986 15.5295 47.3896 15.8801 47.7716H26.4956C26.6514 48.0342 26.8102 48.2969 26.972 48.5535H37.9681C37.8452 48.7505 37.7194 48.9475 37.5906 49.1415H47.6787C48.9641 47.9745 50.1117 46.6584 51.1004 45.2258H39.7778C39.6849 45.4228 39.595 45.6198 39.4991 45.8137H39.4961Z" fill="black"/>
<path d="M35.709 51.6842H29.2281C29.4469 51.9499 29.6686 52.2095 29.8963 52.4662H22.0552C25.1533 54.0719 28.6708 54.991 32.4011 55C32.4251 55 32.446 55 32.467 55C32.488 55 32.512 55 32.533 55C37.225 54.9851 41.5815 53.5466 45.1859 51.0933H36.1763C36.0206 51.2904 35.8647 51.4873 35.7059 51.6813L35.709 51.6842Z" fill="black"/>
<path d="M29.2282 13.3188H35.709C35.8678 13.5127 36.0236 13.7097 36.1794 13.9067H45.1889C41.5815 11.4535 37.228 10.0149 32.536 10C32.512 10 32.491 10 32.4701 10C32.4491 10 32.4251 10 32.4042 10C28.6709 10.0119 25.1564 10.9282 22.0583 12.5338H29.8994C29.6717 12.7905 29.4499 13.0531 29.2312 13.3158L29.2282 13.3188Z" fill="black"/>
<path d="M25.441 19.1922H39.4962C39.5921 19.3862 39.6849 19.5832 39.7748 19.7801H51.0975C50.1087 18.3476 48.9612 17.0315 47.6758 15.8645H37.5876C37.7165 16.0585 37.8423 16.2555 37.9651 16.4525H26.969C26.8073 16.7122 26.6485 16.9718 26.4926 17.2344H15.8771C15.5235 17.6134 15.185 18.0044 14.8614 18.4103H25.8395C25.7017 18.6699 25.5699 18.9296 25.438 19.1922H25.441Z" fill="black"/>
<path d="M23.2807 25.0626H41.6594C41.7073 25.2566 41.7553 25.4535 41.8002 25.6506H53.9917C53.5543 24.2836 52.991 22.9735 52.3109 21.7349H40.6047C40.6796 21.9289 40.7515 22.1258 40.8235 22.3229H24.1166C24.0237 22.5825 23.9338 22.8422 23.8499 23.1048H11.9431C11.7662 23.4898 11.5985 23.8808 11.4427 24.2806H23.4934C23.4215 24.5403 23.3496 24.7999 23.2837 25.0626H23.2807Z" fill="black"/>
</g>
<defs>
<clipPath id="clip0_249_69">
<rect width="45" height="45" fill="white" transform="translate(10 10)"/>
</clipPath>
</defs>
</svg>
