<svg width="66" height="66" viewBox="0 0 66 66" fill="none" xmlns="http://www.w3.org/2000/svg">
<circle cx="32.9183" cy="32.9183" r="32.9183" fill="#F5F5F5"/>
<svg x="13" y="13" width="40" height="40" viewBox="0 0 954 954" fill="none">
<g transform="translate(64.5,0)">
<path d="M0,0 L6,1 L32,16 L58,31 L84,46 L110,61 L136,76 L162,91 L166,95 L157,101 L139,111 L115,125 L89,140 L63,155 L37,170 L20,180 L19,656 L14,654 L-14,638 L-40,623 L-66,608 L-92,593 L-118,578 L-144,563 L-145,562 L-145,84 L-128,74 L-102,59 L-76,44 L-50,29 L-24,14 Z" transform="translate(145,154)" fill="#004160"/>
<path d="M0,0 L2,0 L2,188 L-15,198 L-41,213 L-67,228 L-93,243 L-119,258 L-143,272 L-171,288 L-195,302 L-221,317 L-247,332 L-273,347 L-299,362 L-325,377 L-351,392 L-377,407 L-403,422 L-411,426 L-436,412 L-453,402 L-479,387 L-505,372 L-531,357 L-555,343 L-558,341 L-558,151 L-553,153 L-528,167 L-504,181 L-478,196 L-452,211 L-426,226 L-411,235 L-396,227 L-372,213 L-347,199 L-330,189 L-302,173 L-274,157 L-246,141 L-218,125 L-190,109 L-162,93 L-136,78 L-108,62 L-80,46 L-52,30 L-24,14 Z" transform="translate(823,528)" fill="#004160"/>
<path d="M0,0 L12,6 L36,20 L62,35 L88,50 L114,65 L140,80 L166,95 L190,109 L218,125 L242,139 L268,154 L294,169 L320,184 L346,199 L372,214 L398,229 L413,238 L413,410 L388,424 L371,434 L345,449 L319,464 L293,479 L267,494 L250,504 L249,504 L248,334 L220,317 L188,298 L160,281 L135,266 L107,249 L75,230 L47,213 L15,194 L-13,177 L-41,160 L-73,141 L-101,124 L-133,105 L-154,92 L-154,89 L-130,75 L-104,60 L-78,45 L-52,30 L-26,15 Z" transform="translate(412,0)" fill="#004160"/>
<path d="M0,0 L5,1 L31,16 L57,31 L83,46 L109,61 L135,76 L149,84 L149,256 L124,270 L107,280 L81,295 L55,310 L29,325 L3,340 L-2,339 L-28,324 L-54,309 L-80,294 L-106,279 L-132,264 L-146,256 L-146,84 L-121,70 L-97,56 L-71,41 L-45,26 L-19,11 Z" transform="translate(411,307)" fill="#0084C5"/>
<path d="M0,0 L5,2 L30,16 L54,30 L80,45 L106,60 L132,75 L147,84 L148,85 L148,275 L136,269 L112,255 L86,240 L60,225 L34,210 L8,195 L0,190 Z" transform="translate(265,679)" fill="#0084C5"/>
<path d="M0,0 L6,1 L32,16 L58,31 L84,46 L110,61 L136,76 L162,91 L166,95 L157,101 L139,111 L115,125 L89,140 L63,155 L37,170 L20,180 L8,174 L-16,160 L-42,145 L-68,130 L-94,115 L-120,100 L-144,86 L-144,83 L-119,69 L-102,59 L-76,44 L-50,29 L-24,14 Z" transform="translate(145,154)" fill="#0084C5"/>
<path d="M0,0 L1,0 L1,171 L-24,185 L-41,195 L-67,210 L-93,225 L-119,240 L-145,255 L-162,265 L-163,265 L-163,94 L-137,79 L-111,64 L-85,49 L-59,34 L-35,20 L-7,4 Z" transform="translate(824,239)" fill="#0084C5"/>
</g>
</svg>
</svg>
