<svg width="66" height="66" viewBox="0 0 66 66" fill="none" xmlns="http://www.w3.org/2000/svg">
<circle cx="32.9183" cy="32.9183" r="32.9183" fill="#F5F5F5"/>
<path d="M25.5002 30C23.9436 29.9986 22.4062 30.3347 21 30.9839V32.4314C21.0002 36.1984 22.5001 39.8194 25.1854 42.5351C27.8707 45.251 31.533 46.851 35.4049 47C35.8001 45.9085 36.0012 44.7597 36 43.6028V40.2077C36 37.5005 34.8939 34.9041 32.9247 32.9897C30.9557 31.0755 28.285 30 25.5002 30Z" fill="#B6BCF7"/>
<path d="M36 12C34.03 12 32.0793 12.3881 30.2593 13.1422C28.4393 13.8963 26.7856 15.0016 25.3927 16.3949C23.9998 17.7883 22.8949 19.4424 22.1412 21.2628C21.3875 23.0833 20.9997 25.0344 21 27.0047V30.5164C22.6006 29.7576 24.367 29.416 26.135 29.5234C27.903 29.6309 29.6151 30.1838 31.112 31.1308C32.609 32.0778 33.8421 33.3881 34.6967 34.9398C35.5514 36.4915 35.9998 38.2342 36 40.0058V43.4988C36.0004 44.6862 35.799 45.8652 35.4049 46.9855C35.6122 46.9855 35.8009 47 36 47C39.9784 47 43.7936 45.4195 46.6066 42.6058C49.4197 39.7924 51 35.9763 51 31.9973V27.0047C51.0004 25.0344 50.6126 23.0833 49.859 21.2628C49.1051 19.4424 48.0004 17.7883 46.6074 16.3949C45.2144 15.0016 43.5607 13.8963 41.7407 13.1422C39.9207 12.3881 37.9701 12 36 12Z" fill="#434EE1"/>
<path d="M21.1762 32.4588V31C19.3284 31.8343 17.7672 33.1506 16.6739 34.7959C15.5807 36.4412 15.0002 38.3481 15 40.2951V43.7165C15.0012 46.1438 15.904 48.4926 17.5486 50.3478C19.1933 52.2027 21.474 53.4443 23.9874 53.853C26.5009 54.2618 29.0852 53.8114 31.2835 52.5814C33.4817 51.3514 35.1524 49.4211 36 47.1318C32.017 46.9816 28.2495 45.3703 25.4863 42.6352C22.7231 39.9002 21.1786 36.2535 21.1762 32.4588Z" fill="#0A1567"/>
</svg>
