<svg width="66" height="66" viewBox="0 0 66 66" fill="none" xmlns="http://www.w3.org/2000/svg">
<circle cx="32.9183" cy="32.9183" r="32.9183" fill="#F5F5F5"/>
<path d="M47.2411 15H17.8009C16.8613 15 16 15.8671 16 16.8919V20.2027C16 21.2275 16.8613 22.0946 17.8009 22.0946H47.2411C48.259 22.0946 49.042 21.2275 49.1203 20.2027V16.8919C49.1203 15.8671 48.259 15 47.2411 15ZM47.2411 33.6036H17.8009C17.3311 33.6036 16.8613 33.8401 16.4698 34.1554C16.1566 34.4707 16 34.9437 16 35.4955V38.8063C16 39.8311 16.8613 40.6982 17.8009 40.6982H47.2411C48.259 40.6982 49.042 39.9099 49.1203 38.8063V35.4955C49.1203 34.3919 48.259 33.6036 47.2411 33.6036ZM34.4002 42.9054H17.8009C17.3311 42.9054 16.8613 43.0631 16.5481 43.4572C16.2349 43.7725 16 44.2455 16 44.7973V48.1081C16 49.1329 16.8613 50 17.8009 50H34.3219C35.3398 50 36.1227 49.1329 36.1227 48.1081V44.7185C36.201 43.6937 35.4181 42.9054 34.4002 42.9054ZM49.1203 24.3018H17.8009C17.3311 24.3018 16.8613 24.4595 16.5481 24.8536C16.2349 25.1689 16 25.6419 16 26.1937V29.5045C16 30.5293 16.8613 31.3964 17.8009 31.3964H49.042C50.0599 31.3964 50.8429 30.5293 50.8429 29.5045V26.1937C50.9212 25.1689 50.1382 24.3018 49.1203 24.3018Z" fill="#00C3F7"/>
</svg>
