<svg width="62" height="62" viewBox="0 0 62 62" fill="none" xmlns="http://www.w3.org/2000/svg">
<circle cx="31" cy="31" r="31" fill="#F5F5F5"/>
<path fill-rule="evenodd" clip-rule="evenodd" d="M53.9455 37.6489L52.5199 26.7816C52.4797 26.4814 52.3392 26.2013 52.1384 25.9811L43.1633 16.5148C42.9625 16.2947 42.6814 16.1346 42.3602 16.0745L22.1412 12.0318C21.6593 11.9318 21.1774 12.0719 20.816 12.3921L9.47163 22.6789C9.07006 23.0392 8.90944 23.5795 9.04999 24.0798L11.7606 34.4667C11.9011 35.0071 12.3429 35.4074 12.9051 35.5275L17.3424 36.4281L22.4223 39.35H22.4624L27.8234 42.2519L34.5095 51.398C34.8709 51.8783 35.4733 52.0985 36.0756 51.9584L39.7299 51.0978C40.3724 50.9377 40.8342 50.3973 40.8744 49.7569L40.9948 46.7349L53.323 39.0098C53.8049 38.7096 54.0659 38.1692 53.9856 37.6288L53.9455 37.6489ZM49.6286 27.5822L50.5723 34.827L32.4816 22.9191L41.6574 19.1966L49.6085 27.5822H49.6286ZM23.0246 15.1339L37.0795 17.9558L28.8273 21.298H28.8072L21.2577 24.5201L23.0447 15.1139L23.0246 15.1339ZM14.4109 32.8857L12.1421 24.1799L19.551 17.4554L17.8042 26.6816C17.6837 27.282 17.9849 27.9024 18.5471 28.2026L32.1001 35.5675L18.1656 33.6262L14.431 32.8657L14.4109 32.8857ZM36.3366 48.9564L30.0521 40.3306C29.9316 40.1505 29.7509 40.0104 29.5702 39.9104L25.173 37.5288L38.224 39.35L38.0232 45.8943L37.9228 48.5761L36.3366 48.9364V48.9564ZM46.3357 39.9704L41.0752 43.2526L41.2358 38.1492C41.2358 37.6088 40.9547 37.1085 40.4728 36.8483L22.5829 27.1019L29.2289 24.26L49.7892 37.789L46.3357 39.9504V39.9704Z" fill="#5D44E7"/>
</svg>
