<svg width="66" height="66" viewBox="0 0 66 66" fill="none" xmlns="http://www.w3.org/2000/svg">
<circle cx="32.9183" cy="32.9183" r="32.9183" fill="#F5F5F5"/>
<path d="M44.896 17.3465C46.854 17.3682 48.464 18.9346 48.5075 20.8927C48.551 22.8942 46.9628 24.5259 44.9613 24.5694H44.896C42.938 24.5477 41.328 22.9813 41.2845 21.0232C41.241 19.0217 42.8292 17.39 44.8307 17.3465H44.896ZM44.896 13.8438H44.7437C40.8059 13.9308 37.6948 17.1942 37.8035 21.132C37.8906 24.9828 41.0234 28.0504 44.8742 28.0722H45.0265C48.9644 27.8764 51.9884 24.5477 51.7926 20.6316C51.6186 16.9113 48.6163 13.9525 44.896 13.8438Z" fill="#6656FF"/>
<path d="M50.2257 12.8384L51.9009 11.1632C52.1184 10.9456 52.4883 10.9456 52.7058 11.1632L54.3811 12.8384C54.5986 13.0559 54.5986 13.4258 54.3811 13.6434L52.7058 15.3186C52.4883 15.5361 52.1184 15.5361 51.9009 15.3186L50.2257 13.6434C50.0081 13.4258 50.0081 13.0559 50.2257 12.8384Z" fill="#6656FF"/>
<path d="M22.9423 16.8855C24.9439 16.8855 26.5538 18.4955 26.5538 20.497C26.5538 22.4986 24.9439 24.1085 22.9423 24.1085C20.9408 24.1085 19.3308 22.4986 19.3308 20.497C19.3308 18.5172 20.9408 16.8855 22.9423 16.8855ZM22.9423 13.3828C19.0045 13.3828 15.8281 16.5592 15.8281 20.497C15.8281 24.4348 19.0045 27.6112 22.9423 27.6112C26.8802 27.6112 30.0565 24.4348 30.0565 20.497C30.0565 16.5809 26.8802 13.3828 22.9423 13.3828Z" fill="#06001C"/>
<path d="M29.1445 34.7918L18.3535 48.6721L14.9161 34.7918H29.1445ZM32.1468 31.2891H13.0451C11.9138 31.2891 11 32.2028 11 33.3341C11 33.5082 11.0218 33.6605 11.0653 33.8128L15.6775 52.4359C15.8951 53.3496 16.7218 54.0023 17.6573 53.9805C18.2883 53.9805 18.8757 53.6977 19.2673 53.1973L33.7567 34.5742C34.4529 33.6822 34.2789 32.3986 33.3869 31.7024C33.0388 31.4414 32.6037 31.2891 32.1468 31.2891Z" fill="#06001C"/>
<path d="M43.8079 36.5506L47.2889 50.4745H32.8647L43.8079 36.5506ZM44.5041 31.2422C43.8732 31.2422 43.2858 31.525 42.9159 32.0254L28.2741 50.692C27.5779 51.584 27.7302 52.8676 28.6222 53.5638C28.9703 53.8466 29.4272 53.9989 29.8841 53.9989H49.2034C50.3347 53.9989 51.2484 53.0852 51.2484 51.9539C51.2484 51.7798 51.2267 51.6275 51.1832 51.4535L46.5274 32.7869C46.2663 31.8731 45.4396 31.2422 44.5041 31.2422Z" fill="#6656FF"/>
</svg>
