<svg width="66" height="66" viewBox="0 0 66 66" fill="none" xmlns="http://www.w3.org/2000/svg">
<circle cx="32.9183" cy="32.9183" r="32.9183" fill="#F5F5F5"/>
<path d="M49.9948 49.8533V52.2129C49.9948 53.3578 49.3306 54 48.1321 54H17.8627C16.6693 54 16 53.3627 16 52.2129V49.8533C16 48.7084 16.6641 48.0662 17.8627 48.0662H48.1373C49.3306 48.0662 50 48.7034 50 49.8533H49.9948ZM47.9298 32.0021L40.0382 27.6315C39.7787 27.4871 39.7787 27.1337 40.0382 26.9893L47.9298 22.6187C48.8223 22.1258 49.1231 21.0307 48.6095 20.1794L47.3799 18.1385C46.8663 17.2822 45.7299 16.9935 44.8376 17.4863L36.9458 21.857C36.6865 22.0014 36.3647 21.8222 36.3647 21.5384V12.7871C36.3647 11.8015 35.5294 11 34.5021 11H32.0427C31.0154 11 30.1801 11.8015 30.1801 12.7871V21.5335C30.1801 21.8172 29.8584 21.9964 29.599 21.852L21.7073 17.4813C20.8149 16.9885 19.6786 17.2822 19.165 18.1335L17.9353 20.1745C17.4216 21.0307 17.7278 22.1209 18.615 22.6137L26.5067 26.9843C26.7661 27.1287 26.7661 27.4822 26.5067 27.6265L18.615 31.9971C17.7226 32.49 17.4216 33.5802 17.9353 34.4365L19.165 36.4773C19.6786 37.3336 20.8149 37.6224 21.7073 37.1295L29.599 32.7588C29.8584 32.6144 30.1801 32.7937 30.1801 33.0774V41.8238C30.1801 42.8095 31.0154 43.6109 32.0427 43.6109H34.5021C35.5294 43.6109 36.3647 42.8095 36.3647 41.8238V33.0774C36.3647 32.7937 36.6865 32.6144 36.9458 32.7588L44.8376 37.1295C45.7299 37.6224 46.8663 37.3286 47.3799 36.4773L48.6095 34.4365C49.1231 33.5802 48.8171 32.49 47.9298 31.9971V32.0021Z" fill="#7379FD"/>
</svg>
