<svg width="66" height="66" viewBox="0 0 66 66" fill="none" xmlns="http://www.w3.org/2000/svg">
<circle cx="32.9183" cy="32.9183" r="32.9183" fill="#F5F5F5"/>
<g clip-path="url(#clip0_72_2)">
<g style="mix-blend-mode:luminosity">
<path d="M59.9127 34.476C59.6954 33.3121 59.3967 32.6534 59.0559 31.8682C58.8385 31.3673 58.6376 30.8943 58.5707 30.5837C58.405 29.815 58.4862 28.8518 58.5246 28.5026H56.5191L56.1813 29.0556C55.4111 30.3164 53.7273 33.0749 53.7273 33.0749C52.7946 34.5164 51.6341 36.3099 49.9618 36.9883C49.6459 37.098 48.9778 37.3207 48.4488 36.697C47.9448 36.1028 47.9886 35.4612 47.9907 35.4341L47.9927 35.4055L47.994 35.3881L48.0065 35.3759L48.0271 35.3557C50.237 33.1983 52.3459 30.8307 53.3997 29.3237C54.6134 27.5882 55.2221 26.1598 55.6973 24.9572C55.9933 24.2077 56.6086 22.327 55.9318 21.0536C55.6489 20.5212 55.1697 20.1598 54.5824 20.036C54.4675 20.0118 54.3572 20 54.2456 20C53.0001 20 51.5242 21.6092 49.7337 24.9197C48.2434 27.6745 47.184 30.0405 46.5852 31.9522C46.2753 32.9412 46.0716 34.1944 46.0716 34.1944C46.0044 34.3186 44.7864 35.7633 43.5836 36.5827C43.181 36.8569 42.5878 37.196 41.7385 37.196C40.9693 37.196 40.2558 36.712 40.2555 36.7119C40.2559 36.7118 41.4915 36.0264 43.4831 34.0151C44.5594 32.928 45.0143 31.4427 44.6704 30.1387C44.1306 28.0947 42.2311 27.9358 41.6618 27.9358C40.0749 27.9408 38.7846 28.9995 38.162 29.9044C36.6608 32.0852 36.7264 33.871 36.9515 35.183C37.0244 35.6071 37.1573 36.0248 37.3463 36.4243L37.3651 36.4639C37.3649 36.464 34.9998 38.1676 33.5799 36.1969C33.035 35.4406 32.1947 33.8702 32.1946 33.8699L37.1447 28.5032H34.4843C32.7922 30.3064 31.2108 32.01 31.2105 32.0104C31.2104 32.01 30.0449 29.7132 29.4921 28.5026H27.3428C27.531 28.8846 27.7206 29.2789 27.9276 29.7092C28.61 31.1281 29.8121 33.518 29.8122 33.5182C29.8121 33.5184 29.2992 34.0693 29.299 34.0695C29.0276 34.3597 28.2012 35.2426 26.8721 36.0817C26.1296 36.5496 25.3501 36.8697 24.4892 37.0602C23.8157 37.2093 22.9484 37.2258 22.4262 37.0817C22.1276 36.9993 21.5651 36.717 21.5651 36.717C21.5653 36.7168 23.1204 35.7153 24.7997 34.0162C25.875 32.9282 26.33 31.4429 25.9871 30.1397C25.4471 28.0961 23.5477 27.9373 22.9783 27.9373C21.3918 27.9423 20.1012 29.0004 19.478 29.9051C17.977 32.0845 18.0427 33.8713 18.2678 35.1844C18.334 35.5704 18.5879 36.2965 18.5879 36.2965C17.4378 36.9202 16.3478 37.2925 15.0172 37.3416C14.9018 37.3459 14.4094 37.3478 14.2512 37.3392C14.2122 37.3371 14.0904 37.3203 14.0904 37.3203C14.0904 37.3203 14.3683 37.1371 14.4333 37.0915C16.0743 35.9396 16.7986 33.8692 16.8484 32.0426C16.8897 30.5357 16.5436 29.3183 15.8739 28.6151C15.4535 28.1732 14.8973 27.9446 14.2206 27.9358H14.192C12.9995 27.9358 11.6413 28.6713 10.6953 29.585C10.4737 29.7991 9.84633 30.525 9.84633 30.525L10.2356 28.5023H8.17604L5 45H7.06072L8.91875 35.345C9.32087 33.5288 9.93742 32.3777 11.1192 31.2327L11.1387 31.2155C11.4313 30.9602 11.766 30.7176 12.081 30.5325C12.6018 30.2264 13.0729 30.0711 13.4813 30.0711C13.7235 30.0711 13.9421 30.1266 14.1311 30.236C14.7999 30.6253 14.8813 31.571 14.9251 32.0791C15.0965 34.081 13.5938 35.438 13.4219 35.5862C12.9276 36.0114 12.412 36.2182 11.8455 36.2182C11.0871 36.2182 10.5186 35.9415 10.1996 35.7881C10.1875 35.8488 10.1076 36.2521 10.1076 36.2521C10.0286 36.6576 9.87575 37.4723 9.87575 37.4723C10.7018 38.1995 12.3489 39.0153 14.5218 39.1436C14.698 39.1542 14.8767 39.1595 15.0528 39.1595C16.6496 39.1595 18.2142 38.73 19.7032 37.8828L19.7313 37.8669L19.7555 37.8883C20.3208 38.389 20.8654 38.6333 21.0443 38.7135C22.0846 39.1801 23.2169 39.1513 23.328 39.1513C24.7024 39.1513 25.986 38.7438 26.3467 38.6189C28.6323 37.8275 29.9289 36.3475 30.417 35.7971L30.7892 35.3935L31.0255 35.8417C31.3378 36.4365 31.6918 37.1106 32.3158 37.8443C32.5749 38.149 33.5537 39.143 35.2733 39.143C36.9057 39.143 38.5849 38.0081 38.5849 38.0081C38.5852 38.0084 39.136 38.454 39.7305 38.7421C40.4753 39.1031 41.3433 39.1421 41.6819 39.1421C43.374 39.1421 44.7711 38.4944 46.2119 37.0418L46.2613 36.992C46.2614 36.9922 46.4708 37.5043 46.6511 37.7713C47.5781 39.1423 48.772 39.1467 49.1906 39.1467C49.5775 39.1467 50.2273 39.0778 50.7163 38.8834C52.9011 38.0146 54.5978 35.5971 55.4146 34.2335C55.4147 34.2333 56.0374 33.218 56.7735 31.6607L56.9378 31.3199C56.9378 31.3199 57.3303 32.2775 57.3304 32.2779C57.5562 32.8415 57.7667 33.4692 57.8669 33.8772C58.1435 34.9794 58.3288 35.9482 57.7905 36.6383C57.5279 36.9716 56.9868 37.33 56.4192 37.33C56.122 37.33 55.8417 37.2344 55.5863 37.0458C55.4895 36.9726 55.3891 36.8802 55.2869 36.7708C54.8695 37.3065 54.4367 37.7954 53.9993 38.2255C54.3752 38.5054 55.2531 39.1643 56.5677 39.1643C56.9678 39.1643 57.5374 39.0582 57.9095 38.8681C59.4237 38.0943 60.2878 36.485 59.9127 34.476ZM48.8977 31.4232L49.0463 31.0423C49.603 29.6153 50.4083 27.933 51.5083 25.8993C52.7803 23.5474 53.6261 22.6091 54.017 22.2592L54.1353 22.1534L54.2063 22.0899L54.2107 22.1857L54.2181 22.345C54.2396 22.8188 54.0904 23.5123 53.8191 24.2002C53.367 25.344 52.8348 26.5908 51.748 28.1449C51.2043 28.9218 50.3164 29.9961 49.2476 31.1697L48.9735 31.4711L48.8083 31.6527L48.8977 31.4232ZM20.6092 35.1232L20.5612 35.159C20.5612 35.159 20.4925 35.0152 20.4537 34.9012C20.2971 34.4399 20.2453 33.6851 20.3233 33.0736C20.461 32.0159 20.9183 31.3033 21.1087 31.0459C21.6767 30.2778 22.3278 29.8555 22.9346 29.7823C23.1456 29.7569 23.5085 29.7876 23.8238 30.0987C24.1205 30.3914 24.6439 31.4255 23.5151 32.675C23.171 33.0557 22.8649 33.3605 22.147 33.9702C21.6097 34.4287 20.7717 35.0112 20.6092 35.1232ZM39.2315 35.1427L39.1792 35.1786L39.1622 35.1169L39.1031 34.9014C38.9383 34.3003 38.8946 33.685 38.9733 33.0728C39.109 32.019 39.5676 31.3039 39.7584 31.0454C40.326 30.2773 40.9745 29.8287 41.5844 29.7825C41.624 29.7794 41.6656 29.7773 41.7085 29.7773C42.0053 29.7773 42.2556 29.8821 42.4735 30.0977C42.7701 30.3914 43.2926 31.427 42.1636 32.6748C41.819 33.0559 41.5129 33.3609 40.797 33.9706C40.2069 34.4731 39.2412 35.1361 39.2315 35.1427Z" fill="black"/>
</g>
</g>
<defs>
<clipPath id="clip0_72_2">
<rect width="55" height="25" fill="white" transform="translate(5 20)"/>
</clipPath>
</defs>
</svg>
