<svg width="66" height="66" viewBox="0 0 66 66" fill="none" xmlns="http://www.w3.org/2000/svg">
<circle cx="32.9183" cy="32.9183" r="32.9183" fill="#F5F5F5"/>
<path fill-rule="evenodd" clip-rule="evenodd" d="M33.475 54C31.9771 54 30.9612 53.3962 30.2195 52.9573C29.7267 52.6652 29.4364 52.5004 29.1659 52.5004C28.7897 52.5004 28.5137 52.5828 28.1321 52.6975C25.6704 53.5682 23.9575 52.4395 22.5296 50.8825C22.1318 50.4758 21.6821 50.0153 21.4026 49.9222C19.1451 49.2503 16.7747 47.7363 16.8392 45.0005V39.9569L13.6877 37.8696C12.9782 37.4099 12.4472 36.7215 12.1827 35.9185C11.69 34.4726 12.2221 32.7275 13.4404 31.7941C14.485 30.961 15.5564 30.9753 16.8392 31.0004C16.7962 27.6553 16.7138 24.1741 18.1471 21.0763C20.6411 15.0707 26.9156 11 33.475 11C40.0128 11 46.3105 15.0707 48.8045 21.0763C50.2378 24.1723 50.1554 27.6607 50.1124 31.0004C51.4096 30.9771 52.5025 30.9484 53.5596 31.7941C54.7779 32.7257 55.31 34.4726 54.8173 35.9185C54.5531 36.7221 54.022 37.4111 53.3123 37.8714L50.1124 39.9927V45.0005C50.0963 47.7363 48.1147 49.3184 45.4361 49.9544C45.2265 50.0135 44.7123 50.5457 44.4041 50.8628C42.9529 52.4574 41.2795 53.5628 38.7962 52.6975C38.42 52.5882 38.1226 52.5004 37.7642 52.5004C37.4955 52.5004 37.2088 52.6634 36.725 52.9537C35.9869 53.3962 34.9782 54 33.475 54Z" fill="#3A3837"/>
<path fill-rule="evenodd" clip-rule="evenodd" d="M50.7828 32.5H48.2306V27.6263C48.2306 19.5489 41.6264 13 33.4769 13C25.3274 13 18.7214 19.5489 18.7214 27.6246V32.5H16.2164C14.0278 32.5 13.1678 35.3142 14.9893 36.5177L18.7214 38.9895V44.6877C18.7214 46.6372 20.2982 47.4827 22.1651 48.0993C23.6387 48.5884 24.6229 51.0253 26.5912 51.0253C27.5736 51.0253 28.14 50.5361 29.271 50.5361C30.7464 50.5361 31.5086 52 33.4769 52C35.4435 52 36.1829 50.5379 37.66 50.5379C38.7578 50.5379 39.3784 51.0253 40.3626 51.0253C42.3291 51.0253 43.357 48.4539 44.7887 48.0993C46.757 47.6119 48.2324 46.6372 48.2324 44.6877V39.0245L52.01 36.5195C53.8332 35.3142 52.9714 32.5 50.7828 32.5Z" fill="white"/>
<path fill-rule="evenodd" clip-rule="evenodd" d="M32.2007 22C32.2007 24.2093 31.0364 26 29.6004 26C28.1643 26 27 24.2093 27 22C27 19.7907 28.1643 18 29.6004 18C31.0364 18 32.2007 19.7907 32.2007 22ZM40 22C40 24.2093 38.8357 26 37.4015 26C35.9654 26 34.8011 24.2093 34.8011 22C34.8011 19.7907 35.9654 18 37.3996 18C38.8357 18 40 19.7907 40 22Z" fill="#3A3837"/>
</svg>
