<svg width="66" height="66" viewBox="0 0 66 66" fill="none" xmlns="http://www.w3.org/2000/svg">
<circle cx="32.9183" cy="32.9183" r="32.9183" fill="#F5F5F5"/>
<g clip-path="url(#clip0_4704_24)">
<path fill-rule="evenodd" clip-rule="evenodd" d="M44.9471 28.4473C42.5239 28.4527 40.5552 30.4214 40.5498 32.8445C40.5445 35.2678 42.5046 37.2278 44.9277 37.2224L52.5503 37.2056C53.3304 37.2039 53.9633 37.8368 53.9616 38.6168C53.9599 39.3919 53.3321 40.0197 52.5571 40.0215L46.886 40.0339C43.4141 40.0416 40.5932 42.8624 40.5856 46.3345L40.5723 52.3664C40.5703 53.2316 39.8695 53.9324 39.0044 53.9343C38.1335 53.9362 37.427 53.2296 37.4289 52.3588L37.4459 44.7042C37.4512 42.2811 35.4912 40.3211 33.068 40.3264C30.6448 40.3317 28.6761 42.3004 28.6708 44.7237L28.6537 52.4579C28.6519 53.287 27.9803 53.9586 27.1511 53.9604C26.3166 53.9622 25.6395 53.2852 25.6414 52.4507L25.6548 46.3674C25.6625 42.8954 22.8541 40.087 19.3821 40.0947L13.4621 40.1078C12.682 40.1095 12.0491 39.4766 12.0508 38.6964C12.0525 37.9214 12.6803 37.2936 13.4553 37.2919L21.2218 37.2747C23.6451 37.2694 25.6138 35.3007 25.6191 32.8775C25.6244 30.4543 23.6644 28.4943 21.2413 28.4996L13.6192 28.5165C12.7666 28.5184 12.0748 27.8266 12.0767 26.9739C12.0785 26.1268 12.7647 25.4406 13.6119 25.4387L19.4144 25.4259C22.8864 25.4182 25.7072 22.5974 25.7149 19.1254L25.7273 13.5522C25.7291 12.723 26.4007 12.0514 27.2298 12.0496C28.0643 12.0478 28.7414 12.7248 28.7395 13.5594L28.7231 21.0178C28.7177 23.4409 30.6777 25.401 33.101 25.3957C35.5241 25.3903 37.4928 23.4216 37.4982 20.9984L37.5146 13.5913C37.5164 12.7262 38.2173 12.0254 39.0824 12.0234C39.9532 12.0215 40.6597 12.728 40.6578 13.5988L40.6456 19.0924C40.638 22.5644 43.4464 25.3728 46.9184 25.3652L52.4449 25.353C53.2976 25.351 53.9893 26.0429 53.9874 26.8956C53.9856 27.7427 53.2994 28.4289 52.4523 28.4307L44.9471 28.4473ZM37.4717 32.9823C37.4771 30.523 35.4879 28.5337 33.0286 28.5391C30.5692 28.5445 28.5711 30.5426 28.5656 33.002C28.5603 35.4613 30.5495 37.4506 33.0089 37.4452C35.4682 37.4397 37.4663 35.4417 37.4717 32.9823Z" fill="black"/>
</g>
<defs>
<clipPath id="clip0_4704_24">
<rect width="42" height="42" fill="white" transform="translate(12 12)"/>
</clipPath>
</defs>
</svg>
