<svg width="66" height="66" viewBox="0 0 66 66" fill="none" xmlns="http://www.w3.org/2000/svg">
<circle cx="32.9183" cy="32.9183" r="32.9183" fill="#F5F5F5"/>
<path d="M24.9382 51.0863C23.7132 51.8211 22.2979 52.1762 20.8711 52.1066C19.4443 52.0371 18.0702 51.546 16.9225 50.6955C15.7748 49.8451 14.9051 48.6734 14.4233 47.3286C13.9414 45.9839 13.8692 44.5264 14.2157 43.1406C14.5621 41.7548 15.3117 40.5028 16.3697 39.543C17.4276 38.5832 18.7464 37.9586 20.1593 37.7483C21.5722 37.538 23.0158 37.7513 24.3074 38.3614C25.5991 38.9714 26.6808 39.9508 27.4159 41.1756C27.9046 41.9889 28.2281 42.8905 28.3681 43.8289C28.508 44.7673 28.4616 45.7241 28.2315 46.6446C28.0014 47.565 27.5921 48.4311 27.027 49.1932C26.4619 49.9554 25.7521 50.5987 24.9382 51.0863Z" fill="#253AF3"/>
<path d="M41.6062 44.817C40.2859 46.1466 38.7155 47.2019 36.9856 47.9219C35.2557 48.642 33.4004 49.0128 31.5266 49.0128C29.6528 49.0128 27.7975 48.642 26.0676 47.9219C24.3377 47.2019 22.7673 46.1466 21.4469 44.817C18.7737 42.1388 17.2738 38.5082 17.2773 34.7241C17.2808 30.94 18.7875 27.3123 21.4657 24.639C24.144 21.9657 27.7745 20.4658 31.5586 20.4694C35.3428 20.4729 38.9705 21.9795 41.6438 24.6577C43.7745 26.7807 45.1691 29.5304 45.6231 32.5037C45.9725 34.7275 45.7908 37.0024 45.0926 39.1425C44.3945 41.2826 43.1998 43.2271 41.6062 44.817ZM27.003 30.1762C26.0423 31.1358 25.4104 32.3751 25.198 33.7162C24.9856 35.0573 25.2037 36.4312 25.8209 37.6406C26.4382 38.85 27.4228 39.8327 28.6334 40.4476C29.844 41.0625 31.2183 41.2779 32.559 41.063C33.8991 40.8596 35.1372 40.2274 36.0878 39.261C37.0485 38.3015 37.6803 37.0622 37.8927 35.7211C38.1051 34.38 37.887 33.0061 37.2698 31.7967C36.6526 30.5873 35.668 29.6046 34.4574 28.9897C33.2468 28.3748 31.8725 28.1593 30.5318 28.3743C29.1969 28.5939 27.9635 29.2237 27.003 30.1762Z" fill="black"/>
<path d="M46.7868 33.9678C44.964 35.0629 42.8575 35.593 40.7334 35.4908C38.6094 35.3887 36.5634 34.6591 34.8541 33.3941C33.1448 32.1292 31.8489 30.3858 31.1304 28.3844C30.4119 26.383 30.3031 24.2135 30.8176 22.1502C31.3321 20.0869 32.4469 18.2226 34.0209 16.7929C35.595 15.3631 37.5577 14.4323 39.6608 14.1181C41.764 13.8038 43.913 14.1203 45.8363 15.0274C47.7596 15.9345 49.3706 17.3916 50.4658 19.2144C51.9334 21.6589 52.3703 24.5861 51.6804 27.3527C50.9905 30.1192 49.2304 32.4986 46.7868 33.9678Z" fill="#253AF3"/>
</svg>
