<svg width="66" height="66" viewBox="0 0 66 66" fill="none" xmlns="http://www.w3.org/2000/svg">
<circle cx="32.9183" cy="32.9183" r="32.9183" fill="#F5F5F5"/>
<path d="M30.2766 48.2218C31.5535 48.2218 32.5887 49.2698 32.5887 50.5624C32.5887 51.8551 31.5535 52.903 30.2766 52.903C28.9997 52.903 27.9646 51.8551 27.9646 50.5624C27.9646 49.2698 28.9997 48.2218 30.2766 48.2218ZM43.1039 43.9513L45.3886 44.6366L43.575 50.8333C43.4165 51.3748 42.9082 51.7324 42.3516 51.694L41.7914 51.6551L41.7777 51.6666L35.9572 51.2531L36.1192 48.8463L40.0297 49.1149L37.4696 45.3762L39.4279 44.0017L41.9914 47.745L43.1039 43.9513ZM18.2362 39.6675L20.6132 39.838L20.3347 43.7962L24.0211 41.2011L25.3819 43.1815L21.6908 45.7792L25.4584 46.9031L24.7849 49.2172L18.6349 47.3829C18.098 47.2228 17.7436 46.7059 17.7832 46.1406L18.2362 39.6675ZM33.5838 36.297L37.8739 41.5404L35.9404 43.1617L33.3872 40.0412L32.5594 44.839L30.0863 44.4013L30.9148 39.596L27.4776 41.6477L26.2032 39.4578L31.9798 36.0127C32.5109 35.6959 33.1906 35.8164 33.5838 36.297ZM45.5866 32.7791L47.7296 31.5987L50.8516 37.4077C51.1251 37.9166 51.0124 38.5495 50.5806 38.9297L50.1389 39.316L45.6318 43.2869L44.0308 41.4233L47.0609 38.7546L42.5475 37.9314L42.9805 35.5008L47.4907 36.3235L45.5866 32.7791ZM20.3131 26.7058L21.9275 28.5576L18.939 31.2259L23.461 32.0251L23.0418 34.4582L18.5149 33.6584L20.4594 37.2171L18.3245 38.4126L15.1525 32.6078C14.8755 32.1009 14.9838 31.4674 15.4127 31.0841L20.3131 26.7058ZM35.5982 24.7954L39.8738 30.0247L37.9397 31.6453L35.3872 28.5234L34.5594 33.3227L32.0863 32.885L32.912 28.0984L29.4879 30.1304L28.2184 27.9376L33.478 24.8158L33.4831 24.7955L33.5063 24.7986L33.9964 24.5093C34.5275 24.1942 35.2058 24.3154 35.5982 24.7954ZM41.1078 22.2236L42.043 19.9424L48.0916 22.4835C48.6196 22.7053 48.9246 23.2684 48.8254 23.8383L48.7247 24.4051L47.6918 30.3531L45.2891 29.9247L45.9815 25.943L41.9685 28.1883L40.7893 26.0262L44.8098 23.7791L41.1078 22.2236ZM29.5852 17.7282L29.6892 20.1958L25.6936 20.3687L28.7071 23.8551L26.8711 25.4815L23.8525 21.9899L23.1492 25.9761L20.7476 25.5413L21.8985 19.027C21.9991 18.4577 22.4765 18.0353 23.0473 18.0106L23.6127 17.985L23.6254 17.9757L29.5852 17.7282ZM37.7585 12.4658L42.0147 17.7282L40.0722 19.3384L37.546 16.2145L36.694 21.0074L34.223 20.5573L35.0765 15.7536L31.6275 17.795L30.3608 15.6005L36.1539 12.1737C36.6869 11.8583 37.3674 11.9822 37.7585 12.4658Z" fill="#201D1E"/>
</svg>
