<svg width="66" height="66" viewBox="0 0 66 66" fill="none" xmlns="http://www.w3.org/2000/svg">
<circle cx="32.9183" cy="32.9183" r="32.9183" fill="#F5F5F5"/>
<g transform="translate(12.6548 11.5658) scale(0.212480)">
<path d="   M 1.39 73.87   A 0.18 0.18 0.0 0 1 1.31 73.55   Q 55.28 35.44 121.35 34.49   A 0.37 0.37 0.0 0 1 121.61 35.14   L 107.91 47.65   A 0.32 0.32 0.0 0 0 108.14 48.20   Q 133.22 46.97 155.97 40.98   C 166.49 38.22 178.14 33.48 185.96 24.92   A 0.24 0.24 0.0 0 1 186.36 25.15   Q 183.83 33.14 180.49 39.96   C 172.49 56.27 157.12 68.44 140.36 76.63   Q 124.30 84.48 104.41 91.49   C 92.21 95.80 77.85 98.91 65.65 102.37   A 1.06 1.05 57.4 0 1 64.68 102.15   Q 37.47 78.23 1.39 73.87   Z" fill="#ff6200"/>
<path d="   M 189.37 93.22   A 0.15 0.15 0.0 0 1 189.39 93.51   Q 175.33 96.52 161.71 102.22   C 137.19 112.49 114.69 124.11 91.97 136.79   A 0.70 0.69 -27.6 0 1 91.01 136.50   Q 83.33 121.25 71.63 108.94   A 0.34 0.34 0.0 0 1 71.77 108.38   C 109.19 96.22 150.17 91.73 189.37 93.22   Z" fill="#ff6200"/>
<path d="   M 157.56 119.88   L 102.98 176.02   A 0.34 0.34 0.0 0 1 102.39 175.82   Q 100.90 160.75 95.52 146.89   A 0.77 0.76 -22.1 0 1 95.94 145.91   L 157.34 119.56   A 0.20 0.20 0.0 0 1 157.56 119.88   Z" fill="#ff6200"/>
</g>
</svg>
