<svg width="66" height="66" viewBox="0 0 66 66" fill="none" xmlns="http://www.w3.org/2000/svg">
<circle cx="32.9183" cy="32.9183" r="32.9183" fill="#F5F5F5"/>
<path d="M33 12.5C41.0114 12.5 47.4999 18.9972 47.5 27.0225C47.5 28.9882 46.6925 31.632 45.4082 34.5371C44.1307 37.4269 42.408 40.5187 40.6338 43.3594C38.86 46.1995 37.0408 48.7786 35.5771 50.6436C34.8445 51.5771 34.2073 52.324 33.7129 52.833C33.4645 53.0887 33.2616 53.2738 33.1084 53.3916C33.0651 53.4249 33.0291 53.45 33 53.4688C32.971 53.45 32.9348 53.4249 32.8916 53.3916C32.7384 53.2736 32.5365 53.0873 32.2881 52.8311C31.7936 52.3209 31.1556 51.5731 30.4229 50.6377C28.9592 48.7692 27.1409 46.1856 25.3672 43.3428C23.593 40.4992 21.8694 37.4064 20.5918 34.5186C19.3073 31.6151 18.5 28.9768 18.5 27.0225C18.5001 19.0413 24.9896 12.5 33 12.5ZM39.5811 27.0547C39.484 23.4087 36.5675 20.5225 33 20.5225C29.4349 20.5225 26.5088 23.4538 26.5088 27.0225C26.5088 29.5127 27.8754 31.6121 29.9121 32.7334L29.708 36.0137L29.707 36.0293V36.2256C29.707 38.0799 31.1916 39.5673 33.0449 39.5674H33.2402L33.2559 39.5664C35.0084 39.4598 36.33 38.0244 36.3828 36.3311V36.0742L36.3818 36.0596L36.1768 32.7783C38.2079 31.6907 39.5811 29.5337 39.5811 27.0674V27.0547Z" fill="black" stroke="black"/>
</svg>
