<svg width="66" height="66" viewBox="0 0 66 66" fill="none" xmlns="http://www.w3.org/2000/svg">
<circle cx="32.9183" cy="32.9183" r="32.9183" fill="#F5F5F5"/>
<g clip-path="url(#clip0_489_2)">
<path d="M51.9984 26.3333C51.9984 19.5222 46.5595 14 39.8508 14H30.3801C29.5789 14 28.4999 14.5103 27.9841 15.1331L19.667 25.2002C19.1512 25.823 19.3847 26.3333 20.1859 26.3333H31.929C38.3858 26.3333 43.6645 31.4517 44.0506 37.9082C46.3868 37.0293 48.4008 35.4492 49.8219 33.38C51.2429 31.3108 52.0015 28.8518 51.9984 26.3333ZM26.9876 38.6667C26.1849 38.6667 25.1075 39.1754 24.5917 39.7998L16.2746 49.8669C15.7588 50.4897 15.9923 51 16.7935 51H31.929C38.6376 51 44.0765 45.4777 44.0765 38.6667C44.0756 38.4136 44.0669 38.1607 44.0506 37.9082C42.7069 38.4108 41.2853 38.6676 39.8524 38.6667H26.9876Z" fill="#1AD379"/>
</g>
<defs>
<clipPath id="clip0_489_2">
<rect width="36" height="37" fill="white" transform="translate(16 14)"/>
</clipPath>
</defs>
</svg>
