<svg width="66" height="66" viewBox="0 0 66 66" fill="none" xmlns="http://www.w3.org/2000/svg">
<circle cx="32.9183" cy="32.9183" r="32.9183" fill="#F5F5F5"/>
<g clip-path="url(#clip0_417_49)">
<path fill-rule="evenodd" clip-rule="evenodd" d="M30.5304 39.16V41.4303C30.5304 41.8859 30.7062 42.3229 31.0215 42.6453C31.1761 42.8043 31.3608 42.9307 31.5646 43.0172C31.7685 43.1036 31.9874 43.1483 32.2087 43.1487H38.605C39.5526 43.1487 40.3735 42.4084 40.3735 41.4376V39.16H42.6992V41.4325C42.6992 43.7196 40.8176 45.4696 38.605 45.4679L36.4199 45.4668H34.4073C33.7252 45.4668 33.0118 45.4668 32.2087 45.4679C30.0779 45.4696 28.2047 43.6071 28.2075 41.4376V39.16H30.5304ZM33.1333 19.0023H33.9934L34.4073 19.0028H36.8321L37.6872 19.0023L38.6056 19.0017C40.817 19 42.6992 20.7494 42.6992 23.0371V25.3096H40.3735V23.0314C40.3735 22.0611 39.5526 21.3209 38.605 21.3209H32.2087C31.9874 21.3213 31.7685 21.366 31.5646 21.4524C31.3608 21.5389 31.1761 21.6653 31.0215 21.8243C30.7057 22.149 30.5293 22.5853 30.5304 23.0393V25.3096H28.2075V23.0314C28.2047 20.8624 30.0779 19 32.2087 19.0017L33.1333 19.0023Z" fill="#4574EB"/>
<path fill-rule="evenodd" clip-rule="evenodd" d="M35.4522 27.4842C36.8987 27.4842 38.1559 27.9263 39.1163 28.769L37.8451 30.4677C37.0879 29.8321 36.1007 29.5148 35.2086 29.5148C34.5327 29.5148 34.2353 29.7905 34.2353 30.1775C34.2353 31.3514 39.3324 30.4953 39.3324 33.9203C39.3324 35.771 37.994 37 35.5737 37C33.7481 37 32.4769 36.4201 31.5714 35.5358L32.8017 33.7544C33.1775 34.1387 33.6257 34.4441 34.1202 34.6527C34.6146 34.8613 35.1455 34.9689 35.6818 34.9694C36.4798 34.9694 36.9664 34.6521 36.9664 34.21C36.9664 32.9534 31.8553 33.9614 31.8553 30.412C31.8553 28.8651 33.14 27.4842 35.4522 27.4842ZM48.5674 27.4707C51.3254 27.4707 53.3806 29.4316 53.3806 32.2351C53.3806 35.0391 51.3254 37 48.5674 37C45.8088 37 43.7402 35.0391 43.7402 32.2356C43.7402 29.4316 45.8088 27.4707 48.5674 27.4707ZM17.0366 27.6226C19.0644 27.6226 20.1732 29.0176 20.1732 30.6882C20.1732 32.3065 19.117 33.674 17.18 33.7381L17.0366 33.7409H14.8459V36.8346H12.5208V27.622H17.0372L17.0366 27.6226ZM23.5399 27.6226V34.763H27.1631V36.8341H21.2148V27.6231H23.5404L23.5399 27.6226ZM30.5304 27.6226V36.8341H28.2047V27.6231L30.5304 27.6226ZM42.6991 27.6226V36.8341H40.3735V27.6231L42.6991 27.6226ZM48.5674 29.57C47.0666 29.57 46.1062 30.7298 46.1062 32.2351C46.1062 33.7268 47.0666 34.9008 48.5674 34.9008C50.0547 34.9008 51.0146 33.7268 51.0146 32.2351C51.0146 30.7298 50.0547 29.57 48.5674 29.57ZM16.7258 29.6937H14.8453V31.6692H16.7247C17.3468 31.6692 17.8066 31.3098 17.8066 30.6888C17.8066 30.0531 17.3468 29.6943 16.7247 29.6943L16.7258 29.6937Z" fill="#2B2D31"/>
</g>
<defs>
<clipPath id="clip0_417_49">
<rect width="42" height="27" fill="white" transform="translate(12 19)"/>
</clipPath>
</defs>
</svg>
