<svg width="66" height="66" viewBox="0 0 66 66" fill="none" xmlns="http://www.w3.org/2000/svg">
<circle cx="32.9183" cy="32.9183" r="32.9183" fill="#F5F5F5"/>
<g clip-path="url(#clip0_1150_61)">
<path d="M23.8361 32.9026C23.5026 33.5715 22.5508 33.5715 22.2173 32.9026L21.4198 31.3032C21.2924 31.0478 21.2924 30.7471 21.4198 30.4917L22.2173 28.8922C22.5508 28.2234 23.5026 28.2234 23.8361 28.8922L24.6337 30.4917C24.761 30.7471 24.761 31.0478 24.6337 31.3032L23.8361 32.9026ZM23.8361 41.9737C23.5026 42.6425 22.5508 42.6425 22.2173 41.9737L21.4198 40.3742C21.2924 40.1188 21.2924 39.8181 21.4198 39.5627L22.2173 37.9632C22.5508 37.2944 23.5026 37.2944 23.8361 37.9632L24.6337 39.5627C24.761 39.8181 24.761 40.1188 24.6337 40.3742L23.8361 41.9737Z" fill="#1D4AFF"/>
<path d="M13.9805 38.5277C13.9805 37.7194 14.9552 37.3145 15.5253 37.8861L19.6729 42.045C20.2429 42.6166 19.8392 43.5939 19.033 43.5939H14.8854C14.3856 43.5939 13.9805 43.1877 13.9805 42.6866V38.5277ZM13.9805 34.1471C13.9805 34.3878 14.0758 34.6186 14.2455 34.7887L22.7619 43.3282C22.9316 43.4983 23.1618 43.5939 23.4018 43.5939H28.0795C28.8857 43.5939 29.2894 42.6166 28.7193 42.045L15.5253 28.8151C14.9552 28.2435 13.9805 28.6484 13.9805 29.4567V34.1471ZM13.9805 25.0761C13.9805 25.3168 14.0758 25.5476 14.2455 25.7177L31.8084 43.3282C31.978 43.4983 32.2083 43.5939 32.4482 43.5939H37.1259C37.9321 43.5939 38.3359 42.6166 37.7658 42.045L15.5253 19.7441C14.9552 19.1725 13.9805 19.5774 13.9805 20.3858V25.0761ZM23.0269 25.0761C23.0269 25.3168 23.1223 25.5476 23.292 25.7177L39.5751 42.045C40.1452 42.6166 41.1199 42.2117 41.1199 41.4034V36.713C41.1199 36.4724 41.0245 36.2415 40.8548 36.0714L24.5717 19.7441C24.0016 19.1725 23.0269 19.5774 23.0269 20.3858V25.0761ZM33.6182 19.7441C33.0481 19.1725 32.0734 19.5774 32.0734 20.3858V25.0761C32.0734 25.3168 32.1688 25.5476 32.3385 25.7177L39.5751 32.974C40.1452 33.5456 41.1199 33.1408 41.1199 32.3324V27.642C41.1199 27.4014 41.0245 27.1705 40.8548 27.0004L33.6182 19.7441Z" fill="#F9BD2B"/>
<path d="M52.4629 38.6365L43.9452 30.0957C43.3751 29.5241 42.4004 29.9289 42.4004 30.7373V42.6841C42.4004 43.1853 42.8055 43.5915 43.3053 43.5915H56.4996C56.9994 43.5915 57.4045 43.1853 57.4045 42.6841V41.5962C57.4045 41.0951 56.9976 40.6948 56.502 40.6301C54.9811 40.4316 53.5585 39.7351 52.4629 38.6365ZM46.7426 40.6888C45.9437 40.6888 45.2952 40.0386 45.2952 39.2374C45.2952 38.4363 45.9437 37.7861 46.7426 37.7861C47.5417 37.7861 48.1902 38.4363 48.1902 39.2374C48.1902 40.0386 47.5417 40.6888 46.7426 40.6888Z" fill="black"/>
<path d="M13.9805 42.6866C13.9805 43.1877 14.3856 43.5939 14.8854 43.5939H19.033C19.8392 43.5939 20.2429 42.6166 19.6729 42.045L15.5253 37.8861C14.9552 37.3145 13.9805 37.7194 13.9805 38.5277V42.6866ZM23.0269 27.2662L15.5253 19.7441C14.9552 19.1725 13.9805 19.5774 13.9805 20.3857V25.0761C13.9805 25.3168 14.0758 25.5476 14.2455 25.7177L23.0269 34.523V27.2662ZM15.5253 28.8151C14.9552 28.2435 13.9805 28.6484 13.9805 29.4567V34.1471C13.9805 34.3878 14.0758 34.6186 14.2455 34.7887L23.0269 43.5939V36.3372L15.5253 28.8151Z" fill="#1D4AFF"/>
<path d="M32.0738 27.642C32.0738 27.4014 31.9785 27.1705 31.8088 27.0004L24.5721 19.7441C24.0021 19.1725 23.0273 19.5774 23.0273 20.3857V25.0761C23.0273 25.3168 23.1227 25.5476 23.2924 25.7177L32.0738 34.523V27.642ZM23.0273 43.5939H28.0799C28.8861 43.5939 29.2898 42.6166 28.7197 42.045L23.0273 36.3372V43.5939ZM23.0273 27.2662V34.1471C23.0273 34.3878 23.1227 34.6186 23.2924 34.7887L32.0738 43.5939V36.713C32.0738 36.4723 31.9785 36.2415 31.8088 36.0714L23.0273 27.2662Z" fill="#F54E00"/>
</g>
<defs>
<clipPath id="clip0_1150_61">
<rect width="45.246" height="27.2211" fill="white" transform="translate(13.9805 17.2891)"/>
</clipPath>
</defs>
</svg>
