<svg width="62" height="62" viewBox="0 0 62 62" fill="none" xmlns="http://www.w3.org/2000/svg">
<circle cx="31" cy="31" r="31" fill="#F5F5F5"/>
<path d="M39.9 41.4799C40.11 39.6249 40.04 39.3449 41.44 39.6599L41.79 39.6949C42.84 39.7299 44.24 39.5199 45.045 39.1349C46.795 38.3299 47.845 36.9649 46.095 37.3149C42.14 38.1199 41.86 36.7899 41.86 36.7899C46.025 30.5949 47.775 22.7199 46.27 20.7949C42.21 15.5799 35.105 18.0299 34.965 18.0999H34.93C34.16 17.9249 33.285 17.8549 32.305 17.8199C30.52 17.7849 29.155 18.2749 28.14 19.0799C28.14 19.0799 15.47 13.8649 16.03 25.6599C16.17 28.1799 19.635 44.6649 23.765 39.6599C25.27 37.8399 26.74 36.2999 26.74 36.2999C27.475 36.7899 28.35 37.0349 29.26 36.9299L29.33 36.8599C29.295 37.0699 29.33 37.3149 29.365 37.5599C28.315 38.7499 28.595 38.9599 26.495 39.4149C24.325 39.8699 25.62 40.6399 26.425 40.8499C27.44 41.0949 29.75 41.4449 31.325 39.2749L31.255 39.5199C31.675 39.8699 31.64 41.9349 31.71 43.4049C31.78 44.8749 31.885 46.2749 32.165 47.0799C32.48 47.8849 32.83 49.9849 35.63 49.3899C37.94 48.9349 39.76 48.1999 39.9 41.4799Z" fill="black"/>
<path d="M46.13 37.3149C42.175 38.1199 41.895 36.7899 41.895 36.7899C46.06 30.5949 47.81 22.7199 46.305 20.7949C42.21 15.5799 35.105 18.0299 34.965 18.0999H34.93C34.16 17.9249 33.285 17.8549 32.305 17.8199C30.52 17.7849 29.155 18.2749 28.14 19.0799C28.14 19.0799 15.47 13.8649 16.03 25.6599C16.17 28.1799 19.635 44.6649 23.765 39.6599C25.27 37.8399 26.74 36.2999 26.74 36.2999C27.475 36.7899 28.35 37.0349 29.26 36.9299L29.33 36.8599C29.295 37.0699 29.33 37.3149 29.365 37.5599C28.315 38.7499 28.595 38.9599 26.495 39.4149C24.325 39.8699 25.62 40.6399 26.425 40.8499C27.44 41.0949 29.75 41.4449 31.325 39.2749L31.255 39.5199C31.675 39.8699 31.955 41.6899 31.92 43.3699C31.885 45.0499 31.85 46.2049 32.165 47.0799C32.48 47.9899 32.83 49.9849 35.63 49.3899C37.975 48.8999 39.2 47.5699 39.34 45.3999C39.445 43.8599 39.725 44.0699 39.76 42.7049L39.97 42.0399C40.215 39.9399 40.005 39.2749 41.44 39.5899L41.79 39.6249C42.84 39.6599 44.24 39.4499 45.045 39.0649C46.83 38.3299 47.88 36.9649 46.13 37.3149Z" fill="#336791"/>
<path d="M34.8251 50.09C32.4801 50.09 31.7101 48.235 31.4301 47.465C30.975 46.345 30.8701 42.145 30.9751 38.505C30.9751 38.225 31.2201 38.015 31.4651 38.015C31.7451 38.015 31.955 38.26 31.955 38.505C31.85 42.6 32.0251 46.275 32.3401 47.08C32.8301 48.34 33.6001 49.46 35.7701 48.97C37.8701 48.515 38.6051 47.78 38.9551 45.75C39.2351 44.21 39.7601 39.8 39.8301 38.925C39.8651 38.645 40.0751 38.47 40.3551 38.47C40.6351 38.505 40.8101 38.715 40.8101 38.995C40.7401 39.905 40.2151 44.28 39.9351 45.89C39.5151 48.305 38.4651 49.39 35.9801 49.915C35.5601 50.055 35.1751 50.09 34.8251 50.09ZM22.155 41.06C21.91 41.06 21.7351 41.025 21.5251 40.955C19.985 40.43 18.55 37.98 17.22 33.57C16.205 30.245 15.575 26.78 15.505 25.625C15.33 22.265 16.205 19.885 18.095 18.555C19.67 17.435 21.8751 17.085 24.64 17.54C26.6701 17.855 28.2101 18.485 28.2801 18.52C28.5251 18.625 28.665 18.905 28.5601 19.15C28.455 19.395 28.175 19.535 27.93 19.43C27.8601 19.43 21.9101 17.05 18.655 19.36C17.08 20.48 16.345 22.58 16.485 25.59C16.52 26.535 17.15 29.93 18.165 33.29C19.355 37.175 20.6851 39.625 21.8751 40.01C22.0501 40.08 22.61 40.255 23.38 39.31C24.885 37.49 26.285 36.055 26.285 36.02C26.46 35.81 26.7751 35.81 26.9851 36.02C27.1951 36.195 27.1951 36.51 26.9851 36.72C26.9851 36.72 25.6201 38.155 24.1151 39.94C23.4151 40.815 22.715 41.06 22.155 41.06ZM41.8951 37.245C41.7901 37.245 41.7201 37.21 41.6151 37.175C41.4051 37.035 41.3351 36.72 41.4751 36.51C45.6751 30.245 47.18 22.72 45.92 21.11C44.3451 19.08 42.1051 18.03 39.2701 17.96C37.17 17.925 35.4901 18.45 35.2101 18.555C35.1751 18.555 35.1751 18.59 35.1401 18.59C34.8601 18.695 34.6151 18.52 34.5451 18.345C34.4401 18.135 34.51 17.855 34.7551 17.715C34.93 17.61 36.8551 16.98 39.1651 17.015C42.3151 17.05 44.9401 18.275 46.7251 20.55C47.1801 21.11 47.3901 22.055 47.3551 23.28C47.3201 24.435 47.1101 25.835 46.7251 27.34C45.8851 30.63 44.2751 34.2 42.3151 37.07C42.1751 37.175 42.035 37.245 41.8951 37.245Z" fill="white"/>
<path d="M42.105 40.115C41.37 40.115 40.74 40.01 40.32 39.765C39.9 39.52 39.83 39.17 39.83 38.995C39.725 37.105 40.74 36.755 41.3 36.58C41.23 36.475 41.125 36.37 41.055 36.23C40.74 35.845 40.32 35.285 39.97 34.48C39.935 34.34 39.76 34.06 39.585 33.745C38.57 31.925 36.435 28.11 37.8 26.15C38.43 25.24 39.69 24.89 41.51 25.065C41.265 24.33 40.67 23 39.55 21.67C38.185 20.2 35.875 18.345 32.27 18.275C30.45 18.24 28.945 18.8 27.79 19.955C25.27 22.51 25.34 27.165 25.34 27.2C25.34 27.48 25.13 27.69 24.85 27.69C24.57 27.69 24.36 27.48 24.36 27.2C24.36 26.99 24.255 22.09 27.09 19.255C28.42 17.925 30.17 17.26 32.27 17.295C36.19 17.365 38.745 19.36 40.18 21.04C41.755 22.86 42.49 24.855 42.56 25.52C42.595 26.045 42.21 26.15 42.14 26.185H41.965C39.725 25.835 38.885 26.29 38.535 26.78C37.52 28.25 39.515 31.82 40.355 33.325C40.565 33.71 40.74 33.99 40.81 34.165C41.09 34.83 41.44 35.285 41.755 35.67C42 35.985 42.245 36.265 42.315 36.615C42.35 36.685 42.91 37.42 45.955 36.79C46.76 36.615 47.25 36.755 47.39 37.21C47.67 38.085 46.06 39.1 45.185 39.52C44.45 39.905 43.19 40.115 42.105 40.115ZM40.81 38.925C40.915 39.03 41.44 39.17 42.42 39.135C43.33 39.1 44.275 38.89 44.835 38.645C45.5 38.33 45.955 38.015 46.235 37.735H46.2C44.205 38.155 42.77 38.085 41.965 37.56C41.93 37.525 41.86 37.49 41.825 37.455C41.755 37.49 41.685 37.49 41.615 37.525C41.16 37.665 40.74 37.77 40.81 38.925ZM27.825 41.515C27.335 41.515 26.81 41.445 26.25 41.305C26.11 41.27 24.745 40.885 24.745 40.045C24.745 39.24 25.9 38.995 26.32 38.925C27.825 38.61 27.93 38.505 28.385 37.91C28.525 37.735 28.7 37.525 28.945 37.245C29.715 36.37 30.485 36.685 30.8 36.79C31.29 37 31.71 37.49 31.885 38.085C32.025 38.61 31.955 39.135 31.675 39.555C30.73 40.85 29.4 41.515 27.825 41.515ZM25.83 40.08C25.97 40.185 26.215 40.29 26.495 40.36C27.79 40.675 29.61 40.71 30.87 38.96C31.01 38.75 30.975 38.47 30.94 38.33C30.87 38.05 30.66 37.77 30.415 37.665C30.135 37.56 29.995 37.49 29.68 37.84C29.47 38.085 29.295 38.295 29.155 38.435C28.56 39.205 28.28 39.45 26.495 39.8C26.18 39.94 25.97 40.045 25.83 40.08Z" fill="white"/>
<path d="M29.2601 38.015C29.0151 38.015 28.8051 37.84 28.7701 37.595C28.7701 37.525 28.7701 37.455 28.7351 37.385C27.5801 37.35 26.4601 36.86 25.6201 35.985C24.5351 34.865 24.0451 33.29 24.2901 31.715C24.5351 30 24.4301 28.495 24.3951 27.69C24.3951 27.48 24.3601 27.305 24.3601 27.2C24.3601 27.06 24.3601 26.64 25.6551 26.01C26.1101 25.765 27.0201 25.38 28.0001 25.275C29.6451 25.1 30.7651 25.835 31.0801 27.375C31.9551 31.435 31.1501 33.22 30.5551 34.515C30.4501 34.76 30.3451 34.97 30.2751 35.215L30.2051 35.425C29.8901 36.265 29.6451 36.965 29.7151 37.49C29.7501 37.77 29.5751 38.015 29.2951 38.05C29.2951 38.015 29.2951 38.015 29.2601 38.015ZM25.3751 27.34V27.655C25.4101 28.495 25.5151 30.07 25.2701 31.89C25.0951 33.185 25.4801 34.445 26.3551 35.355C27.0201 36.055 27.9301 36.475 28.8401 36.475C28.9451 36.055 29.1201 35.565 29.2951 35.075L29.3651 34.865C29.4701 34.62 29.5751 34.375 29.6801 34.095C30.2401 32.835 30.9401 31.295 30.1351 27.55C29.9951 26.815 29.6101 26.395 28.9801 26.255C27.6851 25.975 25.7601 26.99 25.3751 27.34Z" fill="white"/>
<path d="M28.07 27.13C28.035 27.305 28.35 27.725 28.77 27.76C29.19 27.83 29.54 27.48 29.54 27.34C29.575 27.165 29.26 26.99 28.84 26.955C28.455 26.885 28.07 26.99 28.07 27.13Z" fill="white"/>
<path d="M28.875 27.935H28.77C28.525 27.9 28.245 27.725 28.07 27.515C28 27.445 27.895 27.27 27.93 27.13C27.93 27.06 27.965 26.99 28.07 26.92C28.245 26.78 28.56 26.745 28.91 26.815C29.33 26.885 29.785 27.095 29.75 27.41C29.68 27.62 29.295 27.935 28.875 27.935ZM28.245 27.165C28.28 27.27 28.49 27.585 28.805 27.62C29.12 27.655 29.365 27.41 29.4 27.34C29.365 27.305 29.19 27.165 28.84 27.13C28.49 27.06 28.28 27.13 28.245 27.165ZM40.6 26.815C40.635 26.99 40.32 27.41 39.9 27.445C39.48 27.515 39.13 27.165 39.13 27.025C39.095 26.85 39.41 26.675 39.83 26.64C40.215 26.57 40.565 26.64 40.6 26.815Z" fill="white"/>
<path d="M39.795 27.55C39.375 27.55 39.06 27.235 39.025 27.025C38.99 26.78 39.375 26.605 39.795 26.535C40.215 26.465 40.635 26.535 40.67 26.78C40.67 26.885 40.6 27.06 40.46 27.2C40.355 27.305 40.18 27.48 39.9 27.515C39.865 27.55 39.83 27.55 39.795 27.55ZM40.075 26.675C40.005 26.675 39.935 26.675 39.83 26.71C39.41 26.78 39.2 26.955 39.2 27.025C39.2 27.13 39.515 27.445 39.9 27.375C40.11 27.34 40.285 27.2 40.355 27.13C40.495 26.99 40.53 26.885 40.53 26.85C40.495 26.78 40.355 26.675 40.075 26.675ZM41.195 36.055C41.09 36.055 41.02 36.02 40.915 35.985C40.705 35.845 40.635 35.53 40.775 35.32C41.72 33.885 41.545 32.415 41.37 31.015C41.3 30.42 41.23 29.79 41.23 29.16C41.265 28.53 41.335 28.04 41.405 27.55C41.51 26.955 41.58 26.43 41.545 25.765C41.545 25.485 41.755 25.275 42 25.24C42.28 25.24 42.49 25.45 42.525 25.695C42.56 26.465 42.455 27.06 42.385 27.69C42.315 28.145 42.245 28.635 42.21 29.195C42.21 29.72 42.245 30.28 42.315 30.875C42.49 32.38 42.7 34.095 41.545 35.845C41.51 35.95 41.335 36.055 41.195 36.055Z" fill="white"/>
</svg>
