<svg width="66" height="66" viewBox="0 0 66 66" fill="none" xmlns="http://www.w3.org/2000/svg">
<circle cx="32.9183" cy="32.9183" r="32.9183" fill="#F5F5F5"/>
<g clip-path="url(#clip0_531_2)">
<path d="M33 53C44.0457 53 53 44.0457 53 33C53 21.9543 44.0457 13 33 13C21.9543 13 13 21.9543 13 33C13 44.0457 21.9543 53 33 53Z" fill="#61CAEB"/>
<path fill-rule="evenodd" clip-rule="evenodd" d="M20.0107 42.3723L19.7554 42.1702V33.0745C19.7554 24.2766 19.766 23.9681 19.9575 23.7553L20.1596 23.5319H28.8511C37.1383 23.5319 37.5532 23.5425 37.7128 23.7234C37.9575 23.9894 37.9362 24.4149 37.6703 24.6596C37.4575 24.8511 37.149 24.8617 29.9043 24.8936C25.7554 24.9043 22.3618 24.9574 22.3618 24.9894C22.3618 25.0319 23.3937 26.1064 24.649 27.3617C27.0958 29.8191 27.2022 29.9787 26.7022 30.4468C26.2235 30.8936 26.0852 30.7979 23.6703 28.4043C22.4256 27.1596 21.3511 26.117 21.2979 26.1064C21.2235 26.0745 21.2022 28.6064 21.2128 33.6064L21.2447 41.1383L32.3511 41.1702C38.8511 41.1808 43.5107 41.1489 43.5639 41.0957C43.6171 41.0426 42.7235 40.0745 41.3618 38.7128C38.9149 36.266 38.7766 36.0638 39.2554 35.6277C39.7447 35.1808 39.9362 35.3085 42.3086 37.6808C43.532 38.9149 44.5958 39.9149 44.6703 39.9149C44.766 39.9149 44.8086 39.0106 44.8298 36.0745L44.8618 32.234L45.1171 32.0319C45.4256 31.7766 45.6809 31.7766 45.9894 32.0319L46.2447 32.234V37.1808C46.2447 41.8936 46.2341 42.1383 46.0426 42.3511L45.8405 42.5745H33.0532C20.6171 42.5745 20.2554 42.5638 20.0107 42.3723ZM23.3618 39.1915C23.1277 39.0319 23.0001 38.6596 23.0958 38.4043C23.149 38.266 24.5001 36.8511 26.1064 35.2553C28.5426 32.8404 29.0639 32.3617 29.3192 32.3617C29.5639 32.3617 29.9256 32.6596 31.2341 33.9574C32.1277 34.8298 32.9256 35.5532 33.0107 35.5532C33.149 35.5532 43.6383 25.1489 43.6383 25C43.6383 24.9681 43.1064 24.9149 42.4575 24.8936C41.3724 24.8617 41.266 24.8404 41.0745 24.6064C40.8192 24.2872 40.8192 24.0106 41.0852 23.7447C41.3937 23.4362 45.7341 23.4149 46.0107 23.7234C46.1703 23.8936 46.1915 24.234 46.1915 26.2234V28.5319L45.9149 28.7021C45.7128 28.8404 45.5745 28.8617 45.3618 28.7872C44.9256 28.6383 44.8086 28.2766 44.8086 27.117C44.8086 26.4681 44.766 26.0851 44.7022 26.1064C44.649 26.117 42.0745 28.6596 38.9788 31.7447C33.8086 36.9255 33.3405 37.3617 33.0107 37.3617C32.6915 37.3617 32.4681 37.1808 30.9681 35.6915L29.2766 34.0319L26.6596 36.6489C24.0001 39.3085 23.7873 39.4787 23.3618 39.1915Z" fill="white"/>
</g>
<defs>
<clipPath id="clip0_531_2">
<rect width="40" height="40" fill="white" transform="translate(13 13)"/>
</clipPath>
</defs>
</svg>
