<svg width="66" height="66" viewBox="0 0 66 66" fill="none" xmlns="http://www.w3.org/2000/svg">
<circle cx="32.9183" cy="32.9183" r="32.9183" fill="#F5F5F5"/>
<g clip-path="url(#clip0_512_2)">
<path d="M35.5474 13.1629C31.6239 12.6591 27.6391 13.33 24.0969 15.0909C20.5547 16.8519 17.6143 19.6236 15.6474 23.0557C13.6806 26.4879 12.7757 30.4261 13.0472 34.3725C13.3186 38.3189 14.7543 42.0963 17.1725 45.2266C19.5908 48.3571 22.8831 50.7001 26.633 51.9595C30.3829 53.2188 34.422 53.3378 38.2396 52.3015C42.0571 51.2651 45.4818 49.12 48.0801 46.1374C50.6785 43.1546 52.334 39.4685 52.8374 35.5449C53.5122 30.2841 52.0699 24.9707 48.8274 20.7734C45.585 16.576 40.8081 13.8385 35.5474 13.1629Z" fill="#FF6C37"/>
<path d="M27.4594 34.264C27.4671 34.2799 27.4802 34.2925 27.4962 34.2998C27.5122 34.3071 27.5304 34.3086 27.5474 34.304L30.7474 33.614L29.4014 32.25L27.4834 34.168C27.4682 34.1783 27.4575 34.1936 27.453 34.2114C27.4486 34.2291 27.4509 34.2479 27.4594 34.264Z" fill="white"/>
<path d="M42.4433 20.5241C41.9975 20.5245 41.5572 20.625 41.1552 20.8181C40.7533 21.0112 40.3997 21.292 40.1206 21.6398C39.8416 21.9876 39.644 22.3936 39.5426 22.8278C39.4412 23.2621 39.4385 23.7136 39.5346 24.149C39.6307 24.5845 39.8233 24.9929 40.0982 25.344C40.3731 25.6952 40.7232 25.9803 41.1228 26.1782C41.5225 26.3762 41.9613 26.4819 42.4072 26.4878C42.8531 26.4937 43.2947 26.3994 43.6993 26.2121L41.6713 24.1841C41.6481 24.1608 41.6296 24.1333 41.617 24.1029C41.6045 24.0725 41.598 24.0399 41.598 24.0071C41.598 23.9742 41.6045 23.9416 41.617 23.9112C41.6296 23.8809 41.6481 23.8533 41.6713 23.8301L44.3213 21.1821C43.7892 20.7542 43.1262 20.5219 42.4433 20.5241Z" fill="white"/>
<path d="M44.6854 21.526L42.2014 24L44.1494 25.948C44.2929 25.8473 44.4268 25.7334 44.5494 25.608C45.0833 25.0705 45.394 24.3509 45.4193 23.5937C45.4445 22.8365 45.1823 22.0979 44.6854 21.526Z" fill="white"/>
<path d="M39.7153 26.0921H39.6713C39.6197 26.0917 39.5681 26.0963 39.5173 26.1061H39.4993C39.4436 26.1181 39.3888 26.1341 39.3353 26.1541L39.2933 26.1741C39.2531 26.1908 39.2143 26.2109 39.1773 26.2341L39.1333 26.2621C39.085 26.2954 39.0395 26.3329 38.9973 26.3741L31.6313 33.7421L32.5433 34.6541L40.3433 27.8081C40.3875 27.7694 40.4276 27.7266 40.4633 27.6801L40.4973 27.6361C40.524 27.5971 40.5481 27.5563 40.5693 27.5141C40.5813 27.4901 40.5913 27.4661 40.6013 27.4421C40.6148 27.4102 40.6261 27.3774 40.6353 27.3441C40.6353 27.3201 40.6493 27.2961 40.6553 27.2721C40.6652 27.2226 40.6718 27.1724 40.6753 27.1221V27.0561C40.6753 27.0201 40.6753 26.9841 40.6753 26.9481C40.6753 26.9121 40.6753 26.9001 40.6653 26.8761C40.6283 26.6873 40.5362 26.5138 40.4006 26.3774C40.265 26.2411 40.0918 26.1481 39.9033 26.1101H39.8653C39.8158 26.1006 39.7657 26.0946 39.7153 26.0921Z" fill="white"/>
<path d="M29.7454 31.8961L31.2574 33.4001L38.6434 26.0141C38.8837 25.7791 39.1969 25.6331 39.5314 25.6001C38.2254 24.6001 36.8014 24.8621 29.7454 31.8961Z" fill="white"/>
<path d="M40.7594 28.0961L40.6694 28.1841L32.8694 35.0281L34.1954 36.3521C37.4834 33.2421 40.4014 30.2801 40.7594 28.0961Z" fill="white"/>
<path d="M21.3035 44.13C21.3075 44.1441 21.3158 44.1568 21.3273 44.166C21.3387 44.1754 21.3527 44.1809 21.3675 44.182L24.7674 44.416L22.8614 42.51L21.3195 44.05C21.3095 44.0604 21.3026 44.0735 21.2998 44.0876C21.297 44.1019 21.2982 44.1165 21.3035 44.13Z" fill="white"/>
<path d="M23.2174 42.156L25.2274 44.166C25.2513 44.1915 25.2832 44.208 25.3178 44.2127C25.3524 44.2175 25.3876 44.2101 25.4174 44.192C25.4486 44.1765 25.4734 44.1507 25.4876 44.119C25.5019 44.0872 25.5046 44.0515 25.4954 44.018L25.1574 42.574C25.1355 42.4804 25.1455 42.3821 25.1857 42.2949C25.2259 42.2076 25.294 42.1362 25.3794 42.092C28.9034 40.326 31.7454 38.508 33.8314 36.692L32.4314 35.292L29.4314 35.938L23.2174 42.156Z" fill="white"/>
<path d="M32.0014 34.8681L31.2494 34.1161L30.2094 35.1541C30.2019 35.1631 30.1978 35.1745 30.1978 35.1861C30.1978 35.1978 30.2019 35.2091 30.2094 35.2181C30.2143 35.2287 30.2228 35.2373 30.2335 35.2421C30.2441 35.2468 30.2561 35.2476 30.2674 35.2441L32.0014 34.8681Z" fill="white"/>
<path d="M44.7554 23.138C44.7452 23.1065 44.7283 23.0776 44.7059 23.0532C44.6837 23.0288 44.6563 23.0095 44.6258 22.9965C44.5954 22.9835 44.5625 22.9772 44.5294 22.978C44.4963 22.9787 44.4638 22.9866 44.4339 23.001C44.4042 23.0154 44.3778 23.036 44.3565 23.0615C44.3354 23.0869 44.3199 23.1166 44.3112 23.1485C44.3024 23.1804 44.3005 23.2139 44.3058 23.2465C44.311 23.2792 44.3232 23.3104 44.3414 23.338C44.4012 23.4583 44.4249 23.5933 44.4097 23.7267C44.3944 23.8602 44.3408 23.9863 44.2554 24.09C44.2274 24.1239 44.2095 24.165 44.204 24.2087C44.1984 24.2523 44.2054 24.2966 44.224 24.3364C44.2427 24.3763 44.2723 24.41 44.3094 24.4336C44.3464 24.4573 44.3895 24.4699 44.4334 24.47C44.4674 24.4697 44.5009 24.462 44.5317 24.4475C44.5624 24.433 44.5895 24.412 44.6114 24.386C44.753 24.2139 44.8419 24.0046 44.8674 23.7832C44.8929 23.5619 44.854 23.3378 44.7554 23.138Z" fill="#FF6C37"/>
</g>
<defs>
<clipPath id="clip0_512_2">
<rect width="40" height="40" fill="white" transform="translate(13 13)"/>
</clipPath>
</defs>
</svg>
