<svg width="66" height="66" viewBox="0 0 66 66" fill="none" xmlns="http://www.w3.org/2000/svg">
<circle cx="32.9183" cy="32.9183" r="32.9183" fill="#F5F5F5"/>
<g clip-path="url(#clip0_4844_39)">
<path fill-rule="evenodd" clip-rule="evenodd" d="M53 48.6485V50.4765C52.1586 50.4765 51.4765 51.1586 51.4765 52H49.6485C49.6485 51.1586 48.9664 50.4765 48.125 50.4765C47.2836 50.4765 46.6015 51.1586 46.6015 52H44.7735C44.7735 51.1586 44.0914 50.4765 43.25 50.4765C42.4086 50.4765 41.7265 51.1586 41.7265 52H39.8985C39.8985 51.1586 39.2164 50.4765 38.375 50.4765C37.5336 50.4765 36.8515 51.1586 36.8515 52H35.0235C35.0235 51.1586 34.3414 50.4765 33.5 50.4765C32.6586 50.4765 31.9765 51.1586 31.9765 52H30.1485C30.1485 51.1586 29.4664 50.4765 28.625 50.4765C27.7836 50.4765 27.1015 51.1586 27.1015 52H25.2734C25.2734 51.1586 24.5914 50.4765 23.75 50.4765C22.9086 50.4765 22.2266 51.1586 22.2266 52H20.3984C20.3984 51.4557 20.1081 50.9528 19.6367 50.6806C19.1654 50.4085 18.5846 50.4085 18.1133 50.6806C17.6419 50.9528 17.3516 51.4557 17.3516 52H15.5234C15.5234 51.1586 14.8414 50.4765 14 50.4765V48.6485C14.8414 48.6485 15.5234 47.9664 15.5234 47.125C15.5234 46.2836 14.8414 45.6015 14 45.6015V43.7735C14.8414 43.7735 15.5234 43.0914 15.5234 42.25C15.5234 41.4086 14.8414 40.7265 14 40.7265V38.8985C14.8414 38.8985 15.5234 38.2164 15.5234 37.375C15.5234 36.5336 14.8414 35.8515 14 35.8515V34.0235C14.8414 34.0235 15.5234 33.3414 15.5234 32.5C15.5234 31.6586 14.8414 30.9765 14 30.9765V29.1485C14.8414 29.1485 15.5234 28.4664 15.5234 27.625C15.5234 26.7836 14.8414 26.1015 14 26.1015V24.2734C14.8414 24.2734 15.5234 23.5914 15.5234 22.75C15.5234 21.9086 14.8414 21.2266 14 21.2266V19.3984C14.8414 19.3984 15.5234 18.7164 15.5234 17.875C15.5234 17.0336 14.8414 16.3516 14 16.3516V14.5234C14.8414 14.5234 15.5234 13.8414 15.5234 13H17.3516C17.3516 13.8414 18.0336 14.5234 18.875 14.5234C19.7164 14.5234 20.3984 13.8414 20.3984 13H22.2266C22.2266 13.8414 22.9086 14.5234 23.75 14.5234C24.5914 14.5234 25.2734 13.8414 25.2734 13H27.1015C27.1015 13.8414 27.7836 14.5234 28.625 14.5234C29.4664 14.5234 30.1485 13.8414 30.1485 13H31.9765C31.9765 13.8414 32.6586 14.5234 33.5 14.5234C34.3414 14.5234 35.0235 13.8414 35.0235 13H36.8515C36.8515 13.8414 37.5336 14.5234 38.375 14.5234C39.2164 14.5234 39.8985 13.8414 39.8985 13H41.7265C41.7265 13.8414 42.4086 14.5234 43.25 14.5234C44.0914 14.5234 44.7735 13.8414 44.7735 13H46.6015C46.6015 13.8414 47.2836 14.5234 48.125 14.5234C48.9664 14.5234 49.6485 13.8414 49.6485 13H51.4765C51.4765 13.8414 52.1586 14.5234 53 14.5234V16.3516C52.1586 16.3516 51.4765 17.0336 51.4765 17.875C51.4765 18.7164 52.1586 19.3984 53 19.3984V21.2266C52.1586 21.2266 51.4765 21.9086 51.4765 22.75C51.4765 23.5914 52.1586 24.2734 53 24.2734V26.1015C52.1586 26.1015 51.4765 26.7836 51.4765 27.625C51.4765 28.4664 52.1586 29.1485 53 29.1485V30.9765C52.4557 30.9765 51.9528 31.2669 51.6806 31.7383C51.4085 32.2096 51.4085 32.7904 51.6806 33.2617C51.9528 33.733 52.4557 34.0235 53 34.0235V35.8515C52.1586 35.8515 51.4765 36.5336 51.4765 37.375C51.4765 38.2164 52.1586 38.8985 53 38.8985V40.7265C52.1586 40.7265 51.4765 41.4086 51.4765 42.25C51.4765 43.0914 52.1586 43.7735 53 43.7735V45.6015C52.1586 45.6015 51.4765 46.2836 51.4765 47.125C51.4765 47.9664 52.1586 48.6485 53 48.6485Z" fill="#FFDE00"/>
<path d="M25.3145 40.7943H26.5304C27.1548 40.7943 27.5491 40.3915 27.5491 39.7535V25.5173C27.5491 24.8794 27.1548 24.4765 26.5304 24.4765H25.3145V21.3203H34.1218C38.8541 21.3203 42.6004 23.7714 42.6004 28.4385C42.6004 33.139 38.8541 35.5902 34.1218 35.5902H31.0984V39.7535C31.0984 40.3915 31.4927 40.7943 32.15 40.7943H34.6146V43.9841H25.3145V40.7943ZM33.8588 32.2996C36.9809 32.2996 38.7883 30.9566 38.7883 28.5056C38.7883 25.9874 36.9809 24.7115 33.8588 24.7115H31.0984V32.3333H33.8588V32.2996Z" fill="black"/>
</g>
<defs>
<clipPath id="clip0_4844_39">
<rect width="39" height="39" fill="white" transform="translate(14 13)"/>
</clipPath>
</defs>
</svg>
