<svg width="66" height="66" viewBox="0 0 66 66" fill="none" xmlns="http://www.w3.org/2000/svg">
<circle cx="32.9183" cy="32.9183" r="32.9183" fill="#F5F5F5"/>
<g clip-path="url(#clip0_381_2)">
<path fill-rule="evenodd" clip-rule="evenodd" d="M32.8998 11.0055C32.5168 11.1068 32.1768 11.3109 31.8644 11.6271C31.5824 11.9125 31.5279 12.0006 30.0297 14.5901C28.8932 16.5546 28.4753 17.2477 28.446 17.2165C28.4242 17.1932 28.0909 16.6368 27.7053 15.9802C27.3197 15.3236 27.0005 14.7816 26.9957 14.7757C26.9911 14.7697 26.7772 14.8928 26.5208 15.0492C25.4275 15.7153 24.8891 16.5449 24.7795 17.7316C24.7341 18.2235 24.8665 18.9133 25.0936 19.3688C25.1516 19.4849 26.5089 21.7991 28.11 24.5114C29.711 27.2236 31.0279 29.4683 31.0363 29.4996C31.0447 29.5308 29.7368 31.7872 28.13 34.5138C26.523 37.2403 25.1664 39.5549 25.115 39.6572C24.9209 40.0447 24.8407 40.5673 24.907 41.0143C25.0255 41.8134 25.4829 42.4631 26.1607 42.7948C26.7187 43.0681 26.2739 43.0522 33.3902 43.0522C40.5053 43.0522 40.0609 43.068 40.6197 42.7954C41.2936 42.4666 41.7534 41.8131 41.873 41.0143C41.939 40.5735 41.8598 40.0452 41.6715 39.6695C41.6236 39.5738 39.1617 35.3906 36.2007 30.3735C33.2398 25.3563 30.8171 21.2348 30.8171 21.2146C30.8172 21.1944 31.4203 20.1402 32.1573 18.8718C33.4971 16.5657 33.4971 16.5657 33.5889 16.7215C33.6395 16.8072 37.4836 23.4238 42.1314 31.425L50.5819 45.9725L42.0285 45.9817C37.3241 45.9868 29.6367 45.9868 24.9453 45.9817L16.4155 45.9725L21.1527 37.8178C24.1254 32.7006 25.9298 29.5582 25.9973 29.3815C26.2008 28.8484 26.2621 28.216 26.1639 27.6612C25.9868 26.6589 25.4299 25.8857 24.4776 25.3195C24.2312 25.173 24.0105 25.0539 23.9872 25.0548C23.9484 25.0562 11.7488 46.0222 11.4737 46.5604C10.8846 47.7126 11.3392 49.1829 12.4556 49.7354C12.6204 49.817 12.8527 49.9087 12.9718 49.9392C13.1636 49.9885 15.5055 49.9946 33.4991 49.9946C51.4928 49.9946 53.8347 49.9885 54.0266 49.9392C55.0273 49.6829 55.7209 48.8314 55.7777 47.7893C55.8017 47.3502 55.7305 46.9951 55.5403 46.6039C55.4662 46.4514 50.9099 38.5855 45.4151 29.124C35.4247 11.9213 35.4247 11.9213 35.134 11.6271C34.8162 11.3054 34.4774 11.1045 34.082 11.0033C33.8085 10.9333 33.1684 10.9345 32.8998 11.0055ZM35.0408 36.2579C36.6768 39.03 36.6768 39.03 35.0453 39.0395C34.1481 39.0448 32.668 39.0448 31.7564 39.0395C30.0989 39.03 30.0989 39.03 31.5392 36.5873C32.3314 35.2438 33.0694 33.9905 33.1793 33.8022C33.2893 33.614 33.3849 33.4658 33.3919 33.4729C33.399 33.48 34.141 34.7333 35.0408 36.2579Z" fill="url(#paint0_linear_381_2)"/>
</g>
<defs>
<linearGradient id="paint0_linear_381_2" x1="55.7821" y1="30.4731" x2="11.215" y2="30.4731" gradientUnits="userSpaceOnUse">
<stop offset="0" stop-color="#65D5DA"/>
<stop offset="1" stop-color="#4573AE"/>
</linearGradient>
<clipPath id="clip0_381_2">
<rect width="45" height="39" fill="white" transform="translate(11 11)"/>
</clipPath>
</defs>
</svg>
