<svg width="66" height="66" viewBox="0 0 66 66" fill="none" xmlns="http://www.w3.org/2000/svg">
<circle cx="32.9183" cy="32.9183" r="32.9183" fill="#F5F5F5"/>
<path d="M21.218 51.1167C16.9831 51.1167 14 48.1203 14 43.8987V22.2313C14 17.9964 16.9964 15 21.218 15H44.1239C48.3588 15 51.3552 17.9964 51.3552 22.2313V29.4094H43.8708L39.3829 21.6187H26.2253L19.5667 33.0717L26.2253 44.5246H39.3829L43.8708 36.7339H51.3552V43.912C51.3552 48.1469 48.3588 51.13 44.1239 51.13H21.218V51.1167Z" fill="black"/>
<path d="M36.2933 26.9723L39.849 33.0583L36.2933 39.1444H29.275L25.706 33.0583L29.275 26.9723H36.2933Z" fill="#FF5200"/>
</svg>
