<svg width="66" height="66" viewBox="0 0 66 66" fill="none" xmlns="http://www.w3.org/2000/svg">
<circle cx="32.9183" cy="32.9183" r="32.9183" fill="#F5F5F5"/>
<path d="M18.4775 49.8441L9.25615 34.3016C8.73559 33.4092 9.03305 32.2194 9.92544 31.6988L17.2133 27.3856C18.1057 26.865 19.2956 27.1625 19.8161 28.0549L25.0217 36.8301L30.3017 27.5343C36.9947 16.5281 43.9851 28.7242 40.7873 33.8554L31.566 49.7698C30.7479 51.1083 29.335 52.0007 27.7733 52.0007H22.2702C20.7085 52.0007 19.2212 51.1827 18.4775 49.8441Z" fill="url(#paint0_linear_2688_64)"/>
<path d="M57.2963 38.169C57.2963 41.9616 54.173 45.085 50.3803 45.085C46.5876 45.085 43.4643 41.9616 43.4643 38.169C43.4643 34.3763 46.5876 31.2529 50.3803 31.2529C54.173 31.2529 57.2963 34.3019 57.2963 38.169ZM28.7398 43.1515C30.2271 45.7543 33.9454 45.6799 35.5071 43.1515L40.8614 33.9301C43.6874 29.3938 46.8107 26.9397 50.7521 26.3448C51.7189 26.196 52.6856 25.9729 52.9087 24.56L54.3961 16.3053C54.6192 15.1155 53.7268 14 52.5369 14C45.3234 14 36.92 16.8259 30.3758 27.609L25.0215 36.8304L28.7398 43.1515Z" fill="url(#paint1_linear_2688_64)"/>
<defs>
<linearGradient id="paint0_linear_2688_64" x1="13.0234" y1="14.2292" x2="35.7453" y2="47.1368" gradientUnits="userSpaceOnUse">
<stop stop-color="#AB40FF"/>
<stop offset="1" stop-color="#5D2BFF"/>
</linearGradient>
<linearGradient id="paint1_linear_2688_64" x1="52.7234" y1="20.6833" x2="36.0906" y2="45.3004" gradientUnits="userSpaceOnUse">
<stop stop-color="#AB40FF"/>
<stop offset="1" stop-color="#2D00AD"/>
</linearGradient>
</defs>
</svg>
