<svg width="66" height="66" viewBox="0 0 66 66" fill="none" xmlns="http://www.w3.org/2000/svg">
<circle cx="32.9183" cy="32.9183" r="32.9183" fill="#F5F5F5"/>
<g clip-path="url(#clip0_391_2)">
<path d="M10.774 31.6325L30.6325 11.7739C30.8776 11.5287 31.1687 11.3342 31.489 11.2014C31.8093 11.0687 32.1526 11.0004 32.4994 11.0004C32.8461 11.0004 33.1894 11.0687 33.5097 11.2014C33.83 11.3342 34.1211 11.5287 34.3662 11.7739L54.226 31.6325C54.4712 31.8776 54.6657 32.1686 54.7984 32.4889C54.9311 32.8093 54.9994 33.1526 54.9994 33.4993C54.9994 33.846 54.9311 34.1893 54.7984 34.5097C54.6657 34.83 54.4712 35.121 54.226 35.3661L34.3662 55.2259C33.871 55.7208 33.1995 55.9989 32.4994 55.9989C31.7992 55.9989 31.1277 55.7208 30.6325 55.2259L10.774 35.3661C10.5287 35.121 10.3342 34.83 10.2015 34.5097C10.0688 34.1893 10.0005 33.846 10.0005 33.4993C10.0005 33.1526 10.0688 32.8093 10.2015 32.4889C10.3342 32.1686 10.5287 31.8776 10.774 31.6325Z" fill="#1B3E67"/>
<path d="M33.0592 20.6348C30.6537 20.6348 28.3467 21.5904 26.6457 23.2913C24.9447 24.9923 23.9891 27.2993 23.9891 29.7049C23.9891 29.9483 24.0001 30.1917 24.0183 30.435V45.8018L31.2253 38.5949C31.8288 38.7179 32.4432 38.7798 33.0592 38.7798C35.4647 38.7798 37.7716 37.8244 39.4728 36.1238C41.1739 34.4231 42.1299 32.1164 42.1305 29.7109C42.1312 28.5193 41.897 27.3392 41.4414 26.238C40.9858 25.1369 40.3178 24.1363 39.4753 23.2934C38.6329 22.4505 37.6327 21.7819 36.5318 21.3257C35.4309 20.8696 34.2509 20.6348 33.0592 20.6348Z" fill="#EDEEEF"/>
<path d="M33.0605 23.4935C34.2399 23.4935 35.3928 23.8432 36.3734 24.4984C37.3541 25.1537 38.1184 26.085 38.5697 27.1746C39.021 28.2643 39.1391 29.4633 38.909 30.62C38.679 31.7767 38.111 32.8393 37.2771 33.6732C36.4431 34.5072 35.3806 35.0751 34.2238 35.3052C33.0671 35.5353 31.8681 35.4172 30.7785 34.9659C29.6888 34.5145 28.7575 33.7502 28.1023 32.7696C27.447 31.789 27.0973 30.636 27.0973 29.4566C27.0973 27.8751 27.7256 26.3584 28.8439 25.24C29.9622 24.1217 31.4789 23.4935 33.0605 23.4935Z" fill="#3E5379"/>
</g>
<defs>
<clipPath id="clip0_391_2">
<rect width="45" height="45" fill="white" transform="translate(10 11)"/>
</clipPath>
</defs>
</svg>
