<svg width="66" height="66" viewBox="0 0 66 66" fill="none" xmlns="http://www.w3.org/2000/svg">
<circle cx="32.9183" cy="32.9183" r="32.9183" fill="#F5F5F5"/>
<mask id="mask0_4647_148" style="mask-type:luminance" maskUnits="userSpaceOnUse" x="9" y="9" width="48" height="48">
<path d="M57 9H9V57H57V9Z" fill="white"/>
</mask>
<g mask="url(#mask0_4647_148)">
<path d="M33 57C46.2548 57 57 46.2548 57 33C57 19.7452 46.2548 9 33 9C19.7452 9 9 19.7452 9 33C9 46.2548 19.7452 57 33 57Z" fill="#50FAAB"/>
<path d="M29.3992 18.6016L22.1992 25.8015H29.3992V33.0015L22.1992 40.2015H29.3992V47.4015L36.5992 40.2015H29.3992V33.0015L36.5992 25.8015H29.3992V18.6016Z" fill="white"/>
<path fill-rule="evenodd" clip-rule="evenodd" d="M36.5992 40.2015C38.0175 40.2015 39.4219 39.9222 40.7322 39.3794C42.0425 38.8367 43.2331 38.0412 44.236 37.0383C45.2388 36.0354 46.0344 34.8448 46.5771 33.5345C47.1199 32.2242 47.3992 30.8198 47.3992 29.4015C47.3992 27.9833 47.1199 26.5789 46.5771 25.2686C46.0344 23.9582 45.2388 22.7677 44.236 21.7648C43.2331 20.7619 42.0425 19.9664 40.7322 19.4236C39.4219 18.8809 38.0175 18.6016 36.5992 18.6016H29.3992V25.8015H22.1992V33.0015H29.3992V40.2015H22.1992V47.4015H29.3992V40.2015H36.5992ZM36.5992 33.0015V25.8015H29.3992V33.0015H36.5992Z" fill="black"/>
</g>
</svg>
