<svg width="66" height="66" viewBox="0 0 66 66" fill="none" xmlns="http://www.w3.org/2000/svg">
<circle cx="32.9183" cy="32.9183" r="32.9183" fill="#F5F5F5"/>
<g clip-path="url(#clip0_4843_31)">
<path d="M33.1983 40.2025C37.1607 35.6132 36.6681 28.6687 32.1037 24.6847C27.5393 20.7007 20.6325 21.196 16.6701 25.7853C12.7077 30.3745 13.2003 37.319 17.7647 41.303C19.3987 42.7312 21.4179 43.639 23.566 43.9113V40.0484C19.6912 39.289 17.1517 35.5251 17.907 31.6182C18.6622 27.7112 22.4057 25.1689 26.2915 25.9283C30.1773 26.6877 32.7057 30.4516 31.9505 34.3585C31.6811 35.7671 30.9979 37.0621 29.9892 38.0764C28.9804 39.0906 27.6924 39.7775 26.2915 40.0484V43.9994H37.2483V40.2025H33.1983ZM38.6012 40.2047L46.9528 31.9946C47.1937 31.7524 47.4454 31.4883 47.7081 31.2132C47.9708 30.938 48.2116 30.6519 48.4196 30.3437C48.6385 30.0466 48.8136 29.7274 48.9669 29.3863C49.1092 29.0561 49.1748 28.6929 49.1748 28.3297C49.1858 27.9225 49.0982 27.5043 48.9121 27.1411C48.746 26.7991 48.5131 26.4942 48.2273 26.2446C47.9414 25.995 47.6085 25.8058 47.2484 25.6884C46.8653 25.5563 46.4493 25.4793 46.0443 25.4903C45.2234 25.4573 44.4134 25.7434 43.7895 26.2827C43.1875 26.844 42.8044 27.6034 42.7278 28.4178L38.8967 28.1096C38.9514 27.1852 39.2032 26.2937 39.6082 25.4683C39.9803 24.7309 40.5057 24.0816 41.1406 23.5533C41.7864 23.0361 42.5307 22.6399 43.3298 22.3978C44.2054 22.1226 45.1139 21.9906 46.0334 22.0016C46.9528 22.0016 47.8723 22.1226 48.7589 22.3868C49.558 22.6179 50.3023 23.0031 50.959 23.5203C51.5939 24.0266 52.1083 24.6869 52.4477 25.4353C52.8308 26.2937 53.0168 27.2182 52.9949 28.1536C53.0301 29.3968 52.707 30.6236 52.0645 31.6864C51.3969 32.7319 50.5978 33.6784 49.6784 34.5148L43.3954 40.2157H52.9949V44.0126H38.6012V40.2047Z" fill="black"/>
</g>
<defs>
<clipPath id="clip0_4843_31">
<rect width="39" height="22" fill="white" transform="translate(14 22)"/>
</clipPath>
</defs>
</svg>
