<?xml version="1.0" encoding="UTF-8" standalone="no"?>
<!DOCTYPE svg PUBLIC "-//W3C//DTD SVG 1.1//EN" "http://www.w3.org/Graphics/SVG/1.1/DTD/svg11.dtd">
<svg xmlns="http://www.w3.org/2000/svg" version="1.1" viewBox="0.00 0.00 180.00 180.00" width="128" height="128">
<g stroke-width="2.00" fill="none" stroke-linecap="butt">
<path stroke="#8e8c88" vector-effect="non-scaling-stroke" d="
  M 99.94 123.75
  Q 100.35 123.60 104.17 122.64
  C 130.14 116.09 137.58 89.12 132.06 65.90
  C 128.22 49.76 117.19 37.43 101.38 33.35
  C 86.65 29.54 70.43 32.83 59.60 43.56
  C 46.51 56.54 43.46 77.62 48.51 95.02
  C 52.17 107.64 60.16 114.79 71.38 120.66
  A 0.70 0.70 0.0 0 1 71.55 121.78
  C 67.92 125.39 65.54 130.26 67.61 135.26
  Q 68.50 137.42 70.58 137.10
  A 1.39 1.38 11.2 0 0 71.59 136.43
  C 73.63 133.02 75.29 129.42 79.04 129.67
  Q 81.60 129.83 84.37 131.89
  Q 86.62 133.56 98.17 142.56
  C 106.90 149.36 118.57 152.37 125.73 141.94
  C 128.61 137.77 129.70 131.41 127.40 126.88
  A 1.54 1.54 0.0 0 0 124.79 126.66
  Q 123.55 128.33 122.26 129.44
  C 117.04 133.93 104.95 127.59 99.85 124.90
  A 0.63 0.63 0.0 0 1 99.94 123.75"
/>
<path stroke="#8e8c88" vector-effect="non-scaling-stroke" d="
  M 84.78 43.44
  C 75.57 44.98 71.54 55.75 70.70 64.28
  C 69.82 73.34 70.85 82.97 73.51 92.11
  C 76.59 102.70 84.12 113.85 96.19 111.83
  C 108.25 109.82 111.76 96.84 111.24 85.82
  C 110.79 76.31 108.64 66.87 104.86 58.59
  C 101.31 50.79 93.99 41.91 84.78 43.44"
/>
</g>
<circle cx="90" cy="90" r="90" fill="#FFFFFF"/>
<path fill="#221f1f" d="
  M 99.94 123.75
  A 0.63 0.63 0.0 0 0 99.85 124.90
  C 104.95 127.59 117.04 133.93 122.26 129.44
  Q 123.55 128.33 124.79 126.66
  A 1.54 1.54 0.0 0 1 127.40 126.88
  C 129.70 131.41 128.61 137.77 125.73 141.94
  C 118.57 152.37 106.90 149.36 98.17 142.56
  Q 86.62 133.56 84.37 131.89
  Q 81.60 129.83 79.04 129.67
  C 75.29 129.42 73.63 133.02 71.59 136.43
  A 1.39 1.38 11.2 0 1 70.58 137.10
  Q 68.50 137.42 67.61 135.26
  C 65.54 130.26 67.92 125.39 71.55 121.78
  A 0.70 0.70 0.0 0 0 71.38 120.66
  C 60.16 114.79 52.17 107.64 48.51 95.02
  C 43.46 77.62 46.51 56.54 59.60 43.56
  C 70.43 32.83 86.65 29.54 101.38 33.35
  C 117.19 37.43 128.22 49.76 132.06 65.90
  C 137.58 89.12 130.14 116.09 104.17 122.64
  Q 100.35 123.60 99.94 123.75
  Z
  M 84.78 43.44
  C 75.57 44.98 71.54 55.75 70.70 64.28
  C 69.82 73.34 70.85 82.97 73.51 92.11
  C 76.59 102.70 84.12 113.85 96.19 111.83
  C 108.25 109.82 111.76 96.84 111.24 85.82
  C 110.79 76.31 108.64 66.87 104.86 58.59
  C 101.31 50.79 93.99 41.91 84.78 43.44
  Z"
/>
<path fill="#FFFFFF" d="
  M 96.19 111.83
  C 84.12 113.85 76.59 102.70 73.51 92.11
  C 70.85 82.97 69.82 73.34 70.70 64.28
  C 71.54 55.75 75.57 44.98 84.78 43.44
  C 93.99 41.91 101.31 50.79 104.86 58.59
  C 108.64 66.87 110.79 76.31 111.24 85.82
  C 111.76 96.84 108.25 109.82 96.19 111.83
  Z"
/>
</svg>