<svg width="66" height="66" viewBox="0 0 66 66" fill="none" xmlns="http://www.w3.org/2000/svg">
<circle cx="32.9183" cy="32.9183" r="32.9183" fill="#F5F5F5"/>
<path d="M29.3518 53.0016H25.4488C24.7737 53.0016 24.2266 52.4545 24.2266 51.7794V33.1714C24.2266 32.4963 24.7737 31.9492 25.4488 31.9492H29.3518C30.0269 31.9492 30.574 32.4963 30.574 33.1714V51.7794C30.574 52.4545 30.0269 53.0016 29.3518 53.0016Z" fill="#FFC36E"/>
<path d="M37.5803 52.9982H33.6773C33.0022 52.9982 32.4551 52.4511 32.4551 51.776V26.9761C32.4551 26.301 33.0022 25.7539 33.6773 25.7539H37.5803C38.2554 25.7539 38.8025 26.301 38.8025 26.9761V51.776C38.8025 52.4511 38.2549 52.9982 37.5803 52.9982Z" fill="#A5D76E"/>
<path d="M21.1252 53.0012H17.2222C16.5471 53.0012 16 52.4541 16 51.779V39.3628C16 38.6877 16.5471 38.1406 17.2222 38.1406H21.1252C21.8003 38.1406 22.3474 38.6877 22.3474 39.3628V51.779C22.3474 52.4541 21.7999 53.0012 21.1252 53.0012Z" fill="#D2555A"/>
<path d="M45.8069 52.9986H41.9038C41.2287 52.9986 40.6816 52.4515 40.6816 51.7764V20.7847C40.6816 20.1096 41.2287 19.5625 41.9038 19.5625H45.8069C46.482 19.5625 47.0291 20.1096 47.0291 20.7847V51.7764C47.0291 52.4515 46.482 52.9986 45.8069 52.9986Z" fill="#78D2BE"/>
<path d="M41.635 20.9897H49.7161C50.5103 20.9897 50.9081 19.9862 50.3463 19.3995L44.4847 13.273C44.1367 12.909 43.5722 12.909 43.2243 13.273L37.3626 19.3991C36.8008 19.9862 37.1986 20.9893 37.9928 20.9893L41.635 20.9897Z" fill="#78D2BE"/>
</svg>
