<svg width="62" height="62" viewBox="0 0 62 62" fill="none" xmlns="http://www.w3.org/2000/svg">
<circle cx="31" cy="31" r="31" fill="#F5F5F5"/>
<g clip-path="url(#clip0_1615_170)">
<path d="M31.5 46C40.0604 46 47 39.0604 47 30.5C47 21.9396 40.0604 15 31.5 15C22.9396 15 16 21.9396 16 30.5C16 39.0604 22.9396 46 31.5 46Z" fill="#2CA01C"/>
<path d="M19.7361 30.495C19.7374 33.9993 22.5633 36.8488 26.0676 36.8798H26.9641V34.5374H26.0676C23.8951 35.1301 21.6544 33.8492 21.0629 31.6767C21.058 31.6594 21.0543 31.642 21.0493 31.6247C20.4405 29.4237 21.7152 27.1433 23.9087 26.5097H24.3564C24.9181 26.3869 25.4997 26.3869 26.0614 26.5097H28.2388V38.9456C28.2277 40.2613 29.2854 41.3376 30.601 41.35V24.047H26.0812C22.5522 24.0656 19.7076 26.9412 19.7262 30.4702V30.4715L19.7361 30.495ZM36.9411 24.0495H36.0446V26.5159H36.9411C39.1087 25.9244 41.3444 27.2016 41.9359 29.3679C41.9408 29.384 41.9445 29.4013 41.9495 29.4175C42.5546 31.611 41.2836 33.8827 39.0987 34.5151H38.6511C38.0894 34.6379 37.5078 34.6379 36.9461 34.5151H34.7687V22.0804C34.7798 20.7647 33.7221 19.6884 32.4065 19.676V37.0038H36.9263C40.4863 36.948 43.3271 34.0179 43.2726 30.4578C43.218 26.9759 40.4094 24.1661 36.9263 24.1115L36.9411 24.0495Z" fill="white"/>
</g>
<defs>
<clipPath id="clip0_1615_170">
<rect width="31" height="31" fill="white" transform="translate(16 15)"/>
</clipPath>
</defs>
</svg>
