<svg width="66" height="66" viewBox="0 0 66 66" fill="none" xmlns="http://www.w3.org/2000/svg">
<circle cx="32.9183" cy="32.9183" r="32.9183" fill="#F5F5F5"/>
<g transform="translate(14.94 2.32) scale(0.85)">
<path d="M0.474743 33.2646L20.7484 43.8648C20.874 43.931 21.0138 43.9656 21.1557 43.9656C21.2976 43.9656 21.4374 43.931 21.563 43.8648L41.837 33.2646C41.98 33.1901 42.0997 33.0778 42.1833 32.9398C42.2669 32.8018 42.3111 32.6435 42.3111 32.4821C42.3111 32.3206 42.2669 32.1623 42.1833 32.0243C42.0997 31.8863 41.98 31.774 41.837 31.6995L21.563 21.0993C21.4368 21.0341 21.2968 21 21.1548 21C21.0128 21 20.8728 21.0341 20.7466 21.0993L0.472994 31.6995C0.330292 31.7742 0.210774 31.8868 0.127434 32.0248C0.0440945 32.1629 0.00012531 32.3212 0.000305729 32.4826C0.000486147 32.644 0.0448106 32.8022 0.128459 32.9401C0.212107 33.0779 0.331874 33.1902 0.474743 33.2646V33.2646Z" fill="#54616C"/>
<path d="M41.8368 38.7346L38.4818 36.9809L22.3774 45.4001C22.0011 45.5968 21.5831 45.6998 21.1587 45.7004C20.7343 45.701 20.316 45.5992 19.9392 45.4036L3.82901 36.9802L0.474494 38.7339C0.331471 38.8084 0.21159 38.9207 0.127919 39.0588C0.0442486 39.1968 0 39.3552 0 39.5167C0 39.6782 0.0442486 39.8366 0.127919 39.9747C0.21159 40.1127 0.331471 40.2251 0.474494 40.2995L20.7481 50.8992C20.8737 50.9654 21.0135 51 21.1554 51C21.2973 51 21.4371 50.9654 21.5627 50.8992L41.8368 40.2995C41.9797 40.2249 42.0994 40.1125 42.183 39.9745C42.2666 39.8365 42.3108 39.6781 42.3108 39.5167C42.3108 39.3553 42.2666 39.1969 42.183 39.0589C42.0994 38.9209 41.9797 38.8085 41.8368 38.7339V38.7346Z" fill="#BAC0C4"/>
</g>
</svg>
