<svg width="66" height="66" viewBox="0 0 66 66" fill="none" xmlns="http://www.w3.org/2000/svg">
<circle cx="32.9183" cy="32.9183" r="32.9183" fill="#F5F5F5"/>
<g clip-path="url(#clip0_193_22)">
<path d="M53.697 13H12.697V53H53.697V13Z" fill="#007FFA"/>
<path fill-rule="evenodd" clip-rule="evenodd" d="M25.8388 21.8958L34.4126 30.2634C36.0039 31.8185 36.0039 34.3376 34.4126 35.8926L25.8388 44.2603C24.9067 45.17 23.3952 45.1702 22.4627 44.2609C21.841 43.6545 21.6112 42.7639 21.8645 41.9427L24.2448 34.2247C24.4755 33.4768 24.4755 32.6792 24.2448 31.9313L21.8645 24.2134C21.4846 22.9817 22.2001 21.6827 23.4626 21.3121C24.3044 21.065 25.2173 21.2892 25.8388 21.8958Z" fill="white" stroke="#007FFA" stroke-width="1.45784"/>
<path fill-rule="evenodd" clip-rule="evenodd" d="M29.945 21.9221L38.405 30.1787C39.9964 31.7338 39.9964 34.2528 38.405 35.8079L29.887 44.1212C29.027 44.9605 27.6324 44.9608 26.7721 44.1218C26.1759 43.5403 25.9722 42.6777 26.2475 41.9003L28.9139 34.3716C29.2108 33.5333 29.2122 32.6223 28.9178 31.7832L26.2475 24.171C25.8476 23.031 26.4707 21.7905 27.6392 21.4003C28.4469 21.1306 29.3415 21.333 29.945 21.9221Z" fill="white" stroke="#007FFA" stroke-width="1.45784"/>
<path fill-rule="evenodd" clip-rule="evenodd" d="M35.5022 21.8397L44.0466 30.1787C45.6379 31.7338 45.6379 34.2529 44.0466 35.8079L35.4434 44.2043C34.518 45.1074 33.0173 45.1077 32.0915 44.2048C31.4735 43.6021 31.2456 42.7164 31.4985 41.9003L33.8772 34.2243C34.1089 33.4767 34.11 32.6791 33.8803 31.9309L31.4985 24.171C31.1175 22.93 31.8399 21.6226 33.112 21.251C33.9591 21.0035 34.877 21.2296 35.5022 21.8397Z" fill="white" stroke="#007FFA" stroke-width="1.45784"/>
</g>
<defs>
<clipPath id="clip0_193_22">
<rect width="41" height="40" fill="white" transform="translate(14 13)"/>
</clipPath>
</defs>
</svg>
