<svg width="66" height="66" viewBox="0 0 66 66" fill="none" xmlns="http://www.w3.org/2000/svg">
<circle cx="32.9183" cy="32.9183" r="32.9183" fill="#F5F5F5"/>
<mask id="mask0_4971_86" style="mask-type:luminance" maskUnits="userSpaceOnUse" x="16" y="15" width="35" height="35">
<path d="M51 15H16V50H51V15Z" fill="white"/>
</mask>
<g mask="url(#mask0_4971_86)">
<path d="M50.937 23.2891C50.9318 23.1697 50.9214 23.0529 50.9111 22.9334C50.9085 22.9049 50.9085 22.8738 50.9032 22.8452C50.8954 22.7725 50.8851 22.7024 50.8747 22.6297C50.8643 22.5544 50.8565 22.4818 50.8461 22.4091C50.8383 22.3572 50.828 22.3052 50.8176 22.2559C50.802 22.165 50.7864 22.0716 50.7682 21.9807C50.7526 21.908 50.7344 21.8379 50.7189 21.7652C50.7033 21.6951 50.6877 21.6277 50.6721 21.5576C50.6539 21.4849 50.6306 21.4148 50.6097 21.3421C50.5916 21.2746 50.5734 21.2097 50.5526 21.1422C50.5293 21.0695 50.5033 20.9968 50.4774 20.9241C50.4565 20.8618 50.4358 20.7995 50.415 20.7372C50.3812 20.6464 50.3449 20.5581 50.3111 20.4698C50.2929 20.4257 50.2773 20.3841 50.2591 20.34C50.2176 20.244 50.1761 20.1505 50.1319 20.0571C50.1163 20.0233 50.1008 19.987 50.0852 19.9532C50.0436 19.8649 49.9968 19.7793 49.9527 19.6936C49.9319 19.6547 49.9138 19.6157 49.893 19.5768C49.8411 19.4807 49.7839 19.3847 49.7293 19.2913C49.7138 19.2653 49.7008 19.2393 49.6852 19.2134C49.6255 19.1147 49.5632 19.0186 49.4982 18.9226C49.4852 18.9018 49.4722 18.8811 49.4592 18.8603C49.3813 18.746 49.3008 18.6319 49.2177 18.5202C49.1398 18.4164 49.0592 18.3125 48.9762 18.2112C48.971 18.2035 48.9658 18.1957 48.958 18.1879C47.3529 16.2435 44.9298 15.0078 42.2158 15.0052V15L42.208 15.0052H42.2105C41.4574 15.0052 40.725 15.1012 40.0264 15.2803C39.6082 15.3868 39.2004 15.527 38.8083 15.6905C38.6784 15.7451 38.5486 15.8047 38.4213 15.8645C35.8423 17.1053 33.9723 19.5768 33.5594 22.5155H33.5542C33.3724 23.7746 32.9854 24.9662 32.4349 26.0617H32.4531C30.5363 29.8622 26.599 32.4712 22.0488 32.4712C20.0178 32.4712 18.1115 31.9521 16.4493 31.0409C16.2545 30.9344 16.0182 31.0746 16.0182 31.2952V32.4712H16V49.9347H33.4738V41.2017H33.4919V36.8352C33.4919 34.4234 35.4476 32.4687 37.8603 32.4687H42.2287C42.9767 32.4687 43.7014 32.3726 44.3948 32.1935C44.813 32.0845 45.2207 31.9468 45.6129 31.7833C45.7427 31.7288 45.8726 31.6691 45.9998 31.6093C48.6723 30.3218 50.589 27.7127 50.9032 24.6312C50.9318 24.3379 50.9474 24.0394 50.9474 23.7382C50.9474 23.5877 50.9448 23.4371 50.937 23.2891Z" fill="black"/>
</g>
</svg>
