<svg width="66" height="66" viewBox="0 0 66 66" fill="none" xmlns="http://www.w3.org/2000/svg">
<circle cx="32.9183" cy="32.9183" r="32.9183" fill="#F5F5F5"/>
<path d="M50.4747 34.6019C50.4747 37.6438 50.1303 40.3414 49.4415 43.3833C48.4084 47.7741 45.3665 50.816 40.9184 51.8204C35.1214 53.1692 28.9802 53.1692 23.2119 51.8204C19.1369 50.816 15.7219 47.4297 15.0331 43.3833C14.3444 40.3414 14 37.2995 14 34.6019C14 31.5599 14.3444 28.8624 15.0331 25.8204C16.0662 21.4297 19.1082 18.3877 23.5563 17.3833C26.2826 16.6946 29.3532 16.3789 32.4239 16.3789C35.4945 16.3789 38.2208 16.7233 41.2914 17.3833C45.7109 18.3877 48.7815 21.4297 49.8146 25.8204C50.1303 28.518 50.4747 31.5599 50.4747 34.6019Z" fill="#F6B802"/>
<path d="M43.5304 32.596C48.6655 32.596 52.8284 28.4331 52.8284 23.298C52.8284 18.1629 48.6655 14 43.5304 14C38.3952 14 34.2324 18.1629 34.2324 23.298C34.2324 28.4331 38.3952 32.596 43.5304 32.596Z" fill="#005AFF"/>
</svg>
