<svg width="71" height="71" viewBox="0 0 71 71" fill="none" xmlns="http://www.w3.org/2000/svg">
<circle cx="33.9183" cy="35.9183" r="32.9183" fill="#F5F5F5"/>
<path d="M21 53.7274V19H36.6273C38.8432 19 40.8441 19.4796 42.6302 20.4387C44.4493 21.3978 45.8714 22.7208 46.8967 24.4076C47.922 26.0612 48.4346 27.9465 48.4346 30.0631C48.4346 32.246 47.922 34.2139 46.8967 35.9668C45.8714 37.6866 44.4657 39.0427 42.6797 40.0348C40.8938 41.027 38.8763 41.5232 36.6273 41.5232H29.0368V53.7274H21ZM40.2489 53.7274L31.4182 38.0505L40.0505 36.8102L49.8733 53.7274H40.2489ZM29.0368 35.0738H35.8831C36.7431 35.0738 37.4873 34.8919 38.1156 34.5281C38.7771 34.1312 39.2732 33.5855 39.6039 32.8909C39.9678 32.1964 40.1496 31.4026 40.1496 30.5097C40.1496 29.6166 39.9512 28.8394 39.5543 28.1779C39.1574 27.4834 38.5787 26.9542 37.818 26.5904C37.0904 26.2266 36.1973 26.0447 35.1389 26.0447H29.0368V35.0738Z" fill="black"/>
</svg>
