<svg width="66" height="66" viewBox="0 0 66 66" fill="none" xmlns="http://www.w3.org/2000/svg">
<circle cx="32.9183" cy="32.9183" r="32.9183" fill="#F5F5F5"/>
<g clip-path="url(#clip0_534_2)">
<path d="M24.894 42.5111C25.7654 43.5497 25.6268 45.1076 24.5573 45.9541C24.1019 46.3195 23.5473 46.5118 22.973 46.5118C22.8938 46.5118 22.7948 46.5118 22.7156 46.4927C22.0422 46.4349 21.4481 46.108 21.0124 45.6078L10.6549 33.3939L10.4964 33.2591V33.2016C9.70429 32.1243 9.88252 30.6624 10.9123 29.8546C11.8035 29.143 13.0116 29.1237 13.9226 29.72L14.0018 29.6431L14.4573 30.1816L24.894 42.5111ZM44.2425 19.5257C43.1733 18.6793 41.589 18.8332 40.7373 19.8526L31.8651 30.3355C31.8057 30.3932 31.7661 30.4316 31.7463 30.4701C30.8749 31.5089 31.0333 33.0668 32.1226 33.9132C32.5781 34.2593 33.1325 34.4516 33.7069 34.4516C33.786 34.4516 33.8852 34.4516 33.9841 34.4325C34.6574 34.3748 35.2515 34.0478 35.6873 33.5476L44.6388 22.9686C45.4902 21.93 45.312 20.3912 44.2425 19.5257Z" fill="#448AFF"/>
<path d="M54.9369 21.7954C54.8577 21.1222 54.521 20.526 53.9863 20.122C53.4516 19.6989 52.7784 19.5065 52.0851 19.5642C51.392 19.6219 50.7781 19.9489 50.3424 20.4875L33.5089 40.5492L24.7753 30.1817C23.8841 29.1431 22.2998 28.9892 21.2303 29.8548C20.7154 30.2779 20.3986 30.8741 20.3392 31.5282C20.2798 32.1821 20.4778 32.8169 20.9135 33.2977L31.6275 45.9541C32.0632 46.4543 32.6574 46.7619 33.3306 46.839C33.4099 46.839 33.4892 46.8581 33.5683 46.8581C34.1426 46.8581 34.717 46.6657 35.1725 46.3004C35.3111 46.1849 35.43 46.0696 35.5289 45.935L54.2834 23.7381C54.3229 23.6997 54.3428 23.6804 54.3824 23.642C54.8181 23.1034 55.0162 22.4494 54.9369 21.7954Z" fill="#448AFF"/>
</g>
<defs>
<clipPath id="clip0_534_2">
<rect width="45" height="28" fill="white" transform="translate(10 19)"/>
</clipPath>
</defs>
</svg>
