<svg width="66" height="66" viewBox="0 0 66 66" fill="none" xmlns="http://www.w3.org/2000/svg">
<circle cx="32.9183" cy="32.9183" r="32.9183" fill="#F5F5F5"/>
<g clip-path="url(#clip0_519_12)">
<path d="M19.1184 15H46.8912C49.1625 15 51.0001 16.8372 51.0001 19.1172V46.8827C51.0001 49.1534 49.1625 50.9999 46.8817 50.9999H19.1184C16.8378 50.9904 15 49.1531 15 46.8732V19.1172C15 16.8372 16.8377 15 19.1184 15Z" fill="#3182CE"/>
<path d="M36.5966 42.1846C37.821 42.1846 38.9649 41.5278 39.5817 40.4707L42.9641 34.6761C43.5192 33.7249 43.5224 32.5488 42.9717 31.5949L40.6938 27.6489L35.3862 36.69C34.6985 37.8612 34.6917 39.3111 35.3678 40.4886L36.3408 42.1828L36.5966 42.1846Z" fill="white"/>
<path d="M33.4738 42.215L28.4899 33.6164C27.8192 32.459 26.5868 31.7418 25.249 31.7306L23.1084 31.7124L23.0876 31.7484C22.4612 32.8233 22.4604 34.1516 23.0851 35.2271L26.257 40.6871C26.8063 41.6328 27.8174 42.2148 28.9114 42.2148L33.4738 42.215Z" fill="white"/>
<path d="M39.3363 25.2564C38.6938 24.3426 37.6365 23.7861 36.5076 23.7861H29.4711C28.3745 23.7861 27.3611 24.3712 26.8129 25.3212L24.5336 29.2713L34.7778 29.3168C36.129 29.3227 37.3806 28.6075 38.0617 27.4406L39.3363 25.2564Z" fill="white"/>
</g>
<defs>
<clipPath id="clip0_519_12">
<rect width="36" height="36" fill="white" transform="translate(15 15)"/>
</clipPath>
</defs>
</svg>
