<svg width="66" height="66" viewBox="0 0 66 66" fill="none" xmlns="http://www.w3.org/2000/svg">
<circle cx="32.9183" cy="32.9183" r="32.9183" fill="#F5F5F5"/>
<path fill-rule="evenodd" clip-rule="evenodd" d="M47.7438 18.6414C46.2599 18.7872 44.8182 19.4058 43.5611 20.3137C40.397 16.4442 35.7539 14 30.5765 14C21.0437 14 13.3158 22.2824 13.3158 32.4998C13.3158 33.1184 13.3477 33.7287 13.4037 34.3313C12.8063 36.1252 12.8685 37.8503 13.6132 38.2696C13.7882 38.368 13.9867 38.3863 14.1974 38.3359C16.4779 45.692 22.9472 51 30.5765 51C40.1093 51 47.8372 42.7176 47.8372 32.5002C47.8372 32.0588 47.8185 31.6222 47.7902 31.1891C49.9089 30.0266 51.7963 27.9934 52.6164 25.4891C53.9891 21.297 51.5185 18.2716 47.7438 18.6414ZM30.4537 16.1068C35.0463 16.1068 39.1609 18.295 41.9428 21.7501C40.9758 22.7963 40.2201 24.0161 39.7909 25.2695C39.4587 26.2396 39.3333 27.197 39.4029 28.0784L30.5752 35.1499C30.3094 34.7869 29.9881 34.504 29.6207 34.3203C29.7435 33.4161 29.8292 32.457 29.844 31.4844C29.8927 28.3457 29.1638 25.3983 26.989 24.2292C27.4969 22.1563 26.9171 20.6826 25.625 20.8093C24.423 20.9275 22.972 22.4129 22.1129 24.2672C19.7905 25.2999 18.1071 27.5462 17.036 29.2637C16.6696 29.8512 16.3364 30.4431 16.0406 31.0075C15.8112 31.0227 15.565 31.129 15.3136 31.3128C15.8215 22.8236 22.4055 16.1068 30.4537 16.1068ZM28.8851 40.1194C28.384 41.5551 27.2474 42.3847 26.3896 41.9817C25.5699 41.5962 25.3098 40.2168 25.7764 38.8954C26.2417 37.5775 27.2871 36.7234 28.1407 36.9976C29.0333 37.285 29.3845 38.6885 28.8851 40.1194ZM25.2856 25.0215C24.8848 26.1367 24.0315 27.007 23.4054 26.9604C22.8012 26.9159 22.6339 26.0279 23.0123 24.9828C23.3902 23.9401 24.19 23.0757 24.8165 23.0515C25.4645 23.0273 25.6852 23.9094 25.2856 25.0215ZM14.3318 36.3148C13.9528 36.1366 13.9235 35.2593 14.2564 34.3569C14.588 33.4558 15.1715 32.8255 15.5676 32.9533C15.9758 33.0845 16.0342 33.9677 15.6852 34.9198C15.3349 35.8745 14.7227 36.4985 14.3318 36.3148ZM30.4537 48.6294C23.5085 48.6294 17.6544 43.627 15.8537 36.8011C16.126 36.3632 16.377 35.8482 16.5865 35.2752C17.124 33.8046 17.2078 32.4363 16.9026 31.6609C17.1182 31.2658 17.3528 30.8607 17.6077 30.458C18.7632 28.6341 20.0116 27.3452 21.4133 26.7238C21.2844 28.0887 21.6907 29.1066 22.5837 29.235C23.5417 29.3732 24.783 28.4662 25.7435 27.0333C26.9126 27.9233 27.5822 29.6598 27.4985 32.4539C27.4788 33.106 27.4189 33.7539 27.337 34.3766C26.0542 34.9748 24.8477 36.425 24.1916 38.271C23.222 40.9998 23.6864 43.9403 25.3688 44.8876C27.2223 45.9313 29.8022 44.1893 30.9329 40.9262C31.2732 39.9443 31.4246 38.9873 31.4191 38.1149L40.7873 31.1087C41.3973 31.6692 42.2003 32.0567 43.1912 32.199C43.9636 32.3099 44.7885 32.2519 45.6212 32.0474C45.6231 32.1545 45.6263 32.2605 45.6263 32.3679C45.626 41.3486 38.8332 48.6294 30.4537 48.6294ZM48.5842 25.4197C47.9751 27.2526 46.0678 28.6448 44.4254 28.5229C42.8747 28.4079 42.1329 26.9704 42.6927 25.3192C43.2508 23.6742 44.939 22.2941 46.5376 22.2337C48.2297 22.1698 49.1903 23.5944 48.5842 25.4197Z" fill="#1C8CD7"/>
</svg>
