<svg width="66" height="66" viewBox="0 0 66 66" fill="none" xmlns="http://www.w3.org/2000/svg">
<circle cx="32.9183" cy="32.9183" r="32.9183" fill="#F5F5F5"/>
<path d="M35.532 33.2263H40.0231C39.9956 31.8625 39.5745 30.5361 38.8109 29.4078C38.2387 28.5652 37.4872 27.8608 36.6107 27.3456C35.7342 26.8306 34.7547 26.5174 33.7429 26.4291C32.7312 26.3409 31.7125 26.4796 30.7608 26.8353C29.8089 27.1909 28.9477 27.7546 28.2395 28.4855C27.2895 29.4596 26.65 30.6959 26.4026 32.0365C26.1433 33.3781 26.2838 34.7665 26.8066 36.0282C27.3294 37.2899 28.2112 38.3686 29.3416 39.1294C30.4708 39.8835 31.7971 40.2848 33.1532 40.2824H50.6772C50.3243 41.1697 49.9067 42.0297 49.4281 42.8557H33.1348C31.4945 42.8665 29.8796 42.4492 28.4482 41.6447C27.0168 40.8402 25.8181 39.676 24.9694 38.2664C24.1207 36.8567 23.6513 35.2498 23.607 33.6031C23.5627 31.9564 23.9452 30.3265 24.7169 28.8728C25.4886 27.4192 26.623 26.1918 28.0091 25.311C29.3952 24.43 30.9853 23.9259 32.6238 23.8478C34.2623 23.7696 35.8929 24.1203 37.3559 24.8654C38.8188 25.6105 40.0639 26.7244 40.9692 28.0981C41.9989 29.6639 42.5512 31.4975 42.5581 33.3739H47.0402C47.0579 30.6037 46.2539 27.8911 44.7303 25.5816C43.2068 23.2722 41.0329 21.4708 38.4858 20.4071C35.9388 19.3434 33.134 19.0656 30.4291 19.609C27.7241 20.1525 25.2417 21.4927 23.2982 23.4587C21.3315 25.4147 19.9882 27.9138 19.4389 30.6382C18.8897 33.3626 19.1593 36.1896 20.2136 38.7599C21.2678 41.3301 23.0591 43.5276 25.3598 45.0731C27.6605 46.6186 30.3669 47.4425 33.1348 47.4397H45.8095C43.4009 49.6488 40.4658 51.1968 37.2876 51.9339C34.1096 52.6711 30.7957 52.5728 27.6665 51.6483C24.5373 50.7238 21.6984 49.0044 19.424 46.6563C17.1497 44.3082 15.5168 41.4108 14.6831 38.2439C13.5224 34.002 13.8479 29.4885 15.6052 25.4587C17.3624 21.4289 20.4447 18.1277 24.3361 16.1075C28.2143 14.104 32.6621 13.5055 36.9289 14.4128C41.1956 15.3202 45.0199 17.678 47.7566 21.0882C49.3856 23.1159 50.587 25.455 51.2879 27.9634C51.989 30.4718 52.1749 33.0971 51.8345 35.6798H33.144C32.6742 35.6791 32.2148 35.5412 31.8214 35.2832C31.4153 35.0273 31.0952 34.6544 30.903 34.2133C30.7179 33.7793 30.6639 33.3004 30.7477 32.836C30.8315 32.3715 31.0494 31.9421 31.3744 31.601C31.6993 31.26 32.1168 31.0224 32.5753 30.9177C33.0336 30.8131 33.5124 30.8462 33.9522 31.0127C34.3889 31.182 34.7681 31.4733 35.0452 31.852C35.3451 32.2486 35.5151 32.7287 35.532 33.2263Z" fill="black"/>
</svg>
