<svg width="66" height="66" viewBox="0 0 66 66" fill="none" xmlns="http://www.w3.org/2000/svg">
<circle cx="32.9183" cy="32.9183" r="32.9183" fill="#F5F5F5"/>
<g clip-path="url(#clip0_4938_43)">
<path fill-rule="evenodd" clip-rule="evenodd" d="M6.75034 33.2469L6.33543 35.5186H4L5.22917 29H8.57855C9.10083 29 9.53129 29.0281 9.90004 29.0847C10.2532 29.1413 10.5452 29.226 10.776 29.3525C11.0063 29.4653 11.1603 29.6204 11.2677 29.7897C11.375 29.9591 11.4212 30.1708 11.4212 30.4106C11.4212 30.5376 11.4057 30.6784 11.375 30.8478C11.2983 31.2146 11.1448 31.5533 10.8989 31.8497C10.6531 32.1461 10.3149 32.3435 9.88499 32.4424C10.0235 32.4848 10.1614 32.5414 10.2693 32.5975C10.3922 32.6541 10.4845 32.7103 10.5613 32.795C10.638 32.8796 10.6998 32.9643 10.7454 33.0913C10.7916 33.2041 10.8066 33.3597 10.8066 33.5285C10.8066 33.7122 10.776 33.9377 10.7454 34.1775C10.6993 34.4029 10.6687 34.6009 10.638 34.7417C10.6074 34.8968 10.5919 35.0095 10.5919 35.0942C10.5919 35.2355 10.6531 35.3059 10.761 35.3059V35.5176H8.39493C8.37937 35.461 8.37937 35.3906 8.37937 35.3059C8.37937 35.2069 8.39493 35.0661 8.40998 34.911C8.42553 34.7559 8.45614 34.5723 8.48674 34.3749C8.5329 34.1775 8.54795 34.0081 8.54795 33.8668C8.54795 33.6408 8.47119 33.4719 8.31767 33.3873C8.16414 33.2883 7.87215 33.246 7.4728 33.246H6.75084L6.75034 33.2469ZM7.02678 31.8221H7.94841C8.30161 31.8221 8.5936 31.7797 8.79328 31.6808C8.99296 31.5961 9.11588 31.4267 9.16203 31.2012C9.16203 31.1732 9.17759 31.1308 9.17759 31.0599C9.17759 30.8763 9.10083 30.7355 8.9473 30.6508C8.79378 30.5661 8.5941 30.5238 8.36332 30.5238H7.27262L7.02678 31.8216V31.8221Z" fill="#0684BC"/>
<path fill-rule="evenodd" clip-rule="evenodd" d="M14.6938 30.778H16.5531L16.4146 31.5259C16.7066 31.2295 16.9986 31.0178 17.2906 30.8627C17.5826 30.7214 17.9358 30.6367 18.3201 30.6367C18.9041 30.6367 19.319 30.7637 19.5954 31.0035C19.8718 31.2433 19.9948 31.6101 19.9948 32.0758C19.9948 32.259 19.9792 32.4569 19.9336 32.6686L19.4113 35.5187H17.3678L17.844 33.0073C17.8595 32.8946 17.8746 32.7956 17.8746 32.6971C17.8746 32.5278 17.8284 32.4008 17.7516 32.288C17.6749 32.1753 17.5214 32.1186 17.2906 32.1186C16.983 32.1186 16.7377 32.2033 16.5992 32.3727C16.4608 32.542 16.3534 32.7818 16.3072 33.092L15.8462 35.5045H13.8027L14.6938 30.778Z" fill="#0684BC"/>
<path fill-rule="evenodd" clip-rule="evenodd" d="M21.9295 35.6439V35.6719C21.9295 35.7424 21.9601 35.799 22.0218 35.8556C22.0986 35.9403 22.2371 35.9683 22.4523 35.9683C22.7443 35.9683 22.9746 35.8979 23.1281 35.7566C23.2816 35.6153 23.3895 35.3756 23.4507 35.0368L23.5274 34.642C23.3584 34.7833 23.1431 34.896 22.8973 35.0088C22.6515 35.1077 22.3289 35.1639 21.9601 35.1639C21.6526 35.1639 21.3761 35.1215 21.1459 35.0226C20.9156 34.9379 20.7154 34.8109 20.5619 34.6558C20.4083 34.5007 20.2854 34.317 20.2087 34.0915C20.1319 33.8798 20.0858 33.6401 20.0858 33.4003C20.0858 33.3156 20.0858 33.2452 20.1013 33.1605C20.1169 33.0758 20.1169 33.0054 20.1319 32.9208C20.1781 32.6244 20.2854 32.3423 20.4083 32.0459C20.5468 31.7495 20.7154 31.4954 20.9462 31.2699C21.1765 31.044 21.4378 30.8608 21.7604 30.7195C22.083 30.5782 22.4518 30.5078 22.8823 30.5078C23.2048 30.5078 23.4813 30.5782 23.7271 30.7195C23.973 30.8608 24.1726 31.044 24.3111 31.2699L24.4185 30.6491H26.2161L25.4941 34.4726C25.4324 34.8251 25.3406 35.1639 25.2483 35.4602C25.1409 35.7704 24.9869 36.0387 24.7566 36.2642C24.5263 36.4897 24.2343 36.6734 23.835 36.8004C23.4507 36.9274 22.9284 36.9978 22.2988 36.9978C21.8533 36.9978 21.4689 36.9555 21.1619 36.8851C20.8544 36.8147 20.609 36.7157 20.4088 36.603C20.2247 36.4759 20.0863 36.3489 19.9939 36.1796C19.9016 36.0245 19.8555 35.8551 19.8555 35.6857V35.6291H21.9295V35.6434V35.6439ZM23.1431 31.8627C22.9896 31.8627 22.8667 31.8908 22.7438 31.9474C22.6364 32.004 22.5441 32.0744 22.4518 32.1734C22.375 32.2723 22.3133 32.3851 22.2677 32.5121C22.2215 32.6391 22.1753 32.7942 22.1603 32.9355C22.1603 32.9778 22.1447 33.0202 22.1447 33.0483V33.161C22.1447 33.3446 22.1909 33.5135 22.2983 33.6548C22.4056 33.7961 22.5597 33.8665 22.7899 33.8665H22.8361C22.9746 33.8665 23.1125 33.8384 23.2204 33.7818C23.3278 33.7252 23.4356 33.6548 23.5124 33.5701C23.5892 33.4855 23.6659 33.3727 23.7121 33.26C23.7582 33.1472 23.8044 33.0202 23.835 32.8932C23.8505 32.7942 23.8656 32.6957 23.8656 32.5968C23.8656 32.3993 23.8194 32.23 23.7121 32.0887C23.6047 31.9474 23.4201 31.877 23.1592 31.877H23.1436V31.8627H23.1431Z" fill="#0684BC"/>
<path fill-rule="evenodd" clip-rule="evenodd" d="M31.0108 31.4976V31.3849C31.0108 31.1028 30.9185 30.8768 30.7494 30.7217C30.5653 30.5666 30.3194 30.4957 29.9963 30.4957C29.597 30.4957 29.2744 30.6508 28.9975 30.9472C28.721 31.2436 28.5364 31.6951 28.4135 32.2873C28.3829 32.4001 28.3673 32.5133 28.3523 32.6118C28.3367 32.7108 28.3367 32.8235 28.3367 32.922C28.3367 33.0771 28.3523 33.2041 28.3829 33.3311C28.4135 33.4581 28.4752 33.5709 28.567 33.6556C28.6438 33.7545 28.7667 33.8249 28.9051 33.8815C29.0436 33.9382 29.2127 33.9662 29.4274 33.9662C29.7806 33.9662 30.0726 33.8673 30.2878 33.6698C30.5031 33.4724 30.6566 33.2184 30.764 32.922H32.8842C32.7612 33.3168 32.5766 33.6836 32.3463 33.9943C32.116 34.3049 31.8391 34.5728 31.5165 34.7983C31.1939 35.0243 30.8407 35.1794 30.4409 35.3064C30.0415 35.4191 29.6266 35.4757 29.1811 35.4757C28.6894 35.4757 28.2745 35.4191 27.8907 35.3064C27.5219 35.1936 27.1993 35.0243 26.938 34.8126C26.6766 34.6009 26.4769 34.333 26.354 34.0224C26.2155 33.7122 26.1543 33.3592 26.1543 32.9643C26.1543 32.8516 26.1543 32.7383 26.1698 32.6118C26.1854 32.4848 26.2005 32.3578 26.2311 32.2307C26.3234 31.7369 26.4924 31.2854 26.7383 30.8906C26.9841 30.4957 27.2912 30.157 27.6449 29.8749C27.9981 29.5928 28.3979 29.3811 28.8279 29.226C29.2734 29.0709 29.7189 29 30.18 29C31.1478 29 31.8853 29.1974 32.3619 29.5928C32.838 29.9876 33.0838 30.5381 33.0838 31.2578V31.3706C33.0838 31.4129 33.0838 31.4553 33.0683 31.4976H31.0093H31.0108Z" fill="#FF7A00"/>
<path fill-rule="evenodd" clip-rule="evenodd" d="M35.2521 33.3871C35.2521 33.4151 35.2365 33.4437 35.2365 33.4718V33.5564C35.2365 33.7819 35.3133 33.9656 35.4823 34.1069C35.6514 34.2482 35.8511 34.3043 36.0969 34.3043C36.266 34.3043 36.4195 34.2762 36.5731 34.2053C36.7266 34.1349 36.8495 34.036 36.9418 33.8947H38.9085C38.77 34.1911 38.5703 34.4308 38.3401 34.6425C38.1098 34.84 37.8484 35.0093 37.5719 35.1221C37.2955 35.2491 36.988 35.3338 36.6809 35.3899C36.3734 35.4465 36.0663 35.4603 35.7593 35.4603C35.3905 35.4603 35.0524 35.418 34.7453 35.3333C34.4383 35.2486 34.1769 35.1216 33.9466 34.9522C33.7164 34.7829 33.5473 34.5712 33.4244 34.3314C33.3014 34.0916 33.2402 33.8095 33.2402 33.4851C33.2402 33.4004 33.2402 33.33 33.2558 33.2453C33.2713 33.1606 33.2713 33.0759 33.2864 32.9913C33.3632 32.6102 33.5016 32.2577 33.7164 31.9332C33.9316 31.6226 34.1774 31.3547 34.4845 31.1292C34.792 30.9032 35.1297 30.7344 35.514 30.6211C35.8983 30.4941 36.2821 30.4375 36.697 30.4375C37.1119 30.4375 37.4806 30.4941 37.8032 30.6069C38.1258 30.7196 38.3872 30.8609 38.6019 31.0583C38.8172 31.2558 38.9863 31.4817 39.0936 31.7639C39.201 32.046 39.2627 32.3424 39.2627 32.6811C39.2627 32.8928 39.2321 33.1183 39.1859 33.3723H35.2526V33.3866L35.2521 33.3871ZM37.28 32.4275C37.28 32.3994 37.2955 32.3571 37.2955 32.2862C37.2955 32.0888 37.2187 31.9337 37.0803 31.7924C36.9418 31.6654 36.7577 31.595 36.5425 31.595C36.2349 31.595 35.9896 31.6654 35.7894 31.8205C35.6053 31.9756 35.4818 32.173 35.4206 32.427H37.28V32.4275Z" fill="#FF7A00"/>
<path fill-rule="evenodd" clip-rule="evenodd" d="M39.8916 30.7194H41.766L41.628 31.4673C41.92 31.1709 42.212 30.9592 42.5035 30.8041C42.7955 30.6628 43.1487 30.5781 43.533 30.5781C44.117 30.5781 44.5319 30.7051 44.8083 30.9449C45.0847 31.1847 45.2082 31.5515 45.2082 32.0172C45.2082 32.2009 45.1926 32.3983 45.1464 32.61L44.6242 35.4601H42.5807L43.0569 32.9487C43.0719 32.836 43.0875 32.737 43.0875 32.6385C43.0875 32.4692 43.0413 32.3422 42.9645 32.2294C42.8878 32.1167 42.7343 32.06 42.5035 32.06C42.1964 32.06 41.9506 32.1447 41.8121 32.3141C41.6742 32.4835 41.5663 32.7232 41.5201 33.0334L41.0591 35.4601H39.0156L39.8916 30.7194Z" fill="#FF7A00"/>
<path fill-rule="evenodd" clip-rule="evenodd" d="M48.4173 35.4917C48.1866 35.506 47.9718 35.5198 47.7872 35.5198C47.5875 35.5198 47.4184 35.534 47.2494 35.534C46.9423 35.534 46.6809 35.5198 46.4657 35.4917C46.2505 35.4636 46.0814 35.4213 45.959 35.3504C45.8361 35.28 45.7438 35.1953 45.6976 35.0683C45.6514 34.9555 45.6208 34.8143 45.6208 34.6311C45.6208 34.5183 45.6364 34.4056 45.6514 34.2643C45.667 34.123 45.6976 33.9822 45.7282 33.8128L46.097 31.8376H45.375L45.5747 30.751H46.3277L46.6197 29.2695H48.6326L48.3406 30.751H49.3239L49.1237 31.8376H48.1404L47.8178 33.5588C47.8027 33.6154 47.8027 33.6577 47.7872 33.7001C47.7872 33.7424 47.7716 33.7848 47.7716 33.8271C47.7716 33.9398 47.8178 34.0245 47.8946 34.0669C47.9713 34.1092 48.1248 34.1373 48.3401 34.1373H48.6627L48.4168 35.4917H48.4173Z" fill="#FF7A00"/>
<path fill-rule="evenodd" clip-rule="evenodd" d="M49.7398 30.7775H51.5991L51.4144 31.7371H51.43C51.8449 31.0035 52.4439 30.6367 53.2276 30.6367C53.2738 30.6367 53.3199 30.6367 53.3656 30.651C53.4117 30.651 53.4579 30.6653 53.5035 30.6653L53.1503 32.5558C53.0886 32.5416 53.0124 32.5278 52.9507 32.5135C52.8739 32.4992 52.8122 32.4992 52.7354 32.4992C52.3205 32.4992 51.9824 32.5982 51.7365 32.8094C51.4907 33.0211 51.3216 33.3736 51.2143 33.8817L50.9072 35.5183H48.8633L49.7393 30.7775H49.7398Z" fill="#FF7A00"/>
<path fill-rule="evenodd" clip-rule="evenodd" d="M56.2526 35.532L56.2371 34.8831C55.8989 35.1371 55.5763 35.3065 55.2537 35.3912C54.9311 35.4759 54.5779 35.5182 54.1781 35.5182C53.9628 35.5182 53.7476 35.4901 53.5635 35.4478C53.3638 35.4055 53.1947 35.335 53.0563 35.2361C52.9183 35.1371 52.7949 35.0244 52.7186 34.8836C52.6263 34.7423 52.5957 34.5734 52.5957 34.3755C52.5957 34.2908 52.6113 34.1923 52.6268 34.0934C52.688 33.7408 52.8415 33.4583 53.0568 33.2608C53.272 33.0634 53.5329 32.9083 53.8254 32.8094C54.1174 32.7104 54.4244 32.64 54.747 32.5977C55.0696 32.5553 55.3771 32.5272 55.6536 32.4849C55.93 32.4568 56.1759 32.4145 56.3605 32.3436C56.5602 32.287 56.6675 32.1885 56.6831 32.0334V31.9768C56.6831 31.9064 56.652 31.8498 56.6214 31.8075C56.5752 31.7651 56.514 31.737 56.4523 31.7085C56.3906 31.6942 56.3294 31.6662 56.2526 31.6662C56.1759 31.6519 56.1142 31.6519 56.068 31.6519C55.9912 31.6519 55.9145 31.6519 55.8377 31.6662C55.761 31.6804 55.6837 31.6942 55.6069 31.7366C55.5302 31.7646 55.469 31.8212 55.4073 31.8779C55.3455 31.9345 55.2999 32.0192 55.2688 32.1176H53.3026C53.3488 31.8636 53.4406 31.6381 53.579 31.4402C53.7175 31.2428 53.9172 31.0734 54.163 30.9464C54.4244 30.8051 54.732 30.7066 55.1007 30.6362C55.4695 30.5658 55.915 30.5234 56.4217 30.5234C56.8828 30.5234 57.2666 30.5515 57.5741 30.6081C57.8661 30.6647 58.1114 30.7494 58.2805 30.8622C58.4496 30.9749 58.5725 31.1019 58.6337 31.257C58.6954 31.4121 58.726 31.5815 58.726 31.7651C58.726 31.8779 58.7105 31.9906 58.6949 32.1176C58.6799 32.2447 58.6643 32.3717 58.6332 32.4987L58.2183 34.7137C58.2032 34.8127 58.1877 34.8974 58.1877 34.9678C58.1877 35.0382 58.2032 35.0948 58.2339 35.1514C58.2645 35.208 58.3106 35.2642 58.3874 35.3346V35.5743H56.2521V35.532H56.2526ZM55.2999 34.4597C55.469 34.4597 55.638 34.4316 55.761 34.375C55.8989 34.3184 56.0068 34.2337 56.0986 34.121C56.1909 34.022 56.2677 33.8955 56.3138 33.7542C56.36 33.6129 56.4061 33.4578 56.4212 33.3027C56.2366 33.3731 56.0524 33.4297 55.8678 33.4578C55.6837 33.4859 55.4991 33.5282 55.3455 33.5705C55.192 33.6129 55.0385 33.6695 54.9306 33.7399C54.8077 33.8103 54.7465 33.9231 54.7154 34.0786V34.1067C54.7154 34.2056 54.7616 34.2903 54.8539 34.3607C54.9612 34.4173 55.1153 34.4597 55.2994 34.4597" fill="#FF7A00"/>
<path fill-rule="evenodd" clip-rule="evenodd" d="M58.7266 35.5199L59.9557 29.0156H61.9992L60.7705 35.5199H58.7271H58.7266Z" fill="#FF7A00"/>
<path fill-rule="evenodd" clip-rule="evenodd" d="M11.1289 35.5175L12.2964 31.6797H13.7714L13.1723 35.5175H11.1289Z" fill="#0684BC"/>
<path fill-rule="evenodd" clip-rule="evenodd" d="M14.5245 29.9576C14.509 29.9434 14.509 29.9296 14.4939 29.9153C14.4633 29.873 14.4172 29.8306 14.3404 29.774C14.2019 29.6613 13.9561 29.52 13.5874 29.4638C13.4032 29.4358 13.2492 29.4358 13.1112 29.4495C12.7731 29.4776 12.5734 29.6046 12.5122 29.6613L12.4816 29.6755C12.3893 29.7602 12.2358 29.7602 12.1435 29.6755C12.0511 29.5908 12.0511 29.4495 12.1435 29.3653C12.1741 29.3373 12.4816 29.069 13.0651 29.0128C13.2492 28.9981 13.4489 28.9981 13.6792 29.0404C14.6164 29.1955 14.9389 29.7459 14.9545 29.7883C15.0157 29.901 14.9701 30.028 14.8471 30.0847C14.8165 30.0989 14.7859 30.0989 14.7704 30.1127C14.663 30.0847 14.5707 30.0423 14.5245 29.9576Z" fill="#FF7A00"/>
<path fill-rule="evenodd" clip-rule="evenodd" d="M13.9264 30.466L13.9108 30.4517C13.8953 30.4375 13.8647 30.4094 13.8341 30.367C13.7573 30.3104 13.6344 30.2257 13.4192 30.1977C13.3118 30.1834 13.2195 30.1834 13.1427 30.1834C12.9586 30.1977 12.8507 30.2681 12.8046 30.2962H12.789C12.7123 30.3666 12.5893 30.3666 12.497 30.2962C12.4203 30.2257 12.4203 30.1125 12.497 30.0283C12.5126 30.014 12.7123 29.8447 13.081 29.8023C13.1884 29.7881 13.3268 29.7881 13.4653 29.8166C14.0493 29.9156 14.264 30.2538 14.264 30.2824C14.3102 30.367 14.2796 30.4798 14.1717 30.5364C14.1562 30.5507 14.1256 30.5507 14.095 30.5507C14.0337 30.565 13.9565 30.5364 13.9259 30.466" fill="#FF7A00"/>
<path fill-rule="evenodd" clip-rule="evenodd" d="M13.7399 30.9169C13.7399 31.1424 13.5096 31.3261 13.2176 31.3261C12.9256 31.3261 12.6953 31.1424 12.6953 30.9169C12.6953 30.6914 12.9256 30.5078 13.2176 30.5078C13.5096 30.5078 13.7554 30.6914 13.7399 30.9169Z" fill="#FF7A00"/>
</g>
<defs>
<clipPath id="clip0_4938_43">
<rect width="58" height="8" fill="white" transform="translate(4 29)"/>
</clipPath>
</defs>
</svg>
