<svg width="66" height="66" viewBox="0 0 66 66" fill="none" xmlns="http://www.w3.org/2000/svg">
<circle cx="32.9183" cy="32.9183" r="32.9183" fill="#F5F5F5"/>
<path fill-rule="evenodd" clip-rule="evenodd" d="M46.1425 16.008L54 33.3211L46.1425 50.6342C44.3874 51.1983 42.5161 51.5031 40.5735 51.5031C37.8931 51.5031 35.3483 50.9231 33.0575 49.8818L40.5735 33.3211L33.0575 16.7605C35.3483 15.7192 37.8931 15.1392 40.5735 15.1392C42.5161 15.1392 44.3874 15.4439 46.1425 16.008Z" fill="#0F62FE"/>
<path fill-rule="evenodd" clip-rule="evenodd" d="M25.3315 16.1583L33.0575 33.1818L25.3315 50.2054C23.3408 50.9543 21.184 51.3639 18.9316 51.3639C16.4771 51.3639 14.1362 50.8773 12 49.9958L19.6309 33.1818L12 16.368C14.1362 15.4864 16.4771 15 18.9316 15C21.184 15 23.3408 15.4096 25.3315 16.1583Z" fill="black"/>
</svg>
