<svg width="66" height="66" viewBox="0 0 66 66" fill="none" xmlns="http://www.w3.org/2000/svg">
<circle cx="33" cy="33" r="33" fill="#F5F5F5"/>
<g transform="translate(14 17) scale(0.28)">
<path d="M133.6,3.31603457 C133.5981,3.10120283 133.576679,2.88698832 133.536,2.67603457 C133.536,2.61203457 133.504,2.55443457 133.4848,2.49043457 C133.4656,2.42643457 133.4016,2.20243457 133.3504,2.06163457 L133.2544,1.85683457 C133.194778,1.73468036 133.12633,1.61703523 133.0496,1.50483457 C133.0048,1.43443457 132.96,1.36403457 132.9088,1.29363457 L132.8192,1.17203457 C132.768,1.11443457 132.7104,1.06963457 132.6592,1.01843457 L132.5312,0.864834568 L132.4288,0.794434568 C132.335006,0.714230178 132.236713,0.639442005 132.1344,0.570434568 L131.8848,0.410434568 C131.774779,0.35275853 131.661524,0.301473442 131.5456,0.256834568 L131.2768,0.148034568 C131.1552,0.109634568 131.0272,0.0904345682 130.9056,0.0648345682 L130.6304,0.00723456816 C130.479087,-0.00241152272 130.327313,-0.00241152272 130.176,0.00723456816 L129.92,0.00723456816 C128.2048,0.160834568 105.5424,2.32403457 80.0704,13.6840346 C64.7744,20.4872346 52.9344,30.9320346 45.4848,43.6104346 L43.5648,44.4424346 C16.2944,56.6152346 0,80.2760346 0,107.738435 L0,108.199235 C0,109.489747 0.750005395,110.662684 1.92,111.207235 C2.35982196,111.408788 2.83779576,111.51448 3.3216,111.51448 L93.8496,111.51448 C94.025529,111.51448 94.201184,111.500425 94.3744,111.469635 L94.6048,111.412035 C94.7136,111.380035 94.8224,111.360835 94.9312,111.322435 C95.04,111.284035 95.0912,111.245635 95.1744,111.207235 C95.2576,111.168835 95.3664,111.130435 95.456,111.079235 C95.6249702,110.979428 95.785504,110.865984 95.936,110.740035 L132.416,79.9816346 C133.171169,79.3470022 133.603103,78.408016 133.5936,77.4216346 L133.5936,3.31603457 L133.6,3.31603457 Z M100.6144,98.1064346 L97.1136,101.056835 L97.1136,35.6168346 L126.9632,10.4584346 L126.9632,75.8984346 L100.6144,98.1064346 Z M41.0176,80.7560346 L90.4768,80.7560346 L90.4768,104.877635 L12.3968,104.877635 L41.0176,80.7560346 Z M82.7648,19.7512346 C94.4229248,14.6181384 106.618026,10.803547 119.1232,8.37843457 L92.4416,30.8744346 C80.1257184,32.3771654 68.0124013,35.2295039 56.32,39.3800346 C62.9248,31.3160346 71.8336,24.6280346 82.7648,19.7512346 Z M49.9776,48.9224346 C62.9708041,43.5740304 76.5727315,39.8446777 90.4768,37.8184346 L90.4768,74.1192346 L43.1936,74.1192346 C43.5345667,65.3174982 45.8532569,56.7055327 49.9776,48.9224346 L49.9776,48.9224346 Z M40.8704,53.1592346 C38.0740757,60.415342 36.587564,68.1100992 36.48,75.8856346 L7.04,100.730435 C9.2672,80.5448346 21.2544,63.6616346 40.8704,53.1592346 Z" fill="#3C72FF"/>
</g>
</svg>
