<svg width="66" height="66" viewBox="0 0 66 66" fill="none" xmlns="http://www.w3.org/2000/svg">
<circle cx="32.9183" cy="32.9183" r="32.9183" fill="#F5F5F5"/>
<path fill-rule="evenodd" clip-rule="evenodd" d="M49.3063 46.71C51.5919 45.3875 53 42.9434 53 40.2982V25.7019C53 23.0568 51.5919 20.6126 49.3063 19.2901L36.6938 11.9919C34.408 10.6694 31.592 10.6694 29.3064 11.9919L16.6937 19.2901C14.408 20.6126 13 23.0568 13 25.7019V40.2982C13 42.9434 14.408 45.3875 16.6937 46.71L29.3064 54.0081C31.592 55.3306 34.408 55.3306 36.6938 54.0081L49.3063 46.71ZM49.3063 40.2982C49.3063 41.6207 48.6024 42.8427 47.4595 43.5041L40.8583 47.3237C40.2765 47.6604 39.9857 47.8287 39.7469 47.8037C39.5387 47.7818 39.3496 47.6724 39.2265 47.5024C39.0854 47.3079 39.0854 46.9713 39.0854 46.298V38.6587C39.0854 37.3362 39.7893 36.1141 40.9322 35.4527L44.4666 33.4075C44.952 33.1268 45.1946 32.9863 45.3711 32.7898C45.527 32.6159 45.6449 32.4111 45.7166 32.1886C45.7979 31.9371 45.7974 31.6563 45.7963 31.0946L45.7961 30.9259C45.7945 30.0857 45.7938 29.6657 45.6173 29.4228C45.4634 29.211 45.2271 29.0745 44.9671 29.0473C44.6688 29.016 44.3058 29.2261 43.5799 29.6461L39.0854 32.2468C36.7998 33.5693 35.3917 36.0135 35.3917 38.6587V49.8563C35.3917 50.2467 35.1839 50.607 34.8468 50.8022C33.704 51.4636 32.296 51.4636 31.1532 50.8022L18.5405 43.5041C17.3977 42.8427 16.6937 41.6207 16.6937 40.2982V32.7745C16.6937 32.1012 16.6937 31.7646 16.8347 31.57C16.9578 31.4002 17.1469 31.2908 17.3552 31.2688C17.5939 31.2437 17.8848 31.412 18.4666 31.7486L24.9312 35.4891C26.074 36.1502 26.778 37.3725 26.778 38.695V42.5905C26.778 43.1521 26.778 43.433 26.8596 43.6841C26.9318 43.9066 27.05 44.1113 27.2063 44.2848C27.383 44.4809 27.6259 44.621 28.1118 44.901L28.2577 44.985C28.9844 45.4038 29.3478 45.6134 29.6459 45.5816C29.9059 45.5538 30.142 45.4168 30.2956 45.2047C30.4717 44.9617 30.4717 44.5416 30.4717 43.7013V38.695C30.4717 36.0498 29.0636 33.6056 26.778 32.2831L17.3387 26.8215C16.9395 26.5906 16.6937 26.1638 16.6937 25.7019C16.6937 24.3793 17.3977 23.1572 18.5405 22.496L31.1532 15.1978C32.296 14.5365 33.704 14.5365 34.8468 15.1978L41.3762 18.976C41.9582 19.3127 42.249 19.481 42.3468 19.7008C42.4319 19.8924 42.4319 20.1114 42.3468 20.303C42.249 20.5228 41.9582 20.6911 41.3762 21.0278L34.7447 24.865C33.6019 25.5263 32.1939 25.5263 31.0511 24.865L27.3355 22.7151C26.9657 22.5011 26.7808 22.3941 26.584 22.3511C26.4098 22.3131 26.2297 22.3116 26.0549 22.3467C25.8574 22.3863 25.6707 22.4902 25.2974 22.6979L24.8367 22.9542C24.0899 23.3697 23.7166 23.5774 23.5902 23.853C23.4801 24.0934 23.4777 24.3694 23.5839 24.6115C23.7055 24.8892 24.0754 25.1032 24.8151 25.5312L29.2042 28.071C31.4899 29.3935 34.3059 29.3935 36.5916 28.071L46.2262 22.496C46.6078 22.2752 47.0779 22.2752 47.4595 22.496C48.6024 23.1572 49.3063 24.3793 49.3063 25.7019V40.2982Z" fill="black"/>
</svg>
