<svg width="66" height="66" viewBox="0 0 66 66" fill="none" xmlns="http://www.w3.org/2000/svg">
<circle cx="32.9183" cy="32.9183" r="32.9183" fill="#F5F5F5"/>
<path d="M47.8144 31.6756L47.8327 31.7743C47.8833 32.0243 48.1027 32.2148 48.3672 32.2148C48.3913 32.2148 51.5636 32.2152 51.5636 32.2152C51.8608 32.2093 52.0976 31.9603 52.0976 31.6618C51.8736 30.0499 51.4518 28.5046 50.8576 27.0485L52.5429 25.6729C52.776 25.4827 52.8385 25.1168 52.6818 24.86L50.8809 21.9099C50.7242 21.653 50.3703 21.5414 50.0946 21.6617L47.7527 22.6841C46.8474 21.5109 45.8056 20.4486 44.6505 19.5216L45.6047 17.1813C45.7183 16.9027 45.598 16.5517 45.3375 16.4012L42.3442 14.673C42.0837 14.5226 41.7196 14.5939 41.535 14.8316L40.0112 16.7949C38.6532 16.2428 37.2155 15.8466 35.7197 15.6282L35.3569 12.9825C35.3159 12.6844 35.0363 12.4375 34.7354 12.4375H31.2791C30.9782 12.4375 30.6986 12.6844 30.6576 12.9825L30.2959 15.6178C28.7995 15.8309 27.3602 16.2213 26.0006 16.7681L24.4702 14.7966C24.2856 14.559 23.9215 14.4878 23.661 14.6382L20.6677 16.3664C20.4072 16.5169 20.2869 16.868 20.4005 17.1466L21.352 19.4801C20.1938 20.4028 19.1486 21.4608 18.2393 22.6301L15.8777 21.6202C15.601 21.5019 15.248 21.6162 15.0933 21.8742L13.3146 24.8376C13.1597 25.0957 13.2249 25.461 13.4594 25.6493L15.1177 26.9822C14.5092 28.458 14.0765 30.0248 13.8502 31.658C13.8497 31.96 14.0876 32.2093 14.3846 32.2152H17.5094C17.8854 32.2028 18.1094 31.9768 18.1243 31.6963C19.3835 24.6311 25.5704 19.2767 32.9749 19.2767C40.3906 19.2767 46.5632 24.6305 47.8144 31.6756Z" fill="#0A0B09"/>
<path d="M18.1377 36.8418C18.0889 36.5916 17.8706 36.4078 17.6049 36.4078C17.5807 36.4078 17.5653 36.4088 17.5329 36.4091L14.4087 36.4095C14.1116 36.4153 13.873 36.6566 13.873 36.955L13.8732 36.9569C15.1729 46.3395 23.2228 53.5635 32.9629 53.5635C42.703 53.5635 50.7524 46.3395 52.0522 36.9567L52.0526 36.9536C52.0526 36.6551 51.8158 36.4153 51.5186 36.4095H48.3924C48.3693 36.4065 48.3463 36.4023 48.3223 36.4023C48.03 36.4023 47.7934 36.6322 47.7781 36.9206C47.7764 36.9258 47.771 36.9285 47.7701 36.9333C46.5189 43.9784 40.367 49.3255 32.9625 49.3255C25.5579 49.3255 19.4065 43.9784 18.1552 36.9333L18.1377 36.8418Z" fill="#0A0B09"/>
<path d="M39.8113 34.3249C39.8113 30.5817 36.7653 27.5469 33.0081 27.5469C29.2506 27.5469 26.2051 30.5817 26.2051 34.3249C26.2051 38.0686 29.2506 41.1032 33.0081 41.1032C36.7653 41.1032 39.8113 38.0686 39.8113 34.3249Z" fill="#3E64A0"/>
</svg>
