<svg width="66" height="66" viewBox="0 0 66 66" fill="none" xmlns="http://www.w3.org/2000/svg">
<circle cx="32.9183" cy="32.9183" r="32.9183" fill="#F5F5F5"/>
<path d="M61.1772 36.5165H50.9678C50.8554 36.884 50.6039 37.1931 50.2669 37.3779L60.5739 37.1641C60.7334 37.1609 60.8869 37.1033 61.0092 37.0008C61.1315 36.8984 61.2152 36.7573 61.2464 36.6009C61.2485 36.5907 61.2482 36.5801 61.2457 36.57C61.2432 36.5598 61.2385 36.5504 61.2319 36.5423C61.2252 36.5342 61.2169 36.5277 61.2075 36.5232C61.198 36.5188 61.1877 36.5165 61.1772 36.5165Z" fill="#FFD700"/>
<path d="M50.9678 36.5165H40.7514L40.7511 36.5209C40.6375 37.0329 40.0956 37.3979 39.793 37.5956L45.522 37.4766L50.2669 37.3779C50.6039 37.1931 50.8554 36.884 50.9678 36.5165Z" fill="#00D1FF"/>
<path d="M31.9555 36.5165C31.6516 36.5169 31.3552 36.6111 31.1069 36.7863C30.8586 36.9615 30.6705 37.2092 30.5684 37.4954C30.5433 37.5627 30.5234 37.6319 30.5086 37.7022C30.5065 37.7126 30.5067 37.7233 30.5093 37.7336C30.512 37.7439 30.5168 37.7534 30.5237 37.7616C30.5305 37.7697 30.539 37.7762 30.5487 37.7806C30.5584 37.7849 30.5689 37.7871 30.5795 37.7868L37.5873 37.6413L39.7931 37.5956C40.0312 37.5132 40.2443 37.3711 40.412 37.183C40.5797 36.9949 40.6965 36.767 40.7511 36.5209L40.7514 36.5165H31.9555Z" fill="#6559FF"/>
<path d="M60.4918 32.5944H58.7696C58.757 32.5944 58.7447 32.591 58.7338 32.5847C58.7229 32.5783 58.7139 32.5692 58.7077 32.5582C58.7016 32.5473 58.6984 32.5349 58.6985 32.5223C58.6987 32.5097 58.7022 32.4974 58.7087 32.4866C58.8048 32.3222 58.9343 32.1797 59.0889 32.0684C59.271 31.9386 59.4834 31.8739 59.7265 31.8739C59.9722 31.8739 60.1676 31.9354 60.3123 32.0581C60.4391 32.1653 60.522 32.3156 60.5612 32.5083C60.5634 32.5186 60.5632 32.5294 60.5608 32.5396C60.5583 32.5499 60.5536 32.5595 60.5469 32.5678C60.5403 32.576 60.5319 32.5827 60.5224 32.5873C60.5128 32.5919 60.5024 32.5943 60.4918 32.5944ZM61.4097 31.2362C61.0164 30.8526 60.505 30.6604 59.8756 30.6604C59.467 30.6604 59.0853 30.7331 58.7306 30.878C58.3757 31.023 58.0749 31.2201 57.8277 31.47C57.5764 31.7263 57.3781 32.0295 57.2439 32.3624C57.1008 32.7119 57.0283 33.0863 57.0307 33.464C57.0307 33.8477 57.1162 34.1971 57.2876 34.5117C57.4569 34.8246 57.7108 35.0837 58.0204 35.2591C58.3379 35.4428 58.6967 35.5345 59.0971 35.5345C59.6878 35.5345 60.22 35.3848 60.6933 35.0852C61.101 34.8274 61.3813 34.5694 61.6013 34.1625C61.6129 34.1409 61.6188 34.1167 61.6183 34.0921C61.6177 34.0676 61.6108 34.0436 61.5983 34.0225C61.5857 34.0014 61.5679 33.9839 61.5465 33.9717C61.5252 33.9596 61.5011 33.9532 61.4765 33.9531H60.2959C60.258 33.9537 60.2205 33.9617 60.1857 33.9768C60.151 33.9919 60.1195 34.0137 60.0932 34.041C60.0211 34.1133 59.9482 34.1464 59.8272 34.2065C59.6656 34.2867 59.4863 34.2882 59.2959 34.2882C59.0253 34.2882 58.8182 34.2191 58.6747 34.0811C58.5309 33.9429 58.458 33.7387 58.455 33.4681H61.292C61.666 33.4681 61.9815 33.177 61.9979 32.8032C61.9996 32.7622 62.0002 32.7215 61.9999 32.6814C61.9999 32.1015 61.8031 31.6199 61.4097 31.2362ZM20.5411 32.5944H18.8189C18.8063 32.5944 18.7939 32.591 18.7831 32.5847C18.7722 32.5783 18.7632 32.5692 18.757 32.5582C18.7508 32.5473 18.7476 32.5349 18.7478 32.5223C18.748 32.5097 18.7515 32.4974 18.7579 32.4866C18.8539 32.3221 18.9833 32.1797 19.1378 32.0684C19.3203 31.9386 19.5326 31.8739 19.7757 31.8739C20.0212 31.8739 20.2168 31.9354 20.3615 32.0581C20.4884 32.1653 20.5712 32.3156 20.6105 32.5083C20.6127 32.5186 20.6125 32.5294 20.61 32.5396C20.6076 32.5499 20.6028 32.5595 20.5962 32.5678C20.5895 32.576 20.5812 32.5827 20.5716 32.5873C20.5621 32.5919 20.5517 32.5943 20.5411 32.5944ZM19.9248 30.6604C19.5162 30.6604 19.1343 30.7331 18.7796 30.878C18.4252 31.023 18.1241 31.2201 17.8769 31.47C17.6256 31.7262 17.4272 32.0295 17.2932 32.3624C17.1501 32.7119 17.0776 33.0863 17.0799 33.464C17.0799 33.8477 17.1655 34.1971 17.3365 34.5117C17.506 34.8247 17.76 35.0837 18.0696 35.2591C18.3871 35.4428 18.7459 35.5345 19.1463 35.5345C19.7371 35.5345 20.269 35.3848 20.7426 35.0852C21.1503 34.8274 21.4306 34.5694 21.6506 34.1625C21.6623 34.1409 21.6682 34.1167 21.6677 34.0921C21.6672 34.0675 21.6604 34.0435 21.6478 34.0223C21.6352 34.0012 21.6173 33.9837 21.5959 33.9716C21.5745 33.9595 21.5504 33.9531 21.5258 33.9531H20.3451C20.3072 33.9537 20.2698 33.9617 20.235 33.9768C20.2002 33.9919 20.1688 34.0137 20.1424 34.041C20.0704 34.1133 19.9975 34.1464 19.8765 34.2065C19.7148 34.2867 19.5356 34.2882 19.3452 34.2882C19.0746 34.2882 18.8675 34.2191 18.724 34.0811C18.5942 33.9564 18.5219 33.7774 18.5072 33.5445C18.5065 33.5348 18.5079 33.5251 18.5111 33.5159C18.5143 33.5067 18.5194 33.4982 18.526 33.4911C18.5326 33.4839 18.5406 33.4782 18.5495 33.4742C18.5584 33.4703 18.5681 33.4682 18.5778 33.4681H21.3413C21.715 33.4681 22.0307 33.177 22.0471 32.8032C22.0489 32.7622 22.0495 32.7215 22.0492 32.6814C22.0492 32.1015 21.8524 31.6199 21.459 31.2362C21.0656 30.8526 20.554 30.6604 19.9248 30.6604ZM17.2941 31.5294L17.3907 31.045C17.3948 31.0245 17.3943 31.0034 17.3892 30.9831C17.3841 30.9628 17.3746 30.9439 17.3614 30.9278C17.3481 30.9116 17.3314 30.8986 17.3126 30.8896C17.2937 30.8807 17.2731 30.876 17.2522 30.876H16.4168C16.4064 30.876 16.3961 30.8737 16.3867 30.8693C16.3773 30.8648 16.3689 30.8584 16.3623 30.8503C16.3556 30.8423 16.3509 30.8329 16.3483 30.8228C16.3457 30.8127 16.3454 30.8022 16.3474 30.7919L16.3896 30.5693C16.4113 30.4507 16.464 30.357 16.5469 30.2879C16.6295 30.219 16.7317 30.1845 16.8532 30.1845H16.9751C17.1382 30.1845 17.2964 30.1282 17.4227 30.0249C17.549 29.9217 17.6357 29.7779 17.6681 29.618L17.7589 29.1693C17.763 29.1488 17.7625 29.1276 17.7575 29.1073C17.7524 29.087 17.7429 29.0681 17.7297 29.0519C17.7164 29.0357 17.6997 29.0226 17.6808 29.0137C17.6619 29.0047 17.6413 29 17.6203 29H16.696C16.2183 29 15.8331 29.123 15.5405 29.3685C15.2476 29.6145 15.0572 29.9648 14.9691 30.4202L14.8894 30.8192C14.8862 30.8352 14.8775 30.8496 14.8648 30.86C14.8522 30.8703 14.8363 30.876 14.82 30.876H14.4471C14.245 30.876 14.071 31.0186 14.0312 31.2166L13.8889 31.9284C13.8848 31.9489 13.8853 31.97 13.8904 31.9903C13.8955 32.0106 13.905 32.0295 13.9183 32.0457C13.9316 32.0618 13.9483 32.0749 13.9672 32.0838C13.9861 32.0927 14.0068 32.0974 14.0277 32.0974H14.5309C14.5754 32.0974 14.6088 32.1384 14.6 32.182L13.9926 35.2205C13.9884 35.241 13.9889 35.2621 13.994 35.2824C13.999 35.3027 14.0085 35.3216 14.0218 35.3378C14.035 35.354 14.0517 35.367 14.0706 35.3759C14.0895 35.3849 14.1102 35.3895 14.1311 35.3895H14.8991C15.2359 35.3895 15.5259 35.1517 15.592 34.8213L16.1254 32.1542C16.1286 32.1381 16.1373 32.1237 16.1499 32.1133C16.1626 32.103 16.1785 32.0973 16.1948 32.0974H16.6011C16.9379 32.0974 17.2279 31.8598 17.2941 31.5294ZM45.2842 29.1573H44.5203C44.1835 29.1573 43.8932 29.3951 43.8273 29.7255L42.796 34.8825C42.7837 34.944 42.7852 35.0074 42.8004 35.0683C42.8156 35.1291 42.8441 35.1859 42.8839 35.2344C42.9236 35.2829 42.9736 35.3219 43.0303 35.3487C43.087 35.3756 43.1489 35.3895 43.2117 35.3895H44.0941C44.1615 35.3895 44.2195 35.342 44.2327 35.2758L45.4227 29.3263C45.4268 29.3058 45.4263 29.2846 45.4212 29.2644C45.4161 29.2441 45.4066 29.2252 45.3934 29.2091C45.3801 29.1929 45.3635 29.1799 45.3446 29.1709C45.3257 29.162 45.3051 29.1573 45.2842 29.1573ZM48.791 30.8095H47.869C47.8585 30.8095 47.8482 30.8072 47.8387 30.8028C47.8293 30.7983 47.821 30.7918 47.8143 30.7838C47.8077 30.7757 47.803 30.7662 47.8005 30.7561C47.798 30.7459 47.7978 30.7354 47.7998 30.7251L48.0145 29.6409C48.0186 29.6204 48.0181 29.5992 48.013 29.579C48.0079 29.5587 47.9984 29.5399 47.9852 29.5237C47.9719 29.5076 47.9553 29.4946 47.9364 29.4857C47.9175 29.4768 47.8969 29.4721 47.876 29.4721H47.7878C47.7527 29.4721 47.7189 29.4852 47.6929 29.5088L45.2405 31.733L45.2039 31.9161C45.1998 31.9366 45.2003 31.9577 45.2053 31.978C45.2104 31.9983 45.2199 32.0172 45.2331 32.0334C45.2464 32.0495 45.2631 32.0626 45.282 32.0715C45.3009 32.0804 45.3215 32.0851 45.3425 32.0851H45.9408C45.9513 32.085 45.9616 32.0872 45.9711 32.0917C45.9805 32.0961 45.9889 32.1025 45.9955 32.1106C46.0022 32.1186 46.0069 32.1281 46.0095 32.1382C46.012 32.1483 46.0123 32.1589 46.0103 32.1691L45.9154 32.6398C45.8496 32.9643 45.7868 33.2894 45.727 33.6151C45.7007 33.7657 45.6875 33.8934 45.6875 33.9982C45.6875 34.4262 45.8222 34.765 46.0914 35.0146C46.3606 35.2647 46.7311 35.3895 47.2032 35.3895H47.4771C47.8139 35.3895 48.1039 35.1517 48.1701 34.8213L48.2957 34.1921C48.2998 34.1716 48.2993 34.1505 48.2943 34.1302C48.2892 34.1099 48.2797 34.091 48.2665 34.0748C48.2532 34.0586 48.2365 34.0456 48.2176 34.0367C48.1987 34.0277 48.1781 34.0231 48.1572 34.0231H47.7706C47.6051 34.0231 47.4779 33.9851 47.3895 33.9089C47.301 33.833 47.2571 33.7235 47.2571 33.58C47.2571 33.5126 47.3485 33.0332 47.5313 32.1419C47.5345 32.1259 47.5432 32.1116 47.5558 32.1012C47.5684 32.0909 47.5841 32.0852 47.6004 32.0851H48.1302C48.2938 32.085 48.4523 32.0283 48.5787 31.9244C48.705 31.8206 48.7915 31.6761 48.8232 31.5157L48.9298 30.9785C48.9339 30.958 48.9334 30.9368 48.9283 30.9165C48.9232 30.8962 48.9137 30.8773 48.9004 30.8612C48.8871 30.845 48.8704 30.832 48.8515 30.8231C48.8326 30.8141 48.8119 30.8095 48.791 30.8095ZM25.8199 30.8095H24.8979C24.8874 30.8095 24.8771 30.8072 24.8676 30.8028C24.8582 30.7983 24.8498 30.7918 24.8432 30.7838C24.8365 30.7757 24.8318 30.7662 24.8292 30.7561C24.8267 30.746 24.8264 30.7354 24.8285 30.7251L25.0434 29.6409C25.0475 29.6204 25.0469 29.5993 25.0418 29.579C25.0367 29.5588 25.0272 29.54 25.014 29.5238C25.0007 29.5077 24.9841 29.4947 24.9652 29.4858C24.9464 29.4768 24.9258 29.4722 24.9049 29.4721H24.8167C24.7817 29.4722 24.7478 29.4852 24.7218 29.5088L22.2692 31.7327L22.2328 31.9158C22.2288 31.9363 22.2293 31.9574 22.2344 31.9777C22.2394 31.9979 22.2489 32.0168 22.2622 32.033C22.2754 32.0491 22.2921 32.0622 22.311 32.0711C22.3299 32.0801 22.3505 32.0847 22.3714 32.0848H22.9698C22.9802 32.0847 22.9905 32.0869 23 32.0914C23.0094 32.0958 23.0178 32.1022 23.0244 32.1103C23.0311 32.1183 23.0359 32.1278 23.0384 32.1379C23.041 32.148 23.0412 32.1586 23.0392 32.1688L22.9443 32.6395C22.8447 33.1395 22.782 33.4643 22.7559 33.6148C22.7296 33.7654 22.7164 33.8931 22.7164 33.9979C22.7164 34.4259 22.8511 34.7647 23.1203 35.0143C23.3895 35.2644 23.76 35.3892 24.2321 35.3892H24.5057C24.8425 35.3892 25.1325 35.1514 25.1987 34.821L25.3246 34.1918C25.3287 34.1713 25.3282 34.1502 25.3231 34.1299C25.318 34.1097 25.3085 34.0908 25.2953 34.0746C25.282 34.0585 25.2654 34.0454 25.2465 34.0365C25.2276 34.0275 25.207 34.0229 25.1861 34.0228H24.7995C24.6337 34.0228 24.5066 33.9848 24.4187 33.9086C24.33 33.8328 24.286 33.7232 24.286 33.5797C24.286 33.5123 24.3774 33.0329 24.5599 32.1416C24.5632 32.1256 24.5719 32.1112 24.5845 32.1009C24.5971 32.0905 24.613 32.0848 24.6293 32.0848H25.1588C25.3224 32.0848 25.481 32.028 25.6074 31.9242C25.7338 31.8203 25.8203 31.6759 25.8521 31.5154L25.9587 30.9782C25.9628 30.9577 25.9623 30.9365 25.9572 30.9162C25.9521 30.8959 25.9426 30.877 25.9293 30.8609C25.916 30.8447 25.8993 30.8317 25.8804 30.8228C25.8615 30.8138 25.8408 30.8095 25.8199 30.8095ZM53.755 30.8095H52.9876C52.8241 30.8095 52.6657 30.8662 52.5393 30.9699C52.4129 31.0736 52.3264 31.2179 52.2946 31.3783L51.9147 33.2859C51.8623 33.5454 51.7554 33.756 51.594 33.9174C51.4323 34.0788 51.2411 34.1596 51.0205 34.1596C50.6283 34.1596 50.4324 33.9845 50.4324 33.6336C50.4324 33.5896 50.4365 33.5358 50.445 33.4725C50.4581 33.3843 50.6222 32.5528 50.9367 30.9788C50.9409 30.9583 50.9405 30.9371 50.9354 30.9168C50.9304 30.8965 50.921 30.8776 50.9077 30.8614C50.8945 30.8452 50.8778 30.8321 50.8589 30.8231C50.8401 30.8142 50.8194 30.8095 50.7985 30.8095H50.0311C49.8683 30.8094 49.7104 30.8656 49.5842 30.9686C49.458 31.0716 49.3713 31.2149 49.3387 31.3745L49.2356 31.8821C49.0754 32.6606 48.9796 33.1383 48.948 33.3149C48.918 33.4719 48.9021 33.6313 48.9002 33.7912C48.9002 34.3102 49.0754 34.7305 49.4263 35.0521C49.7766 35.3737 50.2432 35.5345 50.8257 35.5345C51.4994 35.5345 52.0626 35.3584 52.5154 35.0064C52.968 34.6543 53.2579 34.1623 53.385 33.5302L53.8938 30.9785C53.8979 30.958 53.8973 30.9368 53.8922 30.9165C53.8871 30.8962 53.8776 30.8773 53.8643 30.8612C53.8511 30.845 53.8344 30.832 53.8155 30.8231C53.7965 30.8141 53.7759 30.8095 53.755 30.8095ZM42.922 30.8095H42.1543C41.8175 30.8095 41.5272 31.0476 41.4613 31.3783L41.0817 33.2859C41.0293 33.5454 40.9224 33.756 40.7607 33.9174C40.5993 34.0788 40.4081 34.1596 40.1872 34.1596C39.7953 34.1596 39.5994 33.9845 39.5994 33.6336C39.5994 33.5896 39.6035 33.5358 39.6117 33.4725C39.6249 33.3843 39.7889 32.5528 40.1038 30.9788C40.1079 30.9583 40.1074 30.9371 40.1023 30.9168C40.0973 30.8965 40.0878 30.8776 40.0745 30.8614C40.0613 30.8452 40.0446 30.8321 40.0257 30.8232C40.0068 30.8142 39.9861 30.8095 39.9652 30.8095H39.1981C39.0353 30.8093 38.8773 30.8655 38.7511 30.9685C38.6249 31.0714 38.5382 31.2149 38.5057 31.3745L38.4026 31.8821C38.2424 32.6606 38.1463 33.1383 38.1147 33.3149C38.0848 33.4719 38.0688 33.6313 38.067 33.7912C38.067 34.3102 38.2424 34.7305 38.593 35.0521C38.9436 35.3737 39.4102 35.5345 39.9928 35.5345C40.6661 35.5345 41.2294 35.3584 41.6822 35.0064C42.135 34.6543 42.4246 34.1623 42.5518 33.5302L43.0605 30.9785C43.0646 30.958 43.0642 30.9368 43.0591 30.9165C43.0541 30.8963 43.0446 30.8773 43.0313 30.8612C43.018 30.845 43.0014 30.832 42.9825 30.823C42.9636 30.8141 42.9429 30.8095 42.922 30.8095ZM57.2524 31.6155L57.383 30.958C57.3871 30.9375 57.3866 30.9164 57.3815 30.8961C57.3764 30.8758 57.3669 30.8569 57.3537 30.8408C57.3404 30.8246 57.3238 30.8116 57.3049 30.8026C57.286 30.7937 57.2654 30.789 57.2445 30.789H56.9736C56.4762 30.789 56.0492 30.9305 55.6922 31.2137C55.6532 31.2447 55.5949 31.2242 55.5814 31.1765L55.5076 30.9129C55.4992 30.8832 55.4814 30.8571 55.4568 30.8385C55.4322 30.8199 55.4023 30.8098 55.3714 30.8098H55.056C54.7192 30.8098 54.4289 31.0476 54.363 31.378L53.6627 34.8825C53.6504 34.944 53.6519 35.0075 53.6671 35.0684C53.6823 35.1293 53.7108 35.186 53.7506 35.2346C53.7904 35.2831 53.8404 35.3222 53.8972 35.349C53.9539 35.3759 54.0159 35.3898 54.0786 35.3898H54.9611C55.0285 35.3898 55.0865 35.342 55.0996 35.2761L55.5615 32.9754C55.6248 32.6966 55.734 32.4951 55.8887 32.3709C56.043 32.2467 56.2613 32.1846 56.5427 32.1846H56.5591C56.7227 32.1846 56.8811 32.1279 57.0076 32.0241C57.134 31.9203 57.2205 31.7759 57.2524 31.6155ZM6.1181 29.331C5.60729 29.331 5.16209 29.4098 4.7825 29.567C4.40291 29.7243 4.10299 29.9674 3.88185 30.2958C3.66101 30.6244 3.55088 31.0204 3.55088 31.4843C3.55088 32.0584 3.90441 32.4737 4.41814 32.6934C4.80476 32.8589 5.22741 32.9204 5.62428 33.0586C5.95379 33.1734 6.22442 33.4107 6.04986 33.7792C5.91864 34.0559 5.58972 34.1831 5.29917 34.1831C4.87125 34.1831 4.6835 33.8169 4.61467 33.6254C4.60322 33.5938 4.58086 33.5674 4.55163 33.551C4.52241 33.5345 4.48826 33.529 4.45534 33.5355L3.17188 33.785C3.11931 33.7953 3.07257 33.8251 3.04097 33.8684C3.00937 33.9116 2.99525 33.9652 3.00141 34.0184C3.04652 34.4185 3.22519 34.8602 3.54034 35.1139C3.9088 35.4106 4.41316 35.5591 5.05402 35.5591C5.58122 35.5591 6.04693 35.4735 6.45141 35.3022C7.16432 35.0005 7.66809 34.3359 7.75157 33.563C7.78906 33.2168 7.72228 32.8624 7.54537 32.5724C7.45115 32.417 7.3252 32.2833 7.17574 32.1799C6.71004 31.8584 6.12132 31.8188 5.60466 31.6194C5.44737 31.5587 5.25025 31.4773 5.1905 31.3045C5.11318 31.0819 5.26021 30.8505 5.45733 30.7497C5.62897 30.6622 5.87324 30.6411 6.0604 30.6833C6.28593 30.7339 6.41714 30.9059 6.43999 31.1147C6.44878 31.1947 6.52786 31.248 6.60694 31.2324L7.85672 30.9896C7.90875 30.9793 7.95508 30.95 7.98666 30.9074C8.01823 30.8648 8.03278 30.8119 8.02748 30.7591C7.90827 29.56 6.69041 29.331 6.1181 29.331ZM30.8843 30.8095H30.1266C29.8782 30.8095 29.6477 30.9401 29.5203 31.1534L28.3315 33.1403C28.3242 33.1527 28.3134 33.1625 28.3004 33.1685C28.2874 33.1745 28.2729 33.1765 28.2588 33.174C28.2447 33.1716 28.2316 33.165 28.2214 33.155C28.2112 33.145 28.2042 33.1321 28.2014 33.1181L27.8491 31.376C27.8167 31.2161 27.73 31.0724 27.6038 30.9691C27.4775 30.8659 27.3195 30.8095 27.1564 30.8095H26.5193C26.4763 30.8095 26.4339 30.8194 26.3952 30.8383C26.3566 30.8572 26.3228 30.8846 26.2964 30.9186C26.27 30.9526 26.2516 30.9921 26.2428 31.0342C26.234 31.0763 26.2349 31.1199 26.2455 31.1616L27.2164 35.0034L27.0252 35.3242L26.696 35.8772C26.5944 36.048 26.5302 36.2383 26.5073 36.4357C26.4742 36.7142 26.5247 36.9962 26.6526 37.2458L26.7399 37.4157L26.8916 37.7115C26.9247 37.776 27.0088 37.7856 27.0568 37.7379C27.0627 37.7323 27.0679 37.726 27.0723 37.7192L27.2548 37.4263L27.4578 37.1012L27.8725 36.4357L27.9454 36.3191L27.9944 36.2403L28.3531 35.6674L29.4913 33.8494L31.1239 31.2424C31.1508 31.1996 31.1657 31.1504 31.1671 31.0999C31.1685 31.0494 31.1563 30.9995 31.1318 30.9553C31.1074 30.9111 31.0715 30.8742 31.028 30.8486C30.9845 30.823 30.9349 30.8095 30.8843 30.8095ZM35.8167 31.0497C35.9898 31.2014 36.109 31.3994 36.1749 31.6425C36.1839 31.6772 36.2058 31.7073 36.236 31.7265C36.2663 31.7458 36.3027 31.7529 36.338 31.7465L37.5102 31.5227C37.5628 31.5127 37.6097 31.4832 37.6414 31.44C37.6731 31.3969 37.6874 31.3433 37.6812 31.2901C37.6414 30.9384 37.4498 30.1889 36.5641 29.6274C36.179 29.3831 35.7212 29.2961 35.2326 29.2961C34.7274 29.2961 34.2471 29.3893 33.7916 29.5755C33.3362 29.7618 32.944 30.0146 32.6156 30.3333C32.287 30.6525 32.026 31.0362 31.833 31.4843C31.6392 31.935 31.5405 32.4208 31.5431 32.9113C31.5431 33.4025 31.6529 33.8465 31.8723 34.2425C32.4914 35.3599 33.9287 35.7597 35.1105 35.4788C36.1222 35.2381 37.4677 34.4118 37.6478 32.8135C37.6701 32.6152 37.4598 32.5721 37.362 32.7382C36.642 33.9625 34.6644 34.874 33.5889 33.8081C32.8637 33.0897 33.125 32.1176 33.6062 31.504C34.0848 30.8941 35.1615 30.4768 35.8167 31.0497ZM11.3861 33.7786C11.1363 34.0381 10.8428 34.1681 10.5062 34.1681C10.2412 34.1681 10.03 34.0908 9.87271 33.9361C9.71513 33.7815 9.63663 33.5771 9.63663 33.3231C9.63663 32.9725 9.75994 32.6682 10.0071 32.4102C10.2541 32.1518 10.5446 32.023 10.8788 32.023C11.1439 32.023 11.3571 32.1009 11.5185 32.257C11.6802 32.4128 11.761 32.6178 11.761 32.8721C11.761 33.2171 11.6359 33.5194 11.3861 33.7786ZM13.1815 30.8095H12.6959C12.648 30.8095 12.6009 30.8217 12.559 30.8449C12.5171 30.8681 12.4817 30.9016 12.4563 30.9422L12.3099 31.1759C12.3041 31.185 12.2964 31.1926 12.2873 31.1982C12.2782 31.2039 12.2679 31.2074 12.2573 31.2085C12.2466 31.2096 12.2359 31.2082 12.2258 31.2046C12.2157 31.2009 12.2066 31.195 12.1992 31.1873C11.8492 30.8388 11.4019 30.6645 10.858 30.6645C10.4952 30.6637 10.1361 30.7363 9.80212 30.878C9.47405 31.0145 9.1748 31.2119 8.92022 31.4597C8.66891 31.7058 8.46887 32.0048 8.31978 32.3583C8.16976 32.7162 8.09364 33.1008 8.09601 33.4889C8.09601 34.099 8.28581 34.5925 8.6654 34.9692C9.04499 35.3461 9.52739 35.5345 10.1129 35.5345C10.6275 35.5345 11.1023 35.3892 11.5369 35.0981C11.5465 35.0914 11.5575 35.0873 11.5691 35.0859C11.5807 35.0846 11.5924 35.0862 11.6032 35.0905C11.614 35.0948 11.6236 35.1016 11.6311 35.1105C11.6386 35.1194 11.6438 35.13 11.6462 35.1414L11.6752 35.2776C11.6819 35.3092 11.6994 35.3376 11.7245 35.358C11.7497 35.3783 11.7811 35.3895 11.8134 35.3895H12.2041C12.541 35.3895 12.8312 35.1517 12.8971 34.8213L13.5974 31.3168C13.6097 31.2553 13.6082 31.1918 13.593 31.1309C13.5778 31.07 13.5493 31.0132 13.5095 30.9647C13.4698 30.9162 13.4197 30.8771 13.363 30.8503C13.3063 30.8234 13.2443 30.8095 13.1815 30.8095Z" fill="#293745"/>
</svg>
