<svg width="62" height="62" viewBox="0 0 62 62" fill="none" xmlns="http://www.w3.org/2000/svg">
<circle cx="31" cy="31" r="31" fill="#F5F5F5"/>
<g clip-path="url(#clip0_1615_165)">
<path d="M49.2134 24C45.7391 24 43.4704 26.3797 43.4704 30.3141C43.4704 35.2005 46.9448 36.5966 49.4355 36.5966C52.5767 36.5966 54.3695 34.4866 54.3695 34.4866L52.7671 32.8842C51.9104 33.6457 50.9268 34.1058 49.4673 34.1058C47.5318 34.1058 46.2309 32.9794 46.2309 31.4247H54.8613C54.8454 31.4088 56.3525 24 49.2134 24ZM46.2309 29.2988C46.2309 27.2047 47.8173 26.2052 49.5149 26.2052C51.2124 26.2052 52.7513 27.2364 52.7513 29.2988H46.2309ZM17.4365 29.0926C16.3259 28.9498 13.1371 29.0767 13.1371 27.6171C13.1371 26.7605 14.4698 26.2845 15.7072 26.2845C17.6744 26.2845 18.9912 27.0777 19.3561 27.3316L21.0219 25.6658C20.5301 25.285 18.7056 24 15.7072 24C12.9785 24 10.5194 25.4278 10.5194 27.7123C10.5194 31.2184 14.7553 31.2184 16.5163 31.3929C17.5951 31.504 18.5628 31.5675 18.5628 32.6145C18.5628 33.5981 17.0716 34.1375 15.9134 34.1375C14.0255 34.1375 12.8992 33.5188 11.7886 32.5193L10.0118 34.312C11.6458 35.8985 13.7241 36.5966 15.7707 36.5966C18.9436 36.5966 21.244 35.2005 21.244 32.3924C21.244 30.5204 19.9907 29.4099 17.4365 29.0926ZM26.5428 24C23.7982 24 22.0055 25.3961 21.6882 25.6817L23.354 27.3474C23.6871 27.0777 24.8135 26.3004 26.5745 26.3004C28.6845 26.3004 29.3191 27.1412 29.3191 28.0931V29.2829H25.5592C24.1631 29.2829 21.4344 29.632 21.4344 32.6938C21.4344 34.9466 22.7194 36.5966 25.7971 36.5966C27.336 36.5966 28.51 36.0889 29.3191 35.137V36.3586H32.0478V28.2835C32.032 25.4596 30.3027 24 26.5428 24ZM29.335 31.9482C29.335 34.2803 27.6692 34.1534 26.1938 34.1534C24.6866 34.1534 23.7347 33.7568 23.7347 32.7097C23.7347 31.742 24.5121 31.4088 26.1303 31.4088H29.335V31.9482ZM40.4561 24.2538V25.6023C39.536 24.5394 38.4254 24 36.9024 24C34.3165 24 32.9839 25.4437 32.5396 26.9984C32.3651 27.5696 32.3175 28.6642 32.3175 30.2824C32.3175 31.8054 32.3334 33.2015 32.8569 34.2645C33.6026 35.7557 35.3953 36.5966 36.9024 36.5966C38.362 36.5966 39.5994 36.0254 40.4561 35.0577V35.8192C40.4561 36.7076 40.1547 37.2946 39.5836 37.7547C39.0124 38.2148 38.2985 38.5003 37.299 38.5003C36.3948 38.5003 35.5381 38.0085 35.0463 37.6595L33.206 39.4998C34.3958 40.4675 35.8236 41.118 37.3466 41.1339C38.9648 41.1497 40.2816 40.6579 41.4239 39.7536C42.5185 38.8969 43.2166 37.2629 43.2166 35.5495V24.2538H40.4561ZM40.4561 30.2824C40.4561 31.2184 40.4403 31.9165 40.3609 32.2655C40.1864 33.0429 39.298 34.0741 37.6798 34.0741C37.2673 34.0741 35.2049 33.8361 34.9669 32.0434C34.9193 31.6785 34.8876 31.2026 34.8876 30.2666C34.8876 28.8705 34.9511 28.4262 35.0145 28.0614C35.1573 27.3633 36.0775 26.3162 37.6798 26.3162C39.6312 26.3162 40.2657 27.6489 40.3609 28.1724C40.4403 28.5532 40.4561 29.3464 40.4561 30.2824Z" fill="#3FAE2A"/>
</g>
<defs>
<clipPath id="clip0_1615_165">
<rect width="45" height="17.118" fill="white" transform="translate(10 24)"/>
</clipPath>
</defs>
</svg>
