<svg width="66" height="66" viewBox="0 0 66 66" fill="none" xmlns="http://www.w3.org/2000/svg">
<circle cx="32.9183" cy="32.9183" r="32.9183" fill="#F5F5F5"/>
<path d="M15.2917 20C12.2851 20 10 22.2609 10 25.1634C10 28.3448 12.2851 29.5742 14.8177 30.3298C17.2145 31.0825 18.3525 31.919 18.3525 33.5682C18.3525 35.2444 17.0968 36.4198 15.4577 36.4198C13.8125 36.4198 12.3908 35.2444 12.3908 33.4333C12.3908 32.4288 12.8647 32.1739 12.8647 31.6162C12.8647 30.9745 12.4209 30.5008 11.6934 30.5008C10.8633 30.5008 10 31.7601 10 33.5472C10 36.4258 12.4813 38.5427 15.4577 38.5427C18.4642 38.5427 20.7493 36.2819 20.7493 33.3793C20.7493 30.2219 18.4642 28.9685 15.9075 28.2159C13.5408 27.4903 12.3968 26.6237 12.3968 24.9745C12.3968 23.3313 13.6224 22.1559 15.2615 22.1559C16.961 22.1559 18.3284 23.3553 18.3525 25.0045C18.3797 25.7571 18.908 26.2039 19.5238 26.2039C20.1637 26.2039 20.7493 25.7571 20.7191 24.9445C20.6648 22.066 18.2439 20 15.2917 20ZM27.3782 38.5157C28.7155 38.5157 29.7448 38.069 29.7448 37.1724C29.7448 36.5008 29.1894 36.057 28.6551 36.057C28.2657 36.057 27.988 36.2219 27.348 36.2219C25.6184 36.2219 24.257 34.7436 24.257 33.0105C24.257 31.1424 25.6486 29.6582 27.4054 29.6582C29.3826 29.6582 30.6383 31.1664 30.6383 33.3433V37.3403C30.6383 38.039 31.1938 38.5157 31.8639 38.5157C32.5039 38.5157 33.0593 38.039 33.0593 37.3403V33.2624C33.0593 29.913 30.75 27.4543 27.4597 27.4543C24.3928 27.4543 21.8602 29.8291 21.8602 33.0105C21.8602 36.087 24.3717 38.5157 27.3782 38.5157ZM39.6278 46C42.6344 46 44.9195 43.7391 44.9195 40.8366C44.9195 37.6522 42.6344 36.4258 40.0776 35.6702C37.711 34.9175 36.5699 34.081 36.5699 32.4288C36.5699 30.7796 37.8227 29.5802 39.4346 29.5802C41.0798 29.5802 42.5227 30.7556 42.5227 32.5667C42.5227 33.5742 42.0487 33.8261 42.0487 34.3838C42.0487 35.0225 42.4925 35.4993 43.1928 35.4993C44.0561 35.4993 44.9195 34.2399 44.9195 32.4528C44.9195 29.5742 42.417 27.4543 39.4346 27.4543C36.4281 27.4543 34.1732 29.7181 34.1732 32.6207C34.1732 35.7781 36.4281 37.0315 38.9909 37.7841C41.3877 38.5097 42.5227 39.3763 42.5227 41.0255C42.5227 42.6987 41.2669 43.8441 39.658 43.8441C37.9313 43.8441 36.5911 42.6747 36.5699 40.9955C36.5398 40.2429 35.9843 39.8201 35.3957 39.8201C34.7588 39.8201 34.1732 40.2429 34.2003 41.0495C34.2245 43.964 36.6454 46 39.6278 46ZM51.7144 38.5157C53.272 38.5157 54.5036 38.069 55.3609 37.5352C56.194 37.0075 56.5261 36.5547 56.5261 36.057C56.5261 35.5292 56.1367 35.0525 55.4152 35.0525C54.5489 35.0525 53.8576 36.3358 51.7385 36.3358C49.873 36.3358 48.3939 34.8576 48.3939 32.9865C48.3939 31.1424 49.8157 29.6342 51.5967 29.6342C53.5195 29.6342 54.5489 30.8936 54.5489 31.7002C54.5489 31.925 54.3829 32.039 54.1595 32.039H51.82C51.1831 32.039 50.7092 32.4588 50.7092 33.0165C50.7092 33.6282 51.1831 34.081 51.82 34.081H55.0228C56.2484 34.081 57 33.4393 57 32.3478C57 29.6102 54.6636 27.4603 51.5665 27.4603C48.4996 27.4603 46.0273 29.919 46.0273 32.9865C46.0273 36.057 48.5961 38.5157 51.7144 38.5157Z" fill="#00D639"/>
</svg>
