<svg width="62" height="62" viewBox="0 0 62 62" fill="none" xmlns="http://www.w3.org/2000/svg">
<circle cx="31" cy="31" r="31" fill="#F5F5F5"/>
<g clip-path="url(#clip0_1615_166)">
<path d="M29.6456 20.0548C30.9357 18.7107 32.7317 17.877 34.718 17.877C37.3584 17.877 39.6621 19.3493 40.8889 21.5351C41.955 21.0588 43.1351 20.7938 44.3767 20.7938C49.139 20.7938 53 24.6884 53 29.4924C53 34.2969 49.139 38.1915 44.3767 38.1915C43.8062 38.1918 43.2372 38.1351 42.6781 38.0222C41.5978 39.9493 39.5391 41.2513 37.1761 41.2513C36.1869 41.2513 35.2513 41.0228 34.4183 40.6166C33.3231 43.1926 30.7715 44.9989 27.7977 44.9989C24.7009 44.9989 22.0615 43.0393 21.0484 40.2912C20.6057 40.3852 20.147 40.4342 19.6764 40.4342C15.9892 40.4343 13 37.4143 13 33.6884C13 31.1915 14.343 29.0114 16.3385 27.8451C15.9276 26.8998 15.6991 25.8565 15.6991 24.7596C15.6991 20.4747 19.1778 17.0012 23.4684 17.0012C25.9875 17.0012 28.2262 18.1989 29.6456 20.0548Z" fill="#00A1E0"/>
<path d="M18.7936 31.5201C18.7686 31.5857 18.8028 31.5994 18.8107 31.6107C18.8859 31.6654 18.9623 31.7048 19.0392 31.7486C19.4472 31.9651 19.8324 32.0283 20.2353 32.0283C21.0558 32.0283 21.5652 31.5919 21.5652 30.8893V30.8757C21.5652 30.2261 20.9903 29.9902 20.4507 29.8198L20.3806 29.797C19.9737 29.6648 19.6228 29.5509 19.6228 29.2831V29.2689C19.6228 29.0398 19.8279 28.8711 20.1458 28.8711C20.4991 28.8711 20.9185 28.9885 21.1886 29.1378C21.1886 29.1378 21.2678 29.1891 21.2968 29.1121C21.3128 29.0711 21.4495 28.703 21.4638 28.6631C21.4792 28.6198 21.4518 28.5879 21.4239 28.5708C21.1156 28.3833 20.6894 28.2551 20.2484 28.2551L20.1664 28.2557C19.4154 28.2557 18.8912 28.7093 18.8912 29.3594V29.3731C18.8912 30.0585 19.4695 30.2808 20.0114 30.4357L20.0986 30.4625C20.4935 30.5839 20.8336 30.6882 20.8336 30.9662V30.9799C20.8336 31.2341 20.6126 31.4232 20.2559 31.4232C20.1174 31.4232 19.6758 31.4204 19.1989 31.1189C19.1413 31.0853 19.1077 31.0608 19.0633 31.034C19.0399 31.0192 18.9812 30.9935 18.9556 31.0711L18.7936 31.5201ZM30.8056 31.5201C30.7805 31.5857 30.8147 31.5994 30.8227 31.6107C30.8979 31.6654 30.9743 31.7048 31.0511 31.7486C31.4591 31.9651 31.8444 32.0283 32.2472 32.0283C33.0677 32.0283 33.5771 31.5919 33.5771 30.8893V30.8757C33.5771 30.2261 33.0022 29.9902 32.4626 29.8198L32.3925 29.797C31.9856 29.6648 31.6346 29.5509 31.6346 29.2831V29.2689C31.6346 29.0398 31.8397 28.8711 32.1577 28.8711C32.511 28.8711 32.9303 28.9885 33.2004 29.1378C33.2004 29.1378 33.2796 29.1891 33.3087 29.1121C33.3246 29.0711 33.4614 28.703 33.4756 28.6631C33.4911 28.6198 33.4637 28.5879 33.4358 28.5708C33.1275 28.3833 32.7013 28.2551 32.2603 28.2551L32.1782 28.2557C31.4272 28.2557 30.903 28.7093 30.903 29.3594V29.3731C30.903 30.0585 31.4813 30.2808 32.0232 30.4357L32.1104 30.4625C32.5053 30.5839 32.8461 30.6882 32.8461 30.9662V30.9799C32.8461 31.2341 32.6244 31.4232 32.2677 31.4232C32.1293 31.4232 31.6877 31.4204 31.2107 31.1189C31.1532 31.0853 31.119 31.0619 31.0757 31.034C31.0609 31.0243 30.9914 30.9975 30.9674 31.0711L30.8056 31.5201ZM39.0058 30.1439C39.0058 30.5411 38.9317 30.8539 38.7859 31.075C38.6417 31.2938 38.4235 31.4004 38.1192 31.4004C37.8144 31.4004 37.5973 31.2944 37.4554 31.075C37.3118 30.8545 37.2389 30.5411 37.2389 30.1439C37.2389 29.7474 37.3118 29.4351 37.4554 29.2163C37.5973 28.9998 37.8144 28.8944 38.1192 28.8944C38.4235 28.8944 38.6417 28.9998 38.7865 29.2163C38.9318 29.4351 39.0058 29.7473 39.0058 30.1439ZM39.6907 29.4078C39.6235 29.1804 39.5186 28.9798 39.3791 28.8129C39.2394 28.6454 39.0628 28.5109 38.8531 28.4129C38.644 28.3155 38.3967 28.2659 38.1192 28.2659C37.8412 28.2659 37.5939 28.3155 37.3848 28.4129C37.1751 28.5109 36.9984 28.6454 36.8583 28.8129C36.7192 28.9804 36.6144 29.181 36.5466 29.4078C36.4799 29.6339 36.4463 29.8812 36.4463 30.1439C36.4463 30.4066 36.4799 30.6545 36.5466 30.8801C36.6144 31.1069 36.7187 31.3075 36.8589 31.475C36.9984 31.6425 37.1757 31.7764 37.3848 31.8715C37.5944 31.9667 37.8412 32.0151 38.1193 32.0151C38.3968 32.0151 38.6435 31.9667 38.8531 31.8715C39.0623 31.7764 39.2394 31.6425 39.3791 31.475C39.5187 31.308 39.6235 31.1075 39.6908 30.8801C39.758 30.6539 39.7916 30.406 39.7916 30.1439C39.7916 29.8818 39.758 29.6339 39.6907 29.4078ZM45.315 31.2943C45.2923 31.2276 45.2279 31.2527 45.2279 31.2527C45.1282 31.2909 45.0221 31.3262 44.9094 31.3439C44.7948 31.3615 44.6689 31.3706 44.5338 31.3706C44.2022 31.3706 43.939 31.2721 43.7504 31.0772C43.5612 30.8823 43.4552 30.5672 43.4563 30.141C43.4575 29.753 43.5509 29.4612 43.719 29.239C43.886 29.018 44.1401 28.9045 44.4792 28.9045C44.7618 28.9045 44.9772 28.937 45.2028 29.0082C45.2028 29.0082 45.2569 29.0316 45.2825 28.961C45.3424 28.7945 45.3868 28.6755 45.4506 28.4926C45.4689 28.4407 45.4244 28.4185 45.4085 28.4122C45.3196 28.3774 45.1099 28.3211 44.9515 28.2971C44.8033 28.2743 44.6301 28.2624 44.4375 28.2624C44.1497 28.2624 43.8933 28.3114 43.674 28.4094C43.4552 28.5068 43.2694 28.6413 43.1224 28.8088C42.9754 28.9764 42.8638 29.1769 42.7891 29.4037C42.715 29.6299 42.6774 29.8783 42.6774 30.141C42.6774 30.7091 42.8307 31.1683 43.1333 31.5045C43.4364 31.8419 43.8917 32.0134 44.4855 32.0134C44.8364 32.0134 45.1966 31.9422 45.4553 31.8402C45.4553 31.8402 45.5048 31.8162 45.4832 31.7587L45.315 31.2943ZM46.5134 29.7635C46.5459 29.543 46.6069 29.3595 46.7009 29.2165C46.8428 28.9994 47.0593 28.8803 47.3636 28.8803C47.6679 28.8803 47.869 29 48.0131 29.2165C48.1089 29.3595 48.1505 29.551 48.167 29.7635H46.5134ZM48.8194 29.2786C48.7613 29.0592 48.6171 28.8375 48.5225 28.7361C48.3732 28.5754 48.2274 28.4632 48.0827 28.4005C47.8935 28.3196 47.6667 28.266 47.4183 28.266C47.1288 28.266 46.8661 28.3145 46.653 28.4147C46.4394 28.515 46.2599 28.6518 46.1191 28.8222C45.9783 28.9919 45.8724 29.1942 45.8051 29.4239C45.7373 29.6524 45.7031 29.9014 45.7031 30.164C45.7031 30.4313 45.7385 30.6803 45.8086 30.9042C45.8792 31.1298 45.992 31.3287 46.1448 31.4933C46.2969 31.6592 46.4929 31.7891 46.7277 31.8796C46.9607 31.9697 47.2439 32.0164 47.5693 32.0158C48.2388 32.0135 48.5915 31.8643 48.7368 31.7839C48.7624 31.7697 48.787 31.7446 48.7561 31.6728L48.6046 31.2483C48.5818 31.1851 48.5174 31.2084 48.5174 31.2084C48.3516 31.2699 48.1157 31.3805 47.5658 31.3794C47.2063 31.3788 46.9396 31.2728 46.7726 31.107C46.6011 30.9372 46.5174 30.6876 46.5026 30.3355L48.8211 30.3378C48.8211 30.3378 48.882 30.3366 48.8883 30.2773C48.8906 30.2524 48.9681 29.8011 48.8194 29.2786ZM27.9454 29.7635C27.9785 29.543 28.0389 29.3595 28.1329 29.2165C28.2748 28.9994 28.4913 28.8803 28.7956 28.8803C29.0998 28.8803 29.301 29 29.4457 29.2165C29.5408 29.3595 29.5824 29.551 29.599 29.7635H27.9454ZM30.2508 29.2786C30.1927 29.0592 30.0491 28.8375 29.9546 28.7361C29.8053 28.5754 29.6594 28.4632 29.5147 28.4005C29.3255 28.3196 29.0987 28.266 28.8503 28.266C28.5614 28.266 28.2981 28.3145 28.0851 28.4147C27.8714 28.515 27.6919 28.6518 27.5512 28.8222C27.4104 28.9919 27.3044 29.1942 27.2372 29.4239C27.17 29.6524 27.1352 29.9014 27.1352 30.164C27.1352 30.4313 27.1705 30.6803 27.2406 30.9042C27.3113 31.1298 27.4242 31.3287 27.5768 31.4933C27.729 31.6592 27.925 31.7891 28.1597 31.8796C28.3928 31.9697 28.676 32.0164 29.0013 32.0158C29.6708 32.0135 30.0236 31.8643 30.1689 31.7839C30.1945 31.7697 30.219 31.7446 30.1882 31.6728L30.0372 31.2483C30.0139 31.1851 29.9495 31.2084 29.9495 31.2084C29.7837 31.2699 29.5484 31.3805 28.9974 31.3794C28.6384 31.3788 28.3717 31.2728 28.2048 31.107C28.0332 30.9372 27.9495 30.6876 27.9347 30.3355L30.2532 30.3378C30.2532 30.3378 30.3141 30.3366 30.3204 30.2773C30.3226 30.2524 30.4001 29.8011 30.2508 29.2786ZM22.934 31.2816C22.8434 31.2092 22.8308 31.191 22.8001 31.1443C22.7545 31.073 22.7311 30.9716 22.7311 30.8428C22.7311 30.6388 22.7984 30.4924 22.938 30.3938C22.9363 30.3944 23.1374 30.2201 23.6103 30.2263C23.9425 30.2309 24.2394 30.2799 24.2394 30.2799V31.334H24.2399C24.2399 31.334 23.9454 31.3972 23.6137 31.4172C23.142 31.4457 22.9323 31.281 22.934 31.2816ZM23.8565 29.6525C23.7625 29.6457 23.6405 29.6417 23.4946 29.6417C23.2958 29.6417 23.1038 29.6667 22.9237 29.7152C22.7425 29.7636 22.5795 29.8394 22.4394 29.9397C22.2994 30.0396 22.1844 30.1704 22.1032 30.322C22.0212 30.4747 21.9795 30.6548 21.9795 30.8565C21.9795 31.0616 22.0149 31.24 22.0855 31.3859C22.1562 31.5323 22.2582 31.6542 22.3881 31.7483C22.5168 31.8423 22.6758 31.9112 22.8604 31.9528C23.0422 31.9944 23.2485 32.0154 23.4741 32.0154C23.7117 32.0154 23.9488 31.9961 24.1784 31.9567C24.4057 31.918 24.6849 31.8616 24.7624 31.844C24.8167 31.8309 24.8709 31.817 24.9248 31.8024C24.9824 31.7881 24.9778 31.7266 24.9778 31.7266L24.9767 29.6064C24.9767 29.1414 24.8525 28.7966 24.608 28.583C24.3647 28.3699 24.0063 28.2621 23.5431 28.2621C23.3693 28.2621 23.0895 28.2861 22.922 28.3197C22.922 28.3197 22.4154 28.4177 22.2069 28.5807C22.2069 28.5807 22.1613 28.6092 22.1864 28.673L22.3505 29.1141C22.371 29.171 22.4263 29.1517 22.4263 29.1517C22.4263 29.1517 22.4439 29.1448 22.4645 29.1328C22.9106 28.8901 23.4747 28.8975 23.4747 28.8975C23.7255 28.8975 23.918 28.9477 24.0479 29.0474C24.1744 29.1442 24.2388 29.2906 24.2388 29.5995V29.6975C24.0394 29.669 23.8565 29.6525 23.8565 29.6525ZM42.5563 28.4579C42.5739 28.4054 42.5369 28.3804 42.5215 28.3747C42.4823 28.3593 42.2851 28.3177 42.1329 28.308C41.8418 28.2904 41.68 28.3394 41.5352 28.4043C41.3916 28.4693 41.2321 28.5741 41.1432 28.6932V28.4112C41.1432 28.3718 41.1153 28.3405 41.0765 28.3405H40.4822C40.4435 28.3405 40.4156 28.3718 40.4156 28.4112V31.8693C40.4156 31.908 40.4475 31.9399 40.4862 31.9399H41.0953C41.114 31.9398 41.1319 31.9323 41.145 31.9191C41.1581 31.9058 41.1655 31.8879 41.1654 31.8693V30.1417C41.1654 29.9097 41.1911 29.6784 41.2424 29.5331C41.2925 29.3895 41.3609 29.2744 41.4452 29.1918C41.5301 29.1097 41.6264 29.0522 41.7318 29.0197C41.8395 28.9867 41.9586 28.9758 42.0429 28.9758C42.1643 28.9758 42.2976 29.0072 42.2976 29.0072C42.342 29.0123 42.3671 28.9849 42.3819 28.9445C42.4218 28.8385 42.5347 28.5211 42.5563 28.4579Z" fill="white"/>
<path d="M36.8388 26.8552C36.7647 26.8325 36.6975 26.8171 36.6097 26.8006C36.5208 26.7846 36.4148 26.7766 36.2946 26.7766C35.8752 26.7766 35.5447 26.8951 35.3129 27.1287C35.0821 27.3612 34.9254 27.7151 34.8467 28.1806L34.8182 28.3373H34.2918C34.2918 28.3373 34.2279 28.335 34.2142 28.4046L34.1282 28.8872C34.1219 28.9328 34.1419 28.9618 34.2034 28.9618H34.7157L34.196 31.8632C34.1555 32.0969 34.1088 32.2889 34.057 32.4347C34.0062 32.5783 33.9567 32.686 33.8952 32.7646C33.8359 32.8399 33.78 32.8957 33.6832 32.9282C33.6034 32.9549 33.5111 32.9675 33.4102 32.9675C33.3544 32.9675 33.2798 32.9583 33.2245 32.9469C33.1698 32.9361 33.1407 32.9242 33.0991 32.9065C33.0991 32.9065 33.0393 32.8837 33.0154 32.9435C32.9965 32.9931 32.8598 33.3686 32.8433 33.4148C32.8273 33.4609 32.8501 33.4968 32.8791 33.5076C32.9475 33.5316 32.9982 33.5475 33.0911 33.5697C33.2199 33.6 33.3287 33.6016 33.4307 33.6016C33.6438 33.6016 33.8387 33.5714 33.9999 33.5133C34.1618 33.4546 34.3031 33.3526 34.4284 33.2148C34.5635 33.0655 34.6484 32.9093 34.7293 32.6957C34.8096 32.4848 34.8786 32.2227 34.9333 31.9174L35.4558 28.9618H36.2193C36.2193 28.9618 36.2837 28.9641 36.2968 28.894L36.3834 28.412C36.3891 28.3658 36.3698 28.3373 36.3076 28.3373H35.5663C35.5703 28.3208 35.6039 28.0598 35.6888 27.8143C35.7253 27.71 35.7937 27.6251 35.8512 27.567C35.9083 27.51 35.9738 27.4695 36.0456 27.4462C36.1191 27.4222 36.2029 27.4108 36.2946 27.4108C36.3641 27.4108 36.433 27.4188 36.4849 27.4296C36.5567 27.445 36.5846 27.453 36.6034 27.4587C36.6792 27.4815 36.6894 27.4593 36.7043 27.4229L36.8815 26.9363C36.8997 26.8837 36.8547 26.8615 36.8388 26.8552ZM26.4812 31.8695C26.4812 31.9083 26.4533 31.9396 26.4146 31.9396H25.7997C25.761 31.9396 25.7336 31.9083 25.7336 31.8695V26.9214C25.7336 26.8826 25.761 26.8513 25.7997 26.8513H26.4146C26.4533 26.8513 26.4812 26.8826 26.4812 26.9214V31.8695Z" fill="white"/>
</g>
<defs>
<clipPath id="clip0_1615_166">
<rect width="40" height="28" fill="white" transform="translate(13 17)"/>
</clipPath>
</defs>
</svg>
