<svg width="66" height="66" viewBox="0 0 66 66" fill="none" xmlns="http://www.w3.org/2000/svg">
<circle cx="32.9183" cy="32.9183" r="32.9183" fill="#F5F5F5"/>
<path d="M16.9549 27C16.0331 26.6504 15.0449 26.5454 14.0762 26.6943H14V26.6223C14.5103 25.2484 15.4009 24.0711 16.5543 23.2459C17.7076 22.4207 19.0695 21.9864 20.4601 22.0003H23V24.9678H20.4601C19.7742 24.9685 19.0993 25.1505 18.4962 25.4974C17.8932 25.8444 17.3809 26.3453 17.0057 26.955L16.9549 27Z" fill="#1F62FF"/>
<path d="M38.4688 43C37.5518 43.0028 36.6436 42.8106 35.7964 42.4347C34.9494 42.0588 34.1804 41.5067 33.5341 40.8103C32.8665 40.0681 32.3449 39.1901 32 38.2282V38.1459H32.0768C33.0367 38.3477 34.028 38.2977 34.9659 38C35.3449 38.6127 35.8624 39.1131 36.4704 39.4544C37.0783 39.7958 37.7569 39.9671 38.4432 39.9525H41V42.9635L38.4688 43Z" fill="#1F62FF"/>
<path d="M31.0086 27C30.6244 26.3915 30.1068 25.8974 29.5027 25.5626C28.8986 25.2279 28.2271 25.0631 27.5497 25.0834H25V22.0001H27.5497C28.9366 21.9911 30.294 22.4377 31.4447 23.2817C32.5953 24.1257 33.4858 25.3279 34 26.7315V26.8056H33.9404C33.6589 26.7624 33.3749 26.7408 33.0906 26.7407C32.4057 26.7217 31.7218 26.809 31.0595 27H31.0086Z" fill="#1F62FF"/>
<path d="M43 42.9818V39.9981H45.5593C46.2503 39.9974 46.9303 39.8144 47.538 39.4654C48.1456 39.1167 48.6617 38.613 49.0399 38C49.6911 38.2472 50.3782 38.3727 51.0701 38.3707C51.3555 38.3704 51.6405 38.3492 51.9232 38.3073H52V38.3798C51.4839 39.7502 50.5899 40.9242 49.435 41.7483C48.28 42.5724 46.9175 43.0086 45.5251 42.9999L43 42.9818Z" fill="#1F62FF"/>
<path d="M25 42.9815V39.9373H27.5593C28.2417 39.9544 28.9172 39.7861 29.5237 39.4477C30.1304 39.1092 30.6488 38.6114 31.0312 38C31.5578 38.1461 32.1001 38.2144 32.6436 38.203H32.9507C33.2764 38.1897 33.5997 38.1371 33.9147 38.0462H34V38.1292C33.4874 39.5389 32.6009 40.7536 31.452 41.6202C30.3029 42.4867 28.9427 42.9669 27.5422 43L25 42.9815Z" fill="#1F62FF"/>
<path d="M14.5 36C16.433 36 18 34.433 18 32.5C18 30.567 16.433 29 14.5 29C12.567 29 11 30.567 11 32.5C11 34.433 12.567 36 14.5 36Z" fill="#1F62FF"/>
<path d="M20.4688 42.9999C19.0777 43.0087 17.7165 42.5734 16.5626 41.7508C15.4086 40.9281 14.5156 39.7562 14 38.3881V38.3159H14.0767C14.3591 38.3577 14.6439 38.3789 14.929 38.3791C15.6234 38.3761 16.3122 38.2478 16.9659 38C17.3436 38.612 17.8593 39.1148 18.4664 39.463C19.0734 39.8112 19.7528 39.9939 20.4432 39.9946H23V42.9728L20.4688 42.9999Z" fill="#1F62FF"/>
<path d="M32.9999 36C35.2092 36 37 34.433 37 32.5C37 30.567 35.2092 29 32.9999 29C30.7908 29 29 30.567 29 32.5C29 34.433 30.7908 36 32.9999 36Z" fill="#1F62FF"/>
<path d="M51.4999 36C53.433 36 55 34.433 55 32.5C55 30.567 53.433 29 51.4999 29C49.5669 29 48 30.567 48 32.5C48 34.433 49.5669 36 51.4999 36Z" fill="#1F62FF"/>
<path d="M49.0169 27C48.6403 26.388 48.1261 25.8853 47.5208 25.5371C46.9154 25.1889 46.238 25.0062 45.5496 25.0055H43V22.0001H45.5496C46.9366 21.9913 48.294 22.4267 49.4447 23.2493C50.5953 24.072 51.4858 25.2438 52 26.6119V26.6841H51.9235C50.9511 26.5343 49.9591 26.6397 49.034 26.991L49.0169 27Z" fill="#1F62FF"/>
<path d="M34.932 27C34.3801 26.8242 33.8079 26.7322 33.2323 26.7268C32.8443 26.7267 32.4573 26.7663 32.0765 26.8452H32V26.7632C32.3402 25.8005 32.8575 24.9209 33.5212 24.1768C34.1673 23.4822 34.9359 22.9321 35.782 22.5584C36.6283 22.1848 37.5352 21.995 38.4505 22.0001H41V25.0055H38.4505C37.7661 24.991 37.0893 25.162 36.4831 25.5028C35.8769 25.8435 35.3609 26.3429 34.983 26.9545L34.932 27Z" fill="#1F62FF"/>
</svg>
