<svg width="62" height="62" viewBox="0 0 62 62" fill="none" xmlns="http://www.w3.org/2000/svg">
<circle cx="31" cy="31" r="31" fill="#EDF8FD"/>
<path d="M28.56 20.91C29.68 19.72 31.255 19.02 33.005 19.02C35.315 19.02 37.345 20.315 38.395 22.205C39.34 21.785 40.355 21.54 41.44 21.54C45.605 21.54 49 24.935 49 29.135C49 33.335 45.605 36.73 41.44 36.73C40.915 36.73 40.425 36.695 39.97 36.59C39.025 38.27 37.24 39.425 35.14 39.425C34.265 39.425 33.46 39.215 32.725 38.865C31.78 41.105 29.54 42.715 26.915 42.715C24.22 42.715 21.91 41 21 38.585C20.615 38.655 20.195 38.725 19.81 38.725C16.625 38.76 14 36.1 14 32.845C14 30.675 15.19 28.75 16.905 27.735C16.555 26.895 16.345 25.985 16.345 25.04C16.345 21.295 19.39 18.25 23.17 18.25C25.375 18.25 27.335 19.3 28.56 20.91Z" fill="#00A1E0"/>
<path d="M19.075 30.955C19.04 31.025 19.075 31.025 19.075 31.025L19.285 31.13C19.635 31.305 19.985 31.375 20.335 31.375C21.07 31.375 21.49 30.99 21.49 30.395C21.49 29.835 21 29.625 20.51 29.485L20.475 29.45C20.125 29.345 19.81 29.24 19.81 28.995C19.81 28.785 19.985 28.645 20.265 28.645C20.58 28.645 20.93 28.75 21.175 28.89C21.175 28.89 21.245 28.925 21.28 28.855C21.28 28.82 21.42 28.505 21.42 28.47C21.42 28.435 21.42 28.4 21.385 28.4C21.105 28.225 20.755 28.12 20.37 28.12H20.3C19.635 28.12 19.18 28.505 19.18 29.1C19.18 29.695 19.67 29.905 20.16 30.045L20.23 30.08C20.58 30.185 20.86 30.29 20.86 30.535C20.86 30.745 20.65 30.92 20.37 30.92C20.265 30.92 19.845 30.92 19.46 30.64C19.425 30.605 19.39 30.605 19.355 30.57C19.32 30.57 19.285 30.535 19.25 30.605L19.075 30.955V30.955ZM29.575 30.955C29.54 31.025 29.575 31.025 29.575 31.025L29.785 31.13C30.135 31.305 30.485 31.375 30.835 31.375C31.57 31.375 31.99 30.99 31.99 30.395C31.99 29.835 31.5 29.625 31.01 29.485L30.975 29.45C30.625 29.345 30.31 29.24 30.31 28.995C30.31 28.785 30.485 28.645 30.765 28.645C31.08 28.645 31.43 28.75 31.675 28.89C31.675 28.89 31.745 28.925 31.78 28.855C31.78 28.82 31.92 28.505 31.92 28.47C31.92 28.435 31.92 28.4 31.885 28.4C31.605 28.225 31.255 28.12 30.87 28.12H30.8C30.135 28.12 29.68 28.505 29.68 29.1C29.68 29.695 30.17 29.905 30.66 30.045L30.73 30.08C31.08 30.185 31.36 30.29 31.36 30.535C31.36 30.745 31.15 30.92 30.87 30.92C30.765 30.92 30.345 30.92 29.96 30.64C29.925 30.605 29.89 30.605 29.855 30.57C29.855 30.57 29.785 30.535 29.75 30.605L29.575 30.955V30.955ZM36.75 29.765C36.75 30.115 36.68 30.395 36.575 30.57C36.435 30.745 36.26 30.85 35.98 30.85C35.7 30.85 35.525 30.745 35.385 30.57C35.245 30.36 35.21 30.115 35.21 29.765C35.21 29.415 35.28 29.135 35.385 28.96C35.525 28.785 35.7 28.68 35.98 28.68C36.26 28.68 36.435 28.785 36.575 28.96C36.68 29.135 36.75 29.415 36.75 29.765ZM37.345 29.1C37.275 28.89 37.205 28.715 37.065 28.575C36.96 28.435 36.785 28.295 36.61 28.225C36.435 28.155 36.225 28.085 35.98 28.085C35.735 28.085 35.525 28.12 35.35 28.225C35.175 28.295 35 28.435 34.895 28.575C34.755 28.75 34.65 28.925 34.615 29.1C34.545 29.31 34.51 29.52 34.51 29.73C34.51 29.94 34.545 30.185 34.615 30.36C34.685 30.57 34.755 30.745 34.895 30.885C35 31.025 35.175 31.165 35.35 31.235C35.525 31.305 35.735 31.375 35.98 31.375C36.225 31.375 36.435 31.34 36.61 31.235C36.785 31.165 36.96 31.025 37.065 30.885C37.17 30.745 37.275 30.57 37.345 30.36C37.415 30.15 37.45 29.94 37.45 29.73C37.45 29.52 37.415 29.31 37.345 29.1ZM42.28 30.745C42.245 30.675 42.21 30.71 42.21 30.71C42.14 30.745 42.035 30.78 41.93 30.78C41.825 30.78 41.72 30.815 41.615 30.815C41.335 30.815 41.09 30.745 40.915 30.57C40.74 30.395 40.67 30.115 40.67 29.765C40.67 29.415 40.74 29.17 40.915 28.96C41.055 28.75 41.3 28.68 41.58 28.68C41.825 28.68 42 28.715 42.21 28.785C42.21 28.785 42.245 28.82 42.28 28.75C42.315 28.61 42.385 28.505 42.42 28.33C42.42 28.295 42.385 28.26 42.385 28.26C42.315 28.225 42.14 28.19 42 28.155C41.86 28.12 41.72 28.12 41.545 28.12C41.3 28.12 41.055 28.155 40.88 28.26C40.705 28.33 40.53 28.47 40.39 28.61C40.25 28.75 40.18 28.925 40.11 29.135C40.04 29.345 40.005 29.555 40.005 29.765C40.005 30.255 40.145 30.675 40.39 30.955C40.67 31.235 41.055 31.41 41.58 31.41C41.895 31.41 42.21 31.34 42.42 31.27C42.42 31.27 42.455 31.235 42.455 31.2L42.28 30.745V30.745ZM43.33 29.415C43.365 29.205 43.4 29.065 43.505 28.925C43.645 28.75 43.82 28.645 44.1 28.645C44.38 28.645 44.555 28.75 44.66 28.925C44.73 29.065 44.765 29.205 44.8 29.415H43.33ZM45.325 28.995C45.29 28.82 45.15 28.61 45.08 28.505C44.94 28.365 44.835 28.26 44.695 28.225C44.52 28.155 44.345 28.12 44.1 28.12C43.855 28.12 43.61 28.155 43.435 28.26C43.26 28.365 43.085 28.47 42.98 28.61C42.84 28.75 42.77 28.925 42.7 29.135C42.63 29.345 42.595 29.555 42.595 29.8C42.595 30.045 42.63 30.255 42.7 30.465C42.77 30.675 42.875 30.85 42.98 30.99C43.12 31.13 43.295 31.235 43.505 31.34C43.715 31.41 43.96 31.445 44.24 31.445C44.835 31.445 45.15 31.305 45.255 31.235C45.29 31.235 45.29 31.2 45.255 31.13L45.15 30.71C45.115 30.64 45.08 30.675 45.08 30.675C44.94 30.745 44.73 30.815 44.24 30.815C43.925 30.815 43.68 30.71 43.54 30.57C43.4 30.43 43.33 30.22 43.295 29.905H45.325C45.325 29.905 45.395 29.905 45.395 29.835C45.395 29.835 45.465 29.45 45.325 28.995V28.995ZM27.09 29.415C27.125 29.205 27.16 29.065 27.265 28.925C27.405 28.75 27.58 28.645 27.86 28.645C28.14 28.645 28.315 28.75 28.42 28.925C28.49 29.065 28.525 29.205 28.56 29.415H27.09ZM29.085 28.995C29.05 28.82 28.91 28.61 28.84 28.505C28.7 28.365 28.595 28.26 28.455 28.225C28.28 28.155 28.105 28.12 27.86 28.12C27.615 28.12 27.37 28.155 27.195 28.26C27.02 28.365 26.845 28.47 26.74 28.61C26.6 28.75 26.53 28.925 26.46 29.135C26.39 29.345 26.355 29.555 26.355 29.8C26.355 30.045 26.39 30.255 26.46 30.465C26.53 30.675 26.635 30.85 26.74 30.99C26.88 31.13 27.055 31.235 27.265 31.34C27.475 31.41 27.72 31.445 28 31.445C28.595 31.445 28.91 31.305 29.015 31.235C29.05 31.235 29.05 31.2 29.015 31.13L28.875 30.745C28.84 30.675 28.805 30.71 28.805 30.71C28.665 30.78 28.455 30.85 27.965 30.85C27.65 30.85 27.405 30.745 27.265 30.605C27.125 30.465 27.055 30.255 27.02 29.94H29.05C29.05 29.94 29.12 29.94 29.12 29.87C29.155 29.835 29.225 29.45 29.085 28.995V28.995ZM22.68 30.745C22.61 30.675 22.575 30.675 22.575 30.64C22.54 30.57 22.505 30.5 22.505 30.36C22.505 30.185 22.575 30.045 22.68 29.975C22.68 29.975 22.855 29.835 23.275 29.835C23.555 29.835 23.835 29.87 23.835 29.87V30.78C23.835 30.78 23.59 30.85 23.275 30.85C22.89 30.885 22.68 30.745 22.68 30.745V30.745ZM23.485 29.31H23.17C22.995 29.31 22.82 29.345 22.68 29.38C22.505 29.415 22.365 29.485 22.26 29.59C22.12 29.695 22.05 29.8 21.98 29.94C21.91 30.08 21.875 30.22 21.875 30.395C21.875 30.57 21.91 30.745 21.98 30.85C22.05 30.99 22.12 31.095 22.26 31.165C22.365 31.235 22.505 31.305 22.68 31.34C22.855 31.375 23.03 31.41 23.205 31.41C23.415 31.41 23.625 31.41 23.835 31.375C24.045 31.34 24.29 31.305 24.36 31.27C24.43 31.27 24.5 31.235 24.5 31.235C24.535 31.235 24.535 31.165 24.535 31.165V29.31C24.535 28.89 24.43 28.61 24.22 28.4C24.01 28.225 23.695 28.12 23.275 28.12C23.135 28.12 22.89 28.155 22.715 28.155C22.715 28.155 22.26 28.225 22.085 28.4C22.085 28.4 22.05 28.435 22.05 28.47L22.19 28.855C22.225 28.89 22.26 28.89 22.26 28.89H22.295C22.68 28.68 23.17 28.68 23.17 28.68C23.38 28.68 23.555 28.715 23.66 28.82C23.765 28.89 23.835 29.03 23.835 29.31V29.38L23.485 29.31V29.31ZM39.865 28.26C39.865 28.225 39.865 28.19 39.83 28.19C39.795 28.19 39.62 28.155 39.48 28.12C39.235 28.12 39.095 28.155 38.955 28.19C38.815 28.26 38.675 28.33 38.605 28.435V28.19C38.605 28.155 38.57 28.12 38.535 28.12H38.01C37.975 28.12 37.94 28.155 37.94 28.19V31.2C37.94 31.235 37.975 31.27 38.01 31.27H38.535C38.57 31.27 38.605 31.235 38.605 31.2V29.695C38.605 29.485 38.64 29.275 38.675 29.17C38.71 29.03 38.78 28.96 38.85 28.855C38.92 28.785 39.025 28.75 39.095 28.715C39.2 28.68 39.305 28.68 39.375 28.68C39.48 28.68 39.585 28.715 39.585 28.715C39.62 28.715 39.655 28.68 39.655 28.645C39.76 28.61 39.83 28.33 39.865 28.26Z" fill="white"/>
<path d="M34.86 26.86C34.79 26.825 34.72 26.825 34.65 26.825C34.58 26.825 34.475 26.79 34.37 26.79C34.02 26.79 33.705 26.895 33.495 27.105C33.285 27.315 33.145 27.63 33.075 28.015L33.04 28.155H32.585C32.585 28.155 32.515 28.155 32.515 28.225L32.445 28.645C32.445 28.68 32.445 28.715 32.515 28.715H32.97L32.55 31.27C32.515 31.48 32.48 31.655 32.445 31.76C32.41 31.9 32.34 31.97 32.305 32.04C32.27 32.11 32.2 32.145 32.13 32.18C32.06 32.215 31.99 32.215 31.885 32.215C31.85 32.215 31.78 32.215 31.71 32.18C31.675 32.18 31.64 32.145 31.605 32.145C31.605 32.145 31.57 32.11 31.535 32.18C31.535 32.215 31.395 32.565 31.395 32.6C31.395 32.635 31.395 32.67 31.43 32.67C31.5 32.705 31.535 32.705 31.605 32.74C31.71 32.775 31.815 32.775 31.885 32.775C32.06 32.775 32.235 32.74 32.375 32.705C32.515 32.67 32.655 32.565 32.76 32.46C32.865 32.32 32.935 32.18 33.04 32.005C33.11 31.83 33.18 31.585 33.215 31.34L33.67 28.75H34.3C34.3 28.75 34.37 28.75 34.37 28.68L34.44 28.26C34.44 28.225 34.44 28.19 34.37 28.19H33.705C33.705 28.19 33.74 27.945 33.81 27.735C33.845 27.63 33.915 27.56 33.95 27.525C33.985 27.49 34.055 27.455 34.125 27.42C34.195 27.385 34.265 27.385 34.335 27.385H34.51C34.58 27.385 34.58 27.42 34.615 27.42C34.685 27.455 34.685 27.42 34.72 27.385L34.86 26.965C34.895 26.895 34.86 26.895 34.86 26.86V26.86ZM25.795 31.27C25.795 31.305 25.76 31.34 25.725 31.34H25.2C25.165 31.34 25.13 31.305 25.13 31.27V26.93C25.13 26.895 25.165 26.86 25.2 26.86H25.725C25.76 26.86 25.795 26.895 25.795 26.93V31.27V31.27Z" fill="white"/>
</svg>
