<svg width="66" height="66" viewBox="0 0 66 66" fill="none" xmlns="http://www.w3.org/2000/svg">
<ellipse cx="32.9183" cy="33" rx="32.9183" ry="33" fill="#F5F5F5"/>
<g clip-path="url(#clip0_500_2)">
<path d="M41.9536 13H24.0957C21.1531 13.0007 18.3313 14.1699 16.2506 16.2506C14.1699 18.3313 13.0007 21.1531 13 24.0957V41.9536C13 44.8965 14.1689 47.719 16.2497 49.8003C18.3305 51.8815 21.1527 53.051 24.0957 53.0517H41.9536C44.8969 53.0517 47.7198 51.8824 49.8012 49.8012C51.8824 47.7198 53.0517 44.8969 53.0517 41.9536V24.0957C53.051 21.1527 51.8815 18.3305 49.8003 16.2497C47.719 14.1689 44.8965 13 41.9536 13ZM24.3217 43.6795C24.3177 44.1597 24.1242 44.6188 23.7833 44.9571C23.4423 45.2952 22.9816 45.485 22.5014 45.4848H22.4865C22.0034 45.481 21.5418 45.2855 21.2028 44.9414C20.8638 44.5972 20.6753 44.1328 20.6786 43.6497L20.7357 36.7162C20.739 36.2355 20.9322 35.7757 21.2732 35.4371C21.6142 35.0983 22.0754 34.9083 22.556 34.9083H22.5709C22.8099 34.9102 23.0463 34.9591 23.2664 35.0526C23.4865 35.1459 23.6861 35.2815 23.8537 35.4519C24.0213 35.6224 24.1538 35.8241 24.2434 36.0457C24.3331 36.2672 24.3783 36.5045 24.3763 36.7434L24.3217 43.6795ZM31.4241 25.1139V38.9065C31.4241 39.3926 31.231 39.8586 30.8872 40.2024C30.5436 40.546 30.0774 40.7391 29.5914 40.7391C29.1053 40.7391 28.6391 40.546 28.2954 40.2024C27.9517 39.8586 27.7586 39.3926 27.7586 38.9065V24.3291C27.7586 23.8431 27.9517 23.3769 28.2954 23.0332C28.6391 22.6895 29.1053 22.4964 29.5914 22.4964C30.0774 22.4964 30.5436 22.6895 30.8872 23.0332C31.231 23.3769 31.4241 23.8431 31.4241 24.3291V25.1139ZM38.8419 42.865C38.8512 43.1203 38.8088 43.375 38.7174 43.6138C38.626 43.8524 38.4876 44.0703 38.31 44.2543C38.1326 44.4383 37.92 44.5845 37.6847 44.6845C37.4495 44.7845 37.1965 44.8359 36.9409 44.8359C36.6853 44.8359 36.4322 44.7845 36.1971 44.6845C35.9619 44.5845 35.7491 44.4383 35.5717 44.2543C35.3943 44.0703 35.2557 43.8524 35.1643 43.6138C35.0729 43.375 35.0307 43.1203 35.0398 42.865V29.8993C35.0576 29.407 35.2657 28.9408 35.6203 28.5988C35.9748 28.2569 36.4483 28.0658 36.9409 28.0658C37.4334 28.0658 37.9069 28.2569 38.2615 28.5988C38.616 28.9408 38.8241 29.407 38.8419 29.8993V42.865ZM44.2383 36.1598H44.2209C43.7376 36.1598 43.274 35.9688 42.931 35.6283C42.5881 35.2876 42.394 34.8253 42.3907 34.3421L42.2864 22.3374C42.2755 22.0915 42.3143 21.8458 42.4005 21.6152C42.4867 21.3846 42.6184 21.1737 42.7879 20.9951C42.9574 20.8165 43.1612 20.6739 43.3871 20.5758C43.6129 20.4777 43.8562 20.4261 44.1024 20.4241C44.3486 20.4221 44.5926 20.4697 44.82 20.5641C45.0474 20.6586 45.2534 20.7978 45.4259 20.9736C45.5983 21.1494 45.7334 21.3582 45.8234 21.5874C45.9133 21.8166 45.9562 22.0615 45.9493 22.3077L46.0536 34.3098C46.0559 34.5505 46.0107 34.7891 45.9207 35.0124C45.8309 35.2357 45.6978 35.439 45.5291 35.6109C45.3605 35.7826 45.1598 35.9195 44.9383 36.0138C44.7169 36.1079 44.479 36.1576 44.2383 36.1598Z" fill="#FF4981"/>
</g>
<defs>
<clipPath id="clip0_500_2">
<rect width="40" height="40" fill="white" transform="translate(13 13)"/>
</clipPath>
</defs>
</svg>
