<svg width="66" height="66" viewBox="0 0 66 66" fill="none" xmlns="http://www.w3.org/2000/svg">
<circle cx="32.9183" cy="32.9183" r="32.9183" fill="#F5F5F5"/>
<g transform="translate(13 12.14) scale(0.078125)">
<g clip-path="url(#clip0_23_11)">
<rect y="11" width="512" height="512" rx="100" fill="black"/>
<path d="M0 438.475V371.23H94.1431L146.979 173.818H0V107.053H163.79L219.987 -105.73H290.114L233.917 107.053H369.848L428.447 -105.73H498.574L440.936 107.053H521.63V173.818H422.203L369.848 371.23H521.63V438.475H351.115L296.359 639.73H225.271L280.988 438.475H146.979L94.1431 639.73H23.0555L76.3712 438.475H0ZM164.75 371.23H299.241L353.517 173.818H216.145L164.75 371.23Z" fill="white"/>
</g>
</g>
<defs>
<clipPath id="clip0_23_11">
<rect y="11" width="512" height="512" rx="100" fill="white"/>
</clipPath>
</defs>
</svg>
