<svg width="66" height="66" viewBox="0 0 66 66" fill="none" xmlns="http://www.w3.org/2000/svg">
<circle cx="32.9183" cy="32.9183" r="32.9183" fill="#F5F5F5"/>
<path fill-rule="evenodd" clip-rule="evenodd" d="M31.6775 17.6274L18.7513 23.8977L31.6775 30.9717V17.6274ZM31.6775 34.3783L16.9854 26.3378V31.8114L31.6775 39.3951V34.3783ZM31.6775 42.7581L15.0398 34.1701C14.4012 33.8405 14 33.1814 14 32.4622V22.881L31.907 14.1947C33.1814 13.5764 34.6628 14.506 34.6628 15.924V22.9046L50.9568 31.2736C51.5972 31.6024 52 32.2625 52 32.9833V41.5865C52 42.3065 51.598 42.966 50.9587 43.2953L34.4745 51.7846C33.1973 52.4424 31.6775 51.5139 31.6775 50.0759V42.7581ZM34.6628 26.2641V48.3262L49.0145 40.9351V33.6354L34.6628 26.2641Z" fill="#362490"/>
</svg>
