<svg width="66" height="66" viewBox="0 0 66 66" fill="none" xmlns="http://www.w3.org/2000/svg">
<circle cx="32.9183" cy="32.9183" r="32.9183" fill="#F5F5F5"/>
<g clip-path="url(#clip0_533_2)">
<path d="M45.8624 38.4188L41.2306 33.9821L37.3384 33.9751V32.0413L41.2293 32.0329L45.8624 27.5976C46.1522 27.722 46.464 27.7864 46.7758 27.7864C47.3443 27.7864 47.9127 27.5794 48.346 27.1641C48.5507 26.9726 48.7142 26.7401 48.8259 26.4814C48.9377 26.2227 48.9954 25.9434 48.9954 25.661C48.9954 25.3786 48.9377 25.0992 48.8259 24.8406C48.7142 24.5819 48.5507 24.3494 48.346 24.1579C47.9186 23.758 47.3582 23.536 46.7765 23.536C46.1948 23.536 45.6345 23.758 45.2071 24.1579C44.8954 24.4499 44.6826 24.8343 44.5991 25.2561C44.5156 25.6779 44.5656 26.1157 44.7421 26.5069L40.5684 30.5046L37.3384 30.5102V28.7763H39.1155L42.6394 25.3883V19.1157C43.4769 18.8109 44.0743 18.0363 44.0743 17.1288C44.0743 15.957 43.0795 15.0034 41.8543 15.0034C40.6304 15.0034 39.6343 15.957 39.6343 17.1288C39.6343 18.0251 40.2193 18.7927 41.0416 19.1045V24.7577L38.4532 27.2466H37.297L32.9825 22.5485L28.668 27.2466H27.5408L24.951 24.7577V19.1031C25.7733 18.7913 26.3583 18.0237 26.3583 17.1274C26.3583 15.9556 25.3635 15.002 24.1383 15.002C22.9145 15.002 21.9183 15.9556 21.9183 17.1274C21.9183 18.0363 22.5171 18.8095 23.3533 19.1129V25.3869L26.8785 28.7735H28.628V30.5074L25.427 30.5032L21.2533 26.507C21.3751 26.2411 21.4382 25.9514 21.4382 25.6582C21.4382 25.0905 21.2064 24.5564 20.7897 24.1551C20.3622 23.7548 19.8016 23.5325 19.2195 23.5325C18.6375 23.5325 18.0769 23.7548 17.6494 24.1551C17.4446 24.3466 17.2812 24.5791 17.1695 24.8378C17.0577 25.0965 17 25.3758 17 25.6582C17 25.9406 17.0577 26.22 17.1695 26.4787C17.2812 26.7374 17.4446 26.9698 17.6494 27.1614C18.0812 27.5752 18.6511 27.7836 19.2195 27.7836C19.5314 27.7836 19.8432 27.7193 20.1329 27.5948L24.7647 32.0301L28.628 32.0385V33.9723L24.7647 33.9793L20.1329 38.416C19.7219 38.2378 19.2688 38.1837 18.8282 38.2604C18.3876 38.337 17.9782 38.5411 17.6494 38.848C17.4446 39.0396 17.2812 39.272 17.1695 39.5307C17.0577 39.7894 17 40.0688 17 40.3512C17 40.6336 17.0577 40.9129 17.1695 41.1716C17.2812 41.4303 17.4446 41.6627 17.6494 41.8543C18.0812 42.2682 18.6511 42.4765 19.2195 42.4765C19.788 42.4765 20.3565 42.2696 20.7897 41.8543C21.2091 41.4516 21.4396 40.9175 21.4396 40.3498C21.4396 40.0533 21.3761 39.7667 21.2547 39.501L25.427 35.5062L28.628 35.5006V37.2275H26.8799L23.356 40.6141V46.8881C22.5185 47.1915 21.9211 47.9675 21.9211 48.8736C21.9211 50.0468 22.9159 50.999 24.1411 50.999C25.3649 50.999 26.3611 50.0468 26.3611 48.8736C26.3611 47.9787 25.7761 47.2097 24.9538 46.8979V41.2461L27.5422 38.7572H28.6832L32.9853 43.4414L37.2887 38.7572H38.456L41.0458 41.2461V46.8979C40.2234 47.2097 39.6384 47.9773 39.6384 48.8736C39.6384 50.0468 40.6332 50.999 41.8584 50.999C43.0823 50.999 44.0784 50.0468 44.0784 48.8736C44.0784 47.9647 43.4796 47.1915 42.6435 46.8881V40.6169L39.1182 37.2303H37.3411V35.5048L40.5711 35.5104L44.7448 39.508C44.5678 39.8992 44.5174 40.3371 44.6009 40.7591C44.6844 41.1811 44.8976 41.5654 45.2098 41.8571C45.6417 42.271 46.2115 42.4793 46.78 42.4793C47.3484 42.4793 47.9169 42.2724 48.3501 41.8571C48.5549 41.6656 48.7183 41.4331 48.8301 41.1744C48.9418 40.9157 48.9995 40.6364 48.9995 40.354C48.9995 40.0716 48.9418 39.7922 48.8301 39.5335C48.7183 39.2748 48.5549 39.0424 48.3501 38.8508C48.0203 38.5442 47.6102 38.3403 47.169 38.2637C46.7279 38.1871 46.2742 38.2409 45.8624 38.4188ZM46.3343 25.2401C46.4545 25.1281 46.6119 25.0659 46.7751 25.0659C46.9384 25.0659 47.0958 25.1281 47.216 25.2401C47.2735 25.2939 47.3194 25.3592 47.3508 25.4319C47.3822 25.5046 47.3984 25.5831 47.3984 25.6624C47.3984 25.7417 47.3822 25.8202 47.3508 25.8929C47.3194 25.9656 47.2735 26.0309 47.216 26.0847C47.0957 26.1971 46.9381 26.2595 46.7745 26.2595C46.6108 26.2595 46.4532 26.1971 46.3329 26.0847C46.2754 26.0309 46.2295 25.9656 46.1981 25.8929C46.1667 25.8202 46.1505 25.7417 46.1505 25.6624C46.1505 25.5831 46.1667 25.5046 46.1981 25.4319C46.2295 25.3592 46.2768 25.2939 46.3343 25.2401ZM41.8543 16.5317C42.1978 16.5317 42.4779 16.8002 42.4779 17.1288C42.4779 17.4574 42.1978 17.7258 41.8543 17.7258C41.5121 17.7258 41.232 17.4574 41.232 17.1288C41.232 16.7988 41.5121 16.5317 41.8543 16.5317ZM24.1342 16.5317C24.4777 16.5317 24.7578 16.8002 24.7578 17.1288C24.7578 17.4574 24.4777 17.7258 24.1342 17.7258C23.7906 17.7258 23.5105 17.4574 23.5105 17.1288C23.5105 16.7988 23.7906 16.5317 24.1342 16.5317ZM19.6555 26.0847C19.5353 26.1971 19.3776 26.2595 19.214 26.2595C19.0504 26.2595 18.8928 26.1971 18.7725 26.0847C18.715 26.0309 18.6691 25.9656 18.6377 25.8929C18.6063 25.8202 18.5901 25.7417 18.5901 25.6624C18.5901 25.5831 18.6063 25.5046 18.6377 25.4319C18.6691 25.3592 18.715 25.2939 18.7725 25.2401C18.8923 25.1271 19.0504 25.0651 19.214 25.0667C19.3727 25.0667 19.5327 25.1255 19.6542 25.2401C19.7113 25.2942 19.7569 25.3595 19.788 25.4322C19.8192 25.5048 19.8353 25.5832 19.8353 25.6624C19.8353 25.7416 19.8192 25.82 19.788 25.8926C19.7569 25.9653 19.7127 26.0306 19.6555 26.0847ZM19.6555 40.7763C19.5353 40.8887 19.3776 40.9511 19.214 40.9511C19.0504 40.9511 18.8928 40.8887 18.7725 40.7763C18.715 40.7224 18.6691 40.6571 18.6377 40.5845C18.6063 40.5118 18.5901 40.4333 18.5901 40.354C18.5901 40.2746 18.6063 40.1962 18.6377 40.1235C18.6691 40.0508 18.715 39.9855 18.7725 39.9317C18.8923 39.8187 19.0504 39.7566 19.214 39.7583C19.3727 39.7583 19.5327 39.817 19.6542 39.9317C19.7113 39.9857 19.7569 40.0511 19.788 40.1238C19.8192 40.1964 19.8353 40.2748 19.8353 40.354C19.8353 40.4332 19.8192 40.5116 19.788 40.5842C19.7569 40.6568 19.7127 40.7222 19.6555 40.7763ZM24.1342 49.4763C23.7906 49.4763 23.5105 49.2078 23.5105 48.8792C23.5105 48.5506 23.7906 48.2836 24.1342 48.2836C24.4777 48.2836 24.7578 48.5506 24.7578 48.8792C24.7531 49.0422 24.6848 49.1966 24.5679 49.3085C24.451 49.4204 24.295 49.4808 24.1342 49.4763ZM41.8543 49.4763C41.5121 49.4763 41.232 49.2078 41.232 48.8792C41.232 48.5506 41.5121 48.2836 41.8543 48.2836C42.1978 48.2836 42.4779 48.5506 42.4779 48.8792C42.4732 49.0422 42.4049 49.1966 42.288 49.3085C42.1711 49.4204 42.0151 49.4808 41.8543 49.4763ZM30.2216 38.1237V27.8689L32.9811 24.8626L35.7406 27.8689V38.1237L32.9811 41.13L30.2216 38.1237ZM47.216 40.7763C47.0958 40.889 46.9382 40.9516 46.7745 40.9516C46.6107 40.9516 46.4531 40.889 46.3329 40.7763C46.2754 40.7224 46.2295 40.6571 46.1981 40.5845C46.1667 40.5118 46.1505 40.4333 46.1505 40.354C46.1505 40.2746 46.1667 40.1962 46.1981 40.1235C46.2295 40.0508 46.2754 39.9855 46.3329 39.9317C46.4532 39.8193 46.6108 39.7569 46.7745 39.7569C46.9381 39.7569 47.0957 39.8193 47.216 39.9317C47.2735 39.9855 47.3194 40.0508 47.3508 40.1235C47.3822 40.1962 47.3984 40.2746 47.3984 40.354C47.3984 40.4333 47.3822 40.5118 47.3508 40.5845C47.3194 40.6571 47.2735 40.7224 47.216 40.7763Z" fill="#64B5F6"/>
</g>
<defs>
<clipPath id="clip0_533_2">
<rect width="32" height="36" fill="white" transform="translate(17 15)"/>
</clipPath>
</defs>
</svg>
