<svg width="66" height="66" viewBox="0 0 66 66" fill="none" xmlns="http://www.w3.org/2000/svg">
<circle cx="32.9183" cy="32.9183" r="32.9183" fill="#F5F5F5"/>
<g clip-path="url(#clip0_291_13)">
<path fill-rule="evenodd" clip-rule="evenodd" d="M12.0785 28.2005C11.4057 28.2005 11.0592 28.7189 11.0382 29.1872H13.1075C13.0978 28.7387 12.7614 28.2005 12.0785 28.2005ZM14.6065 30.0942H11.0285C11.0996 30.8017 11.65 31.1207 12.3127 31.1207C12.9653 31.1207 13.5363 30.8416 13.8218 30.6524L14.4639 31.4793C14.3008 31.5993 13.6381 32.2768 12.0785 32.2768C10.5289 32.2768 9.39737 31.3403 9.39737 29.7155C9.39737 28.0911 10.621 27.164 12.1091 27.164C13.5973 27.164 14.6271 28.1306 14.6271 29.5659C14.6271 29.8051 14.6065 30.0942 14.6065 30.0942ZM23.3982 32.1671L23.3877 31.6092C23.1737 31.9081 22.6438 32.2768 21.9201 32.2768C20.5337 32.2768 20.1154 31.4496 20.1154 30.2237V27.2537H21.7469V30.0045C21.7469 30.5723 21.91 30.9616 22.4908 30.9616C23.0719 30.9616 23.3368 30.5127 23.3368 29.8648V27.2537H24.9679V32.1671H23.3982ZM29.1413 28.5872C29.1413 28.5872 28.9018 28.5744 28.5475 28.5744C27.7418 28.5744 27.3781 29.5344 27.3781 30.182V32.1671H25.7466V27.2537H27.3781L27.3676 27.951H27.3882C27.6734 27.4132 28.0917 27.164 28.6317 27.164C28.9684 27.164 29.1413 27.2537 29.1413 27.2537V28.5872ZM47.8218 28.5872C47.8218 28.5872 47.4405 28.5744 47.0861 28.5744C46.2809 28.5744 45.9168 29.5344 45.9168 30.182V32.1671H44.2853V27.2537H45.9168L45.9063 27.951H45.9269C46.1005 27.5131 46.648 27.1831 47.0663 27.1831C47.3197 27.184 47.5725 27.2077 47.8214 27.2537V28.5872H47.8218ZM29.7146 32.1671H31.3461V27.2537H29.7146V32.1671ZM33.73 28.4694V30.2335C33.73 30.6623 33.7607 30.9616 34.2599 30.9616C34.5151 30.9616 34.7494 30.8716 34.7494 30.8716L34.8309 32.1177C34.7086 32.147 34.2599 32.2768 33.6687 32.2768C32.3639 32.2768 32.0888 31.4994 32.0888 30.3733V25.9282H33.73V27.2635H34.8414V28.4694H33.73Z" fill="black"/>
<path fill-rule="evenodd" clip-rule="evenodd" d="M43.0972 26.5659V32.1671H41.4455V26.5659H39.6307V25.2894H44.9117V26.5659H43.0972ZM55.7184 32.1671H57.3499V25.2901H55.7184V32.1671ZM59.8592 32.2768C59.1045 32.2768 58.3097 32.0478 57.7387 31.5195L58.3505 30.5723C58.7584 30.9115 59.4308 31.1705 59.8387 31.1705C60.2465 31.1705 60.532 31.071 60.532 30.752C60.532 30.4329 59.7979 30.2734 59.6145 30.2142C58.7786 30.0045 58.0444 29.7155 58.0444 28.6988C58.0444 27.7417 58.9009 27.1538 59.9509 27.1538C61.0009 27.1538 61.5921 27.5324 61.8776 27.7618L61.3474 28.6984C61.0623 28.4796 60.4913 28.2203 60.0834 28.2203C59.6961 28.2203 59.482 28.3201 59.482 28.5792C59.482 28.8385 59.8693 28.9578 60.2162 29.0573C61.0825 29.3068 61.9899 29.5659 61.9899 30.6524C61.9899 31.8283 60.8991 32.2768 59.8592 32.2768ZM29.7146 26.5512H31.3461V25.2865H29.7146V26.5512ZM53.2588 32.1671H54.8896V27.2537H53.2588V32.1671ZM53.2588 26.5512H54.8896V25.2865H53.2588V26.5512ZM19.3809 30.4103C19.1507 30.5588 18.5692 30.9612 17.9421 30.9612C17.1776 30.9612 16.6781 30.4728 16.6781 29.6954C16.6781 28.9179 17.2285 28.4496 17.9219 28.4496C18.5823 28.4496 19.2289 28.8429 19.3363 28.982L19.3483 28.9783L19.4014 27.6283C19.3131 27.4959 18.7369 27.1637 17.7078 27.1637C16.3315 27.1637 15.0368 28.0809 15.0368 29.7254C15.0368 31.36 16.3113 32.2768 17.6873 32.2768C18.7088 32.2768 19.3187 31.9757 19.5302 31.8118L19.3857 30.4124L19.3809 30.4103ZM50.8524 30.812C50.7502 30.9813 50.4546 31.2605 50.0164 31.2605C49.5678 31.2605 49.2516 31.0311 49.2516 30.6521C49.2516 30.2837 49.5472 30.074 50.0471 30.0543L50.8524 30.0045V30.812ZM49.9962 27.1637C49.4712 27.1637 48.8624 27.1842 48.2551 27.3137V28.5781C48.678 28.3542 49.3264 28.2799 49.8125 28.2799C50.4647 28.2799 50.8419 28.529 50.8419 29.0474V29.1572L49.5779 29.2066C48.6506 29.2468 47.6209 29.6156 47.6209 30.7117C47.6209 31.8082 48.5586 32.2768 49.4454 32.2768C50.2612 32.2768 50.6687 31.8579 50.8831 31.6487L50.9134 32.1667H52.473V29.3961C52.473 27.8013 51.566 27.1633 49.9959 27.1633L49.9962 27.1637ZM7.59001 28.1903C7.3655 28.1006 6.84574 27.9213 6.54002 27.8017C6.22421 27.6821 5.82644 27.5229 5.82644 27.104C5.82644 26.6855 6.21373 26.4857 6.74396 26.4857C7.48786 26.4857 8.292 26.9387 8.75413 27.4135L8.78144 27.4007V25.8612C8.2688 25.4881 7.48224 25.21 6.78475 25.21C5.96901 25.21 5.32689 25.4295 4.9295 25.7588C4.52162 26.087 4.19533 26.6054 4.19533 27.2632C4.19533 27.9111 4.44005 28.3095 4.74614 28.5887C5.05186 28.8777 5.40846 29.0076 5.58171 29.087C5.81633 29.1868 6.34619 29.3665 6.65191 29.4759C6.958 29.5856 7.47813 29.7649 7.47813 30.2332C7.47813 30.692 7.07026 30.9407 6.54002 30.9407C5.78602 30.9407 4.83108 30.3737 4.30983 29.841L4.29973 29.8461V31.5912C4.81275 31.9622 5.61202 32.2863 6.38698 32.2863C7.75316 32.2863 9.11897 31.559 9.11897 30.0737C9.11897 29.0771 8.48733 28.5093 7.59001 28.1903Z" fill="black"/>
<path fill-rule="evenodd" clip-rule="evenodd" d="M37.6654 34.7251L40.775 27.2533H39.0934L37.9614 30.4132L36.8201 27.2537H35.1176L37.1053 32.0182L35.973 34.7251H37.6654Z" fill="black"/>
<path d="M38.8696 33.9378H61.9585M4.32367 33.9378H35.4955" stroke="black" stroke-width="0.25"/>
<path opacity="0.5" fill-rule="evenodd" clip-rule="evenodd" d="M6.21784 37.7665L5.65094 36.209H5.62923L5.06233 37.7665H6.21784ZM4.32068 38.9646L5.48367 35.8381H5.79612L6.95949 38.9646H6.65303L6.31101 38.0229H4.96841L4.62677 38.9646H4.32068ZM45.2893 36.8153C45.2002 36.3876 44.8178 36.0642 44.3164 36.0642C43.7109 36.0642 43.2174 36.5357 43.2174 37.4014C43.2174 38.2703 43.7109 38.7389 44.3164 38.7389C44.8178 38.7389 45.2002 38.417 45.2893 37.9878H45.583C45.4782 38.5615 44.9974 39.0074 44.3164 39.0074C43.5092 39.0074 42.9345 38.38 42.9345 37.4014C42.9345 36.4227 43.5092 35.7953 44.3164 35.7953C44.9974 35.7953 45.4782 36.2398 45.583 36.8153H45.2893ZM47.924 37.8031C47.924 37.2781 47.6459 36.835 47.1475 36.835C46.6498 36.835 46.3718 37.2777 46.3718 37.8031C46.3718 38.3281 46.6498 38.7649 47.1475 38.7649C47.6459 38.7649 47.924 38.3284 47.924 37.8031ZM46.0923 37.8027C46.0923 37.0838 46.5263 36.5881 47.1475 36.5881C47.769 36.5881 48.2035 37.0838 48.2035 37.8027C48.2035 38.5176 47.7694 39.0137 47.1475 39.0137C46.5263 39.0137 46.0923 38.5176 46.0923 37.8027ZM48.8164 36.6195H49.0866V36.9803H49.1116C49.2071 36.7373 49.4409 36.5895 49.7549 36.5895C50.0857 36.5895 50.2963 36.7498 50.403 37.0154H50.4232C50.531 36.7556 50.7839 36.5895 51.1342 36.5895C51.5787 36.5895 51.8552 36.8687 51.8552 37.394V38.965H51.5772V37.394C51.5772 37.0245 51.3665 36.8379 51.0496 36.8379C50.684 36.8379 50.4778 37.0838 50.4778 37.4215V38.965H50.1934V37.3699C50.1934 37.0516 50.003 36.8379 49.6752 36.8379C49.3422 36.8379 49.0944 37.0977 49.0944 37.4624V38.965H48.8164V36.6195ZM53.5952 38.7649C54.0727 38.7649 54.3369 38.3405 54.3369 37.7939C54.3369 37.2532 54.0779 36.835 53.5952 36.835C53.1267 36.835 52.8626 37.232 52.8626 37.7935C52.8626 38.3599 53.1312 38.7649 53.5952 38.7649ZM52.5879 36.6199H52.8581V37.067H52.8925C52.9894 36.8562 53.1844 36.5877 53.6248 36.5877C54.2183 36.5877 54.6164 37.075 54.6164 37.7987C54.6164 38.5253 54.2168 39.0133 53.6297 39.0133C53.1941 39.0133 52.9879 38.7451 52.8925 38.5296H52.8674V39.8442H52.5879V36.6199ZM56.6599 38.0657V37.7266C56.5787 37.8045 56.2288 37.8473 56.032 37.8704C55.626 37.919 55.3887 38.0383 55.3887 38.3218C55.3887 38.6057 55.623 38.7693 55.9369 38.7693C56.3807 38.7693 56.6599 38.4503 56.6599 38.0657ZM55.1107 38.3098C55.1107 37.8459 55.4905 37.6973 56.032 37.6318C56.4354 37.5832 56.6599 37.5803 56.6599 37.4032V37.3483C56.6599 37.0274 56.4586 36.8321 56.0949 36.8321C55.7483 36.8321 55.5309 37.0048 55.4438 37.206L55.1796 37.1127C55.342 36.7296 55.7199 36.5877 56.087 36.5877C56.4537 36.5877 56.9379 36.7432 56.9379 37.3725V38.9646H56.6599V38.594H56.6427C56.5428 38.8015 56.2992 39.0184 55.8991 39.0184C55.464 39.0184 55.1107 38.7616 55.1107 38.3098ZM57.9568 38.9646H57.6788V36.6195H57.949V36.9876H57.9741C58.0863 36.7479 58.3284 36.5892 58.6802 36.5892C59.1636 36.5892 59.4933 36.8899 59.4933 37.446V38.965H59.2153V37.4628C59.2153 37.0794 58.978 36.8383 58.6094 36.8383C58.2315 36.8383 57.9568 37.09 57.9568 37.4994V38.965V38.9646ZM60.0673 39.7951L60.1421 39.5559C60.425 39.6429 60.6121 39.5804 60.745 39.2259L60.8325 38.9881L59.9502 36.6199H60.2514L60.9635 38.6061H60.9856L61.6977 36.6195H61.9993L60.9837 39.3356C60.8561 39.6759 60.6357 39.8442 60.336 39.8442C60.2267 39.8442 60.1234 39.8211 60.0673 39.7955M9.04674 37.0779C9.49465 37.0779 9.69335 36.9554 9.69335 36.6203C9.69335 36.3378 9.49203 36.1618 9.04225 36.1618H8.49032V37.0765L9.04637 37.0779H9.04674ZM7.88824 35.6679H9.13655C9.90028 35.6679 10.3104 36.0876 10.3104 36.7092C10.3104 37.1504 10.0672 37.412 9.67539 37.5664L10.432 38.9229H9.75921L9.01307 37.5664H8.49032V38.9229H7.88787V35.6683L7.88824 35.6679ZM12.9526 37.664C12.9526 36.9184 13.4143 36.4018 14.1463 36.4018C14.7554 36.4018 15.1783 36.7501 15.2191 37.2773H14.6559C14.611 37.0421 14.437 36.8639 14.1537 36.8639C13.7908 36.8639 13.549 37.1599 13.549 37.6523C13.549 38.1451 13.7863 38.4517 14.1537 38.4517C14.4119 38.4517 14.6058 38.301 14.6559 38.039H15.2187C15.1764 38.5567 14.7764 38.9211 14.1485 38.9211C13.4027 38.9229 12.9526 38.4031 12.9526 37.664ZM17.1626 37.664C17.1626 37.217 16.9639 36.8599 16.5658 36.8599C16.168 36.8599 15.963 37.217 15.963 37.664C15.963 38.1111 16.1613 38.4642 16.5665 38.4642C16.971 38.4642 17.1626 38.1093 17.1626 37.6629V37.664ZM15.3665 37.664C15.3665 36.9075 15.8312 36.4018 16.5628 36.4018C17.2943 36.4018 17.7595 36.9078 17.7595 37.664C17.7595 38.4203 17.2943 38.9229 16.5628 38.9229C15.8312 38.9229 15.3661 38.4188 15.3661 37.6644L15.3665 37.664ZM17.9286 36.4816H18.4992V36.8884H18.5251C18.5631 36.7585 18.6442 36.6446 18.7556 36.5646C18.867 36.4846 19.0024 36.443 19.1406 36.4465C19.2117 36.4465 19.2824 36.4516 19.3524 36.4626V36.9916C19.263 36.97 19.1713 36.9589 19.0792 36.9587C18.7559 36.9587 18.5165 37.1778 18.5165 37.4873V38.9229H17.929L17.9286 36.4816ZM21.189 37.7021C21.189 37.2283 20.9805 36.9239 20.6018 36.9239C20.2101 36.9239 20.0087 37.2503 20.0087 37.7021C20.0087 38.1539 20.2134 38.4938 20.6018 38.4938C20.9775 38.4938 21.189 38.1755 21.189 37.7021ZM19.4089 37.7057C19.4089 36.8914 19.8624 36.4498 20.4394 36.4498C20.8802 36.4498 21.0636 36.7092 21.153 36.8877H21.18V35.672H21.7701V38.9229H21.189V38.5384H21.153C21.0606 38.7162 20.8686 38.9229 20.4394 38.9229C19.8508 38.9229 19.4089 38.5099 19.4089 37.7057ZM26.33 37.7021C26.33 37.2283 26.1216 36.9239 25.7433 36.9239C25.3511 36.9239 25.1498 37.2503 25.1498 37.7021C25.1498 38.1539 25.3541 38.4938 25.7433 38.4938C26.119 38.4938 26.33 38.1755 26.33 37.7021ZM24.55 37.7057C24.55 36.8914 25.0031 36.4498 25.5805 36.4498C26.0213 36.4498 26.2046 36.7092 26.2944 36.8877H26.3188V35.672H26.9089V38.9229H26.33V38.5384H26.2944C26.2013 38.7162 26.0078 38.9207 25.5794 38.9207C24.9904 38.9207 24.5503 38.5099 24.5503 37.7054M28.2425 35.6679H30.3754V36.1618H28.845V37.0725H30.2287V37.5664H28.8453V38.9233H28.2425V35.6679ZM32.1034 36.4816H32.692V38.9229H32.1218V38.489H32.0963C31.9822 38.762 31.7184 38.9229 31.3446 38.9229C30.854 38.9229 30.5124 38.6226 30.5124 38.0361V36.4801H31.101V37.9472C31.101 38.2571 31.2896 38.4521 31.5724 38.4521C31.8325 38.4521 32.1038 38.2681 32.1038 37.896V36.4816H32.1034ZM34.3149 36.9265H33.8225V38.1909C33.8225 38.4228 33.9407 38.4733 34.0893 38.4733C34.1469 38.4718 34.2045 38.4638 34.2607 38.4495L34.3602 38.9017C34.2479 38.9372 34.1304 38.9566 34.0122 38.9584C33.5699 38.9712 33.2286 38.7455 33.2316 38.2864V36.9268H32.8773V36.482H33.2316V35.8984H33.8206V36.482H34.313L34.3149 36.9265ZM36.1702 36.4816H36.7584V38.9229H36.1881V38.489H36.1619C36.0482 38.762 35.7851 38.9229 35.4109 38.9229C34.9204 38.9229 34.5783 38.6226 34.5783 38.0361V36.4801H35.167V37.9472C35.167 38.2571 35.3559 38.4521 35.6384 38.4521C35.8985 38.4521 36.1698 38.2681 36.1698 37.896L36.1702 36.4816ZM37.1337 36.4816H37.7047V36.8884H37.7309C37.769 36.7584 37.8501 36.6445 37.9616 36.5645C38.0731 36.4845 38.2086 36.443 38.3468 36.4465C38.4179 36.4465 38.4883 36.4516 38.5583 36.4626V36.9916C38.4689 36.97 38.3772 36.9589 38.2851 36.9587C37.9614 36.9587 37.7227 37.1778 37.7227 37.4873V38.9229H37.1337V36.4816ZM41.4815 36.1574C41.4941 36.1575 41.5067 36.155 41.5183 36.15C41.5299 36.145 41.5403 36.1378 41.5489 36.1286C41.5574 36.1195 41.5639 36.1087 41.568 36.097C41.572 36.0853 41.5735 36.0728 41.5724 36.0605C41.5733 36.0488 41.5717 36.037 41.5676 36.026C41.5634 36.015 41.5569 36.005 41.5485 35.9966C41.54 35.9883 41.5298 35.9818 41.5186 35.9777C41.5073 35.9736 41.4953 35.9719 41.4833 35.9727H41.3546V36.1556L41.4815 36.1574ZM41.2648 35.9057H41.5103C41.5518 35.9052 41.5919 35.9207 41.6217 35.949C41.6515 35.9772 41.6686 36.0159 41.6693 36.0565V36.0623C41.6701 36.0922 41.6623 36.1217 41.6467 36.1475C41.6312 36.1732 41.6085 36.1942 41.5814 36.2079L41.6899 36.4066H41.5907L41.4946 36.2273H41.3546V36.4066H41.2648V35.9057ZM41.9032 36.1618C41.9031 36.045 41.8555 35.9331 41.771 35.8505C41.6865 35.768 41.5719 35.7217 41.4525 35.7217C41.333 35.7218 41.2185 35.7682 41.134 35.8508C41.0496 35.9334 41.0021 36.0454 41.0021 36.1622C41.0021 36.279 41.0496 36.391 41.134 36.4736C41.2185 36.5562 41.333 36.6026 41.4525 36.6027C41.5719 36.6027 41.6865 36.5564 41.771 36.4739C41.8555 36.3913 41.9031 36.2794 41.9032 36.1626V36.1615V36.1618ZM40.8988 36.1618C40.8988 36.0182 40.9572 35.8805 41.0611 35.779C41.1649 35.6774 41.3058 35.6204 41.4527 35.6204C41.5995 35.6204 41.7404 35.6774 41.8443 35.779C41.9481 35.8805 42.0065 36.0182 42.0065 36.1618C42.0065 36.3054 41.9481 36.4432 41.8443 36.5447C41.7404 36.6463 41.5995 36.7033 41.4527 36.7033C41.3058 36.7033 41.1649 36.6463 41.0611 36.5447C40.9572 36.4432 40.8988 36.3054 40.8988 36.1618ZM40.3185 37.4734C40.3155 37.1412 40.088 36.8994 39.7497 36.8994C39.3983 36.8994 39.1622 37.1621 39.1446 37.4734H40.3185ZM38.5594 37.7167C38.5594 36.9631 39.0264 36.4498 39.7418 36.4498C40.3559 36.4498 40.8824 36.8266 40.8824 37.6827V37.8594H39.1416C39.1465 38.2776 39.3983 38.4748 39.7789 38.4748C40.0326 38.4748 40.2264 38.4144 40.3069 38.2077H40.8809C40.7772 38.6317 40.3971 38.9229 39.7707 38.9229C39.0193 38.9229 38.5594 38.4824 38.5594 37.7167ZM23.7799 37.4734C23.7772 37.1412 23.5494 36.8994 23.2111 36.8994C22.8601 36.8994 22.6244 37.1621 22.6064 37.4734H23.7799ZM22.0215 37.7167C22.0215 36.9631 22.4882 36.4498 23.2032 36.4498C23.818 36.4498 24.3445 36.8266 24.3445 37.6827V37.8594H22.6042C22.609 38.2776 22.8612 38.4748 23.241 38.4748C23.4947 38.4748 23.6886 38.4144 23.7698 38.2077H24.3438C24.239 38.6317 23.8596 38.9229 23.2332 38.9229C22.4814 38.9229 22.0215 38.4824 22.0215 37.7167ZM12.23 37.4734C12.2263 37.1412 11.9988 36.8994 11.6612 36.8994C11.3095 36.8994 11.0738 37.1621 11.0562 37.4734H12.23ZM10.4709 37.7167C10.4709 36.9631 10.9372 36.4498 11.6526 36.4498C12.2674 36.4498 12.7939 36.8266 12.7939 37.6827V37.8594H11.0535C11.0584 38.2776 11.3106 38.4748 11.6912 38.4748C11.9449 38.4748 12.1387 38.4144 12.2195 38.2077H12.7932C12.6895 38.6317 12.3093 38.9229 11.6826 38.9229C10.9312 38.9229 10.4713 38.4824 10.4713 37.7167H10.4709Z" fill="black"/>
</g>
<defs>
<clipPath id="clip0_291_13">
<rect width="58" height="15" fill="white" transform="translate(4 25)"/>
</clipPath>
</defs>
</svg>
