<svg width="66" height="66" viewBox="0 0 66 66" fill="none" xmlns="http://www.w3.org/2000/svg">
<circle cx="32.9183" cy="32.9183" r="32.9183" fill="#F5F5F5"/>
<g clip-path="url(#clip0_233_51)">
<path d="M43.7036 12.1054C47.485 12.1054 50.5582 15.1523 50.5582 18.9015V52.8824L36.8488 48.3515H20.8547C19.598 48.3515 18.4213 48.023 17.4159 47.4341L27.4466 39.6979L39.7278 30.2285L27.4466 20.7592L17.4159 13.0228C18.4213 12.4338 19.598 12.1054 20.8547 12.1054H43.7036ZM32.2791 30.2285L24.7961 35.9938L14.4456 43.9681C14.1599 43.2204 14 42.4049 14 41.5554V18.9015C14 18.052 14.1599 17.2365 14.4456 16.4889L24.7961 24.463L32.2791 30.2285Z" fill="#6140FF"/>
</g>
<defs>
<clipPath id="clip0_233_51">
<rect width="37" height="41" fill="white" transform="translate(14 12)"/>
</clipPath>
</defs>
</svg>
