<svg width="66" height="66" viewBox="0 0 66 66" fill="none" xmlns="http://www.w3.org/2000/svg">
<circle cx="32.9183" cy="32.9183" r="32.9183" fill="#F5F5F5"/>
<g clip-path="url(#clip0_143_2)">
<path d="M46.568 13.2489C43.7226 13.2489 41.416 15.5571 41.416 18.4045C41.416 21.2519 43.7226 23.5601 46.568 23.5601C49.4133 23.5601 51.7199 21.2519 51.7199 18.4045C51.7199 15.5571 49.4133 13.2489 46.568 13.2489Z" fill="#008BFF"/>
<path d="M10.0075 32.4985C10.0075 36.0482 12.7297 38.9524 16.2019 39.2526C13.9596 41.9166 14.0871 45.9017 16.5919 48.4082C19.0966 50.9146 23.0787 51.0423 25.741 48.7984C26.0334 52.2729 28.9432 54.9971 32.4904 54.9971C36.0374 54.9971 38.9397 52.2729 39.2396 48.7984C41.9019 51.0423 45.8841 50.9146 48.3888 48.4082C50.8936 45.9017 51.0209 41.9166 48.7786 39.2526C52.251 38.9599 54.9732 36.0482 54.9732 32.4985C54.9732 28.7538 51.936 25.7145 48.1939 25.7145C47.9313 25.7145 47.6765 25.737 47.4214 25.767C47.1439 25.797 46.8589 25.8045 46.5666 25.8045C45.599 25.8045 44.6767 25.6169 43.8367 25.2792C41.9468 24.5287 40.4471 23.0203 39.6971 21.1367C39.3596 20.2887 39.1722 19.3656 39.1722 18.4051C39.1722 18.1124 39.1797 17.8347 39.2097 17.5496C39.2396 17.2944 39.2622 17.0392 39.2622 16.7841C39.2622 13.0393 36.225 10 32.4829 10C28.9357 10 26.0334 12.7241 25.7335 16.1987C23.0712 13.9549 19.0891 14.0825 16.5844 16.589C14.0796 19.0955 13.9521 23.0803 16.1944 25.7445C12.7222 26.0371 10 28.9488 10 32.4985H10.0075Z" fill="#008BFF"/>
</g>
<defs>
<clipPath id="clip0_143_2">
<rect width="45" height="45" fill="white" transform="translate(10 10)"/>
</clipPath>
</defs>
</svg>
