<svg width="62" height="62" viewBox="0 0 62 62" fill="none" xmlns="http://www.w3.org/2000/svg">
<circle cx="31" cy="31" r="31" fill="#fff"/>
<svg x="11" y="11" width="40" height="40" viewBox="-28 -8 150 150">
<path fill="#21c1a2" d="M91.92,88.69,78,48.54l7.71-4.73a11.15,11.15,0,0,0,.69-18.57L55.1,2.71a14.38,14.38,0,0,0-16.79,0L8.05,24.37A15.25,15.25,0,0,0,2.36,41.29L14.74,81.23,6,86.13A11.64,11.64,0,0,0,4.53,105.5l32.88,25.39A15.1,15.1,0,0,0,56,130.83l30.6-23.94a16.33,16.33,0,0,0,5.36-18.2"/>
</svg>
</svg>
