<svg width="66" height="66" viewBox="0 0 66 66" fill="none" xmlns="http://www.w3.org/2000/svg">
<circle cx="32.9183" cy="32.9183" r="32.9183" fill="#F5F5F5"/>
<path d="M54.1598 42.6767C55.1767 44.424 55.2751 46.2614 54.4301 47.7138C53.5864 49.1675 51.9354 50 49.9006 50H46.0657C46.1113 49.2924 46.1415 48.5789 46.1415 47.8601C46.1415 47.0551 46.1037 46.2602 46.0482 45.4677L48.5706 45.4652C49.1908 45.4652 49.6921 44.9665 49.6921 44.3515C49.6921 44.1661 49.6457 43.9837 49.5571 43.8204L33.4802 16.1683C33.3831 15.9972 33.2417 15.8548 33.0705 15.7558C32.8993 15.6567 32.7046 15.6046 32.5063 15.6047C32.3131 15.6048 32.1231 15.6543 31.9549 15.7485C31.7867 15.8426 31.646 15.9783 31.5464 16.1422L28.9937 20.5331C36.7516 26.3203 41.9671 35.2859 42.6807 45.4652C42.7363 46.2563 42.7741 47.0514 42.7741 47.8575C42.7741 48.5763 42.7438 49.2887 42.6995 49.9974H30.1758C30.244 49.2924 30.2832 48.5801 30.2832 47.8575C30.2832 47.0488 30.2352 46.2515 30.1468 45.4652C29.5281 39.8631 26.7567 34.8984 22.6756 31.3948L20.9172 34.4173C24.0004 37.2569 26.1049 41.1243 26.6771 45.4652C26.7808 46.2489 26.8388 47.0464 26.8388 47.8575C26.8388 48.5801 26.7908 49.295 26.7087 49.9974H15.0994C13.0646 49.9974 11.4136 49.1637 10.5699 47.71C9.72489 46.2576 9.82333 44.4216 10.8402 42.6729L13.2238 38.6307C14.5855 39.3555 15.816 40.2991 16.8651 41.4229L15.4443 43.8178C15.356 43.9813 15.3095 44.1637 15.3089 44.349C15.3087 44.495 15.3375 44.6396 15.3937 44.7745C15.45 44.9095 15.5326 45.0321 15.6368 45.1354C15.741 45.2387 15.8647 45.3207 16.001 45.3766C16.1372 45.4326 16.2833 45.4614 16.4308 45.4614L22.0616 45.464C21.5893 42.7929 20.3438 40.3831 18.5604 38.4744C17.5094 37.3533 16.2817 36.4044 14.915 35.6784L21.2027 24.8676C22.5377 25.6062 23.8059 26.4573 24.9933 27.4114C30.4121 31.7623 34.0713 38.1882 34.7344 45.4628H38.1044C37.4171 36.9583 33.0987 29.4588 26.6897 24.494C25.4863 23.5612 24.2127 22.7206 22.8802 21.9793L28.2471 12.7523C29.2626 11.0037 30.816 10 32.5063 10C34.1951 10 35.7474 11.0037 36.7643 12.7523L45.462 27.7145L54.1598 42.6767Z" fill="#FB2D26"/>
</svg>
