<svg width="66" height="66" viewBox="0 0 66 66" fill="none" xmlns="http://www.w3.org/2000/svg">
<circle cx="32.9183" cy="32.9183" r="32.9183" fill="#F5F5F5"/>
<path d="M50.9831 34.1035L50.9757 33.9758L50.9668 33.8496L50.955 33.7219L50.9402 33.5957L50.9239 33.471L50.9032 33.3447L50.8795 33.22L50.8558 33.0953L50.8277 32.972L50.7966 32.8488L50.7641 32.7256L50.7271 32.6038L50.6886 32.4836L50.6486 32.3618L50.6042 32.243L50.5583 32.1257L50.5095 32.0069L50.4592 31.8911L50.4059 31.7753L50.3511 31.6609L50.2919 31.5496L50.2312 31.4367L50.1676 31.3268L50.1024 31.217L50.0359 31.11L49.9648 31.0031L49.8938 30.8992L49.8198 30.7967L49.7946 30.7641H48.6919L48.7112 30.8398L48.7334 30.9393L48.7541 31.0373L48.7718 31.1382L48.7866 31.2392L48.797 31.3387L48.8074 31.4397L48.8148 31.5406L48.8177 31.6431L48.8192 31.7441L48.8177 31.8451L48.8148 31.946L48.8074 32.0485L48.797 32.1494L48.7866 32.2504L48.7718 32.3499L48.7541 32.4494L48.7334 32.5504L48.7112 32.6484L48.686 32.7463L48.6579 32.8444L48.6283 32.9409L48.5942 33.0374L48.5587 33.1324L48.5202 33.226L48.4803 33.3195L48.4373 33.4116L48.3929 33.5007L48.3441 33.5898L48.2938 33.6789L48.242 33.765L48.1857 33.8511L48.1295 33.9342L48.0703 34.0159L48.0082 34.0976L47.9445 34.1763L47.8793 34.2535L47.8128 34.3292L47.7432 34.402L47.6706 34.4747L47.5981 34.543L47.5227 34.6114L47.4457 34.6782L47.3673 34.7405L47.2873 34.8029L47.2044 34.8637L47.1215 34.9202L47.0357 34.9737L46.9499 35.0271L46.8626 35.0776L46.7737 35.1251L46.6835 35.1711L46.5917 35.2142L46.4985 35.2543L46.4052 35.2929L46.3105 35.3285L46.2157 35.3612L46.1195 35.3924L46.0219 35.4206L45.9227 35.4459L45.825 35.4681L45.7258 35.4889L45.6266 35.5053L45.526 35.5201L45.4268 35.5334L45.3262 35.5424L45.2256 35.5483L45.1249 35.5528L45.0228 35.5542H14V40.3444H45.0228L45.1501 40.3429L45.2759 40.3399L45.4031 40.3325L45.529 40.3221L45.6548 40.3102L45.7806 40.2969L45.9064 40.2776L46.0307 40.2583L46.155 40.236L46.2794 40.2092L46.4037 40.1811L46.5251 40.1514L46.6479 40.1172L46.7708 40.0816L46.8907 40.0444L47.0105 40.0014L47.129 39.9583L47.2474 39.9123L47.3643 39.8648L47.4797 39.8143L47.5952 39.7593L47.7091 39.7029L47.8216 39.645L47.9326 39.5841L48.0422 39.5218L48.1517 39.455L48.2568 39.3881L48.3634 39.3184L48.4684 39.2456L48.5706 39.1714L48.6712 39.0942L48.7704 39.0154L48.8695 38.9338L48.9657 38.8506L49.059 38.7675L49.1508 38.6799L49.2411 38.5908L49.3299 38.5002L49.4157 38.4066L49.5015 38.3131L49.5844 38.2166L49.6644 38.1186L49.7428 38.0191L49.8198 37.9166L49.8938 37.8142L49.9648 37.7103L50.0359 37.6033L50.1024 37.4964L50.1676 37.3866L50.2312 37.2767L50.2919 37.1653L50.3511 37.0524L50.4059 36.9381L50.4592 36.8238L50.5095 36.7065L50.5583 36.5892L50.6042 36.4719L50.6486 36.3516L50.6886 36.2313L50.7271 36.111L50.7641 35.9878L50.7966 35.8661L50.8277 35.7428L50.8558 35.6181L50.8795 35.4948L50.9032 35.3701L50.9239 35.2439L50.9402 35.1177L50.955 34.9915L50.9668 34.8653L50.9757 34.7376L50.9831 34.6114L50.9876 34.4851L50.9891 34.3574L50.9876 34.2297L50.9831 34.1035Z" fill="#0DC09D"/>
<path d="M14.0059 31.0179L14.0118 31.1456L14.0222 31.2718L14.034 31.3981L14.0488 31.5242L14.0651 31.6505L14.0858 31.7752L14.108 31.9014L14.1332 32.0261L14.1613 32.1494L14.1924 32.2727L14.225 32.3959L14.262 32.5176L14.3005 32.6379L14.3404 32.7582L14.3848 32.8784L14.4307 32.9957L14.4795 33.1145L14.5299 33.2304L14.5832 33.3462L14.6379 33.459L14.6971 33.5719L14.7578 33.6847L14.8215 33.7946L14.8866 33.903L14.9532 34.0099L15.0227 34.1168L15.0953 34.2222L15.1693 34.3247L15.1944 34.3574H16.2971L16.2779 34.2801L16.2557 34.1822L16.2349 34.0827L16.2172 33.9832L16.2024 33.8822L16.192 33.7813L16.1817 33.6803L16.1743 33.5793L16.1713 33.4784L16.1698 33.3759L16.1713 33.2749L16.1743 33.1739L16.1817 33.0715L16.192 32.972L16.2024 32.871L16.2172 32.7715L16.2349 32.6706L16.2557 32.5711L16.2779 32.4716L16.303 32.3751L16.3311 32.2771L16.3608 32.1805L16.3948 32.0841L16.4303 31.989L16.4688 31.8955L16.5088 31.8019L16.5517 31.7099L16.5961 31.6208L16.6449 31.5302L16.6953 31.4426L16.7471 31.355L16.8018 31.2703L16.8595 31.1857L16.9173 31.104L16.9809 31.0239L17.0431 30.9437L17.1097 30.8665L17.1763 30.7922L17.2458 30.718L17.3184 30.6467L17.3909 30.5769L17.4664 30.5086L17.5433 30.4433L17.6203 30.3794L17.7017 30.3185L17.7831 30.2577L17.8675 30.2012L17.9533 30.1463L18.0392 30.0928L18.125 30.0439L18.2153 29.9964L18.3056 29.9503L18.3974 29.9073L18.4906 29.8657L18.5824 29.827L18.6786 29.7929L18.7733 29.7603L18.8695 29.7291L18.9672 29.7009L19.0649 29.6756L19.1641 29.6519L19.2618 29.6325L19.3624 29.6147L19.463 29.5999L19.5622 29.588L19.6628 29.5791L19.7635 29.5717L19.8641 29.5672L19.9663 29.5657H50.9891V24.777H19.9663L19.839 24.7785L19.7132 24.7815L19.5859 24.7889L19.4601 24.7979L19.3328 24.8097L19.2085 24.8246L19.0827 24.8424L18.9583 24.8617L18.834 24.8855L18.7082 24.9107L18.5853 24.9389L18.4625 24.9701L18.3411 25.0027L18.2183 25.0399L18.0984 25.077L17.9785 25.1186L17.8601 25.1616L17.7417 25.2091L17.6248 25.2566L17.5093 25.3072L17.3939 25.3621L17.2799 25.4185L17.1674 25.4749L17.0564 25.5373L16.9469 25.5997L16.8373 25.665L16.7308 25.7333L16.6242 25.8031L16.5206 25.8759L16.4185 25.9501L16.3163 26.0258L16.2187 26.1045L16.1195 26.1862L16.0233 26.2693L15.93 26.354L15.8383 26.4416L15.748 26.5292L15.6592 26.6213L15.5719 26.7148L15.4875 26.8084L15.4046 26.9049L15.3247 27.0029L15.2462 27.1023L15.1693 27.2033L15.0953 27.3073L15.0227 27.4112L14.9532 27.5166L14.8866 27.625L14.8215 27.7349L14.7578 27.8448L14.6971 27.9547L14.6379 28.0675L14.5832 28.1833L14.5299 28.2977L14.4795 28.415L14.4307 28.5308L14.3848 28.6496L14.3404 28.7683L14.3005 28.8886L14.262 29.0104L14.225 29.1322L14.1924 29.2554L14.1613 29.3786L14.1332 29.5034L14.108 29.6266L14.0858 29.7513L14.0651 29.8776L14.0488 30.0038L14.034 30.13L14.0222 30.2562L14.0118 30.3824L14.0059 30.5086L14 30.6363V30.764V30.8917L14.0059 31.0179Z" fill="#0DC09D"/>
<path d="M50.9831 44.8821L50.9772 44.7559L50.9683 44.6297L50.955 44.502L50.9417 44.3758L50.9239 44.2511L50.9032 44.1248L50.881 44.0001L50.8558 43.8754L50.8277 43.7507L50.7966 43.6289L50.7641 43.5057L50.7285 43.3825L50.69 43.2637L50.6486 43.1419L50.6042 43.0231L50.5598 42.9058L50.511 42.787L50.4592 42.6712L50.4074 42.5554L50.3511 42.441L50.2919 42.3297L50.2327 42.2168L50.1691 42.1069L50.1024 41.9971L50.0359 41.8901L49.9663 41.7832L49.8938 41.6793L49.8198 41.5768L49.7428 41.4744L49.6658 41.3764L49.5844 41.2769L49.5015 41.1819L49.4172 41.0868L49.3299 40.9948L49.2425 40.9027L49.1508 40.8151L49.059 40.7275L48.9657 40.6429L48.8695 40.5597L48.7718 40.4781L48.766 40.4736L48.6268 40.5582L48.504 40.628L48.3767 40.6978L48.3604 40.7067L48.3929 40.7676L48.4388 40.8582L48.4817 40.9502L48.5202 41.0438L48.5602 41.1373L48.5942 41.2309L48.6283 41.3274L48.6594 41.4254L48.686 41.5219L48.7127 41.6199L48.7349 41.7194L48.7541 41.8174L48.7718 41.9183L48.7866 42.0193L48.7985 42.1188L48.8089 42.2198L48.8148 42.3207L48.8192 42.4232V42.5242V42.6252L48.8148 42.7261L48.8089 42.8286L48.7985 42.9281L48.7866 43.0305L48.7718 43.13L48.7541 43.2295L48.7349 43.3305L48.7127 43.4285L48.686 43.5264L48.6594 43.6245L48.6283 43.721L48.5942 43.8175L48.5602 43.911L48.5202 44.006L48.4817 44.0996L48.4388 44.1902L48.3929 44.2808L48.3441 44.3699L48.2938 44.459L48.242 44.5451L48.1872 44.6312L48.1295 44.7143L48.0718 44.796L48.0096 44.8777L47.946 44.9564L47.8808 45.0336L47.8128 45.1093L47.7432 45.1821L47.6722 45.2548L47.5981 45.3231L47.5241 45.3914L47.4471 45.4583L47.3687 45.5206L47.2888 45.583L47.2059 45.6424L47.1215 45.6988L47.0372 45.7538L46.9513 45.8072L46.864 45.8577L46.7737 45.9052L46.6835 45.9512L46.5917 45.9943L46.4985 46.0344L46.4067 46.073L46.3119 46.1086L46.2157 46.1413L46.1195 46.1725L46.0233 46.2007L45.9242 46.2259L45.8265 46.2482L45.7273 46.269L45.6281 46.2853L45.5275 46.3002L45.4268 46.3135L45.3262 46.3224L45.2256 46.3284L45.1249 46.3343H45.0228H14V51.1245H45.0228L45.1501 51.123L45.2759 51.12L45.4031 51.1126L45.529 51.1022L45.6562 51.0918L45.782 51.077L45.9079 51.0577L46.0322 51.0384L46.1565 51.0161L46.2809 50.9893L46.4037 50.9611L46.5266 50.9314L46.6479 50.8988L46.7708 50.8617L46.8907 50.8245L47.0105 50.7815L47.1304 50.7384L47.2488 50.6924L47.3658 50.6449L47.4812 50.5944L47.5967 50.5394L47.7091 50.483L47.8231 50.4251L47.9326 50.3642L48.0436 50.3019L48.1517 50.2365L48.2582 50.1667L48.3648 50.0985L48.4684 50.0257L48.5706 49.95L48.6727 49.8742L48.7718 49.7955L48.8695 49.7139L48.9657 49.6307L49.059 49.5476L49.1508 49.46L49.2425 49.3709L49.3299 49.2803L49.4172 49.1867L49.5015 49.0932L49.5844 48.9967L49.6658 48.8987L49.7428 48.7992L49.8198 48.6982L49.8938 48.5943L49.9663 48.4904L50.0359 48.3834L50.1024 48.2765L50.1691 48.1667L50.2327 48.0567L50.2919 47.9454L50.3511 47.8325L50.4074 47.7182L50.4592 47.6039L50.511 47.4866L50.5598 47.3693L50.6042 47.252L50.6486 47.1317L50.69 47.0114L50.7285 46.8897L50.7641 46.7679L50.7966 46.6462L50.8277 46.5214L50.8558 46.3982L50.881 46.2749L50.9032 46.1487L50.9239 46.024L50.9417 45.8978L50.955 45.7716L50.9683 45.6453L50.9772 45.5177L50.9831 45.3914L50.9891 45.2652V45.1375V45.0098L50.9831 44.8821Z" fill="#0DC09D"/>
<path d="M14.0059 20.2409L14.0118 20.3686L14.0207 20.4948L14.034 20.6225L14.0488 20.7487L14.0651 20.8734L14.0858 20.9996L14.108 21.1244L14.1332 21.2491L14.1613 21.3723L14.1924 21.4956L14.225 21.6173L14.2605 21.7406L14.3005 21.8608L14.3404 21.9811L14.3848 22.1014L14.4292 22.2187L14.4781 22.3375L14.5299 22.4533L14.5832 22.5691L14.6379 22.682L14.6971 22.7948L14.7578 22.9077L14.82 23.0175L14.8866 23.1274L14.9532 23.2328L15.0227 23.3398L15.0953 23.4452L15.1693 23.5477L15.2462 23.6501L15.3247 23.7481L15.4046 23.8476L15.4875 23.9426L15.5719 24.0377L15.6592 24.1297L15.748 24.2203L15.8383 24.3094L15.93 24.397L16.0233 24.4816L16.1195 24.5648L16.2187 24.6449L16.2231 24.6494L16.3622 24.5663L16.4851 24.4965L16.6124 24.4252L16.6301 24.4178L16.5961 24.3569L16.5517 24.2663L16.5088 24.1743L16.4688 24.0807L16.4303 23.9872L16.3948 23.8921L16.3608 23.7971L16.3311 23.6991L16.303 23.6026L16.2779 23.5046L16.2542 23.4051L16.2349 23.3071L16.2172 23.2061L16.2024 23.1052L16.1905 23.0057L16.1817 22.9047L16.1743 22.8037L16.1713 22.7013L16.1698 22.6003L16.1713 22.4993L16.1743 22.3969L16.1817 22.2944L16.1905 22.1949L16.2024 22.094L16.2172 21.9945L16.2349 21.8935L16.2542 21.794L16.2779 21.696L16.303 21.598L16.3311 21.5L16.3608 21.4035L16.3948 21.307L16.4303 21.212L16.4688 21.1184L16.5088 21.0249L16.5517 20.9328L16.5961 20.8437L16.6449 20.7531L16.6953 20.6655L16.7471 20.5779L16.8018 20.4933L16.8595 20.4101L16.9173 20.3284L16.9809 20.2468L17.0431 20.1681L17.1097 20.0909L17.1763 20.0151L17.2458 19.9409L17.3169 19.8697L17.3909 19.7999L17.4664 19.733L17.5419 19.6662L17.6203 19.6024L17.7017 19.5415L17.7831 19.4806L17.8675 19.4242L17.9518 19.3692L18.0392 19.3158L18.125 19.2668L18.2153 19.2193L18.3056 19.1733L18.3974 19.1302L18.4906 19.0886L18.5824 19.0515L18.6786 19.0158L18.7733 18.9832L18.8695 18.952L18.9672 18.9238L19.0649 18.8985L19.1641 18.8763L19.2618 18.8555L19.3624 18.8391L19.463 18.8243L19.5622 18.811L19.6628 18.802L19.7635 18.7946L19.8641 18.7901H19.9663H50.9891V14H19.9663H19.839L19.7132 14.0045L19.5859 14.0119L19.4601 14.0223L19.3328 14.0327L19.207 14.0475L19.0827 14.0668L18.9568 14.0846L18.8325 14.1084L18.7082 14.1336L18.5853 14.1633L18.4625 14.193L18.3411 14.2257L18.2183 14.2628L18.0984 14.2999L17.9785 14.3415L17.8601 14.3846L17.7402 14.4321L17.6248 14.4796L17.5093 14.5301L17.3939 14.585L17.2799 14.64L17.1674 14.6994L17.0564 14.7602L16.9469 14.8226L16.8373 14.8879L16.7308 14.9563L16.6242 15.026L16.5206 15.0988L16.4185 15.173L16.3163 15.2503L16.2187 15.3289L16.1195 15.4106L16.0233 15.4923L15.93 15.5769L15.8383 15.6645L15.748 15.7536L15.6592 15.8442L15.5719 15.9363L15.4875 16.0313L15.4046 16.1278L15.3247 16.2258L15.2462 16.3253L15.1693 16.4263L15.0953 16.5302L15.0227 16.6341L14.9532 16.7396L14.8866 16.848L14.82 16.9564L14.7578 17.0677L14.6971 17.1791L14.6379 17.2904L14.5832 17.4063L14.5299 17.5206L14.4781 17.6379L14.4292 17.7552L14.3848 17.8725L14.3404 17.9913L14.3005 18.1131L14.2605 18.2333L14.225 18.3551L14.1924 18.4783L14.1613 18.6016L14.1332 18.7263L14.108 18.8495L14.0858 18.9743L14.0651 19.1005L14.0488 19.2267L14.034 19.3529L14.0207 19.4791L14.0118 19.6068L14.0059 19.733L14 19.8593V19.987V20.1146L14.0059 20.2409Z" fill="#0DC09D"/>
</svg>
