<svg width="66" height="66" viewBox="0 0 66 66" fill="none" xmlns="http://www.w3.org/2000/svg">
<circle cx="32.9183" cy="32.9183" r="32.9183" fill="#F5F5F5"/>
<path d="M25.9994 53C17.3322 53 13 48.6681 13 40.0015V26.0013C13 17.3319 17.3322 13 25.9994 13H40.0006C48.6678 13 53 17.3319 53 25.9985V39.9988C53 48.6654 48.6678 52.9973 40.0006 52.9973H25.9994V53Z" fill="#FB523B"/>
<path fill-rule="evenodd" clip-rule="evenodd" d="M40.9452 22C39.8104 22 38.8904 22.9459 38.8904 24.1127V39.8874C38.8904 41.0541 39.8104 42 40.9452 42C42.08 42 43 41.0541 43 39.8874V24.1127C43 22.9459 42.08 22 40.9452 22ZM30.9452 30.0282C30.9452 28.8614 31.8651 27.9155 33 27.9155C34.1349 27.9155 35.0548 28.8614 35.0548 30.0282V39.8874C35.0548 41.0541 34.1349 42 33 42C31.8651 42 30.9452 41.0541 30.9452 39.8874V30.0282ZM23 35.0986C23 33.9318 23.92 32.9859 25.0548 32.9859C26.1896 32.9859 27.1096 33.9318 27.1096 35.0986V39.8874C27.1096 41.0541 26.1896 42 25.0548 42C23.92 42 23 41.0541 23 39.8874V35.0986Z" fill="white"/>
</svg>
