<svg width="66" height="66" viewBox="0 0 66 66" fill="none" xmlns="http://www.w3.org/2000/svg">
<circle cx="32.9183" cy="32.9183" r="32.9183" fill="#F5F5F5"/>
<path d="M33.7246 8H33.7884L36.9692 9.77276C36.9988 9.7892 37.0087 9.82554 36.9916 9.85409L26.1173 27.9831C26.1038 28.0056 26.0697 28.0056 26.0562 27.9831L19.0071 16.2313C18.9927 16.2063 19.0008 16.1751 19.0268 16.1613L22.2139 14.3894C22.2418 14.3738 22.2768 14.3833 22.293 14.4101L26.0535 20.6801C26.0751 20.7156 26.0966 20.7156 26.1191 20.6801L33.7246 8Z" fill="black"/>
<path d="M55 21.3447V24.9702C55 24.9868 54.987 25 54.9706 25H34.0298C34.0073 25 33.9926 24.9754 34.0039 24.9553L40.7935 13.0144C40.8012 13.0004 40.8194 12.996 40.8332 13.0039L43.9398 14.8254C43.9536 14.8333 43.958 14.8517 43.9502 14.8658L40.3087 21.2701C40.2974 21.2903 40.3121 21.3148 40.3346 21.3148H54.9706C54.987 21.3148 55 21.328 55 21.3447Z" fill="black"/>
<path d="M11 37.9991V34.2074L18.4922 34.2055C18.5215 34.2055 18.5295 34.1929 18.5144 34.1676L11 20.9218V20.8649L14.1595 19.0097C14.1932 18.9898 14.2367 19.0015 14.2562 19.0359L24.9975 37.9711C25.0046 37.9837 24.9957 38 24.9815 38L11 37.9991Z" fill="black"/>
<path d="M47.4852 33.6512L54.992 46.183C55 46.1967 54.9956 46.2129 54.9814 46.2206L51.7918 47.9962C51.7776 48.0039 51.7608 47.9996 51.7528 47.9859L41.0041 30.041C40.9926 30.0231 41.0068 30 41.028 30H54.9716C54.9876 30 55 30.012 55 30.0273V33.5828C55 33.5982 54.9876 33.6102 54.9716 33.6102H47.5092C47.4879 33.6102 47.4737 33.6333 47.4852 33.6512Z" fill="black"/>
<path d="M32.2436 58.9962L29.0148 57.2014C29.0004 57.1936 28.9959 57.1754 29.004 57.1616L39.8865 39.0149C39.8982 38.995 39.9269 38.995 39.9386 39.0149L46.996 50.7848C47.0041 50.7986 46.9996 50.8167 46.9852 50.8245L43.7573 52.6184C43.7429 52.6262 43.7241 52.6219 43.716 52.6081L39.9386 46.3108C39.9269 46.2909 39.8982 46.2909 39.8865 46.3108L32.2849 58.9858C32.2768 58.9996 32.258 59.0039 32.2436 58.9962Z" fill="black"/>
<path d="M11 43H31.9721C31.9938 43 32.0067 43.0217 31.9964 43.0386L25.2037 53.9869C25.1959 53.999 25.1795 54.0038 25.1665 53.9966L22.0686 52.3315C22.0478 52.3202 22.04 52.2945 22.0521 52.2752L25.6846 46.422C25.6958 46.4026 25.6811 46.3793 25.6578 46.3793L11 46.3801V43Z" fill="black"/>
</svg>
