<svg width="66" height="66" viewBox="0 0 66 66" fill="none" xmlns="http://www.w3.org/2000/svg">
<circle cx="32.9183" cy="32.9183" r="32.9183" fill="#F5F5F5"/>
<g clip-path="url(#clip0_4607_32)">
<path d="M33.5115 36.5714C40.293 36.5714 45.7906 31.0709 45.7906 24.2857C45.7906 17.5005 40.293 12 33.5115 12C26.7299 12 21.2324 17.5005 21.2324 24.2857C21.2324 31.0709 26.7299 36.5714 33.5115 36.5714Z" fill="#036C70"/>
<path d="M43.7441 46.809C49.9605 46.809 54.9999 41.7669 54.9999 35.5471C54.9999 29.3273 49.9605 24.2852 43.7441 24.2852C37.5277 24.2852 32.4883 29.3273 32.4883 35.5471C32.4883 41.7669 37.5277 46.809 43.7441 46.809Z" fill="#1A9BA1"/>
<path d="M35.0473 54.9985C39.8509 54.9985 43.7449 51.1023 43.7449 46.2961C43.7449 41.4899 39.8509 37.5938 35.0473 37.5938C30.2437 37.5938 26.3496 41.4899 26.3496 46.2961C26.3496 51.1023 30.2437 54.9985 35.0473 54.9985Z" fill="#37C6D0"/>
<path opacity="0.1" d="M35.5579 23.0884V44.9365C35.5528 45.6957 35.093 46.3777 34.3914 46.6667C34.1679 46.7613 33.9279 46.81 33.6853 46.8101H26.3588C26.3486 46.636 26.3486 46.4722 26.3486 46.2982C26.3452 46.1273 26.352 45.9563 26.369 45.7863C26.5563 42.5136 28.5713 39.6261 31.5774 38.3227V36.4184C24.8873 35.3576 20.3232 29.0714 21.3834 22.3776C21.3908 22.3313 21.3984 22.2849 21.4063 22.2386C21.4572 21.8934 21.529 21.5515 21.6211 21.2148H33.6853C34.7179 21.2188 35.5539 22.0553 35.5579 23.0884Z" fill="black"/>
<path opacity="0.2" d="M32.6623 22.2383H21.4065C20.2694 28.92 24.7613 35.2588 31.4394 36.3965C31.6416 36.431 31.8446 36.4603 32.0483 36.4846C28.8762 37.9896 26.5647 42.264 26.3682 45.7859C26.3512 45.956 26.3443 46.1269 26.3477 46.2978C26.3477 46.4719 26.3477 46.6357 26.358 46.8097C26.3764 47.1538 26.4209 47.4961 26.491 47.8335H32.6612C33.42 47.8284 34.1016 47.3684 34.3905 46.6664C34.485 46.4429 34.5337 46.2026 34.5338 45.9599V24.1119C34.5299 23.0791 33.6944 22.2428 32.6623 22.2383Z" fill="black"/>
<path opacity="0.2" d="M32.6622 22.2383H21.4064C20.2696 28.9206 24.7621 35.2597 31.4408 36.3972C31.5775 36.4205 31.7144 36.4414 31.8518 36.46C28.782 38.0735 26.5615 42.3377 26.3692 45.7859H32.6622C33.6931 45.7781 34.527 44.9438 34.5347 43.9123V24.1119C34.5308 23.0787 33.6947 22.2422 32.6622 22.2383Z" fill="black"/>
<path opacity="0.2" d="M31.6386 22.2383H21.406C20.3326 28.5465 24.2832 34.6213 30.4823 36.1949C28.135 38.8782 26.6953 42.235 26.3688 45.7859H31.6386C32.6711 45.782 33.5072 44.9454 33.5112 43.9123V24.1119C33.5106 23.0774 32.6725 22.2389 31.6386 22.2383Z" fill="black"/>
<path d="M12.8756 22.2383H31.636C32.6719 22.2383 33.5116 23.0785 33.5116 24.1149V42.8854C33.5116 43.9219 32.6719 44.7621 31.636 44.7621H12.8756C11.8397 44.7621 11 43.9219 11 42.8854V24.1149C11 23.0785 11.8397 22.2383 12.8756 22.2383Z" fill="url(#paint0_linear_4607_32)"/>
<path d="M19.3781 33.2687C18.9385 32.977 18.5714 32.5887 18.3047 32.1333C18.0462 31.6573 17.9174 31.1217 17.9312 30.5802C17.9081 29.847 18.1554 29.131 18.6259 28.5684C19.1204 28.0052 19.7595 27.5881 20.4739 27.3623C21.2882 27.0942 22.1411 26.962 22.9983 26.9713C24.1256 26.93 25.2513 27.0877 26.3239 27.4371V29.7919C25.8578 29.5094 25.3502 29.3021 24.8197 29.1776C24.2441 29.0363 23.6534 28.9655 23.0607 28.9667C22.4357 28.9437 21.8147 29.0752 21.2526 29.3496C20.8187 29.5368 20.5373 29.964 20.5364 30.4369C20.5346 30.7237 20.6447 30.9999 20.8433 31.2068C21.0779 31.4507 21.3554 31.6492 21.6619 31.7924C22.003 31.9623 22.5147 32.1883 23.1968 32.4702C23.2719 32.4939 23.3451 32.5234 23.4158 32.5582C24.0872 32.8208 24.7349 33.1403 25.3518 33.5134C25.819 33.8016 26.2111 34.1968 26.4958 34.6662C26.7877 35.1984 26.9292 35.8001 26.9051 36.4067C26.9384 37.1595 26.7083 37.9003 26.2543 38.5014C25.8018 39.0541 25.1969 39.4615 24.5148 39.6727C23.7125 39.9243 22.8751 40.0459 22.0344 40.033C21.2801 40.0365 20.5269 39.9748 19.7832 39.8488C19.1553 39.7459 18.5425 39.5658 17.9588 39.3123V36.8295C18.5167 37.2282 19.1401 37.5262 19.8006 37.71C20.459 37.9153 21.1434 38.0249 21.8328 38.0356C22.471 38.076 23.108 37.9408 23.6747 37.6445C24.0717 37.4204 24.3131 36.9958 24.303 36.5398C24.3056 36.2225 24.1802 35.9176 23.9551 35.6942C23.6751 35.4192 23.351 35.1932 22.9963 35.0256C22.587 34.8208 21.9843 34.5509 21.1882 34.2158C20.5549 33.961 19.9485 33.6438 19.3781 33.2687Z" fill="white"/>
</g>
<defs>
<linearGradient id="paint0_linear_4607_32" x1="14.9107" y1="20.7719" x2="29.6128" y2="46.2216" gradientUnits="userSpaceOnUse">
<stop stop-color="#058F92"/>
<stop offset="0.5" stop-color="#038489"/>
<stop offset="1" stop-color="#026D71"/>
</linearGradient>
<clipPath id="clip0_4607_32">
<rect width="44" height="43" fill="white" transform="translate(11 12)"/>
</clipPath>
</defs>
</svg>
