<svg width="66" height="66" viewBox="0 0 66 66" fill="none" xmlns="http://www.w3.org/2000/svg">
<circle cx="32.9183" cy="32.9183" r="32.9183" fill="#F5F5F5"/>
<g clip-path="url(#clip0_4636_43)">
<path fill-rule="evenodd" clip-rule="evenodd" d="M19.455 31.0636V41.1836L33.0456 49.2796L46.6362 41.1836V27.8956L35.0126 34.7596C33.7609 35.5516 32.2409 35.5516 30.9891 34.7596L15.2526 25.4316C13.5538 24.4636 13.5538 21.9116 15.2526 20.9436L30.9891 11.5276C32.2409 10.7356 33.7609 10.7356 35.0126 11.5276L46.6362 18.3916L41.2715 21.5596L33.0456 16.6316L29.2009 18.9196L22.2268 23.0556L25.8926 25.2556L33.0456 29.5676L47.7091 20.8556C48.5138 20.4156 49.6762 20.4156 50.4809 20.8556C51.375 21.2956 52.0903 22.2636 52.0903 23.4076V41.8876C52.0903 43.2956 51.375 44.6156 50.1232 45.3196L35.0126 54.4716C33.7609 55.2636 32.2409 55.2636 30.9891 54.4716L15.9679 45.4956C14.7162 44.7036 14.0009 43.4716 14.0009 42.0636V39.1596V27.8956L19.455 31.0636Z" fill="#175CFF"/>
</g>
<defs>
<clipPath id="clip0_4636_43">
<rect width="38" height="44" fill="white" transform="translate(14 11)"/>
</clipPath>
</defs>
</svg>
