<svg width="66" height="66" viewBox="0 0 66 66" fill="none" xmlns="http://www.w3.org/2000/svg">
<circle cx="32.9183" cy="32.9183" r="32.9183" fill="#F5F5F5"/>
<rect width="43" height="43" transform="translate(11 11)" fill="#F5F5F5"/>
<path fill-rule="evenodd" clip-rule="evenodd" d="M31.4558 17.2395L18.0347 24.9918C17.3897 25.3628 16.9931 26.0517 16.9931 26.7943V42.2989C16.9955 43.042 17.3897 43.7281 18.0347 44.1014L31.4558 51.8536C32.1006 52.2253 32.8938 52.2253 33.5387 51.8536L46.9628 44.1014C47.6048 43.7304 48.0014 43.042 48.0014 42.2989V26.7943C48.0014 26.0517 47.6048 25.3628 46.9628 24.9918L33.5387 17.2395C33.2378 17.0668 32.8961 16.9688 32.5468 16.9618C32.531 16.9612 32.5148 16.9612 32.4984 16.9612C32.1327 16.9612 31.7746 17.0569 31.4558 17.2395ZM32.4972 21.4461L43.8369 27.9955V41.096L32.4972 47.6453V21.4461Z" fill="url(#paint0_linear_102_23)"/>
<defs>
<linearGradient id="paint0_linear_102_23" x1="16.9931" y1="20.8456" x2="50.7606" y2="23.5489" gradientUnits="userSpaceOnUse">
<stop stop-color="#34C896"/>
<stop offset="1" stop-color="#9EE870"/>
</linearGradient>
</defs>
</svg>
