<svg width="66" height="66" viewBox="0 0 66 66" fill="none" xmlns="http://www.w3.org/2000/svg">
<circle cx="32.9183" cy="32.9183" r="32.9183" fill="#F5F5F5"/>
<path d="M34.7637 28.7023C34.177 29.1411 33.3544 29.1567 32.7335 28.7768C32.1303 28.4077 31.7843 27.6928 31.9191 26.9959C31.934 26.9194 31.9554 26.8444 31.981 26.7708C31.9038 26.9765 31.8379 27.1508 31.9921 26.7364C32.1498 26.318 32.0835 26.4965 32.0059 26.7038C32.2693 26.0498 32.9374 25.6338 33.6435 25.6464C34.3813 25.6594 35.0663 26.1316 35.3197 26.8222C35.5671 27.4968 35.3426 28.2694 34.7637 28.7023ZM54.2337 26.206C53.6753 24.8634 52.7797 23.6763 51.6224 22.7847C50.408 21.8489 48.9422 21.2581 47.4205 21.0543C46.5327 20.9355 45.6322 20.9536 44.7482 21.0955C43.8238 21.244 42.9515 21.5427 42.0939 21.9088C41.6739 22.0882 41.2575 22.2759 40.8384 22.4576C39.5598 23.2117 38.1176 23.6409 36.6274 23.6605C35.8555 23.6705 35.0852 23.5845 34.3313 23.4201C33.9343 23.3337 33.5422 23.2258 33.1557 23.1011C32.7809 22.9799 32.4016 22.9026 32.0085 22.8693C31.1156 22.7935 30.216 22.9133 29.3293 23.0077L27.189 23.2376C27.1861 23.2334 27.1838 23.2306 27.1814 23.2265L27.1187 23.2328C26.5748 22.6326 25.9019 22.1604 25.2428 21.6948C25.0549 21.5621 24.872 21.446 24.6359 21.4245C23.9679 21.4183 23.8093 22.2134 23.7707 22.7288C23.7236 23.3577 23.7989 24.0043 23.9433 24.6171C23.9986 24.8518 24.0598 25.1005 24.1768 25.3138C24.1768 25.3138 24.2798 25.7694 24.4603 26.1952C24.2282 26.4773 24.0418 26.798 23.9123 27.1389C23.8669 27.2588 23.8207 27.3637 23.7499 27.4714C23.5418 27.7883 23.2901 28.0785 23.0426 28.365C22.2059 29.3338 21.3142 30.2567 20.4219 31.1747C20.004 31.6047 16.4028 32.7932 14.3289 33.4527C14.5285 23.9561 22.2884 16.319 31.8327 16.319C36.3517 16.319 40.4706 18.0314 43.5767 20.8422C43.9782 20.7258 44.3655 20.6369 44.7482 20.5755C45.271 20.4916 45.7995 20.449 46.3187 20.449C46.371 20.449 46.423 20.4507 46.4751 20.4516C42.8486 16.484 37.6316 13.9948 31.8327 13.9948C20.8795 13.9948 12 22.8743 12 33.8275C12 44.7807 20.8795 53.6602 31.8327 53.6602C41.9007 53.6602 50.2155 46.1578 51.494 36.4389C51.4173 36.4854 51.342 36.5339 51.2634 36.5782C50.7648 36.8597 50.247 37.0694 49.7462 37.2719C49.5733 37.3421 49.4102 37.4079 49.2476 37.4767C49.1429 37.5209 49.036 37.568 48.9291 37.6151C47.2487 45.2339 40.6065 50.9896 32.5637 51.32C34.302 48.7307 37.791 43.6416 38.8136 42.9415C40.2137 41.9831 41.6305 41.048 43.0744 40.1557C44.3961 39.3388 45.7405 38.554 47.1269 37.8495C47.7281 37.5441 48.3375 37.254 48.959 36.9914C49.6206 36.7121 50.2939 36.4734 50.921 36.1196C52.0507 35.4821 53.0279 34.5858 53.7225 33.4931C54.3871 32.4477 54.78 31.244 54.8717 30.0117C54.9684 28.7147 54.7329 27.4062 54.2337 26.206Z" fill="#36414B"/>
</svg>
