<svg width="66" height="66" viewBox="0 0 66 66" fill="none" xmlns="http://www.w3.org/2000/svg">
<circle cx="32.9183" cy="32.9183" r="32.9183" fill="#F5F5F5"/>
<rect width="43" height="43" transform="translate(11 11)" fill="#F5F5F5"/>
<path fill-rule="evenodd" clip-rule="evenodd" d="M31.5222 8.39558L12.4779 19.4164C11.5627 19.9439 11 20.9233 11 21.9789V44.0205C11.0033 45.0769 11.5627 46.0523 12.4779 46.583L31.5222 57.6037C32.4372 58.1321 33.5628 58.1321 34.4778 57.6037L53.5263 46.583C54.4373 46.0556 55 45.0769 55 44.0205V21.9789C55 20.9233 54.4373 19.9439 53.5263 19.4164L34.4778 8.39558C34.0509 8.15011 33.566 8.01077 33.0703 8.00082C33.048 8 33.0249 8 33.0016 8C32.4828 8 31.9746 8.13601 31.5222 8.39558ZM32.9999 14.3758L49.0908 23.6865V42.3104L32.9999 51.621V14.3758Z" fill="url(#paint0_linear_105_2)"/>
<defs>
<linearGradient id="paint0_linear_105_2" x1="11" y1="13.5221" x2="58.9165" y2="17.351" gradientUnits="userSpaceOnUse">
<stop stop-color="#34C896"/>
<stop offset="1" stop-color="#9EE870"/>
</linearGradient>
</defs>
</svg>
