<svg width="66" height="66" viewBox="0 0 66 66" fill="none" xmlns="http://www.w3.org/2000/svg">
<circle cx="32.9183" cy="32.9183" r="32.9183" fill="#F5F5F5"/>
<path d="M55.9983 29.0503C52.756 29.0503 50.1274 26.4217 50.1274 23.1796C50.1274 21.5595 50.785 20.0918 51.8449 19.0301L46.968 14.1532C45.9063 15.2149 44.4386 15.8707 42.8185 15.8707C39.5764 15.8707 36.9478 13.2421 36.9478 10H33.5H30.0521C30.0521 13.2439 27.4236 15.8725 24.1815 15.8725C22.5613 15.8725 21.0937 15.2149 20.0319 14.155L15.155 19.0319C16.2167 20.0937 16.8725 21.5613 16.8725 23.1815C16.8725 26.4236 14.2439 29.0521 11.0018 29.0521C11.0018 29.0521 11.0018 29.0521 11 29.0521V35.9496C11 35.9496 11 35.9496 11.0018 35.9496C14.2439 35.9496 16.8725 38.5782 16.8725 41.8203C16.8725 43.4404 16.2149 44.9081 15.155 45.9698L20.0319 50.8468C21.0937 49.785 22.5613 49.1292 24.1815 49.1292C27.4236 49.1292 30.0521 51.7577 30.0521 55H33.5H36.9478C36.9478 51.756 39.5764 49.1274 42.8185 49.1274C44.4386 49.1274 45.9063 49.7832 46.968 50.8447L51.8449 45.9679C50.7832 44.9062 50.1274 43.4385 50.1274 41.8184C50.1274 38.5763 52.756 35.9478 55.9983 35.9478C55.9983 35.9478 55.9983 35.9478 56 35.9478V29.0503C56 29.0503 56 29.0503 55.9983 29.0503ZM44.7986 39.0246L33.4981 45.5491L22.1976 39.0246V25.9754L33.4981 19.4508L44.7986 25.9754V39.0246Z" fill="#003311"/>
</svg>
