<svg width="66" height="67" viewBox="0 0 66 67" fill="none" xmlns="http://www.w3.org/2000/svg">
<circle cx="32.9729" cy="33.3558" r="32.9183" fill="#F5F5F5"/>
<g clip-path="url(#clip0_1133_122)">
<path d="M47.4082 20.4489C47.379 20.237 47.1933 20.1197 47.0399 20.1068C46.8867 20.094 43.6455 19.8537 43.6455 19.8537C43.6455 19.8537 41.3945 17.6189 41.1474 17.3716C40.9002 17.1244 40.4174 17.1996 40.2299 17.2547C40.2024 17.2629 39.7381 17.4061 38.9702 17.6438C38.2183 15.4799 36.8912 13.4915 34.5565 13.4915C34.492 13.4915 34.4257 13.4941 34.3594 13.4979C33.6954 12.6198 32.8729 12.2383 32.1624 12.2383C26.7239 12.2383 24.1256 19.0371 23.3109 22.492C21.1976 23.1468 19.6963 23.6123 19.5045 23.6726C18.3249 24.0426 18.2876 24.0798 18.1327 25.1913C18.0162 26.0328 14.9297 49.902 14.9297 49.902L38.9802 54.4082L52.0116 51.5891C52.0116 51.5891 47.4369 20.6609 47.4082 20.4489ZM37.6409 18.0549L35.6059 18.6847C35.6066 18.5413 35.6073 18.4002 35.6073 18.2459C35.6073 16.9011 35.4207 15.8183 35.1212 14.96C36.3242 15.1109 37.1253 16.4797 37.6409 18.0549ZM33.6289 15.2266C33.9633 16.0647 34.1808 17.2674 34.1808 18.8903C34.1808 18.9733 34.1801 19.0492 34.1793 19.126C32.8559 19.536 31.4177 19.9811 29.9764 20.4276C30.7857 17.3042 32.3027 15.7957 33.6289 15.2266ZM32.0131 13.697C32.2478 13.697 32.4843 13.7767 32.7106 13.9325C30.9676 14.7527 29.0993 16.8184 28.3104 20.9435L24.9881 21.9724C25.9122 18.826 28.1067 13.697 32.0131 13.697Z" fill="#95BF46"/>
<path d="M47.039 20.1057C46.8858 20.0929 43.6446 19.8526 43.6446 19.8526C43.6446 19.8526 41.3935 17.6178 41.1465 17.3705C41.054 17.2784 40.9293 17.2313 40.7989 17.2109L38.9805 54.4068L52.0107 51.588C52.0107 51.588 47.436 20.6598 47.4073 20.4478C47.3781 20.2359 47.1924 20.1186 47.039 20.1057Z" fill="#5E8E3E"/>
<path d="M34.556 27.3055L32.9492 32.0852C32.9492 32.0852 31.5414 31.3338 29.8157 31.3338C27.2857 31.3338 27.1584 32.9215 27.1584 33.3215C27.1584 35.5045 32.8489 36.341 32.8489 41.4542C32.8489 45.4772 30.2973 48.0676 26.8569 48.0676C22.7285 48.0676 20.6172 45.4982 20.6172 45.4982L21.7226 41.8459C21.7226 41.8459 23.8928 43.7091 25.7241 43.7091C26.9207 43.7091 27.4074 42.767 27.4074 42.0786C27.4074 39.231 22.7389 39.104 22.7389 34.4249C22.7389 30.4868 25.5655 26.6758 31.2714 26.6758C33.4699 26.6758 34.556 27.3055 34.556 27.3055Z" fill="white"/>
</g>
<defs>
<clipPath id="clip0_1133_122">
<rect width="37.1658" height="42.388" fill="white" transform="translate(14.9219 12.125)"/>
</clipPath>
</defs>
</svg>
