<svg width="66" height="66" viewBox="0 0 66 66" fill="none" xmlns="http://www.w3.org/2000/svg">
<path d="M33 66C51.2254 66 66 51.2254 66 33C66 14.7746 51.2254 0 33 0C14.7746 0 0 14.7746 0 33C0 51.2254 14.7746 66 33 66Z" fill="#F5F5F5"/>
<g clip-path="url(#clip0_238_4)">
<path d="M37.1344 39.6103C37.1344 40.4741 36.7648 41.2146 35.9023 41.7082C35.2862 42.2018 34.3005 42.3252 33.0683 42.3252C31.4666 42.3252 30.3576 41.955 29.3719 41.338C28.9672 41.0071 28.6373 40.594 28.4037 40.126C28.1701 39.6581 28.0381 39.1459 28.0165 38.6231L20.6236 38.3763C20.6236 40.2273 21.1165 41.955 22.2254 43.3124C23.3344 44.9167 24.6897 46.0273 26.6612 47.0146L29.8647 47.8784H29.988H15.079V19.1252H29.8647C28.7559 19.3721 27.7701 19.6189 26.7844 20.1125C25.2033 20.8031 23.8401 21.9124 22.8415 23.321C21.8361 24.6335 21.275 26.233 21.2397 27.8869C21.2397 29.738 21.6094 31.2188 22.4719 32.4529C23.2112 33.5635 24.1969 34.4273 25.429 34.9209C26.6612 35.538 28.2629 36.0316 30.3576 36.4018C32.4369 36.9296 34.4925 37.5472 36.5184 38.2529C36.7648 38.6231 37.0112 38.9933 37.0112 39.6103H37.1344Z" fill="#1FB07E"/>
<path d="M51.9203 48.0021V36.8957V19.0021H35.4095L38.49 19.9893C40.1213 20.7111 41.5266 21.8626 42.556 23.3212C43.5418 24.6787 44.1578 26.2829 44.1578 28.0106H36.765C36.6417 27.0234 36.2721 26.1595 35.5328 25.5425C34.7935 24.9255 33.8078 24.6787 32.4524 24.6787C31.4667 24.6787 30.6042 24.8021 29.9881 25.2957C29.2489 25.7893 28.8792 26.4063 28.8792 27.2702C28.8792 27.7638 29.1257 28.2574 29.4953 28.6276L31.4667 29.3681L35.5328 30.3553C37.2182 30.6354 38.8699 31.0904 40.4613 31.7128C41.6956 32.2353 42.7616 33.0895 43.5418 34.1808C44.3891 35.4581 44.8196 36.9672 44.7739 38.5C44.7742 40.2735 44.2134 42.0017 43.172 43.4362C42.126 44.9578 40.6745 46.1549 38.9828 46.8915C37.997 47.3851 37.0114 47.7553 35.7792 48.0021H51.9203Z" fill="#0F1727"/>
</g>
<defs>
<clipPath id="clip0_238_4">
<rect width="37" height="29" fill="white" transform="translate(15 19)"/>
</clipPath>
</defs>
</svg>
