<svg width="66" height="66" viewBox="0 0 66 66" fill="none" xmlns="http://www.w3.org/2000/svg">
<circle cx="32.9183" cy="32.9183" r="32.9183" fill="#F5F5F5"/>
<g clip-path="url(#clip0_58_19)">
<mask id="mask0_58_19" style="mask-type:luminance" maskUnits="userSpaceOnUse" x="5" y="5" width="56" height="56">
<path d="M61 5H5V61H61V5Z" fill="white"/>
</mask>
<g mask="url(#mask0_58_19)">
<mask id="mask1_58_19" style="mask-type:alpha" maskUnits="userSpaceOnUse" x="5" y="5" width="56" height="56">
<path d="M33 61C48.464 61 61 48.464 61 33C61 17.536 48.464 5 33 5C17.536 5 5 17.536 5 33C5 48.464 17.536 61 33 61Z" fill="#D9D9D9"/>
</mask>
<g mask="url(#mask1_58_19)">
<path d="M61 5H5V61H61V5Z" fill="url(#paint0_linear_58_19)"/>
<path d="M33.0673 14.8C22.9837 14.8 14.8 22.8655 14.8 32.8034C14.8 39.4646 18.4717 45.2617 23.9154 48.3763L25.7421 45.2617C21.3945 42.7592 18.4535 38.1324 18.4535 32.8034C18.4535 24.8459 24.9932 18.4007 33.0673 18.4007C41.1415 18.4007 47.6812 24.8459 47.6812 32.8034C47.6812 38.1324 44.7401 42.7592 40.3743 45.2617L42.201 48.3763C47.6629 45.2617 51.3346 39.4646 51.3346 32.8034C51.3346 22.8655 43.1509 14.8 33.0673 14.8Z" fill="white"/>
<path d="M43.9248 32.7243C43.9248 26.7652 39.0109 21.9222 32.9644 21.9222C26.9179 21.9222 22.004 26.7652 22.004 32.7243C22.004 36.721 24.2143 40.1956 27.4842 42.068L29.311 38.9354C27.1371 37.6752 25.6575 35.3887 25.6575 32.7243C25.6575 28.7455 28.9273 25.5229 32.9644 25.5229C37.0015 25.5229 40.2713 28.7455 40.2713 32.7243C40.2713 35.3887 38.7917 37.6752 36.6179 38.9354L38.4446 42.068C41.7144 40.1956 43.9248 36.721 43.9248 32.7243Z" fill="white"/>
<path d="M32.8615 29.0445C30.8521 29.0445 29.208 30.6647 29.208 32.6451C29.208 34.6255 30.8521 36.2458 32.8615 36.2458C34.8709 36.2458 36.5149 34.6255 36.5149 32.6451C36.5149 30.6647 34.8709 29.0445 32.8615 29.0445Z" fill="white"/>
</g>
</g>
</g>
<defs>
<linearGradient id="paint0_linear_58_19" x1="19.9333" y1="7.8" x2="48.6333" y2="56.8" gradientUnits="userSpaceOnUse">
<stop stop-color="#FF6900"/>
<stop offset="1" stop-color="#F54A00"/>
</linearGradient>
<clipPath id="clip0_58_19">
<rect width="56" height="56" fill="white" transform="translate(5 5)"/>
</clipPath>
</defs>
</svg>
