<svg width="66" height="66" viewBox="0 0 66 66" fill="none" xmlns="http://www.w3.org/2000/svg">
<circle cx="32.9183" cy="32.9183" r="32.9183" fill="#F5F5F5"/>
<g clip-path="url(#clip0_55_33)">
<mask id="mask0_55_33" style="mask-type:luminance" maskUnits="userSpaceOnUse" x="13" y="13" width="40" height="40">
<path d="M53 13H13V53H53V13Z" fill="white"/>
</mask>
<g mask="url(#mask0_55_33)">
<mask id="mask1_55_33" style="mask-type:alpha" maskUnits="userSpaceOnUse" x="13" y="13" width="40" height="40">
<path d="M33 53C44.0457 53 53 44.0457 53 33C53 21.9543 44.0457 13 33 13C21.9543 13 13 21.9543 13 33C13 44.0457 21.9543 53 33 53Z" fill="#D9D9D9"/>
</mask>
<g mask="url(#mask1_55_33)">
<path d="M53 13H13V53H53V13Z" fill="url(#paint0_linear_55_33)"/>
<path d="M33.0481 20C25.8455 20 20 25.7611 20 32.8595C20 37.6176 22.6227 41.7583 26.511 43.983L27.8158 41.7583C24.7104 39.9709 22.6096 36.666 22.6096 32.8595C22.6096 27.1756 27.2808 22.5719 33.0481 22.5719C38.8153 22.5719 43.4866 27.1756 43.4866 32.8595C43.4866 36.666 41.3858 39.9709 38.2673 41.7583L39.5721 43.983C43.4735 41.7583 46.0962 37.6176 46.0962 32.8595C46.0962 25.7611 40.2506 20 33.0481 20Z" fill="#F5F5F5"/>
<path d="M40.8034 32.803C40.8034 28.5465 37.2935 25.0873 32.9746 25.0873C28.6557 25.0873 25.1457 28.5465 25.1457 32.803C25.1457 35.6579 26.7245 38.1397 29.0601 39.4771L30.365 37.2396C28.8122 36.3394 27.7553 34.7062 27.7553 32.803C27.7553 29.9611 30.0909 27.6592 32.9746 27.6592C35.8582 27.6592 38.1938 29.9611 38.1938 32.803C38.1938 34.7062 37.1369 36.3394 35.5842 37.2396L36.889 39.4771C39.2246 38.1397 40.8034 35.6579 40.8034 32.803Z" fill="#F5F5F5"/>
<path d="M32.9011 30.1746C31.4658 30.1746 30.2914 31.332 30.2914 32.7465C30.2914 34.1611 31.4658 35.3184 32.9011 35.3184C34.3364 35.3184 35.5107 34.1611 35.5107 32.7465C35.5107 31.332 34.3364 30.1746 32.9011 30.1746Z" fill="#F5F5F5"/>
</g>
</g>
</g>
<defs>
<linearGradient id="paint0_linear_55_33" x1="23.6667" y1="15" x2="44.1667" y2="50" gradientUnits="userSpaceOnUse">
<stop stop-color="#FF6900"/>
<stop offset="1" stop-color="#F54A00"/>
</linearGradient>
<clipPath id="clip0_55_33">
<rect width="40" height="40" fill="white" transform="translate(13 13)"/>
</clipPath>
</defs>
</svg>
