<svg width="66" height="66" viewBox="0 0 66 66" fill="none" xmlns="http://www.w3.org/2000/svg">
<circle cx="32.9183" cy="32.9183" r="32.9183" fill="#F5F5F5"/>
<g clip-path="url(#clip0_51_47)">
<mask id="mask0_51_47" style="mask-type:luminance" maskUnits="userSpaceOnUse" x="5" y="6" width="55" height="55">
<path d="M60 6H5V61H60V6Z" fill="white"/>
</mask>
<g mask="url(#mask0_51_47)">
<mask id="mask1_51_47" style="mask-type:alpha" maskUnits="userSpaceOnUse" x="5" y="6" width="55" height="55">
<path d="M32.5 61C47.6878 61 60 48.6878 60 33.5C60 18.3122 47.6878 6 32.5 6C17.3122 6 5 18.3122 5 33.5C5 48.6878 17.3122 61 32.5 61Z" fill="#D9D9D9"/>
</mask>
<g mask="url(#mask1_51_47)">
<path d="M60 6H5V61H60V6Z" fill="url(#paint0_linear_51_47)"/>
<path d="M32.5661 15.625C22.6626 15.625 14.625 23.5465 14.625 33.3069C14.625 39.8492 18.2312 45.5427 23.5776 48.6017L25.3717 45.5427C21.1018 43.0849 18.2132 38.5407 18.2132 33.3069C18.2132 25.4915 24.6361 19.1614 32.5661 19.1614C40.4961 19.1614 46.919 25.4915 46.919 33.3069C46.919 38.5407 44.0305 43.0849 39.7426 45.5427L41.5367 48.6017C46.9011 45.5427 50.5072 39.8492 50.5072 33.3069C50.5072 23.5465 42.4696 15.625 32.5661 15.625Z" fill="white"/>
<path d="M43.2297 33.2292C43.2297 27.3765 38.4036 22.62 32.465 22.62C26.5265 22.62 21.7004 27.3765 21.7004 33.2292C21.7004 37.1546 23.8712 40.5671 27.0827 42.4061L28.8768 39.3294C26.7418 38.0917 25.2886 35.8461 25.2886 33.2292C25.2886 29.3215 28.5 26.1564 32.465 26.1564C36.43 26.1564 39.6415 29.3215 39.6415 33.2292C39.6415 35.8461 38.1882 38.0917 36.0533 39.3294L37.8474 42.4061C41.0588 40.5671 43.2297 37.1546 43.2297 33.2292Z" fill="white"/>
<path d="M32.3639 29.6151C30.3904 29.6151 28.7757 31.2064 28.7757 33.1515C28.7757 35.0965 30.3904 36.6878 32.3639 36.6878C34.3375 36.6878 35.9521 35.0965 35.9521 33.1515C35.9521 31.2064 34.3375 29.6151 32.3639 29.6151Z" fill="white"/>
</g>
</g>
</g>
<defs>
<linearGradient id="paint0_linear_51_47" x1="19.6667" y1="8.75" x2="47.8542" y2="56.875" gradientUnits="userSpaceOnUse">
<stop stop-color="#FF6900"/>
<stop offset="1" stop-color="#F54A00"/>
</linearGradient>
<clipPath id="clip0_51_47">
<rect width="55" height="55" fill="white" transform="translate(5 6)"/>
</clipPath>
</defs>
</svg>
