<svg width="66" height="66" viewBox="0 0 66 66" fill="none" xmlns="http://www.w3.org/2000/svg">
<circle cx="32.9183" cy="32.9183" r="32.9183" fill="#F5F5F5"/>
<g clip-path="url(#clip0_71_10)">
<path d="M49.8226 14.9112C49.2168 10.4859 44.5597 7.83827 40.4327 9.50249L38.2745 10.3724C31.535 13.0957 24.4925 14.9869 17.2986 15.9703L14.9511 16.3107C10.5212 16.9158 7.83295 21.5302 9.49891 25.653L10.4833 28.0738C13.1337 34.6927 14.989 41.6523 16.0113 48.7252L16.3521 51.1837C16.9579 55.6091 21.615 58.2945 25.7798 56.5925L27.9001 55.7226C34.7155 52.9614 41.8336 51.0324 49.1032 50.049L51.2993 49.7465C55.7292 49.1413 58.4175 44.5268 56.7137 40.3663L55.8428 38.2104C53.1167 31.4778 51.2235 24.4427 50.2012 17.2563L49.8226 14.9112Z" fill="#451692"/>
<path d="M44.522 11.2033C42.7803 7.08054 37.5932 5.68107 34.034 8.40435L32.1788 9.80382C26.3857 14.1535 20.0627 17.7845 13.361 20.6213L11.165 21.5291C7.07583 23.2689 5.71278 28.4128 8.36316 31.9682L9.91552 34.0486C14.194 39.7599 17.791 45.9628 20.5928 52.5441L21.5773 54.8135C23.3189 58.9363 28.506 60.2979 32.0652 57.6124L33.8826 56.2508C39.7135 51.8254 46.1122 48.1187 52.8518 45.282L54.8964 44.4121C59.0234 42.6723 60.3864 37.5283 57.6982 33.9729L56.2973 32.1195C51.9053 26.3326 48.2705 20.0161 45.4307 13.3592L44.522 11.2033Z" fill="#6528D7"/>
<path d="M36.2296 16.1965L21.1223 24.8201C17.4496 26.9382 16.2002 31.6284 18.3205 35.2594C20.4408 38.9283 25.1736 40.1764 28.8464 38.0961L39.3721 32.0444C40.6216 31.3257 42.174 31.7797 42.8934 32.99L43.007 33.1791C43.7263 34.4273 43.3099 35.978 42.0603 36.6967L27.2182 45.2069L29.9443 49.8592L44.7864 41.349C48.6106 39.1552 49.8979 34.3138 47.7019 30.4937L47.5883 30.3046C45.3922 26.4844 40.4702 25.1984 36.6839 27.3544L26.1581 33.4061C25.06 34.0491 23.6591 33.6708 23.0155 32.574C22.3718 31.4771 22.7504 30.0776 23.8484 29.4725L38.9557 20.8109L36.2296 16.1965Z" fill="white"/>
</g>
<defs>
<clipPath id="clip0_71_10">
<rect width="52" height="52" fill="white" transform="translate(7 7)"/>
</clipPath>
</defs>
</svg>
