<svg width="66" height="66" viewBox="0 0 66 66" fill="none" xmlns="http://www.w3.org/2000/svg">
<circle cx="32.9183" cy="32.9183" r="32.9183" fill="#F5F5F5"/>
<path fill-rule="evenodd" clip-rule="evenodd" d="M11.0849 36.3118C12.9037 36.3118 13.975 35.4432 13.975 34.2311C13.975 31.6235 10.2876 32.3476 10.2876 31.6494C10.2876 31.3994 10.6035 31.2151 11.0779 31.2151C11.8423 31.2151 12.5668 31.5448 12.9495 31.9123L13.7269 30.4771C12.9531 29.9177 12.0198 29.6219 11.0649 29.6334C9.31187 29.6334 8.33717 30.6085 8.33717 31.7251C8.33717 34.3058 12.0396 33.49 12.0396 34.2799C12.0396 34.5568 11.7895 34.7271 11.1835 34.7271C10.4321 34.7271 9.41751 34.2929 8.94311 33.8715L8.09998 35.3207C8.76073 35.9303 9.93375 36.3118 11.0849 36.3118Z" fill="#102342"/>
<path fill-rule="evenodd" clip-rule="evenodd" d="M15.3474 29.2261C15.6567 29.2261 15.9533 29.1033 16.172 28.8848C16.3906 28.6662 16.5135 28.3698 16.5135 28.0607C16.5135 27.7517 16.3906 27.4553 16.172 27.2367C15.9533 27.0182 15.6567 26.8954 15.3474 26.8954C15.0382 26.8954 14.7416 27.0182 14.5229 27.2367C14.3043 27.4553 14.1814 27.7517 14.1814 28.0607C14.1814 28.3698 14.3043 28.6662 14.5229 28.8848C14.7416 29.1033 15.0382 29.2261 15.3474 29.2261ZM16.367 36.1544V29.7928H14.3329V36.1544H16.367Z" fill="#102342"/>
<path fill-rule="evenodd" clip-rule="evenodd" d="M27.2052 36.1544V31.5448C27.2052 30.241 26.4667 29.6345 25.2937 29.6345C24.2921 29.6345 23.4619 30.2141 23.0931 30.7669C22.83 30.0169 22.2101 29.6345 21.2883 29.6345C20.2867 29.6345 19.4694 30.2012 19.1954 30.5697V29.7928H17.1642V36.1544H19.1934V32.0448C19.4046 31.7819 19.7863 31.4263 20.3405 31.4263C20.9464 31.4263 21.1707 31.7948 21.1707 32.2819V36.1544H23.1998V32.0448C23.3991 31.7819 23.7928 31.4263 24.3459 31.4263C24.9518 31.4263 25.19 31.7948 25.19 32.2819V36.1544H27.2052Z" fill="#102342"/>
<path fill-rule="evenodd" clip-rule="evenodd" d="M31.9331 36.3117C33.5277 36.3117 34.7236 35.1265 34.7236 32.9671C34.7236 30.8077 33.5277 29.6344 31.9331 29.6344C31.5714 29.6304 31.2135 29.7091 30.8869 29.8644C30.5603 30.0198 30.2735 30.2477 30.0485 30.5308V29.7928H28.0194V38.5767H30.0485V35.4034C30.5757 36.0359 31.2215 36.3117 31.9331 36.3117ZM31.2614 34.5189C30.8259 34.5189 30.2987 34.2689 30.0485 33.9392V32.005C30.2987 31.6633 30.8259 31.4263 31.2614 31.4263C32.0517 31.4263 32.6567 32.0189 32.6567 32.9671C32.6567 33.9153 32.0517 34.5209 31.2614 34.5209V34.5189Z" fill="#102342"/>
<path d="M37.1356 27.3695H35.1064V36.1534H37.1356V27.3695Z" fill="#102342"/>
<path fill-rule="evenodd" clip-rule="evenodd" d="M40.9945 36.3118C41.9692 36.3118 43.0236 36.0359 43.6563 35.4692L42.7772 34.1384C42.4084 34.4811 41.6701 34.6793 41.2216 34.6793C40.2996 34.6793 39.7726 34.2052 39.6269 33.6385H44.1595V33.1773C44.1595 31.0179 42.7893 29.6345 40.9047 29.6345C38.9113 29.6345 37.5311 31.1225 37.5311 32.9672C37.5311 35.0349 39.0339 36.3118 40.9974 36.3118H40.9945ZM42.219 32.256H39.597C39.6759 31.7948 40.0187 31.2679 40.9018 31.2679C41.8373 31.2659 42.1675 31.8078 42.219 32.256Z" fill="#102342"/>
<path fill-rule="evenodd" clip-rule="evenodd" d="M46.5127 36.1544V32.0976C46.7766 31.742 47.4755 31.5179 48.0026 31.5179C48.1704 31.5107 48.3382 31.5285 48.5009 31.5707V29.6215C47.7493 29.6215 46.9332 30.0557 46.5078 30.5697V29.7928H44.4836V36.1544H46.5127Z" fill="#102342"/>
<path fill-rule="evenodd" clip-rule="evenodd" d="M51.7947 36.3118C53.9824 36.3118 55.274 34.758 55.274 32.9672C55.274 31.1763 53.9784 29.6345 51.7947 29.6345C49.6341 29.6345 48.3425 31.1753 48.3425 32.9672C48.3425 34.7589 49.6379 36.3118 51.7947 36.3118ZM51.7947 34.5189C50.9246 34.5189 50.4243 33.8217 50.4243 32.9652C50.4243 32.1086 50.9226 31.4243 51.7947 31.4243C52.6917 31.4243 53.19 32.1215 53.19 32.9652C53.19 33.8088 52.6905 34.5209 51.7947 34.5209V34.5189Z" fill="#102342"/>
<path fill-rule="evenodd" clip-rule="evenodd" d="M56.6811 36.2989C56.924 36.2961 57.1609 36.2217 57.3616 36.085C57.5625 35.9482 57.7182 35.7551 57.8097 35.5301C57.901 35.3051 57.9237 35.0581 57.8751 34.8201C57.8264 34.5822 57.7084 34.364 57.536 34.1928C57.3639 34.0217 57.1448 33.9053 56.9062 33.8582C56.6678 33.8111 56.4211 33.8354 56.1963 33.9282C55.9718 34.0209 55.7798 34.1779 55.6442 34.3794C55.5087 34.5809 55.4355 34.818 55.4344 35.0608C55.4387 35.3893 55.5714 35.703 55.8049 35.9345C56.0377 36.1659 56.3526 36.2968 56.6811 36.2989Z" fill="#F55953"/>
</svg>
