<svg width="66" height="66" viewBox="0 0 66 66" fill="none" xmlns="http://www.w3.org/2000/svg">
<circle cx="32.9183" cy="32.9183" r="32.9183" fill="#F5F5F5"/>
<path d="M27.9832 40.9971H32.996C36.2795 40.9971 38.9415 38.3054 38.9415 34.9851V29.9383C38.9415 27.3795 42.0016 26.1 43.7878 27.9063L47.9907 32.1563C48.5249 32.6963 48.8226 33.4269 48.8226 34.1883V48.1158C48.8226 49.7007 47.5529 50.989 45.9812 50.989H32.2036C31.4506 50.989 30.7326 50.688 30.1985 50.1523L25.9781 45.9023C24.1831 44.0961 25.4484 40.9971 27.9832 40.9971Z" fill="#28171B"/>
<path d="M38.0158 25.0064H33.003C29.7195 25.0064 27.0577 27.698 27.0577 31.0183V36.0652C27.0577 38.6241 23.9974 39.9035 22.2112 38.0973L18.0083 33.8383C17.4742 33.2983 17.1765 32.5677 17.1765 31.8063V17.8832C17.1765 16.2939 18.4461 15.0101 20.0178 15.0101H33.7954C34.5484 15.0101 35.2665 15.3111 35.8006 15.8468L40.021 20.0968C41.8159 21.903 40.5507 25.0019 38.0158 25.0019V25.0064Z" fill="#28171B"/>
</svg>
