<svg width="66" height="66" viewBox="0 0 66 66" fill="none" xmlns="http://www.w3.org/2000/svg">
<circle cx="32.9183" cy="32.9183" r="32.9183" fill="#F5F5F5"/>
<g clip-path="url(#clip0_384_5)">
<path d="M35.8688 42.5897C35.6646 42.5897 35.4604 42.5385 35.3073 42.3846C34.95 42.1282 34.8479 41.6154 35.1031 41.2051C35.1542 41.1026 40.8708 31.5641 37.9104 26.8462C37.2979 25.8718 36.6344 25.3077 35.8688 25.3077C34.4396 25.2564 32.8573 26.8462 32.3469 27.5128C32.0406 27.9231 31.4792 27.9744 31.0708 27.6667C30.6625 27.359 30.6115 26.7949 30.9177 26.3846C31.0198 26.2821 33.2656 23.359 35.9198 23.5128C37.2979 23.5641 38.4719 24.3846 39.3906 25.9231C41.5854 29.4615 40.0542 34.7949 38.5229 38.3333C40.1052 37.2051 42.0958 36.1282 43.9333 35.8205C44.4438 35.7692 44.9031 36.0769 44.9542 36.5897C45.0052 37.1026 44.699 37.5641 44.1885 37.6154C40.6667 38.1795 36.4813 42.2821 36.4302 42.3333C36.3281 42.5385 36.0729 42.5897 35.8688 42.5897Z" fill="#ABD3FF"/>
<path d="M13.8698 35.0513C13.8698 35.5128 13.7677 35.9744 13.5125 36.3333C13.2573 36.6923 12.9 37 12.4406 37.2051C11.9812 37.4103 11.4198 37.5128 10.7562 37.5128C10.2458 37.5128 9.78645 37.4615 9.42916 37.4103C9.07187 37.359 8.71458 37.2051 8.30624 37.0513V35.2051C8.71458 35.4103 9.12291 35.5641 9.58229 35.6667C9.99062 35.7692 10.399 35.8205 10.7562 35.8205C11.0625 35.8205 11.3177 35.7692 11.4708 35.6667C11.624 35.5641 11.675 35.4103 11.675 35.2564C11.675 35.1538 11.624 35.0513 11.5729 35C11.5729 34.8974 11.4708 34.7949 11.3177 34.7436C11.1646 34.641 10.8073 34.4872 10.2458 34.2308C9.73541 34.0256 9.32708 33.7692 9.07187 33.5641C8.81666 33.359 8.61249 33.1026 8.51041 32.8462C8.40833 32.5897 8.30624 32.2308 8.30624 31.8718C8.30624 31.1538 8.56145 30.5897 9.12291 30.2308C9.63333 29.8205 10.399 29.6154 11.3177 29.6154C12.1344 29.6154 13.0021 29.8205 13.8187 30.1795L13.2062 31.7179C12.4406 31.4103 11.8281 31.2051 11.2667 31.2051C11.0115 31.2051 10.8073 31.2564 10.6542 31.359C10.5521 31.4615 10.45 31.6154 10.45 31.7179C10.45 31.8718 10.5521 32.0256 10.7052 32.1282C10.8583 32.2308 11.3177 32.4872 12.0323 32.7949C12.6958 33.1026 13.2062 33.4103 13.4615 33.7692C13.7167 34.1282 13.8698 34.5385 13.8698 35.0513ZM18.3615 37.4103L16.7281 31.8205H16.6771C16.7281 32.7949 16.7792 33.5128 16.7792 34.0256V37.359H14.8906V29.6667H17.749L19.4333 35.1538H19.4844L21.0667 29.6667H23.925V37.4103H21.9344V33.4615C21.9344 33.4615 21.9854 32.7436 21.9854 31.8718H21.9344L20.3521 37.4103H18.3615ZM28.7229 37.4103H26.5792V31.359H24.6396V29.6667H30.6625V31.359H28.7229V37.4103ZM37.349 32.1282C37.349 33 37.0937 33.6667 36.5833 34.1282C36.0729 34.5897 35.3073 34.8462 34.3375 34.8462H33.725V37.4103H31.5812V29.6667H34.3375C35.3583 29.6667 36.124 29.8718 36.5833 30.282C37.0937 30.7436 37.349 31.359 37.349 32.1282ZM33.725 33.1538H34.1333C34.4396 33.1538 34.6948 33.0513 34.899 32.8974C35.1031 32.7436 35.2052 32.4872 35.2052 32.1795C35.2052 31.6667 34.899 31.4103 34.2865 31.4103H33.725V33.1538ZM44.75 32.8974H48.1698V37.0513C47.251 37.359 46.2302 37.5128 45.1073 37.5128C43.8823 37.5128 42.9125 37.1538 42.249 36.4872C41.5854 35.8205 41.2281 34.7949 41.2281 33.5128C41.2281 32.282 41.5854 31.3077 42.351 30.5897C43.0656 29.8718 44.1375 29.5641 45.4135 29.5641C45.924 29.5641 46.3833 29.6154 46.8427 29.7179C47.3021 29.8205 47.6594 29.9231 48.0167 30.0769L47.3021 31.6667C46.7406 31.4103 46.0771 31.2564 45.4135 31.2564C44.801 31.2564 44.2906 31.4615 43.9333 31.8718C43.576 32.282 43.4229 32.8462 43.4229 33.5641C43.4229 34.282 43.576 34.8462 43.8823 35.2051C44.1885 35.5641 44.6479 35.7692 45.2094 35.7692C45.5156 35.7692 45.8219 35.7179 46.0771 35.6667V34.4359H44.75V32.8974ZM56.7958 33.5128C56.7958 34.7949 56.4896 35.8205 55.826 36.4872C55.1625 37.1538 54.1927 37.5128 52.9167 37.5128C51.6917 37.5128 50.7219 37.1538 50.0583 36.4872C49.3948 35.8205 49.0375 34.7949 49.0375 33.5128C49.0375 32.2308 49.3948 31.2564 50.0073 30.5385C50.6198 29.8205 51.6406 29.5128 52.9167 29.5128C54.1927 29.5128 55.1625 29.8718 55.775 30.5385C56.3875 31.2051 56.7958 32.2308 56.7958 33.5128ZM51.3344 33.5128C51.3344 35 51.8958 35.7692 52.9677 35.7692C53.5292 35.7692 53.9375 35.5641 54.1927 35.2051C54.4479 34.8462 54.601 34.282 54.601 33.5128C54.601 32.7436 54.4479 32.1795 54.1927 31.8205C53.9375 31.4615 53.5292 31.2564 53.0187 31.2564C51.8448 31.2564 51.3344 32.0256 51.3344 33.5128Z" fill="#2B2B2B"/>
</g>
<defs>
<clipPath id="clip0_384_5">
<rect width="49" height="20" fill="white" transform="translate(8 23)"/>
</clipPath>
</defs>
</svg>
