<svg width="66" height="66" viewBox="0 0 66 66" fill="none" xmlns="http://www.w3.org/2000/svg">
<circle cx="32.9183" cy="32.9183" r="32.9183" fill="#F5F5F5"/>
<path d="M27.8146 37.6585L32.5 34.9066L13 23.4529V34.7642C14.4615 33.9627 16.3027 33.5463 18.4107 33.5463C23.0003 33.5463 25.9072 35.529 27.8146 37.6585ZM19.2104 53.4457C21.1636 53.4457 22.6367 52.86 22.6367 51.3618C22.6367 49.8305 20.7472 49.2448 18.4099 48.6573C16.6707 48.2051 14.6737 47.7502 13.0009 46.8923V49.7982C14.4087 52.1105 16.746 53.4457 19.2104 53.4457Z" fill="#1CC29F"/>
<path d="M52 46.3603V23.4529L32.5 34.9066L52 46.3603Z" fill="#52595F"/>
<path d="M52 23.4537L32.5 12L13 23.4537L32.5 34.9075L52 23.4537Z" fill="#ACE4D6"/>
<path d="M32.5 34.9066L27.8137 37.6585L22.7917 40.6093C21.5084 39.5705 19.8758 38.8218 18.3785 38.8218C16.5534 38.8218 15.6248 39.4397 15.6248 40.5806C15.6248 41.8997 16.8955 42.5284 18.6552 43.0388C19.0242 43.1454 19.4137 43.2475 19.8194 43.3496C23.6934 44.2934 28.8794 45.4988 28.8794 50.9051C28.8794 52.0406 28.6448 53.1708 28.1308 54.2033H52V46.3594L32.5 34.9066Z" fill="#373B3F"/>
<path d="M19.8194 43.3487C19.4295 43.2524 19.0414 43.1491 18.6552 43.0388C16.8955 42.5284 15.6248 41.8997 15.6248 40.5806C15.6248 39.4406 16.5534 38.8218 18.3785 38.8218C19.8758 38.8218 21.5084 39.5714 22.7916 40.6093L27.8137 37.6585C25.9054 35.529 23.0003 33.5454 18.4107 33.5454C16.3018 33.5454 14.4615 33.9627 13 34.7633V46.8932C14.6737 47.7511 16.6707 48.2051 18.4107 48.6591C20.7481 49.2457 22.6367 49.8314 22.6367 51.3627C22.6367 52.8609 21.1636 53.4466 19.2104 53.4466C16.746 53.4466 14.4087 52.1123 13 49.7991V54.2051H28.1307C28.6448 53.1726 28.8794 52.0415 28.8794 50.906C28.8794 45.4997 23.6934 44.2943 19.8194 43.3505" fill="white"/>
</svg>
