<svg width="66" height="66" viewBox="0 0 66 66" fill="none" xmlns="http://www.w3.org/2000/svg">
<circle cx="32.9183" cy="32.9183" r="32.9183" fill="#F5F5F5"/>
<g clip-path="url(#clip0_4701_25)">
<path d="M33.5 12.6562C22.1837 12.6562 13 21.7699 13 33C13 44.2301 22.1837 53.3438 33.5 53.3438C44.8163 53.3438 54 44.2301 54 33C54 21.7699 44.8163 12.6562 33.5 12.6562Z" fill="#1ED760"/>
<path d="M46.6103 30.9559C46.1804 30.9559 45.9159 30.8492 45.5439 30.6359C39.6584 27.1496 29.1357 26.3129 22.3244 28.1996C22.0268 28.2816 21.6548 28.4129 21.258 28.4129C20.1669 28.4129 19.332 27.568 19.332 26.477C19.332 25.3613 20.0264 24.7297 20.7703 24.5164C23.68 23.6715 26.9369 23.2695 30.483 23.2695C36.5173 23.2695 42.8409 24.5164 47.4617 27.1906C48.1064 27.5598 48.528 28.0684 48.528 29.0445C48.528 30.1602 47.6187 30.9559 46.6103 30.9559ZM44.0478 37.2066C43.6179 37.2066 43.3286 37.018 43.031 36.8621C37.8647 33.827 30.1607 32.6047 23.308 34.4504C22.9113 34.557 22.6963 34.6637 22.3244 34.6637C21.4399 34.6637 20.7207 33.95 20.7207 33.0723C20.7207 32.1945 21.1506 31.6121 22.002 31.3742C24.3 30.7344 26.6476 30.2586 30.0863 30.2586C35.451 30.2586 40.6338 31.5793 44.7173 33.991C45.3869 34.3848 45.6514 34.8934 45.6514 35.607C45.6431 36.493 44.9488 37.2066 44.0478 37.2066ZM41.8242 42.5879C41.477 42.5879 41.2621 42.4812 40.9397 42.2926C35.7816 39.2082 29.7804 39.077 23.8536 40.2828C23.5312 40.3648 23.1097 40.4961 22.8699 40.4961C22.0681 40.4961 21.5639 39.8645 21.5639 39.2C21.5639 38.3551 22.0681 37.9531 22.6881 37.8219C29.458 36.3371 36.3768 36.4684 42.2788 39.9711C42.783 40.291 43.0806 40.5781 43.0806 41.3246C43.0806 42.0711 42.4937 42.5879 41.8242 42.5879Z" fill="black"/>
</g>
<defs>
<clipPath id="clip0_4701_25">
<rect width="41" height="42" fill="white" transform="translate(13 12)"/>
</clipPath>
</defs>
</svg>
