<svg width="66" height="66" viewBox="0 0 66 66" fill="none" xmlns="http://www.w3.org/2000/svg">
<circle cx="32.9183" cy="32.9183" r="32.9183" fill="#F5F5F5"/>
<path d="M32.1869 23.5853C28.3544 23.5853 25.263 26.6765 25.263 30.5092C25.263 33.4288 27.0623 35.9389 29.6097 36.9676L25.4803 51.8397H39.5452L35.571 36.5946C37.7007 35.4109 39.1416 33.1181 39.1416 30.5092C39.1416 26.6766 36.02 23.5853 32.1869 23.5853Z" fill="#142442"/>
<path d="M15.6429 30.5743C15.6429 26.1786 17.3891 21.9628 20.4974 18.8545C23.6057 15.7462 27.8214 14 32.2172 14C36.613 14 40.8288 15.7462 43.9371 18.8545C47.0453 21.9628 48.7916 26.1786 48.7916 30.5743" stroke="#CC4466" stroke-width="7.7781"/>
<path d="M16.2962 31.722H15V35.2456H16.2962V31.722Z" fill="#465B6C" stroke="#CC4466" stroke-width="5.5195"/>
<path d="M46.2284 30.4938H51L48.6142 34.6261L46.2284 30.4938Z" fill="#465B6C" stroke="#CC4466" stroke-width="5.402"/>
</svg>
