<svg width="66" height="66" viewBox="0 0 66 66" fill="none" xmlns="http://www.w3.org/2000/svg">
<defs>
<linearGradient x1="13.6865267%" y1="34.6827437%" x2="86.2710699%" y2="56.5065158%" id="sc-grad-1">
<stop stop-color="#5AF1C8" offset="29%"/>
<stop stop-color="#99FEFF" offset="100%"/>
</linearGradient>
<linearGradient x1="-0.0291628069%" y1="50.0054202%" x2="100.001553%" y2="50.0054202%" id="sc-grad-2">
<stop stop-color="#FF3180" offset="63%"/>
<stop stop-color="#FF9AB2" offset="100%"/>
</linearGradient>
</defs>
<circle cx="33" cy="33" r="33" fill="#F5F5F5"/>
<g transform="translate(17.4, 8.2) scale(0.2)" fill-rule="nonzero">
<path d="M81,99.1125 L110.0475,108.72 L145.2375,18.495 C147.012591,12.9328495 145.074521,6.85651026 140.406737,3.34933738 C135.738953,-0.157835492 129.363294,-0.328076832 124.515,2.925 L6.3,98.685 C1.95895355,101.613119 -0.337771582,106.756132 0.37931696,111.943073 C1.0964055,117.130013 4.70234567,121.456989 9.675,123.0975 L53.955,137.7225 L63.6525,108 C64.7559255,104.5082 67.2111289,101.60336 70.4702969,99.9336175 C73.7294648,98.2638752 77.5213882,97.9681769 81,99.1125 L81,99.1125 Z" fill="url(#sc-grad-1)"/>
<path d="M152.6625,122.7825 L110.07,108.72 L98.685,137.97 C97.5771974,141.462947 95.1164856,144.366647 91.8525776,146.032424 C88.5886696,147.698201 84.7935381,147.98725 81.315,146.835 L53.955,137.835 L22.95,232.7175 C21.1636286,238.286611 23.1026481,244.375965 27.7803098,247.886748 C32.4579714,251.397531 38.8465668,251.558404 43.695,248.2875 L156.0375,147.195 C160.378546,144.266881 162.675272,139.123868 161.958183,133.936927 C161.241094,128.749987 157.635154,124.423011 152.6625,122.7825 Z" fill="url(#sc-grad-2)"/>
<path d="M98.685,137.9025 L110.07,108.6525 L81,99.1125 C77.5244281,97.9593126 73.7318746,98.2452558 70.4685019,99.9065323 C67.2051292,101.567809 64.7424801,104.466185 63.63,107.955 L54,137.7225 L81.36,146.7225 C84.8268199,147.862683 88.6052487,147.572778 91.8575494,145.917061 C95.1098501,144.261345 97.5672842,141.376629 98.685,137.9025 Z" fill="#FFFFFF" style="mix-blend-mode: lighten;"/>
<polygon fill="#251F4C" points="53.8875 137.7225 78.8625 146.0475 52.605 141.8175"/>
</g>
</svg>
