<svg width="66" height="66" viewBox="0 0 66 66" fill="none" xmlns="http://www.w3.org/2000/svg">
<circle cx="32.9183" cy="32.9183" r="32.9183" fill="#F5F5F5"/>
<g clip-path="url(#clip0_399_2)">
<path d="M32.9418 10.1378C34.4494 10.1378 35.6715 11.3393 35.6715 12.8213L35.6713 27.9037L48.8376 20.3586C50.1352 19.6151 51.7888 20.0464 52.5305 21.3222C53.2723 22.5981 52.8223 24.2349 51.5249 24.9785L38.3275 32.5411L51.5249 40.1044C52.8223 40.848 53.2723 42.4848 52.5305 43.7606C51.7888 45.0365 50.1352 45.4679 48.8376 44.7243L35.6713 37.1789L35.6715 52.1789C35.6715 53.6609 34.4494 54.8623 32.9418 54.8623C31.4344 54.8623 30.2123 53.6609 30.2123 52.1789V37.1917L17.069 44.7243C15.7715 45.4679 14.1179 45.0365 13.3761 43.7606C12.6343 42.4848 13.0843 40.848 14.3818 40.1044L27.5787 32.5414L14.3818 24.9785C13.0843 24.2349 12.6343 22.5981 13.3761 21.3222C14.1179 20.0464 15.7715 19.6151 17.069 20.3586L30.2123 27.8907V12.8213C30.2123 11.3393 31.4344 10.1378 32.9418 10.1378Z" fill="#0F1F31"/>
</g>
<defs>
<clipPath id="clip0_399_2">
<rect width="40" height="45" fill="white" transform="translate(13 10)"/>
</clipPath>
</defs>
</svg>
