<svg width="66" height="66" viewBox="0 0 66 66" fill="none" xmlns="http://www.w3.org/2000/svg">
<circle cx="32.9183" cy="32.9183" r="32.9183" fill="#F5F5F5"/>
<g clip-path="url(#clip0_309_205)">
<mask id="mask0_309_205" style="mask-type:luminance" maskUnits="userSpaceOnUse" x="10" y="10" width="46" height="46">
<path d="M56 10H10V56H56V10Z" fill="white"/>
</mask>
<g mask="url(#mask0_309_205)">
<mask id="mask1_309_205" style="mask-type:luminance" maskUnits="userSpaceOnUse" x="-41" y="-40" width="148" height="148">
<path d="M-40.9149 -39.8146H106.285V107.385H-40.9149V-39.8146Z" fill="white"/>
</mask>
<g mask="url(#mask1_309_205)">
<mask id="mask2_309_205" style="mask-type:luminance" maskUnits="userSpaceOnUse" x="29" y="29" width="21" height="28">
<path d="M29.7949 29.4232H49.8049V56.0572H29.7949V29.4232Z" fill="white"/>
</mask>
<g mask="url(#mask2_309_205)">
<mask id="mask3_309_205" style="mask-type:alpha" maskUnits="userSpaceOnUse" x="32" y="36" width="16" height="14">
<path d="M39.79 36.3518L32.2682 49.3798H47.3118L39.79 36.3518Z" fill="black"/>
</mask>
<g mask="url(#mask3_309_205)">
<mask id="mask4_309_205" style="mask-type:luminance" maskUnits="userSpaceOnUse" x="29" y="29" width="21" height="28">
<path d="M29.7949 29.4232H49.8049V56.0572H29.7949V29.4232Z" fill="white"/>
</mask>
<g mask="url(#mask4_309_205)">
<path d="M49.7404 29.4324V59.4402H29.8396V29.4324H49.7404Z" fill="#FFDE3B"/>
</g>
</g>
</g>
<path d="M34.0615 17.3952C34.1046 17.3639 34.151 17.352 34.2006 17.3599L48.6356 19.6462C48.6853 19.654 48.7259 19.6796 48.7572 19.7227C48.7885 19.7658 48.8002 19.8122 48.7923 19.8619L48.3225 22.8283C48.3146 22.878 48.2892 22.9185 48.2461 22.9498C48.2029 22.9812 48.1565 22.9928 48.1068 22.985L46.6546 22.7549C45.9347 22.6409 45.2638 22.7 44.6417 22.9323C44.0197 23.1646 43.4999 23.5404 43.0828 24.0596C42.6654 24.5788 42.3998 25.1982 42.2858 25.9181L40.6679 36.133C40.6626 36.1661 40.6493 36.1959 40.6283 36.2222C40.607 36.2486 40.5807 36.2676 40.5493 36.2796C40.5175 36.2917 40.4852 36.2949 40.4522 36.2897L36.828 35.7157C36.7949 35.7104 36.7651 35.6973 36.7388 35.6761C36.7124 35.6549 36.6933 35.6287 36.6814 35.5971C36.6693 35.5655 36.6661 35.5332 36.6714 35.5L38.2892 25.2851C38.4033 24.5653 38.3441 23.8943 38.1118 23.2723C37.8795 22.6503 37.5035 22.1326 36.9836 21.7194C36.4638 21.3062 35.844 21.0427 35.1241 20.9287L33.6718 20.6987C33.6222 20.6908 33.5817 20.6654 33.5504 20.6222C33.5191 20.5791 33.5075 20.5328 33.5153 20.4831L33.9851 17.5167C33.993 17.467 34.0184 17.4265 34.0615 17.3952Z" fill="black"/>
<mask id="mask5_309_205" style="mask-type:luminance" maskUnits="userSpaceOnUse" x="14" y="9" width="22" height="43">
<path d="M14.0629 9.68924H35.1769V51.5032H14.0629V9.68924Z" fill="white"/>
</mask>
<g mask="url(#mask5_309_205)">
<mask id="mask6_309_205" style="mask-type:alpha" maskUnits="userSpaceOnUse" x="17" y="31" width="16" height="19">
<path d="M21.6541 48.9089C20.657 48.49 19.832 47.9035 19.1785 47.1496C18.5251 46.3956 18.018 45.4951 17.6579 44.4477C17.6411 44.4059 17.6369 44.3703 17.6454 44.3409C17.6537 44.3116 17.6683 44.2866 17.6893 44.2656C17.7102 44.2448 17.7416 44.23 17.7836 44.2216L21.0509 43.2413C21.0843 43.233 21.1178 43.2288 21.1515 43.2288C21.1848 43.2288 21.2163 43.2395 21.2457 43.2603C21.275 43.2812 21.2938 43.3126 21.3023 43.3544C21.587 44.251 22.0729 44.9629 22.76 45.4908C23.4468 46.0185 24.2721 46.2825 25.2356 46.2825C25.8303 46.2825 26.3707 46.2029 26.8567 46.0437C27.3424 45.8846 27.73 45.6396 28.019 45.3085C28.3081 44.9777 28.4526 44.5818 28.4526 44.121C28.4526 43.6686 28.3121 43.3001 28.0315 43.0152C27.7507 42.7304 27.3424 42.5209 26.8063 42.3868L22.5087 41.3438C21.5366 41.1094 20.7157 40.747 20.0456 40.2568C19.3752 39.7667 18.8747 39.1887 18.5439 38.5226C18.2128 37.8566 18.0475 37.1465 18.0475 36.3925C18.0475 35.3454 18.3511 34.4176 18.9586 33.6091C19.5659 32.8008 20.3953 32.1724 21.4468 31.7242C22.498 31.2761 23.6689 31.0518 24.9591 31.0518C26.1571 31.0518 27.24 31.2446 28.2075 31.63C29.1751 32.0153 29.9877 32.5536 30.6454 33.2447C31.3031 33.9358 31.7909 34.7382 32.1094 35.6512C32.1262 35.6932 32.1302 35.7287 32.1221 35.758C32.1136 35.7875 32.0968 35.8145 32.0717 35.8397C32.0466 35.8649 32.0171 35.8817 31.9838 35.8899L28.8547 36.9455C28.8211 36.9624 28.7876 36.9665 28.7542 36.958C28.7205 36.9499 28.6914 36.9352 28.6662 36.9141C28.6411 36.8933 28.6242 36.866 28.616 36.8324C28.4652 36.3885 28.2409 35.9738 27.9437 35.5883C27.6462 35.2031 27.2503 34.889 26.7561 34.6459C26.2617 34.403 25.6795 34.2814 25.0093 34.2814C24.4646 34.2814 23.9726 34.3674 23.5327 34.539C23.0929 34.7109 22.7473 34.9455 22.496 35.2427C22.2448 35.5402 22.119 35.8733 22.119 36.2417C22.119 36.6608 22.2719 37.0105 22.5777 37.2911C22.8835 37.5719 23.2709 37.7708 23.7401 37.8881L27.975 38.8933C28.8966 39.1113 29.6946 39.438 30.369 39.8735C31.0433 40.3092 31.5691 40.86 31.946 41.526C32.3231 42.1921 32.5115 42.9607 32.5115 43.832C32.5115 44.9881 32.1889 45.9977 31.544 46.8605C30.8987 47.7235 30.0172 48.3854 28.8987 48.8461C27.7802 49.3066 26.5299 49.5371 25.1476 49.5371C23.8156 49.5371 22.651 49.3276 21.6541 48.9089Z" fill="black"/>
</mask>
<g mask="url(#mask6_309_205)">
<mask id="mask7_309_205" style="mask-type:luminance" maskUnits="userSpaceOnUse" x="14" y="9" width="22" height="43">
<path d="M14.0629 9.68925H35.1769V51.5033H14.0629V9.68925Z" fill="white"/>
</mask>
<g mask="url(#mask7_309_205)">
<path d="M35.1155 1.68735V51.4549H14.169V1.68735H35.1155Z" fill="black"/>
</g>
</g>
</g>
</g>
</g>
</g>
<defs>
<clipPath id="clip0_309_205">
<rect width="46" height="46" fill="white" transform="translate(10 10)"/>
</clipPath>
</defs>
</svg>
