<svg width="66" height="66" viewBox="0 0 66 66" fill="none" xmlns="http://www.w3.org/2000/svg">
<circle cx="32.9183" cy="32.9183" r="32.9183" fill="#F5F5F5"/>
<path d="M52.4565 23.6517H50.5093C50.444 25.0457 49.9558 26.0485 49.3189 26.6287C50.1228 28.6806 50.5275 30.8012 50.4585 33.0922C50.2172 40.4511 44.5517 48.2048 35.4003 48.2048C30.5442 48.2048 26.9946 46.2307 24.6265 43.5986L23.5286 42.4808V44.6514C23.5286 45.3762 22.9933 45.5467 22.6485 45.5467C22.1041 45.5467 21.7466 45.0703 21.7466 44.6514V41.0609C21.7466 40.1212 22.2002 39.6615 22.9751 39.6615H27.6388C28.274 39.6615 28.5643 40.1916 28.5643 40.5215C28.5643 41.0443 28.1615 41.4576 27.6715 41.4576H24.9604L25.9911 42.5105C28.3103 44.8776 31.4025 46.2659 35.4366 46.2659C42.2761 46.2659 48.5458 40.1675 48.6094 32.8142C48.6311 30.9587 48.1811 29.0995 47.7546 27.6834L47.7492 27.3145C46.6985 27.296 45.7403 27.2774 44.7876 27.1755C42.5156 26.9883 41.0675 25.9651 40.9677 24.2041C40.9459 23.8186 40.7536 23.6517 40.3779 23.6517H23.8062C26.3413 20.4876 29.7675 18.317 34.2461 18.317C38.5778 18.317 42.0674 20.4876 44.6207 23.4627L44.6697 23.6517H43.4266C42.7842 23.6517 42.4884 24.18 42.4884 24.6527C42.4884 25.27 42.9911 25.6537 43.5899 25.7371C44.8421 25.9095 45.822 25.941 47.232 25.941C48.4478 25.941 48.7799 24.3932 48.7799 23.7908V20.8824C48.7799 20.1021 48.2537 19.7777 47.8308 19.7777C47.2139 19.7777 46.8201 20.1947 46.8201 20.901V22.6434L46.1668 21.8259C43.1744 18.1706 39.104 16 33.9921 16H33.5928C28.1833 16 23.2292 19.1641 20.7031 23.6517H13.5333C11.9346 23.6517 11 25.3293 11 26.5063V46.0435C11 47.6376 12.2158 49 13.6349 49H52.451C53.8701 49 55.086 47.4708 54.9952 46.1362V26.4878C54.9952 24.9956 53.7068 23.6332 52.451 23.6332L52.4565 23.6517Z" fill="#086C37"/>
<path d="M16.6309 31.5174V32.1534H20.6446V30.207H17.8712C17.1323 30.207 16.6309 30.7562 16.6309 31.5174Z" fill="#D6A62E"/>
<path d="M20.7212 33.2344H16.6309V35.2694H20.6446V33.2344H20.7212Z" fill="#D6A62E"/>
<path d="M20.6446 36.2734H16.6309V37.1252C16.6309 37.9751 17.2434 38.4279 17.8712 38.4279H20.6446V36.2734Z" fill="#D6A62E"/>
<path d="M21.6973 30.207V32.2401H25.5464V31.5174C25.5464 30.8237 25.0488 30.207 24.377 30.207H21.6973Z" fill="#D6A62E"/>
<path d="M21.6973 33.3008V35.3358H25.5464V33.3008H21.6973Z" fill="#D6A62E"/>
<path d="M21.6973 36.2734V38.4279H24.3061C25.0488 38.4279 25.4986 37.7438 25.4986 37.2216V36.2734H21.6973Z" fill="#D6A62E"/>
</svg>
