<svg width="66" height="66" viewBox="0 0 66 66" fill="none" xmlns="http://www.w3.org/2000/svg">
<circle cx="32.9183" cy="32.9183" r="32.9183" fill="#F5F5F5"/>
<g clip-path="url(#clip0_2624_41)">
<path d="M37.054 57.7979C35.7948 59.3913 33.2416 58.5183 33.2112 56.4838L32.7676 26.7266H52.6808C56.2877 26.7266 58.2993 30.9124 56.0565 33.7508L37.054 57.7979Z" fill="url(#paint0_linear_2624_41)"/>
<path d="M37.054 57.7979C35.7948 59.3913 33.2416 58.5183 33.2112 56.4838L32.7676 26.7266H52.6808C56.2877 26.7266 58.2993 30.9124 56.0565 33.7508L37.054 57.7979Z" fill="url(#paint1_linear_2624_41)" fill-opacity="0.2"/>
<path d="M28.957 9.91669C30.2162 8.32315 32.7694 9.1963 32.7998 11.2308L32.9942 40.988H13.3302C9.72323 40.988 7.71158 36.8021 9.95447 33.9638L28.957 9.91669Z" fill="#3ECF8E"/>
</g>
<defs>
<linearGradient id="paint0_linear_2624_41" x1="32.7676" y1="33.3245" x2="50.491" y2="40.7222" gradientUnits="userSpaceOnUse">
<stop stop-color="#249361"/>
<stop offset="1" stop-color="#3ECF8E"/>
</linearGradient>
<linearGradient id="paint1_linear_2624_41" x1="24.9211" y1="22.5298" x2="33.0528" y2="37.7642" gradientUnits="userSpaceOnUse">
<stop/>
<stop offset="1" stop-opacity="0"/>
</linearGradient>
<clipPath id="clip0_2624_41">
<rect width="48" height="50" fill="white" transform="translate(9 9)"/>
</clipPath>
</defs>
</svg>
