<svg width="66" height="66" viewBox="0 0 66 66" fill="none" xmlns="http://www.w3.org/2000/svg">
<path d="M32.9183 65.8366C51.0986 65.8366 65.8366 51.0986 65.8366 32.9183C65.8366 14.738 51.0986 0 32.9183 0C14.738 0 0 14.738 0 32.9183C0 51.0986 14.738 65.8366 32.9183 65.8366Z" fill="#F5F5F5"/>
<mask id="mask0_282_16" style="mask-type:luminance" maskUnits="userSpaceOnUse" x="13" y="17" width="40" height="33">
<path d="M52.9999 17H13V49.7564H52.9999V17Z" fill="white"/>
</mask>
<g mask="url(#mask0_282_16)">
<path d="M50.6958 35.1436L52.7059 32.0886C53.2562 31.249 53.0231 30.1203 52.1834 29.5653L50.6537 28.5625C49.5203 27.8162 48.2611 27.2892 46.9364 27L47.0251 23.5019C47.0483 22.5597 46.3487 21.7528 45.4113 21.6455C45.3505 21.6409 45.0193 21.6036 44.5436 21.6036C43.886 21.6036 43.0185 21.6735 42.1742 21.944C41.2136 20.4888 39.8982 19.2575 38.3683 18.3993C36.7639 17.4851 34.9029 16.9954 32.9952 16.9954C31.1855 16.9954 29.4178 17.4385 27.874 18.2733C26.2182 19.1502 24.8376 20.4282 23.8301 21.944C22.9906 21.6735 22.1231 21.6036 21.4654 21.6036C20.9897 21.6036 20.6585 21.6362 20.5979 21.6455C19.6604 21.7528 18.9608 22.555 18.9841 23.5019L19.0727 26.9953C17.7481 27.2845 16.4841 27.8115 15.3507 28.5578L13.8209 29.5606C12.9813 30.111 12.7481 31.2397 13.2985 32.0839L15.3087 35.1389C15.4953 35.4188 15.7518 35.6427 16.0503 35.7826C14.6977 37.6296 13.9001 39.9011 13.9001 42.3451V45.9597C13.9001 46.9672 14.7164 47.7788 15.7192 47.7788H19.3759C19.805 47.7788 20.4906 47.5877 20.8871 46.9765C20.929 47.0606 20.9757 47.1397 21.0223 47.2238L21.9178 48.819C22.1557 49.2386 22.5475 49.5512 23.0139 49.6819C23.1772 49.7283 23.3404 49.7518 23.5037 49.7518C23.8115 49.7518 24.1193 49.6723 24.3945 49.5187L27.5848 47.7274C28.4616 47.2331 28.7742 46.1278 28.2798 45.2508L27.5521 43.9542C28.998 45.2743 30.915 46.053 33.0045 46.053C35.0941 46.053 36.9644 45.2928 38.401 44.0009L37.6967 45.2508C37.6221 45.3862 37.5614 45.5306 37.5241 45.6799C37.4402 45.9971 37.2676 47.098 38.5316 47.8069L38.8907 48.0072L39.9868 48.6231L41.5818 49.5187C41.8619 49.6773 42.1695 49.7518 42.4728 49.7518C43.1118 49.7518 43.7274 49.416 44.0631 48.8237L45.1081 46.9626C45.4345 47.4569 45.9941 47.7834 46.6285 47.7834H50.2852C50.915 47.7834 52.1043 47.3685 52.1043 45.806V44.1548V42.3451C52.1043 39.9057 51.3067 37.6296 49.9541 35.7826C50.2478 35.6427 50.5044 35.4281 50.6958 35.1389V35.1436Z" fill="#AC6DFF"/>
<path d="M41.7219 33.0727C46.512 33.4552 50.2806 37.457 50.2806 42.3451V45.9597H46.6239V42.3451C46.6239 39.4579 44.4552 37.0792 41.6613 36.7341C42.706 37.6296 43.5549 38.8049 44.0678 40.2742C44.7396 42.1865 44.5111 44.2994 43.5175 46.0669L42.4729 47.928L39.2825 46.1417L40.178 44.5465C41.1528 42.8115 40.6912 40.5727 39.1053 39.36C38.4709 42.1492 35.9849 44.2294 33.0045 44.2294C30.0241 44.2294 27.5241 42.1398 26.8992 39.3413C25.29 40.5494 24.8236 42.8022 25.8031 44.5465L26.6986 46.1417L23.5083 47.9327L22.6128 46.3374C20.8264 43.1566 21.5727 39.1035 24.3152 36.7387C21.5354 37.0932 19.3805 39.4626 19.3805 42.3451V45.9597H15.7238V42.3451C15.7238 37.457 19.4971 33.4505 24.2872 33.068C24.8562 34.0382 25.5792 34.9057 26.4234 35.6333C26.6146 35.7966 26.8758 35.8059 27.0764 35.68C27.123 35.652 27.1697 35.6147 27.2023 35.568C27.207 35.5587 27.2163 35.5587 27.221 35.5494C27.3936 35.3208 27.3702 34.9943 27.151 34.8078C25.0521 33.0121 23.7788 30.2835 24.0074 27.2612C24.3339 22.9888 27.7107 19.4767 31.9691 19.0009C37.3982 18.3946 42.0156 22.6483 42.0156 27.9608C42.0156 30.694 40.7843 33.1427 38.8581 34.7985C38.6388 34.985 38.6109 35.3115 38.7834 35.54C38.7928 35.5494 38.8068 35.554 38.8114 35.568C38.8394 35.6054 38.8767 35.6333 38.914 35.6566C39.1146 35.7919 39.3898 35.7872 39.5857 35.6193C40.43 34.8917 41.1481 34.0288 41.7173 33.0634L41.7219 33.0727ZM21.0037 27.4057C21.2882 27.4057 22.1417 27.4431 22.8973 27.8022C22.902 27.4291 22.9253 27.0513 22.9719 26.6688C23.0932 25.6893 23.3684 24.7565 23.7555 23.8843C23.0186 23.5065 22.0857 23.4272 21.4654 23.4272C21.069 23.4272 20.8031 23.4552 20.8031 23.4552L20.9011 27.4057C20.9011 27.4057 20.9383 27.4057 20.999 27.4057H21.0037ZM21.4514 32.2192C22.4215 32.2192 23.3684 32.471 24.2079 32.9514C23.485 31.6781 23.0279 30.2369 22.916 28.693C22.4262 28.5998 22.0111 28.5578 21.5447 28.5578C21.5307 28.5578 21.512 28.5578 21.4934 28.5578C21.3208 28.5578 21.1342 28.5671 20.9383 28.5765C19.3012 28.6651 17.7107 29.1874 16.3488 30.083L14.819 31.0858L16.8292 34.1408L18.3591 33.138C19.1846 32.597 20.1454 32.2798 21.1389 32.2285C21.2415 32.2238 21.3488 32.2192 21.4514 32.2192ZM45.0055 27.4057C45.0707 27.4057 45.1035 27.4057 45.1035 27.4057L45.2012 23.4552C45.2012 23.4552 44.9356 23.4272 44.539 23.4272C43.9188 23.4272 42.9765 23.5065 42.2441 23.8843C42.7759 25.0877 43.0838 26.4123 43.1023 27.8022C43.8628 27.4384 44.7161 27.4011 45.0055 27.4011V27.4057ZM49.1705 34.1408L51.1809 31.0858L49.6509 30.083C48.2844 29.1874 46.6984 28.6651 45.0614 28.5765C44.9028 28.5671 44.7535 28.5625 44.6042 28.5625C44.5671 28.5625 44.5343 28.5625 44.5016 28.5625C44.3665 28.5625 44.2357 28.5718 44.1052 28.5811C44.0678 28.5811 44.0261 28.5811 43.984 28.5858C43.8301 28.5998 43.6761 28.6184 43.5222 28.6418C43.5082 28.6418 43.4943 28.6418 43.4801 28.6464C43.3496 28.6651 43.2142 28.693 43.0791 28.7211C42.9672 30.2462 42.51 31.6828 41.7918 32.9468C42.6361 32.4664 43.5781 32.2145 44.5483 32.2145C44.6509 32.2145 44.7582 32.2145 44.8608 32.2238C45.8544 32.2798 46.815 32.5923 47.6407 33.1333L49.1705 34.1361V34.1408Z" fill="#242424"/>
<path d="M37.0763 37.8348C37.0763 38.6651 36.4047 39.3367 35.5745 39.3367C34.7442 39.3367 34.0726 38.6651 34.0726 37.8348C34.0726 37.5457 34.1566 37.2751 34.3012 37.0466C34.9914 36.93 35.6631 36.7574 36.3114 36.5382C36.7638 36.7947 37.0717 37.2798 37.0717 37.8348H37.0763Z" fill="#AC6DFF"/>
<path d="M28.9141 37.8348C28.9141 38.6651 29.5857 39.3367 30.4159 39.3367C31.2462 39.3367 31.9178 38.6651 31.9178 37.8348C31.9178 37.5457 31.8338 37.2751 31.6892 37.0466C30.999 36.93 30.3273 36.7574 29.679 36.5382C29.2266 36.7947 28.9187 37.2798 28.9187 37.8348H28.9141Z" fill="#AC6DFF"/>
<path d="M30.4066 31.7528C29.0774 31.0252 28.0326 29.9152 27.3936 28.5439L27.3516 28.4506C27.207 28.1381 27.207 27.779 27.3516 27.4711L27.4216 27.3219C28.0419 26.0159 29.0354 24.9478 30.2854 24.2342L30.388 24.1782L31.5307 26.1745L31.4281 26.2305C30.7005 26.6502 30.1034 27.2426 29.6837 27.9655C30.1174 28.7118 30.7424 29.3181 31.512 29.7379L30.4066 31.7575V31.7528Z" fill="#AC6DFF"/>
<path d="M35.5697 31.7435L34.427 29.7472L34.5296 29.6912C35.2572 29.2715 35.8542 28.6791 36.274 27.9561C35.8402 27.2099 35.2153 26.6036 34.4456 26.1838L35.5511 24.1642C36.8803 24.8918 37.9251 26.0019 38.5641 27.3731L38.6108 27.4711C38.7553 27.7836 38.7553 28.1427 38.6108 28.4506L38.5408 28.5951C37.9204 29.8964 36.9317 30.9646 35.677 31.6828L35.5744 31.7388L35.5697 31.7435Z" fill="#AC6DFF"/>
</g>
</svg>
