<svg width="66" height="66" viewBox="0 0 66 66" fill="none" xmlns="http://www.w3.org/2000/svg">
<circle cx="32.9183" cy="32.9183" r="32.9183" fill="#F5F5F5"/>
<path d="M27.4392 16.6814H18.6814C16.6663 16.6814 15 18.3477 15 20.4015V35.592C15 37.6458 16.6663 39.3121 18.6814 39.3121H27.4392C29.493 39.3121 31.1593 37.6458 31.1593 35.592V20.4015C31.1593 18.3477 29.493 16.6814 27.4392 16.6814Z" fill="#7D7DFF"/>
<path d="M18.6814 42.9935H31.1593V49C31.1593 51.0151 29.493 52.6814 27.4392 52.6814H18.6814C16.6663 52.6814 15 51.0151 15 49V46.6749C15 44.6598 16.6663 42.9935 18.6814 42.9935Z" fill="#1F4FFF"/>
<path d="M38.5221 13H47.2799C49.3337 13 51 14.6663 51 16.6814V19.0065C51 21.0215 49.3337 22.6878 47.2799 22.6878H34.8407V16.6814C34.8407 14.6663 36.507 13 38.5221 13Z" fill="#25F278"/>
<path d="M47.2799 26.3692H38.5221C36.507 26.3692 34.8407 28.0355 34.8407 30.0893V45.2799C34.8407 47.3337 36.507 49 38.5221 49H47.2799C49.3337 49 51 47.3337 51 45.2799V30.0893C51 28.0355 49.3337 26.3692 47.2799 26.3692Z" fill="#7D7DFF"/>
</svg>
