<svg width="66" height="66" viewBox="0 0 66 66" fill="none" xmlns="http://www.w3.org/2000/svg">
<circle cx="32.9183" cy="32.9183" r="32.9183" fill="#F5F5F5"/>
<path fill-rule="evenodd" clip-rule="evenodd" d="M34.4494 26.7794C34.3383 26.7117 34.1996 26.6272 34.0442 26.5369C33.4391 26.1873 32.5897 25.7193 32.1123 25.5219C31.8736 24.1349 31.7793 22.7648 31.9182 21.7273C32.2234 19.393 33.1948 17.1433 34.7824 15.5081C36.32 13.9237 38.0908 13.1344 39.7617 13.016C40.9441 12.9314 42.0764 13.1851 43.0589 13.7264C44.0415 14.2733 44.8631 15.1134 45.407 16.196C45.9288 17.2391 46.1954 18.5078 46.1065 19.9512V19.8328C45.6236 19.6749 45.1018 19.5622 44.5522 19.5001L44.4689 19.4889C44.4801 18.5078 44.2802 17.662 43.936 16.9572C43.5474 16.1791 42.9646 15.5814 42.2707 15.198C41.5713 14.809 40.7442 14.6285 39.8783 14.6906C38.5848 14.7808 37.1971 15.4123 35.9593 16.6866C35.0434 17.6282 34.3773 18.8179 33.9609 20.1204C33.8222 20.5545 33.6833 21.0958 33.6001 21.6766C33.4446 22.7141 33.2281 24.383 33.983 25.1837C34.1996 25.4148 34.516 25.6179 34.9601 25.7644C35.3042 25.1555 35.7039 24.5804 36.148 24.0391C37.5856 22.2968 39.523 20.9718 41.649 20.4756C43.714 19.9907 45.557 20.2782 46.9836 21.062C47.9938 21.6202 48.7987 22.4264 49.3206 23.385C49.8424 24.3491 50.0811 25.4657 49.9755 26.6384C49.8312 28.2058 49.054 29.8692 47.4943 31.3747C46.0288 32.7899 44.2914 33.6694 42.4372 34.1544C40.7275 34.5999 38.9845 34.6563 37.2359 34.6563C36.9418 34.6563 36.9528 34.6563 36.8141 34.645L36.7974 34.5886C36.1424 32.1472 34.6491 30.0158 32.4677 28.7189C31.4074 28.0874 30.2529 27.6758 29.076 27.4729C27.8436 27.2585 26.578 27.2698 25.3513 27.4898C25.107 27.5349 24.8906 27.58 24.7019 27.6251C22.1428 28.2509 19.9391 29.8128 18.4847 31.8821C17.047 33.9345 16.3531 36.4943 16.8083 39.1331C16.8471 39.3587 16.886 39.5559 16.9248 39.7195C17.0747 40.3454 17.2912 40.9318 17.5743 41.4731C17.863 42.0256 18.2182 42.533 18.6289 42.9785C19.1896 43.5931 19.8168 44.0554 20.4831 44.4389C21.1657 44.8279 21.9374 45.1662 22.7533 45.5101C23.303 45.747 23.8525 45.9951 24.3576 46.2939C24.896 46.6154 25.3957 46.9931 25.8231 47.478C26.3449 48.0701 26.6224 48.7578 26.5114 49.5529C26.4948 49.6544 26.4782 49.7503 26.4503 49.8518C27.0221 49.6883 27.5717 49.5022 28.0935 49.3048C29.2591 48.8594 30.3083 48.3294 31.2354 47.7317C32.3566 47.0157 33.3114 46.1925 34.0996 45.3072C34.9324 44.3769 35.5873 43.3732 36.0703 42.3358C37.0861 40.1593 37.3636 37.8137 37.0084 35.6486C37.569 35.6881 38.1297 35.6993 38.6848 35.6937C39.0178 38.0957 38.6737 40.6667 37.569 43.0574C37.0139 44.2472 36.2701 45.3917 35.3265 46.4461C34.4383 47.4385 33.3725 48.352 32.1179 49.1583C31.0965 49.8122 29.9475 50.3931 28.6763 50.8836C27.4662 51.3459 26.1451 51.7237 24.6963 52L24.0024 50.5396C24.563 50.0492 24.8239 49.6487 24.8683 49.3218C24.9016 49.0793 24.785 48.8368 24.5796 48.6C24.2855 48.2674 23.9191 47.9911 23.5194 47.7543C23.0809 47.4949 22.6035 47.275 22.1205 47.0721C21.2768 46.7112 20.4719 46.3616 19.6726 45.9049C18.8622 45.4426 18.1072 44.8843 17.4189 44.1288C16.9026 43.5649 16.4641 42.9448 16.1088 42.2681C15.7591 41.6027 15.4927 40.8867 15.3095 40.1142C15.2484 39.8548 15.1985 39.6293 15.1652 39.4263C14.6267 36.3252 15.4372 33.32 17.1247 30.9123C18.8011 28.5216 21.349 26.7173 24.3022 25.9956C24.5742 25.9279 24.8239 25.8772 25.046 25.8377C26.4559 25.584 27.9102 25.5728 29.3368 25.8208C30.7024 26.0576 32.0402 26.5369 33.2892 27.2811C35.4875 28.5893 37.0916 30.6135 37.9909 32.9647C39.362 32.9985 40.7275 32.8801 42.0154 32.5418C43.603 32.1246 45.0906 31.3747 46.3396 30.1681C47.5886 28.9614 48.2048 27.6758 48.3158 26.4862C48.3935 25.6629 48.2269 24.8793 47.8551 24.2026C47.4887 23.526 46.9169 22.9508 46.1898 22.5505C45.0962 21.9529 43.653 21.7386 42.0098 22.122C40.2447 22.5335 38.6293 23.6501 37.4081 25.1273C36.7308 25.9505 36.1757 26.8808 35.7927 27.8562C35.3708 27.4672 34.9212 27.1064 34.4438 26.7794H34.4494ZM27.2664 48.6169C29.1758 47.0834 30.9578 45.3185 32.4454 43.3563C33.3669 42.1384 34.1829 40.8415 34.8213 39.4884C35.4652 38.1408 35.9315 36.7424 36.1646 35.3272L36.1536 35.2595L36.048 34.8592L36.0314 34.8028L36.0147 34.7521L35.998 34.7013L35.9814 34.6506L35.9649 34.5999L35.9482 34.549L35.9315 34.4983L35.9149 34.4476L35.8982 34.3968L35.8816 34.3461L35.8649 34.2954L35.8482 34.2446L35.8316 34.1939V34.1826L35.8149 34.1374V34.1262L35.7983 34.0867V34.0755L35.7816 34.036V34.0248L35.7649 33.9852V33.9739L35.7483 33.9345V33.9232L35.7316 33.8838V33.8725L35.715 33.833V33.8217L35.6928 33.7823V33.771L35.6706 33.7371V33.7203L35.6483 33.6864V33.6694L35.6262 33.6356L35.6039 33.5849V33.568L35.5818 33.5342V33.5172L35.5596 33.4834V33.4665L35.5373 33.4327V33.4158L35.5152 33.382L35.5041 33.365L35.4929 33.3368L35.4819 33.3143L35.4708 33.2861L35.4596 33.2636L35.4485 33.2353L35.4375 33.2127L35.4263 33.1846L35.4152 33.162L35.4042 33.1339L35.3931 33.1113L35.3819 33.083L35.3708 33.0605L35.3598 33.0323L35.3486 33.0098L35.3375 32.9872L35.3265 32.9647L35.3153 32.9421L35.3042 32.9195L35.2931 32.897L35.2821 32.8745L35.2709 32.852L35.2598 32.8237L35.2488 32.8011L35.2321 32.773L35.2209 32.7504L35.2042 32.7223L35.1932 32.6997L35.1765 32.6715L35.1655 32.6489L35.1488 32.6208L35.1377 32.6038L35.1211 32.5756L35.1099 32.5588L35.0932 32.5305L35.0822 32.5136L35.0655 32.4854L35.0544 32.4685L35.0378 32.4404L35.0267 32.4234L35.0101 32.3953L34.9989 32.3783L34.9822 32.3444L34.9711 32.3276L34.949 32.2937L34.9378 32.2824L34.9157 32.2486V32.2373L34.8878 32.2035V32.1922L34.8601 32.1583V32.147L34.8324 32.1133V32.1021L34.8047 32.0682V32.0569L34.7768 32.0231V32.0118L34.7491 31.978V31.9667L34.7214 31.9328V31.9215L34.6881 31.8877H34.6825L34.6547 31.8427L34.627 31.7976L34.5993 31.7525L34.5714 31.7073C34.5937 32.2881 34.5493 32.9027 34.455 33.5229C34.1719 35.3779 33.4502 37.2781 32.834 38.5241C31.857 40.5089 30.5414 42.4823 29.2258 44.078C28.2322 45.279 27.2387 46.2713 26.3726 46.9028L26.3838 46.9141L26.3949 46.9254L26.4059 46.9367L26.417 46.948C26.7446 47.3201 26.9944 47.726 27.1554 48.1715V48.1827V48.194V48.2053V48.211V48.2166V48.2223V48.2279V48.2336V48.2449V48.2561V48.2617V48.2674V48.273V48.2787V48.29V48.2956V48.3011V48.3124V48.3181V48.3237V48.3294V48.335V48.3463V48.3575V48.3632V48.3688V48.3745V48.3801V48.3914V48.4027V48.4139V48.4252V48.4365V48.4478V48.4534V48.4591V48.4646V48.4704V48.4985V48.5098V48.5155V48.5211V48.5268V48.5323V48.5436V48.5549V48.5719V48.6L27.2664 48.6169ZM24.6074 45.5214C27.0277 43.4352 29.1537 40.8473 30.6247 37.966C31.907 35.4512 32.6953 32.711 32.7563 29.8749L32.7451 29.8692H32.7341L32.723 29.8523L32.712 29.841H32.7008L32.6897 29.824H32.6786V29.8185H32.6674L32.6564 29.8015H32.6453L32.6341 29.7846H32.6231L32.5787 29.7452H32.5676L32.5564 29.7282H32.5454V29.7169H32.5343L32.5231 29.7056H32.512L32.501 29.6888L32.4954 29.6831H32.4843L32.4733 29.6662H32.4621V29.6549H32.4566L32.4454 29.6437L32.4233 29.6268L32.4177 29.6211H32.4066L32.3956 29.6042H32.3844V29.593H32.3789L32.3677 29.5817H32.3566L32.3456 29.5647H32.34V29.5591H32.3289L32.3177 29.5478H32.3067L32.3011 29.5366L32.29 29.5253H32.2789L32.2679 29.514H32.2623V29.5083H32.2512L32.24 29.497H32.229L32.2179 29.4857L32.2067 29.4746H32.1956L32.1846 29.4633H32.1735V29.4576H32.1623L32.1513 29.4463L32.129 29.435L32.1179 29.4294H32.1069L32.0957 29.4182H32.0846L32.0625 29.3956L32.0402 29.3843L32.018 29.373C31.6405 29.1531 31.2464 28.9614 30.8467 28.7979C30.3527 33.6469 29.1593 35.891 28.4765 37.2329C26.9389 40.2609 24.6573 42.9897 22.3982 44.4783H22.4092L22.4148 44.484L22.4259 44.4896H22.4315H22.4425H22.4536L22.4648 44.4953H22.4759H22.4815H22.4925V44.5009H22.498L22.5092 44.5066H22.5202H22.5313H22.5425L22.548 44.5121L22.5592 44.5178H22.5646H22.5758L22.5869 44.5291H22.5925H22.6035V44.5347H22.609L22.6202 44.5404H22.6313H22.6423H22.6535L22.659 44.546L22.6702 44.5517H22.6756H22.6868H22.6979L22.709 44.5573H22.72H22.7256H22.7367V44.563H22.7423L22.7533 44.5685H22.7645L22.7756 44.5743L22.7867 44.5798H22.7979V44.5855H22.8033L22.8145 44.5911H22.8256H22.831H22.8422V44.5967H22.8477L22.8589 44.6024H22.87H22.881H22.8922L22.8977 44.608L22.9089 44.6137H22.9143H22.9255H22.9366L22.9477 44.6192H22.9587H22.9643H22.9754V44.625H22.981L22.992 44.6305H23.0032L23.0143 44.6418H23.0254L23.0366 44.6531H23.0476L23.0587 44.6644H23.0697L23.0809 44.6757H23.092L23.1031 44.6869H23.1143L23.1253 44.6982H23.1364L23.1476 44.7095H23.1586V44.7152H23.1697V44.7208H23.1808V44.7265H23.192V44.7321H23.203V44.7378H23.2141V44.7434H23.2253L23.2363 44.7546H23.2474V44.7602H23.2586V44.7659H23.2697V44.7715H23.2807L23.2918 44.7828H23.303V44.7885H23.314V44.7941H23.3251L23.3363 44.8053H23.3474V44.811H23.3584L23.3696 44.8223H23.3807V44.8279H23.3917L23.4028 44.8392H23.414L23.4251 44.8505H23.4361V44.8562H23.4473V44.8617H23.4584V44.8675H23.4694L23.4806 44.8787H23.4917V44.8843H23.5028V44.8899H23.5138V44.8956H23.525L23.5361 44.9069H23.5471L23.5583 44.9182H23.5694L23.5805 44.9294H23.5917V44.935H23.6027L23.6138 44.9463H23.6248V44.952H23.636L23.6471 44.9633H23.6582L23.6694 44.9746H23.6804L23.6915 44.9858H23.7027L23.7137 44.9971H23.7248H23.7304H23.7359H23.7471H23.7581H23.7692V45.0027H23.7804V45.0084H23.7858L23.7914 45.014L23.797 45.0197L23.8081 45.0253L23.8192 45.031H23.8302V45.0365H23.8358L23.8414 45.0421L23.8469 45.0478L23.8581 45.0534L23.8691 45.0591H23.8802L23.8858 45.0647H23.8914L23.9358 45.0872H23.9412H23.9468V45.093C24.0801 45.1607 24.2078 45.2282 24.3299 45.2959L24.6074 45.5214ZM21.2546 33.7484C22.0428 33.382 22.5702 33.4946 23.203 34.0867C23.5305 34.3912 23.7471 34.6506 23.8358 33.9852C23.9802 32.914 23.2641 32.1359 22.4815 32.0569C21.6987 31.978 20.7439 32.7673 20.7939 33.5906C20.8106 33.8048 20.9216 33.9007 21.2546 33.7484Z" fill="#1A1919"/>
</svg>
