<svg width="66" height="66" viewBox="0 0 66 66" fill="none" xmlns="http://www.w3.org/2000/svg">
<circle cx="32.9183" cy="32.9183" r="32.9183" fill="#F5F5F5"/>
<path d="M33 55C45.1503 55 55 45.1503 55 33C55 20.8497 45.1503 11 33 11C20.8497 11 11 20.8497 11 33C11 45.1503 20.8497 55 33 55Z" fill="white"/>
<path d="M45.9834 29.7753C42.3386 29.6025 38.9235 27.5914 37.334 24.0645C36.632 22.5066 35.0741 21.4737 33.3665 21.4273C29.7469 21.3303 27.4512 25.8733 29.7238 28.736C30.5038 29.7205 31.678 30.2665 33.2084 30.3656V30.374C36.1682 30.5848 38.7211 31.8644 40.4075 33.9831C43.5043 37.8788 43.0532 43.7583 39.4652 47.1713C35.1373 51.2863 27.9213 50.4451 24.6222 45.4974C24.3292 45.0569 24.072 44.5931 23.8548 44.1124C23.1529 42.5546 21.595 41.5216 19.8874 41.4773C18.1187 41.4288 16.4639 42.1034 15.4141 43.2313C18.8755 49.1718 25.2652 53.2109 32.6414 53.3374C43.8732 53.5335 53.1383 44.5889 53.3343 33.357C53.3681 31.4639 53.1341 29.6299 52.6808 27.8844C52.7757 28.247 49.856 29.261 49.5313 29.3558C48.3593 29.6931 47.1576 29.8301 45.9813 29.7732L45.9834 29.7753Z" fill="#2C70FF"/>
<path d="M20.0206 36.1958C23.7435 36.2906 27.1375 38.5421 28.668 41.9403C29.3699 43.4982 30.9278 44.5311 32.6354 44.5754C33.8222 44.6091 34.9627 44.1686 35.8249 43.3464C37.4418 41.8075 37.6653 39.0185 36.2739 37.2667C35.4939 36.2822 34.3197 35.7362 32.7893 35.6371V35.6287C29.8295 35.4179 27.2745 34.1383 25.5901 32.0196C21.842 27.306 23.4336 20.2902 28.5963 17.3937C30.0846 16.5589 31.7879 16.1057 33.4976 16.15C37.2205 16.2448 40.6145 18.4963 42.145 21.8945C42.847 23.4524 44.4048 24.4853 46.1124 24.5317C47.8853 24.5802 49.5401 23.9056 50.5857 22.7778C47.1243 16.8351 40.7304 12.796 33.3542 12.6632C22.1266 12.4713 12.8636 21.416 12.6634 32.6479C12.6296 34.5409 12.8636 36.3749 13.3148 38.1204C15.2036 36.8387 17.5415 36.141 20.0206 36.1979V36.1958Z" fill="#2C70FF"/>
</svg>
