<svg width="66" height="66" viewBox="0 0 66 66" fill="none" xmlns="http://www.w3.org/2000/svg">
<circle cx="32.9183" cy="32.9183" r="32.9183" fill="#F5F5F5"/>
<path d="M33 58C46.8071 58 58 46.8071 58 33C58 19.1929 46.8071 8 33 8C19.1929 8 8 19.1929 8 33C8 46.8071 19.1929 58 33 58Z" fill="#FF5900"/>
<path d="M36.634 31.7666L41.7682 31.7598V29.3323C41.7613 27.8309 40.5425 26.6869 39.0376 26.6903H36.6238C36.6238 25.9924 36.617 22.0839 36.617 22.0839C36.617 22.0839 36.6136 19.0708 36.6102 18.2945C34.6252 18.2945 32.3748 18.2299 30.6657 19.9458C29.0349 21.5902 29.3209 23.6568 29.3243 26.7073L24.1765 26.7141V29.0667C24.1833 30.5681 25.4022 31.787 26.9036 31.7836H29.3311L29.3379 35.447L29.3787 39.7641C29.4094 44.0981 32.9366 47.598 37.2741 47.5912C38.8164 47.5912 40.2531 47.1419 41.4651 46.3758L41.4583 41.6468C38.561 42.6886 36.6442 40.5846 36.6408 37.98C36.6408 37.6294 36.6306 31.77 36.6306 31.77L36.634 31.7666Z" fill="white"/>
</svg>
