<svg width="66" height="66" viewBox="0 0 66 66" fill="none" xmlns="http://www.w3.org/2000/svg">
<circle cx="32.9183" cy="32.9183" r="32.9183" fill="#F5F5F5"/>
<g clip-path="url(#clip0_457_2)">
<path d="M11.0184 16.4328L13.296 54.7039L28.7875 49.3444C28.7875 49.3444 37.8122 50.0146 40.8211 50.2338C44.9043 50.5295 55.9815 50.5295 55.9815 50.5295L55.8415 11.6289C55.8415 11.6289 45.8647 11.7003 41.9331 11.4123C38.4062 11.1523 27.8597 10.296 27.8597 10.296L11.0184 16.4328Z" fill="#FF5900"/>
<path d="M28.3518 41.5536L28.3458 30.2331L28.3432 25.5872C28.3432 25.3119 28.3414 22.1263 28.3414 22.1263C28.3414 22.1263 28.3406 19.8708 28.3397 19.2898C27.8356 19.2898 27.2641 19.2414 26.83 20.5258C26.4158 21.7567 26.4884 23.3113 26.4893 25.5923C26.4893 27.0092 26.4919 30.2407 26.4919 30.2407L26.4936 32.9855L26.5066 41.5638L28.3527 41.5561L28.3518 41.5536Z" fill="#F4EDE3"/>
<path d="M41.1116 30.042C40.8886 28.8442 40.5764 27.9191 40.1761 27.2641C39.7757 26.6117 39.3114 26.2855 38.7831 26.288C38.4494 26.288 38.1312 26.441 37.8284 26.7391C37.5267 27.0373 37.2742 27.4425 37.0737 27.9547C37.0737 27.1826 37.0727 26.316 37.0727 25.5464C37.0727 25.2711 37.0711 22.0855 37.0711 22.0855C37.0711 22.0855 37.0703 19.8301 37.0693 19.249C36.5704 19.249 36.0049 19.2006 35.5742 20.485C35.1644 21.716 35.2361 23.2706 35.2371 25.5515C35.2371 26.9685 35.2397 30.2 35.2397 30.2L35.2413 32.9448L35.2447 41.5231L37.008 41.5154L37.0174 40.0398C37.4835 41.3293 38.0757 41.9716 38.7917 41.969C39.3132 41.969 39.7757 41.6429 40.1787 40.993C40.5817 40.3456 40.8938 39.4332 41.116 38.2533C41.3382 37.0733 41.4479 35.7048 41.4471 34.1476C41.4471 32.6109 41.3348 31.2423 41.1108 30.0445L41.1116 30.042ZM39.2172 36.8134C38.988 37.4607 38.6854 37.7844 38.3102 37.7844C38.0317 37.7844 37.781 37.5779 37.5586 37.1574C37.3356 36.7395 37.1757 36.1711 37.0779 35.4525L37.0763 32.8403C37.1731 32.1216 37.333 31.5533 37.5552 31.1327C37.7774 30.7122 38.0273 30.5007 38.3057 30.4982C38.681 30.4982 38.9838 30.8218 39.2138 31.4768C39.4436 32.1317 39.5587 33.0238 39.5595 34.1502C39.5595 35.2767 39.4462 36.1635 39.2172 36.8109V36.8134Z" fill="#F4EDE3"/>
<path d="M23.5302 38.34C23.7178 38.0826 23.8596 37.7488 23.9573 37.3384V36.0463C23.6573 35.4526 23.3166 35.1569 22.9335 35.1595C22.6897 35.1595 22.5021 35.3149 22.3706 35.6233C22.2383 35.9316 22.1726 36.3828 22.1735 36.9766C22.1735 37.5296 22.2383 37.9603 22.3672 38.2661C22.496 38.5745 22.6819 38.7274 22.9258 38.7248C23.1411 38.7248 23.3425 38.5949 23.531 38.3375M20.8661 40.7204C20.4796 39.8309 20.2859 38.5872 20.285 36.9868C20.2842 35.3277 20.4692 34.0509 20.841 33.1563C21.2128 32.2644 21.7463 31.8158 22.4415 31.8107C22.713 31.8107 22.9846 31.8949 23.2552 32.0681C23.5267 32.2414 23.7602 32.4912 23.9547 32.7562C23.9573 32.0044 23.9417 31.51 23.7411 31.0691C23.3512 30.0599 22.042 29.7923 21.1514 30.7378L21.1402 30.748C21.1402 29.1425 21.1194 28.2861 21.3486 27.6056C21.6486 26.7188 21.9962 26.3951 23.0312 26.3901C23.9634 26.385 24.5963 26.9074 25.0736 28.0007C25.55 29.094 25.7895 30.6257 25.7904 32.5931L25.7939 39.3416C25.7947 41.1511 25.5812 41.5715 25.0727 41.5741L23.9469 41.5792V40.3177C23.9487 40.361 23.8855 40.5394 23.8734 40.5725C23.6408 41.23 23.3616 41.6506 23.0468 41.8544C22.6975 42.0813 22.3222 42.1042 21.9677 41.9767C21.6659 41.8697 21.3685 41.6225 21.103 41.1816C21.02 41.044 20.9413 40.8885 20.8661 40.7178" fill="#F4EDE3"/>
<path d="M18.6139 30.2764L19.9179 30.2713V28.4542C19.9161 27.3303 19.6066 26.474 19.2244 26.4766H18.6113C18.6113 25.9541 18.6096 23.0284 18.6096 23.0284C18.6096 23.0284 18.6087 20.773 18.6079 20.1919C18.1037 20.1919 17.5322 20.1435 17.0981 21.428C16.684 22.6589 16.7566 24.2058 16.7575 26.4893L15.4501 26.4944V28.2554C15.4518 29.3793 15.7614 30.2917 16.1427 30.2891H16.7592L16.7609 33.0313L16.7713 36.2629C16.7791 39.5071 17.6749 42.127 18.7765 42.1219C19.1682 42.1219 19.5331 41.7855 19.8409 41.2121L19.8392 37.6722C19.1033 38.452 18.6165 36.8771 18.6156 34.9274C18.6156 34.665 18.6131 30.2789 18.6131 30.2789L18.6139 30.2764Z" fill="#F4EDE3"/>
<path d="M50.4494 30.1286L51.7534 30.1234V28.3064C51.7516 27.1824 51.442 26.3261 51.0599 26.3287H50.4468C50.4468 25.8063 50.445 22.8805 50.445 22.8805C50.445 22.8805 50.4442 20.6251 50.4434 20.0441C49.9393 20.0441 49.3678 19.9956 48.9336 21.2801C48.5194 22.511 48.5921 24.0579 48.5929 26.3415L47.2855 26.3465V28.1075C47.2873 29.2315 47.5969 30.1438 47.9782 30.1413H48.5947L48.5963 32.8835L48.6068 36.115C48.6146 39.3592 49.5104 41.9791 50.6119 41.974C51.0036 41.974 51.3685 41.6376 51.6764 41.0642L51.6746 37.5243C50.9388 38.3042 50.452 36.7292 50.4512 34.7795C50.4512 34.5171 50.4486 30.1311 50.4486 30.1311L50.4494 30.1286Z" fill="#F4EDE3"/>
<path d="M32.2452 38.2995C32.4329 38.0421 32.5747 37.7082 32.6723 37.298V36.0059C32.3724 35.4121 32.0317 35.1164 31.6486 35.119C31.4047 35.119 31.2171 35.2744 31.0857 35.5828C30.9534 35.8912 30.8877 36.3422 30.8886 36.9361C30.8886 37.4891 30.9534 37.9198 31.0823 38.2256C31.211 38.534 31.3971 38.6869 31.6409 38.6843C31.8561 38.6843 32.0576 38.5544 32.246 38.297M29.5812 40.6798C29.1947 39.7904 29.001 38.5467 29.0001 36.9463C28.9993 35.3458 29.1843 34.0104 29.5561 33.1158C29.9279 32.2239 30.4614 31.7753 31.1566 31.7702C31.4282 31.7702 31.6996 31.8543 31.9702 32.0276C32.2418 32.2009 32.4752 32.4507 32.6697 32.7157C32.6723 31.9639 32.6569 31.4695 32.4562 31.0286C32.0662 30.0194 30.7571 29.7518 29.8665 30.6973L29.8553 30.7075C29.8553 29.1019 29.8345 28.2456 30.0637 27.5652C30.3637 26.6783 30.7113 26.3546 31.7464 26.3495C32.6784 26.3444 33.3114 26.8669 33.7887 27.9602C34.2652 29.0535 34.5047 30.5851 34.5055 32.5526L34.5089 39.3011C34.5099 41.1105 34.2963 41.531 33.7879 41.5336L32.6621 41.5387V40.2771C32.6637 40.3205 32.6006 40.4989 32.5886 40.532C32.3559 41.1895 32.0767 41.61 31.7619 41.8139C31.4125 42.0407 31.0373 42.0637 30.6828 41.9362C30.381 41.8292 30.0836 41.582 29.8181 41.1411C29.7351 41.0035 29.6564 40.8481 29.5812 40.6773" fill="#F4EDE3"/>
<path d="M44.963 38.2407C45.1506 37.9833 45.2925 37.6495 45.3901 37.2391V35.947C45.09 35.3532 44.7494 35.0576 44.3663 35.0602C44.1225 35.0602 43.9348 35.2156 43.8034 35.524C43.6711 35.8323 43.6054 36.2835 43.6064 36.8772C43.6064 37.4303 43.6711 37.861 43.8 38.1668C43.9288 38.4751 44.1146 38.6281 44.3585 38.6255C44.5739 38.6255 44.7754 38.4956 44.9638 38.2381M42.299 40.621C41.9124 39.7316 41.7188 38.4879 41.7178 36.8874C41.717 35.287 41.902 33.9516 42.2738 33.057C42.6457 32.165 43.1791 31.7165 43.8744 31.7114C44.1458 31.7114 44.4174 31.7955 44.688 31.9688C44.9596 32.1421 45.193 32.3919 45.3875 32.6569C45.3901 31.9051 45.3746 31.4107 45.1739 30.9698C44.784 29.9606 43.4748 29.693 42.5842 30.6385L42.573 30.6487C42.573 29.0431 42.5523 28.1868 42.7813 27.5063C43.0814 26.6195 43.429 26.2958 44.464 26.2907C45.3961 26.2856 46.0291 26.8081 46.5065 27.9014C46.9828 28.9947 47.2224 30.5264 47.2232 32.4938L47.2267 39.2423C47.2275 41.0517 47.0139 41.4722 46.5055 41.4748L45.3797 41.4798V40.2184C45.3815 40.2617 45.3184 40.44 45.3063 40.4732C45.0737 41.1307 44.7942 41.5513 44.4797 41.7551C44.1303 41.982 43.755 42.0049 43.4005 41.8774C43.0987 41.7704 42.8012 41.5232 42.5358 41.0823C42.4528 40.9447 42.3741 40.7892 42.299 40.6184" fill="#F4EDE3"/>
</g>
<defs>
<clipPath id="clip0_457_2">
<rect width="45" height="45" fill="white" transform="translate(11 10)"/>
</clipPath>
</defs>
</svg>
