<svg width="66" height="66" viewBox="0 0 66 66" fill="none" xmlns="http://www.w3.org/2000/svg">
<circle cx="32.9183" cy="32.9183" r="32.9183" fill="#F5F5F5"/>
<g transform="translate(12 12) scale(0.843)">
<path d="M39.1,0H10.7C4.8,0,0,4.8,0,10.7v28.5c0,5.9,4.8,10.7,10.7,10.7h28.5c5.9,0,10.7-4.8,10.7-10.7V10.7C49.8,4.8,45,0,39.1,0z M15.5,22.1h-2.7c-0.4,0-0.6-0.3-0.6-0.7l1.4-8.7c0.1-0.3,0.3-0.5,0.6-0.5h2.7c0.4,0,0.6,0.3,0.6,0.7l-1.4,8.7C16,21.9,15.8,22.1,15.5,22.1z M19.7,38.6H17c-0.4,0-0.6-0.3-0.6-0.7l4.1-25.3c0.1-0.3,0.3-0.5,0.6-0.5h2.7c0.4,0,0.6,0.3,0.6,0.7l-4.1,25.3C20.3,38.4,20,38.6,19.7,38.6z M27.3,38.1c-0.1,0.3-0.3,0.5-0.6,0.5H24c-0.4,0-0.6-0.3-0.6-0.7l4.1-25.3c0.1-0.3,0.3-0.5,0.6-0.5h2.7c0.4,0,0.6,0.3,0.6,0.7L27.3,38.1z M36.9,21.6c-0.1,0.3-0.3,0.5-0.6,0.5h-2.7c-0.4,0-0.6-0.3-0.6-0.7l1.4-8.7c0.1-0.3,0.3-0.5,0.6-0.5h2.7c0.4,0,0.6,0.3,0.6,0.7L36.9,21.6z" fill="#004E34"/>
</g>
</svg>
