<svg width="66" height="66" viewBox="0 0 66 66" fill="none" xmlns="http://www.w3.org/2000/svg">
<circle cx="32.9183" cy="32.9183" r="32.9183" fill="#F5F5F5"/>
<g clip-path="url(#clip0_372_2)">
<path d="M30.0962 43H27.513V42.1947C26.6841 42.7041 25.7055 43 24.6565 43C21.6731 42.9998 19.2548 40.6188 19.2548 37.6822V37.6747C19.2551 34.7383 21.6733 32.3578 24.6565 32.3577C25.7055 32.3577 26.6842 32.653 27.513 33.1622V32.3577H30.0962V43ZM58.0023 35.7509H56.2803C55.2426 35.7509 54.4013 36.5789 54.4013 37.6004V43H50.9566V36.6734C50.9566 34.29 52.9198 32.3577 55.3412 32.3577H58.0023V35.7509ZM20.458 30.3017H15.9369V42.9842H12.4922V30.3017H10.1118V26.9085H20.458V30.3017ZM36.3409 42.9662H32.8963V26.9258H36.3409V42.9662ZM43.8162 32.2856C46.7994 32.2858 49.2177 34.6662 49.2178 37.6026V37.6101C49.2178 40.5467 46.7995 42.9277 43.8162 42.9278C40.8327 42.9278 38.4138 40.5468 38.4138 37.6101V37.6026C38.414 34.6661 40.8328 32.2856 43.8162 32.2856ZM24.6565 35.3633C23.3595 35.3634 22.3084 36.3981 22.3082 37.6747V37.6822C22.3082 38.959 23.3595 39.9943 24.6565 39.9945C25.9537 39.9945 27.0055 38.9591 27.0055 37.6822V37.6747C27.0054 36.3981 25.9535 35.3633 24.6565 35.3633ZM43.8162 35.2911C42.5191 35.2911 41.4673 36.3259 41.4671 37.6026V37.6101C41.4671 38.8869 42.5191 39.9223 43.8162 39.9223C45.1132 39.9221 46.1645 38.8868 46.1645 37.6101V37.6026C46.1644 36.3261 45.113 35.2914 43.8162 35.2911ZM9.0788 30.3017H8V26.9085H9.0788V30.3017Z" fill="#1C1D1F"/>
<path d="M57.9617 23H38.4138V30.5926H57.9617V23Z" fill="#16C27C"/>
<path d="M52.2162 25.4204H50.9718V29.0374H49.9914V25.4204H48.7471V24.5557H52.2162V25.4204ZM41.3512 24.5557C42.1336 24.5558 42.7343 24.751 43.1532 25.1417C43.5721 25.5323 43.7818 26.0755 43.7819 26.771C43.7819 27.4688 43.5777 28.0206 43.17 28.4259C42.7624 28.8312 42.1384 29.0344 41.2985 29.0344H39.7993V27.837H40.7797V28.1502H41.4C41.8486 28.1502 42.1938 28.0348 42.4346 27.8039C42.6751 27.5731 42.7954 27.2372 42.7954 26.7966C42.7954 26.3579 42.6752 26.0196 42.4346 25.7825C42.1938 25.5454 41.8244 25.4272 41.3267 25.4271H40.7797V27.0347H39.7993V24.5557H41.3512ZM48.7555 29.0276H47.7103L47.209 27.837H45.5572L45.0522 29.0276H44.0108L45.9219 24.5557H46.8962L48.7555 29.0276ZM56.7206 29.0276H55.6753L55.1741 27.837H53.5224L53.0173 29.0276H51.9759L53.8871 24.5557H54.8613L56.7206 29.0276ZM53.8618 27.0347H54.8361L54.3509 25.8816L53.8618 27.0347ZM45.8967 27.0347H46.871L46.3858 25.8816L45.8967 27.0347Z" fill="white"/>
</g>
<defs>
<clipPath id="clip0_372_2">
<rect width="50" height="20" fill="white" transform="translate(8 23)"/>
</clipPath>
</defs>
</svg>
