<svg width="66" height="66" viewBox="0 0 66 66" fill="none" xmlns="http://www.w3.org/2000/svg">
<circle cx="32.9183" cy="32.9183" r="32.9183" fill="#F5F5F5"/>
<path d="M51.9275 24.9694C51.2969 19.0841 46.5315 14.487 40.5963 14.0364C37.8686 13.8316 35.2278 14.4961 32.9843 15.9299C31.015 14.6827 28.726 14 26.3592 14C19.5468 14 14 19.5256 14 26.3121C14 27.9916 14.2741 29.4526 14.8407 30.7773L21.0591 45.4834C21.283 46.0296 21.5617 46.5621 21.8998 47.0673C23.5538 49.5297 26.3135 51 29.2879 51H50.8264L46.769 41.3141L51.1645 30.7681L51.1873 30.7089C51.8909 28.8791 52.1377 26.9492 51.9275 24.9694ZM18.569 26.3121C18.569 22.0336 22.0643 18.5516 26.3592 18.5516C27.4649 18.5516 28.5386 18.7883 29.5302 19.2298C29.0184 19.9535 28.5798 20.7318 28.2371 21.5466L22.1192 36.2618L19.0488 29.0021C18.7244 28.2465 18.569 27.3681 18.569 26.3121ZM46.929 29.0521L41.8208 41.3141L43.9683 46.4438H29.2879C27.8214 46.4438 26.5146 45.7474 25.6967 44.5322C25.4957 44.2363 25.3403 43.9222 25.2215 43.5991L25.2124 43.5763C24.856 42.5886 24.8788 41.5098 25.2992 40.4949L32.4543 23.2944C32.9112 22.2202 33.6194 21.2416 34.5058 20.4678C35.9404 19.2161 37.7406 18.547 39.6413 18.547C39.8469 18.547 40.048 18.5562 40.2536 18.5698C43.9271 18.8475 46.9929 21.806 47.3859 25.4473C47.5184 26.6944 47.3676 27.9052 46.9335 29.0476L46.929 29.0521Z" fill="#0070F0"/>
</svg>
