<svg width="66" height="66" viewBox="0 0 66 66" fill="none" xmlns="http://www.w3.org/2000/svg">
<circle cx="32.9183" cy="32.9183" r="32.9183" fill="#F5F5F5"/>
<g clip-path="url(#clip0_435_160)">
<path d="M33.0196 12.0981C21.4401 12.0981 12.0588 21.4795 12.0588 33.0589C12.0588 44.6383 21.4401 54 33.0196 54C44.599 54 53.9607 44.6187 53.9607 33.0589C53.9607 21.4991 44.5794 12.1178 33.0196 12.0981ZM53.1364 33.0589C53.1364 33.7458 53.0972 34.4327 53.0383 35.1196L49.4859 34.7075C49.5448 34.1776 49.5644 33.6281 49.5644 33.0785C49.5644 32.529 49.5448 32.058 49.4859 31.5477L53.0383 31.1355C53.1168 31.7439 53.1364 32.3916 53.1364 33.0589ZM12.8635 33.0589C12.8635 32.3916 12.9028 31.7243 12.9813 31.057L16.5336 31.4692C16.4747 31.9991 16.4551 32.529 16.4551 33.0589C16.4551 33.5888 16.4747 34.1187 16.5336 34.6486L12.9813 35.0608C12.9224 34.4131 12.8831 33.7458 12.8635 33.0589ZM48.6224 27.6421L51.9785 26.386C52.4299 27.6617 52.7439 28.957 52.9205 30.2916L49.3682 30.7038C49.2308 29.6636 48.9953 28.643 48.642 27.6421H48.6224ZM48.7205 33.0589C48.7205 34.0795 48.6224 35.1196 48.4261 36.1206L44.8934 35.3159C45.1878 33.8047 45.1878 32.2542 44.8934 30.7234L48.4261 29.9187C48.642 30.9589 48.7401 31.9991 48.7401 33.0589H48.7205ZM33.0196 44.3439C26.7785 44.3439 21.7345 39.2804 21.7345 33.0589C21.7345 26.8178 26.7981 21.7738 33.0196 21.7738C39.2607 21.7738 44.3046 26.8374 44.3046 33.0589C44.285 39.2804 39.2411 44.3243 33.0196 44.3439ZM33.3925 48.7795V45.1682C34.943 45.129 36.4738 44.7757 37.8869 44.1477L39.457 47.4056C37.5532 48.2495 35.4925 48.7206 33.3925 48.7795ZM26.5037 47.386L28.0542 44.1084C29.4672 44.7365 30.9981 45.0897 32.5486 45.1486V48.7598C30.4682 48.7206 28.4074 48.2495 26.5037 47.386ZM17.299 33.0785C17.2794 31.9991 17.3972 30.9393 17.5934 29.8795L21.1261 30.6841C20.8317 32.1953 20.8121 33.7458 21.1065 35.2767L17.613 36.0813C17.3972 35.0804 17.2794 34.0598 17.299 33.0785ZM32.6074 17.358V20.9692C31.0766 21.0281 29.5654 21.3617 28.1719 21.9701L26.6018 18.6925C28.4859 17.8486 30.5271 17.3776 32.6074 17.3187V17.358ZM39.4766 18.7318L37.9065 21.9897C36.4934 21.3617 34.9822 21.0084 33.4317 20.9692V17.358C35.5121 17.3972 37.5729 17.8682 39.4766 18.7318ZM48.3673 26.857C47.9747 25.8757 47.4841 24.9337 46.9149 24.0505L49.8392 22.029C50.585 23.1477 51.213 24.3449 51.7233 25.6009L48.3673 26.857ZM48.2495 29.114L44.7168 29.9187C44.3243 28.4467 43.657 27.0533 42.7345 25.8168L45.5607 23.5598C46.8168 25.2281 47.7196 27.1122 48.2495 29.114ZM42.2046 25.1692C41.2037 24.0112 40.0065 23.0495 38.6523 22.3234L40.242 19.0654C42.0869 20.0271 43.7158 21.3224 45.0504 22.9122L42.2046 25.1692ZM41.1448 18.6533L42.813 15.4935C43.9906 16.1608 45.0897 16.9262 46.1102 17.8094L43.7355 20.4785C42.9308 19.772 42.0672 19.1832 41.1448 18.6533ZM40.4187 18.2608C39.4766 17.7897 38.4953 17.3972 37.4944 17.1224L38.3579 13.6486C39.6532 14.0019 40.9289 14.4925 42.1261 15.1009L40.4187 18.2608ZM36.6701 16.9262C35.6299 16.6907 34.5504 16.5337 33.471 16.514V12.9421C34.8448 12.9813 36.199 13.1383 37.5336 13.4523L36.6701 16.9262ZM32.6467 16.4944C31.5869 16.514 30.5271 16.6318 29.4869 16.8673L28.643 13.3935C29.9579 13.0991 31.3121 12.9421 32.6467 12.9421V16.4944ZM28.7018 17.0636C27.6813 17.3383 26.6803 17.7112 25.7187 18.1823L24.0504 15.0028C25.2476 14.3944 26.5233 13.9234 27.8187 13.5701L28.7018 17.0636ZM25.0121 18.5748C24.0897 19.0851 23.2065 19.6935 22.4018 20.3804L20.0074 17.6916C21.028 16.8084 22.1467 16.043 23.3439 15.3953L25.0121 18.5748ZM25.8364 19.0458L27.4065 22.3038C26.0523 23.0103 24.8551 23.972 23.8738 25.1299L21.0476 22.8729C22.3822 21.3028 24.0308 20.0075 25.8364 19.0458ZM20.5177 23.5206L23.3439 25.7776C22.4215 26.9944 21.7345 28.3879 21.342 29.8795L17.8093 29.0748C18.3392 27.0533 19.2616 25.1692 20.5177 23.5206ZM17.7112 26.7981L14.3551 25.5421C14.8654 24.286 15.4934 23.0888 16.2392 21.9701L19.1635 24.0112C18.5944 24.8748 18.1037 25.8168 17.7112 26.7981ZM17.4168 27.5636C17.0635 28.5645 16.8084 29.6047 16.6514 30.6449L13.099 30.2327C13.2953 28.8981 13.6093 27.5832 14.0803 26.3075L17.4168 27.5636ZM16.6514 35.4533C16.8084 36.5131 17.0635 37.5337 17.4168 38.5346L14.0607 39.7907C13.6093 38.515 13.2757 37.2 13.099 35.8654L16.6514 35.4533ZM17.6915 39.3196C18.1037 40.301 18.5944 41.243 19.1831 42.1262L16.2588 44.1673C15.513 43.0486 14.885 41.8514 14.3747 40.5953L17.6915 39.3196ZM17.7504 36.8664L21.2831 36.0813C21.6757 37.5729 22.343 38.986 23.2654 40.2421L20.4392 42.4991C19.1635 40.8112 18.2607 38.8879 17.7504 36.8664ZM23.756 40.8701C24.757 42.0477 25.9738 43.029 27.3476 43.7748L25.7775 47.0327C23.9327 46.071 22.2841 44.7365 20.9495 43.1271L23.756 40.8701ZM24.9925 47.5234L23.3243 50.7028C22.1467 50.0552 21.028 49.2897 20.0074 48.4066L22.4018 45.7178C23.1869 46.4047 24.0701 47.0131 24.9925 47.5234ZM25.7187 47.9159C26.6607 48.3869 27.6616 48.7598 28.6822 49.0346L27.8187 52.5084C26.5233 52.1552 25.2476 51.6841 24.0504 51.0757L25.7187 47.9159ZM29.4869 49.2309C30.5271 49.4467 31.5672 49.5841 32.6271 49.6038V53.1953C31.2729 53.1757 29.9383 53.0187 28.6233 52.7243L29.4869 49.2309ZM33.4514 49.5841C34.5112 49.5645 35.571 49.4271 36.5915 49.1916L37.4355 52.6654C36.1205 52.9598 34.7859 53.1168 33.4317 53.1561L33.4514 49.5841ZM37.3962 49.015C38.4168 48.7402 39.3981 48.3673 40.3598 47.8963L42.028 51.0561C40.8308 51.6645 39.5551 52.1355 38.2598 52.4888L37.3962 49.015ZM41.0663 47.5038C41.9887 46.9935 42.8523 46.3851 43.657 45.6981L46.0317 48.3869C45.0112 49.2505 43.9121 50.0159 42.7345 50.6832L41.0663 47.5038ZM40.2224 47.0327L38.6523 43.7748C40.0261 43.0486 41.243 42.0673 42.2439 40.8897L45.0701 43.1467C43.7355 44.7561 42.0869 46.071 40.2224 47.0327ZM45.5803 42.5187L42.7345 40.2617C43.657 39.0252 44.3243 37.6122 44.7168 36.1206L48.2495 36.9056C47.7392 38.9467 46.8364 40.8505 45.5803 42.5187ZM48.3476 39.3196L51.7037 40.5757C51.1934 41.8122 50.5654 43.0094 49.8196 44.1281L46.8953 42.0869C47.4448 41.2234 47.9355 40.301 48.3476 39.3196ZM48.642 38.5542C48.9953 37.5533 49.2504 36.5327 49.4074 35.4925L52.9598 35.9047C52.7635 37.2393 52.4299 38.5542 51.9588 39.8299L48.642 38.5542ZM49.4074 21.3813L46.4831 23.4028C45.8551 22.5393 45.1682 21.7542 44.3831 21.0281L46.7579 18.3589C47.7196 19.2617 48.6028 20.2823 49.4074 21.3813ZM19.399 18.2411L21.7738 20.9299C21.0084 21.6561 20.3018 22.4411 19.6738 23.3047L16.7495 21.2636C17.5345 20.1645 18.4177 19.1636 19.399 18.2411ZM16.7102 44.8346L19.6345 42.7935C20.2626 43.657 20.9495 44.4421 21.7345 45.1682L19.3598 47.8374C18.3785 46.9346 17.4953 45.9337 16.7102 44.8346ZM46.6598 47.8374L44.285 45.1486C45.0504 44.4224 45.757 43.6374 46.385 42.7935L49.3093 44.8346C48.5243 45.914 47.6411 46.9346 46.6598 47.8374Z" fill="black"/>
</g>
<defs>
<clipPath id="clip0_435_160">
<rect width="42" height="42" fill="white" transform="translate(12 12)"/>
</clipPath>
</defs>
</svg>
