<svg width="62" height="62" viewBox="0 0 62 62" fill="none" xmlns="http://www.w3.org/2000/svg">
<circle cx="31" cy="31" r="31" fill="#F5F5F5"/>
<path d="M30.9895 7.89779L35.9517 15.8867C36.7486 17.1696 35.8421 18.8425 34.3499 18.8425H32.3211V30.8064H29.3877V7C30.0028 7 30.6178 7.29926 30.9895 7.89779Z" fill="#8FBCFA"/>
<path d="M22.8232 15.8867L27.7855 7.89779C28.1572 7.29926 28.7723 7 29.3873 7V30.8066C28.3365 30.7567 27.3192 31.0659 26.4539 31.6875V18.8425H24.4251C22.9329 18.8425 22.0263 17.1696 22.8232 15.8867Z" fill="#468BFF"/>
<path d="M44.944 38.6981H32.6602C33.3689 37.8911 33.789 36.8636 33.8342 35.7148H56.5889C56.5889 36.3403 56.2946 36.9659 55.7061 37.3438L47.8505 42.3902C46.589 43.2007 44.944 42.2788 44.944 40.7612V38.6981Z" fill="#FDBB11"/>
<path d="M47.85 29.0392L55.7055 34.0856C56.2942 34.4636 56.5883 35.0891 56.5883 35.7146H33.833C33.8739 34.6433 33.547 33.5868 32.9258 32.7313H44.9435V30.6682C44.9435 29.1506 46.5884 28.2287 47.85 29.0392Z" fill="#F6D785"/>
<path d="M22.7227 42.1006L15.5557 49.3892C15.9906 49.8316 16.6335 50.0622 17.3126 49.9064L26.3762 47.8257C27.8317 47.4915 28.3538 45.6568 27.2987 44.5838L25.8641 43.1248L31.2534 37.6263C32.4017 36.4584 32.3508 34.5885 31.2343 33.4531L22.7227 42.1006Z" fill="#FF9A9D"/>
<path d="M21.7162 38.9082L27.1238 33.4295C28.2721 32.2617 30.1187 32.3194 31.2351 33.4546L22.7234 42.103L15.5563 49.3915C15.1214 48.9493 14.8946 48.2953 15.0479 47.6048L17.0938 38.3876C17.4224 36.9072 19.2265 36.3763 20.2817 37.4493L21.7162 38.9082Z" fill="#FE363B"/>
</svg>
