<svg width="66" height="66" viewBox="0 0 66 66" fill="none" xmlns="http://www.w3.org/2000/svg">
<circle cx="32.9183" cy="32.9183" r="32.9183" fill="#F5F5F5"/>
<svg x="8" y="8" width="50" height="50" viewBox="40 45 320 310" fill="none" preserveAspectRatio="xMidYMid meet">
<path fill="#000000" d="M 97.57 85.26 A 0.82 0.82 0.0 0 1 97.76 84.27 Q 120.90 63.80 149.95 53.86 A 1.37 1.36 66.9 0 1 151.60 54.53 Q 163.42 77.45 169.37 88.48 Q 178.01 104.49 180.36 112.94 C 188.62 142.58 181.58 173.45 160.94 195.56 Q 136.62 221.65 100.50 222.04 Q 65.11 222.43 47.60 222.11 A 0.58 0.58 0.0 0 1 47.04 221.61 Q 42.80 190.64 50.77 159.87 A 1.07 1.06 7.4 0 1 51.80 159.08 L 103.11 159.05 A 5.51 5.27 37.4 0 0 104.29 158.92 C 119.47 155.50 126.12 139.78 119.02 126.22 Q 116.23 120.87 97.57 85.26 Z"/>
<path fill="#000000" d="M 301.91 85.29 Q 283.28 120.90 280.49 126.25 C 273.41 139.81 280.06 155.53 295.24 158.93 A 5.50 5.27 -37.5 0 0 296.42 159.06 L 347.72 159.06 A 1.07 1.06 -7.4 0 1 348.75 159.85 Q 356.74 190.60 352.52 221.57 A 0.58 0.58 0.0 0 1 351.96 222.07 Q 334.46 222.40 299.08 222.04 Q 262.96 221.67 238.63 195.61 C 217.98 173.51 210.92 142.66 219.16 113.02 Q 221.50 104.57 230.13 88.56 Q 236.07 77.53 247.87 54.60 A 1.37 1.36 -66.9 0 1 249.52 53.93 Q 278.57 63.85 301.72 84.30 A 0.82 0.82 0.0 0 1 301.91 85.29 Z"/>
<path fill="#000000" d="M 198.88 285.67 A 0.37 0.37 0.0 0 0 198.27 285.67 L 156.41 347.26 A 1.66 1.65 25.7 0 1 154.54 347.91 Q 124.69 338.46 101.38 318.99 A 0.82 0.81 -53.2 0 1 101.23 317.90 Q 108.23 307.68 140.98 259.30 Q 151.75 243.39 156.75 238.76 C 168.93 227.47 185.00 221.74 201.94 222.55 C 216.15 223.22 229.11 228.78 239.74 238.25 Q 245.01 242.94 254.38 256.54 Q 280.00 293.71 297.90 319.36 A 0.41 0.40 -37.0 0 1 297.82 319.91 Q 273.92 339.28 243.96 348.45 Q 241.92 349.08 240.83 347.46 Q 235.97 340.20 198.88 285.67 Z"/>
</svg>
</svg>
