<svg width="66" height="66" viewBox="0 0 66 66" fill="none" xmlns="http://www.w3.org/2000/svg">
<circle cx="32.9183" cy="32.9183" r="32.9183" fill="#F5F5F5"/>
<path d="M33 57C46.2548 57 57 46.2548 57 33C57 19.7452 46.2548 9 33 9C19.7452 9 9 19.7452 9 33C9 46.2548 19.7452 57 33 57Z" fill="url(#paint0_linear_9_30)"/>
<path d="M25.2458 34.7544L28.0932 42.6356C28.0932 42.6356 28.4492 43.373 28.8304 43.373C29.2116 43.373 34.8814 37.4746 34.8814 37.4746L41.1864 25.2966L25.3474 32.72L25.2458 34.7544Z" fill="#C8DAEA"/>
<path d="M29.0212 36.7756L28.4746 42.5848C28.4746 42.5848 28.2458 44.3648 30.0254 42.5848C31.805 40.8048 33.5084 39.4322 33.5084 39.4322" fill="#A9C6D8"/>
<path d="M25.2972 35.0356L19.44 33.1272C19.44 33.1272 18.74 32.8432 18.9654 32.1992C19.0118 32.0664 19.1054 31.9534 19.3854 31.7592C20.6832 30.8546 43.4066 22.6872 43.4066 22.6872C43.4066 22.6872 44.0482 22.471 44.4266 22.6148C44.5202 22.6438 44.6044 22.6971 44.6707 22.7693C44.7369 22.8415 44.7828 22.93 44.8036 23.0258C44.8445 23.1949 44.8616 23.3689 44.8544 23.5428C44.8526 23.6932 44.8344 23.8326 44.8206 24.0512C44.6822 26.2842 40.5406 42.9498 40.5406 42.9498C40.5406 42.9498 40.2928 43.925 39.405 43.9584C39.1868 43.9654 38.9695 43.9285 38.7659 43.8497C38.5623 43.771 38.3766 43.652 38.22 43.5C36.4778 42.0014 30.4562 37.9546 29.1256 37.0646C29.0956 37.0441 29.0703 37.0175 29.0515 36.9864C29.0326 36.9554 29.0207 36.9207 29.0164 36.8846C28.9978 36.7908 29.0998 36.6746 29.0998 36.6746C29.0998 36.6746 39.585 27.3546 39.864 26.3762C39.8856 26.3004 39.804 26.263 39.6944 26.2962C38.998 26.5524 26.9256 34.1762 25.5932 35.0176C25.4973 35.0466 25.3959 35.0528 25.2972 35.0356Z" fill="white"/>
<defs>
<linearGradient id="paint0_linear_9_30" x1="33" y1="57" x2="33" y2="9" gradientUnits="userSpaceOnUse">
<stop stop-color="#1D93D2"/>
<stop offset="1" stop-color="#38B0E3"/>
</linearGradient>
</defs>
</svg>
