<svg width="66" height="66" viewBox="0 0 66 66" fill="none" xmlns="http://www.w3.org/2000/svg">
<circle cx="32.9183" cy="32.9183" r="32.9183" fill="#F5F5F5"/>
<g transform="translate(12.5731 12.6575) scale(0.317628)">
<path fill="#00e3aa" d=" M 64.03 7.51 C 72.83 7.51 80.71 12.16 84.88 19.87 Q 88.73 26.99 96.80 42.15 A 0.34 0.34 0.0 0 1 96.50 42.65 L 80.54 42.65 A 0.97 0.96 -13.6 0 1 79.68 42.13 Q 75.62 34.43 71.61 27.13 Q 68.99 22.38 64.03 22.38 Q 59.06 22.38 56.44 27.13 Q 52.44 34.43 48.38 42.13 A 0.97 0.96 13.6 0 1 47.52 42.65 L 31.56 42.65 A 0.34 0.34 0.0 0 1 31.26 42.15 Q 39.32 26.99 43.17 19.88 C 47.35 12.16 55.22 7.51 64.03 7.51 Z" />
<path fill="#00e3aa" d=" M 53.02 45.66 C 48.43 49.59 45.36 53.47 44.89 59.67 A 0.70 0.70 0.0 0 1 44.19 60.32 L 21.37 60.32 A 0.57 0.57 0.0 0 1 20.80 59.75 L 20.80 46.00 A 0.67 0.66 90.0 0 1 21.46 45.33 L 52.90 45.33 A 0.19 0.19 0.0 0 1 53.02 45.66 Z" />
<path fill="#00e3aa" d=" M 106.84 60.39 Q 94.11 60.44 76.15 60.36 C 69.65 60.33 65.66 61.51 63.26 66.94 Q 62.58 68.49 62.64 73.62 Q 62.68 77.17 62.64 95.48 A 3.96 3.95 -37.8 0 1 62.54 96.27 C 60.75 103.60 53.82 102.53 48.06 102.34 A 0.58 0.58 0.0 0 1 47.50 101.76 Q 47.54 65.93 47.50 64.59 C 47.24 56.19 49.84 50.09 57.22 46.66 Q 60.20 45.28 66.93 45.31 Q 89.93 45.39 106.85 45.33 A 0.55 0.55 0.0 0 1 107.40 45.88 L 107.40 59.83 A 0.56 0.56 0.0 0 1 106.84 60.39 Z" />
<path fill="#00e3aa" d=" M 36.65 63.00 A 0.41 0.41 0.0 0 1 37.01 63.60 Q 23.96 87.92 20.17 95.11 Q 16.57 101.95 23.36 104.78 A 2.99 2.95 55.7 0 0 24.48 105.00 L 56.54 105.00 A 2.06 1.97 36.8 0 0 57.03 104.94 Q 62.03 103.64 64.30 99.50 Q 65.59 97.15 65.36 90.86 Q 65.29 88.83 65.38 70.77 Q 65.41 65.01 71.05 63.33 Q 73.41 62.62 80.06 63.14 A 0.59 0.59 0.0 0 1 80.60 63.73 Q 80.53 95.72 80.61 99.31 Q 80.78 106.76 79.26 110.01 Q 76.45 116.00 70.59 118.69 Q 67.60 120.06 61.12 120.04 Q 26.53 119.91 21.37 120.05 Q 15.36 120.22 11.53 118.56 C 2.37 114.61 -1.51 104.32 2.92 95.16 Q 3.76 93.43 19.69 63.70 A 1.34 1.34 0.0 0 1 20.87 63.00 L 36.65 63.00 Z" />
<path fill="#00e3aa" d=" M 74.50 119.65 Q 82.00 114.72 83.15 105.54 A 0.58 0.57 -86.6 0 1 83.72 105.03 Q 91.93 104.92 100.67 105.06 Q 105.31 105.13 107.04 103.66 Q 109.77 101.33 108.91 97.01 A 1.37 1.22 -68.2 0 0 108.77 96.62 L 91.07 63.48 A 0.33 0.33 0.0 0 1 91.36 63.00 L 107.44 63.00 A 0.78 0.78 0.0 0 1 108.13 63.42 Q 121.22 87.86 121.46 88.27 Q 126.89 97.77 127.01 101.79 C 127.27 109.97 122.49 116.52 114.71 119.19 Q 111.77 120.21 106.69 120.02 Q 106.15 120.00 74.60 119.99 A 0.19 0.18 -61.5 0 1 74.50 119.65 Z" />
</g>
</svg>
