<svg width="66" height="66" viewBox="0 0 66 66" fill="none" xmlns="http://www.w3.org/2000/svg">
<circle cx="32.9183" cy="32.9183" r="32.9183" fill="#F5F5F5"/>
<g transform="translate(13 16.7) scale(0.18957)">
<path d="M155.341 133.198C155.349 133.211 155.358 133.219 155.364 133.233L155.4 133.269C155.379 133.248 155.36 133.223 155.341 133.198ZM129.89 102.16L129.888 102.162L110.372 119.641L110.38 119.655H110.372V147.095C110.372 160.699 121.399 171.725 135.003 171.725C148.524 171.725 159.501 160.833 159.631 147.344C161.952 148.068 164.422 148.457 166.979 148.457C180.582 148.457 191.612 137.432 191.612 123.826C191.612 118.976 190.209 114.455 187.79 110.646C200.455 109.625 210.414 99.024 210.414 86.091C210.414 73.174 200.469 62.578 187.819 61.543C190.219 57.741 191.612 53.236 191.612 48.404C191.612 34.802 180.582 23.773 166.979 23.773C164.421 23.773 161.955 24.164 159.631 24.887C159.525 11.378 148.537 0.458984 135.003 0.458984C121.399 0.458984 110.372 11.487 110.372 25.092V52.509L110.397 52.532L129.887 69.989L129.89 69.991V102.16ZM149.943 25.096C149.943 27.967 149.132 30.65 147.726 32.925L143.462 37.409L138.292 42.847H120.06V25.096C120.06 16.844 126.748 10.156 135.001 10.156C143.253 10.153 149.943 16.844 149.943 25.096ZM139.58 101.034V71.153H185.782C194.033 71.153 200.722 77.844 200.722 86.093C200.722 94.345 194.033 101.033 185.782 101.033L139.58 101.034ZM120.061 129.343H138.293L143.467 134.782L147.726 139.261C149.133 141.534 149.944 144.221 149.944 147.095C149.944 155.347 143.254 162.036 135.003 162.036C126.75 162.036 120.061 155.347 120.061 147.095V129.343ZM134.85 110.727H174.167C178.788 113.266 181.92 118.181 181.92 123.828C181.92 132.08 175.229 138.768 166.979 138.768C163.13 138.768 159.623 137.316 156.974 134.922L156.968 134.916C156.406 134.41 155.882 133.86 155.404 133.27L155.401 133.268L155.366 133.231L149.873 127.457L142.701 119.914L142.664 119.877L142.452 119.652H124.883L134.85 110.727ZM124.92 52.537H142.449L142.657 52.32L142.698 52.274L149.869 44.734L155.369 38.952L155.758 38.543L155.761 38.54C156.011 38.255 156.274 37.98 156.544 37.717C159.237 35.088 162.919 33.466 166.979 33.466C175.229 33.466 181.92 40.156 181.92 48.408C181.92 54.022 178.823 58.911 174.248 61.463H134.888L124.92 52.537ZM110.372 52.513V52.536H110.397L110.372 52.513ZM110.372 52.513V52.536H110.397L110.372 52.513ZM155.761 38.54L156.543 37.716C156.273 37.979 156.011 38.255 155.761 38.54ZM155.402 133.271C155.881 133.861 156.405 134.411 156.966 134.917L155.402 133.271ZM129.888 69.993H129.89V71.154H129.888V69.993ZM129.888 101.034V102.162L129.89 102.16V101.034H129.888ZM55.5668 133.271L55.6028 133.234C55.6098 133.219 55.6168 133.212 55.6238 133.199C55.6048 133.223 55.5858 133.248 55.5668 133.271ZM81.0768 69.995L81.0778 69.993L100.57 52.537L100.594 52.513V25.095C100.594 11.492 89.5688 0.463989 75.9628 0.463989C62.4268 0.463989 51.4418 11.382 51.3338 24.892C49.0118 24.168 46.5448 23.778 43.9868 23.778C30.3828 23.778 19.3558 34.806 19.3558 48.409C19.3558 53.24 20.7458 57.746 23.1478 61.548C10.4978 62.583 0.550781 73.179 0.550781 86.096C0.550781 99.029 10.5108 109.628 23.1758 110.649C20.7568 114.462 19.3558 118.98 19.3558 123.831C19.3558 137.435 30.3838 148.462 43.9868 148.462C46.5448 148.462 49.0118 148.07 51.3338 147.349C51.4658 160.838 62.4438 171.732 75.9628 171.732C89.5668 171.732 100.594 160.707 100.594 147.1V119.66H100.584L100.594 119.646L81.0768 102.167L81.0758 102.165V69.995H81.0768ZM75.9638 10.153C84.2158 10.153 90.9048 16.841 90.9048 25.093V42.845H72.6718L67.5008 37.407L63.2378 32.924C61.8328 30.648 61.0228 27.965 61.0228 25.093C61.0208 16.844 67.7118 10.153 75.9638 10.153ZM25.1848 101.034C16.9338 101.034 10.2438 94.346 10.2438 86.094C10.2438 77.845 16.9338 71.155 25.1848 71.155H71.3868V101.036L25.1848 101.034ZM90.9048 147.096C90.9048 155.348 84.2158 162.037 75.9628 162.037C67.7128 162.037 61.0228 155.348 61.0228 147.096C61.0228 144.222 61.8328 141.538 63.2398 139.262L67.4988 134.783L72.6728 129.343H90.9058L90.9048 147.096ZM86.0858 119.654H68.5168L68.3048 119.877L68.2678 119.914L61.0958 127.457L55.6038 133.233L55.5678 133.267L55.5648 133.269C55.0858 133.862 54.5628 134.41 54.0008 134.915L53.9938 134.921C51.3448 137.314 47.8368 138.767 43.9888 138.767C35.7378 138.767 29.0468 132.079 29.0468 123.828C29.0468 118.182 32.1788 113.265 36.7998 110.728H76.1168L86.0858 119.654ZM76.0788 61.462H36.7188C32.1418 58.911 29.0458 54.022 29.0458 48.407C29.0458 40.157 35.7368 33.467 43.9868 33.467C48.0468 33.467 51.7298 35.088 54.4218 37.717C54.6928 37.981 54.9548 38.257 55.2058 38.541L55.2078 38.543L55.5968 38.952L61.0958 44.735L68.2668 52.275L68.3078 52.319L68.5148 52.536H86.0438L76.0788 61.462ZM100.594 52.513L100.595 52.536H100.572L100.594 52.513ZM100.594 52.513L100.595 52.536H100.572L100.594 52.513ZM55.2068 38.54L54.4228 37.716C54.6928 37.979 54.9548 38.255 55.2068 38.54ZM55.5628 133.271C55.0858 133.861 54.5608 134.411 53.9998 134.917L55.5628 133.271ZM81.0778 101.034V102.162L81.0768 102.16L81.0778 101.034Z" fill="url(#paint0_linear_584_1052)"/>
</g>
<defs>
<linearGradient id="paint0_linear_584_1052" x1="38.4637" y1="19.0981" x2="172.502" y2="153.136" gradientUnits="userSpaceOnUse">
<stop stop-color="#FF805F"/>
<stop offset="0.5" stop-color="#B74BDD"/>
<stop offset="1" stop-color="#0379FF"/>
</linearGradient>
</defs>
</svg>
