<svg width="66" height="66" viewBox="0 0 66 66" fill="none" xmlns="http://www.w3.org/2000/svg">
<circle cx="32.9183" cy="32.9183" r="32.9183" fill="#F5F5F5"/>
<path d="M45.375 19.25C42.6326 16.8315 39.2506 15.2556 35.6348 14.7115C32.019 14.1674 28.323 14.6783 24.9904 16.1827C21.6577 17.6871 18.8299 20.1212 16.8463 23.1929C14.8628 26.2647 13.8077 29.8435 13.8077 33.5C13.8077 37.1565 14.8628 40.7353 16.8463 43.8071C18.8299 46.8788 21.6577 49.3129 24.9904 50.8173C28.323 52.3217 32.019 52.8326 35.6348 52.2885C39.2506 51.7444 42.6326 50.1686 45.375 47.75" stroke="url(#paint0_linear_52_227)" stroke-width="8" stroke-linecap="round"/>
<path opacity="0.9" d="M31.125 31.8375C32.3055 31.8375 33.2625 30.8805 33.2625 29.7C33.2625 28.5195 32.3055 27.5625 31.125 27.5625C29.9445 27.5625 28.9875 28.5195 28.9875 29.7C28.9875 30.8805 29.9445 31.8375 31.125 31.8375Z" fill="#00FFCC"/>
<path opacity="0.7" d="M37.3 35.1625C38.2182 35.1625 38.9625 34.4182 38.9625 33.5C38.9625 32.5818 38.2182 31.8375 37.3 31.8375C36.3818 31.8375 35.6375 32.5818 35.6375 33.5C35.6375 34.4182 36.3818 35.1625 37.3 35.1625Z" fill="#00CCFF"/>
<path opacity="0.6" d="M29.7 38.725C30.487 38.725 31.125 38.087 31.125 37.3C31.125 36.513 30.487 35.875 29.7 35.875C28.913 35.875 28.275 36.513 28.275 37.3C28.275 38.087 28.913 38.725 29.7 38.725Z" fill="#00FFCC"/>
<defs>
<linearGradient id="paint0_linear_52_227" x1="14.5" y1="14.5" x2="52.5" y2="52.5" gradientUnits="userSpaceOnUse">
<stop stop-color="#00FFCC"/>
<stop offset="1" stop-color="#00CCFF"/>
</linearGradient>
</defs>
</svg>
