<svg width="66" height="66" viewBox="0 0 66 66" fill="none" xmlns="http://www.w3.org/2000/svg">
<circle cx="32.9183" cy="32.9183" r="32.9183" fill="#F5F5F5"/>
<g clip-path="url(#clip0_2_1005)">
<path fill-rule="evenodd" clip-rule="evenodd" d="M44.0523 18.7467C43.3273 19.4931 42.8249 20.1907 42.0718 20.865C41.4303 20.0724 40.6708 19.3044 40.0065 18.8213C40.7711 18.4031 45.1851 17.5808 44.0523 18.7467ZM25.9691 36.9557C24.8594 44.861 26.6925 52.4295 28.568 52.502C30.3474 52.5705 29.5667 49.0979 30.9354 49.1001C33.0262 49.1034 33.2917 53.8424 35.086 53.8074C36.3116 53.7834 36.1108 50.7324 37.3843 49.5037C38.3574 48.5649 41.3225 48.3637 43.629 50.2937C45.338 51.7235 47.7062 53.8329 48.8304 53.8247C50.5697 53.8121 48.4848 50.38 45.7408 42.3831C50.241 41.5884 53.4337 39.7495 54.7214 34.0035C55.5407 30.3476 54.0607 27.2025 50.7794 26.432C49.1598 26.0515 47.6443 26.6317 47.6642 28.305C47.6882 30.3152 52.1544 30.1535 51.9216 34.2172C51.4228 42.9208 38.7977 39.8722 33.1882 37.8219C31.9674 37.3758 31.1216 36.6939 33.2465 36.6695C35.768 36.6405 39.7761 36.2504 41.7517 34.6942C45.1705 32.001 44.8914 26.5372 43.047 21.9601C45.1528 19.5291 46.0817 18.23 47.3792 15.9355C43.538 15.5794 40.3314 15.9015 37.4285 17.2681C37.3319 17.2352 37.2344 17.2027 37.1353 17.1711C33.1518 15.8984 28.4608 15.1337 24.2995 15.815L24.3388 14.9321C24.4665 13.2053 24.4869 11.5887 24.4926 10C20.529 12.3684 16.4531 17.6939 14.6657 21.9664C13.9787 23.6091 13.5668 25.4737 13.2378 27.4288C11.9128 35.3068 26.0735 36.2117 25.9691 36.9557Z" fill="#FF6841"/>
<path fill-rule="evenodd" clip-rule="evenodd" d="M18.263 28.128C19.0426 28.2489 19.6988 28.4698 19.6404 28.8703C19.5997 29.1481 19.0753 29.0892 18.7225 29.374C18.3219 29.6974 18.2641 30.0594 18.1677 30.0415C17.6914 29.9537 17.0946 28.9806 17.153 28.5718C17.2113 28.163 17.4835 28.0071 18.263 28.128Z" fill="white"/>
<path fill-rule="evenodd" clip-rule="evenodd" d="M17.7701 21.3587C16.5304 20.9429 15.2676 22.8803 15.1392 24.7924C15.0467 26.1693 16.8482 26.9693 18.2927 27.2525C18.9831 24.675 19.0098 21.7743 17.7701 21.3587Z" fill="white"/>
<path fill-rule="evenodd" clip-rule="evenodd" d="M27.7086 21.9129C29.9701 22.0143 30.7709 25.2629 29.7464 27.5553C29.0087 29.2058 24.8451 28.7101 22.3844 28.1997C22.756 23.6226 25.4472 21.8118 27.7086 21.9129Z" fill="white"/>
<path d="M16.6679 28.3343C16.7714 28.3474 16.8444 28.4425 16.8314 28.5464C16.8182 28.6506 16.724 28.7241 16.6207 28.711C15.8185 28.6075 14.4273 28.4832 13.0104 28.4734C12.0254 28.4665 11.0314 28.515 10.2227 28.6646C10.12 28.6836 10.0219 28.6151 10.0031 28.512C9.98445 28.4089 10.0522 28.3099 10.1547 28.291C10.9911 28.1365 12.0083 28.0861 13.0119 28.0931C14.4428 28.1032 15.8534 28.2293 16.6679 28.3343ZM16.7229 29.6557C16.8271 29.6482 16.9174 29.7271 16.925 29.832C16.9326 29.9367 16.8539 30.0277 16.75 30.0353C15.961 30.09 14.7623 30.2354 13.5848 30.5123C12.7403 30.7109 11.9072 30.9772 11.2477 31.3255C11.1552 31.3743 11.0409 31.3386 10.9926 31.2454C10.9441 31.1524 10.9796 31.0373 11.0721 30.9885C11.7619 30.6241 12.626 30.3473 13.4992 30.1421C14.7003 29.8597 15.9205 29.7115 16.7229 29.6557ZM16.4659 27.3428C16.5562 27.3946 16.5878 27.5106 16.5362 27.6016C16.4847 27.6926 16.3695 27.7244 16.2792 27.6726C15.5729 27.2663 14.5659 26.8154 13.4702 26.4419C12.5251 26.1196 11.5154 25.8556 10.5789 25.7288C10.4754 25.7149 10.4029 25.6192 10.4167 25.515C10.4304 25.4108 10.5257 25.3379 10.6292 25.3516C11.5895 25.4815 12.6236 25.752 13.5913 26.0821C14.7084 26.4629 15.7395 26.925 16.4659 27.3428Z" fill="#FF6841"/>
<path fill-rule="evenodd" clip-rule="evenodd" d="M36.4855 38.8695C35.251 38.5317 34.1222 38.163 33.1885 37.8214C34.5566 39.4747 35.3136 43.0486 35.8652 43.109C36.1361 43.1386 36.8968 40.6388 36.4855 38.8695ZM40.483 39.7405C39.5331 39.591 38.5909 39.3978 37.6873 39.1796C38.7439 39.8701 38.8446 42.7065 39.3813 42.6861C39.9238 42.6656 40.5078 40.6445 40.5078 39.9558C40.5078 39.8875 40.4989 39.8153 40.483 39.7405Z" fill="#E65535"/>
<path fill-rule="evenodd" clip-rule="evenodd" d="M28.2258 15.5682C26.8912 15.5332 25.5711 15.6062 24.3002 15.8143C21.9982 17.1829 19.842 19.5147 21.1081 19.3824C21.4087 19.3508 24.235 18.0044 26.1353 16.7616C26.8308 16.3068 27.5932 15.9015 28.2258 15.5682ZM35.6089 16.7182C34.0658 16.297 32.4461 15.9625 30.8136 15.7633C27.7099 17.4583 24.9698 20.3548 26.6655 20.4097C27.2642 20.4291 29.5023 19.1091 31.7234 18.069C32.872 17.5311 34.3663 17.1208 35.6089 16.7182Z" fill="#E65535"/>
</g>
<defs>
<clipPath id="clip0_2_1005">
<rect width="45" height="45" fill="white" transform="translate(10 10)"/>
</clipPath>
</defs>
</svg>
