<svg width="66" height="66" viewBox="0 0 66 66" fill="none" xmlns="http://www.w3.org/2000/svg">
<circle cx="32.9183" cy="32.9183" r="32.9183" fill="#F5F5F5"/>
<g clip-path="url(#clip0_258_2)">
<path fill-rule="evenodd" clip-rule="evenodd" d="M38.2072 13.8482C40.3247 9.69049 45.2993 10.0247 47.3379 11.6013C51.1973 14.5857 49.9879 19.0264 47.629 18.7515C46.1505 18.5792 44.947 15.0141 42.3056 17.0666C45.6336 27.3513 41.0823 32.2851 34.9714 33.9844C34.7349 34.0325 33.213 34.2374 33.0629 34.866C32.265 38.206 34.8878 39.832 36.4616 40.9891C40.6151 44.0436 43.8806 47.4437 43.525 51.6134C45.2607 51.5222 45.9422 51.3195 46.5611 49.8586C46.9181 49.015 47.5015 48.7234 47.4755 49.9379C47.4193 52.5519 45.9858 54.4765 43.3771 54.6021C40.9424 54.6224 37.8803 54.6245 34.966 54.6217H32.2263C31.8486 54.6217 31.621 54.4525 31.527 54.2166C31.4634 54.0571 31.4525 53.8641 31.4905 53.6651C31.5304 53.4564 31.6236 53.2461 31.766 53.0631C32.0912 52.6461 32.6795 52.3713 33.493 52.5774C33.65 52.6168 33.8091 52.5212 33.8482 52.3642C33.8756 52.2557 33.838 52.1459 33.7601 52.0755C32.4072 50.7235 32.021 49.3978 32.219 48.2905C32.3202 47.7249 32.5736 47.213 32.9275 46.7819C33.2835 46.3481 33.7429 45.9959 34.2525 45.7526C35.2779 45.2633 36.5008 45.2225 37.4883 45.8569C37.6244 45.9441 37.8055 45.9047 37.893 45.7685C37.9805 45.6321 37.9406 45.4513 37.8045 45.3638C36.6326 44.6111 35.1961 44.6525 34.0003 45.223C33.4168 45.5013 32.8888 45.9076 32.4758 46.4104C32.0609 46.916 31.7631 47.5187 31.6436 48.1871C31.4429 49.3089 31.7424 50.6064 32.8293 51.9222C32.1528 51.9565 31.6362 52.2781 31.305 52.703C31.1031 52.9621 30.9712 53.2598 30.9146 53.555C30.8564 53.8596 30.8775 54.1663 30.9834 54.432C31.0098 54.498 31.0409 54.5614 31.0771 54.6215H26.9158C25.587 54.6215 24.5675 53.5152 26.3475 52.268C24.6642 42.9759 28.6242 36.3885 26.7934 34.5576C24.1411 34.2731 21.6891 33.5749 19.9119 32.6191C14.0413 29.4614 14.3043 23.296 16.2289 23.2391C20.7732 23.1049 19.2391 20.0358 21.2285 16.3817C20.585 15.5079 20.6559 15.3418 19.0057 16.372C16.2285 18.1058 16.2182 13.4084 19.0303 11.2203C21.0008 9.68712 24.3159 8.90598 25.6734 13.1864C29.825 11.9459 34.374 12.6613 38.2072 13.8482Z" fill="#24AAD5"/>
<path fill-rule="evenodd" clip-rule="evenodd" d="M38.2076 13.8483C40.3252 9.69052 45.2996 10.0247 47.3382 11.6013C51.1976 14.5857 49.9882 19.0264 47.6293 18.7515C46.1508 18.5792 44.9473 15.0141 42.3059 17.0666C44.1269 22.6939 43.5887 26.7191 41.7274 29.4899C42.2652 26.2038 40.8937 22.4115 33.2829 24.7119C27.8752 26.3465 24.0364 23.454 25.3865 17.929C26.1023 14.9998 28.8006 12.4556 31.2099 12.555C33.6373 12.6553 36.0369 13.1761 38.2076 13.8483Z" fill="#1D8AC0"/>
<path fill-rule="evenodd" clip-rule="evenodd" d="M19.8713 23.4414C21.1372 23.4179 22.2357 23.5856 22.2521 24.2311C22.2635 24.6785 21.6346 25.0021 21.154 25.5465C20.6083 26.1645 20.3986 26.4769 20.2415 26.4754C19.4644 26.468 18.2553 25.1017 18.2365 24.4432C18.2177 23.7845 18.6056 23.4649 19.8713 23.4414Z" fill="white"/>
<path fill-rule="evenodd" clip-rule="evenodd" d="M29.1264 23.0389C30.4881 23.3395 31.2941 21.4533 31.5012 20.3476C31.8123 18.6873 28.3217 18.0091 27.9916 19.7713C27.7846 20.877 27.7647 22.7385 29.1264 23.0389Z" fill="white"/>
<path fill-rule="evenodd" clip-rule="evenodd" d="M22.1053 22.5245C23.1103 22.6742 23.6712 20.9543 23.8053 19.9684C24.0065 18.4878 21.4319 18.185 21.2183 19.7562C21.0845 20.7424 21.1004 22.3749 22.1053 22.5245Z" fill="white"/>
</g>
<defs>
<clipPath id="clip0_258_2">
<rect width="35" height="45" fill="white" transform="translate(15 10)"/>
</clipPath>
</defs>
</svg>
