<svg width="66" height="66" viewBox="0 0 66 66" fill="none" xmlns="http://www.w3.org/2000/svg">
<path d="M32.9183 65.8366C51.0986 65.8366 65.8366 51.0986 65.8366 32.9183C65.8366 14.738 51.0986 0 32.9183 0C14.738 0 0 14.738 0 32.9183C0 51.0986 14.738 65.8366 32.9183 65.8366Z" fill="#F5F5F5"/>
<path d="M32.192 43.784C32.192 42.656 32.36 41.624 32.528 40.952L35.312 28.232H42.176L43.376 22.664H37.376L39.272 14L31.04 16.64L29.744 22.64H24.2L23 28.232H28.52L26.36 38.096C25.856 40.424 25.4 42.632 25.4 44.888C25.4 50.48 29.048 52.544 34.256 52.544C35.552 52.544 37.04 52.112 38.336 51.824L39.68 45.944C38.4924 46.3967 37.2309 46.6246 35.96 46.616C34.256 46.616 33.032 45.56 33.032 43.784H32.192Z" fill="#026CDF"/>
</svg>
