<svg width="66" height="66" viewBox="0 0 66 66" fill="none" xmlns="http://www.w3.org/2000/svg">
<circle cx="32.9183" cy="32.9183" r="32.9183" fill="#F5F5F5"/>
<g clip-path="url(#clip0_511_2)">
<path fill-rule="evenodd" clip-rule="evenodd" d="M37.6134 14C42.5226 14 44.3035 14.5115 46.0987 15.4707C47.873 16.4097 49.3237 17.8608 50.2623 19.6353C51.2225 21.4295 51.734 23.2104 51.734 28.1206V37.8794C51.734 42.7896 51.2225 44.5705 50.2623 46.3647C49.3237 48.1392 47.873 49.5903 46.0987 50.5293C44.3035 51.4885 42.5236 52 37.6134 52H28.1206C23.2104 52 21.4295 51.4885 19.6353 50.5293C17.8606 49.5905 16.4095 48.1394 15.4707 46.3647C14.5115 44.5705 14 42.7896 14 37.8794V28.1216C14 23.2114 14.5115 21.4305 15.4707 19.6363C16.4095 17.8617 17.8606 16.4105 19.6353 15.4717C21.4295 14.5115 23.2104 14 28.1206 14H37.6134ZM34.9452 31.0004H30.7888L23.9303 37.1461L25.8262 39.4086L31.4184 34.3957L31.3968 51.9959L34.292 52L34.3125 34.3937L39.9078 39.4086L41.8037 37.1461L34.9452 31.0004ZM41.3066 25.2418L38.3672 28.4914L39.7476 29.7279L42.6879 26.4784L41.3066 25.2418ZM24.7591 25.2418L23.3788 26.4784L26.3182 29.7279L27.6995 28.4914L24.7591 25.2418ZM33.8524 21.0002L31.8734 21.0023L31.8816 27.0001L33.8596 26.997L33.8524 21.0002Z" fill="#613BEA"/>
</g>
<defs>
<clipPath id="clip0_511_2">
<rect width="38" height="38" fill="white" transform="translate(14 14)"/>
</clipPath>
</defs>
</svg>
