<svg width="66" height="66" viewBox="0 0 66 66" fill="none" xmlns="http://www.w3.org/2000/svg">
<circle cx="32.9183" cy="32.9183" r="32.9183" fill="#F5F5F5"/>
<svg x="11" y="17" width="44" height="32" viewBox="0 0 74 54" fill="none">
<path d="M71.9335 1.8667H50.1002C49.5479 1.8667 49.1002 2.31442 49.1002 2.8667V6.1843C49.1002 6.46994 48.978 6.74194 48.7646 6.93171L46.041 9.35262C45.5935 9.75041 45.5935 10.4497 46.041 10.8474L48.7646 13.2684C48.978 13.4581 49.1002 13.7301 49.1002 14.0158V17.7667C49.1002 18.319 49.5479 18.7667 50.1002 18.7667H71.9335C72.4858 18.7667 72.9335 18.319 72.9335 17.7667V2.8667C72.9335 2.31441 72.4858 1.8667 71.9335 1.8667Z" stroke="#564778" stroke-width="2"/>
<path d="M53.4336 7.93311H68.1669" stroke="#564778" stroke-width="2"/>
<path d="M53.4336 13.1333H68.1669" stroke="#564778" stroke-width="2"/>
<path d="M71.9335 34.7998H50.1002C49.5479 34.7998 49.1002 35.2475 49.1002 35.7998V39.1174C49.1002 39.403 48.978 39.675 48.7646 39.8648L46.041 42.2857C45.5935 42.6835 45.5935 43.3828 46.041 43.7805L48.7646 46.2015C48.978 46.3912 49.1002 46.6632 49.1002 46.9489V50.6998C49.1002 51.2521 49.5479 51.6998 50.1002 51.6998H71.9335C72.4858 51.6998 72.9335 51.2521 72.9335 50.6998V35.7998C72.9335 35.2475 72.4858 34.7998 71.9335 34.7998Z" stroke="#564778" stroke-width="2"/>
<path d="M53.4336 40.8667H68.1669" stroke="#564778" stroke-width="2"/>
<path d="M53.4336 46.0669H68.1669" stroke="#564778" stroke-width="2"/>
<path d="M2.00007 17.4668H23.8334C24.3857 17.4668 24.8334 17.9145 24.8334 18.4668V21.7844C24.8334 22.07 24.9555 22.342 25.169 22.5318L27.8926 24.9527C28.3401 25.3505 28.3401 26.0497 27.8926 26.4475L25.169 28.8685C24.9555 29.0582 24.8334 29.3302 24.8334 29.6159V33.3668C24.8334 33.9191 24.3857 34.3668 23.8334 34.3668H2.00006C1.44778 34.3668 1.00006 33.9191 1.00006 33.3668V18.4668C1.00006 17.9145 1.44778 17.4668 2.00007 17.4668Z" stroke="#564778" stroke-width="2"/>
<path d="M20.5 23.5332H5.76667" stroke="#564778" stroke-width="2"/>
<path d="M20.5 28.7334H5.76667" stroke="#564778" stroke-width="2"/>
<line x1="37.2837" y1="1" x2="37.2837" y2="53" stroke="#564779" stroke-width="1.5"/>
<circle cx="36.9669" cy="10.1002" r="4.76667" fill="#176164"/>
<circle cx="36.9669" cy="26.5665" r="4.76667" fill="#176164"/>
<circle cx="36.9669" cy="43.9" r="4.76667" fill="#176164"/>
</svg>
</svg>
