<svg width="66" height="66" viewBox="0 0 66 66" fill="none" xmlns="http://www.w3.org/2000/svg">
<circle cx="32.9183" cy="32.9183" r="32.9183" fill="#F5F5F5"/>
<path d="M45.2277 28.2457C45.2048 28.6811 45.0942 29.1074 44.9027 29.4991C44.7112 29.8909 44.4427 30.2399 44.1132 30.5255L35.3327 38.1814C34.7262 38.7099 33.9484 39.0001 33.1439 38.998C33.1052 38.9989 33.0664 38.9972 33.0279 38.993L32.6951 38.963C32.0477 38.8686 31.4434 38.5824 30.9602 38.1413L25.8765 33.5317C24.6258 32.4044 24.3282 30.6106 25.1603 29.2679C25.4174 28.8565 25.7615 28.5065 26.1684 28.2426C26.5754 27.9787 27.0353 27.8073 27.5157 27.7404C27.9961 27.6735 28.4853 27.7128 28.9489 27.8555C29.4124 27.9983 29.839 28.2409 30.1986 28.5664L31.8982 30.0996C32.2593 30.4285 32.7289 30.6129 33.2173 30.6176C33.7057 30.6222 34.1787 30.4467 34.546 30.1246L39.6801 25.6504C40.6938 24.7685 42.0807 24.523 43.2155 25.019C43.8428 25.2835 44.373 25.7356 44.7333 26.3133C45.0936 26.891 45.2663 27.566 45.2277 28.2457Z" fill="#25CF60"/>
<path d="M26.8583 54.5943C14.7035 51.3153 7.50026 38.8239 10.8008 26.7485C14.1014 14.6731 26.6751 7.51656 38.8298 10.7956C39.2595 10.9104 39.6623 11.109 40.015 11.38C40.3676 11.651 40.6633 11.9891 40.8848 12.3747C41.1064 12.7604 41.2495 13.186 41.306 13.6272C41.3625 14.0684 41.3312 14.5163 41.2139 14.9454C41.0966 15.3744 40.8957 15.776 40.6227 16.1271C40.3497 16.4782 40.0099 16.7719 39.623 16.9912C39.2361 17.2106 38.8096 17.3513 38.3681 17.4052C37.9266 17.4591 37.4788 17.4253 37.0505 17.3055C28.5095 15.0014 19.6736 20.0306 17.3542 28.5164C15.0348 37.0019 20.0968 45.78 28.6377 48.0841C37.1793 50.3884 46.0151 45.3595 48.3345 36.874C48.573 36.0096 49.1439 35.2746 49.9225 34.8297C50.7012 34.3849 51.6243 34.2663 52.4901 34.4999C53.3559 34.7334 54.0941 35.3002 54.5434 36.0763C54.9926 36.8524 55.1165 37.7748 54.8878 38.6419C51.5872 50.7174 39.0131 57.8734 26.8583 54.5943Z" fill="#25CF60"/>
</svg>
