<svg width="66" height="66" viewBox="0 0 66 66" fill="none" xmlns="http://www.w3.org/2000/svg">
<circle cx="32.9183" cy="32.9183" r="32.9183" fill="#F5F5F5"/>
<path d="M35.3537 22.1567C35.3416 23.6798 34.0939 24.9031 32.575 24.895C31.0479 24.8828 29.8287 23.6392 29.8326 22.1162C29.8488 20.5931 31.0965 19.3658 32.6115 19.3779C34.1386 19.386 35.3659 20.6255 35.3537 22.1567Z" fill="#F35218"/>
<path d="M33.9077 30.1242C35.2161 30.8979 35.6577 32.587 34.8839 33.8995C34.1143 35.2119 32.4252 35.6534 31.1086 34.8757C29.7964 34.1061 29.3628 32.417 30.1285 31.1045C30.902 29.7921 32.5952 29.3546 33.9077 30.1242Z" fill="#F35218"/>
<path d="M24.9598 24.8627C26.2722 25.6363 26.7097 27.3255 25.9401 28.6378C25.1664 29.9503 23.4732 30.3878 22.1648 29.6181C20.8524 28.8444 20.415 27.1513 21.1805 25.8429C21.9502 24.5305 23.6433 24.093 24.9558 24.8627H24.9598Z" fill="#F35218"/>
<path d="M42.8557 35.3821C44.1682 36.1517 44.6096 37.8408 43.8359 39.1574C43.0663 40.4738 41.3731 40.9113 40.0647 40.1375C38.7524 39.3638 38.3149 37.6706 39.0846 36.3623C39.8542 35.0539 41.5391 34.6125 42.8557 35.3821Z" fill="#F35218"/>
<path d="M16.0116 19.6047C17.324 20.3743 17.7575 22.0675 16.9919 23.3799C16.2182 24.6923 14.5291 25.1298 13.2167 24.3601C11.9042 23.5865 11.4627 21.8973 12.2364 20.5849C13.0101 19.2725 14.7033 18.835 16.0157 19.6087L16.0116 19.6047Z" fill="#F35218"/>
<path d="M51.7591 40.6561C53.0755 41.4298 53.513 43.1189 52.7394 44.4273C51.9737 45.7437 50.2847 46.1812 48.9683 45.4076C47.6597 44.6339 47.2183 42.9487 47.996 41.6323C48.7656 40.324 50.4549 39.8824 51.7632 40.6561H51.7591Z" fill="#F35218"/>
<path d="M24.8463 40.0283C26.1708 39.279 26.6367 37.598 25.8832 36.2734C25.1298 34.9448 23.4528 34.483 22.1283 35.2284C20.8037 35.9818 20.3338 37.6628 21.0832 38.9874C21.8326 40.316 23.5177 40.7818 24.8463 40.0283Z" fill="#F35218"/>
<path d="M42.9084 29.8003C44.233 29.0508 44.6987 27.3698 43.9453 26.0412C43.1961 24.7166 41.5109 24.2507 40.1822 25.0001C38.8617 25.7495 38.396 27.4305 39.1494 28.7592C39.8988 30.0836 41.5798 30.5495 42.9084 29.8003Z" fill="#F35218"/>
<path d="M15.8173 45.1401C17.1378 44.3907 17.6077 42.7096 16.8583 41.3852C16.1049 40.0606 14.4239 39.5947 13.0953 40.3442C11.7707 41.0975 11.3089 42.7786 12.0542 44.1032C12.8036 45.4317 14.4887 45.8976 15.8173 45.1401Z" fill="#F35218"/>
<path d="M51.8968 24.672C53.2214 23.9185 53.6912 22.2375 52.9378 20.9129C52.1884 19.5884 50.5034 19.1225 49.1747 19.8719C47.8542 20.6213 47.3844 22.3064 48.1378 23.6309C48.8872 24.9515 50.5683 25.4214 51.8968 24.672Z" fill="#F35218"/>
<path d="M35.1918 42.9123C35.1835 44.4353 33.94 45.6626 32.417 45.6505C30.894 45.6424 29.6706 44.3989 29.6787 42.8718C29.691 41.3447 30.9345 40.1213 32.4575 40.1376C33.9766 40.1456 35.2039 41.3891 35.1918 42.9123Z" fill="#F35218"/>
<path d="M35.4307 11.7829C35.4185 13.3019 34.175 14.5292 32.6518 14.5171C31.1329 14.5049 29.9015 13.2614 29.9178 11.7424C29.9258 10.2152 31.1652 8.99194 32.6923 9.00004C34.2155 9.01219 35.4387 10.2558 35.4307 11.7829Z" fill="#F35218"/>
<path d="M35.0903 53.2576C35.0743 54.7806 33.8307 56.0079 32.3075 55.9999C30.7886 55.9877 29.5611 54.7442 29.5733 53.2171C29.5854 51.698 30.8292 50.4666 32.3481 50.4829C33.8752 50.495 35.0985 51.7385 35.0903 53.2576Z" fill="#F35218"/>
<path d="M53.2457 35.2202C54.7647 35.2161 56.0042 33.9806 56.0003 32.4617C56.0003 30.9385 54.7647 29.7032 53.2417 29.7032C51.7185 29.7032 50.4832 30.9385 50.4832 32.4617C50.4871 33.9847 51.7268 35.2202 53.2457 35.2202Z" fill="#F35218"/>
<path d="M24.8544 13.0265C25.5917 14.3592 25.1096 16.0402 23.777 16.7733C22.4443 17.5146 20.7632 17.0326 20.026 15.704C19.2888 14.3753 19.7668 12.6943 21.0995 11.9571C22.4321 11.2158 24.1091 11.6938 24.8544 13.0265Z" fill="#F35218"/>
<path d="M44.9619 49.3127C45.6992 50.6454 45.2171 52.3223 43.8885 53.0596C42.5559 53.8009 40.8788 53.3187 40.1375 51.9861C39.4004 50.6534 39.8743 48.9765 41.2109 48.2353C42.5396 47.498 44.2207 47.976 44.9578 49.3086L44.9619 49.3127Z" fill="#F35218"/>
<path d="M45.4521 16.0441C44.6744 17.3606 42.9852 17.79 41.6768 17.0203C40.3645 16.2426 39.9309 14.5535 40.7088 13.241C41.4823 11.9286 43.1755 11.4952 44.488 12.2689C45.7964 13.0466 46.2338 14.7357 45.4562 16.0441H45.4521Z" fill="#F35218"/>
<path d="M24.3157 51.7429C23.542 53.0551 21.8448 53.4887 20.5364 52.7109C19.224 51.9373 18.7946 50.2481 19.5683 48.9356C20.342 47.6272 22.0352 47.1938 23.3435 47.9676C24.6519 48.7413 25.0894 50.4304 24.3116 51.7388L24.3157 51.7429Z" fill="#F35218"/>
<path d="M11.7626 35.2971C13.2856 35.2971 14.517 34.0577 14.517 32.5345C14.517 31.0074 13.2775 29.776 11.7585 29.7801C10.2355 29.7801 9 31.0156 9 32.5427C9 34.0699 10.2395 35.2971 11.7626 35.2971Z" fill="#F35218"/>
</svg>
