<svg width="66" height="66" viewBox="0 0 66 66" fill="none" xmlns="http://www.w3.org/2000/svg">
<circle cx="32.9183" cy="32.9183" r="32.9183" fill="#F5F5F5"/>
<g clip-path="url(#clip0_4608_40)">
<path d="M48.1253 13H18.8747C16.1873 13.006 14.0094 15.1841 14 17.875V47.125C14 49.8063 16.1933 52 18.8747 52H48.1253C50.8067 52 53 49.8063 53 47.125V17.875C53 15.1937 50.8067 13 48.1253 13Z" fill="#E44332"/>
<path d="M22.2468 31.4037C22.9267 31.0066 37.5335 22.5182 37.8674 22.3215C38.2013 22.1273 38.2195 21.5299 37.8431 21.3137C37.4691 21.0988 36.7588 20.6909 36.4953 20.5342C36.1191 20.3273 35.6619 20.3328 35.2909 20.5488C35.1039 20.6581 22.6232 27.9068 22.2067 28.1448C21.7053 28.4313 21.0897 28.4362 20.5918 28.1448L14 24.2764V27.5644C15.6027 28.509 19.5938 30.8549 20.5603 31.4073C21.137 31.7352 21.6895 31.7279 22.248 31.4037" fill="white"/>
<path d="M22.2468 37.6185C22.9267 37.2215 37.5335 28.7331 37.8674 28.5364C38.2013 28.3421 38.2195 27.7447 37.8431 27.5286C37.4691 27.3137 36.7588 26.9057 36.4953 26.7491C36.1191 26.5421 35.6619 26.5476 35.2909 26.7636C35.1039 26.8729 22.6232 34.1217 22.2067 34.3596C21.7053 34.6462 21.0897 34.651 20.5918 34.3596L14 30.4912V33.7792C15.6027 34.7239 19.5938 37.0697 20.5603 37.6222C21.137 37.95 21.6895 37.9427 22.248 37.6185" fill="white"/>
<path d="M22.2468 44.224C22.9267 43.827 37.5335 35.3385 37.8674 35.1418C38.2013 34.9476 38.2195 34.3502 37.8431 34.1341C37.4691 33.9191 36.7588 33.5112 36.4953 33.3545C36.1191 33.1476 35.6619 33.1531 35.2909 33.3691C35.1039 33.4784 22.6232 40.7271 22.2067 40.9651C21.7053 41.2516 21.0897 41.2565 20.5918 40.9651L14 37.0967V40.3847C15.6027 41.3294 19.5938 43.6752 20.5603 44.2276C21.137 44.5555 21.6895 44.5482 22.248 44.224" fill="white"/>
</g>
<defs>
<clipPath id="clip0_4608_40">
<rect width="39" height="39" fill="white" transform="translate(14 13)"/>
</clipPath>
</defs>
</svg>
