<svg width="66" height="66" viewBox="0 0 66 66" fill="none" xmlns="http://www.w3.org/2000/svg">
<circle cx="32.9183" cy="32.9183" r="32.9183" fill="#F5F5F5"/>
<svg x="13" y="13" width="40" height="40" viewBox="0 0 400 400" fill="none">
<path fill="#1853db" d="M 180.93 0.00 L 180.98 69.23 A 0.77 0.76 90.0 0 1 180.22 70.00 L 71.42 70.00 A 0.42 0.42 0.0 0 0 71.00 70.42 L 71.00 328.63 A 0.37 0.37 0.0 0 0 71.37 329.00 L 329.48 329.00 A 0.52 0.52 0.0 0 0 330.00 328.48 L 330.00 219.76 A 0.75 0.74 0.0 0 1 330.75 219.02 L 400.00 219.07 L 400.00 400.00 L 0.58 400.00 Q 0.32 399.64 0.00 399.48 L 0.00 3.01 Q 0.17 2.56 0.00 2.36 L 0.00 1.02 Q -0.24 0.00 1.74 0.00 L 180.93 0.00 Z"/>
<path fill="#ff0000" d="M 400.00 0.00 L 400.00 179.96 L 330.44 179.99 A 0.45 0.44 90.0 0 1 330.00 179.54 L 330.00 70.68 A 0.68 0.68 0.0 0 0 329.32 70.00 L 220.42 70.00 A 0.42 0.42 0.0 0 1 220.00 69.58 L 220.05 0.00 L 400.00 0.00 Z"/>
<rect fill="#ff0000" x="159.80" y="159.68" width="80.38" height="80.38" rx="0.40"/>
</svg>
</svg>
