<svg width="66" height="66" viewBox="0 0 66 66" fill="none" xmlns="http://www.w3.org/2000/svg">
<circle cx="32.9183" cy="32.9183" r="32.9183" fill="#F5F5F5"/>
<path d="M37.8828 52.8369C37.5104 53.7153 36.6524 54.4272 35.9736 54.4272H27.7081C27.0309 54.4272 26.781 53.7091 27.1534 52.8369L36.5267 30.8754C36.8991 29.997 37.7571 29.2851 38.4344 29.2851H46.7029C47.3802 29.2851 47.6301 30.0048 47.2576 30.8754L37.8828 52.8369Z" fill="#4079E0"/>
<path d="M26.0566 42.6513C25.7109 42.2113 24.9205 41.8562 24.2966 41.8562H16.6723C16.0485 41.8562 15.8175 42.216 16.1616 42.6513L24.8042 53.6321C25.1483 54.0721 25.9387 54.4272 26.5641 54.4272H34.1869C34.8107 54.4272 35.0417 54.0673 34.6976 53.6321L26.0566 42.6513Z" fill="#4079E0"/>
<path d="M37.2888 13.6342C37.6816 12.7354 38.5805 12 39.2907 12H48.2366C48.9468 12 49.2108 12.7354 48.818 13.6342L38.7109 36.9409C38.318 37.8397 37.4192 38.5751 36.7089 38.5751H27.7631C27.0528 38.5751 26.7888 37.8397 27.1817 36.9409L37.2888 13.6342Z" fill="#605EBA"/>
<path d="M25.5553 37.8099C25.9183 38.231 26.7543 38.5751 27.4143 38.5751H35.7206C36.3805 38.5751 36.6241 38.2294 36.2611 37.8099L26.8737 26.9077C26.5107 26.4865 25.6747 26.1424 25.0148 26.1424H16.7085C16.0485 26.1424 15.8049 26.4865 16.1695 26.9077L25.5553 37.8099Z" fill="#605EBA"/>
</svg>
