<svg width="66" height="66" viewBox="0 0 66 66" fill="none" xmlns="http://www.w3.org/2000/svg">
<circle cx="32.9183" cy="32.9183" r="32.9183" fill="#F5F5F5"/>
<path fill-rule="evenodd" clip-rule="evenodd" d="M47.4889 14H18.5172C17.3202 14 16.1722 14.4754 15.3252 15.3217C14.4783 16.1681 14.0017 17.3162 14 18.5139V47.4617C13.9976 48.0568 14.1127 48.6465 14.3386 49.197C14.5646 49.7476 14.8969 50.248 15.3166 50.6697C15.7363 51.0913 16.2351 51.4259 16.7843 51.6542C17.3335 51.8825 17.9224 52 18.5172 52H47.4889C48.0831 51.9992 48.6714 51.8811 49.2199 51.6524C49.7684 51.4238 50.2665 51.0891 50.6855 50.6675C51.1046 50.2459 51.4364 49.7457 51.662 49.1956C51.8875 48.6455 52.0024 48.0563 52 47.4617V18.5139C51.9984 17.3173 51.5226 16.1701 50.6769 15.3239C49.8313 14.4777 48.6848 14.0016 47.4889 14ZM30.3883 41.37C30.3875 41.5689 30.3475 41.7657 30.2705 41.9491C30.1935 42.1325 30.0811 42.2988 29.9397 42.4386C29.7983 42.5784 29.6307 42.6889 29.4465 42.7637C29.2623 42.8386 29.0652 42.8762 28.8664 42.8746H22.5351C22.1374 42.873 21.7565 42.7138 21.4758 42.4318C21.1951 42.1498 21.0375 41.768 21.0375 41.37V22.5162C21.0375 22.1182 21.1951 21.7364 21.4758 21.4544C21.7565 21.1724 22.1374 21.0132 22.5351 21.0115H28.8664C29.2647 21.0131 29.6462 21.1722 29.9279 21.454C30.2095 21.7358 30.3685 22.1176 30.3701 22.5162L30.3883 41.37ZM44.999 32.7137C44.999 32.9128 44.9595 33.11 44.8828 33.2937C44.8061 33.4775 44.6937 33.6442 44.5522 33.7842C44.4106 33.9241 44.2427 34.0346 44.0581 34.1091C43.8736 34.1836 43.6761 34.2208 43.4771 34.2183H37.1458C36.7475 34.2167 36.3659 34.0577 36.0843 33.7759C35.8026 33.494 35.6437 33.1123 35.6421 32.7137V22.5162C35.6437 22.1176 35.8026 21.7358 36.0843 21.454C36.3659 21.1722 36.7475 21.0131 37.1458 21.0115H43.4771C43.8748 21.0132 44.2557 21.1724 44.5364 21.4544C44.8171 21.7364 44.9747 22.1182 44.9747 22.5162L44.999 32.7137Z" fill="url(#paint0_linear_2682_128)"/>
<defs>
<linearGradient id="paint0_linear_2682_128" x1="33.0183" y1="52" x2="33.0183" y2="14" gradientUnits="userSpaceOnUse">
<stop stop-color="#0052CC"/>
<stop offset="1" stop-color="#2684FF"/>
</linearGradient>
</defs>
</svg>
