<svg width="66" height="66" viewBox="0 0 66 66" fill="none" xmlns="http://www.w3.org/2000/svg">
<circle cx="32.9183" cy="32.9183" r="32.9183" fill="#F5F5F5"/>
<g clip-path="url(#clip0_211_2)">
<path d="M33 9C19.7654 9 9 19.7654 9 33C9 46.2346 19.7654 57 33 57C46.2346 57 57 46.2346 57 33C57 19.7654 46.2346 9 33 9ZM47.5828 20.6592C47.5828 20.6592 47.5474 20.6844 47.5272 20.6996C46.7749 21.26 46.1336 21.6489 45.2449 22.0478C44.0078 22.6133 42.7353 23.1586 41.4932 23.6939C40.6398 24.0271 39.7663 24.4715 38.9634 24.5624C37.5193 24.4614 39.3118 20.5733 39.5895 19.8311C40.0894 18.6242 40.7004 17.4124 41.4831 16.3621C41.574 16.2409 41.6648 16.1298 41.7608 16.0137C43.9926 17.17 45.972 18.7555 47.5828 20.6541V20.6592ZM33 13.8879C35.2167 13.8879 37.3476 14.2666 39.327 14.9634C38.5897 16.1702 37.9636 17.4881 37.4991 18.801C37.2617 19.4523 37.085 20.1189 36.878 20.7602C36.5195 21.8306 36.0246 22.9213 35.4288 23.9262C34.6209 25.2693 33.5857 26.5872 32.3183 27.3345C30.4753 28.2788 28.7029 28.5817 26.4963 28.4656C25.2087 28.3848 23.805 27.89 22.6385 27.5214C21.9569 27.2992 21.3156 27.0871 20.644 26.8498C19.6947 26.5216 18.7656 26.1631 17.8315 25.8954C17.0741 25.6834 16.251 25.5369 15.438 25.4511C18.3718 18.6545 25.138 13.8828 33 13.8828V13.8879ZM13.8828 33.0051C13.8828 31.5609 14.0444 30.1572 14.3474 28.8039C18.1546 29.6724 22.2194 31.0964 25.5925 32.8334C26.5317 33.3333 27.1174 34.5603 26.8599 35.5904C26.5923 36.6457 26.3196 37.5092 26.1631 38.8422C25.5369 43.3009 26.9861 48.421 29.7633 51.8445C20.7602 50.3044 13.8828 42.4425 13.8828 33.0051ZM35.1561 52.0011C34.843 50.4963 34.1715 49.1734 33.5908 47.7242C33.101 46.5881 32.6213 45.3863 32.0457 44.3057C31.677 43.619 31.2226 42.8767 30.7833 42.2203C30.3389 41.5639 29.9148 41.0286 29.7482 40.246C29.4452 39.1098 29.5159 37.7364 30.041 36.6911C30.349 36.0802 30.7883 35.3429 31.3589 34.9137C31.9346 34.4946 33.3383 33.5857 33.9796 33.2878C35.0905 32.7728 36.3225 32.0255 37.6152 31.5609C38.6049 31.2226 45.7296 29.8491 47.199 29.3846C48.6533 28.9604 50.052 28.3646 51.3244 27.5769C51.8344 29.2937 52.1071 31.1166 52.1071 32.995C52.1071 42.806 44.6743 50.9154 35.146 51.991L35.1561 52.0011Z" fill="#2A3A5C"/>
</g>
<defs>
<clipPath id="clip0_211_2">
<rect width="48" height="48" fill="white" transform="translate(9 9)"/>
</clipPath>
</defs>
</svg>
