<svg width="66" height="66" viewBox="0 0 66 66" fill="none" xmlns="http://www.w3.org/2000/svg">
<circle cx="32.9183" cy="32.9183" r="32.9183" fill="#F5F5F5"/>
<svg x="8" y="8" width="50" height="50" viewBox="42 45 172 172" fill="none" preserveAspectRatio="xMidYMid meet">
<path fill="#000000" d="M 107.89 78.88 A 5.05 5.05 0.0 0 1 109.32 75.36 C 113.82 70.71 119.68 64.76 126.64 64.71 Q 139.52 64.61 146.55 74.04 Q 148.11 76.14 148.31 78.45 Q 148.82 84.47 148.30 91.27 A 7.93 7.90 -34.1 0 1 147.95 93.07 C 146.45 97.74 145.63 102.57 141.49 103.89 Q 128.29 108.08 115.93 103.87 C 114.08 103.25 112.34 101.12 111.60 98.95 Q 110.49 95.70 108.17 90.77 A 2.86 2.80 -58.4 0 1 107.89 89.54 L 107.89 78.88 Z"/>
<path fill="#000000" d="M 103.15 91.87 A 1.42 1.40 61.8 0 1 102.66 93.53 C 99.04 96.11 97.84 100.16 94.08 103.23 A 3.03 3.02 17.5 0 1 92.98 103.80 C 85.51 105.99 75.89 104.61 72.97 96.24 Q 67.44 80.40 81.85 73.99 C 90.76 70.02 100.75 78.71 101.98 87.55 Q 102.27 89.60 103.15 91.87 Z"/>
<path fill="#000000" d="M 155.90 94.07 A 4.62 4.59 28.2 0 1 155.17 91.69 Q 155.00 83.54 159.87 77.38 Q 161.87 74.84 163.10 74.35 Q 169.20 71.88 175.55 74.78 Q 187.96 80.44 184.35 94.37 Q 183.71 96.84 180.32 101.35 A 2.80 2.74 -85.4 0 1 179.47 102.09 Q 171.40 106.56 162.86 103.40 Q 160.81 102.64 159.71 100.56 Q 157.99 97.31 155.90 94.07 Z"/>
<path fill="#000000" d="M 62.50 91.58 A 1.58 1.56 -24.0 0 1 63.62 92.00 C 66.62 94.90 68.16 98.59 67.27 102.80 C 66.39 106.94 65.62 110.88 60.99 111.57 C 56.64 112.21 52.02 111.20 50.19 106.55 C 48.85 103.16 48.13 97.66 51.57 95.16 Q 56.20 91.81 62.50 91.58 Z"/>
<path fill="#000000" d="M 188.89 105.98 Q 188.62 103.60 189.55 99.02 C 190.47 94.44 194.35 92.49 198.81 92.44 C 207.63 92.33 209.17 98.09 207.44 105.53 Q 206.43 109.87 202.88 110.64 C 197.55 111.80 193.04 111.25 189.31 106.94 A 1.76 1.72 -69.3 0 1 188.89 105.98 Z"/>
<path fill="#000000" d="M 124.50 112.48 C 126.88 111.91 129.96 111.75 132.36 113.13 C 139.36 117.18 146.47 123.49 142.74 132.56 C 141.21 136.29 140.48 138.54 137.58 140.58 C 132.91 143.87 129.32 145.44 123.77 142.38 C 121.97 141.38 118.70 140.28 117.02 138.52 C 109.91 131.08 113.78 121.75 120.16 115.39 Q 122.63 112.92 124.50 112.48 Z"/>
<path fill="#2a75fe" d="M 163.86 140.64 Q 160.01 140.94 155.32 136.77 A 3.52 3.39 9.7 0 1 154.47 135.62 C 151.88 130.00 150.35 119.43 158.34 117.54 Q 165.61 115.83 172.29 120.09 C 177.35 123.31 176.76 131.75 173.22 135.74 Q 169.24 140.23 163.86 140.64 Z"/>
<path fill="#2a75fe" d="M 92.77 142.04 A 3.45 3.45 0.0 0 1 90.60 141.54 C 83.56 137.21 80.34 132.29 81.70 123.81 A 3.19 3.15 -13.5 0 1 82.98 121.75 Q 89.54 117.07 97.32 118.37 Q 103.38 119.37 104.19 125.02 C 104.67 128.28 104.78 134.80 102.24 137.49 Q 98.45 141.50 92.77 142.04 Z"/>
<path fill="#2a75fe" d="M 72.38 134.51 A 3.62 3.62 0.0 0 1 69.09 138.43 L 68.10 138.52 A 10.47 6.36 -5.0 0 1 57.12 133.09 L 56.88 130.40 A 10.47 6.36 -5.0 0 1 66.76 123.15 L 67.74 123.07 A 3.62 3.62 0.0 0 1 71.66 126.36 L 72.38 134.51 Z"/>
<path fill="#2a75fe" d="M 190.67 123.58 L 196.10 124.51 A 4.38 4.38 0.0 0 1 199.67 129.58 L 198.81 134.60 A 4.38 4.38 0.0 0 1 194.49 138.23 L 188.89 138.23 A 4.38 4.38 0.0 0 1 184.58 133.10 L 185.60 127.15 A 4.38 4.38 0.0 0 1 190.67 123.58 Z"/>
<ellipse fill="#2a75fe" cx="0.00" cy="0.00" transform="translate(76.93,156.21) rotate(-17.9)" rx="5.75" ry="5.55"/>
<ellipse fill="#2a75fe" cx="0.00" cy="0.00" transform="translate(180.29,156.52) rotate(-99.5)" rx="5.78" ry="5.28"/>
<rect fill="#000000" x="-11.78" y="-11.60" transform="translate(128.42,164.41) rotate(13.7)" width="23.56" height="23.20" rx="9.74"/>
<path fill="#2a75fe" d="M 90.51 181.24 Q 90.14 180.53 90.41 179.10 Q 91.12 175.44 91.42 173.25 A 7.88 7.83 58.9 0 1 91.80 171.69 Q 94.03 165.33 95.58 157.41 Q 95.78 156.41 97.35 154.62 A 2.10 2.10 0.0 0 1 98.25 154.02 Q 103.07 152.40 107.09 154.12 A 2.75 2.74 16.6 0 1 108.71 157.11 L 107.32 165.20 A 2.55 2.55 0.0 0 1 105.46 167.23 C 101.73 168.23 96.28 168.84 95.07 172.57 Q 93.83 176.40 92.17 181.12 A 0.91 0.91 0.0 0 1 90.51 181.24 Z"/>
<path fill="#2a75fe" d="M 164.76 180.24 L 164.28 179.82 A 0.89 0.81 12.6 0 1 164.07 179.52 L 161.93 173.89 A 6.79 6.76 5.9 0 0 159.22 170.57 Q 156.40 168.79 151.75 167.29 C 147.97 166.07 147.66 159.79 147.87 156.54 A 2.51 2.51 0.0 0 1 149.74 154.26 C 154.82 152.94 161.80 152.36 162.85 159.65 Q 163.56 164.59 165.23 170.76 C 166.05 173.78 166.28 176.96 165.77 179.88 A 0.62 0.62 0.0 0 1 164.76 180.24 Z"/>
<path fill="#2a75fe" d="M 105.85 191.39 A 2.13 2.13 0.0 0 1 104.19 188.88 L 104.97 185.07 A 5.05 4.21 -78.4 0 1 110.11 180.97 L 110.78 181.11 A 5.05 4.21 -78.4 0 1 113.88 186.90 L 113.10 190.71 A 2.13 2.13 0.0 0 1 110.59 192.36 L 105.85 191.39 Z"/>
<ellipse fill="#2a75fe" cx="0.00" cy="0.00" transform="translate(147.78,186.89) rotate(-129.9)" rx="5.73" ry="4.82"/>
<path fill="#000000" d="M 132.46 200.31 L 125.50 201.22 A 3.66 3.66 0.0 0 1 121.40 198.06 L 120.37 190.22 A 3.66 3.66 0.0 0 1 124.62 186.14 L 132.61 187.52 A 3.66 3.66 0.0 0 1 135.65 191.12 L 135.65 196.68 A 3.66 3.66 0.0 0 1 132.46 200.31 Z"/>
</svg>
</svg>
