<svg width="66" height="66" viewBox="0 0 66 66" fill="none" xmlns="http://www.w3.org/2000/svg">
<circle cx="32.9183" cy="32.9183" r="32.9183" fill="#F5F5F5"/>
<path fill-rule="evenodd" clip-rule="evenodd" d="M11.4496 41.1157C11.4503 40.896 11.4507 40.6801 11.4507 40.4748C11.4507 33.0534 15.5715 26.1157 21.7995 22.2314L21.6044 21.8682C20.2569 21.5933 19.2429 20.4013 19.2429 18.9728C19.2429 17.3405 20.5664 16.0174 22.1986 16.0174C23.8311 16.0174 25.1543 17.3405 25.1543 18.9728C25.1543 19.3766 25.0733 19.7614 24.9267 20.112L25.1495 20.5268C27.5919 19.5428 30.2547 18.9968 33.0474 19.0021C35.8601 19.0075 38.5062 19.5346 40.9159 20.4776L41.0981 20.1387C40.9397 19.7764 40.8518 19.3762 40.8518 18.9555C40.8518 17.3235 42.175 16 43.8075 16C45.4397 16 46.7631 17.3235 46.7631 18.9555C46.7631 20.3673 45.773 21.5479 44.4494 21.8409C44.358 22.0112 44.2819 22.1527 44.2819 22.1527C50.571 26.0122 54.5714 32.9702 54.5714 40.4751V41.1255C55.4161 41.5304 56 42.3936 56 43.392V48.0505C56 49.4369 54.8743 50.5624 53.4878 50.5624H40.1215C38.7351 50.5624 37.6095 49.4369 37.6095 48.0505V43.392C37.6095 42.3652 38.227 41.4813 39.1108 41.092V40.6918C39.1108 37.4866 36.5214 34.6398 33.0263 34.6331C29.6373 34.6266 26.9225 37.4963 26.9225 40.6917C26.9225 40.823 26.9221 40.965 26.9215 41.1067C27.7879 41.5031 28.3905 42.3778 28.3905 43.392V48.0505C28.3905 49.4369 27.2649 50.5624 25.8785 50.5624H12.5122C11.1257 50.5624 10 49.4369 10 48.0505V43.392C10 42.3853 10.5936 41.5162 11.4496 41.1157ZM41.5948 23.2561C41.3841 23.2784 41.1652 23.2463 40.9593 23.1527C38.5778 22.0685 35.9076 21.4554 33.0426 21.4499C30.2113 21.4444 27.5311 22.0809 25.1228 23.2067C24.9177 23.3025 24.6991 23.3368 24.4881 23.3165C24.3801 23.4985 24.2235 23.6548 24.0247 23.7638C17.986 27.0763 13.8988 33.531 13.8988 40.4748C13.8988 40.9905 13.8962 41.5735 13.8928 42.1117C13.8886 42.7847 13.3419 43.328 12.6689 43.328H12.5122C12.4768 43.328 12.4481 43.3567 12.4481 43.392V48.0505C12.4481 48.0859 12.4768 48.1147 12.5122 48.1147H25.8785C25.9137 48.1147 25.9425 48.0859 25.9425 48.0505V43.392C25.9425 43.3567 25.9137 43.328 25.8785 43.328H25.6902C25.3634 43.328 25.0501 43.1974 24.8201 42.9651C24.5903 42.7329 24.4629 42.4183 24.4662 42.0916C24.4669 42.0212 24.4745 41.2569 24.4745 40.6917C24.4745 36.2088 28.2764 32.1762 33.0311 32.1854C37.9339 32.1948 41.5589 36.1956 41.5589 40.6918V42.104C41.5589 42.78 41.0109 43.328 40.3349 43.328H40.1215C40.0861 43.328 40.0575 43.3567 40.0575 43.392V48.0505C40.0575 48.0859 40.0861 48.1147 40.1215 48.1147H53.4878C53.5232 48.1147 53.5519 48.0859 53.5519 48.0505V43.392C53.5519 43.3567 53.5232 43.328 53.4878 43.328H53.3474C52.6713 43.328 52.1233 42.78 52.1233 42.104V40.4751C52.1233 33.4575 48.174 26.9808 42.0618 23.6989C41.8678 23.5947 41.7073 23.4411 41.5948 23.2561ZM22.4631 19.4765C22.4988 19.4145 22.5403 19.355 22.5877 19.299C22.6619 19.2109 22.7063 19.0971 22.7063 18.9728C22.7063 18.6925 22.4789 18.4652 22.1986 18.4652C21.9183 18.4652 21.6908 18.6925 21.6908 18.9728C21.6908 19.2531 21.9183 19.4803 22.1986 19.4803C22.2154 19.4803 22.2321 19.4795 22.2485 19.4779C22.3207 19.4711 22.3926 19.4707 22.4631 19.4765ZM43.5547 19.4653C43.6253 19.4579 43.6972 19.4566 43.7696 19.4618C43.7821 19.4627 43.7947 19.4631 43.8075 19.4631C44.0878 19.4631 44.315 19.2358 44.315 18.9555C44.315 18.6752 44.0878 18.4478 43.8075 18.4478C43.527 18.4478 43.2998 18.6751 43.2998 18.9555C43.2998 19.084 43.3474 19.2014 43.4263 19.2908C43.4748 19.3457 43.5176 19.4042 43.5547 19.4653Z" fill="white"/>
<path fill-rule="evenodd" clip-rule="evenodd" d="M22.7755 18.6947L24.974 22.7859L23.8202 23.4059L21.6217 19.3146L22.7755 18.6947Z" fill="#232118"/>
<path fill-rule="evenodd" clip-rule="evenodd" d="M43.2637 18.6947L41.065 22.7859L42.219 23.4059L44.4175 19.3146L43.2637 18.6947Z" fill="#232118"/>
<path d="M42.0757 18.9555C42.0757 19.9118 42.8511 20.6869 43.8075 20.6869C44.7637 20.6869 45.539 19.9118 45.539 18.9555C45.539 17.9994 44.7637 17.224 43.8075 17.224C42.8511 17.224 42.0757 17.9994 42.0757 18.9555Z" fill="#232118"/>
<path fill-rule="evenodd" clip-rule="evenodd" d="M13.2207 42.8327L24.975 42.8085C24.6157 36.7115 27.9348 32.5562 33.0144 32.7134C38.0418 32.8692 41.3239 36.8958 41.2151 42.678L52.8839 42.7121C52.8839 42.7121 52.9551 39.1491 52.6419 37.322C50.9018 27.1775 40.5639 20.8588 33.0144 20.9433C26.2182 21.0192 15.2258 24.334 13.2938 39.4587C13.1321 40.724 13.2207 42.8327 13.2207 42.8327Z" fill="#FABF1B"/>
<path fill-rule="evenodd" clip-rule="evenodd" d="M24.4973 45.4952C24.498 45.5244 22.9044 45.548 22.904 45.5312C22.8809 44.5084 22.8175 42.0001 22.8175 41.2685C22.8175 36.1841 26.8008 32.0717 31.6871 32.0717C31.7179 32.0717 31.8101 32.8889 31.7793 32.8889C27.7547 32.8889 24.4113 37.0808 24.4113 41.2685C24.4113 41.9939 24.4745 44.481 24.4973 45.4952Z" fill="#E8A623"/>
<path fill-rule="evenodd" clip-rule="evenodd" d="M39.9671 21.8308C47.0586 25.0663 51.9924 32.2196 51.9924 40.5157C51.9924 41.588 51.9841 43.7172 52.0032 44.9359H50.4377C50.4191 43.7 50.427 41.5861 50.427 40.5157C50.427 31.1561 43.6289 23.3713 34.704 21.8308H39.9671Z" fill="#E8A623"/>
<path fill-rule="evenodd" clip-rule="evenodd" d="M19.4592 30.6659C19.3554 30.3809 19.0399 30.2339 18.7551 30.3377C18.4701 30.4415 18.3231 30.7569 18.4269 31.0418C18.5307 31.3266 18.8461 31.4737 19.1311 31.3699C19.4159 31.2661 19.563 30.9507 19.4592 30.6659Z" fill="#232118"/>
<path fill-rule="evenodd" clip-rule="evenodd" d="M20.9117 28.6597C20.8079 28.3749 20.4924 28.2278 20.2074 28.3316C19.9226 28.4354 19.7755 28.7508 19.8793 29.0356C19.9831 29.3206 20.2986 29.4676 20.5836 29.3638C20.8684 29.26 21.0155 28.9446 20.9117 28.6597Z" fill="#232118"/>
<path fill-rule="evenodd" clip-rule="evenodd" d="M22.8931 27.0047C22.7893 26.7199 22.4737 26.5729 22.1889 26.6767C21.9041 26.7805 21.757 27.0959 21.8608 27.3807C21.9644 27.6656 22.2801 27.8127 22.5649 27.7089C22.8499 27.6051 22.9968 27.2897 22.8931 27.0047Z" fill="#232118"/>
<path d="M22.1986 17.2414C23.155 17.2414 23.9304 18.0165 23.9304 18.9728C23.9304 19.9289 23.155 20.7042 22.1986 20.7042C21.2424 20.7042 20.4668 19.9289 20.4668 18.9728C20.4668 18.0165 21.2424 17.2414 22.1986 17.2414Z" fill="#232118"/>
<path fill-rule="evenodd" clip-rule="evenodd" d="M14.0869 43.9259C14.0828 44.3213 13.7585 44.6389 13.3631 44.6348C12.9676 44.6306 12.65 44.3063 12.654 43.9109C12.654 43.9109 12.6747 41.9252 12.6747 40.4748C12.6747 29.8032 21.7265 20.2042 33.0451 20.2261C44.7167 20.2486 53.3474 29.7714 53.3474 40.4751V44.3759C53.3474 44.7713 53.0263 45.0922 52.631 45.0922C52.2355 45.0922 51.9144 44.7713 51.9144 44.3759V40.4751C51.9144 30.5271 43.8898 21.6797 33.0423 21.6588C22.5231 21.6385 14.1077 30.5567 14.1077 40.4748C14.1077 41.9314 14.0869 43.9259 14.0869 43.9259Z" fill="#232118"/>
<path fill-rule="evenodd" clip-rule="evenodd" d="M25.69 42.1094C25.686 42.5047 25.3616 42.8224 24.9662 42.8182C24.5707 42.8141 24.2531 42.4899 24.2572 42.0945C24.2572 42.0945 24.2656 41.2838 24.2656 40.6917C24.2656 36.0991 28.1604 31.9671 33.0314 31.9765C38.0544 31.9862 41.7678 36.0854 41.7678 40.6918V42.2893C41.7678 42.6847 41.4468 43.0056 41.0514 43.0056C40.6559 43.0056 40.3349 42.6847 40.3349 42.2893V40.6918C40.3349 36.8411 37.2277 33.4173 33.0287 33.4093C28.9569 33.4013 25.6986 36.8526 25.6986 40.6917C25.6986 41.2901 25.69 42.1094 25.69 42.1094Z" fill="#232118"/>
<path fill-rule="evenodd" clip-rule="evenodd" d="M26.4501 43.4649C26.4501 43.1339 26.1813 42.8651 25.8503 42.8651H12.5402C12.2092 42.8651 11.9405 43.1339 11.9405 43.4649V48.067C11.9405 48.3981 12.2092 48.6668 12.5402 48.6668H25.8503C26.1813 48.6668 26.4501 48.3981 26.4501 48.067V43.4649Z" fill="#FABF1B"/>
<path d="M25.8124 43.4533H24.3701V48.1716H25.8124V43.4533Z" fill="#E8A623"/>
<path fill-rule="evenodd" clip-rule="evenodd" d="M27.1666 43.392V48.0505C27.1666 48.7613 26.5894 49.3385 25.8785 49.3385H12.5122C11.8012 49.3385 11.224 48.7613 11.224 48.0505V43.392C11.224 42.6812 11.8012 42.104 12.5122 42.104H25.8785C26.5894 42.104 27.1666 42.6812 27.1666 43.392ZM12.657 43.5369V47.9058H25.7336V43.5369H12.657Z" fill="#232118"/>
<path fill-rule="evenodd" clip-rule="evenodd" d="M54.0281 43.4649C54.0281 43.1339 53.7594 42.8651 53.4284 42.8651H40.1184C39.7874 42.8651 39.5186 43.1339 39.5186 43.4649V48.067C39.5186 48.3981 39.7874 48.6668 40.1184 48.6668H53.4284C53.7594 48.6668 54.0281 48.3981 54.0281 48.067V43.4649Z" fill="#FABF1B"/>
<path d="M53.3905 43.4533H51.9482V48.1716H53.3905V43.4533Z" fill="#E8A623"/>
<path fill-rule="evenodd" clip-rule="evenodd" d="M54.7759 43.392V48.0505C54.7759 48.7613 54.1988 49.3385 53.4878 49.3385H40.1215C39.4106 49.3385 38.8334 48.7613 38.8334 48.0505V43.392C38.8334 42.6812 39.4106 42.104 40.1215 42.104H53.4878C54.1988 42.104 54.7759 42.6812 54.7759 43.392ZM40.2664 43.5369V47.9058H53.343V43.5369H40.2664Z" fill="#232118"/>
</svg>
