<svg width="66" height="66" viewBox="0 0 66 66" fill="none" xmlns="http://www.w3.org/2000/svg">
<circle cx="32.9183" cy="32.9183" r="32.9183" fill="#F5F5F5"/>
<g transform="translate(8 8) scale(0.2778)">
<path fill="#1ebca1" d="
  M 90.36 180.00
  L 89.59 180.00
  Q 88.00 179.08 85.77 177.20
  Q 76.82 169.66 71.15 163.07
  A 0.33 0.33 0.0 0 0 70.63 163.10
  L 65.40 170.52
  A 0.66 0.66 0.0 0 1 64.51 170.70
  Q 60.62 168.27 56.52 164.47
  Q 48.53 157.05 42.26 148.24
  Q 40.89 146.30 39.89 144.19
  A 6.15 5.98 27.8 0 1 39.44 142.80
  C 35.07 120.91 32.25 98.42 29.79 75.00
  Q 29.11 68.45 29.06 63.71
  A 0.64 0.64 0.0 0 0 28.66 63.12
  L 0.55 51.67
  A 0.61 0.60 16.6 0 1 0.18 51.00
  C 0.82 47.49 1.20 44.57 2.18 41.36
  Q 9.15 18.58 25.84 0.45
  A 0.29 0.29 0.0 0 1 26.34 0.64
  L 26.34 31.97
  A 0.84 0.83 -81.6 0 0 26.93 32.77
  L 38.78 36.42
  A 0.78 0.78 0.0 0 0 39.65 36.13
  L 47.28 25.30
  A 0.31 0.31 0.0 0 1 47.82 25.36
  L 51.50 34.41
  A 0.64 0.63 69.3 0 0 52.29 34.77
  Q 56.63 33.35 61.75 32.50
  Q 88.81 28.06 115.07 32.02
  C 120.09 32.78 122.84 33.58 127.67 34.82
  A 0.54 0.52 17.8 0 0 128.29 34.51
  L 132.01 25.37
  A 0.32 0.32 0.0 0 1 132.57 25.31
  L 140.20 36.14
  A 0.76 0.75 63.6 0 0 141.04 36.43
  L 152.87 32.79
  A 0.94 0.93 -9.0 0 0 153.52 31.90
  L 153.52 0.76
  A 0.33 0.33 0.0 0 1 154.09 0.54
  C 166.69 14.26 177.13 32.45 179.63 51.01
  A 0.62 0.62 0.0 0 1 179.24 51.68
  L 151.37 63.05
  A 0.84 0.84 0.0 0 0 150.85 63.78
  Q 150.61 70.02 149.79 77.51
  C 147.24 100.89 144.56 122.29 140.34 143.06
  A 4.80 4.31 65.9 0 1 140.05 143.96
  Q 139.30 145.62 138.03 147.52
  Q 132.95 155.17 124.41 163.41
  Q 119.54 168.13 115.32 170.70
  A 0.68 0.67 -33.3 0 1 114.42 170.52
  L 109.05 162.89
  A 0.18 0.17 48.0 0 0 108.78 162.87
  Q 100.52 172.51 90.36 180.00
  Z
  M 89.89 140.72
  Q 105.84 140.72 119.56 129.98
  A 2.13 2.12 69.3 0 0 120.37 128.17
  L 118.72 101.52
  A 0.58 0.58 0.0 0 1 119.24 100.90
  L 137.79 98.84
  A 0.53 0.53 0.0 0 0 138.27 98.36
  L 141.50 67.77
  A 0.44 0.44 0.0 0 0 140.90 67.32
  L 109.71 80.04
  A 0.74 0.71 77.8 0 0 109.26 80.76
  L 111.64 119.26
  A 0.72 0.72 0.0 0 1 111.14 119.99
  Q 100.24 123.46 89.89 123.46
  Q 79.55 123.46 68.65 119.99
  A 0.72 0.72 0.0 0 1 68.15 119.26
  L 70.54 80.76
  A 0.74 0.71 -77.8 0 0 70.09 80.04
  L 38.90 67.31
  A 0.44 0.44 0.0 0 0 38.30 67.76
  L 41.52 98.35
  A 0.53 0.53 0.0 0 0 42.00 98.83
  L 60.55 100.89
  A 0.58 0.58 0.0 0 1 61.07 101.51
  L 59.42 128.16
  A 2.13 2.12 -69.3 0 0 60.23 129.97
  Q 73.94 140.72 89.89 140.72
  Z"
/>
</g>
</svg>
