<svg width="66" height="66" viewBox="0 0 66 66" fill="none" xmlns="http://www.w3.org/2000/svg">
<circle cx="32.9183" cy="32.9183" r="32.9183" fill="#F5F5F5"/>
<path d="M12 22.9005C13.5653 22.9005 14.8391 22.7931 15.8212 22.5785C16.8341 22.3331 17.6167 21.9804 18.1692 21.5204C18.7217 21.0604 19.1053 20.4777 19.3202 19.7723C19.535 19.067 19.6424 18.2236 19.6424 17.2422H26.226V49.4438H18.6296V28.1447H12V22.9005Z" fill="#2469F0"/>
<path d="M31.3945 49.4463C31.3945 46.8396 31.594 44.6467 31.9931 42.8679C32.4228 41.0892 33.0213 39.5864 33.7886 38.3597C34.5559 37.133 35.446 36.0903 36.4588 35.2316C37.5023 34.3729 38.6533 33.5602 39.9117 32.7935C40.8632 32.2415 41.7379 31.7201 42.5359 31.2294C43.3646 30.708 44.0859 30.1867 44.6998 29.6653C45.3136 29.144 45.7894 28.5766 46.127 27.9632C46.4952 27.3192 46.6794 26.5985 46.6794 25.8011C46.6794 24.5131 46.3265 23.593 45.6205 23.041C44.9146 22.4583 44.0399 22.167 42.9963 22.167C41.83 22.167 40.8479 22.535 40.0499 23.271C39.2825 23.9764 38.8989 25.1724 38.8989 26.8592H31.4866C31.4866 25.3871 31.7322 24.0224 32.2233 22.765C32.745 21.5076 33.497 20.4189 34.4792 19.4988C35.4613 18.5788 36.6583 17.8581 38.0702 17.3367C39.482 16.8154 41.1087 16.5547 42.9503 16.5547C44.4235 16.5547 45.82 16.754 47.1397 17.1527C48.4902 17.5207 49.6719 18.1034 50.6847 18.9008C51.6977 19.6675 52.4957 20.6796 53.079 21.937C53.6927 23.1637 53.9996 24.6204 53.9996 26.3072C53.9996 27.6565 53.708 28.8833 53.1247 29.9873C52.5418 31.0914 51.8203 32.0728 50.961 32.9315C50.1322 33.7902 49.2269 34.5569 48.2446 35.2316C47.2627 35.8756 46.3725 36.4276 45.5745 36.8877C44.4696 37.6237 43.5488 38.2677 42.8122 38.8198C42.1063 39.3411 41.5384 39.8318 41.1087 40.2918C40.679 40.7518 40.3721 41.2272 40.188 41.7179C40.0345 42.2086 39.9578 42.7759 39.9578 43.42H53.7693V49.4463H31.3945Z" fill="#2469F0"/>
</svg>
