<svg width="66" height="66" viewBox="0 0 66 66" fill="none" xmlns="http://www.w3.org/2000/svg">
<circle cx="32.9183" cy="32.9183" r="32.9183" fill="#F5F5F5"/>
<path fill-rule="evenodd" clip-rule="evenodd" d="M38.7444 35.3707C38.9128 34.9023 38.776 34.755 38.2971 34.9076V34.9023C36.6184 35.4391 33.7082 36.1758 30.3613 35.5181C29.6614 35.3759 29.7035 34.8392 30.414 34.8024C33.0662 34.6708 37.213 34.0709 39.4496 31.7712C41.0791 30.0954 41.9499 27.5323 42.9193 24.6789C44.0443 21.3676 45.3021 17.6653 48.0326 14.5051C48.098 14.429 48.1756 14.3481 48.2554 14.2647C48.8058 13.6902 49.467 13 47.0223 13C34.6761 13 30.199 22.9665 22.6749 39.7161C21.3442 42.6783 19.9182 45.8526 18.3366 49.2215C18.2017 49.5077 18.0664 49.7808 17.9387 50.0386C17.5734 50.7763 17.2703 51.3883 17.2157 51.8212C17.1736 52.179 17.3894 52.4737 17.8156 52.4737C19.2896 52.4592 20.7785 49.8527 22.1589 47.4363C22.7843 46.3414 23.3875 45.2855 23.9569 44.5274C24.6884 43.5538 25.4041 43.1013 26.3092 42.8644C27.0213 42.6747 27.8131 42.5854 28.6536 42.4905C29.6082 42.3827 30.6257 42.2679 31.6612 41.9908C35.7501 40.8963 37.8656 37.8546 38.7444 35.3707ZM46.575 48.7636C46.575 50.8055 44.9173 52.4632 42.8755 52.4632C40.8337 52.4632 39.176 50.8055 39.176 48.7636C39.176 46.7218 40.8337 45.0642 42.8755 45.0642C44.9173 45.0642 46.575 46.7218 46.575 48.7636Z" fill="#3B82F6"/>
</svg>
