<svg width="66" height="66" viewBox="0 0 66 66" fill="none" xmlns="http://www.w3.org/2000/svg">
<circle cx="32.9183" cy="32.9183" r="32.9183" fill="#F5F5F5"/>
<g clip-path="url(#clip0_2689_25)">
<path d="M45.6975 18H35.0638C25.4971 18 24.7612 22.1843 24.7612 27.7883V38.2117C24.7612 44.0398 25.4971 48 35.1006 48H45.6975C55.2641 48 56 43.8157 56 38.2491V27.7883C56 22.1843 55.2641 18 45.6975 18ZM11 25.5093C11 20.5778 12.9133 18 16.1513 18C19.3892 18 21.3025 20.5778 21.3025 25.5093V40.4907C21.3025 45.4222 19.3892 48 16.1513 48C12.9133 48 11 45.4222 11 40.4907V25.5093Z" fill="#1A1A19"/>
</g>
<defs>
<clipPath id="clip0_2689_25">
<rect width="45" height="30" fill="white" transform="translate(11 18)"/>
</clipPath>
</defs>
</svg>
