<svg width="62" height="62" viewBox="0 0 62 62" fill="none" xmlns="http://www.w3.org/2000/svg">
<circle cx="31" cy="31" r="31" fill="#F5F5F5"/>
<svg x="11" y="11" width="40" height="40" viewBox="0 -5.575 34.045 34.045" fill="none">
<path d="M22.1879815,9.68921912e-15 C21.2865948,9.68921912e-15 18.9984592,0.139572193 16.7103236,1.39572193 C16.7103236,1.39572193 16.6409861,1.46550802 16.5716487,1.46550802 C16.4329738,1.53529412 16.2942989,1.60508021 16.2249615,1.67486631 C16.0862866,1.8144385 15.9476117,1.8842246 15.8089368,2.02379679 C15.7395994,2.09358289 15.6702619,2.16336898 15.5315871,2.23315508 C15.3929122,2.30294118 15.2542373,2.44251337 15.1155624,2.58208556 C15.046225,2.58208556 15.046225,2.65187166 14.9768875,2.65187166 C14.7688752,2.79144385 14.6302003,3.00080214 14.422188,3.14037433 C14.422188,3.14037433 14.3528505,3.21016043 14.3528505,3.21016043 C13.174114,4.39652406 12.3420647,5.86203209 11.7873652,7.4671123 C11.440678,8.51390374 11.2326656,9.63048128 11.2326656,10.8168449 L11.2326656,22.4013369 L11.2326656,22.8898396 L11.6486903,22.8898396 C12.550077,22.8898396 14.8382126,22.7502674 17.1263482,21.4941176 C17.1263482,21.4941176 17.1956857,21.4243316 17.2650231,21.4243316 C17.403698,21.3545455 17.5423729,21.2847594 17.6117103,21.2149733 C17.7503852,21.1451872 17.8890601,21.005615 18.027735,20.9358289 C18.0970724,20.8660428 18.1664099,20.7962567 18.3050847,20.7264706 C18.4437596,20.6566845 18.5824345,20.5171123 18.7211094,20.3775401 C18.7904468,20.3775401 18.7904468,20.307754 18.8597843,20.307754 C19.0677966,20.1681818 19.2064715,19.9588235 19.4144838,19.8192513 C19.4144838,19.8192513 19.4838213,19.7494652 19.4838213,19.7494652 C20.6625578,18.5631016 21.4946071,17.0975936 22.0493066,15.4925134 C22.3959938,14.4457219 22.6040062,13.3291444 22.6040062,12.1427807 L22.6040062,9.68921912e-15 L22.1879815,9.68921912e-15 Z" fill="#39C33A"/>
<path d="M23.0893683,9.68921912e-15 L23.0893683,9.68921912e-15 C23.990755,9.68921912e-15 26.2788906,0.139572193 28.5670262,1.39572193 C28.5670262,1.39572193 28.6363636,1.46550802 28.7057011,1.46550802 C28.844376,1.53529412 28.9830508,1.60508021 29.0523883,1.67486631 C29.1910632,1.74465241 29.3297381,1.8842246 29.4684129,1.9540107 C29.5377504,2.02379679 29.6070878,2.09358289 29.7457627,2.16336898 C29.8844376,2.23315508 30.0231125,2.37272727 30.1617874,2.51229947 C30.2311248,2.51229947 30.2311248,2.58208556 30.3004622,2.58208556 C30.5084746,2.72165775 30.6471495,2.93101604 30.8551618,3.07058824 C30.8551618,3.07058824 30.9244992,3.14037433 30.9244992,3.14037433 C32.1032357,4.32673797 32.9352851,5.79224599 33.4899846,7.3973262 C33.4899846,7.3973262 33.4899846,7.3973262 33.4899846,7.3973262 C33.8366718,8.44411765 34.0446841,9.56069519 34.0446841,10.7470588 L34.0446841,22.3315508 L34.0446841,22.8200535 L33.6286595,22.8200535 L33.6286595,22.8200535 C32.7272727,22.8200535 30.4391371,22.6804813 28.1510015,21.4243316 C28.1510015,21.4243316 28.0816641,21.3545455 28.0123267,21.3545455 C27.8736518,21.2847594 27.7349769,21.2149733 27.6656394,21.1451872 C27.5269646,21.0754011 27.3882897,20.9358289 27.2496148,20.8660428 C27.1802773,20.7962567 27.1109399,20.7264706 26.972265,20.6566845 C26.8335901,20.5868984 26.6949153,20.4473262 26.5562404,20.307754 C26.4869029,20.307754 26.4869029,20.2379679 26.4175655,20.2379679 C26.2095532,20.0983957 26.0708783,19.8890374 25.8628659,19.7494652 C25.8628659,19.7494652 25.7935285,19.6796791 25.7935285,19.6796791 C24.614792,18.4933155 23.7827427,17.0278075 23.2280431,15.4227273 C23.2280431,15.4227273 23.2280431,15.4227273 23.2280431,15.4227273 C22.8813559,14.3759358 22.6733436,13.2593583 22.6733436,12.0729947 L22.6733436,9.68921912e-15 L23.0893683,9.68921912e-15 Z" fill="#ADE83A"/>
<path d="M10.8859784,22.8898396 L10.8859784,22.8898396 C9.98459168,22.8898396 7.69645609,22.7502674 5.40832049,21.4941176 C5.40832049,21.4941176 5.33898305,21.4243316 5.26964561,21.4243316 C5.13097072,21.3545455 4.99229584,21.2847594 4.9229584,21.2149733 C4.78428351,21.1451872 4.64560863,21.005615 4.50693374,20.9358289 C4.4375963,20.8660428 4.36825886,20.7962567 4.22958398,20.7264706 C4.09090909,20.6566845 3.95223421,20.5171123 3.81355932,20.3775401 C3.74422188,20.3775401 3.74422188,20.307754 3.67488444,20.307754 C3.46687211,20.1681818 3.32819723,19.9588235 3.1201849,19.8192513 C3.1201849,19.8192513 3.05084746,19.7494652 3.05084746,19.7494652 C1.87211094,18.5631016 1.04006163,17.0975936 0.485362096,15.4925134 C0.485362096,15.4925134 0.485362096,15.4925134 0.485362096,15.4925134 C0.208012327,14.3759358 -9.9798957e-14,13.2593583 -9.9798957e-14,12.0729947 L-9.9798957e-14,0.488502674 L-9.9798957e-14,9.68921912e-15 L0.416024653,9.68921912e-15 L0.416024653,9.68921912e-15 C1.3174114,9.68921912e-15 3.605547,0.139572193 5.89368259,1.39572193 C5.89368259,1.39572193 5.96302003,1.46550802 6.03235747,1.46550802 C6.17103236,1.53529412 6.30970724,1.60508021 6.37904468,1.67486631 C6.51771957,1.74465241 6.65639445,1.8842246 6.79506934,1.9540107 C6.86440678,2.02379679 6.93374422,2.09358289 7.07241911,2.16336898 C7.21109399,2.23315508 7.34976888,2.37272727 7.48844376,2.51229947 C7.5577812,2.51229947 7.5577812,2.58208556 7.62711864,2.58208556 C7.83513097,2.72165775 7.97380586,2.93101604 8.18181818,3.07058824 C8.18181818,3.07058824 8.25115562,3.14037433 8.25115562,3.14037433 C9.42989214,4.32673797 10.2619414,5.79224599 10.816641,7.3973262 C10.816641,7.3973262 10.816641,7.3973262 10.816641,7.3973262 C11.1633282,8.44411765 11.3713405,9.56069519 11.3713405,10.7470588 L11.3713405,22.8200535 L10.8859784,22.8898396 L10.8859784,22.8898396 Z" fill="#52D6FF"/>
</svg>
</svg>
