<svg width="66" height="66" viewBox="0 0 66 66" fill="none" xmlns="http://www.w3.org/2000/svg">
<ellipse cx="32.9183" cy="33" rx="32.9183" ry="33" fill="#F5F5F5"/>
<g clip-path="url(#clip0_498_2)">
<path d="M18.6864 32.32V30.304L14.7887 26.048L57.7751 32.096L18.6864 32.32Z" fill="white" stroke="#564E55" stroke-width="0.5" stroke-miterlimit="10"/>
<path d="M19.0205 30.192V32.208L57.7751 32.096L23.4751 30.416L19.0205 30.192Z" fill="#D4E6FF"/>
<path d="M57.775 31.8719C57.775 31.8719 57.9978 31.9839 57.9978 32.0959C57.9978 32.4319 57.775 32.4319 57.775 32.4319L57.6637 32.3199C57.5523 32.0959 57.6637 31.9839 57.775 31.8719Z" fill="#564E55"/>
<path d="M41.1819 23.472C41.0705 22.8 40.4023 22.464 39.8455 22.576L35.5023 23.36L34.8341 21.456C34.6114 21.008 34.1659 20.784 33.7205 20.896L29.7114 21.68C29.266 21.792 28.9319 22.128 28.9319 22.688V24.704L24.9228 25.488C24.2546 25.6 23.8091 26.272 23.9205 26.944L24.7 31.088L41.85 27.84L41.1819 23.472ZM29.8228 22.464L33.8319 21.792L34.5 23.584L29.9341 24.48L29.8228 22.464Z" fill="#FFC476" stroke="#564E55" stroke-width="0.5" stroke-miterlimit="10"/>
<path d="M24.4773 29.184L41.6273 25.936L42.5182 30.976C42.6296 31.648 42.1841 32.32 41.5159 32.432L25.4796 35.456L24.4773 29.184Z" fill="#FF9C24" stroke="#564E55" stroke-width="0.5" stroke-miterlimit="10"/>
<path d="M10.6682 42.512L18.6864 32.208H57.4409L10.6682 42.512Z" fill="white" stroke="#564E55" stroke-width="0.5" stroke-miterlimit="10"/>
<path d="M18.6864 40.72V47.104L57.6637 32.208L18.6864 40.72Z" fill="white" stroke="#564E55" stroke-width="0.5" stroke-miterlimit="10"/>
<path d="M33.4977 29.52H33.3863C33.0522 29.632 32.6068 29.296 32.6068 28.96L32.384 27.728L33.9431 27.504L34.1659 28.736C34.0545 29.072 33.8318 29.408 33.4977 29.52Z" fill="white" stroke="#564E55" stroke-width="0.5" stroke-miterlimit="10"/>
</g>
<defs>
<clipPath id="clip0_498_2">
<rect width="49" height="28" fill="white" transform="translate(10 20)"/>
</clipPath>
</defs>
</svg>
