<svg width="66" height="66" viewBox="0 0 66 66" fill="none" xmlns="http://www.w3.org/2000/svg">
<circle cx="32.9183" cy="32.9183" r="32.9183" fill="#F5F5F5"/>
<path d="M29.7348 35.2361L21.2407 45.9261C20.1069 47.3474 17.9383 47.3295 16.8316 45.8897L8.58034 35.2001C7.80655 34.1923 7.80655 32.7886 8.58034 31.7808L16.8316 21.0911C17.9383 19.6514 20.1069 19.6334 21.2407 21.0551L29.7348 31.7448C30.5447 32.7706 30.5447 34.2193 29.7348 35.2361Z" fill="#45BAB9"/>
<path d="M43.8259 31.7527L35.3318 21.0629C34.1981 19.6412 32.0296 19.6592 30.9228 21.099L28.0254 24.8512L33.5143 31.7527C34.3241 32.7695 34.3241 34.2182 33.5143 35.235L28.0254 42.1366L30.9228 45.8885C32.0296 47.3284 34.1981 47.3462 35.3318 45.9249L43.8259 35.235C44.6357 34.2182 44.6357 32.7695 43.8259 31.7527Z" fill="#43B072"/>
<path d="M57.3857 31.7527L48.8916 21.0629C47.7578 19.6412 45.5892 19.6592 44.4822 21.099L41.9629 24.3653L47.8388 31.7527C48.6486 32.7695 48.6486 34.2182 47.8388 35.235L41.9629 42.6225L44.4822 45.8885C45.5892 47.3284 47.7578 47.3462 48.8916 45.9249L57.3857 35.235C58.2045 34.2182 58.2045 32.7695 57.3857 31.7527Z" fill="#DDDF4C"/>
</svg>
