<svg width="66" height="66" viewBox="0 0 66 66" fill="none" xmlns="http://www.w3.org/2000/svg">
<circle cx="32.9183" cy="32.9183" r="32.9183" fill="#F5F5F5"/>
<g clip-path="url(#clip0_426_106)">
<path opacity="0.3" d="M33 53.8731C44.5279 53.8731 53.8731 44.5279 53.8731 33C53.8731 21.4721 44.5279 12.1268 33 12.1268C21.4721 12.1268 12.1268 21.4721 12.1268 33C12.1268 44.5279 21.4721 53.8731 33 53.8731Z" fill="#3BD771"/>
<path d="M33 46.9389C40.6982 46.9389 46.9389 40.6982 46.9389 33C46.9389 25.3017 40.6982 19.0611 33 19.0611C25.3017 19.0611 19.061 25.3017 19.061 33C19.061 40.6982 25.3017 46.9389 33 46.9389Z" fill="#3BD771"/>
</g>
<defs>
<clipPath id="clip0_426_106">
<rect width="42" height="42" fill="white" transform="translate(12 12)"/>
</clipPath>
</defs>
</svg>
