<svg width="66" height="66" viewBox="0 0 66 66" fill="none" xmlns="http://www.w3.org/2000/svg">
<circle cx="32.9183" cy="32.9183" r="32.9183" fill="#F5F5F5"/>
<path d="M37.5966 25.1479L36.9354 28.8961C36.2295 32.896 32.4179 36.0959 28.438 36.0959H25.1745C21.1699 36.0959 18.5229 32.8595 19.2241 28.8961L20.5487 21.388H24.3169L22.9922 28.8961C22.8383 29.5323 22.9127 30.2023 23.2023 30.7892C23.4919 31.3762 23.9784 31.8428 24.5769 32.1078C24.9733 32.2843 25.4063 32.3666 25.8392 32.3478H29.1038C30.0703 32.312 30.9966 31.9521 31.7336 31.326C32.4707 30.6999 32.9757 29.844 33.1673 28.8961L34.1602 23.268C34.2633 22.7509 34.5381 22.2839 34.94 21.9427C35.3419 21.6014 35.8473 21.406 36.3742 21.388H43.3458L43.7788 18.9281C44.3599 15.6517 42.1776 13 38.8942 13H22.8757C19.6005 13 16.4688 15.6517 15.8959 18.9281L13.0924 34.9277C12.516 38.1994 14.6948 40.8511 17.9782 40.8511H33.9967C37.2754 40.8511 40.4036 38.1994 40.9765 34.9277L42.7012 25.1479H37.5954H37.5966Z" fill="#23D777"/>
<path d="M48.0469 25.148H46.4469L44.0058 38.9759C43.4293 42.2464 40.3024 44.9028 37.026 44.9028H22.591L22.2098 47.0757C21.631 50.3462 23.8122 52.9991 27.0968 52.9991H43.1141C46.3904 52.9991 49.521 50.3474 50.0939 47.0757L52.8973 31.076C53.5091 27.8032 51.3233 25.1468 48.0481 25.1468L48.0469 25.148Z" fill="#1A57E6"/>
</svg>
