<svg width="66" height="66" viewBox="0 0 66 66" fill="none" xmlns="http://www.w3.org/2000/svg">
<circle cx="32.9183" cy="32.9183" r="32.9183" fill="#F5F5F5"/>
<g transform="translate(12.9183 12.9183) scale(0.222222)">
<path d="   M 137.38 0.00   C 160.76 1.64 178.04 19.19 180.00 42.50   L 180.00 137.38   C 178.21 160.72 160.75 178.31 137.38 180.00   L 42.73 180.00   C 19.37 178.38 1.92 160.84 0.00 137.54   L 0.00 42.54   C 1.76 19.08 19.08 2.13 42.52 0.00   L 137.38 0.00   Z   M 147.96 125.92   Q 147.87 125.35 147.52 124.49   Q 128.62 77.66 128.60 77.63   C 124.07 67.16 111.59 66.04 104.69 74.72   C 98.76 82.18 94.86 89.35 86.16 89.61   Q 82.30 89.72 76.32 86.18   C 60.90 77.06 46.58 65.54 33.19 53.24   A 0.63 0.63 0.0 0 0 32.13 53.68   Q 32.11 54.19 32.38 54.87   Q 56.46 114.97 56.53 115.17   C 58.56 120.59 61.36 124.72 66.50 126.07   C 74.68 128.23 79.51 124.66 84.38 117.79   Q 87.38 113.55 90.64 109.40   Q 93.68 105.53 95.98 103.94   C 101.96 99.82 107.76 101.98 114.24 105.65   Q 130.66 114.95 146.84 126.61   A 0.71 0.71 0.0 0 0 147.96 125.92   Z" fill="#0a0a0a"/>
<path d="   M 147.96 125.92   A 0.71 0.71 0.0 0 1 146.84 126.61   Q 130.66 114.95 114.24 105.65   C 107.76 101.98 101.96 99.82 95.98 103.94   Q 93.68 105.53 90.64 109.40   Q 87.38 113.55 84.38 117.79   C 79.51 124.66 74.68 128.23 66.50 126.07   C 61.36 124.72 58.56 120.59 56.53 115.17   Q 56.46 114.97 32.38 54.87   Q 32.11 54.19 32.13 53.68   A 0.63 0.63 0.0 0 1 33.19 53.24   C 46.58 65.54 60.90 77.06 76.32 86.18   Q 82.30 89.72 86.16 89.61   C 94.86 89.35 98.76 82.18 104.69 74.72   C 111.59 66.04 124.07 67.16 128.60 77.63   Q 128.62 77.66 147.52 124.49   Q 147.87 125.35 147.96 125.92   Z" fill="#fefefe"/>
</g>
</svg>
