<svg width="66" height="66" viewBox="0 0 66 66" fill="none" xmlns="http://www.w3.org/2000/svg">
<circle cx="32.9183" cy="32.9183" r="32.9183" fill="#F5F5F5"/>
<g clip-path="url(#clip0_206_12)">
<path d="M49.48 13H16.52C14.576 13 13 14.576 13 16.52V49.48C13 51.424 14.576 53 16.52 53H49.48C51.424 53 53 51.424 53 49.48V16.52C53 14.576 51.424 13 49.48 13Z" fill="#6366F1"/>
<path d="M18.8 24.376L21.872 32.968L25.52 41.552H27.744L31.32 33.104L34.464 24.376H31.96L28.6 34.184L26.664 38.688L24.664 33.968L21.376 24.448L18.8 24.376Z" fill="white"/>
<path d="M45.128 24.376L43.408 24.016L41.12 23.952L38.832 24.448L37.616 25.168L36.76 26.096L36.112 27.88L36.256 30.176L36.896 31.392L37.616 32.104L39.192 33.032L43.128 34.608L44.128 35.4L44.696 36.328L44.84 37.112L44.488 38.616L43.768 39.336L41.912 39.904L38.832 39.76L36.4 38.832L35.752 40.76L38.832 41.768L41.984 41.912L44.696 41.264L45.848 40.552L46.632 39.688L47.2 38.184L47.272 36.896L46.92 35.184L46.2 34.04L44.84 32.968L40.12 30.888L38.904 29.888L38.472 28.888L38.688 27.384L39.472 26.528L40.192 26.168L41.192 25.952L43.336 26.024L45.776 26.88L46.488 24.952L45.128 24.376Z" fill="white"/>
</g>
<defs>
<clipPath id="clip0_206_12">
<rect width="40" height="40" fill="white" transform="translate(13 13)"/>
</clipPath>
</defs>
</svg>
