<svg width="66" height="66" viewBox="0 0 66 66" fill="none" xmlns="http://www.w3.org/2000/svg">
<circle cx="32.9183" cy="32.9183" r="32.9183" fill="#F5F5F5"/>
<path d="M49.4675 23.6305C48.3178 19.7038 46.3844 16.9013 43.6907 16.9013C40.0974 16.9013 35.1738 26.9065 35.1738 26.9065L34.8538 26.8375L34.9396 25.7111C34.9534 25.495 34.9674 25.0536 34.9837 24.4972C35.0532 21.8028 35.0231 19.1084 34.9024 16.4185L34.7958 14.0736C34.7958 14.0322 34.7588 14 34.7171 14H32.2829C32.2412 14 32.2063 14.0322 32.2042 14.0736L32.0975 16.4185C31.9745 19.1107 31.9444 21.8051 32.0162 24.4972C32.0302 25.0536 32.0466 25.4973 32.0603 25.7111L32.1461 26.8375L31.8262 26.9065C31.8262 26.9065 26.9025 16.9013 23.3093 16.9013C20.6179 16.9013 18.6845 19.7038 17.5324 23.6305C12.2492 23.8006 8 27.9318 8 32.9989C8 38.0658 12.2492 42.1972 17.5324 42.3673C18.6822 46.2939 20.6156 49.0964 23.3093 49.0964C26.9025 49.0964 31.8262 39.0913 31.8262 39.0913L32.1461 39.1601L32.0603 40.2867C32.0466 40.5027 32.0326 40.9441 32.0162 41.5005C31.9468 44.1949 31.9769 46.8893 32.0975 49.5814L32.2042 51.9265C32.2042 51.968 32.2412 52 32.2829 52H34.7171C34.7588 52 34.7936 51.968 34.7958 51.9265L34.9024 49.5814C35.0254 46.8893 35.0555 44.1949 34.9837 41.5005C34.9697 40.9441 34.9534 40.5006 34.9396 40.2867L34.8538 39.1601L35.1738 39.0913C35.1738 39.0913 40.0974 49.0964 43.6907 49.0964C46.382 49.0964 48.3154 46.2939 49.4675 42.3673C54.7507 42.1972 59 38.0658 59 32.9989C59 27.9318 54.7507 23.8006 49.4675 23.6305ZM16.83 39.2246C13.5984 38.751 11.1087 36.1439 11.1087 32.9989C11.1087 29.8539 13.5984 27.2468 16.83 26.7732C16.4938 28.7527 16.3292 30.8792 16.3292 32.9989C16.3292 35.1186 16.4938 37.2451 16.83 39.2246ZM22.8248 20.1613C23.045 20.0142 23.3093 20.0441 23.5527 20.1682C24.844 20.8579 29.5474 28.148 29.5474 28.3963L29.3204 28.6377C27.9108 27.6675 24.3339 25.2536 20.6156 24.1202C21.297 21.9706 22.1339 20.6188 22.8225 20.1613H22.8248ZM23.5527 45.832C23.3093 45.9561 23.045 45.9881 22.8248 45.8388C22.1363 45.3814 21.2994 44.0293 20.6179 41.88C24.3363 40.7465 27.9132 38.3326 29.3227 37.3624L29.5498 37.6038C29.5498 37.8521 24.8462 45.1421 23.5551 45.832H23.5527ZM30.9406 33.1713C30.5489 33.3897 21.9948 38.3809 19.9039 38.8911C19.6141 37.1992 19.4263 35.2359 19.4263 32.9989C19.4263 30.7619 19.6141 28.7986 19.9039 27.1065C21.9924 27.6192 30.5489 32.6103 30.9406 32.8265V33.169V33.1713ZM43.4496 20.1705C43.693 20.0463 43.9573 20.0142 44.1775 20.1636C44.866 20.6211 45.7029 21.9729 46.3844 24.1225C42.666 25.2559 39.0891 27.6699 37.6796 28.6399L37.4525 28.3987C37.4525 28.1504 42.156 20.8602 43.4472 20.1705H43.4496ZM44.1775 45.8411C43.9573 45.9881 43.693 45.9582 43.4496 45.8341C42.1583 45.1421 37.4549 37.8545 37.4549 37.606L37.682 37.3648C39.0915 38.3348 42.6684 40.7489 46.3867 41.8821C45.7051 44.0317 44.8684 45.3835 44.1799 45.8411H44.1775ZM47.0962 38.8935C45.0075 38.3809 36.4511 33.3897 36.0593 33.1737V32.831C36.4511 32.6126 45.0052 27.6216 47.0962 27.1112C47.3858 28.8031 47.5737 30.7666 47.5737 33.0034C47.5737 35.2404 47.3858 37.2037 47.0962 38.8958V38.8935ZM50.1724 39.2268C50.5085 37.2475 50.673 35.1209 50.673 33.0012C50.673 30.8816 50.5085 28.7548 50.1724 26.7755C53.404 27.2492 55.8936 29.8562 55.8936 33.0012C55.8936 36.1463 53.404 38.7533 50.1724 39.2268Z" fill="#1F2428"/>
</svg>
