<svg width="66" height="66" viewBox="0 0 66 66" fill="none" xmlns="http://www.w3.org/2000/svg">
<circle cx="32.9183" cy="32.9183" r="32.9183" fill="#F5F5F5"/>
<g clip-path="url(#clip0_307_111)">
<path d="M32.5 8C18.9691 8 8 18.9691 8 32.5C8 46.0309 18.9691 57 32.5 57C46.0309 57 57 46.0311 57 32.5C57 18.9691 46.0311 8 32.5 8ZM32.5 14.4705C42.4414 14.4705 50.5295 22.5586 50.5295 32.5C50.5295 42.4416 42.4414 50.5295 32.5 50.5295C22.5586 50.5295 14.4705 42.4416 14.4705 32.5C14.4705 22.5584 22.5586 14.4705 32.5 14.4705ZM30.1074 37.791H30.0858C29.9014 37.7877 29.7202 37.7424 29.5559 37.6586C29.3916 37.5747 29.2486 37.4546 29.1378 37.3072L23.6111 29.9604C23.4262 29.7028 23.3495 29.383 23.3974 29.0695C23.4454 28.756 23.6141 28.4737 23.8676 28.2831C24.121 28.0925 24.439 28.0086 24.7535 28.0495C25.068 28.0904 25.354 28.2528 25.5502 28.5019L30.1426 34.6064L31.4563 32.9837C31.57 32.8432 31.7137 32.73 31.8768 32.6521C32.0399 32.5743 32.2184 32.5339 32.3991 32.5339H32.4007C32.5818 32.534 32.7605 32.5747 32.9239 32.653C33.0872 32.7313 33.2308 32.8452 33.3443 32.9864L34.6057 34.5534L41.8201 25.2522C42.0182 25.0005 42.3078 24.8374 42.6257 24.7984C42.9436 24.7594 43.264 24.8477 43.517 25.044C43.7701 25.2404 43.9352 25.5288 43.9765 25.8464C44.0177 26.164 43.9316 26.485 43.7371 26.7394L35.5816 37.254C35.4694 37.3986 35.3258 37.516 35.1617 37.5973C34.9977 37.6787 34.8173 37.7218 34.6342 37.7235H34.6233C34.4419 37.7235 34.2629 37.6828 34.0993 37.6045C33.9358 37.5262 33.7918 37.4122 33.6781 37.271L32.3963 35.6787L31.0501 37.3412C30.9364 37.4817 30.7927 37.595 30.6295 37.6728C30.4664 37.7506 30.2882 37.791 30.1074 37.791Z" fill="black"/>
</g>
<defs>
<clipPath id="clip0_307_111">
<rect width="49" height="49" fill="white" transform="translate(8 8)"/>
</clipPath>
</defs>
</svg>
