<svg width="66" height="66" viewBox="0 0 66 66" fill="none" xmlns="http://www.w3.org/2000/svg">
<circle cx="32.9183" cy="32.9183" r="32.9183" fill="#F5F5F5"/>
<path d="M12 22.8618C12.0005 21.3519 13.7109 20.4721 14.9448 21.3473L29.6882 31.8049C29.9924 32.0208 30.3132 32.2124 30.6477 32.378L30.6811 32.3946C31.0526 32.5782 31.4897 32.3086 31.4899 31.895V31.6922L31.4933 31.6901V25.7294C31.4938 24.2168 33.2084 23.3381 34.4416 24.2184L45.7546 32.3026C46.5362 32.8612 47 33.762 47 34.7209V39.2714C46.9995 40.7783 45.2949 41.6584 44.0604 40.7894L33.0344 33.0277L32.7752 32.8647C32.4028 32.6305 31.9177 32.8976 31.9177 33.3365V42.1373C31.9177 43.6415 30.2187 44.5236 28.9834 43.6604L13.2715 32.6826C12.475 32.126 12.0002 31.2168 12 30.2469V22.8618Z" fill="#0256FF"/>
<path d="M51.0008 26C52.6571 26.0003 54 27.5668 54 29.5C53.9999 31.433 52.6571 32.9997 51.0008 33C49.3442 33 48.0001 31.4333 48 29.5C48 27.5667 49.3442 26 51.0008 26Z" fill="#0256FF"/>
</svg>
