<svg width="66" height="66" viewBox="0 0 66 66" fill="none" xmlns="http://www.w3.org/2000/svg">
<circle cx="32.9183" cy="32.9183" r="32.9183" fill="#F5F5F5"/>
<path d="M56.4065 24.226L47.9411 19.3127C46.5136 18.4827 44.7209 19.5119 44.7209 21.1718V33.6209L38.7121 30.1684C35.4919 28.3093 31.5081 28.3093 28.2879 30.1684L22.2791 33.6209V21.1386C22.2791 19.4787 20.4865 18.4827 19.0589 19.2795L10.5935 24.226C9.59756 24.7903 9 25.8527 9 26.9814V38.7002C9 39.5302 9.19919 40.2937 9.59756 40.9909C9.99593 41.688 10.5271 42.2856 11.2243 42.7504L15.6064 45.539L18.9594 47.6636C20.9844 48.9584 23.5407 48.8256 25.4661 47.3981L25.7317 47.1989C25.7317 47.1989 25.7649 47.1657 25.7981 47.1325L30.8442 43.2815C32.3049 42.1528 34.7283 42.1528 36.2222 43.2815L41.2351 47.0993L41.5339 47.3317C43.4262 48.7592 46.0156 48.8588 48.0407 47.5972L51.3936 45.4726L55.7757 42.684C56.4729 42.2524 57.0373 41.6216 57.4024 40.9245C57.7676 40.2273 58 39.4638 58 38.6338V26.9482C58 25.8195 57.4024 24.7571 56.4065 24.1928V24.226Z" fill="url(#paint0_linear_2633_69)"/>
<path d="M44.7874 41.1866V45.4027C44.7874 46.6974 43.8579 47.7597 42.7292 47.7597C41.6004 47.7597 41.7332 47.5274 41.2021 47.129L36.1892 43.278C34.7285 42.1493 32.305 42.1493 30.8111 43.278L25.7651 47.129C25.2671 47.4942 24.9351 47.6269 24.4703 47.6269C23.3084 47.6269 22.2461 46.7638 22.2461 45.3695V41.1866L29.45 36.5389C31.9067 34.9454 35.0937 34.9454 37.5503 36.5389L44.7874 41.087V41.1866Z" fill="url(#paint1_linear_2633_69)"/>
<path d="M44.721 33.5891V41.2578L37.5835 36.6765C35.1269 35.083 31.9731 35.083 29.4832 36.6765L22.2793 41.2578V33.5891L28.2881 30.1365C31.5083 28.2774 35.4588 28.2774 38.7122 30.1365L44.721 33.5891Z" fill="url(#paint2_linear_2633_69)"/>
<path d="M57.9998 26.9814V38.667C57.9998 39.497 57.8007 40.2605 57.4023 40.9577L44.7207 33.5878V21.1386C44.7207 19.4787 46.5134 18.4827 47.9409 19.2795L56.4063 24.1928C57.4023 24.7571 57.9998 25.8195 57.9998 26.9482V26.9814Z" fill="url(#paint3_linear_2633_69)"/>
<path d="M22.2791 21.1426V33.625L9.59756 40.995C9.19919 40.2978 9 39.5342 9 38.7043V26.9855C9 25.8567 9.59756 24.7944 10.5935 24.23L19.0589 19.3168C20.4864 18.4868 22.2791 19.516 22.2791 21.1758V21.1426Z" fill="url(#paint4_linear_2633_69)"/>
<path d="M42.5623 47.6005C43.691 47.6005 44.7533 46.7042 44.7533 45.4427V41.2266L51.4593 45.5091L48.0731 47.6669C46.0481 48.9617 43.4586 48.8621 41.5664 47.4014L41.2344 47.1358C41.6991 47.4678 42.0975 47.6005 42.5623 47.6005Z" fill="url(#paint5_linear_2633_69)"/>
<path d="M57.4023 40.9949C57.0371 41.6921 56.4727 42.2896 55.7756 42.7544L51.3935 45.543L44.7207 41.2937V33.625L57.4023 41.0281V40.9949Z" fill="url(#paint6_linear_2633_69)"/>
<path d="M22.2802 45.4407C22.2802 46.7355 23.3425 47.7314 24.4712 47.5986C24.9692 47.5322 25.3676 47.4658 25.766 47.167L25.4672 47.3994C23.5749 48.8269 20.9855 48.9265 18.9604 47.665L15.6074 45.5403L22.2802 41.2578V45.4407Z" fill="url(#paint7_linear_2633_69)"/>
<path d="M22.2792 33.5859V41.2546L15.6065 45.5372L11.2244 42.7485C10.5272 42.317 9.96283 41.6862 9.59766 40.9891L22.2792 33.6191V33.5859Z" fill="url(#paint8_linear_2633_69)"/>
<defs>
<linearGradient id="paint0_linear_2633_69" x1="35.3591" y1="51.1162" x2="31.5081" y2="13.3039" gradientUnits="userSpaceOnUse">
<stop stop-color="#75BE2C"/>
<stop offset="0.9" stop-color="#9DC03B"/>
</linearGradient>
<linearGradient id="paint1_linear_2633_69" x1="33.5334" y1="35.3438" x2="33.5334" y2="47.7265" gradientUnits="userSpaceOnUse">
<stop stop-color="#238D37"/>
<stop offset="0.9" stop-color="#35537F"/>
</linearGradient>
<linearGradient id="paint2_linear_2633_69" x1="32.2054" y1="28.9414" x2="34.1309" y2="41.5566" gradientUnits="userSpaceOnUse">
<stop stop-color="#67D84D"/>
<stop offset="1" stop-color="#348522"/>
</linearGradient>
<linearGradient id="paint3_linear_2633_69" x1="51.3603" y1="18.9807" x2="51.3603" y2="40.9577" gradientUnits="userSpaceOnUse">
<stop stop-color="#E4D00A"/>
<stop offset="0.6" stop-color="#C4D132"/>
</linearGradient>
<linearGradient id="paint4_linear_2633_69" x1="15.6396" y1="18.9848" x2="15.6396" y2="40.9618" gradientUnits="userSpaceOnUse">
<stop stop-color="#E4D00A"/>
<stop offset="0.6" stop-color="#C4D132"/>
</linearGradient>
<linearGradient id="paint5_linear_2633_69" x1="46.3468" y1="41.2266" x2="46.3468" y2="48.5633" gradientUnits="userSpaceOnUse">
<stop stop-color="#8AB11B"/>
<stop offset="1" stop-color="#6EAF02"/>
</linearGradient>
<linearGradient id="paint6_linear_2633_69" x1="51.6591" y1="32.3635" x2="50.132" y2="44.7131" gradientUnits="userSpaceOnUse">
<stop stop-color="#75BE2C"/>
<stop offset="0.9" stop-color="#9DC03B"/>
</linearGradient>
<linearGradient id="paint7_linear_2633_69" x1="20.6867" y1="41.2578" x2="20.6867" y2="48.5281" gradientUnits="userSpaceOnUse">
<stop stop-color="#8AB11B"/>
<stop offset="1" stop-color="#6EAF02"/>
</linearGradient>
<linearGradient id="paint8_linear_2633_69" x1="16.8348" y1="32.424" x2="15.3077" y2="47.2634" gradientUnits="userSpaceOnUse">
<stop stop-color="#75BE2C"/>
<stop offset="0.9" stop-color="#9DC03B"/>
</linearGradient>
</defs>
</svg>
