<svg width="66" height="66" viewBox="0 0 66 66" fill="none" xmlns="http://www.w3.org/2000/svg">
<circle cx="32.9183" cy="32.9183" r="32.9183" fill="#F5F5F5"/>
<g clip-path="url(#clip0_151_11)">
<path d="M33.5587 11C21.7752 11 12.1837 20.558 12.1787 32.3057C12.1775 36.0609 13.1622 39.7265 15.033 42.9573L12 54L23.3336 51.0369C26.4566 52.7346 29.9721 53.6288 33.55 53.6301H33.5587C45.341 53.6301 54.9325 44.0708 54.9375 32.3231C54.94 26.6299 52.718 21.2767 48.6815 17.25C44.6449 13.222 39.2774 11.0025 33.5587 11ZM33.5587 50.0318H33.5512C30.3632 50.0318 27.2352 49.1761 24.5071 47.5632L23.8585 47.1796L17.1338 48.9382L18.9284 42.4031L18.506 41.733C16.7277 38.9131 15.7879 35.6536 15.7891 32.3082C15.7929 22.5434 23.7648 14.5995 33.5662 14.5995C38.3126 14.6008 42.7741 16.4454 46.1283 19.7933C49.4838 23.14 51.3296 27.5902 51.3284 32.3219C51.3246 42.0867 43.3527 50.0318 33.5587 50.0318ZM43.3052 36.7684C42.7716 36.5018 40.1447 35.214 39.6548 35.0359C39.1649 34.8578 38.8088 34.7693 38.4526 35.3024C38.0964 35.8355 37.0729 37.0349 36.7617 37.3899C36.4506 37.7461 36.1381 37.7897 35.6045 37.5231C35.0709 37.2566 33.3488 36.6936 31.3093 34.8802C29.7209 33.469 28.6486 31.7253 28.3375 31.1922C28.0263 30.6591 28.3037 30.3714 28.5724 30.1061C28.8123 29.8682 29.106 29.4846 29.3735 29.1732C29.6409 28.8619 29.7296 28.6402 29.9071 28.2839C30.0845 27.929 29.9958 27.6176 29.8621 27.3511C29.7284 27.0845 28.6599 24.464 28.215 23.3978C27.7813 22.3603 27.3414 22.4998 27.0128 22.4836C26.7016 22.4674 26.3454 22.4649 25.9892 22.4649C25.6331 22.4649 25.0545 22.5982 24.5646 23.1313C24.0747 23.6644 22.695 24.9522 22.695 27.5728C22.695 30.1933 24.6096 32.7254 24.8758 33.0804C25.1432 33.4354 28.6424 38.8135 34.0011 41.1189C35.2758 41.667 36.2706 41.9945 37.0467 42.2399C38.3264 42.6447 39.4911 42.5874 40.4109 42.4504C41.4369 42.2972 43.5714 41.1625 44.0163 39.9183C44.4612 38.6752 44.4612 37.6091 44.3275 37.3861C44.1938 37.1644 43.8376 37.0312 43.304 36.7646L43.3052 36.7684Z" fill="#25D366"/>
</g>
<defs>
<clipPath id="clip0_151_11">
<rect width="43" height="43" fill="white" transform="translate(12 11)"/>
</clipPath>
</defs>
</svg>
