<svg width="66" height="66" viewBox="0 0 66 66" fill="none" xmlns="http://www.w3.org/2000/svg">
<circle cx="32.9183" cy="32.9183" r="32.9183" fill="#F5F5F5"/>
<g clip-path="url(#clip0_4607_53)">
<path d="M15.0566 33.4984C15.0566 40.799 19.2994 47.1081 25.4518 50.0978L16.6535 25.9922C15.6301 28.286 15.0566 30.8245 15.0566 33.4984Z" fill="#464342"/>
<path d="M45.9521 32.5673C45.9521 30.2879 45.1333 28.7093 44.431 27.4806C43.4961 25.9613 42.6197 24.6747 42.6197 23.1554C42.6197 21.46 43.9056 19.8817 45.717 19.8817C45.7987 19.8817 45.8763 19.8919 45.956 19.8965C42.6745 16.8902 38.3025 15.0547 33.5006 15.0547C27.057 15.0547 21.3878 18.3607 18.0898 23.3681C18.5226 23.3811 18.9304 23.3902 19.2768 23.3902C21.206 23.3902 24.1924 23.1561 24.1924 23.1561C25.1867 23.0975 25.3039 24.5578 24.3107 24.6754C24.3107 24.6754 23.3115 24.793 22.1996 24.8512L28.9164 44.8293L32.9528 32.7238L30.0791 24.8505C29.0859 24.7923 28.1449 24.6747 28.1449 24.6747C27.151 24.6164 27.2675 23.0968 28.2615 23.1554C28.2615 23.1554 31.3075 23.3895 33.1198 23.3895C35.0487 23.3895 38.0354 23.1554 38.0354 23.1554C39.0304 23.0968 39.1473 24.5571 38.1537 24.6747C38.1537 24.6747 37.1524 24.7923 36.0427 24.8505L42.7082 44.6774L44.5479 38.5297C45.3453 35.9786 45.9521 34.1463 45.9521 32.5673Z" fill="#464342"/>
<path d="M33.825 35.1133L28.291 51.1937C29.9434 51.6794 31.6908 51.9451 33.5014 51.9451C35.6493 51.9451 37.7091 51.5737 39.6264 50.8996C39.5769 50.8206 39.532 50.7367 39.4952 50.6455L33.825 35.1133Z" fill="#464342"/>
<path d="M49.6857 24.6523C49.765 25.2398 49.8099 25.8705 49.8099 26.5489C49.8099 28.4205 49.4603 30.5245 48.4074 33.1553L42.7734 49.4441C48.2569 46.2466 51.9452 40.306 51.9452 33.5017C51.9455 30.295 51.1264 27.2796 49.6857 24.6523Z" fill="#464342"/>
<path d="M33.5007 12C21.6455 12 12 21.6446 12 33.4995C12 45.3558 21.6455 55 33.5007 55C45.3555 55 55.0025 45.3558 55.0025 33.4995C55.0021 21.6446 45.3555 12 33.5007 12ZM33.5007 54.0145C22.1892 54.0145 12.9859 44.8114 12.9859 33.4995C12.9859 22.1882 22.1888 12.9858 33.5007 12.9858C44.8119 12.9858 54.0145 22.1882 54.0145 33.4995C54.0145 44.8114 44.8119 54.0145 33.5007 54.0145Z" fill="#464342"/>
</g>
<defs>
<clipPath id="clip0_4607_53">
<rect width="43" height="43" fill="white" transform="translate(12 12)"/>
</clipPath>
</defs>
</svg>
