<svg width="62" height="62" viewBox="0 0 62 62" fill="none" xmlns="http://www.w3.org/2000/svg">
<circle cx="31" cy="31" r="31" fill="#F5F5F5"/>
<path d="M36.7264 33.9607C38.0024 30.8201 38.6529 28.0251 38.6284 25.8655C38.5985 23.2139 37.8423 21.2391 36.7264 19.9307C33.3717 15.9991 26.7646 18.0974 26.8531 25.9877C26.8862 28.9664 27.9236 32.8212 30.6195 37.4683C30.6195 37.4683 32.1223 35.5928 32.4526 33.909C25.2948 20.3416 40.3406 19.6034 32.8542 34.6448C32.8542 34.6448 31.9895 36.6077 30.887 37.923C28.5533 40.993 26.44 41.9623 24.5963 41.5404C18.1972 40.0777 17.1769 26.7612 16.7022 18.8436H12.0039C12.002 18.9308 12.0013 19.0203 12 19.1082V20.5892C12.2457 36.3002 20.218 58.1564 32.9595 40.9654C34.2218 39.2022 34.9396 37.7971 34.9396 37.7971C35.6291 36.4768 36.2257 35.1922 36.7264 33.9607Z" fill="#29766A"/>
<path d="M47.6465 26.4928C47.6058 26.6934 47.5754 26.9057 47.5537 27.1309C46.6951 36.3569 42.8632 44.1528 37.0838 39.8602C36.9696 40.0816 36.8496 40.296 36.7264 40.5039C36.1483 41.4739 35.4843 42.2967 34.8763 42.9491C34.8609 42.9361 34.8435 42.9259 34.8247 42.9191C35.4611 43.4748 36.0958 43.918 36.7264 44.2572C43.8616 48.1049 50.3729 38.5942 51 26.7025L47.6465 26.4928Z" fill="#29766A"/>
</svg>
