<svg width="66" height="66" viewBox="0 0 66 66" fill="none" xmlns="http://www.w3.org/2000/svg">
<circle cx="32.9183" cy="32.9183" r="32.9183" fill="#F5F5F5"/>
<path d="M38.7301 23.2634C39.9919 22.0005 40.7935 21.6602 42.5361 21.6602H50.3902C51.0308 21.6602 51.1712 22.2414 50.7898 22.6217L37.6693 35.7434C37.4683 35.9444 37.3884 35.9832 37.2673 36.0243C37.2274 36.0448 37.168 36.0448 37.128 36.0448C37.088 36.0448 37.0275 36.0448 36.9876 36.0243C36.8665 35.9843 36.7866 35.9444 36.5868 35.7434L31.9586 31.1164C31.7588 30.9154 31.7188 30.8354 31.6788 30.7155C31.6583 30.6756 31.6583 30.6151 31.6583 30.5751C31.6583 30.5351 31.6583 30.4746 31.6788 30.4346C31.7188 30.3147 31.7588 30.2348 31.9586 30.035L38.7301 23.2634ZM27.271 31.5366C26.0092 30.2748 25.1871 29.9539 23.4456 29.9539H15.611C14.9693 29.9539 14.8288 30.5351 15.2102 30.9154L28.3307 44.0382C28.5317 44.238 28.6117 44.278 28.7327 44.318C28.7776 44.3346 28.8254 44.3416 28.8731 44.3385C28.9131 44.3385 28.9725 44.3385 29.0125 44.318C29.1324 44.278 29.2134 44.238 29.4133 44.0382L34.0414 39.3906C34.2413 39.1897 34.2812 39.1097 34.3212 38.9898C34.3378 38.945 34.3448 38.8971 34.3418 38.8494C34.3418 38.8094 34.3418 38.7489 34.3212 38.7089C34.2812 38.589 34.2413 38.5091 34.0414 38.3081L27.271 31.5366Z" fill="#08CF65"/>
</svg>
