<svg width="66" height="66" viewBox="0 0 66 66" fill="none" xmlns="http://www.w3.org/2000/svg">
<circle cx="32.9183" cy="32.9183" r="32.9183" fill="#F5F5F5"/>
<path d="M32.5 57.0049C45.4787 57.0049 56 46.4825 56 33.5024C56 20.5224 45.4787 10 32.5 10C19.5213 10 9 20.5224 9 33.5024C9 46.4825 19.5213 57.0049 32.5 57.0049Z" fill="black" stroke="white" stroke-miterlimit="10"/>
<path d="M18.0259 19.8828L29.2586 34.9033L17.9551 47.1157H20.4992L30.3957 36.4233L38.3914 47.1157H47.0487L35.1838 31.2505L45.7051 19.8828H43.161L34.0472 29.73L26.6832 19.8828H18.0259ZM21.7672 21.7568H25.7443L43.3069 45.2417H39.3298L21.7672 21.7568Z" fill="white"/>
</svg>
