<svg width="66" height="66" viewBox="0 0 66 66" fill="none" xmlns="http://www.w3.org/2000/svg">
<circle cx="32.9183" cy="32.9183" r="32.9183" fill="#F5F5F5"/>
<path d="M45.8351 30.9223H38.1692C38.0066 30.9223 37.8036 31.0348 37.7193 31.1722L33.1253 38.651C33.041 38.7885 32.9037 38.7877 32.8194 38.651L28.2739 31.1737C28.1904 31.0362 27.9882 30.923 27.8255 30.923H20.1239C19.9612 30.923 19.9015 31.0318 19.9926 31.1656L29.0738 44.519C29.1648 44.6521 29.2387 44.8932 29.2387 45.0535V53.0696C29.2387 53.23 29.3723 53.3615 29.5349 53.3615H36.421C36.5836 53.3615 36.7172 53.23 36.7172 53.0696V45.0535C36.7172 44.8932 36.7918 44.6521 36.8822 44.519L45.9656 31.1656C46.0567 31.0326 45.9969 30.923 45.8343 30.923L45.8351 30.9223Z" fill="#4155DF"/>
<path d="M32.4526 19.3692C32.6525 19.4788 32.8465 19.5677 32.9487 19.5677C33.0509 19.5677 33.2226 19.5067 33.4435 19.3692C37.7852 16.6293 34.1724 13.2667 32.9487 12C31.7243 13.2667 28.1115 16.6293 32.4526 19.3692Z" fill="#4155DF"/>
<path d="M27.8863 29.3644C28.1333 29.3445 28.3623 29.31 28.4541 29.2489C28.5466 29.188 28.6638 29.0321 28.7787 28.777C31.0186 23.7368 25.712 22.8472 23.8363 22.4304C23.5057 24.2969 22.3029 29.4666 27.8863 29.3637V29.3644Z" fill="#4155DF"/>
<path d="M20.7732 28.2637C20.9821 28.132 21.1679 27.9968 21.2208 27.9005C21.2739 27.8042 21.3037 27.6115 21.2843 27.3337C20.8732 21.8464 15.7599 23.5034 13.9042 23.9997C14.4982 25.8016 15.8875 30.9264 20.7732 28.2637Z" fill="#4155DF"/>
<path d="M21.6595 37.4643C21.7483 37.2364 21.8155 37.0181 21.7997 36.91C21.7841 36.8012 21.6916 36.6299 21.5088 36.4174C17.8676 32.2461 14.7555 36.5733 13.5624 38.0591C15.1271 39.1603 19.336 42.467 21.6587 37.4643H21.6595Z" fill="#4155DF"/>
<path d="M32.948 20.7598C31.99 21.825 29.1629 24.651 32.5593 26.9542C32.716 27.0461 32.8675 27.1211 32.948 27.1211C33.0286 27.1211 33.1622 27.0696 33.3353 26.9542C36.7325 24.651 33.9061 21.8243 32.948 20.7598Z" fill="#4155DF"/>
<path d="M23.5963 39.8091C23.5419 39.7715 23.4262 39.7443 23.2539 39.7428C19.8515 39.7289 20.4178 42.9548 20.5581 44.1207C21.7161 43.8428 24.982 43.2379 23.7792 40.1024C23.7165 39.9679 23.6501 39.8465 23.5956 39.8091H23.5963Z" fill="#4155DF"/>
<path d="M32.5593 34.2852C32.716 34.3772 32.8675 34.4521 32.948 34.4521C33.0286 34.4521 33.1622 34.4007 33.3353 34.2852C36.7325 31.982 33.9061 29.1553 32.948 28.0908C31.99 29.1561 29.1629 31.982 32.5593 34.2852Z" fill="#4155DF"/>
<path d="M18.2265 32.5688C18.3332 32.4232 18.4228 32.2813 18.4302 32.2027C18.4377 32.124 18.3974 31.988 18.2967 31.8078C16.2731 28.2674 13.1625 30.7882 12 31.6329C12.9909 32.6687 15.5949 35.6961 18.2273 32.5688H18.2265Z" fill="#4155DF"/>
<path d="M21.7272 22.8197C21.9093 22.8072 22.0772 22.7837 22.1428 22.7381C22.2084 22.6926 22.2891 22.5756 22.3644 22.3838C23.8209 18.5823 19.8626 17.8501 18.4599 17.5141C18.2898 18.9271 17.6048 22.8381 21.728 22.8197H21.7272Z" fill="#4155DF"/>
<path d="M27.3026 21.5971C27.5033 21.6317 27.6928 21.6508 27.7772 21.6192C27.8614 21.5876 27.9808 21.4818 28.1152 21.2928C30.7415 17.5472 26.6378 15.6968 25.2037 14.958C24.6306 16.4496 22.8138 20.5194 27.3026 21.5971Z" fill="#4155DF"/>
<path d="M37.4617 29.2495C37.5542 29.3105 37.7825 29.3443 38.0295 29.3649C43.6121 29.4678 42.4093 24.2982 42.0796 22.4316C40.2037 22.8477 34.8972 23.738 37.1371 28.7782C37.252 29.0326 37.3692 29.1892 37.4617 29.2502V29.2495Z" fill="#4155DF"/>
<path d="M44.6337 27.3333C44.6143 27.6112 44.6441 27.8039 44.6971 27.9002C44.7501 27.9965 44.9358 28.1325 45.1448 28.2633C50.0312 30.9253 51.4205 25.8013 52.0137 23.9994C50.158 23.5039 45.0448 21.8461 44.6337 27.3333Z" fill="#4155DF"/>
<path d="M44.4056 36.4174C44.2228 36.6299 44.1303 36.802 44.1146 36.91C44.0989 37.0181 44.1667 37.2364 44.2555 37.4643C46.5783 42.467 50.7873 39.1603 52.3519 38.0591C51.1589 36.5733 48.0475 32.2461 44.4056 36.4174Z" fill="#4155DF"/>
<path d="M42.6613 39.7416C42.489 39.7431 42.3733 39.771 42.3189 39.8078C42.2644 39.8445 42.198 39.9659 42.1353 40.1012C40.9333 43.2365 44.1984 43.8416 45.3564 44.1195C45.4967 42.9543 46.0629 39.7276 42.6606 39.7416H42.6613Z" fill="#4155DF"/>
<path d="M47.6196 31.8086C47.5181 31.9887 47.4786 32.1247 47.4861 32.2034C47.4935 32.282 47.5823 32.4239 47.6897 32.5695C50.3221 35.6961 52.9261 32.6694 53.917 31.6336C52.7545 30.7896 49.6439 28.2688 47.6204 31.8086H47.6196Z" fill="#4155DF"/>
<path d="M43.773 22.7381C43.8387 22.783 44.0066 22.8065 44.1886 22.8197C48.3117 22.8381 47.6269 18.9271 47.4567 17.5141C46.054 17.8501 42.0949 18.583 43.5522 22.3838C43.6268 22.5756 43.7073 22.6933 43.7738 22.7381H43.773Z" fill="#4155DF"/>
<path d="M38.1391 21.6192C38.2234 21.6508 38.4122 21.6317 38.6137 21.5971C43.1024 20.5194 41.2856 16.4489 40.7126 14.958C39.2793 15.6968 35.1755 17.5472 37.8011 21.2928C37.9354 21.4818 38.0548 21.5876 38.1391 21.6192Z" fill="#4155DF"/>
</svg>
