<svg width="66" height="66" viewBox="0 0 66 66" fill="none" xmlns="http://www.w3.org/2000/svg">
<circle cx="32.9183" cy="32.9183" r="32.9183" fill="#F5F5F5"/>
<g clip-path="url(#clip0_266_2)">
<path fill-rule="evenodd" clip-rule="evenodd" d="M36.951 11.1246C34.7876 9.99688 32.2104 9.99688 30.047 11.1246L15.1012 18.9154C12.6302 20.2034 11.0803 22.7603 11.0803 25.5488V39.8463C11.0803 42.6347 12.6302 45.1916 15.1012 46.4797L30.047 54.2704C30.7178 54.62 31.4283 54.8613 32.1539 54.9942V44.8036C32.1539 38.8606 27.3361 34.0426 21.3929 34.0426H16.4608V31.3524H21.3929C27.3361 31.3524 32.1539 26.5346 32.1539 20.5914V15.6593H34.8442V20.5914C34.8442 26.5346 39.6621 31.3524 45.6052 31.3524H55.9178V25.5488C55.9178 22.7603 54.3679 20.2034 51.8969 18.9154L36.951 11.1246ZM55.9178 34.0426H45.6052C39.6621 34.0426 34.8442 38.8606 34.8442 44.8036V54.9942C35.5698 54.8613 36.2803 54.62 36.951 54.2704L51.8969 46.4797C54.3679 45.1916 55.9178 42.6347 55.9178 39.8463V34.0426Z" fill="url(#paint0_linear_266_2)"/>
</g>
<defs>
<linearGradient id="paint0_linear_266_2" x1="55.9178" y1="10.2788" x2="11.2026" y2="55.1161" gradientUnits="userSpaceOnUse">
<stop offset="0.15" stop-color="#A0A4EE"/>
<stop offset="0.8" stop-color="#596CED"/>
</linearGradient>
<clipPath id="clip0_266_2">
<rect width="45" height="45" fill="white" transform="translate(11 10)"/>
</clipPath>
</defs>
</svg>
