<svg width="66" height="66" viewBox="0 0 66 66" fill="none" xmlns="http://www.w3.org/2000/svg">
<circle cx="32.9183" cy="32.9183" r="32.9183" fill="#F5F5F5"/>
<g clip-path="url(#clip0_54_2)">
<g clip-path="url(#clip1_54_2)">
<path d="M55.0174 21.1533C54.4758 19.1238 52.8855 17.5289 50.8621 16.9857C47.1983 16 32.5 16 32.5 16C32.5 16 17.8019 16 14.138 16.9857C12.1145 17.5289 10.5244 19.1238 9.98272 21.1533C9 24.8282 9 32.5 9 32.5C9 32.5 9 40.1718 9.98272 43.8467C10.5244 45.8762 12.1145 47.4711 14.138 48.0143C17.8019 49 32.5 49 32.5 49C32.5 49 47.1983 49 50.8621 48.0143C52.8855 47.4711 54.4758 45.8762 55.0174 43.8467C56.0002 40.1718 56.0002 32.5 56.0002 32.5C56.0002 32.5 55.9962 24.8282 55.0174 21.1533Z" fill="#FF0000"/>
<path d="M27.7956 39.5709L40.006 32.5007L27.7956 25.4303V39.5709Z" fill="white"/>
</g>
</g>
<defs>
<clipPath id="clip0_54_2">
<rect width="47" height="33" fill="white" transform="translate(9 16)"/>
</clipPath>
<clipPath id="clip1_54_2">
<rect width="47" height="33" fill="white" transform="translate(9 16)"/>
</clipPath>
</defs>
</svg>
