<svg width="66" height="66" viewBox="0 0 66 66" fill="none" xmlns="http://www.w3.org/2000/svg">
<circle cx="32.9183" cy="32.9183" r="32.9183" fill="#F5F5F5"/>
<g clip-path="url(#clip0_192_16)">
<path fill-rule="evenodd" clip-rule="evenodd" d="M14.8608 40.2593L12.1927 41.239L12.0499 49.2143L21.2851 45.825C18.1172 44.7556 15.8043 42.8739 14.8608 40.2593Z" fill="#FDBD39"/>
<path fill-rule="evenodd" clip-rule="evenodd" d="M16.2565 31.8235L7 35.2214L12.1935 41.239L14.8608 40.2593C13.9199 37.6523 14.4996 34.7063 16.2565 31.8235Z" fill="#F69833"/>
<path fill-rule="evenodd" clip-rule="evenodd" d="M31.8353 20.3145C20.0467 24.6417 12.4468 33.5711 14.8608 40.2593L57.5487 24.5887C55.1347 17.9006 43.6231 15.9873 31.8353 20.3145Z" fill="#FECF33"/>
<path fill-rule="evenodd" clip-rule="evenodd" d="M40.575 44.5335C52.3628 40.2054 59.9763 31.3161 57.5495 24.5887L14.86 40.2593C17.2876 46.9867 28.7864 48.8607 40.575 44.5335Z" fill="#EE6723"/>
<path fill-rule="evenodd" clip-rule="evenodd" d="M57.5495 24.5887L14.86 40.2593C15.6955 42.5758 18.8839 43.7169 23.3557 43.7169C27.7162 43.7169 33.2982 42.633 39.1173 40.4967C50.9051 36.1695 59.1985 29.1628 57.5478 24.5887" fill="#F69833"/>
<path fill-rule="evenodd" clip-rule="evenodd" d="M49.0529 21.131C44.6924 21.131 39.1104 22.215 33.2913 24.3513C21.5035 28.6785 13.2101 35.6843 14.8608 40.2593L57.5487 24.5887C56.7131 22.2722 53.5256 21.131 49.0529 21.131Z" fill="#FDBD39"/>
<path fill-rule="evenodd" clip-rule="evenodd" d="M46.695 49.6371C45.4387 49.6371 43.5866 48.4968 41.187 46.2487C38.3506 43.5888 35.1002 39.6929 32.0351 35.2778C28.9708 30.8643 26.4523 26.4508 24.9444 22.8513C23.3022 18.929 23.0676 16.5177 24.2482 15.6832C24.5075 15.5004 24.8194 15.4081 25.1764 15.4081C26.1369 15.4081 28.0086 16.1265 31.469 19.5508L31.5455 19.6251L31.5344 19.7319C31.5106 19.9779 31.4894 20.2265 31.4698 20.4699L31.4316 20.9534L31.0916 20.61C27.3626 16.8346 25.7213 16.4271 25.1883 16.4271C25.0362 16.4271 24.9155 16.4579 24.8288 16.5194C24.3162 16.8807 24.2831 18.6523 25.876 22.4541C27.3575 25.9895 29.8387 30.3355 32.863 34.6926C35.889 39.0506 39.0892 42.8892 41.8764 45.5013C44.8811 48.3183 46.2352 48.6224 46.6789 48.6224C46.8319 48.6224 46.9551 48.5899 47.0478 48.5242C47.5875 48.1432 47.5884 46.2453 45.8119 42.1521L45.7303 41.965L45.9088 41.8668C46.0873 41.7686 46.2607 41.672 46.4222 41.5798L46.6364 41.4576L46.735 41.684C47.9938 44.5839 49.1711 48.2696 47.6275 49.3604C47.3674 49.544 47.0537 49.6371 46.695 49.6371Z" fill="#EE6723"/>
<path fill-rule="evenodd" clip-rule="evenodd" d="M40.8606 44.4114L40.8436 44.6334C40.5452 48.3397 39.7598 52.7942 37.7139 52.9752C37.6731 52.9787 37.6306 52.9804 37.5881 52.9804C36.1975 52.9804 34.8825 50.979 33.6798 47.0328C32.5408 43.2984 31.6568 38.2861 31.1918 32.916C30.726 27.5484 30.7328 22.4559 31.2114 18.5788C31.7324 14.3532 32.7252 12.1469 34.1617 12.0197C34.2042 12.0162 34.2484 12.0137 34.2918 12.0137C35.2999 12.0137 36.8197 13.1617 38.3752 18.5053L37.3594 18.7018C36.8401 16.9166 36.274 15.4645 35.7121 14.4651C35.1919 13.5426 34.687 13.0344 34.2892 13.0344C34.2756 13.0344 34.2629 13.0344 34.2493 13.0361C33.6271 13.0908 32.7201 14.6086 32.2152 18.7044C31.7452 22.5122 31.7392 27.5279 32.1982 32.8272C32.6589 38.1273 33.5276 43.066 34.6462 46.733C35.1469 48.3747 35.696 49.7285 36.2349 50.6468C36.7313 51.4941 37.2115 51.9605 37.5872 51.9605C37.6 51.9605 37.6127 51.9605 37.6263 51.9588C38.2213 51.9067 39.3442 50.3273 39.8168 44.771L40.8606 44.4114Z" fill="#EE6723"/>
</g>
<defs>
<clipPath id="clip0_192_16">
<rect width="51" height="41" fill="white" transform="translate(7 12)"/>
</clipPath>
</defs>
</svg>
