<svg width="66" height="66" viewBox="0 0 66 66" fill="none" xmlns="http://www.w3.org/2000/svg">
<circle cx="32.9183" cy="32.9183" r="32.9183" fill="#F5F5F5"/>
<g clip-path="url(#clip0_470_2)">
<path d="M47.7281 13.0399H18.2719C15.3824 13.0399 13.0399 15.3824 13.0399 18.2719V47.7281C13.0399 50.6176 15.3824 52.9601 18.2719 52.9601H47.7281C50.6176 52.9601 52.9601 50.6176 52.9601 47.7281V18.2719C52.9601 15.3824 50.6176 13.0399 47.7281 13.0399Z" fill="#211C20"/>
<mask id="mask0_470_2" style="mask-type:luminance" maskUnits="userSpaceOnUse" x="20" y="20" width="26" height="26">
<path d="M45.6353 20.3124H20.3647V45.74H45.6353V20.3124Z" fill="white"/>
</mask>
<g mask="url(#mask0_470_2)">
<path d="M22.9265 21.575C23.5863 20.9838 24.441 20.6569 25.3268 20.6569H37.8251L32.4305 26.0818C31.3047 27.2138 29.7742 27.8504 28.1777 27.8504H25.3268C22.0268 27.8504 20.469 23.7775 22.9265 21.575Z" fill="#FFC738"/>
<path d="M43.1651 44.4634C42.5056 45.0546 41.6507 45.3815 40.765 45.3815H28.2666L33.6613 39.9566C34.787 38.8245 36.3175 38.188 37.9139 38.188H40.765C44.0648 38.188 45.6226 42.2609 43.1651 44.4634Z" fill="#FFC738"/>
<path d="M40.0194 21.4604L21.4284 40.0525C20.1788 41.3022 20.1788 43.3284 21.4284 44.578C22.6781 45.8277 24.7041 45.8277 25.9537 44.578L44.5446 25.9859C45.7943 24.7362 45.7943 22.7101 44.5446 21.4604C43.2951 20.2107 41.269 20.2107 40.0194 21.4604Z" fill="#FFC738"/>
</g>
</g>
<defs>
<clipPath id="clip0_470_2">
<rect width="40" height="40" fill="white" transform="translate(13 13)"/>
</clipPath>
</defs>
</svg>
