<svg width="66" height="66" viewBox="0 0 66 66" fill="none" xmlns="http://www.w3.org/2000/svg">
<circle cx="32.9183" cy="32.9183" r="32.9183" fill="#F5F5F5"/>
<g clip-path="url(#clip0_62_19)">
<mask id="mask0_62_19" style="mask-type:luminance" maskUnits="userSpaceOnUse" x="2" y="27" width="62" height="13">
<path d="M64 27H2V40H64V27Z" fill="white"/>
</mask>
<g mask="url(#mask0_62_19)">
<path d="M20.4049 30.3585C20.0664 30.3585 19.7743 30.2366 19.5263 29.9929C19.2782 29.7492 19.1542 29.4622 19.1542 29.1297C19.1542 28.7982 19.2782 28.5078 19.5263 28.2584C19.7743 28.009 20.0676 27.8849 20.4049 27.8849C20.7526 27.8849 21.0517 28.009 21.2998 28.2584C21.5478 28.5078 21.6718 28.7982 21.6718 29.1297C21.6718 29.4622 21.5478 29.7492 21.2998 29.9929C21.0505 30.2366 20.7526 30.3585 20.4049 30.3585ZM19.3918 39.0684V31.2912H21.4342V39.0684H19.3918Z" fill="black"/>
<path d="M31.233 39.0684H28.8741L27.1563 36.711L25.4384 39.0684H23.0796L25.9809 35.0984L23.2059 31.2912H25.5647L27.1609 33.4824L28.7617 31.2912H31.1043L28.3339 35.0927L31.233 39.0684Z" fill="black"/>
<path d="M37.1386 29.8916C36.02 29.8084 35.4601 30.2491 35.4601 31.2138V31.2912H37.1386V33.2204H35.4601V39.0684H33.4177V33.2204H32.2783V31.2912H33.4177V31.2138C33.4177 30.1148 33.7284 29.28 34.352 28.7094C34.9744 28.1389 35.9029 27.8906 37.1386 27.9623V29.8916Z" fill="black"/>
<path d="M38.8622 39.0684V27.7141H40.9046V39.0684H38.8622Z" fill="black"/>
<path d="M50.1513 38.0958C49.3387 38.8896 48.3466 39.2859 47.1747 39.2859C46.0028 39.2859 45.0141 38.8896 44.2061 38.0958C43.3982 37.3032 42.9949 36.3306 42.9949 35.1792C42.9949 34.0278 43.3982 33.0564 44.2061 32.2626C45.0141 31.4688 46.0028 31.0725 47.1747 31.0725C48.3466 31.0725 49.3377 31.4688 50.1513 32.2626C50.9639 33.0553 51.3709 34.0278 51.3709 35.1792C51.3709 36.3306 50.9639 37.3032 50.1513 38.0958ZM45.647 36.7201C46.0527 37.1244 46.5627 37.3271 47.1747 37.3271C47.7867 37.3271 48.2991 37.1244 48.7106 36.7201C49.1221 36.3158 49.3282 35.8022 49.3282 35.1804C49.3282 34.5586 49.1221 34.0449 48.7106 33.6406C48.2991 33.2363 47.7867 33.0336 47.1747 33.0336C46.5627 33.0336 46.0527 33.2363 45.647 33.6406C45.2401 34.0449 45.0373 34.5586 45.0373 35.1804C45.0384 35.8022 45.2413 36.3147 45.647 36.7201Z" fill="black"/>
<path d="M62.0411 31.2912H64.0014L61.6932 39.0684H59.6917L58.1938 34.3559L56.6963 39.0684H54.6943L52.3681 31.2912H54.5277L55.8827 36.0664L57.3243 31.2912H59.2568L60.6989 36.0835L62.0411 31.2912Z" fill="black"/>
<path d="M3.02905 27H18.8165L10.8463 36.1427L11.4456 30.5145L3.02905 27Z" fill="black"/>
<path d="M17.7886 40H2L9.97022 30.8573L9.37095 36.4855L17.7886 40Z" fill="black"/>
</g>
</g>
<defs>
<clipPath id="clip0_62_19">
<rect width="62" height="13" fill="white" transform="translate(2 27)"/>
</clipPath>
</defs>
</svg>
