<svg width="62" height="62" viewBox="0 0 62 62" fill="none" xmlns="http://www.w3.org/2000/svg">
<circle cx="31" cy="31" r="31" fill="#F5F5F5"/>
<g clip-path="url(#clip0_1724_48)">
<path d="M55.9926 24.6807V36.5326L54.3524 38.1337V26.5356L55.9926 24.6807Z" fill="#E79225"/>
<path d="M45.2438 24.6904L43.5451 26.5356L43.633 26.6527L54.2841 26.6137L54.3817 26.5356L55.9926 24.6807L45.2438 24.6904Z" fill="#FFF16D"/>
<path d="M43.5451 26.5354H54.3817V38.1433H43.5451V26.5354Z" fill="url(#paint0_linear_1724_48)"/>
<path d="M52.7318 30.7138C52.517 30.1768 52.1949 29.6887 51.7751 29.2689C51.3748 28.8589 50.9257 28.5465 50.418 28.3415C49.9202 28.1364 49.3832 28.0291 48.7974 28.0291C48.2117 28.0291 47.665 28.1364 47.1671 28.3415C46.6594 28.5465 46.2103 28.8589 45.8101 29.2689C45.3903 29.6887 45.0778 30.1768 44.8631 30.7138C44.6483 31.2507 44.5507 31.8365 44.5507 32.4808C44.5507 33.1057 44.6581 33.6914 44.8728 34.2381C45.0876 34.7848 45.4 35.273 45.8198 35.7025C46.2103 36.1028 46.6594 36.4055 47.1573 36.6105C47.6552 36.8155 48.2117 36.9229 48.8072 36.9229C49.3832 36.9229 49.9202 36.8155 50.418 36.6105C50.9159 36.4055 51.3748 36.1028 51.7751 35.7025C52.1949 35.273 52.517 34.7848 52.7318 34.2479C52.9466 33.711 53.054 33.1154 53.054 32.4906C53.054 31.8365 52.9466 31.2507 52.7318 30.7138ZM50.4962 34.5408C50.0764 35.0387 49.5199 35.2925 48.7974 35.2925C48.075 35.2925 47.5088 35.0387 47.089 34.5408C46.6692 34.0429 46.4642 33.3497 46.4642 32.4711C46.4642 31.5729 46.6789 30.8798 47.089 30.3721C47.5088 29.8644 48.0652 29.6204 48.7974 29.6204C49.5199 29.6204 50.0764 29.8742 50.4962 30.3721C50.9062 30.8798 51.121 31.5729 51.121 32.4711C51.121 33.3497 50.9159 34.0429 50.4962 34.5408Z" fill="white"/>
<path d="M42.4809 23.7141V23.7727L43.8672 34.4238L43.0569 36.6692L42.9495 36.5911L41.5242 26.3793L41.5535 26.2427L42.4419 23.7727L42.4809 23.7141Z" fill="#009ADA"/>
<path d="M31.8103 25.198L42.4809 23.7141L41.5827 26.2719L41.4558 26.4086L31.4783 27.873L31.5271 26.0474L31.8103 25.198Z" fill="#91C9ED"/>
<path d="M41.5828 26.272L43.0569 36.6693L32.5425 38.1434L31.1269 28.0976L31.7419 27.6192L41.5828 26.272Z" fill="url(#paint1_linear_1724_48)"/>
<path d="M39.7962 28.2636C39.7474 27.9415 39.64 27.6974 39.4643 27.5314C39.3178 27.4045 39.1421 27.3362 38.9371 27.3362C38.8883 27.3362 38.8297 27.3362 38.7711 27.3459C38.4978 27.385 38.2927 27.5119 38.1658 27.7169C38.0682 27.8634 38.0292 28.0489 38.0292 28.2636C38.0292 28.3417 38.0389 28.4296 38.0487 28.5175L38.4294 31.2217L35.403 31.6708L35.0222 28.9666C34.9734 28.6541 34.866 28.4101 34.6903 28.2441C34.5439 28.1074 34.3681 28.0391 34.1729 28.0391C34.1241 28.0391 34.0753 28.0391 34.0264 28.0489C33.7433 28.0879 33.5285 28.2148 33.3919 28.4198C33.2942 28.5663 33.2552 28.7518 33.2552 28.9666C33.2552 29.0447 33.2649 29.1325 33.2747 29.2301L34.3096 36.2691C34.3584 36.5912 34.4658 36.8353 34.661 37.0013C34.8075 37.1282 34.9832 37.1868 35.198 37.1868C35.2565 37.1868 35.3151 37.1868 35.3737 37.177C35.6373 37.1379 35.8325 37.011 35.9595 36.806C36.0473 36.6596 36.0864 36.4838 36.0864 36.2788C36.0864 36.2007 36.0766 36.1129 36.0668 36.025L35.6471 33.2426L38.6735 32.7935L39.0933 35.5759C39.1421 35.8981 39.2495 36.1421 39.435 36.2984C39.5814 36.4253 39.7572 36.4936 39.9622 36.4936C40.011 36.4936 40.0696 36.4936 40.1281 36.4838C40.4015 36.4448 40.6065 36.3179 40.7334 36.1129C40.8213 35.9664 40.8701 35.7907 40.8701 35.5759C40.8701 35.4978 40.8603 35.4099 40.8506 35.3221L39.7962 28.2636Z" fill="white"/>
<path d="M21.823 21L18.0253 30.0207L18.5428 33.9844L18.572 33.9746L22.8383 24.3779L22.8188 24.1729L21.9011 21.1269L21.823 21Z" fill="#66BF6B"/>
<path d="M21.823 21L22.809 24.3096L22.8286 24.3779L32.2203 28.5856L32.2496 28.5661L31.449 25.403L21.823 21Z" fill="#98D0A0"/>
<path d="M22.809 24.3096L32.2496 28.5661L27.9833 38.241L18.5427 33.9844L22.809 24.3096Z" fill="url(#paint2_linear_1724_48)"/>
<path d="M29.3891 29.3471C29.1841 28.8004 28.901 28.3318 28.53 27.9413C28.159 27.5508 27.7099 27.2384 27.1828 27.0138C26.6556 26.7893 26.1284 26.6819 25.5914 26.6819H25.5621C25.0154 26.6819 24.4785 26.8088 23.9513 27.0431C23.3948 27.2872 22.9164 27.6191 22.5064 28.0584C22.0964 28.488 21.7644 29.0152 21.5106 29.6205C21.2568 30.216 21.1201 30.8213 21.0908 31.4168V31.6218C21.0908 32.149 21.1787 32.6664 21.3642 33.1741C21.5594 33.711 21.8425 34.1699 22.2135 34.5604C22.5845 34.9509 23.0434 35.2633 23.5901 35.4879C24.1075 35.7124 24.6347 35.8198 25.1716 35.8198H25.1814C25.7183 35.8198 26.2553 35.7026 26.7825 35.4781C27.339 35.234 27.8271 34.8923 28.2371 34.453C28.6472 34.0234 28.9889 33.506 29.2427 32.9007C29.4965 32.2954 29.6332 31.6999 29.6625 31.1044V30.9287C29.6722 30.3917 29.5844 29.8645 29.3891 29.3471ZM27.5049 32.1588C27.1535 32.9984 26.6751 33.5744 26.0991 33.8868C25.7867 34.0527 25.4645 34.1406 25.1423 34.1406C24.8592 34.1406 24.5566 34.0723 24.2539 33.9453C23.5901 33.6622 23.18 33.2131 23.0043 32.5688C22.9457 32.354 22.9164 32.1295 22.9164 31.8952C22.9164 31.4266 23.0336 30.9091 23.2679 30.3527C23.6291 29.4935 24.1075 28.9078 24.6835 28.5856C24.9959 28.4099 25.3181 28.3318 25.6402 28.3318C25.9331 28.3318 26.226 28.4001 26.5384 28.527C27.1925 28.8102 27.6025 29.2592 27.7783 29.9036C27.8369 30.1086 27.8661 30.3331 27.8661 30.5674C27.8661 31.0556 27.749 31.5828 27.5049 32.1588Z" fill="white"/>
<path d="M17.2736 22.5327L18.8161 32.8617L18.1132 36.4934L18.0156 36.3665L16.5121 26.389V26.1937L17.176 22.7084L17.2736 22.5327Z" fill="#760D16"/>
<path d="M6.00745 27.8729L6.73965 24.2217L17.2736 22.5327L16.5609 26.2523V26.4964L6.13436 27.9705L6.00745 27.8729Z" fill="#EF463E"/>
<path d="M16.5609 26.2522L18.1132 36.4933L7.68663 38.1237L6.00745 27.8728L16.5609 26.2522Z" fill="url(#paint3_linear_1724_48)"/>
<path d="M15.4383 34.863C15.3601 34.7654 15.243 34.6971 15.1063 34.6483C14.9696 34.5995 14.8037 34.5799 14.5987 34.5799C14.4132 34.5799 14.1984 34.5994 13.9641 34.6385L11.211 35.1071C11.2403 34.8923 11.3477 34.619 11.5332 34.2773C11.7382 33.8965 12.0506 33.4377 12.4509 32.9105C12.5875 32.725 12.6949 32.5883 12.773 32.4907C12.8218 32.4224 12.8999 32.3345 12.9976 32.2076C13.6321 31.3778 14.0129 30.7041 14.1691 30.1769C14.257 29.8743 14.3058 29.5717 14.3253 29.269C14.3351 29.1811 14.3351 29.103 14.3351 29.0249C14.3351 28.8102 14.3155 28.5954 14.2765 28.3806C14.2472 28.1853 14.1984 28.0291 14.13 27.9022C14.0617 27.7753 13.9836 27.6777 13.886 27.6191C13.7786 27.5508 13.6126 27.5215 13.4076 27.5215C13.2416 27.5215 13.0366 27.541 12.7926 27.5801L9.60991 28.1268C9.22917 28.1951 8.93628 28.3025 8.76056 28.4782C8.61412 28.6149 8.54578 28.7906 8.54578 28.9859C8.54578 29.0347 8.54578 29.0933 8.55554 29.1519C8.60435 29.4252 8.74103 29.6205 8.96557 29.7181C9.10225 29.7767 9.25845 29.806 9.45371 29.806C9.58062 29.806 9.72706 29.7962 9.88327 29.7669L12.5387 29.2983C12.5387 29.3471 12.5485 29.3959 12.5485 29.435C12.5485 29.6009 12.5192 29.7669 12.4606 29.9231C12.3825 30.1477 12.1873 30.4601 11.8651 30.8603C11.7772 30.9677 11.6406 31.1434 11.4551 31.368C10.7326 32.2369 10.225 32.9788 9.91256 33.5939C9.68801 34.0235 9.54157 34.4335 9.45371 34.8533C9.40489 35.0973 9.37561 35.3219 9.37561 35.5464C9.37561 35.7026 9.38537 35.8588 9.41466 36.0053C9.45371 36.2201 9.50252 36.3958 9.57086 36.5325C9.6392 36.6691 9.73683 36.7765 9.84422 36.8351C9.95161 36.8937 10.098 36.9132 10.3128 36.9132C10.5764 36.9132 10.9376 36.8742 11.3965 36.7961L14.2863 36.2982C14.7939 36.2103 15.1551 36.0834 15.3601 35.9174C15.5261 35.7807 15.614 35.5952 15.614 35.3805C15.614 35.3219 15.6042 35.2633 15.5945 35.2047C15.5749 35.0778 15.5261 34.9607 15.4383 34.863Z" fill="white"/>
</g>
<defs>
<linearGradient id="paint0_linear_1724_48" x1="585.332" y1="43.1463" x2="585.332" y2="1152.28" gradientUnits="userSpaceOnUse">
<stop offset="0.00562" stop-color="#FFE513"/>
<stop offset="1" stop-color="#FDB924"/>
</linearGradient>
<linearGradient id="paint1_linear_1724_48" x1="84.9552" y1="186.465" x2="1168.27" y2="1065.06" gradientUnits="userSpaceOnUse">
<stop offset="0.00562" stop-color="#008CD2"/>
<stop offset="1" stop-color="#00649D"/>
</linearGradient>
<linearGradient id="paint2_linear_1724_48" x1="703.913" y1="411.31" x2="703.913" y2="1383.02" gradientUnits="userSpaceOnUse">
<stop stop-color="#26A146"/>
<stop offset="1" stop-color="#008A52"/>
</linearGradient>
<linearGradient id="paint3_linear_1724_48" x1="535.441" y1="123.693" x2="696.371" y2="1133.64" gradientUnits="userSpaceOnUse">
<stop stop-color="#D92231"/>
<stop offset="1" stop-color="#BA2234"/>
</linearGradient>
<clipPath id="clip0_1724_48">
<rect width="50" height="17.28" fill="white" transform="translate(6 21)"/>
</clipPath>
</defs>
</svg>
